  0
SECTION
  2
HEADER
  9
$ACADVER
  1
AC1014
  9
$HANDSEED
  5
FFFF
  9
$MEASUREMENT
 70
     1
  0
ENDSEC
  0
SECTION
  2
TABLES
  0
TABLE
  2
VPORT
  5
8
330
0
100
AcDbSymbolTable
 70
     4
  0
VPORT
  5
2E
330
8
100
AcDbSymbolTableRecord
100
AcDbViewportTableRecord
  2
*ACTIVE
 70
     0
 10
0.0
 20
0.0
 11
1.0
 21
1.0
 12
210.0
 22
148.5
 13
0.0
 23
0.0
 14
10.0
 24
10.0
 15
10.0
 25
10.0
 16
0.0
 26
0.0
 36
1.0
 17
0.0
 27
0.0
 37
0.0
 40
341.0
 41
1.24
 42
50.0
 43
0.0
 44
0.0
 50
0.0
 51
0.0
 71
     0
 72
   100
 73
     1
 74
     3
 75
     0
 76
     0
 77
     0
 78
     0
  0
ENDTAB
  0
TABLE
  2
LTYPE
  5
5
330
0
100
AcDbSymbolTable
 70
     1
  0
LTYPE
  5
14
330
5
100
AcDbSymbolTableRecord
100
AcDbLinetypeTableRecord
  2
BYBLOCK
 70
     0
  3

 72
    65
 73
     0
 40
0.0
  0
LTYPE
  5
15
330
5
100
AcDbSymbolTableRecord
100
AcDbLinetypeTableRecord
  2
BYLAYER
 70
     0
  3

 72
    65
 73
     0
 40
0.0
  0
LTYPE
  5
16
330
5
100
AcDbSymbolTableRecord
100
AcDbLinetypeTableRecord
  2
CONTINUOUS
 70
     0
  3
Solid line
 72
    65
 73
     0
 40
0.0
  0
ENDTAB
  0
TABLE
  2
LAYER
  5
2
100
AcDbSymbolTable
 70
1
  0
LAYER
  5
50
100
AcDbSymbolTableRecord
100
AcDbLayerTableRecord
  2
0
 70
0
  6
CONTINUOUS
  0
ENDTAB
  0
TABLE
  2
STYLE
  5
3
330
0
100
AcDbSymbolTable
 70
     1
  0
STYLE
  5
11
330
3
100
AcDbSymbolTableRecord
100
AcDbTextStyleTableRecord
  2
STANDARD
 70
     0
 40
0.0
 41
1.0
 50
0.0
 71
     0
 42
2.5
  3
txt
  4

  0
ENDTAB
  0
TABLE
  2
VIEW
  5
6
330
0
100
AcDbSymbolTable
 70
     0
  0
ENDTAB
  0
TABLE
  2
UCS
  5
7
330
0
100
AcDbSymbolTable
 70
     0
  0
ENDTAB
  0
TABLE
  2
APPID
  5
9
330
0
100
AcDbSymbolTable
 70
     2
  0
APPID
  5
12
330
9
100
AcDbSymbolTableRecord
100
AcDbRegAppTableRecord
  2
ACAD
 70
     0
  0
ENDTAB
  0
TABLE
  2
DIMSTYLE
  5
A
330
0
100
AcDbSymbolTable
 70
     1
  0
DIMSTYLE
105
27
330
A
100
AcDbSymbolTableRecord
100
AcDbDimStyleTableRecord
  2
ISO-25
 70
     0
  3

  4

  5

  6

  7

 40
1.0
 41
2.5
 42
0.625
 43
3.75
 44
1.25
 45
0.0
 46
0.0
 47
0.0
 48
0.0
140
2.5
141
2.5
142
0.0
143
0.03937007874016
144
1.0
145
0.0
146
1.0
147
0.625
 71
     0
 72
     0
 73
     0
 74
     0
 75
     0
 76
     0
 77
     1
 78
     8
170
     0
171
     3
172
     1
173
     0
174
     0
175
     0
176
     0
177
     0
178
     0
270
     2
271
     2
272
     2
273
     2
274
     3
340
11
275
     0
280
     0
281
     0
282
     0
283
     0
284
     8
285
     0
286
     0
287
     3
288
     0
  0
ENDTAB
  0
TABLE
  2
BLOCK_RECORD
  5
1
330
0
100
AcDbSymbolTable
 70
     1
  0
BLOCK_RECORD
  5
1F
330
1
100
AcDbSymbolTableRecord
100
AcDbBlockTableRecord
  2
*MODEL_SPACE
  0
BLOCK_RECORD
  5
1B
330
1
100
AcDbSymbolTableRecord
100
AcDbBlockTableRecord
  2
*PAPER_SPACE
  0
ENDTAB
  0
ENDSEC
  0
SECTION
  2
BLOCKS
  0
BLOCK
  5
20
330
1F
100
AcDbEntity
  8
0
100
AcDbBlockBegin
  2
*MODEL_SPACE
 70
     0
 10
0.0
 20
0.0
 30
0.0
  3
*MODEL_SPACE
  1

  0
ENDBLK
  5
21
330
1F
100
AcDbEntity
  8
0
100
AcDbBlockEnd
  0
BLOCK
  5
1C
330
1B
100
AcDbEntity
 67
     1
  8
0
100
AcDbBlockBegin
  2
*PAPER_SPACE
  1

  0
ENDBLK
  5
1D
330
1B
100
AcDbEntity
 67
     1
  8
0
100
AcDbBlockEnd
  0
ENDSEC
  0
SECTION
  2
ENTITIES
  0
SPLINE
  5
100
100
AcDbEntity
  8
0
 62
7
100
AcDbSpline
 70
8
 71
3
 72
8
 73
4
 74
0
 40
0
 40
0
 40
0
 40
0
 40
1
 40
1
 40
1
 40
1
 10
178.953838
 20
370.529067
 30
0.0
 10
173.431068
 20
370.529007
 30
0.0
 10
168.953997
 20
366.051927
 30
0.0
 10
168.953946
 20
360.529157
 30
0.0
  0
SPLINE
  5
101
100
AcDbEntity
  8
0
 62
7
100
AcDbSpline
 70
8
 71
3
 72
8
 73
4
 74
0
 40
0
 40
0
 40
0
 40
0
 40
1
 40
1
 40
1
 40
1
 10
168.953946
 20
360.529157
 30
0.0
 10
168.953997
 20
355.006388
 30
0.0
 10
173.431068
 20
350.529308
 30
0.0
 10
178.953838
 20
350.529248
 30
0.0
  0
SPLINE
  5
102
100
AcDbEntity
  8
0
 62
7
100
AcDbSpline
 70
8
 71
3
 72
8
 73
4
 74
0
 40
0
 40
0
 40
0
 40
0
 40
1
 40
1
 40
1
 40
1
 10
178.953838
 20
350.529248
 30
0.0
 10
184.476613
 20
350.529300
 30
0.0
 10
188.953694
 20
355.006382
 30
0.0
 10
188.953744
 20
360.529157
 30
0.0
  0
SPLINE
  5
103
100
AcDbEntity
  8
0
 62
7
100
AcDbSpline
 70
8
 71
3
 72
8
 73
4
 74
0
 40
0
 40
0
 40
0
 40
0
 40
1
 40
1
 40
1
 40
1
 10
188.953744
 20
360.529157
 30
0.0
 10
188.953694
 20
366.051933
 30
0.0
 10
184.476613
 20
370.529015
 30
0.0
 10
178.953838
 20
370.529067
 30
0.0
  0
LINE
  5
104
100
AcDbEntity
  8
0
 62
7
100
AcDbLine
 10
178.953838
 20
370.529067
 30
0.0
 11
178.953838
 21
370.529067
 31
0.0
  0
SPLINE
  5
105
100
AcDbEntity
  8
0
 62
7
100
AcDbSpline
 70
8
 71
3
 72
8
 73
4
 74
0
 40
0
 40
0
 40
0
 40
0
 40
1
 40
1
 40
1
 40
1
 10
177.037690
 20
361.969373
 30
0.0
 10
177.037690
 20
361.969373
 30
0.0
 10
180.871034
 20
361.969373
 30
0.0
 10
180.871034
 20
361.969373
 30
0.0
  0
SPLINE
  5
106
100
AcDbEntity
  8
0
 62
7
100
AcDbSpline
 70
8
 71
3
 72
8
 73
4
 74
0
 40
0
 40
0
 40
0
 40
0
 40
1
 40
1
 40
1
 40
1
 10
180.871034
 20
361.969373
 30
0.0
 10
181.183687
 20
361.554073
 30
0.0
 10
181.353063
 20
361.048496
 30
0.0
 10
181.353693
 20
360.528664
 30
0.0
  0
SPLINE
  5
107
100
AcDbEntity
  8
0
 62
7
100
AcDbSpline
 70
8
 71
3
 72
8
 73
4
 74
0
 40
0
 40
0
 40
0
 40
0
 40
1
 40
1
 40
1
 40
1
 10
181.353693
 20
360.528664
 30
0.0
 10
181.352549
 20
360.009051
 30
0.0
 10
181.182815
 20
359.503841
 30
0.0
 10
180.869993
 20
359.088942
 30
0.0
  0
LINE
  5
108
100
AcDbEntity
  8
0
 62
7
100
AcDbLine
 10
180.869993
 20
359.088942
 30
0.0
 11
177.036660
 21
359.088942
 31
0.0
  0
SPLINE
  5
109
100
AcDbEntity
  8
0
 62
7
100
AcDbSpline
 70
8
 71
3
 72
8
 73
4
 74
0
 40
0
 40
0
 40
0
 40
0
 40
1
 40
1
 40
1
 40
1
 10
177.036660
 20
359.088942
 30
0.0
 10
176.724210
 20
359.503972
 30
0.0
 10
176.554844
 20
360.009170
 30
0.0
 10
176.554000
 20
360.528664
 30
0.0
  0
SPLINE
  5
10a
100
AcDbEntity
  8
0
 62
7
100
AcDbSpline
 70
8
 71
3
 72
8
 73
4
 74
0
 40
0
 40
0
 40
0
 40
0
 40
1
 40
1
 40
1
 40
1
 10
176.554000
 20
360.528664
 30
0.0
 10
176.554927
 20
361.048613
 30
0.0
 10
176.724669
 20
361.554203
 30
0.0
 10
177.037690
 20
361.969373
 30
0.0
  0
LINE
  5
10b
100
AcDbEntity
  8
0
 62
7
100
AcDbLine
 10
177.037690
 20
361.969373
 30
0.0
 11
177.037690
 21
361.969373
 31
0.0
  0
LINE
  5
10c
100
AcDbEntity
  8
0
 62
7
100
AcDbLine
 10
176.204154
 20
357.728808
 30
0.0
 11
181.704062
 21
357.728808
 31
0.0
  0
LINE
  5
10d
100
AcDbEntity
  8
0
 62
7
100
AcDbLine
 10
181.704062
 20
357.728808
 30
0.0
 11
181.704062
 21
355.328966
 31
0.0
  0
LINE
  5
10e
100
AcDbEntity
  8
0
 62
7
100
AcDbLine
 10
181.704062
 20
355.328966
 30
0.0
 11
176.204154
 21
355.328966
 31
0.0
  0
LINE
  5
10f
100
AcDbEntity
  8
0
 62
7
100
AcDbLine
 10
176.204154
 20
355.328966
 30
0.0
 11
176.204154
 21
357.728808
 31
0.0
  0
SPLINE
  5
110
100
AcDbEntity
  8
0
 62
7
100
AcDbSpline
 70
8
 71
3
 72
8
 73
4
 74
0
 40
0
 40
0
 40
0
 40
0
 40
1
 40
1
 40
1
 40
1
 10
158.412502
 20
370.529067
 30
0.0
 10
152.889727
 20
370.529015
 30
0.0
 10
148.412647
 20
366.051933
 30
0.0
 10
148.412596
 20
360.529157
 30
0.0
  0
SPLINE
  5
111
100
AcDbEntity
  8
0
 62
7
100
AcDbSpline
 70
8
 71
3
 72
8
 73
4
 74
0
 40
0
 40
0
 40
0
 40
0
 40
1
 40
1
 40
1
 40
1
 10
148.412596
 20
360.529157
 30
0.0
 10
148.412647
 20
355.006382
 30
0.0
 10
152.889727
 20
350.529300
 30
0.0
 10
158.412502
 20
350.529248
 30
0.0
  0
SPLINE
  5
112
100
AcDbEntity
  8
0
 62
7
100
AcDbSpline
 70
8
 71
3
 72
8
 73
4
 74
0
 40
0
 40
0
 40
0
 40
0
 40
1
 40
1
 40
1
 40
1
 10
158.412502
 20
350.529248
 30
0.0
 10
163.935277
 20
350.529300
 30
0.0
 10
168.412358
 20
355.006382
 30
0.0
 10
168.412408
 20
360.529157
 30
0.0
  0
SPLINE
  5
113
100
AcDbEntity
  8
0
 62
7
100
AcDbSpline
 70
8
 71
3
 72
8
 73
4
 74
0
 40
0
 40
0
 40
0
 40
0
 40
1
 40
1
 40
1
 40
1
 10
168.412408
 20
360.529157
 30
0.0
 10
168.412358
 20
366.051933
 30
0.0
 10
163.935277
 20
370.529015
 30
0.0
 10
158.412502
 20
370.529067
 30
0.0
  0
LINE
  5
114
100
AcDbEntity
  8
0
 62
7
100
AcDbLine
 10
158.412502
 20
370.529067
 30
0.0
 11
158.412502
 21
370.529067
 31
0.0
  0
SPLINE
  5
115
100
AcDbEntity
  8
0
 62
7
100
AcDbSpline
 70
8
 71
3
 72
8
 73
4
 74
0
 40
0
 40
0
 40
0
 40
0
 40
1
 40
1
 40
1
 40
1
 10
156.496340
 20
361.969373
 30
0.0
 10
156.496340
 20
361.969373
 30
0.0
 10
160.329698
 20
361.969373
 30
0.0
 10
160.329698
 20
361.969373
 30
0.0
  0
SPLINE
  5
116
100
AcDbEntity
  8
0
 62
7
100
AcDbSpline
 70
8
 71
3
 72
8
 73
4
 74
0
 40
0
 40
0
 40
0
 40
0
 40
1
 40
1
 40
1
 40
1
 10
160.329698
 20
361.969373
 30
0.0
 10
160.642351
 20
361.554073
 30
0.0
 10
160.811727
 20
361.048496
 30
0.0
 10
160.812358
 20
360.528664
 30
0.0
  0
SPLINE
  5
117
100
AcDbEntity
  8
0
 62
7
100
AcDbSpline
 70
8
 71
3
 72
8
 73
4
 74
0
 40
0
 40
0
 40
0
 40
0
 40
1
 40
1
 40
1
 40
1
 10
160.812358
 20
360.528664
 30
0.0
 10
160.811217
 20
360.009052
 30
0.0
 10
160.641486
 20
359.503842
 30
0.0
 10
160.328667
 20
359.088942
 30
0.0
  0
SPLINE
  5
118
100
AcDbEntity
  8
0
 62
7
100
AcDbSpline
 70
8
 71
3
 72
8
 73
4
 74
0
 40
0
 40
0
 40
0
 40
0
 40
1
 40
1
 40
1
 40
1
 10
160.328667
 20
359.088942
 30
0.0
 10
160.328667
 20
359.088942
 30
0.0
 10
156.495310
 20
359.088942
 30
0.0
 10
156.495310
 20
359.088942
 30
0.0
  0
SPLINE
  5
119
100
AcDbEntity
  8
0
 62
7
100
AcDbSpline
 70
8
 71
3
 72
8
 73
4
 74
0
 40
0
 40
0
 40
0
 40
0
 40
1
 40
1
 40
1
 40
1
 10
156.495310
 20
359.088942
 30
0.0
 10
156.182859
 20
359.503972
 30
0.0
 10
156.013494
 20
360.009170
 30
0.0
 10
156.012650
 20
360.528664
 30
0.0
  0
SPLINE
  5
11a
100
AcDbEntity
  8
0
 62
7
100
AcDbSpline
 70
8
 71
3
 72
8
 73
4
 74
0
 40
0
 40
0
 40
0
 40
0
 40
1
 40
1
 40
1
 40
1
 10
156.012650
 20
360.528664
 30
0.0
 10
156.013577
 20
361.048613
 30
0.0
 10
156.183319
 20
361.554203
 30
0.0
 10
156.496340
 20
361.969373
 30
0.0
  0
LINE
  5
11b
100
AcDbEntity
  8
0
 62
7
100
AcDbLine
 10
156.496340
 20
361.969373
 30
0.0
 11
156.496340
 21
361.969373
 31
0.0
  0
LINE
  5
11c
100
AcDbEntity
  8
0
 62
7
100
AcDbLine
 10
155.662800
 20
357.728808
 30
0.0
 11
161.162722
 21
357.728808
 31
0.0
  0
LINE
  5
11d
100
AcDbEntity
  8
0
 62
7
100
AcDbLine
 10
161.162722
 20
357.728808
 30
0.0
 11
161.162722
 21
355.328966
 31
0.0
  0
LINE
  5
11e
100
AcDbEntity
  8
0
 62
7
100
AcDbLine
 10
161.162722
 20
355.328966
 30
0.0
 11
155.662800
 21
355.328966
 31
0.0
  0
LINE
  5
11f
100
AcDbEntity
  8
0
 62
7
100
AcDbLine
 10
155.662800
 20
355.328966
 30
0.0
 11
155.662800
 21
357.728808
 31
0.0
  0
LINE
  5
120
100
AcDbEntity
  8
0
 62
7
100
AcDbLine
 10
45.408497
 20
356.941976
 30
0.0
 11
44.917387
 21
356.941976
 31
0.0
  0
LINE
  5
121
100
AcDbEntity
  8
0
 62
7
100
AcDbLine
 10
44.917387
 20
356.941976
 30
0.0
 11
44.917387
 21
357.058907
 31
0.0
  0
LINE
  5
122
100
AcDbEntity
  8
0
 62
7
100
AcDbLine
 10
44.917387
 20
357.058907
 30
0.0
 11
44.917387
 21
357.175835
 31
0.0
  0
LINE
  5
123
100
AcDbEntity
  8
0
 62
7
100
AcDbLine
 10
44.917387
 20
357.175835
 30
0.0
 11
44.777067
 21
357.175835
 31
0.0
  0
LINE
  5
124
100
AcDbEntity
  8
0
 62
7
100
AcDbLine
 10
44.777067
 20
357.175835
 30
0.0
 11
44.636747
 21
357.175835
 31
0.0
  0
LINE
  5
125
100
AcDbEntity
  8
0
 62
7
100
AcDbLine
 10
44.636747
 20
357.175835
 30
0.0
 11
44.636747
 21
356.918597
 31
0.0
  0
LINE
  5
126
100
AcDbEntity
  8
0
 62
7
100
AcDbLine
 10
44.636747
 20
356.918597
 30
0.0
 11
44.636747
 21
356.661337
 31
0.0
  0
LINE
  5
127
100
AcDbEntity
  8
0
 62
7
100
AcDbLine
 10
44.636747
 20
356.661337
 30
0.0
 11
45.268177
 21
356.661337
 31
0.0
  0
LINE
  5
128
100
AcDbEntity
  8
0
 62
7
100
AcDbLine
 10
45.268177
 20
356.661337
 30
0.0
 11
45.899617
 21
356.661337
 31
0.0
  0
LINE
  5
129
100
AcDbEntity
  8
0
 62
7
100
AcDbLine
 10
45.899617
 20
356.661337
 30
0.0
 11
45.899617
 21
356.801644
 31
0.0
  0
LINE
  5
12a
100
AcDbEntity
  8
0
 62
7
100
AcDbLine
 10
45.899617
 20
356.801644
 30
0.0
 11
45.899617
 21
356.941976
 31
0.0
  0
LINE
  5
12b
100
AcDbEntity
  8
0
 62
7
100
AcDbLine
 10
45.899617
 20
356.941976
 30
0.0
 11
45.408497
 21
356.941976
 31
0.0
  0
LINE
  5
12c
100
AcDbEntity
  8
0
 62
7
100
AcDbLine
 10
33.265378
 20
365.376116
 30
0.0
 11
32.774268
 21
365.376116
 31
0.0
  0
LINE
  5
12d
100
AcDbEntity
  8
0
 62
7
100
AcDbLine
 10
32.774268
 20
365.376116
 30
0.0
 11
32.774268
 21
365.493048
 31
0.0
  0
LINE
  5
12e
100
AcDbEntity
  8
0
 62
7
100
AcDbLine
 10
32.774268
 20
365.493048
 30
0.0
 11
32.774268
 21
365.609976
 31
0.0
  0
LINE
  5
12f
100
AcDbEntity
  8
0
 62
7
100
AcDbLine
 10
32.774268
 20
365.609976
 30
0.0
 11
32.633948
 21
365.609976
 31
0.0
  0
LINE
  5
130
100
AcDbEntity
  8
0
 62
7
100
AcDbLine
 10
32.633948
 20
365.609976
 30
0.0
 11
32.493628
 21
365.609976
 31
0.0
  0
LINE
  5
131
100
AcDbEntity
  8
0
 62
7
100
AcDbLine
 10
32.493628
 20
365.609976
 30
0.0
 11
32.493628
 21
365.352737
 31
0.0
  0
LINE
  5
132
100
AcDbEntity
  8
0
 62
7
100
AcDbLine
 10
32.493628
 20
365.352737
 30
0.0
 11
32.493628
 21
365.095478
 31
0.0
  0
LINE
  5
133
100
AcDbEntity
  8
0
 62
7
100
AcDbLine
 10
32.493628
 20
365.095478
 30
0.0
 11
33.125058
 21
365.095478
 31
0.0
  0
LINE
  5
134
100
AcDbEntity
  8
0
 62
7
100
AcDbLine
 10
33.125058
 20
365.095478
 30
0.0
 11
33.756498
 21
365.095478
 31
0.0
  0
LINE
  5
135
100
AcDbEntity
  8
0
 62
7
100
AcDbLine
 10
33.756498
 20
365.095478
 30
0.0
 11
33.756498
 21
365.235784
 31
0.0
  0
LINE
  5
136
100
AcDbEntity
  8
0
 62
7
100
AcDbLine
 10
33.756498
 20
365.235784
 30
0.0
 11
33.756498
 21
365.376116
 31
0.0
  0
LINE
  5
137
100
AcDbEntity
  8
0
 62
7
100
AcDbLine
 10
33.756498
 20
365.376116
 30
0.0
 11
33.265378
 21
365.376116
 31
0.0
  0
LINE
  5
138
100
AcDbEntity
  8
0
 62
7
100
AcDbLine
 10
31.029476
 20
364.081845
 30
0.0
 11
30.538366
 21
364.081845
 31
0.0
  0
LINE
  5
139
100
AcDbEntity
  8
0
 62
7
100
AcDbLine
 10
30.538366
 20
364.081845
 30
0.0
 11
30.538366
 21
364.198777
 31
0.0
  0
LINE
  5
13a
100
AcDbEntity
  8
0
 62
7
100
AcDbLine
 10
30.538366
 20
364.198777
 30
0.0
 11
30.538366
 21
364.315705
 31
0.0
  0
LINE
  5
13b
100
AcDbEntity
  8
0
 62
7
100
AcDbLine
 10
30.538366
 20
364.315705
 30
0.0
 11
30.398046
 21
364.315705
 31
0.0
  0
LINE
  5
13c
100
AcDbEntity
  8
0
 62
7
100
AcDbLine
 10
30.398046
 20
364.315705
 30
0.0
 11
30.257726
 21
364.315705
 31
0.0
  0
LINE
  5
13d
100
AcDbEntity
  8
0
 62
7
100
AcDbLine
 10
30.257726
 20
364.315705
 30
0.0
 11
30.257726
 21
364.058466
 31
0.0
  0
LINE
  5
13e
100
AcDbEntity
  8
0
 62
7
100
AcDbLine
 10
30.257726
 20
364.058466
 30
0.0
 11
30.257726
 21
363.801207
 31
0.0
  0
LINE
  5
13f
100
AcDbEntity
  8
0
 62
7
100
AcDbLine
 10
30.257726
 20
363.801207
 30
0.0
 11
30.889156
 21
363.801207
 31
0.0
  0
LINE
  5
140
100
AcDbEntity
  8
0
 62
7
100
AcDbLine
 10
30.889156
 20
363.801207
 30
0.0
 11
31.520596
 21
363.801207
 31
0.0
  0
LINE
  5
141
100
AcDbEntity
  8
0
 62
7
100
AcDbLine
 10
31.520596
 20
363.801207
 30
0.0
 11
31.520596
 21
363.941513
 31
0.0
  0
LINE
  5
142
100
AcDbEntity
  8
0
 62
7
100
AcDbLine
 10
31.520596
 20
363.941513
 30
0.0
 11
31.520596
 21
364.081845
 31
0.0
  0
LINE
  5
143
100
AcDbEntity
  8
0
 62
7
100
AcDbLine
 10
31.520596
 20
364.081845
 30
0.0
 11
31.029476
 21
364.081845
 31
0.0
  0
LINE
  5
144
100
AcDbEntity
  8
0
 62
7
100
AcDbLine
 10
39.016450
 20
368.203983
 30
0.0
 11
38.525340
 21
368.203983
 31
0.0
  0
LINE
  5
145
100
AcDbEntity
  8
0
 62
7
100
AcDbLine
 10
38.525340
 20
368.203983
 30
0.0
 11
38.525340
 21
368.320914
 31
0.0
  0
LINE
  5
146
100
AcDbEntity
  8
0
 62
7
100
AcDbLine
 10
38.525340
 20
368.320914
 30
0.0
 11
38.525340
 21
368.437842
 31
0.0
  0
LINE
  5
147
100
AcDbEntity
  8
0
 62
7
100
AcDbLine
 10
38.525340
 20
368.437842
 30
0.0
 11
38.385019
 21
368.437842
 31
0.0
  0
LINE
  5
148
100
AcDbEntity
  8
0
 62
7
100
AcDbLine
 10
38.385019
 20
368.437842
 30
0.0
 11
38.244700
 21
368.437842
 31
0.0
  0
LINE
  5
149
100
AcDbEntity
  8
0
 62
7
100
AcDbLine
 10
38.244700
 20
368.437842
 30
0.0
 11
38.244700
 21
368.180604
 31
0.0
  0
LINE
  5
14a
100
AcDbEntity
  8
0
 62
7
100
AcDbLine
 10
38.244700
 20
368.180604
 30
0.0
 11
38.244700
 21
367.923344
 31
0.0
  0
LINE
  5
14b
100
AcDbEntity
  8
0
 62
7
100
AcDbLine
 10
38.244700
 20
367.923344
 30
0.0
 11
38.876130
 21
367.923344
 31
0.0
  0
LINE
  5
14c
100
AcDbEntity
  8
0
 62
7
100
AcDbLine
 10
38.876130
 20
367.923344
 30
0.0
 11
39.507570
 21
367.923344
 31
0.0
  0
LINE
  5
14d
100
AcDbEntity
  8
0
 62
7
100
AcDbLine
 10
39.507570
 20
367.923344
 30
0.0
 11
39.507570
 21
368.063651
 31
0.0
  0
LINE
  5
14e
100
AcDbEntity
  8
0
 62
7
100
AcDbLine
 10
39.507570
 20
368.063651
 30
0.0
 11
39.507570
 21
368.203983
 31
0.0
  0
LINE
  5
14f
100
AcDbEntity
  8
0
 62
7
100
AcDbLine
 10
39.507570
 20
368.203983
 30
0.0
 11
39.016450
 21
368.203983
 31
0.0
  0
LINE
  5
150
100
AcDbEntity
  8
0
 62
7
100
AcDbLine
 10
42.436450
 20
351.961459
 30
0.0
 11
41.945340
 21
351.961459
 31
0.0
  0
LINE
  5
151
100
AcDbEntity
  8
0
 62
7
100
AcDbLine
 10
41.945340
 20
351.961459
 30
0.0
 11
41.945340
 21
352.078391
 31
0.0
  0
LINE
  5
152
100
AcDbEntity
  8
0
 62
7
100
AcDbLine
 10
41.945340
 20
352.078391
 30
0.0
 11
41.945340
 21
352.195319
 31
0.0
  0
LINE
  5
153
100
AcDbEntity
  8
0
 62
7
100
AcDbLine
 10
41.945340
 20
352.195319
 30
0.0
 11
41.805020
 21
352.195319
 31
0.0
  0
LINE
  5
154
100
AcDbEntity
  8
0
 62
7
100
AcDbLine
 10
41.805020
 20
352.195319
 30
0.0
 11
41.664700
 21
352.195319
 31
0.0
  0
LINE
  5
155
100
AcDbEntity
  8
0
 62
7
100
AcDbLine
 10
41.664700
 20
352.195319
 30
0.0
 11
41.664700
 21
351.938080
 31
0.0
  0
LINE
  5
156
100
AcDbEntity
  8
0
 62
7
100
AcDbLine
 10
41.664700
 20
351.938080
 30
0.0
 11
41.664700
 21
351.680821
 31
0.0
  0
LINE
  5
157
100
AcDbEntity
  8
0
 62
7
100
AcDbLine
 10
41.664700
 20
351.680821
 30
0.0
 11
42.296130
 21
351.680821
 31
0.0
  0
LINE
  5
158
100
AcDbEntity
  8
0
 62
7
100
AcDbLine
 10
42.296130
 20
351.680821
 30
0.0
 11
42.927570
 21
351.680821
 31
0.0
  0
LINE
  5
159
100
AcDbEntity
  8
0
 62
7
100
AcDbLine
 10
42.927570
 20
351.680821
 30
0.0
 11
42.927570
 21
351.821127
 31
0.0
  0
LINE
  5
15a
100
AcDbEntity
  8
0
 62
7
100
AcDbLine
 10
42.927570
 20
351.821127
 30
0.0
 11
42.927570
 21
351.961459
 31
0.0
  0
LINE
  5
15b
100
AcDbEntity
  8
0
 62
7
100
AcDbLine
 10
42.927570
 20
351.961459
 30
0.0
 11
42.436450
 21
351.961459
 31
0.0
  0
LINE
  5
15c
100
AcDbEntity
  8
0
 62
7
100
AcDbLine
 10
51.669085
 20
356.115498
 30
0.0
 11
52.300564
 21
356.115498
 31
0.0
  0
LINE
  5
15d
100
AcDbEntity
  8
0
 62
7
100
AcDbLine
 10
52.300564
 20
356.115498
 30
0.0
 11
52.932054
 21
356.115498
 31
0.0
  0
LINE
  5
15e
100
AcDbEntity
  8
0
 62
7
100
AcDbLine
 10
52.932054
 20
356.115498
 30
0.0
 11
52.932054
 21
355.788385
 31
0.0
  0
LINE
  5
15f
100
AcDbEntity
  8
0
 62
7
100
AcDbLine
 10
52.932054
 20
355.788385
 30
0.0
 11
52.932054
 21
355.460757
 31
0.0
  0
LINE
  5
160
100
AcDbEntity
  8
0
 62
7
100
AcDbLine
 10
52.932054
 20
355.460757
 30
0.0
 11
52.300564
 21
355.460757
 31
0.0
  0
LINE
  5
161
100
AcDbEntity
  8
0
 62
7
100
AcDbLine
 10
52.300564
 20
355.460757
 30
0.0
 11
51.669085
 21
355.460757
 31
0.0
  0
LINE
  5
162
100
AcDbEntity
  8
0
 62
7
100
AcDbLine
 10
51.669085
 20
355.460757
 30
0.0
 11
51.669085
 21
355.788385
 31
0.0
  0
LINE
  5
163
100
AcDbEntity
  8
0
 62
7
100
AcDbLine
 10
51.669085
 20
355.788385
 30
0.0
 11
51.669085
 21
356.115498
 31
0.0
  0
LINE
  5
164
100
AcDbEntity
  8
0
 62
7
100
AcDbLine
 10
51.870623
 20
355.919647
 30
0.0
 11
51.870623
 21
355.673665
 31
0.0
  0
LINE
  5
165
100
AcDbEntity
  8
0
 62
7
100
AcDbLine
 10
51.870623
 20
355.673665
 30
0.0
 11
52.730004
 21
355.673665
 31
0.0
  0
LINE
  5
166
100
AcDbEntity
  8
0
 62
7
100
AcDbLine
 10
52.730004
 20
355.673665
 30
0.0
 11
52.730004
 21
355.919647
 31
0.0
  0
LINE
  5
167
100
AcDbEntity
  8
0
 62
7
100
AcDbLine
 10
52.730004
 20
355.919647
 30
0.0
 11
51.870623
 21
355.919647
 31
0.0
  0
LINE
  5
168
100
AcDbEntity
  8
0
 62
7
100
AcDbLine
 10
48.530692
 20
356.835130
 30
0.0
 11
49.162172
 21
356.835130
 31
0.0
  0
LINE
  5
169
100
AcDbEntity
  8
0
 62
7
100
AcDbLine
 10
49.162172
 20
356.835130
 30
0.0
 11
49.793662
 21
356.835130
 31
0.0
  0
LINE
  5
16a
100
AcDbEntity
  8
0
 62
7
100
AcDbLine
 10
49.793662
 20
356.835130
 30
0.0
 11
49.793662
 21
356.508017
 31
0.0
  0
LINE
  5
16b
100
AcDbEntity
  8
0
 62
7
100
AcDbLine
 10
49.793662
 20
356.508017
 30
0.0
 11
49.793662
 21
356.180388
 31
0.0
  0
LINE
  5
16c
100
AcDbEntity
  8
0
 62
7
100
AcDbLine
 10
49.793662
 20
356.180388
 30
0.0
 11
49.162172
 21
356.180388
 31
0.0
  0
LINE
  5
16d
100
AcDbEntity
  8
0
 62
7
100
AcDbLine
 10
49.162172
 20
356.180388
 30
0.0
 11
48.530692
 21
356.180388
 31
0.0
  0
LINE
  5
16e
100
AcDbEntity
  8
0
 62
7
100
AcDbLine
 10
48.530692
 20
356.180388
 30
0.0
 11
48.530692
 21
356.508017
 31
0.0
  0
LINE
  5
16f
100
AcDbEntity
  8
0
 62
7
100
AcDbLine
 10
48.530692
 20
356.508017
 30
0.0
 11
48.530692
 21
356.835130
 31
0.0
  0
LINE
  5
170
100
AcDbEntity
  8
0
 62
7
100
AcDbLine
 10
48.732232
 20
356.639278
 30
0.0
 11
48.732232
 21
356.393297
 31
0.0
  0
LINE
  5
171
100
AcDbEntity
  8
0
 62
7
100
AcDbLine
 10
48.732232
 20
356.393297
 30
0.0
 11
49.591612
 21
356.393297
 31
0.0
  0
LINE
  5
172
100
AcDbEntity
  8
0
 62
7
100
AcDbLine
 10
49.591612
 20
356.393297
 30
0.0
 11
49.591612
 21
356.639278
 31
0.0
  0
LINE
  5
173
100
AcDbEntity
  8
0
 62
7
100
AcDbLine
 10
49.591612
 20
356.639278
 30
0.0
 11
48.732232
 21
356.639278
 31
0.0
  0
LINE
  5
174
100
AcDbEntity
  8
0
 62
7
100
AcDbLine
 10
32.517379
 20
356.275730
 30
0.0
 11
33.148859
 21
356.275730
 31
0.0
  0
LINE
  5
175
100
AcDbEntity
  8
0
 62
7
100
AcDbLine
 10
33.148859
 20
356.275730
 30
0.0
 11
33.780349
 21
356.275730
 31
0.0
  0
LINE
  5
176
100
AcDbEntity
  8
0
 62
7
100
AcDbLine
 10
33.780349
 20
356.275730
 30
0.0
 11
33.780349
 21
355.948617
 31
0.0
  0
LINE
  5
177
100
AcDbEntity
  8
0
 62
7
100
AcDbLine
 10
33.780349
 20
355.948617
 30
0.0
 11
33.780349
 21
355.620989
 31
0.0
  0
LINE
  5
178
100
AcDbEntity
  8
0
 62
7
100
AcDbLine
 10
33.780349
 20
355.620989
 30
0.0
 11
33.148859
 21
355.620989
 31
0.0
  0
LINE
  5
179
100
AcDbEntity
  8
0
 62
7
100
AcDbLine
 10
33.148859
 20
355.620989
 30
0.0
 11
32.517379
 21
355.620989
 31
0.0
  0
LINE
  5
17a
100
AcDbEntity
  8
0
 62
7
100
AcDbLine
 10
32.517379
 20
355.620989
 30
0.0
 11
32.517379
 21
355.948617
 31
0.0
  0
LINE
  5
17b
100
AcDbEntity
  8
0
 62
7
100
AcDbLine
 10
32.517379
 20
355.948617
 30
0.0
 11
32.517379
 21
356.275730
 31
0.0
  0
LINE
  5
17c
100
AcDbEntity
  8
0
 62
7
100
AcDbLine
 10
32.718918
 20
356.079878
 30
0.0
 11
32.718918
 21
355.833897
 31
0.0
  0
LINE
  5
17d
100
AcDbEntity
  8
0
 62
7
100
AcDbLine
 10
32.718918
 20
355.833897
 30
0.0
 11
33.578299
 21
355.833897
 31
0.0
  0
LINE
  5
17e
100
AcDbEntity
  8
0
 62
7
100
AcDbLine
 10
33.578299
 20
355.833897
 30
0.0
 11
33.578299
 21
356.079878
 31
0.0
  0
LINE
  5
17f
100
AcDbEntity
  8
0
 62
7
100
AcDbLine
 10
33.578299
 20
356.079878
 30
0.0
 11
32.718918
 21
356.079878
 31
0.0
  0
LINE
  5
180
100
AcDbEntity
  8
0
 62
7
100
AcDbLine
 10
42.755512
 20
370.728400
 30
0.0
 11
43.386992
 21
370.728400
 31
0.0
  0
LINE
  5
181
100
AcDbEntity
  8
0
 62
7
100
AcDbLine
 10
43.386992
 20
370.728400
 30
0.0
 11
44.018482
 21
370.728400
 31
0.0
  0
LINE
  5
182
100
AcDbEntity
  8
0
 62
7
100
AcDbLine
 10
44.018482
 20
370.728400
 30
0.0
 11
44.018482
 21
370.401287
 31
0.0
  0
LINE
  5
183
100
AcDbEntity
  8
0
 62
7
100
AcDbLine
 10
44.018482
 20
370.401287
 30
0.0
 11
44.018482
 21
370.073659
 31
0.0
  0
LINE
  5
184
100
AcDbEntity
  8
0
 62
7
100
AcDbLine
 10
44.018482
 20
370.073659
 30
0.0
 11
43.386992
 21
370.073659
 31
0.0
  0
LINE
  5
185
100
AcDbEntity
  8
0
 62
7
100
AcDbLine
 10
43.386992
 20
370.073659
 30
0.0
 11
42.755512
 21
370.073659
 31
0.0
  0
LINE
  5
186
100
AcDbEntity
  8
0
 62
7
100
AcDbLine
 10
42.755512
 20
370.073659
 30
0.0
 11
42.755512
 21
370.401287
 31
0.0
  0
LINE
  5
187
100
AcDbEntity
  8
0
 62
7
100
AcDbLine
 10
42.755512
 20
370.401287
 30
0.0
 11
42.755512
 21
370.728400
 31
0.0
  0
LINE
  5
188
100
AcDbEntity
  8
0
 62
7
100
AcDbLine
 10
42.957052
 20
370.532549
 30
0.0
 11
42.957052
 21
370.286567
 31
0.0
  0
LINE
  5
189
100
AcDbEntity
  8
0
 62
7
100
AcDbLine
 10
42.957052
 20
370.286567
 30
0.0
 11
43.816432
 21
370.286567
 31
0.0
  0
LINE
  5
18a
100
AcDbEntity
  8
0
 62
7
100
AcDbLine
 10
43.816432
 20
370.286567
 30
0.0
 11
43.816432
 21
370.532549
 31
0.0
  0
LINE
  5
18b
100
AcDbEntity
  8
0
 62
7
100
AcDbLine
 10
43.816432
 20
370.532549
 30
0.0
 11
42.957052
 21
370.532549
 31
0.0
  0
LINE
  5
18c
100
AcDbEntity
  8
0
 62
7
100
AcDbLine
 10
24.334917
 20
362.038179
 30
0.0
 11
24.966397
 21
362.038179
 31
0.0
  0
LINE
  5
18d
100
AcDbEntity
  8
0
 62
7
100
AcDbLine
 10
24.966397
 20
362.038179
 30
0.0
 11
25.597887
 21
362.038179
 31
0.0
  0
LINE
  5
18e
100
AcDbEntity
  8
0
 62
7
100
AcDbLine
 10
25.597887
 20
362.038179
 30
0.0
 11
25.597887
 21
361.711065
 31
0.0
  0
LINE
  5
18f
100
AcDbEntity
  8
0
 62
7
100
AcDbLine
 10
25.597887
 20
361.711065
 30
0.0
 11
25.597887
 21
361.383437
 31
0.0
  0
LINE
  5
190
100
AcDbEntity
  8
0
 62
7
100
AcDbLine
 10
25.597887
 20
361.383437
 30
0.0
 11
24.966397
 21
361.383437
 31
0.0
  0
LINE
  5
191
100
AcDbEntity
  8
0
 62
7
100
AcDbLine
 10
24.966397
 20
361.383437
 30
0.0
 11
24.334917
 21
361.383437
 31
0.0
  0
LINE
  5
192
100
AcDbEntity
  8
0
 62
7
100
AcDbLine
 10
24.334917
 20
361.383437
 30
0.0
 11
24.334917
 21
361.711065
 31
0.0
  0
LINE
  5
193
100
AcDbEntity
  8
0
 62
7
100
AcDbLine
 10
24.334917
 20
361.711065
 30
0.0
 11
24.334917
 21
362.038179
 31
0.0
  0
LINE
  5
194
100
AcDbEntity
  8
0
 62
7
100
AcDbLine
 10
24.536457
 20
361.842327
 30
0.0
 11
24.536457
 21
361.596346
 31
0.0
  0
LINE
  5
195
100
AcDbEntity
  8
0
 62
7
100
AcDbLine
 10
24.536457
 20
361.596346
 30
0.0
 11
25.395837
 21
361.596346
 31
0.0
  0
LINE
  5
196
100
AcDbEntity
  8
0
 62
7
100
AcDbLine
 10
25.395837
 20
361.596346
 30
0.0
 11
25.395837
 21
361.842327
 31
0.0
  0
LINE
  5
197
100
AcDbEntity
  8
0
 62
7
100
AcDbLine
 10
25.395837
 20
361.842327
 30
0.0
 11
24.536457
 21
361.842327
 31
0.0
  0
LINE
  5
198
100
AcDbEntity
  8
0
 62
7
100
AcDbLine
 10
43.648893
 20
365.841052
 30
0.0
 11
44.280373
 21
365.841052
 31
0.0
  0
LINE
  5
199
100
AcDbEntity
  8
0
 62
7
100
AcDbLine
 10
44.280373
 20
365.841052
 30
0.0
 11
44.911863
 21
365.841052
 31
0.0
  0
LINE
  5
19a
100
AcDbEntity
  8
0
 62
7
100
AcDbLine
 10
44.911863
 20
365.841052
 30
0.0
 11
44.911863
 21
365.513939
 31
0.0
  0
LINE
  5
19b
100
AcDbEntity
  8
0
 62
7
100
AcDbLine
 10
44.911863
 20
365.513939
 30
0.0
 11
44.911863
 21
365.186311
 31
0.0
  0
LINE
  5
19c
100
AcDbEntity
  8
0
 62
7
100
AcDbLine
 10
44.911863
 20
365.186311
 30
0.0
 11
44.280373
 21
365.186311
 31
0.0
  0
LINE
  5
19d
100
AcDbEntity
  8
0
 62
7
100
AcDbLine
 10
44.280373
 20
365.186311
 30
0.0
 11
43.648893
 21
365.186311
 31
0.0
  0
LINE
  5
19e
100
AcDbEntity
  8
0
 62
7
100
AcDbLine
 10
43.648893
 20
365.186311
 30
0.0
 11
43.648893
 21
365.513939
 31
0.0
  0
LINE
  5
19f
100
AcDbEntity
  8
0
 62
7
100
AcDbLine
 10
43.648893
 20
365.513939
 30
0.0
 11
43.648893
 21
365.841052
 31
0.0
  0
LINE
  5
1a0
100
AcDbEntity
  8
0
 62
7
100
AcDbLine
 10
43.850433
 20
365.645201
 30
0.0
 11
43.850433
 21
365.399219
 31
0.0
  0
LINE
  5
1a1
100
AcDbEntity
  8
0
 62
7
100
AcDbLine
 10
43.850433
 20
365.399219
 30
0.0
 11
44.709813
 21
365.399219
 31
0.0
  0
LINE
  5
1a2
100
AcDbEntity
  8
0
 62
7
100
AcDbLine
 10
44.709813
 20
365.399219
 30
0.0
 11
44.709813
 21
365.645201
 31
0.0
  0
LINE
  5
1a3
100
AcDbEntity
  8
0
 62
7
100
AcDbLine
 10
44.709813
 20
365.645201
 30
0.0
 11
43.850433
 21
365.645201
 31
0.0
  0
LINE
  5
1a4
100
AcDbEntity
  8
0
 62
7
100
AcDbLine
 10
24.520899
 20
359.752450
 30
0.0
 11
24.029789
 21
359.752450
 31
0.0
  0
LINE
  5
1a5
100
AcDbEntity
  8
0
 62
7
100
AcDbLine
 10
24.029789
 20
359.752450
 30
0.0
 11
24.029789
 21
359.869382
 31
0.0
  0
LINE
  5
1a6
100
AcDbEntity
  8
0
 62
7
100
AcDbLine
 10
24.029789
 20
359.869382
 30
0.0
 11
24.029789
 21
359.986310
 31
0.0
  0
LINE
  5
1a7
100
AcDbEntity
  8
0
 62
7
100
AcDbLine
 10
24.029789
 20
359.986310
 30
0.0
 11
23.889469
 21
359.986310
 31
0.0
  0
LINE
  5
1a8
100
AcDbEntity
  8
0
 62
7
100
AcDbLine
 10
23.889469
 20
359.986310
 30
0.0
 11
23.749149
 21
359.986310
 31
0.0
  0
LINE
  5
1a9
100
AcDbEntity
  8
0
 62
7
100
AcDbLine
 10
23.749149
 20
359.986310
 30
0.0
 11
23.749149
 21
359.729072
 31
0.0
  0
LINE
  5
1aa
100
AcDbEntity
  8
0
 62
7
100
AcDbLine
 10
23.749149
 20
359.729072
 30
0.0
 11
23.749149
 21
359.471812
 31
0.0
  0
LINE
  5
1ab
100
AcDbEntity
  8
0
 62
7
100
AcDbLine
 10
23.749149
 20
359.471812
 30
0.0
 11
24.380579
 21
359.471812
 31
0.0
  0
LINE
  5
1ac
100
AcDbEntity
  8
0
 62
7
100
AcDbLine
 10
24.380579
 20
359.471812
 30
0.0
 11
25.012019
 21
359.471812
 31
0.0
  0
LINE
  5
1ad
100
AcDbEntity
  8
0
 62
7
100
AcDbLine
 10
25.012019
 20
359.471812
 30
0.0
 11
25.012019
 21
359.612119
 31
0.0
  0
LINE
  5
1ae
100
AcDbEntity
  8
0
 62
7
100
AcDbLine
 10
25.012019
 20
359.612119
 30
0.0
 11
25.012019
 21
359.752450
 31
0.0
  0
LINE
  5
1af
100
AcDbEntity
  8
0
 62
7
100
AcDbLine
 10
25.012019
 20
359.752450
 30
0.0
 11
24.520899
 21
359.752450
 31
0.0
  0
LINE
  5
1b0
100
AcDbEntity
  8
0
 62
7
100
AcDbLine
 10
47.886446
 20
347.214487
 30
0.0
 11
19.316100
 21
360.570283
 31
0.0
  0
LINE
  5
1b1
100
AcDbEntity
  8
0
 62
7
100
AcDbLine
 10
19.316100
 20
360.570283
 30
0.0
 11
47.886446
 21
373.926054
 31
0.0
  0
LINE
  5
1b2
100
AcDbEntity
  8
0
 62
7
100
AcDbLine
 10
47.886446
 20
373.926054
 30
0.0
 11
44.316125
 21
366.724414
 31
0.0
  0
SPLINE
  5
1b3
100
AcDbEntity
  8
0
 62
7
100
AcDbSpline
 70
8
 71
3
 72
8
 73
4
 74
0
 40
0
 40
0
 40
0
 40
0
 40
1
 40
1
 40
1
 40
1
 10
44.316125
 20
366.724414
 30
0.0
 10
69.316098
 20
366.570285
 30
0.0
 10
102.782767
 20
368.570284
 30
0.0
 10
132.323669
 20
368.546518
 30
0.0
  0
SPLINE
  5
1b4
100
AcDbEntity
  8
0
 62
7
100
AcDbSpline
 70
8
 71
3
 72
8
 73
4
 74
0
 40
0
 40
0
 40
0
 40
0
 40
1
 40
1
 40
1
 40
1
 10
132.323669
 20
368.546518
 30
0.0
 10
134.049881
 20
369.841124
 30
0.0
 10
136.148528
 20
370.542668
 30
0.0
 10
138.306250
 20
370.546397
 30
0.0
  0
SPLINE
  5
1b5
100
AcDbEntity
  8
0
 62
7
100
AcDbSpline
 70
8
 71
3
 72
8
 73
4
 74
0
 40
0
 40
0
 40
0
 40
0
 40
1
 40
1
 40
1
 40
1
 10
138.306250
 20
370.546397
 30
0.0
 10
143.284156
 20
370.541106
 30
0.0
 10
147.500211
 20
366.875304
 30
0.0
 10
148.197120
 20
361.946409
 30
0.0
  0
LINE
  5
1b6
100
AcDbEntity
  8
0
 62
7
100
AcDbLine
 10
148.197120
 20
361.946409
 30
0.0
 11
143.506452
 21
361.946409
 31
0.0
  0
LINE
  5
1b7
100
AcDbEntity
  8
0
 62
7
100
AcDbLine
 10
143.506452
 20
361.946409
 30
0.0
 11
143.506452
 21
363.296207
 31
0.0
  0
LINE
  5
1b8
100
AcDbEntity
  8
0
 62
7
100
AcDbLine
 10
143.506452
 20
363.296207
 30
0.0
 11
141.106597
 21
363.296207
 31
0.0
  0
LINE
  5
1b9
100
AcDbEntity
  8
0
 62
7
100
AcDbLine
 10
141.106597
 20
363.296207
 30
0.0
 11
141.106597
 21
361.946409
 31
0.0
  0
LINE
  5
1ba
100
AcDbEntity
  8
0
 62
7
100
AcDbLine
 10
141.106597
 20
361.946409
 30
0.0
 11
139.746473
 21
361.946409
 31
0.0
  0
LINE
  5
1bb
100
AcDbEntity
  8
0
 62
7
100
AcDbLine
 10
139.746473
 20
361.946409
 30
0.0
 11
139.746473
 21
362.463694
 31
0.0
  0
SPLINE
  5
1bc
100
AcDbEntity
  8
0
 62
7
100
AcDbSpline
 70
8
 71
3
 72
8
 73
4
 74
0
 40
0
 40
0
 40
0
 40
0
 40
1
 40
1
 40
1
 40
1
 10
139.746473
 20
362.463694
 30
0.0
 10
139.331451
 20
362.776142
 30
0.0
 10
138.826255
 20
362.945500
 30
0.0
 10
138.306765
 20
362.946347
 30
0.0
  0
SPLINE
  5
1bd
100
AcDbEntity
  8
0
 62
7
100
AcDbSpline
 70
8
 71
3
 72
8
 73
4
 74
0
 40
0
 40
0
 40
0
 40
0
 40
1
 40
1
 40
1
 40
1
 10
138.306765
 20
362.946347
 30
0.0
 10
137.786813
 20
362.946347
 30
0.0
 10
137.281209
 20
362.775691
 30
0.0
 10
136.866028
 20
362.462664
 30
0.0
  0
LINE
  5
1be
100
AcDbEntity
  8
0
 62
7
100
AcDbLine
 10
136.866028
 20
362.462664
 30
0.0
 11
136.866028
 21
358.629300
 31
0.0
  0
SPLINE
  5
1bf
100
AcDbEntity
  8
0
 62
7
100
AcDbSpline
 70
8
 71
3
 72
8
 73
4
 74
0
 40
0
 40
0
 40
0
 40
0
 40
1
 40
1
 40
1
 40
1
 10
136.866028
 20
358.629300
 30
0.0
 10
137.281336
 20
358.316643
 30
0.0
 10
137.786930
 20
358.147282
 30
0.0
 10
138.306765
 20
358.146647
 30
0.0
  0
SPLINE
  5
1c0
100
AcDbEntity
  8
0
 62
7
100
AcDbSpline
 70
8
 71
3
 72
8
 73
4
 74
0
 40
0
 40
0
 40
0
 40
0
 40
1
 40
1
 40
1
 40
1
 10
138.306765
 20
358.146647
 30
0.0
 10
138.826375
 20
358.146647
 30
0.0
 10
139.331578
 20
358.317515
 30
0.0
 10
139.746473
 20
358.630333
 30
0.0
  0
LINE
  5
1c1
100
AcDbEntity
  8
0
 62
7
100
AcDbLine
 10
139.746473
 20
358.630333
 30
0.0
 11
139.746473
 21
359.146588
 31
0.0
  0
LINE
  5
1c2
100
AcDbEntity
  8
0
 62
7
100
AcDbLine
 10
139.746473
 20
359.146588
 30
0.0
 11
141.106597
 21
359.146588
 31
0.0
  0
LINE
  5
1c3
100
AcDbEntity
  8
0
 62
7
100
AcDbLine
 10
141.106597
 20
359.146588
 30
0.0
 11
141.106597
 21
357.796285
 31
0.0
  0
LINE
  5
1c4
100
AcDbEntity
  8
0
 62
7
100
AcDbLine
 10
141.106597
 20
357.796285
 30
0.0
 11
143.506452
 21
357.796285
 31
0.0
  0
LINE
  5
1c5
100
AcDbEntity
  8
0
 62
7
100
AcDbLine
 10
143.506452
 20
357.796285
 30
0.0
 11
143.506452
 21
359.146588
 31
0.0
  0
LINE
  5
1c6
100
AcDbEntity
  8
0
 62
7
100
AcDbLine
 10
143.506452
 20
359.146588
 30
0.0
 11
148.195567
 21
359.146588
 31
0.0
  0
SPLINE
  5
1c7
100
AcDbEntity
  8
0
 62
7
100
AcDbSpline
 70
8
 71
3
 72
8
 73
4
 74
0
 40
0
 40
0
 40
0
 40
0
 40
1
 40
1
 40
1
 40
1
 10
148.195567
 20
359.146588
 30
0.0
 10
147.498750
 20
354.218272
 30
0.0
 10
143.283567
 20
350.552682
 30
0.0
 10
138.306250
 20
350.546596
 30
0.0
  0
SPLINE
  5
1c8
100
AcDbEntity
  8
0
 62
7
100
AcDbSpline
 70
8
 71
3
 72
8
 73
4
 74
0
 40
0
 40
0
 40
0
 40
0
 40
1
 40
1
 40
1
 40
1
 10
138.306250
 20
350.546596
 30
0.0
 10
136.149766
 20
350.551077
 30
0.0
 10
134.052505
 20
351.252611
 30
0.0
 10
132.327288
 20
352.546476
 30
0.0
  0
SPLINE
  5
1c9
100
AcDbEntity
  8
0
 62
7
100
AcDbSpline
 70
8
 71
3
 72
8
 73
4
 74
0
 40
0
 40
0
 40
0
 40
0
 40
1
 40
1
 40
1
 40
1
 10
132.327288
 20
352.546476
 30
0.0
 10
102.782767
 20
352.570288
 30
0.0
 10
69.316098
 20
354.570284
 30
0.0
 10
44.316125
 20
354.416128
 30
0.0
  0
LINE
  5
1ca
100
AcDbEntity
  8
0
 62
7
100
AcDbLine
 10
44.316125
 20
354.416128
 30
0.0
 11
47.886446
 21
347.214487
 31
0.0
  0
LINE
  5
1cb
100
AcDbEntity
  8
0
 62
7
100
AcDbLine
 10
122.306194
 20
358.046398
 30
0.0
 11
124.306589
 21
358.046398
 31
0.0
  0
LINE
  5
1cc
100
AcDbEntity
  8
0
 62
7
100
AcDbLine
 10
124.306589
 20
358.046398
 30
0.0
 11
124.306589
 21
363.046599
 31
0.0
  0
LINE
  5
1cd
100
AcDbEntity
  8
0
 62
7
100
AcDbLine
 10
124.306589
 20
363.046599
 30
0.0
 11
122.306194
 21
363.046599
 31
0.0
  0
LINE
  5
1ce
100
AcDbEntity
  8
0
 62
7
100
AcDbLine
 10
122.306194
 20
363.046599
 30
0.0
 11
122.306194
 21
358.046398
 31
0.0
  0
LINE
  5
1cf
100
AcDbEntity
  8
0
 62
7
100
AcDbLine
 10
139.746473
 20
358.630330
 30
0.0
 11
136.866028
 21
362.462660
 31
0.0
  0
LINE
  5
1d0
100
AcDbEntity
  8
0
 62
7
100
AcDbLine
 10
136.866028
 20
358.629296
 30
0.0
 11
139.746473
 21
362.463691
 31
0.0
  0
LINE
  5
1d1
100
AcDbEntity
  8
0
 62
7
100
AcDbLine
 10
31.762747
 20
360.022978
 30
0.0
 11
31.191600
 21
360.022978
 31
0.0
  0
LINE
  5
1d2
100
AcDbEntity
  8
0
 62
7
100
AcDbLine
 10
31.191600
 20
360.022978
 30
0.0
 11
31.191600
 21
360.158967
 31
0.0
  0
LINE
  5
1d3
100
AcDbEntity
  8
0
 62
7
100
AcDbLine
 10
31.191600
 20
360.158967
 30
0.0
 11
31.191600
 21
360.294952
 31
0.0
  0
LINE
  5
1d4
100
AcDbEntity
  8
0
 62
7
100
AcDbLine
 10
31.191600
 20
360.294952
 30
0.0
 11
31.028314
 21
360.294952
 31
0.0
  0
LINE
  5
1d5
100
AcDbEntity
  8
0
 62
7
100
AcDbLine
 10
31.028314
 20
360.294952
 30
0.0
 11
30.865224
 21
360.294952
 31
0.0
  0
LINE
  5
1d6
100
AcDbEntity
  8
0
 62
7
100
AcDbLine
 10
30.865224
 20
360.294952
 30
0.0
 11
30.865224
 21
359.995775
 31
0.0
  0
LINE
  5
1d7
100
AcDbEntity
  8
0
 62
7
100
AcDbLine
 10
30.865224
 20
359.995775
 30
0.0
 11
30.865224
 21
359.696605
 31
0.0
  0
LINE
  5
1d8
100
AcDbEntity
  8
0
 62
7
100
AcDbLine
 10
30.865224
 20
359.696605
 30
0.0
 11
31.599559
 21
359.696605
 31
0.0
  0
LINE
  5
1d9
100
AcDbEntity
  8
0
 62
7
100
AcDbLine
 10
31.599559
 20
359.696605
 30
0.0
 11
32.333913
 21
359.696605
 31
0.0
  0
LINE
  5
1da
100
AcDbEntity
  8
0
 62
7
100
AcDbLine
 10
32.333913
 20
359.696605
 30
0.0
 11
32.333913
 21
359.859793
 31
0.0
  0
LINE
  5
1db
100
AcDbEntity
  8
0
 62
7
100
AcDbLine
 10
32.333913
 20
359.859793
 30
0.0
 11
32.333913
 21
360.022981
 31
0.0
  0
LINE
  5
1dc
100
AcDbEntity
  8
0
 62
7
100
AcDbLine
 10
32.333913
 20
360.022981
 30
0.0
 11
31.762747
 21
360.022978
 31
0.0
  0
SPLINE
  5
1dd
100
AcDbEntity
  8
0
 62
7
100
AcDbSpline
 70
8
 71
3
 72
8
 73
4
 74
0
 40
0
 40
0
 40
0
 40
0
 40
1
 40
1
 40
1
 40
1
 10
34.101777
 20
361.219685
 30
0.0
 10
33.711932
 20
361.219685
 30
0.0
 10
33.693798
 20
361.222507
 30
0.0
 10
33.693798
 20
361.274108
 30
0.0
  0
SPLINE
  5
1de
100
AcDbEntity
  8
0
 62
7
100
AcDbSpline
 70
8
 71
3
 72
8
 73
4
 74
0
 40
0
 40
0
 40
0
 40
0
 40
1
 40
1
 40
1
 40
1
 10
33.693798
 20
361.274108
 30
0.0
 10
33.693798
 20
361.326118
 30
0.0
 10
33.711462
 20
361.328531
 30
0.0
 10
34.101777
 20
361.328531
 30
0.0
  0
SPLINE
  5
1df
100
AcDbEntity
  8
0
 62
7
100
AcDbSpline
 70
8
 71
3
 72
8
 73
4
 74
0
 40
0
 40
0
 40
0
 40
0
 40
1
 40
1
 40
1
 40
1
 10
34.101777
 20
361.328531
 30
0.0
 10
34.491583
 20
361.328531
 30
0.0
 10
34.509717
 20
361.325709
 30
0.0
 10
34.509717
 20
361.274108
 30
0.0
  0
SPLINE
  5
1e0
100
AcDbEntity
  8
0
 62
7
100
AcDbSpline
 70
8
 71
3
 72
8
 73
4
 74
0
 40
0
 40
0
 40
0
 40
0
 40
1
 40
1
 40
1
 40
1
 10
34.509717
 20
361.274108
 30
0.0
 10
34.509717
 20
361.222101
 30
0.0
 10
34.492053
 20
361.219685
 30
0.0
 10
34.101777
 20
361.219685
 30
0.0
  0
LINE
  5
1e1
100
AcDbEntity
  8
0
 62
7
100
AcDbLine
 10
34.101777
 20
361.219685
 30
0.0
 11
34.101777
 21
361.219685
 31
0.0
  0
LINE
  5
1e2
100
AcDbEntity
  8
0
 62
7
100
AcDbLine
 10
34.101777
 20
361.654850
 30
0.0
 11
33.367423
 21
361.654850
 31
0.0
  0
LINE
  5
1e3
100
AcDbEntity
  8
0
 62
7
100
AcDbLine
 10
33.367423
 20
361.654850
 30
0.0
 11
33.367423
 21
361.274080
 31
0.0
  0
LINE
  5
1e4
100
AcDbEntity
  8
0
 62
7
100
AcDbLine
 10
33.367423
 20
361.274080
 30
0.0
 11
33.367423
 21
360.893309
 31
0.0
  0
LINE
  5
1e5
100
AcDbEntity
  8
0
 62
7
100
AcDbLine
 10
33.367423
 20
360.893309
 30
0.0
 11
34.101777
 21
360.893309
 31
0.0
  0
LINE
  5
1e6
100
AcDbEntity
  8
0
 62
7
100
AcDbLine
 10
34.101777
 20
360.893309
 30
0.0
 11
34.836092
 21
360.893309
 31
0.0
  0
LINE
  5
1e7
100
AcDbEntity
  8
0
 62
7
100
AcDbLine
 10
34.836092
 20
360.893309
 30
0.0
 11
34.836092
 21
361.274080
 31
0.0
  0
LINE
  5
1e8
100
AcDbEntity
  8
0
 62
7
100
AcDbLine
 10
34.836092
 20
361.274080
 30
0.0
 11
34.836092
 21
361.654850
 31
0.0
  0
LINE
  5
1e9
100
AcDbEntity
  8
0
 62
7
100
AcDbLine
 10
34.836092
 20
361.654850
 30
0.0
 11
34.101777
 21
361.654850
 31
0.0
  0
LINE
  5
1ea
100
AcDbEntity
  8
0
 62
7
100
AcDbLine
 10
36.195997
 20
358.771873
 30
0.0
 11
35.624830
 21
358.771873
 31
0.0
  0
LINE
  5
1eb
100
AcDbEntity
  8
0
 62
7
100
AcDbLine
 10
35.624830
 20
358.771873
 30
0.0
 11
35.624830
 21
358.907879
 31
0.0
  0
LINE
  5
1ec
100
AcDbEntity
  8
0
 62
7
100
AcDbLine
 10
35.624830
 20
358.907879
 30
0.0
 11
35.624830
 21
359.043864
 31
0.0
  0
LINE
  5
1ed
100
AcDbEntity
  8
0
 62
7
100
AcDbLine
 10
35.624830
 20
359.043864
 30
0.0
 11
35.461740
 21
359.043864
 31
0.0
  0
LINE
  5
1ee
100
AcDbEntity
  8
0
 62
7
100
AcDbLine
 10
35.461740
 20
359.043864
 30
0.0
 11
35.298651
 21
359.043864
 31
0.0
  0
LINE
  5
1ef
100
AcDbEntity
  8
0
 62
7
100
AcDbLine
 10
35.298651
 20
359.043864
 30
0.0
 11
35.298651
 21
358.744684
 31
0.0
  0
LINE
  5
1f0
100
AcDbEntity
  8
0
 62
7
100
AcDbLine
 10
35.298651
 20
358.744684
 30
0.0
 11
35.298651
 21
358.445507
 31
0.0
  0
LINE
  5
1f1
100
AcDbEntity
  8
0
 62
7
100
AcDbLine
 10
35.298651
 20
358.445507
 30
0.0
 11
36.033005
 21
358.445507
 31
0.0
  0
LINE
  5
1f2
100
AcDbEntity
  8
0
 62
7
100
AcDbLine
 10
36.033005
 20
358.445507
 30
0.0
 11
36.767320
 21
358.445507
 31
0.0
  0
LINE
  5
1f3
100
AcDbEntity
  8
0
 62
7
100
AcDbLine
 10
36.767320
 20
358.445507
 30
0.0
 11
36.767320
 21
358.608695
 31
0.0
  0
LINE
  5
1f4
100
AcDbEntity
  8
0
 62
7
100
AcDbLine
 10
36.767320
 20
358.608695
 30
0.0
 11
36.767320
 21
358.771883
 31
0.0
  0
LINE
  5
1f5
100
AcDbEntity
  8
0
 62
7
100
AcDbLine
 10
36.767320
 20
358.771883
 30
0.0
 11
36.195997
 21
358.771873
 31
0.0
  0
SPLINE
  5
1f6
100
AcDbEntity
  8
0
 62
7
100
AcDbSpline
 70
8
 71
3
 72
8
 73
4
 74
0
 40
0
 40
0
 40
0
 40
0
 40
1
 40
1
 40
1
 40
1
 10
38.520739
 20
359.234858
 30
0.0
 10
38.424181
 20
359.138321
 30
0.0
 10
38.261916
 20
359.141400
 30
0.0
 10
38.161648
 20
359.241914
 30
0.0
  0
SPLINE
  5
1f7
100
AcDbEntity
  8
0
 62
7
100
AcDbSpline
 70
8
 71
3
 72
8
 73
4
 74
0
 40
0
 40
0
 40
0
 40
0
 40
1
 40
1
 40
1
 40
1
 10
38.161648
 20
359.241914
 30
0.0
 10
37.997381
 20
359.406142
 30
0.0
 10
38.110817
 20
359.682018
 30
0.0
 10
38.342401
 20
359.682018
 30
0.0
  0
SPLINE
  5
1f8
100
AcDbEntity
  8
0
 62
7
100
AcDbSpline
 70
8
 71
3
 72
8
 73
4
 74
0
 40
0
 40
0
 40
0
 40
0
 40
1
 40
1
 40
1
 40
1
 10
38.342401
 20
359.682018
 30
0.0
 10
38.585131
 20
359.682018
 30
0.0
 10
38.694172
 20
359.408689
 30
0.0
 10
38.520602
 20
359.235116
 30
0.0
  0
LINE
  5
1f9
100
AcDbEntity
  8
0
 62
7
100
AcDbLine
 10
38.520602
 20
359.235116
 30
0.0
 11
38.520739
 21
359.234858
 31
0.0
  0
SPLINE
  5
1fa
100
AcDbEntity
  8
0
 62
7
100
AcDbSpline
 70
8
 71
3
 72
8
 73
4
 74
0
 40
0
 40
0
 40
0
 40
0
 40
1
 40
1
 40
1
 40
1
 10
38.892254
 20
359.683235
 30
0.0
 10
38.835928
 20
359.807053
 30
0.0
 10
38.675724
 20
359.959534
 30
0.0
 10
38.575318
 20
359.984733
 30
0.0
  0
LINE
  5
1fb
100
AcDbEntity
  8
0
 62
7
100
AcDbLine
 10
38.575318
 20
359.984733
 30
0.0
 11
38.507806
 21
360.001808
 31
0.0
  0
LINE
  5
1fc
100
AcDbEntity
  8
0
 62
7
100
AcDbLine
 10
38.507806
 20
360.001808
 30
0.0
 11
38.507806
 21
362.201885
 31
0.0
  0
LINE
  5
1fd
100
AcDbEntity
  8
0
 62
7
100
AcDbLine
 10
38.507806
 20
362.201885
 30
0.0
 11
38.507806
 21
364.401959
 31
0.0
  0
LINE
  5
1fe
100
AcDbEntity
  8
0
 62
7
100
AcDbLine
 10
38.507806
 20
364.401959
 30
0.0
 11
38.344716
 21
364.401959
 31
0.0
  0
LINE
  5
1ff
100
AcDbEntity
  8
0
 62
7
100
AcDbLine
 10
38.344716
 20
364.401959
 30
0.0
 11
38.181431
 21
364.401959
 31
0.0
  0
LINE
  5
200
100
AcDbEntity
  8
0
 62
7
100
AcDbLine
 10
38.181431
 20
364.401959
 30
0.0
 11
38.181431
 21
362.201885
 31
0.0
  0
LINE
  5
201
100
AcDbEntity
  8
0
 62
7
100
AcDbLine
 10
38.181431
 20
362.201885
 30
0.0
 11
38.181431
 21
360.001808
 31
0.0
  0
LINE
  5
202
100
AcDbEntity
  8
0
 62
7
100
AcDbLine
 10
38.181431
 20
360.001808
 30
0.0
 11
38.113918
 21
359.984733
 31
0.0
  0
SPLINE
  5
203
100
AcDbEntity
  8
0
 62
7
100
AcDbSpline
 70
8
 71
3
 72
8
 73
4
 74
0
 40
0
 40
0
 40
0
 40
0
 40
1
 40
1
 40
1
 40
1
 10
38.113918
 20
359.984733
 30
0.0
 10
38.013435
 20
359.959580
 30
0.0
 10
37.853250
 20
359.807060
 30
0.0
 10
37.796983
 20
359.683235
 30
0.0
  0
SPLINE
  5
204
100
AcDbEntity
  8
0
 62
7
100
AcDbSpline
 70
8
 71
3
 72
8
 73
4
 74
0
 40
0
 40
0
 40
0
 40
0
 40
1
 40
1
 40
1
 40
1
 10
37.796983
 20
359.683235
 30
0.0
 10
37.768133
 20
359.620081
 30
0.0
 10
37.747526
 20
359.511256
 30
0.0
 10
37.747526
 20
359.424624
 30
0.0
  0
SPLINE
  5
205
100
AcDbEntity
  8
0
 62
7
100
AcDbSpline
 70
8
 71
3
 72
8
 73
4
 74
0
 40
0
 40
0
 40
0
 40
0
 40
1
 40
1
 40
1
 40
1
 10
37.747526
 20
359.424624
 30
0.0
 10
37.747526
 20
359.338017
 30
0.0
 10
37.768329
 20
359.229154
 30
0.0
 10
37.796983
 20
359.166014
 30
0.0
  0
SPLINE
  5
206
100
AcDbEntity
  8
0
 62
7
100
AcDbSpline
 70
8
 71
3
 72
8
 73
4
 74
0
 40
0
 40
0
 40
0
 40
0
 40
1
 40
1
 40
1
 40
1
 10
37.796983
 20
359.166014
 30
0.0
 10
37.853309
 20
359.042174
 30
0.0
 10
38.013533
 20
358.889718
 30
0.0
 10
38.113918
 20
358.864509
 30
0.0
  0
LINE
  5
207
100
AcDbEntity
  8
0
 62
7
100
AcDbLine
 10
38.113918
 20
358.864509
 30
0.0
 11
38.181431
 21
358.847434
 31
0.0
  0
LINE
  5
208
100
AcDbEntity
  8
0
 62
7
100
AcDbLine
 10
38.181431
 20
358.847434
 30
0.0
 11
38.181431
 21
357.844060
 31
0.0
  0
LINE
  5
209
100
AcDbEntity
  8
0
 62
7
100
AcDbLine
 10
38.181431
 20
357.844060
 30
0.0
 11
38.181431
 21
356.840689
 31
0.0
  0
LINE
  5
20a
100
AcDbEntity
  8
0
 62
7
100
AcDbLine
 10
38.181431
 20
356.840689
 30
0.0
 11
38.344716
 21
356.840689
 31
0.0
  0
LINE
  5
20b
100
AcDbEntity
  8
0
 62
7
100
AcDbLine
 10
38.344716
 20
356.840689
 30
0.0
 11
38.507806
 21
356.840689
 31
0.0
  0
LINE
  5
20c
100
AcDbEntity
  8
0
 62
7
100
AcDbLine
 10
38.507806
 20
356.840689
 30
0.0
 11
38.507806
 21
357.844060
 31
0.0
  0
LINE
  5
20d
100
AcDbEntity
  8
0
 62
7
100
AcDbLine
 10
38.507806
 20
357.844060
 30
0.0
 11
38.507806
 21
358.847431
 31
0.0
  0
LINE
  5
20e
100
AcDbEntity
  8
0
 62
7
100
AcDbLine
 10
38.507806
 20
358.847431
 30
0.0
 11
38.575318
 21
358.864505
 31
0.0
  0
SPLINE
  5
20f
100
AcDbEntity
  8
0
 62
7
100
AcDbSpline
 70
8
 71
3
 72
8
 73
4
 74
0
 40
0
 40
0
 40
0
 40
0
 40
1
 40
1
 40
1
 40
1
 10
38.575318
 20
358.864505
 30
0.0
 10
38.675606
 20
358.889729
 30
0.0
 10
38.836007
 20
359.042178
 30
0.0
 10
38.892254
 20
359.166010
 30
0.0
  0
SPLINE
  5
210
100
AcDbEntity
  8
0
 62
7
100
AcDbSpline
 70
8
 71
3
 72
8
 73
4
 74
0
 40
0
 40
0
 40
0
 40
0
 40
1
 40
1
 40
1
 40
1
 10
38.892254
 20
359.166010
 30
0.0
 10
38.920907
 20
359.229168
 30
0.0
 10
38.941711
 20
359.337972
 30
0.0
 10
38.941711
 20
359.424621
 30
0.0
  0
SPLINE
  5
211
100
AcDbEntity
  8
0
 62
7
100
AcDbSpline
 70
8
 71
3
 72
8
 73
4
 74
0
 40
0
 40
0
 40
0
 40
0
 40
1
 40
1
 40
1
 40
1
 10
38.941711
 20
359.424621
 30
0.0
 10
38.941711
 20
359.511228
 30
0.0
 10
38.920908
 20
359.620092
 30
0.0
 10
38.892254
 20
359.683235
 30
0.0
  0
LINE
  5
212
100
AcDbEntity
  8
0
 62
7
100
AcDbLine
 10
38.892254
 20
359.683235
 30
0.0
 11
38.892254
 21
359.683235
 31
0.0
  0
SPLINE
  5
213
100
AcDbEntity
  8
0
 62
7
100
AcDbSpline
 70
8
 71
3
 72
8
 73
4
 74
0
 40
0
 40
0
 40
0
 40
0
 40
1
 40
1
 40
1
 40
1
 10
39.744677
 20
357.684580
 30
0.0
 10
39.648118
 20
357.588042
 30
0.0
 10
39.485833
 20
357.591122
 30
0.0
 10
39.385566
 20
357.691635
 30
0.0
  0
SPLINE
  5
214
100
AcDbEntity
  8
0
 62
7
100
AcDbSpline
 70
8
 71
3
 72
8
 73
4
 74
0
 40
0
 40
0
 40
0
 40
0
 40
1
 40
1
 40
1
 40
1
 10
39.385566
 20
357.691635
 30
0.0
 10
39.221299
 20
357.855864
 30
0.0
 10
39.334735
 20
358.131743
 30
0.0
 10
39.566318
 20
358.131743
 30
0.0
  0
SPLINE
  5
215
100
AcDbEntity
  8
0
 62
7
100
AcDbSpline
 70
8
 71
3
 72
8
 73
4
 74
0
 40
0
 40
0
 40
0
 40
0
 40
1
 40
1
 40
1
 40
1
 10
39.566318
 20
358.131743
 30
0.0
 10
39.809049
 20
358.131743
 30
0.0
 10
39.918089
 20
357.858411
 30
0.0
 10
39.744716
 20
357.684841
 30
0.0
  0
LINE
  5
216
100
AcDbEntity
  8
0
 62
7
100
AcDbLine
 10
39.744716
 20
357.684841
 30
0.0
 11
39.744677
 21
357.684580
 31
0.0
  0
SPLINE
  5
217
100
AcDbEntity
  8
0
 62
7
100
AcDbSpline
 70
8
 71
3
 72
8
 73
4
 74
0
 40
0
 40
0
 40
0
 40
0
 40
1
 40
1
 40
1
 40
1
 10
40.116172
 20
358.132957
 30
0.0
 10
40.059846
 20
358.256796
 30
0.0
 10
39.899622
 20
358.409252
 30
0.0
 10
39.799236
 20
358.434455
 30
0.0
  0
LINE
  5
218
100
AcDbEntity
  8
0
 62
7
100
AcDbLine
 10
39.799236
 20
358.434455
 30
0.0
 11
39.731724
 21
358.451529
 31
0.0
  0
LINE
  5
219
100
AcDbEntity
  8
0
 62
7
100
AcDbLine
 10
39.731724
 20
358.451529
 30
0.0
 11
39.731724
 21
361.793852
 31
0.0
  0
LINE
  5
21a
100
AcDbEntity
  8
0
 62
7
100
AcDbLine
 10
39.731724
 20
361.793852
 30
0.0
 11
39.731724
 21
365.136241
 31
0.0
  0
LINE
  5
21b
100
AcDbEntity
  8
0
 62
7
100
AcDbLine
 10
39.731724
 20
365.136241
 30
0.0
 11
39.568634
 21
365.136241
 31
0.0
  0
LINE
  5
21c
100
AcDbEntity
  8
0
 62
7
100
AcDbLine
 10
39.568634
 20
365.136241
 30
0.0
 11
39.405545
 21
365.136241
 31
0.0
  0
LINE
  5
21d
100
AcDbEntity
  8
0
 62
7
100
AcDbLine
 10
39.405545
 20
365.136241
 30
0.0
 11
39.405545
 21
361.793852
 31
0.0
  0
LINE
  5
21e
100
AcDbEntity
  8
0
 62
7
100
AcDbLine
 10
39.405545
 20
361.793852
 30
0.0
 11
39.405545
 21
358.451459
 31
0.0
  0
LINE
  5
21f
100
AcDbEntity
  8
0
 62
7
100
AcDbLine
 10
39.405545
 20
358.451459
 30
0.0
 11
39.338032
 21
358.434384
 31
0.0
  0
SPLINE
  5
220
100
AcDbEntity
  8
0
 62
7
100
AcDbSpline
 70
8
 71
3
 72
8
 73
4
 74
0
 40
0
 40
0
 40
0
 40
0
 40
1
 40
1
 40
1
 40
1
 10
39.338032
 20
358.434384
 30
0.0
 10
39.237549
 20
358.409231
 30
0.0
 10
39.077364
 20
358.256711
 30
0.0
 10
39.021097
 20
358.132886
 30
0.0
  0
SPLINE
  5
221
100
AcDbEntity
  8
0
 62
7
100
AcDbSpline
 70
8
 71
3
 72
8
 73
4
 74
0
 40
0
 40
0
 40
0
 40
0
 40
1
 40
1
 40
1
 40
1
 10
39.021097
 20
358.132886
 30
0.0
 10
38.992247
 20
358.069732
 30
0.0
 10
38.971640
 20
357.960907
 30
0.0
 10
38.971640
 20
357.874275
 30
0.0
  0
SPLINE
  5
222
100
AcDbEntity
  8
0
 62
7
100
AcDbSpline
 70
8
 71
3
 72
8
 73
4
 74
0
 40
0
 40
0
 40
0
 40
0
 40
1
 40
1
 40
1
 40
1
 10
38.971640
 20
357.874275
 30
0.0
 10
38.971640
 20
357.787669
 30
0.0
 10
38.992443
 20
357.678801
 30
0.0
 10
39.021097
 20
357.615658
 30
0.0
  0
SPLINE
  5
223
100
AcDbEntity
  8
0
 62
7
100
AcDbSpline
 70
8
 71
3
 72
8
 73
4
 74
0
 40
0
 40
0
 40
0
 40
0
 40
1
 40
1
 40
1
 40
1
 10
39.021097
 20
357.615658
 30
0.0
 10
39.077422
 20
357.491818
 30
0.0
 10
39.237627
 20
357.339366
 30
0.0
 10
39.338032
 20
357.314160
 30
0.0
  0
LINE
  5
224
100
AcDbEntity
  8
0
 62
7
100
AcDbLine
 10
39.338032
 20
357.314160
 30
0.0
 11
39.405545
 21
357.297085
 31
0.0
  0
LINE
  5
225
100
AcDbEntity
  8
0
 62
7
100
AcDbLine
 10
39.405545
 20
357.297085
 30
0.0
 11
39.405545
 21
356.756076
 31
0.0
  0
LINE
  5
226
100
AcDbEntity
  8
0
 62
7
100
AcDbLine
 10
39.405545
 20
356.756076
 30
0.0
 11
39.405545
 21
356.215066
 31
0.0
  0
LINE
  5
227
100
AcDbEntity
  8
0
 62
7
100
AcDbLine
 10
39.405545
 20
356.215066
 30
0.0
 11
39.568634
 21
356.215066
 31
0.0
  0
LINE
  5
228
100
AcDbEntity
  8
0
 62
7
100
AcDbLine
 10
39.568634
 20
356.215066
 30
0.0
 11
39.731724
 21
356.215066
 31
0.0
  0
LINE
  5
229
100
AcDbEntity
  8
0
 62
7
100
AcDbLine
 10
39.731724
 20
356.215066
 30
0.0
 11
39.731724
 21
356.756076
 31
0.0
  0
LINE
  5
22a
100
AcDbEntity
  8
0
 62
7
100
AcDbLine
 10
39.731724
 20
356.756076
 30
0.0
 11
39.731724
 21
357.297085
 31
0.0
  0
LINE
  5
22b
100
AcDbEntity
  8
0
 62
7
100
AcDbLine
 10
39.731724
 20
357.297085
 30
0.0
 11
39.799236
 21
357.314160
 31
0.0
  0
SPLINE
  5
22c
100
AcDbEntity
  8
0
 62
7
100
AcDbSpline
 70
8
 71
3
 72
8
 73
4
 74
0
 40
0
 40
0
 40
0
 40
0
 40
1
 40
1
 40
1
 40
1
 10
39.799236
 20
357.314160
 30
0.0
 10
39.899720
 20
357.339418
 30
0.0
 10
40.059905
 20
357.491833
 30
0.0
 10
40.116172
 20
357.615658
 30
0.0
  0
SPLINE
  5
22d
100
AcDbEntity
  8
0
 62
7
100
AcDbSpline
 70
8
 71
3
 72
8
 73
4
 74
0
 40
0
 40
0
 40
0
 40
0
 40
1
 40
1
 40
1
 40
1
 10
40.116172
 20
357.615658
 30
0.0
 10
40.145022
 20
357.678812
 30
0.0
 10
40.165629
 20
357.787619
 30
0.0
 10
40.165629
 20
357.874275
 30
0.0
  0
SPLINE
  5
22e
100
AcDbEntity
  8
0
 62
7
100
AcDbSpline
 70
8
 71
3
 72
8
 73
4
 74
0
 40
0
 40
0
 40
0
 40
0
 40
1
 40
1
 40
1
 40
1
 10
40.165629
 20
357.874275
 30
0.0
 10
40.165629
 20
357.960882
 30
0.0
 10
40.144825
 20
358.069746
 30
0.0
 10
40.116172
 20
358.132886
 30
0.0
  0
LINE
  5
22f
100
AcDbEntity
  8
0
 62
7
100
AcDbLine
 10
40.116172
 20
358.132886
 30
0.0
 11
40.116172
 21
358.132957
 31
0.0
  0
SPLINE
  5
230
100
AcDbEntity
  8
0
 62
7
100
AcDbSpline
 70
8
 71
3
 72
8
 73
4
 74
0
 40
0
 40
0
 40
0
 40
0
 40
1
 40
1
 40
1
 40
1
 10
41.104561
 20
360.540351
 30
0.0
 10
41.008003
 20
360.443813
 30
0.0
 10
40.845718
 20
360.446893
 30
0.0
 10
40.745470
 20
360.547407
 30
0.0
  0
SPLINE
  5
231
100
AcDbEntity
  8
0
 62
7
100
AcDbSpline
 70
8
 71
3
 72
8
 73
4
 74
0
 40
0
 40
0
 40
0
 40
0
 40
1
 40
1
 40
1
 40
1
 10
40.745470
 20
360.547407
 30
0.0
 10
40.581203
 20
360.711635
 30
0.0
 10
40.694639
 20
360.987515
 30
0.0
 10
40.926222
 20
360.987515
 30
0.0
  0
SPLINE
  5
232
100
AcDbEntity
  8
0
 62
7
100
AcDbSpline
 70
8
 71
3
 72
8
 73
4
 74
0
 40
0
 40
0
 40
0
 40
0
 40
1
 40
1
 40
1
 40
1
 10
40.926222
 20
360.987515
 30
0.0
 10
41.168953
 20
360.987515
 30
0.0
 10
41.278013
 20
360.714175
 30
0.0
 10
41.104620
 20
360.540602
 30
0.0
  0
LINE
  5
233
100
AcDbEntity
  8
0
 62
7
100
AcDbLine
 10
41.104620
 20
360.540602
 30
0.0
 11
41.104561
 21
360.540351
 31
0.0
  0
SPLINE
  5
234
100
AcDbEntity
  8
0
 62
7
100
AcDbSpline
 70
8
 71
3
 72
8
 73
4
 74
0
 40
0
 40
0
 40
0
 40
0
 40
1
 40
1
 40
1
 40
1
 10
41.476056
 20
360.988735
 30
0.0
 10
41.419730
 20
361.112557
 30
0.0
 10
41.259506
 20
361.265027
 30
0.0
 10
41.159121
 20
361.290233
 30
0.0
  0
LINE
  5
235
100
AcDbEntity
  8
0
 62
7
100
AcDbLine
 10
41.159121
 20
361.290233
 30
0.0
 11
41.091608
 21
361.307308
 31
0.0
  0
LINE
  5
236
100
AcDbEntity
  8
0
 62
7
100
AcDbLine
 10
41.091608
 20
361.307308
 30
0.0
 11
41.091608
 21
363.602508
 31
0.0
  0
LINE
  5
237
100
AcDbEntity
  8
0
 62
7
100
AcDbLine
 10
41.091608
 20
363.602508
 30
0.0
 11
41.091608
 21
365.897779
 31
0.0
  0
LINE
  5
238
100
AcDbEntity
  8
0
 62
7
100
AcDbLine
 10
41.091608
 20
365.897779
 30
0.0
 11
40.928519
 21
365.897779
 31
0.0
  0
LINE
  5
239
100
AcDbEntity
  8
0
 62
7
100
AcDbLine
 10
40.928519
 20
365.897779
 30
0.0
 11
40.765233
 21
365.897779
 31
0.0
  0
LINE
  5
23a
100
AcDbEntity
  8
0
 62
7
100
AcDbLine
 10
40.765233
 20
365.897779
 30
0.0
 11
40.765233
 21
363.602508
 31
0.0
  0
LINE
  5
23b
100
AcDbEntity
  8
0
 62
7
100
AcDbLine
 10
40.765233
 20
363.602508
 30
0.0
 11
40.765233
 21
361.307237
 31
0.0
  0
LINE
  5
23c
100
AcDbEntity
  8
0
 62
7
100
AcDbLine
 10
40.765233
 20
361.307237
 30
0.0
 11
40.697721
 21
361.290163
 31
0.0
  0
SPLINE
  5
23d
100
AcDbEntity
  8
0
 62
7
100
AcDbSpline
 70
8
 71
3
 72
8
 73
4
 74
0
 40
0
 40
0
 40
0
 40
0
 40
1
 40
1
 40
1
 40
1
 10
40.697721
 20
361.290163
 30
0.0
 10
40.597237
 20
361.264904
 30
0.0
 10
40.437032
 20
361.112493
 30
0.0
 10
40.380785
 20
360.988665
 30
0.0
  0
SPLINE
  5
23e
100
AcDbEntity
  8
0
 62
7
100
AcDbSpline
 70
8
 71
3
 72
8
 73
4
 74
0
 40
0
 40
0
 40
0
 40
0
 40
1
 40
1
 40
1
 40
1
 10
40.380785
 20
360.988665
 30
0.0
 10
40.351935
 20
360.925510
 30
0.0
 10
40.331328
 20
360.816685
 30
0.0
 10
40.331328
 20
360.730043
 30
0.0
  0
SPLINE
  5
23f
100
AcDbEntity
  8
0
 62
7
100
AcDbSpline
 70
8
 71
3
 72
8
 73
4
 74
0
 40
0
 40
0
 40
0
 40
0
 40
1
 40
1
 40
1
 40
1
 10
40.331328
 20
360.730043
 30
0.0
 10
40.331328
 20
360.643436
 30
0.0
 10
40.352132
 20
360.534573
 30
0.0
 10
40.380785
 20
360.471436
 30
0.0
  0
SPLINE
  5
240
100
AcDbEntity
  8
0
 62
7
100
AcDbSpline
 70
8
 71
3
 72
8
 73
4
 74
0
 40
0
 40
0
 40
0
 40
0
 40
1
 40
1
 40
1
 40
1
 10
40.380785
 20
360.471436
 30
0.0
 10
40.437111
 20
360.347597
 30
0.0
 10
40.597315
 20
360.195137
 30
0.0
 10
40.697721
 20
360.169938
 30
0.0
  0
LINE
  5
241
100
AcDbEntity
  8
0
 62
7
100
AcDbLine
 10
40.697721
 20
360.169938
 30
0.0
 11
40.765233
 21
360.152864
 31
0.0
  0
LINE
  5
242
100
AcDbEntity
  8
0
 62
7
100
AcDbLine
 10
40.765233
 20
360.152864
 30
0.0
 11
40.765233
 21
357.816790
 31
0.0
  0
LINE
  5
243
100
AcDbEntity
  8
0
 62
7
100
AcDbLine
 10
40.765233
 20
357.816790
 30
0.0
 11
40.765233
 21
355.480728
 31
0.0
  0
LINE
  5
244
100
AcDbEntity
  8
0
 62
7
100
AcDbLine
 10
40.765233
 20
355.480728
 30
0.0
 11
40.928519
 21
355.480728
 31
0.0
  0
LINE
  5
245
100
AcDbEntity
  8
0
 62
7
100
AcDbLine
 10
40.928519
 20
355.480728
 30
0.0
 11
41.091608
 21
355.480728
 31
0.0
  0
LINE
  5
246
100
AcDbEntity
  8
0
 62
7
100
AcDbLine
 10
41.091608
 20
355.480728
 30
0.0
 11
41.091608
 21
357.816790
 31
0.0
  0
LINE
  5
247
100
AcDbEntity
  8
0
 62
7
100
AcDbLine
 10
41.091608
 20
357.816790
 30
0.0
 11
41.091608
 21
360.152864
 31
0.0
  0
LINE
  5
248
100
AcDbEntity
  8
0
 62
7
100
AcDbLine
 10
41.091608
 20
360.152864
 30
0.0
 11
41.159121
 21
360.169938
 31
0.0
  0
SPLINE
  5
249
100
AcDbEntity
  8
0
 62
7
100
AcDbSpline
 70
8
 71
3
 72
8
 73
4
 74
0
 40
0
 40
0
 40
0
 40
0
 40
1
 40
1
 40
1
 40
1
 10
41.159121
 20
360.169938
 30
0.0
 10
41.259604
 20
360.195091
 30
0.0
 10
41.419809
 20
360.347611
 30
0.0
 10
41.476056
 20
360.471436
 30
0.0
  0
SPLINE
  5
24a
100
AcDbEntity
  8
0
 62
7
100
AcDbSpline
 70
8
 71
3
 72
8
 73
4
 74
0
 40
0
 40
0
 40
0
 40
0
 40
1
 40
1
 40
1
 40
1
 10
41.476056
 20
360.471436
 30
0.0
 10
41.504906
 20
360.534590
 30
0.0
 10
41.525513
 20
360.643415
 30
0.0
 10
41.525513
 20
360.730043
 30
0.0
  0
SPLINE
  5
24b
100
AcDbEntity
  8
0
 62
7
100
AcDbSpline
 70
8
 71
3
 72
8
 73
4
 74
0
 40
0
 40
0
 40
0
 40
0
 40
1
 40
1
 40
1
 40
1
 10
41.525513
 20
360.730043
 30
0.0
 10
41.525513
 20
360.816654
 30
0.0
 10
41.504710
 20
360.925517
 30
0.0
 10
41.476056
 20
360.988665
 30
0.0
  0
LINE
  5
24c
100
AcDbEntity
  8
0
 62
7
100
AcDbLine
 10
41.476056
 20
360.988665
 30
0.0
 11
41.476056
 21
360.988735
 31
0.0
  0
SPLINE
  5
24d
100
AcDbEntity
  8
0
 62
7
100
AcDbSpline
 70
8
 71
3
 72
8
 73
4
 74
0
 40
0
 40
0
 40
0
 40
0
 40
1
 40
1
 40
1
 40
1
 10
41.731995
 20
353.943012
 30
0.0
 10
41.695295
 20
353.906256
 30
0.0
 10
41.641913
 20
353.876287
 30
0.0
 10
41.613260
 20
353.876287
 30
0.0
  0
SPLINE
  5
24e
100
AcDbEntity
  8
0
 62
7
100
AcDbSpline
 70
8
 71
3
 72
8
 73
4
 74
0
 40
0
 40
0
 40
0
 40
0
 40
1
 40
1
 40
1
 40
1
 10
41.613260
 20
353.876287
 30
0.0
 10
41.584607
 20
353.876287
 30
0.0
 10
39.397851
 20
355.112435
 30
0.0
 10
36.753720
 20
356.623280
 30
0.0
  0
LINE
  5
24f
100
AcDbEntity
  8
0
 62
7
100
AcDbLine
 10
36.753720
 20
356.623280
 30
0.0
 11
31.946208
 21
359.370261
 31
0.0
  0
LINE
  5
250
100
AcDbEntity
  8
0
 62
7
100
AcDbLine
 10
31.946208
 20
359.370261
 30
0.0
 11
29.814660
 21
359.370261
 31
0.0
  0
LINE
  5
251
100
AcDbEntity
  8
0
 62
7
100
AcDbLine
 10
29.814660
 20
359.370261
 30
0.0
 11
27.683113
 21
359.370261
 31
0.0
  0
LINE
  5
252
100
AcDbEntity
  8
0
 62
7
100
AcDbLine
 10
27.683113
 20
359.370261
 30
0.0
 11
27.683113
 21
358.811461
 31
0.0
  0
LINE
  5
253
100
AcDbEntity
  8
0
 62
7
100
AcDbLine
 10
27.683113
 20
358.811461
 30
0.0
 11
27.683113
 21
358.252675
 31
0.0
  0
LINE
  5
254
100
AcDbEntity
  8
0
 62
7
100
AcDbLine
 10
27.683113
 20
358.252675
 30
0.0
 11
27.613638
 21
358.183281
 31
0.0
  0
SPLINE
  5
255
100
AcDbEntity
  8
0
 62
7
100
AcDbSpline
 70
8
 71
3
 72
8
 73
4
 74
0
 40
0
 40
0
 40
0
 40
0
 40
1
 40
1
 40
1
 40
1
 10
27.613638
 20
358.183281
 30
0.0
 10
27.533172
 20
358.102815
 30
0.0
 10
27.428960
 20
358.111293
 30
0.0
 10
27.349829
 20
358.204871
 30
0.0
  0
SPLINE
  5
256
100
AcDbEntity
  8
0
 62
7
100
AcDbSpline
 70
8
 71
3
 72
8
 73
4
 74
0
 40
0
 40
0
 40
0
 40
0
 40
1
 40
1
 40
1
 40
1
 10
27.349829
 20
358.204871
 30
0.0
 10
27.305279
 20
358.257410
 30
0.0
 10
27.302139
 20
358.407880
 30
0.0
 10
27.302139
 20
360.512513
 30
0.0
  0
SPLINE
  5
257
100
AcDbEntity
  8
0
 62
7
100
AcDbSpline
 70
8
 71
3
 72
8
 73
4
 74
0
 40
0
 40
0
 40
0
 40
0
 40
1
 40
1
 40
1
 40
1
 10
27.302139
 20
360.512513
 30
0.0
 10
27.302139
 20
362.617136
 30
0.0
 10
27.306065
 20
362.767571
 30
0.0
 10
27.349829
 20
362.820156
 30
0.0
  0
SPLINE
  5
258
100
AcDbEntity
  8
0
 62
7
100
AcDbSpline
 70
8
 71
3
 72
8
 73
4
 74
0
 40
0
 40
0
 40
0
 40
0
 40
1
 40
1
 40
1
 40
1
 10
27.349829
 20
362.820156
 30
0.0
 10
27.428921
 20
362.913734
 30
0.0
 10
27.533133
 20
362.922250
 30
0.0
 10
27.613638
 20
362.841746
 30
0.0
  0
LINE
  5
259
100
AcDbEntity
  8
0
 62
7
100
AcDbLine
 10
27.613638
 20
362.841746
 30
0.0
 11
27.683113
 21
362.772348
 31
0.0
  0
LINE
  5
25a
100
AcDbEntity
  8
0
 62
7
100
AcDbLine
 10
27.683113
 20
362.772348
 30
0.0
 11
27.683113
 21
362.213551
 31
0.0
  0
LINE
  5
25b
100
AcDbEntity
  8
0
 62
7
100
AcDbLine
 10
27.683113
 20
362.213551
 30
0.0
 11
27.683113
 21
361.654769
 31
0.0
  0
LINE
  5
25c
100
AcDbEntity
  8
0
 62
7
100
AcDbLine
 10
27.683113
 20
361.654769
 30
0.0
 11
29.814660
 21
361.654769
 31
0.0
  0
LINE
  5
25d
100
AcDbEntity
  8
0
 62
7
100
AcDbLine
 10
29.814660
 20
361.654769
 30
0.0
 11
31.946208
 21
361.654769
 31
0.0
  0
LINE
  5
25e
100
AcDbEntity
  8
0
 62
7
100
AcDbLine
 10
31.946208
 20
361.654769
 30
0.0
 11
36.753720
 21
364.401747
 31
0.0
  0
SPLINE
  5
25f
100
AcDbEntity
  8
0
 62
7
100
AcDbSpline
 70
8
 71
3
 72
8
 73
4
 74
0
 40
0
 40
0
 40
0
 40
0
 40
1
 40
1
 40
1
 40
1
 10
36.753720
 20
364.401747
 30
0.0
 10
39.397851
 20
365.912592
 30
0.0
 10
41.584645
 20
367.148729
 30
0.0
 10
41.613260
 20
367.148729
 30
0.0
  0
SPLINE
  5
260
100
AcDbEntity
  8
0
 62
7
100
AcDbSpline
 70
8
 71
3
 72
8
 73
4
 74
0
 40
0
 40
0
 40
0
 40
0
 40
1
 40
1
 40
1
 40
1
 10
41.613260
 20
367.148729
 30
0.0
 10
41.641912
 20
367.148729
 30
0.0
 10
41.695295
 20
367.118672
 30
0.0
 10
41.731995
 20
367.082001
 30
0.0
  0
LINE
  5
261
100
AcDbEntity
  8
0
 62
7
100
AcDbLine
 10
41.731995
 20
367.082001
 30
0.0
 11
41.798722
 21
367.015277
 31
0.0
  0
LINE
  5
262
100
AcDbEntity
  8
0
 62
7
100
AcDbLine
 10
41.798722
 20
367.015277
 30
0.0
 11
41.798722
 21
360.512517
 31
0.0
  0
LINE
  5
263
100
AcDbEntity
  8
0
 62
7
100
AcDbLine
 10
41.798722
 20
360.512517
 30
0.0
 11
41.798722
 21
354.009747
 31
0.0
  0
LINE
  5
264
100
AcDbEntity
  8
0
 62
7
100
AcDbLine
 10
41.798722
 20
354.009747
 30
0.0
 11
41.731995
 21
353.943012
 31
0.0
  0
SPLINE
  5
265
100
AcDbEntity
  8
0
 62
7
100
AcDbSpline
 70
8
 71
3
 72
8
 73
4
 74
0
 40
0
 40
0
 40
0
 40
0
 40
1
 40
1
 40
1
 40
1
 10
42.193964
 20
367.186219
 30
0.0
 10
42.146470
 20
367.319692
 30
0.0
 10
42.011838
 20
367.459403
 30
0.0
 10
41.859778
 20
367.532967
 30
0.0
  0
SPLINE
  5
266
100
AcDbEntity
  8
0
 62
7
100
AcDbSpline
 70
8
 71
3
 72
8
 73
4
 74
0
 40
0
 40
0
 40
0
 40
0
 40
1
 40
1
 40
1
 40
1
 10
41.859778
 20
367.532967
 30
0.0
 10
41.767733
 20
367.577576
 30
0.0
 10
41.704539
 20
367.587821
 30
0.0
 10
41.573027
 20
367.579340
 30
0.0
  0
SPLINE
  5
267
100
AcDbEntity
  8
0
 62
7
100
AcDbSpline
 70
8
 71
3
 72
8
 73
4
 74
0
 40
0
 40
0
 40
0
 40
0
 40
1
 40
1
 40
1
 40
1
 10
41.573027
 20
367.579340
 30
0.0
 10
41.405620
 20
367.568545
 30
0.0
 10
41.368389
 20
367.548049
 30
0.0
 10
36.610845
 20
364.829286
 30
0.0
  0
LINE
  5
268
100
AcDbEntity
  8
0
 62
7
100
AcDbLine
 10
36.610845
 20
364.829286
 30
0.0
 11
31.817267
 21
362.089991
 31
0.0
  0
LINE
  5
269
100
AcDbEntity
  8
0
 62
7
100
AcDbLine
 10
31.817267
 20
362.089991
 30
0.0
 11
29.967761
 21
362.089991
 31
0.0
  0
LINE
  5
26a
100
AcDbEntity
  8
0
 62
7
100
AcDbLine
 10
29.967761
 20
362.089991
 30
0.0
 11
28.118234
 21
362.089991
 31
0.0
  0
LINE
  5
26b
100
AcDbEntity
  8
0
 62
7
100
AcDbLine
 10
28.118234
 20
362.089991
 30
0.0
 11
28.118234
 21
362.471637
 31
0.0
  0
SPLINE
  5
26c
100
AcDbEntity
  8
0
 62
7
100
AcDbSpline
 70
8
 71
3
 72
8
 73
4
 74
0
 40
0
 40
0
 40
0
 40
0
 40
1
 40
1
 40
1
 40
1
 10
28.118234
 20
362.471637
 30
0.0
 10
28.118234
 20
362.883974
 30
0.0
 10
28.100571
 20
362.962887
 30
0.0
 10
27.969275
 20
363.117901
 30
0.0
  0
SPLINE
  5
26d
100
AcDbEntity
  8
0
 62
7
100
AcDbSpline
 70
8
 71
3
 72
8
 73
4
 74
0
 40
0
 40
0
 40
0
 40
0
 40
1
 40
1
 40
1
 40
1
 10
27.969275
 20
363.117901
 30
0.0
 10
27.849951
 20
363.259442
 30
0.0
 10
27.698303
 20
363.325479
 30
0.0
 10
27.492626
 20
363.325479
 30
0.0
  0
SPLINE
  5
26e
100
AcDbEntity
  8
0
 62
7
100
AcDbSpline
 70
8
 71
3
 72
8
 73
4
 74
0
 40
0
 40
0
 40
0
 40
0
 40
1
 40
1
 40
1
 40
1
 10
27.492626
 20
363.325479
 30
0.0
 10
27.216512
 20
363.325479
 30
0.0
 10
27.037074
 20
363.210336
 30
0.0
 10
26.923755
 20
362.960318
 30
0.0
  0
SPLINE
  5
26f
100
AcDbEntity
  8
0
 62
7
100
AcDbSpline
 70
8
 71
3
 72
8
 73
4
 74
0
 40
0
 40
0
 40
0
 40
0
 40
1
 40
1
 40
1
 40
1
 10
26.923755
 20
362.960318
 30
0.0
 10
26.869392
 20
362.840191
 30
0.0
 10
26.868214
 20
362.795031
 30
0.0
 10
26.868214
 20
360.512517
 30
0.0
  0
SPLINE
  5
270
100
AcDbEntity
  8
0
 62
7
100
AcDbSpline
 70
8
 71
3
 72
8
 73
4
 74
0
 40
0
 40
0
 40
0
 40
0
 40
1
 40
1
 40
1
 40
1
 10
26.868214
 20
360.512517
 30
0.0
 10
26.868214
 20
358.229985
 30
0.0
 10
26.869096
 20
358.184840
 30
0.0
 10
26.923755
 20
358.064705
 30
0.0
  0
SPLINE
  5
271
100
AcDbEntity
  8
0
 62
7
100
AcDbSpline
 70
8
 71
3
 72
8
 73
4
 74
0
 40
0
 40
0
 40
0
 40
0
 40
1
 40
1
 40
1
 40
1
 10
26.923755
 20
358.064705
 30
0.0
 10
27.036995
 20
357.814712
 30
0.0
 10
27.216512
 20
357.699545
 30
0.0
 10
27.492626
 20
357.699545
 30
0.0
  0
SPLINE
  5
272
100
AcDbEntity
  8
0
 62
7
100
AcDbSpline
 70
8
 71
3
 72
8
 73
4
 74
0
 40
0
 40
0
 40
0
 40
0
 40
1
 40
1
 40
1
 40
1
 10
27.492626
 20
357.699545
 30
0.0
 10
27.698303
 20
357.699545
 30
0.0
 10
27.849931
 20
357.765546
 30
0.0
 10
27.969275
 20
357.907123
 30
0.0
  0
SPLINE
  5
273
100
AcDbEntity
  8
0
 62
7
100
AcDbSpline
 70
8
 71
3
 72
8
 73
4
 74
0
 40
0
 40
0
 40
0
 40
0
 40
1
 40
1
 40
1
 40
1
 10
27.969275
 20
357.907123
 30
0.0
 10
28.099983
 20
358.062147
 30
0.0
 10
28.118234
 20
358.141060
 30
0.0
 10
28.118234
 20
358.553397
 30
0.0
  0
LINE
  5
274
100
AcDbEntity
  8
0
 62
7
100
AcDbLine
 10
28.118234
 20
358.553397
 30
0.0
 11
28.118234
 21
358.935043
 31
0.0
  0
LINE
  5
275
100
AcDbEntity
  8
0
 62
7
100
AcDbLine
 10
28.118234
 20
358.935043
 30
0.0
 11
29.967761
 21
358.935043
 31
0.0
  0
LINE
  5
276
100
AcDbEntity
  8
0
 62
7
100
AcDbLine
 10
29.967761
 20
358.935043
 30
0.0
 11
31.817267
 21
358.935043
 31
0.0
  0
LINE
  5
277
100
AcDbEntity
  8
0
 62
7
100
AcDbLine
 10
31.817267
 20
358.935043
 30
0.0
 11
36.610845
 21
356.195748
 31
0.0
  0
SPLINE
  5
278
100
AcDbEntity
  8
0
 62
7
100
AcDbSpline
 70
8
 71
3
 72
8
 73
4
 74
0
 40
0
 40
0
 40
0
 40
0
 40
1
 40
1
 40
1
 40
1
 10
36.610845
 20
356.195748
 30
0.0
 10
41.368389
 20
353.477024
 30
0.0
 10
41.405659
 20
353.456376
 30
0.0
 10
41.573027
 20
353.445680
 30
0.0
  0
SPLINE
  5
279
100
AcDbEntity
  8
0
 62
7
100
AcDbSpline
 70
8
 71
3
 72
8
 73
4
 74
0
 40
0
 40
0
 40
0
 40
0
 40
1
 40
1
 40
1
 40
1
 10
41.573027
 20
353.445680
 30
0.0
 10
41.705893
 20
353.436860
 30
0.0
 10
41.767517
 20
353.447444
 30
0.0
 10
41.863664
 20
353.493940
 30
0.0
  0
SPLINE
  5
27a
100
AcDbEntity
  8
0
 62
7
100
AcDbSpline
 70
8
 71
3
 72
8
 73
4
 74
0
 40
0
 40
0
 40
0
 40
0
 40
1
 40
1
 40
1
 40
1
 10
41.863664
 20
353.493940
 30
0.0
 10
42.017529
 20
353.568341
 30
0.0
 10
42.167293
 20
353.732495
 30
0.0
 10
42.204759
 20
353.867471
 30
0.0
  0
SPLINE
  5
27b
100
AcDbEntity
  8
0
 62
7
100
AcDbSpline
 70
8
 71
3
 72
8
 73
4
 74
0
 40
0
 40
0
 40
0
 40
0
 40
1
 40
1
 40
1
 40
1
 10
42.204759
 20
353.867471
 30
0.0
 10
42.224775
 20
353.939459
 30
0.0
 10
42.233411
 20
355.985542
 30
0.0
 10
42.232430
 20
360.526078
 30
0.0
  0
SPLINE
  5
27c
100
AcDbEntity
  8
0
 62
7
100
AcDbSpline
 70
8
 71
3
 72
8
 73
4
 74
0
 40
0
 40
0
 40
0
 40
0
 40
1
 40
1
 40
1
 40
1
 10
42.232430
 20
360.526078
 30
0.0
 10
42.231549
 20
366.031235
 30
0.0
 10
42.226543
 20
367.097643
 30
0.0
 10
42.193768
 20
367.186159
 30
0.0
  0
LINE
  5
27d
100
AcDbEntity
  8
0
 62
7
100
AcDbLine
 10
42.193768
 20
367.186159
 30
0.0
 11
42.193964
 21
367.186219
 31
0.0
  0
SPLINE
  5
27e
100
AcDbEntity
  8
0
 62
7
100
AcDbSpline
 70
8
 71
3
 72
8
 73
4
 74
0
 40
0
 40
0
 40
0
 40
0
 40
1
 40
1
 40
1
 40
1
 10
116.457428
 20
359.164084
 30
0.0
 10
116.931903
 20
359.164084
 30
0.0
 10
117.356263
 20
359.264326
 30
0.0
 10
117.730508
 20
359.464809
 30
0.0
  0
SPLINE
  5
27f
100
AcDbEntity
  8
0
 62
7
100
AcDbSpline
 70
8
 71
3
 72
8
 73
4
 74
0
 40
0
 40
0
 40
0
 40
0
 40
1
 40
1
 40
1
 40
1
 10
117.730508
 20
359.464809
 30
0.0
 10
118.111426
 20
359.665295
 30
0.0
 10
118.408810
 20
359.959340
 30
0.0
 10
118.622662
 20
360.346944
 30
0.0
  0
SPLINE
  5
280
100
AcDbEntity
  8
0
 62
7
100
AcDbSpline
 70
8
 71
3
 72
8
 73
4
 74
0
 40
0
 40
0
 40
0
 40
0
 40
1
 40
1
 40
1
 40
1
 10
118.622662
 20
360.346944
 30
0.0
 10
118.836513
 20
360.727869
 30
0.0
 10
118.943439
 20
361.185644
 30
0.0
 10
118.943439
 20
361.720269
 30
0.0
  0
LINE
  5
281
100
AcDbEntity
  8
0
 62
7
100
AcDbLine
 10
118.943439
 20
361.720269
 30
0.0
 11
118.943439
 21
364.326581
 31
0.0
  0
SPLINE
  5
282
100
AcDbEntity
  8
0
 62
7
100
AcDbSpline
 70
8
 71
3
 72
8
 73
4
 74
0
 40
0
 40
0
 40
0
 40
0
 40
1
 40
1
 40
1
 40
1
 10
118.943439
 20
364.326581
 30
0.0
 10
118.943439
 20
364.433508
 30
0.0
 10
118.906686
 20
364.523727
 30
0.0
 10
118.833178
 20
364.597239
 30
0.0
  0
SPLINE
  5
283
100
AcDbEntity
  8
0
 62
7
100
AcDbSpline
 70
8
 71
3
 72
8
 73
4
 74
0
 40
0
 40
0
 40
0
 40
0
 40
1
 40
1
 40
1
 40
1
 10
118.833178
 20
364.597239
 30
0.0
 10
118.759667
 20
364.670749
 30
0.0
 10
118.669447
 20
364.707503
 30
0.0
 10
118.562520
 20
364.707503
 30
0.0
  0
SPLINE
  5
284
100
AcDbEntity
  8
0
 62
7
100
AcDbSpline
 70
8
 71
3
 72
8
 73
4
 74
0
 40
0
 40
0
 40
0
 40
0
 40
1
 40
1
 40
1
 40
1
 10
118.562520
 20
364.707503
 30
0.0
 10
118.448909
 20
364.707503
 30
0.0
 10
118.355350
 20
364.670749
 30
0.0
 10
118.281843
 20
364.597239
 30
0.0
  0
SPLINE
  5
285
100
AcDbEntity
  8
0
 62
7
100
AcDbSpline
 70
8
 71
3
 72
8
 73
4
 74
0
 40
0
 40
0
 40
0
 40
0
 40
1
 40
1
 40
1
 40
1
 10
118.281843
 20
364.597239
 30
0.0
 10
118.208327
 20
364.523727
 30
0.0
 10
118.171568
 20
364.433508
 30
0.0
 10
118.171568
 20
364.326581
 30
0.0
  0
LINE
  5
286
100
AcDbEntity
  8
0
 62
7
100
AcDbLine
 10
118.171568
 20
364.326581
 30
0.0
 11
118.171568
 21
361.720269
 31
0.0
  0
SPLINE
  5
287
100
AcDbEntity
  8
0
 62
7
100
AcDbSpline
 70
8
 71
3
 72
8
 73
4
 74
0
 40
0
 40
0
 40
0
 40
0
 40
1
 40
1
 40
1
 40
1
 10
118.171568
 20
361.720269
 30
0.0
 10
118.171568
 20
361.125498
 30
0.0
 10
118.004498
 20
360.674407
 30
0.0
 10
117.670356
 20
360.366996
 30
0.0
  0
SPLINE
  5
288
100
AcDbEntity
  8
0
 62
7
100
AcDbSpline
 70
8
 71
3
 72
8
 73
4
 74
0
 40
0
 40
0
 40
0
 40
0
 40
1
 40
1
 40
1
 40
1
 10
117.670356
 20
360.366996
 30
0.0
 10
117.342901
 20
360.052899
 30
0.0
 10
116.911858
 20
359.895851
 30
0.0
 10
116.377228
 20
359.895851
 30
0.0
  0
SPLINE
  5
289
100
AcDbEntity
  8
0
 62
7
100
AcDbSpline
 70
8
 71
3
 72
8
 73
4
 74
0
 40
0
 40
0
 40
0
 40
0
 40
1
 40
1
 40
1
 40
1
 10
116.377228
 20
359.895851
 30
0.0
 10
116.049768
 20
359.895851
 30
0.0
 10
115.752383
 20
359.959339
 30
0.0
 10
115.485074
 20
360.086316
 30
0.0
  0
SPLINE
  5
28a
100
AcDbEntity
  8
0
 62
7
100
AcDbSpline
 70
8
 71
3
 72
8
 73
4
 74
0
 40
0
 40
0
 40
0
 40
0
 40
1
 40
1
 40
1
 40
1
 10
115.485074
 20
360.086316
 30
0.0
 10
115.224442
 20
360.213287
 30
0.0
 10
115.017273
 20
360.390382
 30
0.0
 10
114.863568
 20
360.617599
 30
0.0
  0
SPLINE
  5
28b
100
AcDbEntity
  8
0
 62
7
100
AcDbSpline
 70
8
 71
3
 72
8
 73
4
 74
0
 40
0
 40
0
 40
0
 40
0
 40
1
 40
1
 40
1
 40
1
 10
114.863568
 20
360.617599
 30
0.0
 10
114.709860
 20
360.838134
 30
0.0
 10
114.633006
 20
361.085401
 30
0.0
 10
114.633006
 20
361.359399
 30
0.0
  0
LINE
  5
28c
100
AcDbEntity
  8
0
 62
7
100
AcDbLine
 10
114.633006
 20
361.359399
 30
0.0
 11
114.633006
 21
364.326581
 31
0.0
  0
SPLINE
  5
28d
100
AcDbEntity
  8
0
 62
7
100
AcDbSpline
 70
8
 71
3
 72
8
 73
4
 74
0
 40
0
 40
0
 40
0
 40
0
 40
1
 40
1
 40
1
 40
1
 10
114.633006
 20
364.326581
 30
0.0
 10
114.633006
 20
364.440189
 30
0.0
 10
114.596250
 20
364.533748
 30
0.0
 10
114.522739
 20
364.607258
 30
0.0
  0
SPLINE
  5
28e
100
AcDbEntity
  8
0
 62
7
100
AcDbSpline
 70
8
 71
3
 72
8
 73
4
 74
0
 40
0
 40
0
 40
0
 40
0
 40
1
 40
1
 40
1
 40
1
 10
114.522739
 20
364.607258
 30
0.0
 10
114.455913
 20
364.674088
 30
0.0
 10
114.365695
 20
364.707503
 30
0.0
 10
114.252084
 20
364.707503
 30
0.0
  0
SPLINE
  5
28f
100
AcDbEntity
  8
0
 62
7
100
AcDbSpline
 70
8
 71
3
 72
8
 73
4
 74
0
 40
0
 40
0
 40
0
 40
0
 40
1
 40
1
 40
1
 40
1
 10
114.252084
 20
364.707503
 30
0.0
 10
114.138478
 20
364.707503
 30
0.0
 10
114.044919
 20
364.674088
 30
0.0
 10
113.971407
 20
364.607258
 30
0.0
  0
SPLINE
  5
290
100
AcDbEntity
  8
0
 62
7
100
AcDbSpline
 70
8
 71
3
 72
8
 73
4
 74
0
 40
0
 40
0
 40
0
 40
0
 40
1
 40
1
 40
1
 40
1
 10
113.971407
 20
364.607258
 30
0.0
 10
113.897897
 20
364.533748
 30
0.0
 10
113.861143
 20
364.440189
 30
0.0
 10
113.861143
 20
364.326581
 30
0.0
  0
LINE
  5
291
100
AcDbEntity
  8
0
 62
7
100
AcDbLine
 10
113.861143
 20
364.326581
 30
0.0
 11
113.861143
 21
357.269491
 31
0.0
  0
SPLINE
  5
292
100
AcDbEntity
  8
0
 62
7
100
AcDbSpline
 70
8
 71
3
 72
8
 73
4
 74
0
 40
0
 40
0
 40
0
 40
0
 40
1
 40
1
 40
1
 40
1
 10
113.861143
 20
357.269491
 30
0.0
 10
113.861143
 20
357.155885
 30
0.0
 10
113.897897
 20
357.062327
 30
0.0
 10
113.971407
 20
356.988817
 30
0.0
  0
SPLINE
  5
293
100
AcDbEntity
  8
0
 62
7
100
AcDbSpline
 70
8
 71
3
 72
8
 73
4
 74
0
 40
0
 40
0
 40
0
 40
0
 40
1
 40
1
 40
1
 40
1
 10
113.971407
 20
356.988817
 30
0.0
 10
114.044919
 20
356.915306
 30
0.0
 10
114.138478
 20
356.878550
 30
0.0
 10
114.252084
 20
356.878550
 30
0.0
  0
SPLINE
  5
294
100
AcDbEntity
  8
0
 62
7
100
AcDbSpline
 70
8
 71
3
 72
8
 73
4
 74
0
 40
0
 40
0
 40
0
 40
0
 40
1
 40
1
 40
1
 40
1
 10
114.252084
 20
356.878550
 30
0.0
 10
114.365695
 20
356.878550
 30
0.0
 10
114.455913
 20
356.915306
 30
0.0
 10
114.522739
 20
356.988817
 30
0.0
  0
SPLINE
  5
295
100
AcDbEntity
  8
0
 62
7
100
AcDbSpline
 70
8
 71
3
 72
8
 73
4
 74
0
 40
0
 40
0
 40
0
 40
0
 40
1
 40
1
 40
1
 40
1
 10
114.522739
 20
356.988817
 30
0.0
 10
114.596250
 20
357.062327
 30
0.0
 10
114.633006
 20
357.155885
 30
0.0
 10
114.633006
 20
357.269491
 30
0.0
  0
LINE
  5
296
100
AcDbEntity
  8
0
 62
7
100
AcDbLine
 10
114.633006
 20
357.269491
 30
0.0
 11
114.633006
 21
359.955999
 31
0.0
  0
SPLINE
  5
297
100
AcDbEntity
  8
0
 62
7
100
AcDbSpline
 70
8
 71
3
 72
8
 73
4
 74
0
 40
0
 40
0
 40
0
 40
0
 40
1
 40
1
 40
1
 40
1
 10
114.633006
 20
359.955999
 30
0.0
 10
114.853542
 20
359.708735
 30
0.0
 10
115.120854
 20
359.514932
 30
0.0
 10
115.434944
 20
359.374590
 30
0.0
  0
SPLINE
  5
298
100
AcDbEntity
  8
0
 62
7
100
AcDbSpline
 70
8
 71
3
 72
8
 73
4
 74
0
 40
0
 40
0
 40
0
 40
0
 40
1
 40
1
 40
1
 40
1
 10
115.434944
 20
359.374590
 30
0.0
 10
115.749041
 20
359.234253
 30
0.0
 10
116.089869
 20
359.164084
 30
0.0
 10
116.457428
 20
359.164084
 30
0.0
  0
LINE
  5
299
100
AcDbEntity
  8
0
 62
7
100
AcDbLine
 10
116.457428
 20
359.164084
 30
0.0
 11
116.457428
 21
359.164084
 31
0.0
  0
SPLINE
  5
29a
100
AcDbEntity
  8
0
 62
7
100
AcDbSpline
 70
8
 71
3
 72
8
 73
4
 74
0
 40
0
 40
0
 40
0
 40
0
 40
1
 40
1
 40
1
 40
1
 10
110.848262
 20
364.757626
 30
0.0
 10
110.327000
 20
364.757626
 30
0.0
 10
109.859201
 20
364.637335
 30
0.0
 10
109.444866
 20
364.396752
 30
0.0
  0
SPLINE
  5
29b
100
AcDbEntity
  8
0
 62
7
100
AcDbSpline
 70
8
 71
3
 72
8
 73
4
 74
0
 40
0
 40
0
 40
0
 40
0
 40
1
 40
1
 40
1
 40
1
 10
109.444866
 20
364.396752
 30
0.0
 10
109.030528
 20
364.149485
 30
0.0
 10
108.703068
 20
363.815344
 30
0.0
 10
108.462486
 20
363.394327
 30
0.0
  0
SPLINE
  5
29c
100
AcDbEntity
  8
0
 62
7
100
AcDbSpline
 70
8
 71
3
 72
8
 73
4
 74
0
 40
0
 40
0
 40
0
 40
0
 40
1
 40
1
 40
1
 40
1
 10
108.462486
 20
363.394327
 30
0.0
 10
108.228587
 20
362.966621
 30
0.0
 10
108.111638
 20
362.492139
 30
0.0
 10
108.111638
 20
361.970879
 30
0.0
  0
SPLINE
  5
29d
100
AcDbEntity
  8
0
 62
7
100
AcDbSpline
 70
8
 71
3
 72
8
 73
4
 74
0
 40
0
 40
0
 40
0
 40
0
 40
1
 40
1
 40
1
 40
1
 10
108.111638
 20
361.970879
 30
0.0
 10
108.111638
 20
361.436249
 30
0.0
 10
108.225245
 20
360.958425
 30
0.0
 10
108.452460
 20
360.537405
 30
0.0
  0
SPLINE
  5
29e
100
AcDbEntity
  8
0
 62
7
100
AcDbSpline
 70
8
 71
3
 72
8
 73
4
 74
0
 40
0
 40
0
 40
0
 40
0
 40
1
 40
1
 40
1
 40
1
 10
108.452460
 20
360.537405
 30
0.0
 10
108.679679
 20
360.109702
 30
0.0
 10
108.993772
 20
359.775559
 30
0.0
 10
109.394740
 20
359.534977
 30
0.0
  0
SPLINE
  5
29f
100
AcDbEntity
  8
0
 62
7
100
AcDbSpline
 70
8
 71
3
 72
8
 73
4
 74
0
 40
0
 40
0
 40
0
 40
0
 40
1
 40
1
 40
1
 40
1
 10
109.394740
 20
359.534977
 30
0.0
 10
109.795712
 20
359.294396
 30
0.0
 10
110.246805
 20
359.174106
 30
0.0
 10
110.748020
 20
359.174106
 30
0.0
  0
SPLINE
  5
2a0
100
AcDbEntity
  8
0
 62
7
100
AcDbSpline
 70
8
 71
3
 72
8
 73
4
 74
0
 40
0
 40
0
 40
0
 40
0
 40
1
 40
1
 40
1
 40
1
 10
110.748020
 20
359.174106
 30
0.0
 10
111.583374
 20
359.174106
 30
0.0
 10
112.261683
 20
359.494882
 30
0.0
 10
112.782948
 20
360.136435
 30
0.0
  0
SPLINE
  5
2a1
100
AcDbEntity
  8
0
 62
7
100
AcDbSpline
 70
8
 71
3
 72
8
 73
4
 74
0
 40
0
 40
0
 40
0
 40
0
 40
1
 40
1
 40
1
 40
1
 10
112.782948
 20
360.136435
 30
0.0
 10
112.836410
 20
360.196581
 30
0.0
 10
112.863141
 20
360.266751
 30
0.0
 10
112.863141
 20
360.346944
 30
0.0
  0
SPLINE
  5
2a2
100
AcDbEntity
  8
0
 62
7
100
AcDbSpline
 70
8
 71
3
 72
8
 73
4
 74
0
 40
0
 40
0
 40
0
 40
0
 40
1
 40
1
 40
1
 40
1
 10
112.863141
 20
360.346944
 30
0.0
 10
112.863141
 20
360.453869
 30
0.0
 10
112.806337
 20
360.547429
 30
0.0
 10
112.692729
 20
360.627625
 30
0.0
  0
SPLINE
  5
2a3
100
AcDbEntity
  8
0
 62
7
100
AcDbSpline
 70
8
 71
3
 72
8
 73
4
 74
0
 40
0
 40
0
 40
0
 40
0
 40
1
 40
1
 40
1
 40
1
 10
112.692729
 20
360.627625
 30
0.0
 10
112.632582
 20
360.667719
 30
0.0
 10
112.569095
 20
360.687766
 30
0.0
 10
112.502267
 20
360.687766
 30
0.0
  0
SPLINE
  5
2a4
100
AcDbEntity
  8
0
 62
7
100
AcDbSpline
 70
8
 71
3
 72
8
 73
4
 74
0
 40
0
 40
0
 40
0
 40
0
 40
1
 40
1
 40
1
 40
1
 10
112.502267
 20
360.687766
 30
0.0
 10
112.402022
 20
360.687766
 30
0.0
 10
112.305121
 20
360.637646
 30
0.0
 10
112.211564
 20
360.537405
 30
0.0
  0
SPLINE
  5
2a5
100
AcDbEntity
  8
0
 62
7
100
AcDbSpline
 70
8
 71
3
 72
8
 73
4
 74
0
 40
0
 40
0
 40
0
 40
0
 40
1
 40
1
 40
1
 40
1
 10
112.211564
 20
360.537405
 30
0.0
 10
112.011078
 20
360.316875
 30
0.0
 10
111.790544
 20
360.153146
 30
0.0
 10
111.549961
 20
360.046219
 30
0.0
  0
SPLINE
  5
2a6
100
AcDbEntity
  8
0
 62
7
100
AcDbSpline
 70
8
 71
3
 72
8
 73
4
 74
0
 40
0
 40
0
 40
0
 40
0
 40
1
 40
1
 40
1
 40
1
 10
111.549961
 20
360.046219
 30
0.0
 10
111.309381
 20
359.932608
 30
0.0
 10
111.042067
 20
359.875802
 30
0.0
 10
110.748020
 20
359.875802
 30
0.0
  0
SPLINE
  5
2a7
100
AcDbEntity
  8
0
 62
7
100
AcDbSpline
 70
8
 71
3
 72
8
 73
4
 74
0
 40
0
 40
0
 40
0
 40
0
 40
1
 40
1
 40
1
 40
1
 10
110.748020
 20
359.875802
 30
0.0
 10
110.380463
 20
359.875802
 30
0.0
 10
110.053004
 20
359.966022
 30
0.0
 10
109.765643
 20
360.146461
 30
0.0
  0
SPLINE
  5
2a8
100
AcDbEntity
  8
0
 62
7
100
AcDbSpline
 70
8
 71
3
 72
8
 73
4
 74
0
 40
0
 40
0
 40
0
 40
0
 40
1
 40
1
 40
1
 40
1
 10
109.765643
 20
360.146461
 30
0.0
 10
109.478277
 20
360.320215
 30
0.0
 10
109.254401
 20
360.567480
 30
0.0
 10
109.094014
 20
360.888254
 30
0.0
  0
SPLINE
  5
2a9
100
AcDbEntity
  8
0
 62
7
100
AcDbSpline
 70
8
 71
3
 72
8
 73
4
 74
0
 40
0
 40
0
 40
0
 40
0
 40
1
 40
1
 40
1
 40
1
 10
109.094014
 20
360.888254
 30
0.0
 10
108.940307
 20
361.209030
 30
0.0
 10
108.863453
 20
361.569905
 30
0.0
 10
108.863453
 20
361.970879
 30
0.0
  0
SPLINE
  5
2aa
100
AcDbEntity
  8
0
 62
7
100
AcDbSpline
 70
8
 71
3
 72
8
 73
4
 74
0
 40
0
 40
0
 40
0
 40
0
 40
1
 40
1
 40
1
 40
1
 10
108.863453
 20
361.970879
 30
0.0
 10
108.863453
 20
362.365167
 30
0.0
 10
108.946989
 20
362.722698
 30
0.0
 10
109.114063
 20
363.043472
 30
0.0
  0
SPLINE
  5
2ab
100
AcDbEntity
  8
0
 62
7
100
AcDbSpline
 70
8
 71
3
 72
8
 73
4
 74
0
 40
0
 40
0
 40
0
 40
0
 40
1
 40
1
 40
1
 40
1
 10
109.114063
 20
363.043472
 30
0.0
 10
109.281131
 20
363.357569
 30
0.0
 10
109.515030
 20
363.604835
 30
0.0
 10
109.815759
 20
363.785272
 30
0.0
  0
SPLINE
  5
2ac
100
AcDbEntity
  8
0
 62
7
100
AcDbSpline
 70
8
 71
3
 72
8
 73
4
 74
0
 40
0
 40
0
 40
0
 40
0
 40
1
 40
1
 40
1
 40
1
 10
109.815759
 20
363.785272
 30
0.0
 10
110.116488
 20
363.965708
 30
0.0
 10
110.460655
 20
364.055926
 30
0.0
 10
110.848262
 20
364.055926
 30
0.0
  0
SPLINE
  5
2ad
100
AcDbEntity
  8
0
 62
7
100
AcDbSpline
 70
8
 71
3
 72
8
 73
4
 74
0
 40
0
 40
0
 40
0
 40
0
 40
1
 40
1
 40
1
 40
1
 10
110.848262
 20
364.055926
 30
0.0
 10
111.382889
 20
364.055926
 30
0.0
 10
111.813933
 20
363.912246
 30
0.0
 10
112.141393
 20
363.624885
 30
0.0
  0
SPLINE
  5
2ae
100
AcDbEntity
  8
0
 62
7
100
AcDbSpline
 70
8
 71
3
 72
8
 73
4
 74
0
 40
0
 40
0
 40
0
 40
0
 40
1
 40
1
 40
1
 40
1
 10
112.141393
 20
363.624885
 30
0.0
 10
112.228271
 20
363.551373
 30
0.0
 10
112.318489
 20
363.514617
 30
0.0
 10
112.412048
 20
363.514617
 30
0.0
  0
SPLINE
  5
2af
100
AcDbEntity
  8
0
 62
7
100
AcDbSpline
 70
8
 71
3
 72
8
 73
4
 74
0
 40
0
 40
0
 40
0
 40
0
 40
1
 40
1
 40
1
 40
1
 10
112.412048
 20
363.514617
 30
0.0
 10
112.492241
 20
363.514617
 30
0.0
 10
112.565753
 20
363.541348
 30
0.0
 10
112.632583
 20
363.594810
 30
0.0
  0
SPLINE
  5
2b0
100
AcDbEntity
  8
0
 62
7
100
AcDbSpline
 70
8
 71
3
 72
8
 73
4
 74
0
 40
0
 40
0
 40
0
 40
0
 40
1
 40
1
 40
1
 40
1
 10
112.632583
 20
363.594810
 30
0.0
 10
112.726142
 20
363.675006
 30
0.0
 10
112.772922
 20
363.765224
 30
0.0
 10
112.772922
 20
363.865465
 30
0.0
  0
SPLINE
  5
2b1
100
AcDbEntity
  8
0
 62
7
100
AcDbSpline
 70
8
 71
3
 72
8
 73
4
 74
0
 40
0
 40
0
 40
0
 40
0
 40
1
 40
1
 40
1
 40
1
 10
112.772922
 20
363.865465
 30
0.0
 10
112.772922
 20
363.952340
 30
0.0
 10
112.739507
 20
364.025851
 30
0.0
 10
112.672677
 20
364.085997
 30
0.0
  0
SPLINE
  5
2b2
100
AcDbEntity
  8
0
 62
7
100
AcDbSpline
 70
8
 71
3
 72
8
 73
4
 74
0
 40
0
 40
0
 40
0
 40
0
 40
1
 40
1
 40
1
 40
1
 10
112.672677
 20
364.085997
 30
0.0
 10
112.191514
 20
364.533750
 30
0.0
 10
111.583375
 20
364.757626
 30
0.0
 10
110.848262
 20
364.757626
 30
0.0
  0
LINE
  5
2b3
100
AcDbEntity
  8
0
 62
7
100
AcDbLine
 10
110.848262
 20
364.757626
 30
0.0
 11
110.848262
 21
364.757626
 31
0.0
  0
SPLINE
  5
2b4
100
AcDbEntity
  8
0
 62
7
100
AcDbSpline
 70
8
 71
3
 72
8
 73
4
 74
0
 40
0
 40
0
 40
0
 40
0
 40
1
 40
1
 40
1
 40
1
 10
106.654030
 20
364.867894
 30
0.0
 10
106.493641
 20
364.867894
 30
0.0
 10
106.356643
 20
364.811088
 30
0.0
 10
106.243037
 20
364.697477
 30
0.0
  0
SPLINE
  5
2b5
100
AcDbEntity
  8
0
 62
7
100
AcDbSpline
 70
8
 71
3
 72
8
 73
4
 74
0
 40
0
 40
0
 40
0
 40
0
 40
1
 40
1
 40
1
 40
1
 10
106.243037
 20
364.697477
 30
0.0
 10
106.129426
 20
364.583869
 30
0.0
 10
106.072621
 20
364.446870
 30
0.0
 10
106.072621
 20
364.286481
 30
0.0
  0
SPLINE
  5
2b6
100
AcDbEntity
  8
0
 62
7
100
AcDbSpline
 70
8
 71
3
 72
8
 73
4
 74
0
 40
0
 40
0
 40
0
 40
0
 40
1
 40
1
 40
1
 40
1
 10
106.072621
 20
364.286481
 30
0.0
 10
106.072621
 20
364.119410
 30
0.0
 10
106.129426
 20
363.979071
 30
0.0
 10
106.243037
 20
363.865465
 30
0.0
  0
SPLINE
  5
2b7
100
AcDbEntity
  8
0
 62
7
100
AcDbSpline
 70
8
 71
3
 72
8
 73
4
 74
0
 40
0
 40
0
 40
0
 40
0
 40
1
 40
1
 40
1
 40
1
 10
106.243037
 20
363.865465
 30
0.0
 10
106.363327
 20
363.751854
 30
0.0
 10
106.500325
 20
363.695049
 30
0.0
 10
106.654030
 20
363.695049
 30
0.0
  0
SPLINE
  5
2b8
100
AcDbEntity
  8
0
 62
7
100
AcDbSpline
 70
8
 71
3
 72
8
 73
4
 74
0
 40
0
 40
0
 40
0
 40
0
 40
1
 40
1
 40
1
 40
1
 10
106.654030
 20
363.695049
 30
0.0
 10
106.814420
 20
363.695049
 30
0.0
 10
106.951417
 20
363.755194
 30
0.0
 10
107.065023
 20
363.875484
 30
0.0
  0
SPLINE
  5
2b9
100
AcDbEntity
  8
0
 62
7
100
AcDbSpline
 70
8
 71
3
 72
8
 73
4
 74
0
 40
0
 40
0
 40
0
 40
0
 40
1
 40
1
 40
1
 40
1
 10
107.065023
 20
363.875484
 30
0.0
 10
107.178632
 20
363.989095
 30
0.0
 10
107.235436
 20
364.126094
 30
0.0
 10
107.235436
 20
364.286481
 30
0.0
  0
SPLINE
  5
2ba
100
AcDbEntity
  8
0
 62
7
100
AcDbSpline
 70
8
 71
3
 72
8
 73
4
 74
0
 40
0
 40
0
 40
0
 40
0
 40
1
 40
1
 40
1
 40
1
 10
107.235436
 20
364.286481
 30
0.0
 10
107.235436
 20
364.446870
 30
0.0
 10
107.178632
 20
364.583869
 30
0.0
 10
107.065023
 20
364.697477
 30
0.0
  0
SPLINE
  5
2bb
100
AcDbEntity
  8
0
 62
7
100
AcDbSpline
 70
8
 71
3
 72
8
 73
4
 74
0
 40
0
 40
0
 40
0
 40
0
 40
1
 40
1
 40
1
 40
1
 10
107.065023
 20
364.697477
 30
0.0
 10
106.951417
 20
364.811088
 30
0.0
 10
106.814420
 20
364.867894
 30
0.0
 10
106.654030
 20
364.867894
 30
0.0
  0
LINE
  5
2bc
100
AcDbEntity
  8
0
 62
7
100
AcDbLine
 10
106.654030
 20
364.867894
 30
0.0
 11
106.654030
 21
364.867894
 31
0.0
  0
SPLINE
  5
2bd
100
AcDbEntity
  8
0
 62
7
100
AcDbSpline
 70
8
 71
3
 72
8
 73
4
 74
0
 40
0
 40
0
 40
0
 40
0
 40
1
 40
1
 40
1
 40
1
 10
103.061934
 20
359.174106
 30
0.0
 10
103.569833
 20
359.174106
 30
0.0
 10
104.027609
 20
359.297738
 30
0.0
 10
104.435263
 20
359.545003
 30
0.0
  0
SPLINE
  5
2be
100
AcDbEntity
  8
0
 62
7
100
AcDbSpline
 70
8
 71
3
 72
8
 73
4
 74
0
 40
0
 40
0
 40
0
 40
0
 40
1
 40
1
 40
1
 40
1
 10
104.435263
 20
359.545003
 30
0.0
 10
104.849598
 20
359.785585
 30
0.0
 10
105.173716
 20
360.119728
 30
0.0
 10
105.407617
 20
360.547431
 30
0.0
  0
SPLINE
  5
2bf
100
AcDbEntity
  8
0
 62
7
100
AcDbSpline
 70
8
 71
3
 72
8
 73
4
 74
0
 40
0
 40
0
 40
0
 40
0
 40
1
 40
1
 40
1
 40
1
 10
105.407617
 20
360.547431
 30
0.0
 10
105.648200
 20
360.968453
 30
0.0
 10
105.768491
 20
361.439593
 30
0.0
 10
105.768491
 20
361.960853
 30
0.0
  0
SPLINE
  5
2c0
100
AcDbEntity
  8
0
 62
7
100
AcDbSpline
 70
8
 71
3
 72
8
 73
4
 74
0
 40
0
 40
0
 40
0
 40
0
 40
1
 40
1
 40
1
 40
1
 10
105.768491
 20
361.960853
 30
0.0
 10
105.768491
 20
362.482118
 30
0.0
 10
105.644858
 20
362.956599
 30
0.0
 10
105.397591
 20
363.384297
 30
0.0
  0
SPLINE
  5
2c1
100
AcDbEntity
  8
0
 62
7
100
AcDbSpline
 70
8
 71
3
 72
8
 73
4
 74
0
 40
0
 40
0
 40
0
 40
0
 40
1
 40
1
 40
1
 40
1
 10
105.397591
 20
363.384297
 30
0.0
 10
105.157008
 20
363.812000
 30
0.0
 10
104.822866
 20
364.149485
 30
0.0
 10
104.395163
 20
364.396752
 30
0.0
  0
SPLINE
  5
2c2
100
AcDbEntity
  8
0
 62
7
100
AcDbSpline
 70
8
 71
3
 72
8
 73
4
 74
0
 40
0
 40
0
 40
0
 40
0
 40
1
 40
1
 40
1
 40
1
 10
104.395163
 20
364.396752
 30
0.0
 10
103.974146
 20
364.637335
 30
0.0
 10
103.503005
 20
364.757626
 30
0.0
 10
102.981741
 20
364.757626
 30
0.0
  0
SPLINE
  5
2c3
100
AcDbEntity
  8
0
 62
7
100
AcDbSpline
 70
8
 71
3
 72
8
 73
4
 74
0
 40
0
 40
0
 40
0
 40
0
 40
1
 40
1
 40
1
 40
1
 10
102.981741
 20
364.757626
 30
0.0
 10
102.460481
 20
364.757626
 30
0.0
 10
101.986000
 20
364.637335
 30
0.0
 10
101.558297
 20
364.396752
 30
0.0
  0
SPLINE
  5
2c4
100
AcDbEntity
  8
0
 62
7
100
AcDbSpline
 70
8
 71
3
 72
8
 73
4
 74
0
 40
0
 40
0
 40
0
 40
0
 40
1
 40
1
 40
1
 40
1
 10
101.558297
 20
364.396752
 30
0.0
 10
101.137277
 20
364.149485
 30
0.0
 10
100.803135
 20
363.812000
 30
0.0
 10
100.555868
 20
363.384297
 30
0.0
  0
SPLINE
  5
2c5
100
AcDbEntity
  8
0
 62
7
100
AcDbSpline
 70
8
 71
3
 72
8
 73
4
 74
0
 40
0
 40
0
 40
0
 40
0
 40
1
 40
1
 40
1
 40
1
 10
100.555868
 20
363.384297
 30
0.0
 10
100.315285
 20
362.956599
 30
0.0
 10
100.194994
 20
362.482118
 30
0.0
 10
100.194994
 20
361.960853
 30
0.0
  0
LINE
  5
2c6
100
AcDbEntity
  8
0
 62
7
100
AcDbLine
 10
100.194994
 20
361.960853
 30
0.0
 11
100.194994
 21
359.605148
 31
0.0
  0
SPLINE
  5
2c7
100
AcDbEntity
  8
0
 62
7
100
AcDbSpline
 70
8
 71
3
 72
8
 73
4
 74
0
 40
0
 40
0
 40
0
 40
0
 40
1
 40
1
 40
1
 40
1
 10
100.194994
 20
359.605148
 30
0.0
 10
100.194994
 20
359.565051
 30
0.0
 10
100.198334
 20
359.534978
 30
0.0
 10
100.205013
 20
359.514928
 30
0.0
  0
LINE
  5
2c8
100
AcDbEntity
  8
0
 62
7
100
AcDbLine
 10
100.205013
 20
359.514928
 30
0.0
 11
100.205013
 21
357.269491
 31
0.0
  0
SPLINE
  5
2c9
100
AcDbEntity
  8
0
 62
7
100
AcDbSpline
 70
8
 71
3
 72
8
 73
4
 74
0
 40
0
 40
0
 40
0
 40
0
 40
1
 40
1
 40
1
 40
1
 10
100.205013
 20
357.269491
 30
0.0
 10
100.205013
 20
357.155885
 30
0.0
 10
100.238427
 20
357.062327
 30
0.0
 10
100.305255
 20
356.988817
 30
0.0
  0
SPLINE
  5
2ca
100
AcDbEntity
  8
0
 62
7
100
AcDbSpline
 70
8
 71
3
 72
8
 73
4
 74
0
 40
0
 40
0
 40
0
 40
0
 40
1
 40
1
 40
1
 40
1
 10
100.305255
 20
356.988817
 30
0.0
 10
100.378764
 20
356.915306
 30
0.0
 10
100.472323
 20
356.878550
 30
0.0
 10
100.585932
 20
356.878550
 30
0.0
  0
SPLINE
  5
2cb
100
AcDbEntity
  8
0
 62
7
100
AcDbSpline
 70
8
 71
3
 72
8
 73
4
 74
0
 40
0
 40
0
 40
0
 40
0
 40
1
 40
1
 40
1
 40
1
 10
100.585932
 20
356.878550
 30
0.0
 10
100.699543
 20
356.878550
 30
0.0
 10
100.793103
 20
356.915306
 30
0.0
 10
100.866612
 20
356.988817
 30
0.0
  0
SPLINE
  5
2cc
100
AcDbEntity
  8
0
 62
7
100
AcDbSpline
 70
8
 71
3
 72
8
 73
4
 74
0
 40
0
 40
0
 40
0
 40
0
 40
1
 40
1
 40
1
 40
1
 10
100.866612
 20
356.988817
 30
0.0
 10
100.940122
 20
357.062327
 30
0.0
 10
100.976876
 20
357.155885
 30
0.0
 10
100.976876
 20
357.269491
 30
0.0
  0
LINE
  5
2cd
100
AcDbEntity
  8
0
 62
7
100
AcDbLine
 10
100.976876
 20
357.269491
 30
0.0
 11
100.976876
 21
360.206609
 31
0.0
  0
SPLINE
  5
2ce
100
AcDbEntity
  8
0
 62
7
100
AcDbSpline
 70
8
 71
3
 72
8
 73
4
 74
0
 40
0
 40
0
 40
0
 40
0
 40
1
 40
1
 40
1
 40
1
 10
100.976876
 20
360.206609
 30
0.0
 10
101.210780
 20
359.885831
 30
0.0
 10
101.508168
 20
359.635223
 30
0.0
 10
101.869041
 20
359.454787
 30
0.0
  0
SPLINE
  5
2cf
100
AcDbEntity
  8
0
 62
7
100
AcDbSpline
 70
8
 71
3
 72
8
 73
4
 74
0
 40
0
 40
0
 40
0
 40
0
 40
1
 40
1
 40
1
 40
1
 10
101.869041
 20
359.454787
 30
0.0
 10
102.229914
 20
359.267667
 30
0.0
 10
102.627542
 20
359.174106
 30
0.0
 10
103.061927
 20
359.174106
 30
0.0
  0
LINE
  5
2d0
100
AcDbEntity
  8
0
 62
7
100
AcDbLine
 10
103.061927
 20
359.174106
 30
0.0
 11
103.061934
 21
359.174106
 31
0.0
  0
SPLINE
  5
2d1
100
AcDbEntity
  8
0
 62
7
100
AcDbSpline
 70
8
 71
3
 72
8
 73
4
 74
0
 40
0
 40
0
 40
0
 40
0
 40
1
 40
1
 40
1
 40
1
 10
102.981741
 20
364.055926
 30
0.0
 10
103.362665
 20
364.055926
 30
0.0
 10
103.706832
 20
363.965708
 30
0.0
 10
104.014240
 20
363.785272
 30
0.0
  0
SPLINE
  5
2d2
100
AcDbEntity
  8
0
 62
7
100
AcDbSpline
 70
8
 71
3
 72
8
 73
4
 74
0
 40
0
 40
0
 40
0
 40
0
 40
1
 40
1
 40
1
 40
1
 10
104.014240
 20
363.785272
 30
0.0
 10
104.328335
 20
363.598151
 30
0.0
 10
104.572259
 20
363.347545
 30
0.0
 10
104.746014
 20
363.033453
 30
0.0
  0
SPLINE
  5
2d3
100
AcDbEntity
  8
0
 62
7
100
AcDbSpline
 70
8
 71
3
 72
8
 73
4
 74
0
 40
0
 40
0
 40
0
 40
0
 40
1
 40
1
 40
1
 40
1
 10
104.746014
 20
363.033453
 30
0.0
 10
104.926451
 20
362.712674
 30
0.0
 10
105.016669
 20
362.355141
 30
0.0
 10
105.016669
 20
361.960853
 30
0.0
  0
SPLINE
  5
2d4
100
AcDbEntity
  8
0
 62
7
100
AcDbSpline
 70
8
 71
3
 72
8
 73
4
 74
0
 40
0
 40
0
 40
0
 40
0
 40
1
 40
1
 40
1
 40
1
 10
105.016669
 20
361.960853
 30
0.0
 10
105.016669
 20
361.566563
 30
0.0
 10
104.926451
 20
361.212372
 30
0.0
 10
104.746014
 20
360.898279
 30
0.0
  0
SPLINE
  5
2d5
100
AcDbEntity
  8
0
 62
7
100
AcDbSpline
 70
8
 71
3
 72
8
 73
4
 74
0
 40
0
 40
0
 40
0
 40
0
 40
1
 40
1
 40
1
 40
1
 10
104.746014
 20
360.898279
 30
0.0
 10
104.572259
 20
360.577503
 30
0.0
 10
104.328335
 20
360.326897
 30
0.0
 10
104.014240
 20
360.146461
 30
0.0
  0
SPLINE
  5
2d6
100
AcDbEntity
  8
0
 62
7
100
AcDbSpline
 70
8
 71
3
 72
8
 73
4
 74
0
 40
0
 40
0
 40
0
 40
0
 40
1
 40
1
 40
1
 40
1
 10
104.014240
 20
360.146461
 30
0.0
 10
103.706832
 20
359.966022
 30
0.0
 10
103.362665
 20
359.875802
 30
0.0
 10
102.981741
 20
359.875802
 30
0.0
  0
SPLINE
  5
2d7
100
AcDbEntity
  8
0
 62
7
100
AcDbSpline
 70
8
 71
3
 72
8
 73
4
 74
0
 40
0
 40
0
 40
0
 40
0
 40
1
 40
1
 40
1
 40
1
 10
102.981741
 20
359.875802
 30
0.0
 10
102.453797
 20
359.875802
 30
0.0
 10
102.002705
 20
360.042874
 30
0.0
 10
101.628464
 20
360.377019
 30
0.0
  0
SPLINE
  5
2d8
100
AcDbEntity
  8
0
 62
7
100
AcDbSpline
 70
8
 71
3
 72
8
 73
4
 74
0
 40
0
 40
0
 40
0
 40
0
 40
1
 40
1
 40
1
 40
1
 10
101.628464
 20
360.377019
 30
0.0
 10
101.260907
 20
360.711160
 30
0.0
 10
101.043715
 20
361.138861
 30
0.0
 10
100.976887
 20
361.660121
 30
0.0
  0
SPLINE
  5
2d9
100
AcDbEntity
  8
0
 62
7
100
AcDbSpline
 70
8
 71
3
 72
8
 73
4
 74
0
 40
0
 40
0
 40
0
 40
0
 40
1
 40
1
 40
1
 40
1
 10
100.976887
 20
361.660121
 30
0.0
 10
100.976887
 20
361.680182
 30
0.0
 10
100.973547
 20
361.696891
 30
0.0
 10
100.966868
 20
361.710247
 30
0.0
  0
SPLINE
  5
2da
100
AcDbEntity
  8
0
 62
7
100
AcDbSpline
 70
8
 71
3
 72
8
 73
4
 74
0
 40
0
 40
0
 40
0
 40
0
 40
1
 40
1
 40
1
 40
1
 10
100.966868
 20
361.710247
 30
0.0
 10
100.960189
 20
361.763709
 30
0.0
 10
100.956849
 20
361.847245
 30
0.0
 10
100.956849
 20
361.960853
 30
0.0
  0
SPLINE
  5
2db
100
AcDbEntity
  8
0
 62
7
100
AcDbSpline
 70
8
 71
3
 72
8
 73
4
 74
0
 40
0
 40
0
 40
0
 40
0
 40
1
 40
1
 40
1
 40
1
 10
100.956849
 20
361.960853
 30
0.0
 10
100.956849
 20
362.355141
 30
0.0
 10
101.043725
 20
362.712674
 30
0.0
 10
101.217478
 20
363.033453
 30
0.0
  0
SPLINE
  5
2dc
100
AcDbEntity
  8
0
 62
7
100
AcDbSpline
 70
8
 71
3
 72
8
 73
4
 74
0
 40
0
 40
0
 40
0
 40
0
 40
1
 40
1
 40
1
 40
1
 10
101.217478
 20
363.033453
 30
0.0
 10
101.397914
 20
363.347545
 30
0.0
 10
101.641838
 20
363.598151
 30
0.0
 10
101.949248
 20
363.785272
 30
0.0
  0
SPLINE
  5
2dd
100
AcDbEntity
  8
0
 62
7
100
AcDbSpline
 70
8
 71
3
 72
8
 73
4
 74
0
 40
0
 40
0
 40
0
 40
0
 40
1
 40
1
 40
1
 40
1
 10
101.949248
 20
363.785272
 30
0.0
 10
102.256661
 20
363.965708
 30
0.0
 10
102.600828
 20
364.055926
 30
0.0
 10
102.981748
 20
364.055926
 30
0.0
  0
LINE
  5
2de
100
AcDbEntity
  8
0
 62
7
100
AcDbLine
 10
102.981748
 20
364.055926
 30
0.0
 11
102.981741
 21
364.055926
 31
0.0
  0
SPLINE
  5
2df
100
AcDbEntity
  8
0
 62
7
100
AcDbSpline
 70
8
 71
3
 72
8
 73
4
 74
0
 40
0
 40
0
 40
0
 40
0
 40
1
 40
1
 40
1
 40
1
 10
96.412426
 20
359.174106
 30
0.0
 10
96.933690
 20
359.174106
 30
0.0
 10
97.404832
 20
359.297738
 30
0.0
 10
97.825851
 20
359.545003
 30
0.0
  0
SPLINE
  5
2e0
100
AcDbEntity
  8
0
 62
7
100
AcDbSpline
 70
8
 71
3
 72
8
 73
4
 74
0
 40
0
 40
0
 40
0
 40
0
 40
1
 40
1
 40
1
 40
1
 10
97.825851
 20
359.545003
 30
0.0
 10
98.253552
 20
359.785585
 30
0.0
 10
98.587694
 20
360.119728
 30
0.0
 10
98.828276
 20
360.547431
 30
0.0
  0
SPLINE
  5
2e1
100
AcDbEntity
  8
0
 62
7
100
AcDbSpline
 70
8
 71
3
 72
8
 73
4
 74
0
 40
0
 40
0
 40
0
 40
0
 40
1
 40
1
 40
1
 40
1
 10
98.828276
 20
360.547431
 30
0.0
 10
99.075543
 20
360.975132
 30
0.0
 10
99.199176
 20
361.449615
 30
0.0
 10
99.199176
 20
361.970879
 30
0.0
  0
LINE
  5
2e2
100
AcDbEntity
  8
0
 62
7
100
AcDbLine
 10
99.199176
 20
361.970879
 30
0.0
 11
99.199176
 21
364.326581
 31
0.0
  0
SPLINE
  5
2e3
100
AcDbEntity
  8
0
 62
7
100
AcDbSpline
 70
8
 71
3
 72
8
 73
4
 74
0
 40
0
 40
0
 40
0
 40
0
 40
1
 40
1
 40
1
 40
1
 10
99.199176
 20
364.326581
 30
0.0
 10
99.199176
 20
364.433508
 30
0.0
 10
99.162419
 20
364.523727
 30
0.0
 10
99.088905
 20
364.597239
 30
0.0
  0
SPLINE
  5
2e4
100
AcDbEntity
  8
0
 62
7
100
AcDbSpline
 70
8
 71
3
 72
8
 73
4
 74
0
 40
0
 40
0
 40
0
 40
0
 40
1
 40
1
 40
1
 40
1
 10
99.088905
 20
364.597239
 30
0.0
 10
99.015396
 20
364.670749
 30
0.0
 10
98.921835
 20
364.707503
 30
0.0
 10
98.808224
 20
364.707503
 30
0.0
  0
SPLINE
  5
2e5
100
AcDbEntity
  8
0
 62
7
100
AcDbSpline
 70
8
 71
3
 72
8
 73
4
 74
0
 40
0
 40
0
 40
0
 40
0
 40
1
 40
1
 40
1
 40
1
 10
98.808224
 20
364.707503
 30
0.0
 10
98.694621
 20
364.707503
 30
0.0
 10
98.601062
 20
364.674088
 30
0.0
 10
98.527547
 20
364.607258
 30
0.0
  0
SPLINE
  5
2e6
100
AcDbEntity
  8
0
 62
7
100
AcDbSpline
 70
8
 71
3
 72
8
 73
4
 74
0
 40
0
 40
0
 40
0
 40
0
 40
1
 40
1
 40
1
 40
1
 10
98.527547
 20
364.607258
 30
0.0
 10
98.454038
 20
364.533748
 30
0.0
 10
98.417283
 20
364.440189
 30
0.0
 10
98.417283
 20
364.326581
 30
0.0
  0
LINE
  5
2e7
100
AcDbEntity
  8
0
 62
7
100
AcDbLine
 10
98.417283
 20
364.326581
 30
0.0
 11
98.417283
 21
363.725123
 31
0.0
  0
SPLINE
  5
2e8
100
AcDbEntity
  8
0
 62
7
100
AcDbSpline
 70
8
 71
3
 72
8
 73
4
 74
0
 40
0
 40
0
 40
0
 40
0
 40
1
 40
1
 40
1
 40
1
 10
98.417283
 20
363.725123
 30
0.0
 10
98.183382
 20
364.045901
 30
0.0
 10
97.885995
 20
364.299851
 30
0.0
 10
97.525122
 20
364.486971
 30
0.0
  0
SPLINE
  5
2e9
100
AcDbEntity
  8
0
 62
7
100
AcDbSpline
 70
8
 71
3
 72
8
 73
4
 74
0
 40
0
 40
0
 40
0
 40
0
 40
1
 40
1
 40
1
 40
1
 10
97.525122
 20
364.486971
 30
0.0
 10
97.164247
 20
364.667408
 30
0.0
 10
96.766618
 20
364.757626
 30
0.0
 10
96.332236
 20
364.757626
 30
0.0
  0
SPLINE
  5
2ea
100
AcDbEntity
  8
0
 62
7
100
AcDbSpline
 70
8
 71
3
 72
8
 73
4
 74
0
 40
0
 40
0
 40
0
 40
0
 40
1
 40
1
 40
1
 40
1
 10
96.332236
 20
364.757626
 30
0.0
 10
95.824335
 20
364.757626
 30
0.0
 10
95.363218
 20
364.637335
 30
0.0
 10
94.948885
 20
364.396752
 30
0.0
  0
SPLINE
  5
2eb
100
AcDbEntity
  8
0
 62
7
100
AcDbSpline
 70
8
 71
3
 72
8
 73
4
 74
0
 40
0
 40
0
 40
0
 40
0
 40
1
 40
1
 40
1
 40
1
 10
94.948885
 20
364.396752
 30
0.0
 10
94.541231
 20
364.149485
 30
0.0
 10
94.217112
 20
363.815344
 30
0.0
 10
93.976527
 20
363.394327
 30
0.0
  0
SPLINE
  5
2ec
100
AcDbEntity
  8
0
 62
7
100
AcDbSpline
 70
8
 71
3
 72
8
 73
4
 74
0
 40
0
 40
0
 40
0
 40
0
 40
1
 40
1
 40
1
 40
1
 10
93.976527
 20
363.394327
 30
0.0
 10
93.742631
 20
362.966621
 30
0.0
 10
93.625683
 20
362.492139
 30
0.0
 10
93.625683
 20
361.970879
 30
0.0
  0
SPLINE
  5
2ed
100
AcDbEntity
  8
0
 62
7
100
AcDbSpline
 70
8
 71
3
 72
8
 73
4
 74
0
 40
0
 40
0
 40
0
 40
0
 40
1
 40
1
 40
1
 40
1
 10
93.625683
 20
361.970879
 30
0.0
 10
93.625683
 20
361.449615
 30
0.0
 10
93.745972
 20
360.975132
 30
0.0
 10
93.986550
 20
360.547431
 30
0.0
  0
SPLINE
  5
2ee
100
AcDbEntity
  8
0
 62
7
100
AcDbSpline
 70
8
 71
3
 72
8
 73
4
 74
0
 40
0
 40
0
 40
0
 40
0
 40
1
 40
1
 40
1
 40
1
 10
93.986550
 20
360.547431
 30
0.0
 10
94.233819
 20
360.119728
 30
0.0
 10
94.567961
 20
359.785585
 30
0.0
 10
94.988978
 20
359.545003
 30
0.0
  0
SPLINE
  5
2ef
100
AcDbEntity
  8
0
 62
7
100
AcDbSpline
 70
8
 71
3
 72
8
 73
4
 74
0
 40
0
 40
0
 40
0
 40
0
 40
1
 40
1
 40
1
 40
1
 10
94.988978
 20
359.545003
 30
0.0
 10
95.416684
 20
359.297738
 30
0.0
 10
95.891166
 20
359.174106
 30
0.0
 10
96.412426
 20
359.174106
 30
0.0
  0
LINE
  5
2f0
100
AcDbEntity
  8
0
 62
7
100
AcDbLine
 10
96.412426
 20
359.174106
 30
0.0
 11
96.412426
 21
359.174106
 31
0.0
  0
SPLINE
  5
2f1
100
AcDbEntity
  8
0
 62
7
100
AcDbSpline
 70
8
 71
3
 72
8
 73
4
 74
0
 40
0
 40
0
 40
0
 40
0
 40
1
 40
1
 40
1
 40
1
 10
96.412426
 20
364.055926
 30
0.0
 10
96.793348
 20
364.055926
 30
0.0
 10
97.137514
 20
363.965708
 30
0.0
 10
97.444922
 20
363.785272
 30
0.0
  0
SPLINE
  5
2f2
100
AcDbEntity
  8
0
 62
7
100
AcDbSpline
 70
8
 71
3
 72
8
 73
4
 74
0
 40
0
 40
0
 40
0
 40
0
 40
1
 40
1
 40
1
 40
1
 10
97.444922
 20
363.785272
 30
0.0
 10
97.752332
 20
363.604835
 30
0.0
 10
97.992916
 20
363.357569
 30
0.0
 10
98.166673
 20
363.043472
 30
0.0
  0
SPLINE
  5
2f3
100
AcDbEntity
  8
0
 62
7
100
AcDbSpline
 70
8
 71
3
 72
8
 73
4
 74
0
 40
0
 40
0
 40
0
 40
0
 40
1
 40
1
 40
1
 40
1
 10
98.166673
 20
363.043472
 30
0.0
 10
98.347112
 20
362.722698
 30
0.0
 10
98.437332
 20
362.365167
 30
0.0
 10
98.437332
 20
361.970879
 30
0.0
  0
SPLINE
  5
2f4
100
AcDbEntity
  8
0
 62
7
100
AcDbSpline
 70
8
 71
3
 72
8
 73
4
 74
0
 40
0
 40
0
 40
0
 40
0
 40
1
 40
1
 40
1
 40
1
 10
98.437332
 20
361.970879
 30
0.0
 10
98.437332
 20
361.576591
 30
0.0
 10
98.347112
 20
361.222400
 30
0.0
 10
98.166673
 20
360.908305
 30
0.0
  0
SPLINE
  5
2f5
100
AcDbEntity
  8
0
 62
7
100
AcDbSpline
 70
8
 71
3
 72
8
 73
4
 74
0
 40
0
 40
0
 40
0
 40
0
 40
1
 40
1
 40
1
 40
1
 10
98.166673
 20
360.908305
 30
0.0
 10
97.992916
 20
360.587527
 30
0.0
 10
97.752332
 20
360.336919
 30
0.0
 10
97.444922
 20
360.156483
 30
0.0
  0
SPLINE
  5
2f6
100
AcDbEntity
  8
0
 62
7
100
AcDbSpline
 70
8
 71
3
 72
8
 73
4
 74
0
 40
0
 40
0
 40
0
 40
0
 40
1
 40
1
 40
1
 40
1
 10
97.444922
 20
360.156483
 30
0.0
 10
97.137514
 20
359.969363
 30
0.0
 10
96.793348
 20
359.875802
 30
0.0
 10
96.412426
 20
359.875802
 30
0.0
  0
SPLINE
  5
2f7
100
AcDbEntity
  8
0
 62
7
100
AcDbSpline
 70
8
 71
3
 72
8
 73
4
 74
0
 40
0
 40
0
 40
0
 40
0
 40
1
 40
1
 40
1
 40
1
 10
96.412426
 20
359.875802
 30
0.0
 10
96.031504
 20
359.875802
 30
0.0
 10
95.683995
 20
359.969363
 30
0.0
 10
95.369901
 20
360.156483
 30
0.0
  0
SPLINE
  5
2f8
100
AcDbEntity
  8
0
 62
7
100
AcDbSpline
 70
8
 71
3
 72
8
 73
4
 74
0
 40
0
 40
0
 40
0
 40
0
 40
1
 40
1
 40
1
 40
1
 10
95.369901
 20
360.156483
 30
0.0
 10
95.062490
 20
360.336919
 30
0.0
 10
94.818567
 20
360.587527
 30
0.0
 10
94.638130
 20
360.908305
 30
0.0
  0
SPLINE
  5
2f9
100
AcDbEntity
  8
0
 62
7
100
AcDbSpline
 70
8
 71
3
 72
8
 73
4
 74
0
 40
0
 40
0
 40
0
 40
0
 40
1
 40
1
 40
1
 40
1
 10
94.638130
 20
360.908305
 30
0.0
 10
94.464378
 20
361.222400
 30
0.0
 10
94.377501
 20
361.576591
 30
0.0
 10
94.377501
 20
361.970879
 30
0.0
  0
SPLINE
  5
2fa
100
AcDbEntity
  8
0
 62
7
100
AcDbSpline
 70
8
 71
3
 72
8
 73
4
 74
0
 40
0
 40
0
 40
0
 40
0
 40
1
 40
1
 40
1
 40
1
 10
94.377501
 20
361.970879
 30
0.0
 10
94.377501
 20
362.365167
 30
0.0
 10
94.464378
 20
362.722698
 30
0.0
 10
94.638130
 20
363.043472
 30
0.0
  0
SPLINE
  5
2fb
100
AcDbEntity
  8
0
 62
7
100
AcDbSpline
 70
8
 71
3
 72
8
 73
4
 74
0
 40
0
 40
0
 40
0
 40
0
 40
1
 40
1
 40
1
 40
1
 10
94.638130
 20
363.043472
 30
0.0
 10
94.818567
 20
363.357569
 30
0.0
 10
95.062490
 20
363.604835
 30
0.0
 10
95.369901
 20
363.785272
 30
0.0
  0
SPLINE
  5
2fc
100
AcDbEntity
  8
0
 62
7
100
AcDbSpline
 70
8
 71
3
 72
8
 73
4
 74
0
 40
0
 40
0
 40
0
 40
0
 40
1
 40
1
 40
1
 40
1
 10
95.369901
 20
363.785272
 30
0.0
 10
95.683995
 20
363.965708
 30
0.0
 10
96.031504
 20
364.055926
 30
0.0
 10
96.412426
 20
364.055926
 30
0.0
  0
LINE
  5
2fd
100
AcDbEntity
  8
0
 62
7
100
AcDbLine
 10
96.412426
 20
364.055926
 30
0.0
 11
96.412426
 21
364.055926
 31
0.0
  0
SPLINE
  5
2fe
100
AcDbEntity
  8
0
 62
7
100
AcDbSpline
 70
8
 71
3
 72
8
 73
4
 74
0
 40
0
 40
0
 40
0
 40
0
 40
1
 40
1
 40
1
 40
1
 10
92.736453
 20
364.707503
 30
0.0
 10
92.328800
 20
364.707503
 30
0.0
 10
91.994658
 20
364.547114
 30
0.0
 10
91.734028
 20
364.226336
 30
0.0
  0
SPLINE
  5
2ff
100
AcDbEntity
  8
0
 62
7
100
AcDbSpline
 70
8
 71
3
 72
8
 73
4
 74
0
 40
0
 40
0
 40
0
 40
0
 40
1
 40
1
 40
1
 40
1
 10
91.734028
 20
364.226336
 30
0.0
 10
91.480082
 20
363.898878
 30
0.0
 10
91.353109
 20
363.481201
 30
0.0
 10
91.353109
 20
362.973304
 30
0.0
  0
LINE
  5
300
100
AcDbEntity
  8
0
 62
7
100
AcDbLine
 10
91.353109
 20
362.973304
 30
0.0
 11
91.353109
 21
357.259472
 31
0.0
  0
SPLINE
  5
301
100
AcDbEntity
  8
0
 62
7
100
AcDbSpline
 70
8
 71
3
 72
8
 73
4
 74
0
 40
0
 40
0
 40
0
 40
0
 40
1
 40
1
 40
1
 40
1
 10
91.353109
 20
357.259472
 30
0.0
 10
91.353109
 20
357.145861
 30
0.0
 10
91.389864
 20
357.055643
 30
0.0
 10
91.463374
 20
356.988817
 30
0.0
  0
SPLINE
  5
302
100
AcDbEntity
  8
0
 62
7
100
AcDbSpline
 70
8
 71
3
 72
8
 73
4
 74
0
 40
0
 40
0
 40
0
 40
0
 40
1
 40
1
 40
1
 40
1
 10
91.463374
 20
356.988817
 30
0.0
 10
91.536881
 20
356.915306
 30
0.0
 10
91.627099
 20
356.878550
 30
0.0
 10
91.734028
 20
356.878550
 30
0.0
  0
SPLINE
  5
303
100
AcDbEntity
  8
0
 62
7
100
AcDbSpline
 70
8
 71
3
 72
8
 73
4
 74
0
 40
0
 40
0
 40
0
 40
0
 40
1
 40
1
 40
1
 40
1
 10
91.734028
 20
356.878550
 30
0.0
 10
91.847634
 20
356.878550
 30
0.0
 10
91.937854
 20
356.915306
 30
0.0
 10
92.004686
 20
356.988817
 30
0.0
  0
SPLINE
  5
304
100
AcDbEntity
  8
0
 62
7
100
AcDbSpline
 70
8
 71
3
 72
8
 73
4
 74
0
 40
0
 40
0
 40
0
 40
0
 40
1
 40
1
 40
1
 40
1
 10
92.004686
 20
356.988817
 30
0.0
 10
92.078194
 20
357.055643
 30
0.0
 10
92.114947
 20
357.145861
 30
0.0
 10
92.114947
 20
357.259472
 30
0.0
  0
LINE
  5
305
100
AcDbEntity
  8
0
 62
7
100
AcDbLine
 10
92.114947
 20
357.259472
 30
0.0
 11
92.114947
 21
362.973304
 31
0.0
  0
SPLINE
  5
306
100
AcDbEntity
  8
0
 62
7
100
AcDbSpline
 70
8
 71
3
 72
8
 73
4
 74
0
 40
0
 40
0
 40
0
 40
0
 40
1
 40
1
 40
1
 40
1
 10
92.114947
 20
362.973304
 30
0.0
 10
92.114947
 20
363.260665
 30
0.0
 10
92.171751
 20
363.494564
 30
0.0
 10
92.285360
 20
363.675000
 30
0.0
  0
SPLINE
  5
307
100
AcDbEntity
  8
0
 62
7
100
AcDbSpline
 70
8
 71
3
 72
8
 73
4
 74
0
 40
0
 40
0
 40
0
 40
0
 40
1
 40
1
 40
1
 40
1
 10
92.285360
 20
363.675000
 30
0.0
 10
92.405652
 20
363.855439
 30
0.0
 10
92.556017
 20
363.945659
 30
0.0
 10
92.736453
 20
363.945659
 30
0.0
  0
LINE
  5
308
100
AcDbEntity
  8
0
 62
7
100
AcDbLine
 10
92.736453
 20
363.945659
 30
0.0
 11
92.987063
 21
363.945659
 31
0.0
  0
SPLINE
  5
309
100
AcDbEntity
  8
0
 62
7
100
AcDbSpline
 70
8
 71
3
 72
8
 73
4
 74
0
 40
0
 40
0
 40
0
 40
0
 40
1
 40
1
 40
1
 40
1
 10
92.987063
 20
363.945659
 30
0.0
 10
93.087304
 20
363.945659
 30
0.0
 10
93.167497
 20
363.982414
 30
0.0
 10
93.227643
 20
364.055926
 30
0.0
  0
SPLINE
  5
30a
100
AcDbEntity
  8
0
 62
7
100
AcDbSpline
 70
8
 71
3
 72
8
 73
4
 74
0
 40
0
 40
0
 40
0
 40
0
 40
1
 40
1
 40
1
 40
1
 10
93.227643
 20
364.055926
 30
0.0
 10
93.287790
 20
364.122754
 30
0.0
 10
93.317863
 20
364.212972
 30
0.0
 10
93.317863
 20
364.326581
 30
0.0
  0
SPLINE
  5
30b
100
AcDbEntity
  8
0
 62
7
100
AcDbSpline
 70
8
 71
3
 72
8
 73
4
 74
0
 40
0
 40
0
 40
0
 40
0
 40
1
 40
1
 40
1
 40
1
 10
93.317863
 20
364.326581
 30
0.0
 10
93.317863
 20
364.440189
 30
0.0
 10
93.274425
 20
364.533748
 30
0.0
 10
93.187550
 20
364.607258
 30
0.0
  0
SPLINE
  5
30c
100
AcDbEntity
  8
0
 62
7
100
AcDbSpline
 70
8
 71
3
 72
8
 73
4
 74
0
 40
0
 40
0
 40
0
 40
0
 40
1
 40
1
 40
1
 40
1
 10
93.187550
 20
364.607258
 30
0.0
 10
93.107352
 20
364.674088
 30
0.0
 10
93.000426
 20
364.707503
 30
0.0
 10
92.866773
 20
364.707503
 30
0.0
  0
LINE
  5
30d
100
AcDbEntity
  8
0
 62
7
100
AcDbLine
 10
92.866773
 20
364.707503
 30
0.0
 11
92.736453
 21
364.707503
 31
0.0
  0
SPLINE
  5
30e
100
AcDbEntity
  8
0
 62
7
100
AcDbSpline
 70
8
 71
3
 72
8
 73
4
 74
0
 40
0
 40
0
 40
0
 40
0
 40
1
 40
1
 40
1
 40
1
 10
87.497442
 20
362.351801
 30
0.0
 10
87.390515
 20
362.351801
 30
0.0
 10
87.300296
 20
362.315046
 30
0.0
 10
87.226784
 20
362.241534
 30
0.0
  0
SPLINE
  5
30f
100
AcDbEntity
  8
0
 62
7
100
AcDbSpline
 70
8
 71
3
 72
8
 73
4
 74
0
 40
0
 40
0
 40
0
 40
0
 40
1
 40
1
 40
1
 40
1
 10
87.226784
 20
362.241534
 30
0.0
 10
87.153272
 20
362.168022
 30
0.0
 10
87.116516
 20
362.077804
 30
0.0
 10
87.116516
 20
361.970879
 30
0.0
  0
SPLINE
  5
310
100
AcDbEntity
  8
0
 62
7
100
AcDbSpline
 70
8
 71
3
 72
8
 73
4
 74
0
 40
0
 40
0
 40
0
 40
0
 40
1
 40
1
 40
1
 40
1
 10
87.116516
 20
361.970879
 30
0.0
 10
87.116516
 20
361.857271
 30
0.0
 10
87.149929
 20
361.763709
 30
0.0
 10
87.216755
 20
361.690195
 30
0.0
  0
SPLINE
  5
311
100
AcDbEntity
  8
0
 62
7
100
AcDbSpline
 70
8
 71
3
 72
8
 73
4
 74
0
 40
0
 40
0
 40
0
 40
0
 40
1
 40
1
 40
1
 40
1
 10
87.216755
 20
361.690195
 30
0.0
 10
87.290271
 20
361.616686
 30
0.0
 10
87.383834
 20
361.579931
 30
0.0
 10
87.497442
 20
361.579931
 30
0.0
  0
LINE
  5
312
100
AcDbEntity
  8
0
 62
7
100
AcDbLine
 10
87.497442
 20
361.579931
 30
0.0
 11
89.853141
 21
361.579931
 31
0.0
  0
SPLINE
  5
313
100
AcDbEntity
  8
0
 62
7
100
AcDbSpline
 70
8
 71
3
 72
8
 73
4
 74
0
 40
0
 40
0
 40
0
 40
0
 40
1
 40
1
 40
1
 40
1
 10
89.853141
 20
361.579931
 30
0.0
 10
89.966749
 20
361.579931
 30
0.0
 10
90.060312
 20
361.616686
 30
0.0
 10
90.133828
 20
361.690195
 30
0.0
  0
SPLINE
  5
314
100
AcDbEntity
  8
0
 62
7
100
AcDbSpline
 70
8
 71
3
 72
8
 73
4
 74
0
 40
0
 40
0
 40
0
 40
0
 40
1
 40
1
 40
1
 40
1
 10
90.133828
 20
361.690195
 30
0.0
 10
90.207338
 20
361.763709
 30
0.0
 10
90.244092
 20
361.857271
 30
0.0
 10
90.244092
 20
361.970879
 30
0.0
  0
SPLINE
  5
315
100
AcDbEntity
  8
0
 62
7
100
AcDbSpline
 70
8
 71
3
 72
8
 73
4
 74
0
 40
0
 40
0
 40
0
 40
0
 40
1
 40
1
 40
1
 40
1
 10
90.244092
 20
361.970879
 30
0.0
 10
90.244092
 20
362.077804
 30
0.0
 10
90.207338
 20
362.168022
 30
0.0
 10
90.133828
 20
362.241534
 30
0.0
  0
SPLINE
  5
316
100
AcDbEntity
  8
0
 62
7
100
AcDbSpline
 70
8
 71
3
 72
8
 73
4
 74
0
 40
0
 40
0
 40
0
 40
0
 40
1
 40
1
 40
1
 40
1
 10
90.133828
 20
362.241534
 30
0.0
 10
90.060312
 20
362.315046
 30
0.0
 10
89.966749
 20
362.351801
 30
0.0
 10
89.853141
 20
362.351801
 30
0.0
  0
LINE
  5
317
100
AcDbEntity
  8
0
 62
7
100
AcDbLine
 10
89.853141
 20
362.351801
 30
0.0
 11
87.497442
 21
362.351801
 31
0.0
  0
SPLINE
  5
318
100
AcDbEntity
  8
0
 62
7
100
AcDbSpline
 70
8
 71
3
 72
8
 73
4
 74
0
 40
0
 40
0
 40
0
 40
0
 40
1
 40
1
 40
1
 40
1
 10
84.389509
 20
359.164084
 30
0.0
 10
84.863988
 20
359.164084
 30
0.0
 10
85.288349
 20
359.264326
 30
0.0
 10
85.662592
 20
359.464809
 30
0.0
  0
SPLINE
  5
319
100
AcDbEntity
  8
0
 62
7
100
AcDbSpline
 70
8
 71
3
 72
8
 73
4
 74
0
 40
0
 40
0
 40
0
 40
0
 40
1
 40
1
 40
1
 40
1
 10
85.662592
 20
359.464809
 30
0.0
 10
86.043512
 20
359.665295
 30
0.0
 10
86.340898
 20
359.959340
 30
0.0
 10
86.554750
 20
360.346944
 30
0.0
  0
SPLINE
  5
31a
100
AcDbEntity
  8
0
 62
7
100
AcDbSpline
 70
8
 71
3
 72
8
 73
4
 74
0
 40
0
 40
0
 40
0
 40
0
 40
1
 40
1
 40
1
 40
1
 10
86.554750
 20
360.346944
 30
0.0
 10
86.768601
 20
360.727869
 30
0.0
 10
86.875527
 20
361.185644
 30
0.0
 10
86.875527
 20
361.720269
 30
0.0
  0
LINE
  5
31b
100
AcDbEntity
  8
0
 62
7
100
AcDbLine
 10
86.875527
 20
361.720269
 30
0.0
 11
86.875527
 21
364.326581
 31
0.0
  0
SPLINE
  5
31c
100
AcDbEntity
  8
0
 62
7
100
AcDbSpline
 70
8
 71
3
 72
8
 73
4
 74
0
 40
0
 40
0
 40
0
 40
0
 40
1
 40
1
 40
1
 40
1
 10
86.875527
 20
364.326581
 30
0.0
 10
86.875527
 20
364.433508
 30
0.0
 10
86.838771
 20
364.523727
 30
0.0
 10
86.765259
 20
364.597239
 30
0.0
  0
SPLINE
  5
31d
100
AcDbEntity
  8
0
 62
7
100
AcDbSpline
 70
8
 71
3
 72
8
 73
4
 74
0
 40
0
 40
0
 40
0
 40
0
 40
1
 40
1
 40
1
 40
1
 10
86.765259
 20
364.597239
 30
0.0
 10
86.691747
 20
364.670749
 30
0.0
 10
86.601529
 20
364.707503
 30
0.0
 10
86.494605
 20
364.707503
 30
0.0
  0
SPLINE
  5
31e
100
AcDbEntity
  8
0
 62
7
100
AcDbSpline
 70
8
 71
3
 72
8
 73
4
 74
0
 40
0
 40
0
 40
0
 40
0
 40
1
 40
1
 40
1
 40
1
 10
86.494605
 20
364.707503
 30
0.0
 10
86.380994
 20
364.707503
 30
0.0
 10
86.287433
 20
364.670749
 30
0.0
 10
86.213924
 20
364.597239
 30
0.0
  0
SPLINE
  5
31f
100
AcDbEntity
  8
0
 62
7
100
AcDbSpline
 70
8
 71
3
 72
8
 73
4
 74
0
 40
0
 40
0
 40
0
 40
0
 40
1
 40
1
 40
1
 40
1
 10
86.213924
 20
364.597239
 30
0.0
 10
86.140412
 20
364.523727
 30
0.0
 10
86.103656
 20
364.433508
 30
0.0
 10
86.103656
 20
364.326581
 30
0.0
  0
LINE
  5
320
100
AcDbEntity
  8
0
 62
7
100
AcDbLine
 10
86.103656
 20
364.326581
 30
0.0
 11
86.103656
 21
361.720269
 31
0.0
  0
SPLINE
  5
321
100
AcDbEntity
  8
0
 62
7
100
AcDbSpline
 70
8
 71
3
 72
8
 73
4
 74
0
 40
0
 40
0
 40
0
 40
0
 40
1
 40
1
 40
1
 40
1
 10
86.103656
 20
361.720269
 30
0.0
 10
86.103656
 20
361.125498
 30
0.0
 10
85.936584
 20
360.674407
 30
0.0
 10
85.602440
 20
360.366996
 30
0.0
  0
SPLINE
  5
322
100
AcDbEntity
  8
0
 62
7
100
AcDbSpline
 70
8
 71
3
 72
8
 73
4
 74
0
 40
0
 40
0
 40
0
 40
0
 40
1
 40
1
 40
1
 40
1
 10
85.602440
 20
360.366996
 30
0.0
 10
85.274985
 20
360.052899
 30
0.0
 10
84.843942
 20
359.895851
 30
0.0
 10
84.309312
 20
359.895851
 30
0.0
  0
SPLINE
  5
323
100
AcDbEntity
  8
0
 62
7
100
AcDbSpline
 70
8
 71
3
 72
8
 73
4
 74
0
 40
0
 40
0
 40
0
 40
0
 40
1
 40
1
 40
1
 40
1
 10
84.309312
 20
359.895851
 30
0.0
 10
83.981852
 20
359.895851
 30
0.0
 10
83.684465
 20
359.959339
 30
0.0
 10
83.417151
 20
360.086316
 30
0.0
  0
SPLINE
  5
324
100
AcDbEntity
  8
0
 62
7
100
AcDbSpline
 70
8
 71
3
 72
8
 73
4
 74
0
 40
0
 40
0
 40
0
 40
0
 40
1
 40
1
 40
1
 40
1
 10
83.417151
 20
360.086316
 30
0.0
 10
83.156521
 20
360.213287
 30
0.0
 10
82.949354
 20
360.390382
 30
0.0
 10
82.795648
 20
360.617599
 30
0.0
  0
SPLINE
  5
325
100
AcDbEntity
  8
0
 62
7
100
AcDbSpline
 70
8
 71
3
 72
8
 73
4
 74
0
 40
0
 40
0
 40
0
 40
0
 40
1
 40
1
 40
1
 40
1
 10
82.795648
 20
360.617599
 30
0.0
 10
82.641943
 20
360.838134
 30
0.0
 10
82.565091
 20
361.085401
 30
0.0
 10
82.565091
 20
361.359399
 30
0.0
  0
LINE
  5
326
100
AcDbEntity
  8
0
 62
7
100
AcDbLine
 10
82.565091
 20
361.359399
 30
0.0
 11
82.565091
 21
364.326581
 31
0.0
  0
SPLINE
  5
327
100
AcDbEntity
  8
0
 62
7
100
AcDbSpline
 70
8
 71
3
 72
8
 73
4
 74
0
 40
0
 40
0
 40
0
 40
0
 40
1
 40
1
 40
1
 40
1
 10
82.565091
 20
364.326581
 30
0.0
 10
82.565091
 20
364.440189
 30
0.0
 10
82.528335
 20
364.533748
 30
0.0
 10
82.454823
 20
364.607258
 30
0.0
  0
SPLINE
  5
328
100
AcDbEntity
  8
0
 62
7
100
AcDbSpline
 70
8
 71
3
 72
8
 73
4
 74
0
 40
0
 40
0
 40
0
 40
0
 40
1
 40
1
 40
1
 40
1
 10
82.454823
 20
364.607258
 30
0.0
 10
82.387995
 20
364.674088
 30
0.0
 10
82.297776
 20
364.707503
 30
0.0
 10
82.184165
 20
364.707503
 30
0.0
  0
SPLINE
  5
329
100
AcDbEntity
  8
0
 62
7
100
AcDbSpline
 70
8
 71
3
 72
8
 73
4
 74
0
 40
0
 40
0
 40
0
 40
0
 40
1
 40
1
 40
1
 40
1
 10
82.184165
 20
364.707503
 30
0.0
 10
82.070561
 20
364.707503
 30
0.0
 10
81.977002
 20
364.674088
 30
0.0
 10
81.903488
 20
364.607258
 30
0.0
  0
SPLINE
  5
32a
100
AcDbEntity
  8
0
 62
7
100
AcDbSpline
 70
8
 71
3
 72
8
 73
4
 74
0
 40
0
 40
0
 40
0
 40
0
 40
1
 40
1
 40
1
 40
1
 10
81.903488
 20
364.607258
 30
0.0
 10
81.829976
 20
364.533748
 30
0.0
 10
81.793220
 20
364.440189
 30
0.0
 10
81.793220
 20
364.326581
 30
0.0
  0
LINE
  5
32b
100
AcDbEntity
  8
0
 62
7
100
AcDbLine
 10
81.793220
 20
364.326581
 30
0.0
 11
81.793220
 21
357.269491
 31
0.0
  0
SPLINE
  5
32c
100
AcDbEntity
  8
0
 62
7
100
AcDbSpline
 70
8
 71
3
 72
8
 73
4
 74
0
 40
0
 40
0
 40
0
 40
0
 40
1
 40
1
 40
1
 40
1
 10
81.793220
 20
357.269491
 30
0.0
 10
81.793220
 20
357.155885
 30
0.0
 10
81.829976
 20
357.062327
 30
0.0
 10
81.903488
 20
356.988817
 30
0.0
  0
SPLINE
  5
32d
100
AcDbEntity
  8
0
 62
7
100
AcDbSpline
 70
8
 71
3
 72
8
 73
4
 74
0
 40
0
 40
0
 40
0
 40
0
 40
1
 40
1
 40
1
 40
1
 10
81.903488
 20
356.988817
 30
0.0
 10
81.977002
 20
356.915306
 30
0.0
 10
82.070561
 20
356.878550
 30
0.0
 10
82.184165
 20
356.878550
 30
0.0
  0
SPLINE
  5
32e
100
AcDbEntity
  8
0
 62
7
100
AcDbSpline
 70
8
 71
3
 72
8
 73
4
 74
0
 40
0
 40
0
 40
0
 40
0
 40
1
 40
1
 40
1
 40
1
 10
82.184165
 20
356.878550
 30
0.0
 10
82.297776
 20
356.878550
 30
0.0
 10
82.387995
 20
356.915306
 30
0.0
 10
82.454823
 20
356.988817
 30
0.0
  0
SPLINE
  5
32f
100
AcDbEntity
  8
0
 62
7
100
AcDbSpline
 70
8
 71
3
 72
8
 73
4
 74
0
 40
0
 40
0
 40
0
 40
0
 40
1
 40
1
 40
1
 40
1
 10
82.454823
 20
356.988817
 30
0.0
 10
82.528335
 20
357.062327
 30
0.0
 10
82.565091
 20
357.155885
 30
0.0
 10
82.565091
 20
357.269491
 30
0.0
  0
LINE
  5
330
100
AcDbEntity
  8
0
 62
7
100
AcDbLine
 10
82.565091
 20
357.269491
 30
0.0
 11
82.565091
 21
359.955999
 31
0.0
  0
SPLINE
  5
331
100
AcDbEntity
  8
0
 62
7
100
AcDbSpline
 70
8
 71
3
 72
8
 73
4
 74
0
 40
0
 40
0
 40
0
 40
0
 40
1
 40
1
 40
1
 40
1
 10
82.565091
 20
359.955999
 30
0.0
 10
82.785624
 20
359.708735
 30
0.0
 10
83.052937
 20
359.514932
 30
0.0
 10
83.367032
 20
359.374590
 30
0.0
  0
SPLINE
  5
332
100
AcDbEntity
  8
0
 62
7
100
AcDbSpline
 70
8
 71
3
 72
8
 73
4
 74
0
 40
0
 40
0
 40
0
 40
0
 40
1
 40
1
 40
1
 40
1
 10
83.367032
 20
359.374590
 30
0.0
 10
83.681127
 20
359.234253
 30
0.0
 10
84.021952
 20
359.164084
 30
0.0
 10
84.389509
 20
359.164084
 30
0.0
  0
LINE
  5
333
100
AcDbEntity
  8
0
 62
7
100
AcDbLine
 10
84.389509
 20
359.164084
 30
0.0
 11
84.389509
 21
359.164084
 31
0.0
  0
SPLINE
  5
334
100
AcDbEntity
  8
0
 62
7
100
AcDbSpline
 70
8
 71
3
 72
8
 73
4
 74
0
 40
0
 40
0
 40
0
 40
0
 40
1
 40
1
 40
1
 40
1
 10
78.780328
 20
364.757626
 30
0.0
 10
78.259066
 20
364.757626
 30
0.0
 10
77.791266
 20
364.637335
 30
0.0
 10
77.376929
 20
364.396752
 30
0.0
  0
SPLINE
  5
335
100
AcDbEntity
  8
0
 62
7
100
AcDbSpline
 70
8
 71
3
 72
8
 73
4
 74
0
 40
0
 40
0
 40
0
 40
0
 40
1
 40
1
 40
1
 40
1
 10
77.376929
 20
364.396752
 30
0.0
 10
76.962594
 20
364.149485
 30
0.0
 10
76.635136
 20
363.815344
 30
0.0
 10
76.394556
 20
363.394327
 30
0.0
  0
SPLINE
  5
336
100
AcDbEntity
  8
0
 62
7
100
AcDbSpline
 70
8
 71
3
 72
8
 73
4
 74
0
 40
0
 40
0
 40
0
 40
0
 40
1
 40
1
 40
1
 40
1
 10
76.394556
 20
363.394327
 30
0.0
 10
76.160652
 20
362.966621
 30
0.0
 10
76.043701
 20
362.492139
 30
0.0
 10
76.043701
 20
361.970879
 30
0.0
  0
SPLINE
  5
337
100
AcDbEntity
  8
0
 62
7
100
AcDbSpline
 70
8
 71
3
 72
8
 73
4
 74
0
 40
0
 40
0
 40
0
 40
0
 40
1
 40
1
 40
1
 40
1
 10
76.043701
 20
361.970879
 30
0.0
 10
76.043701
 20
361.436249
 30
0.0
 10
76.157310
 20
360.958425
 30
0.0
 10
76.384530
 20
360.537405
 30
0.0
  0
SPLINE
  5
338
100
AcDbEntity
  8
0
 62
7
100
AcDbSpline
 70
8
 71
3
 72
8
 73
4
 74
0
 40
0
 40
0
 40
0
 40
0
 40
1
 40
1
 40
1
 40
1
 10
76.384530
 20
360.537405
 30
0.0
 10
76.611745
 20
360.109702
 30
0.0
 10
76.925839
 20
359.775559
 30
0.0
 10
77.326813
 20
359.534977
 30
0.0
  0
SPLINE
  5
339
100
AcDbEntity
  8
0
 62
7
100
AcDbSpline
 70
8
 71
3
 72
8
 73
4
 74
0
 40
0
 40
0
 40
0
 40
0
 40
1
 40
1
 40
1
 40
1
 10
77.326813
 20
359.534977
 30
0.0
 10
77.727781
 20
359.294396
 30
0.0
 10
78.178872
 20
359.174106
 30
0.0
 10
78.680087
 20
359.174106
 30
0.0
  0
SPLINE
  5
33a
100
AcDbEntity
  8
0
 62
7
100
AcDbSpline
 70
8
 71
3
 72
8
 73
4
 74
0
 40
0
 40
0
 40
0
 40
0
 40
1
 40
1
 40
1
 40
1
 10
78.680087
 20
359.174106
 30
0.0
 10
79.515448
 20
359.174106
 30
0.0
 10
80.193758
 20
359.494882
 30
0.0
 10
80.715018
 20
360.136435
 30
0.0
  0
SPLINE
  5
33b
100
AcDbEntity
  8
0
 62
7
100
AcDbSpline
 70
8
 71
3
 72
8
 73
4
 74
0
 40
0
 40
0
 40
0
 40
0
 40
1
 40
1
 40
1
 40
1
 10
80.715018
 20
360.136435
 30
0.0
 10
80.768476
 20
360.196581
 30
0.0
 10
80.795204
 20
360.266751
 30
0.0
 10
80.795204
 20
360.346944
 30
0.0
  0
SPLINE
  5
33c
100
AcDbEntity
  8
0
 62
7
100
AcDbSpline
 70
8
 71
3
 72
8
 73
4
 74
0
 40
0
 40
0
 40
0
 40
0
 40
1
 40
1
 40
1
 40
1
 10
80.795204
 20
360.346944
 30
0.0
 10
80.795204
 20
360.453869
 30
0.0
 10
80.738403
 20
360.547429
 30
0.0
 10
80.624799
 20
360.627625
 30
0.0
  0
SPLINE
  5
33d
100
AcDbEntity
  8
0
 62
7
100
AcDbSpline
 70
8
 71
3
 72
8
 73
4
 74
0
 40
0
 40
0
 40
0
 40
0
 40
1
 40
1
 40
1
 40
1
 10
80.624799
 20
360.627625
 30
0.0
 10
80.564652
 20
360.667719
 30
0.0
 10
80.501165
 20
360.687766
 30
0.0
 10
80.434337
 20
360.687766
 30
0.0
  0
SPLINE
  5
33e
100
AcDbEntity
  8
0
 62
7
100
AcDbSpline
 70
8
 71
3
 72
8
 73
4
 74
0
 40
0
 40
0
 40
0
 40
0
 40
1
 40
1
 40
1
 40
1
 10
80.434337
 20
360.687766
 30
0.0
 10
80.334094
 20
360.687766
 30
0.0
 10
80.237191
 20
360.637646
 30
0.0
 10
80.143627
 20
360.537405
 30
0.0
  0
SPLINE
  5
33f
100
AcDbEntity
  8
0
 62
7
100
AcDbSpline
 70
8
 71
3
 72
8
 73
4
 74
0
 40
0
 40
0
 40
0
 40
0
 40
1
 40
1
 40
1
 40
1
 10
80.143627
 20
360.537405
 30
0.0
 10
79.943149
 20
360.316875
 30
0.0
 10
79.722617
 20
360.153146
 30
0.0
 10
79.482032
 20
360.046219
 30
0.0
  0
SPLINE
  5
340
100
AcDbEntity
  8
0
 62
7
100
AcDbSpline
 70
8
 71
3
 72
8
 73
4
 74
0
 40
0
 40
0
 40
0
 40
0
 40
1
 40
1
 40
1
 40
1
 10
79.482032
 20
360.046219
 30
0.0
 10
79.241449
 20
359.932608
 30
0.0
 10
78.974134
 20
359.875802
 30
0.0
 10
78.680087
 20
359.875802
 30
0.0
  0
SPLINE
  5
341
100
AcDbEntity
  8
0
 62
7
100
AcDbSpline
 70
8
 71
3
 72
8
 73
4
 74
0
 40
0
 40
0
 40
0
 40
0
 40
1
 40
1
 40
1
 40
1
 10
78.680087
 20
359.875802
 30
0.0
 10
78.312530
 20
359.875802
 30
0.0
 10
77.985070
 20
359.966022
 30
0.0
 10
77.697706
 20
360.146461
 30
0.0
  0
SPLINE
  5
342
100
AcDbEntity
  8
0
 62
7
100
AcDbSpline
 70
8
 71
3
 72
8
 73
4
 74
0
 40
0
 40
0
 40
0
 40
0
 40
1
 40
1
 40
1
 40
1
 10
77.697706
 20
360.146461
 30
0.0
 10
77.410345
 20
360.320215
 30
0.0
 10
77.186471
 20
360.567480
 30
0.0
 10
77.026084
 20
360.888254
 30
0.0
  0
SPLINE
  5
343
100
AcDbEntity
  8
0
 62
7
100
AcDbSpline
 70
8
 71
3
 72
8
 73
4
 74
0
 40
0
 40
0
 40
0
 40
0
 40
1
 40
1
 40
1
 40
1
 10
77.026084
 20
360.888254
 30
0.0
 10
76.872377
 20
361.209030
 30
0.0
 10
76.795523
 20
361.569905
 30
0.0
 10
76.795523
 20
361.970879
 30
0.0
  0
SPLINE
  5
344
100
AcDbEntity
  8
0
 62
7
100
AcDbSpline
 70
8
 71
3
 72
8
 73
4
 74
0
 40
0
 40
0
 40
0
 40
0
 40
1
 40
1
 40
1
 40
1
 10
76.795523
 20
361.970879
 30
0.0
 10
76.795523
 20
362.365167
 30
0.0
 10
76.879058
 20
362.722698
 30
0.0
 10
77.046129
 20
363.043472
 30
0.0
  0
SPLINE
  5
345
100
AcDbEntity
  8
0
 62
7
100
AcDbSpline
 70
8
 71
3
 72
8
 73
4
 74
0
 40
0
 40
0
 40
0
 40
0
 40
1
 40
1
 40
1
 40
1
 10
77.046129
 20
363.043472
 30
0.0
 10
77.213205
 20
363.357569
 30
0.0
 10
77.447107
 20
363.604835
 30
0.0
 10
77.747836
 20
363.785272
 30
0.0
  0
SPLINE
  5
346
100
AcDbEntity
  8
0
 62
7
100
AcDbSpline
 70
8
 71
3
 72
8
 73
4
 74
0
 40
0
 40
0
 40
0
 40
0
 40
1
 40
1
 40
1
 40
1
 10
77.747836
 20
363.785272
 30
0.0
 10
78.048560
 20
363.965708
 30
0.0
 10
78.392724
 20
364.055926
 30
0.0
 10
78.780328
 20
364.055926
 30
0.0
  0
SPLINE
  5
347
100
AcDbEntity
  8
0
 62
7
100
AcDbSpline
 70
8
 71
3
 72
8
 73
4
 74
0
 40
0
 40
0
 40
0
 40
0
 40
1
 40
1
 40
1
 40
1
 10
78.780328
 20
364.055926
 30
0.0
 10
79.314958
 20
364.055926
 30
0.0
 10
79.746003
 20
363.912246
 30
0.0
 10
80.073463
 20
363.624885
 30
0.0
  0
SPLINE
  5
348
100
AcDbEntity
  8
0
 62
7
100
AcDbSpline
 70
8
 71
3
 72
8
 73
4
 74
0
 40
0
 40
0
 40
0
 40
0
 40
1
 40
1
 40
1
 40
1
 10
80.073463
 20
363.624885
 30
0.0
 10
80.160336
 20
363.551373
 30
0.0
 10
80.250556
 20
363.514617
 30
0.0
 10
80.344122
 20
363.514617
 30
0.0
  0
SPLINE
  5
349
100
AcDbEntity
  8
0
 62
7
100
AcDbSpline
 70
8
 71
3
 72
8
 73
4
 74
0
 40
0
 40
0
 40
0
 40
0
 40
1
 40
1
 40
1
 40
1
 10
80.344122
 20
363.514617
 30
0.0
 10
80.424313
 20
363.514617
 30
0.0
 10
80.497821
 20
363.541348
 30
0.0
 10
80.564647
 20
363.594810
 30
0.0
  0
SPLINE
  5
34a
100
AcDbEntity
  8
0
 62
7
100
AcDbSpline
 70
8
 71
3
 72
8
 73
4
 74
0
 40
0
 40
0
 40
0
 40
0
 40
1
 40
1
 40
1
 40
1
 10
80.564647
 20
363.594810
 30
0.0
 10
80.658208
 20
363.675006
 30
0.0
 10
80.704989
 20
363.765224
 30
0.0
 10
80.704989
 20
363.865465
 30
0.0
  0
SPLINE
  5
34b
100
AcDbEntity
  8
0
 62
7
100
AcDbSpline
 70
8
 71
3
 72
8
 73
4
 74
0
 40
0
 40
0
 40
0
 40
0
 40
1
 40
1
 40
1
 40
1
 10
80.704989
 20
363.865465
 30
0.0
 10
80.704989
 20
363.952340
 30
0.0
 10
80.671576
 20
364.025851
 30
0.0
 10
80.604750
 20
364.085997
 30
0.0
  0
SPLINE
  5
34c
100
AcDbEntity
  8
0
 62
7
100
AcDbSpline
 70
8
 71
3
 72
8
 73
4
 74
0
 40
0
 40
0
 40
0
 40
0
 40
1
 40
1
 40
1
 40
1
 10
80.604750
 20
364.085997
 30
0.0
 10
80.123583
 20
364.533750
 30
0.0
 10
79.515442
 20
364.757626
 30
0.0
 10
78.780328
 20
364.757626
 30
0.0
  0
LINE
  5
34d
100
AcDbEntity
  8
0
 62
7
100
AcDbLine
 10
78.780328
 20
364.757626
 30
0.0
 11
78.780328
 21
364.757626
 31
0.0
  0
SPLINE
  5
34e
100
AcDbEntity
  8
0
 62
7
100
AcDbSpline
 70
8
 71
3
 72
8
 73
4
 74
0
 40
0
 40
0
 40
0
 40
0
 40
1
 40
1
 40
1
 40
1
 10
72.391449
 20
359.174106
 30
0.0
 10
72.885982
 20
359.174106
 30
0.0
 10
73.323710
 20
359.291057
 30
0.0
 10
73.704632
 20
359.524958
 30
0.0
  0
SPLINE
  5
34f
100
AcDbEntity
  8
0
 62
7
100
AcDbSpline
 70
8
 71
3
 72
8
 73
4
 74
0
 40
0
 40
0
 40
0
 40
0
 40
1
 40
1
 40
1
 40
1
 10
73.704632
 20
359.524958
 30
0.0
 10
74.085552
 20
359.752173
 30
0.0
 10
74.379597
 20
360.069607
 30
0.0
 10
74.586767
 20
360.477260
 30
0.0
  0
SPLINE
  5
350
100
AcDbEntity
  8
0
 62
7
100
AcDbSpline
 70
8
 71
3
 72
8
 73
4
 74
0
 40
0
 40
0
 40
0
 40
0
 40
1
 40
1
 40
1
 40
1
 10
74.586767
 20
360.477260
 30
0.0
 10
74.800619
 20
360.884916
 30
0.0
 10
74.907545
 20
361.349374
 30
0.0
 10
74.907545
 20
361.870634
 30
0.0
  0
SPLINE
  5
351
100
AcDbEntity
  8
0
 62
7
100
AcDbSpline
 70
8
 71
3
 72
8
 73
4
 74
0
 40
0
 40
0
 40
0
 40
0
 40
1
 40
1
 40
1
 40
1
 10
74.907545
 20
361.870634
 30
0.0
 10
74.907545
 20
361.977561
 30
0.0
 10
74.874131
 20
362.064438
 30
0.0
 10
74.807303
 20
362.131266
 30
0.0
  0
SPLINE
  5
352
100
AcDbEntity
  8
0
 62
7
100
AcDbSpline
 70
8
 71
3
 72
8
 73
4
 74
0
 40
0
 40
0
 40
0
 40
0
 40
1
 40
1
 40
1
 40
1
 10
74.807303
 20
362.131266
 30
0.0
 10
74.740475
 20
362.191412
 30
0.0
 10
74.653597
 20
362.221485
 30
0.0
 10
74.546670
 20
362.221485
 30
0.0
  0
LINE
  5
353
100
AcDbEntity
  8
0
 62
7
100
AcDbLine
 10
74.546670
 20
362.221485
 30
0.0
 11
70.496863
 21
362.221485
 31
0.0
  0
SPLINE
  5
354
100
AcDbEntity
  8
0
 62
7
100
AcDbSpline
 70
8
 71
3
 72
8
 73
4
 74
0
 40
0
 40
0
 40
0
 40
0
 40
1
 40
1
 40
1
 40
1
 10
70.496863
 20
362.221485
 30
0.0
 10
70.550330
 20
362.769476
 30
0.0
 10
70.764183
 20
363.213886
 30
0.0
 10
71.138421
 20
363.554714
 30
0.0
  0
SPLINE
  5
355
100
AcDbEntity
  8
0
 62
7
100
AcDbSpline
 70
8
 71
3
 72
8
 73
4
 74
0
 40
0
 40
0
 40
0
 40
0
 40
1
 40
1
 40
1
 40
1
 10
71.138421
 20
363.554714
 30
0.0
 10
71.512659
 20
363.895537
 30
0.0
 10
71.980458
 20
364.065949
 30
0.0
 10
72.541817
 20
364.065949
 30
0.0
  0
SPLINE
  5
356
100
AcDbEntity
  8
0
 62
7
100
AcDbSpline
 70
8
 71
3
 72
8
 73
4
 74
0
 40
0
 40
0
 40
0
 40
0
 40
1
 40
1
 40
1
 40
1
 10
72.541817
 20
364.065949
 30
0.0
 10
72.782399
 20
364.065949
 30
0.0
 10
73.022982
 20
364.025852
 30
0.0
 10
73.263565
 20
363.945659
 30
0.0
  0
SPLINE
  5
357
100
AcDbEntity
  8
0
 62
7
100
AcDbSpline
 70
8
 71
3
 72
8
 73
4
 74
0
 40
0
 40
0
 40
0
 40
0
 40
1
 40
1
 40
1
 40
1
 10
73.263565
 20
363.945659
 30
0.0
 10
73.510831
 20
363.858781
 30
0.0
 10
73.707975
 20
363.751857
 30
0.0
 10
73.854997
 20
363.624885
 30
0.0
  0
SPLINE
  5
358
100
AcDbEntity
  8
0
 62
7
100
AcDbSpline
 70
8
 71
3
 72
8
 73
4
 74
0
 40
0
 40
0
 40
0
 40
0
 40
1
 40
1
 40
1
 40
1
 10
73.854997
 20
363.624885
 30
0.0
 10
73.941872
 20
363.558055
 30
0.0
 10
74.032090
 20
363.524639
 30
0.0
 10
74.125651
 20
363.524639
 30
0.0
  0
SPLINE
  5
359
100
AcDbEntity
  8
0
 62
7
100
AcDbSpline
 70
8
 71
3
 72
8
 73
4
 74
0
 40
0
 40
0
 40
0
 40
0
 40
1
 40
1
 40
1
 40
1
 10
74.125651
 20
363.524639
 30
0.0
 10
74.199163
 20
363.524639
 30
0.0
 10
74.272675
 20
363.551369
 30
0.0
 10
74.346187
 20
363.604829
 30
0.0
  0
SPLINE
  5
35a
100
AcDbEntity
  8
0
 62
7
100
AcDbSpline
 70
8
 71
3
 72
8
 73
4
 74
0
 40
0
 40
0
 40
0
 40
0
 40
1
 40
1
 40
1
 40
1
 10
74.346187
 20
363.604829
 30
0.0
 10
74.433064
 20
363.685025
 30
0.0
 10
74.476503
 20
363.775243
 30
0.0
 10
74.476503
 20
363.875484
 30
0.0
  0
SPLINE
  5
35b
100
AcDbEntity
  8
0
 62
7
100
AcDbSpline
 70
8
 71
3
 72
8
 73
4
 74
0
 40
0
 40
0
 40
0
 40
0
 40
1
 40
1
 40
1
 40
1
 10
74.476503
 20
363.875484
 30
0.0
 10
74.476503
 20
363.962364
 30
0.0
 10
74.439746
 20
364.039218
 30
0.0
 10
74.366232
 20
364.106045
 30
0.0
  0
SPLINE
  5
35c
100
AcDbEntity
  8
0
 62
7
100
AcDbSpline
 70
8
 71
3
 72
8
 73
4
 74
0
 40
0
 40
0
 40
0
 40
0
 40
1
 40
1
 40
1
 40
1
 10
74.366232
 20
364.106045
 30
0.0
 10
74.145699
 20
364.293166
 30
0.0
 10
73.865019
 20
364.450213
 30
0.0
 10
73.524194
 20
364.577187
 30
0.0
  0
SPLINE
  5
35d
100
AcDbEntity
  8
0
 62
7
100
AcDbSpline
 70
8
 71
3
 72
8
 73
4
 74
0
 40
0
 40
0
 40
0
 40
0
 40
1
 40
1
 40
1
 40
1
 10
73.524194
 20
364.577187
 30
0.0
 10
73.183370
 20
364.697480
 30
0.0
 10
72.855911
 20
364.757626
 30
0.0
 10
72.541817
 20
364.757626
 30
0.0
  0
SPLINE
  5
35e
100
AcDbEntity
  8
0
 62
7
100
AcDbSpline
 70
8
 71
3
 72
8
 73
4
 74
0
 40
0
 40
0
 40
0
 40
0
 40
1
 40
1
 40
1
 40
1
 10
72.541817
 20
364.757626
 30
0.0
 10
72.007187
 20
364.757626
 30
0.0
 10
71.529363
 20
364.640675
 30
0.0
 10
71.108347
 20
364.406774
 30
0.0
  0
SPLINE
  5
35f
100
AcDbEntity
  8
0
 62
7
100
AcDbSpline
 70
8
 71
3
 72
8
 73
4
 74
0
 40
0
 40
0
 40
0
 40
0
 40
1
 40
1
 40
1
 40
1
 10
71.108347
 20
364.406774
 30
0.0
 10
70.687328
 20
364.166192
 30
0.0
 10
70.356525
 20
363.835391
 30
0.0
 10
70.115940
 20
363.414372
 30
0.0
  0
SPLINE
  5
360
100
AcDbEntity
  8
0
 62
7
100
AcDbSpline
 70
8
 71
3
 72
8
 73
4
 74
0
 40
0
 40
0
 40
0
 40
0
 40
1
 40
1
 40
1
 40
1
 10
70.115940
 20
363.414372
 30
0.0
 10
69.882042
 20
362.986671
 30
0.0
 10
69.765092
 20
362.505507
 30
0.0
 10
69.765092
 20
361.970879
 30
0.0
  0
SPLINE
  5
361
100
AcDbEntity
  8
0
 62
7
100
AcDbSpline
 70
8
 71
3
 72
8
 73
4
 74
0
 40
0
 40
0
 40
0
 40
0
 40
1
 40
1
 40
1
 40
1
 10
69.765092
 20
361.970879
 30
0.0
 10
69.765092
 20
361.429565
 30
0.0
 10
69.875360
 20
360.948400
 30
0.0
 10
70.095896
 20
360.527383
 30
0.0
  0
SPLINE
  5
362
100
AcDbEntity
  8
0
 62
7
100
AcDbSpline
 70
8
 71
3
 72
8
 73
4
 74
0
 40
0
 40
0
 40
0
 40
0
 40
1
 40
1
 40
1
 40
1
 10
70.095896
 20
360.527383
 30
0.0
 10
70.323110
 20
360.099682
 30
0.0
 10
70.633862
 20
359.768880
 30
0.0
 10
71.028150
 20
359.534977
 30
0.0
  0
SPLINE
  5
363
100
AcDbEntity
  8
0
 62
7
100
AcDbSpline
 70
8
 71
3
 72
8
 73
4
 74
0
 40
0
 40
0
 40
0
 40
0
 40
1
 40
1
 40
1
 40
1
 10
71.028150
 20
359.534977
 30
0.0
 10
71.429122
 20
359.294396
 30
0.0
 10
71.883555
 20
359.174106
 30
0.0
 10
72.391449
 20
359.174106
 30
0.0
  0
LINE
  5
364
100
AcDbEntity
  8
0
 62
7
100
AcDbLine
 10
72.391449
 20
359.174106
 30
0.0
 11
72.391449
 21
359.174106
 31
0.0
  0
SPLINE
  5
365
100
AcDbEntity
  8
0
 62
7
100
AcDbSpline
 70
8
 71
3
 72
8
 73
4
 74
0
 40
0
 40
0
 40
0
 40
0
 40
1
 40
1
 40
1
 40
1
 10
72.391449
 20
359.865780
 30
0.0
 10
71.883555
 20
359.865780
 30
0.0
 10
71.462537
 20
360.022827
 30
0.0
 10
71.128395
 20
360.336922
 30
0.0
  0
SPLINE
  5
366
100
AcDbEntity
  8
0
 62
7
100
AcDbSpline
 70
8
 71
3
 72
8
 73
4
 74
0
 40
0
 40
0
 40
0
 40
0
 40
1
 40
1
 40
1
 40
1
 10
71.128395
 20
360.336922
 30
0.0
 10
70.794251
 20
360.651014
 30
0.0
 10
70.590424
 20
361.065350
 30
0.0
 10
70.516915
 20
361.579931
 30
0.0
  0
LINE
  5
367
100
AcDbEntity
  8
0
 62
7
100
AcDbLine
 10
70.516915
 20
361.579931
 30
0.0
 11
74.185796
 21
361.579931
 31
0.0
  0
SPLINE
  5
368
100
AcDbEntity
  8
0
 62
7
100
AcDbSpline
 70
8
 71
3
 72
8
 73
4
 74
0
 40
0
 40
0
 40
0
 40
0
 40
1
 40
1
 40
1
 40
1
 10
74.185796
 20
361.579931
 30
0.0
 10
74.132334
 20
361.065350
 30
0.0
 10
73.945214
 20
360.651014
 30
0.0
 10
73.624435
 20
360.336922
 30
0.0
  0
SPLINE
  5
369
100
AcDbEntity
  8
0
 62
7
100
AcDbSpline
 70
8
 71
3
 72
8
 73
4
 74
0
 40
0
 40
0
 40
0
 40
0
 40
1
 40
1
 40
1
 40
1
 10
73.624435
 20
360.336922
 30
0.0
 10
73.303662
 20
360.022827
 30
0.0
 10
72.892666
 20
359.865780
 30
0.0
 10
72.391449
 20
359.865780
 30
0.0
  0
LINE
  5
36a
100
AcDbEntity
  8
0
 62
7
100
AcDbLine
 10
72.391449
 20
359.865780
 30
0.0
 11
72.391449
 21
359.865780
 31
0.0
  0
SPLINE
  5
36b
100
AcDbEntity
  8
0
 62
7
100
AcDbSpline
 70
8
 71
3
 72
8
 73
4
 74
0
 40
0
 40
0
 40
0
 40
0
 40
1
 40
1
 40
1
 40
1
 10
68.845648
 20
363.935633
 30
0.0
 10
68.952575
 20
363.935633
 30
0.0
 10
69.039451
 20
363.972388
 30
0.0
 10
69.106276
 20
364.045900
 30
0.0
  0
SPLINE
  5
36c
100
AcDbEntity
  8
0
 62
7
100
AcDbSpline
 70
8
 71
3
 72
8
 73
4
 74
0
 40
0
 40
0
 40
0
 40
0
 40
1
 40
1
 40
1
 40
1
 10
69.106276
 20
364.045900
 30
0.0
 10
69.173107
 20
364.119412
 30
0.0
 10
69.206522
 20
364.212972
 30
0.0
 10
69.206522
 20
364.326581
 30
0.0
  0
SPLINE
  5
36d
100
AcDbEntity
  8
0
 62
7
100
AcDbSpline
 70
8
 71
3
 72
8
 73
4
 74
0
 40
0
 40
0
 40
0
 40
0
 40
1
 40
1
 40
1
 40
1
 10
69.206522
 20
364.326581
 30
0.0
 10
69.206522
 20
364.433508
 30
0.0
 10
69.166425
 20
364.523727
 30
0.0
 10
69.086231
 20
364.597239
 30
0.0
  0
SPLINE
  5
36e
100
AcDbEntity
  8
0
 62
7
100
AcDbSpline
 70
8
 71
3
 72
8
 73
4
 74
0
 40
0
 40
0
 40
0
 40
0
 40
1
 40
1
 40
1
 40
1
 10
69.086231
 20
364.597239
 30
0.0
 10
69.006036
 20
364.670749
 30
0.0
 10
68.905792
 20
364.707503
 30
0.0
 10
68.785499
 20
364.707503
 30
0.0
  0
LINE
  5
36f
100
AcDbEntity
  8
0
 62
7
100
AcDbLine
 10
68.785499
 20
364.707503
 30
0.0
 11
68.574993
 21
364.707503
 31
0.0
  0
SPLINE
  5
370
100
AcDbEntity
  8
0
 62
7
100
AcDbSpline
 70
8
 71
3
 72
8
 73
4
 74
0
 40
0
 40
0
 40
0
 40
0
 40
1
 40
1
 40
1
 40
1
 10
68.574993
 20
364.707503
 30
0.0
 10
68.220802
 20
364.707503
 30
0.0
 10
67.903368
 20
364.623968
 30
0.0
 10
67.622691
 20
364.456897
 30
0.0
  0
SPLINE
  5
371
100
AcDbEntity
  8
0
 62
7
100
AcDbSpline
 70
8
 71
3
 72
8
 73
4
 74
0
 40
0
 40
0
 40
0
 40
0
 40
1
 40
1
 40
1
 40
1
 10
67.622691
 20
364.456897
 30
0.0
 10
67.342009
 20
364.283140
 30
0.0
 10
67.121473
 20
364.052581
 30
0.0
 10
66.961084
 20
363.765220
 30
0.0
  0
SPLINE
  5
372
100
AcDbEntity
  8
0
 62
7
100
AcDbSpline
 70
8
 71
3
 72
8
 73
4
 74
0
 40
0
 40
0
 40
0
 40
0
 40
1
 40
1
 40
1
 40
1
 10
66.961084
 20
363.765220
 30
0.0
 10
66.807379
 20
363.471175
 30
0.0
 10
66.730526
 20
363.140375
 30
0.0
 10
66.730526
 20
362.772821
 30
0.0
  0
LINE
  5
373
100
AcDbEntity
  8
0
 62
7
100
AcDbLine
 10
66.730526
 20
362.772821
 30
0.0
 11
66.730526
 21
360.096334
 31
0.0
  0
LINE
  5
374
100
AcDbEntity
  8
0
 62
7
100
AcDbLine
 10
66.730526
 20
360.096334
 30
0.0
 11
66.078949
 21
360.096334
 31
0.0
  0
SPLINE
  5
375
100
AcDbEntity
  8
0
 62
7
100
AcDbSpline
 70
8
 71
3
 72
8
 73
4
 74
0
 40
0
 40
0
 40
0
 40
0
 40
1
 40
1
 40
1
 40
1
 10
66.078949
 20
360.096334
 30
0.0
 10
65.972025
 20
360.096334
 30
0.0
 10
65.885147
 20
360.066261
 30
0.0
 10
65.818317
 20
360.006115
 30
0.0
  0
SPLINE
  5
376
100
AcDbEntity
  8
0
 62
7
100
AcDbSpline
 70
8
 71
3
 72
8
 73
4
 74
0
 40
0
 40
0
 40
0
 40
0
 40
1
 40
1
 40
1
 40
1
 10
65.818317
 20
360.006115
 30
0.0
 10
65.758171
 20
359.939290
 30
0.0
 10
65.728098
 20
359.859097
 30
0.0
 10
65.728098
 20
359.765538
 30
0.0
  0
SPLINE
  5
377
100
AcDbEntity
  8
0
 62
7
100
AcDbSpline
 70
8
 71
3
 72
8
 73
4
 74
0
 40
0
 40
0
 40
0
 40
0
 40
1
 40
1
 40
1
 40
1
 10
65.728098
 20
359.765538
 30
0.0
 10
65.728098
 20
359.665295
 30
0.0
 10
65.758171
 20
359.585102
 30
0.0
 10
65.818317
 20
359.524958
 30
0.0
  0
SPLINE
  5
378
100
AcDbEntity
  8
0
 62
7
100
AcDbSpline
 70
8
 71
3
 72
8
 73
4
 74
0
 40
0
 40
0
 40
0
 40
0
 40
1
 40
1
 40
1
 40
1
 10
65.818317
 20
359.524958
 30
0.0
 10
65.885147
 20
359.458128
 30
0.0
 10
65.972025
 20
359.424713
 30
0.0
 10
66.078949
 20
359.424713
 30
0.0
  0
LINE
  5
379
100
AcDbEntity
  8
0
 62
7
100
AcDbLine
 10
66.078949
 20
359.424713
 30
0.0
 11
66.730526
 21
359.424713
 31
0.0
  0
LINE
  5
37a
100
AcDbEntity
  8
0
 62
7
100
AcDbLine
 10
66.730526
 20
359.424713
 30
0.0
 11
66.730526
 21
357.870952
 31
0.0
  0
SPLINE
  5
37b
100
AcDbEntity
  8
0
 62
7
100
AcDbSpline
 70
8
 71
3
 72
8
 73
4
 74
0
 40
0
 40
0
 40
0
 40
0
 40
1
 40
1
 40
1
 40
1
 10
66.730526
 20
357.870952
 30
0.0
 10
66.730526
 20
357.757344
 30
0.0
 10
66.763941
 20
357.663782
 30
0.0
 10
66.830771
 20
357.590268
 30
0.0
  0
SPLINE
  5
37c
100
AcDbEntity
  8
0
 62
7
100
AcDbSpline
 70
8
 71
3
 72
8
 73
4
 74
0
 40
0
 40
0
 40
0
 40
0
 40
1
 40
1
 40
1
 40
1
 10
66.830771
 20
357.590268
 30
0.0
 10
66.904283
 20
357.516759
 30
0.0
 10
66.997842
 20
357.480004
 30
0.0
 10
67.111449
 20
357.480004
 30
0.0
  0
SPLINE
  5
37d
100
AcDbEntity
  8
0
 62
7
100
AcDbSpline
 70
8
 71
3
 72
8
 73
4
 74
0
 40
0
 40
0
 40
0
 40
0
 40
1
 40
1
 40
1
 40
1
 10
67.111449
 20
357.480004
 30
0.0
 10
67.225057
 20
357.480004
 30
0.0
 10
67.318618
 20
357.516759
 30
0.0
 10
67.392133
 20
357.590268
 30
0.0
  0
SPLINE
  5
37e
100
AcDbEntity
  8
0
 62
7
100
AcDbSpline
 70
8
 71
3
 72
8
 73
4
 74
0
 40
0
 40
0
 40
0
 40
0
 40
1
 40
1
 40
1
 40
1
 10
67.392133
 20
357.590268
 30
0.0
 10
67.465642
 20
357.663782
 30
0.0
 10
67.502397
 20
357.757344
 30
0.0
 10
67.502397
 20
357.870952
 30
0.0
  0
LINE
  5
37f
100
AcDbEntity
  8
0
 62
7
100
AcDbLine
 10
67.502397
 20
357.870952
 30
0.0
 11
67.502397
 21
359.424713
 31
0.0
  0
LINE
  5
380
100
AcDbEntity
  8
0
 62
7
100
AcDbLine
 10
67.502397
 20
359.424713
 30
0.0
 11
68.635138
 21
359.424713
 31
0.0
  0
SPLINE
  5
381
100
AcDbEntity
  8
0
 62
7
100
AcDbSpline
 70
8
 71
3
 72
8
 73
4
 74
0
 40
0
 40
0
 40
0
 40
0
 40
1
 40
1
 40
1
 40
1
 10
68.635138
 20
359.424713
 30
0.0
 10
68.742065
 20
359.424713
 30
0.0
 10
68.825602
 20
359.458128
 30
0.0
 10
68.885748
 20
359.524958
 30
0.0
  0
SPLINE
  5
382
100
AcDbEntity
  8
0
 62
7
100
AcDbSpline
 70
8
 71
3
 72
8
 73
4
 74
0
 40
0
 40
0
 40
0
 40
0
 40
1
 40
1
 40
1
 40
1
 10
68.885748
 20
359.524958
 30
0.0
 10
68.952578
 20
359.585102
 30
0.0
 10
68.985993
 20
359.665295
 30
0.0
 10
68.985993
 20
359.765538
 30
0.0
  0
SPLINE
  5
383
100
AcDbEntity
  8
0
 62
7
100
AcDbSpline
 70
8
 71
3
 72
8
 73
4
 74
0
 40
0
 40
0
 40
0
 40
0
 40
1
 40
1
 40
1
 40
1
 10
68.985993
 20
359.765538
 30
0.0
 10
68.985993
 20
359.859097
 30
0.0
 10
68.952578
 20
359.939290
 30
0.0
 10
68.885748
 20
360.006115
 30
0.0
  0
SPLINE
  5
384
100
AcDbEntity
  8
0
 62
7
100
AcDbSpline
 70
8
 71
3
 72
8
 73
4
 74
0
 40
0
 40
0
 40
0
 40
0
 40
1
 40
1
 40
1
 40
1
 10
68.885748
 20
360.006115
 30
0.0
 10
68.825602
 20
360.066261
 30
0.0
 10
68.742065
 20
360.096334
 30
0.0
 10
68.635138
 20
360.096334
 30
0.0
  0
LINE
  5
385
100
AcDbEntity
  8
0
 62
7
100
AcDbLine
 10
68.635138
 20
360.096334
 30
0.0
 11
67.502397
 21
360.096334
 31
0.0
  0
LINE
  5
386
100
AcDbEntity
  8
0
 62
7
100
AcDbLine
 10
67.502397
 20
360.096334
 30
0.0
 11
67.502397
 21
362.772821
 31
0.0
  0
SPLINE
  5
387
100
AcDbEntity
  8
0
 62
7
100
AcDbSpline
 70
8
 71
3
 72
8
 73
4
 74
0
 40
0
 40
0
 40
0
 40
0
 40
1
 40
1
 40
1
 40
1
 10
67.502397
 20
362.772821
 30
0.0
 10
67.502397
 20
363.113644
 30
0.0
 10
67.602640
 20
363.394322
 30
0.0
 10
67.803126
 20
363.614855
 30
0.0
  0
SPLINE
  5
388
100
AcDbEntity
  8
0
 62
7
100
AcDbSpline
 70
8
 71
3
 72
8
 73
4
 74
0
 40
0
 40
0
 40
0
 40
0
 40
1
 40
1
 40
1
 40
1
 10
67.803126
 20
363.614855
 30
0.0
 10
68.003609
 20
363.828707
 30
0.0
 10
68.260898
 20
363.935633
 30
0.0
 10
68.574993
 20
363.935633
 30
0.0
  0
LINE
  5
389
100
AcDbEntity
  8
0
 62
7
100
AcDbLine
 10
68.574993
 20
363.935633
 30
0.0
 11
68.845648
 21
363.935633
 31
0.0
  0
SPLINE
  5
38a
100
AcDbEntity
  8
0
 62
7
100
AcDbSpline
 70
8
 71
3
 72
8
 73
4
 74
0
 40
0
 40
0
 40
0
 40
0
 40
1
 40
1
 40
1
 40
1
 10
64.681491
 20
364.867894
 30
0.0
 10
64.521101
 20
364.867894
 30
0.0
 10
64.384102
 20
364.811088
 30
0.0
 10
64.270494
 20
364.697477
 30
0.0
  0
SPLINE
  5
38b
100
AcDbEntity
  8
0
 62
7
100
AcDbSpline
 70
8
 71
3
 72
8
 73
4
 74
0
 40
0
 40
0
 40
0
 40
0
 40
1
 40
1
 40
1
 40
1
 10
64.270494
 20
364.697477
 30
0.0
 10
64.156888
 20
364.583869
 30
0.0
 10
64.100085
 20
364.446870
 30
0.0
 10
64.100085
 20
364.286481
 30
0.0
  0
SPLINE
  5
38c
100
AcDbEntity
  8
0
 62
7
100
AcDbSpline
 70
8
 71
3
 72
8
 73
4
 74
0
 40
0
 40
0
 40
0
 40
0
 40
1
 40
1
 40
1
 40
1
 10
64.100085
 20
364.286481
 30
0.0
 10
64.100085
 20
364.119410
 30
0.0
 10
64.156888
 20
363.979071
 30
0.0
 10
64.270494
 20
363.865465
 30
0.0
  0
SPLINE
  5
38d
100
AcDbEntity
  8
0
 62
7
100
AcDbSpline
 70
8
 71
3
 72
8
 73
4
 74
0
 40
0
 40
0
 40
0
 40
0
 40
1
 40
1
 40
1
 40
1
 10
64.270494
 20
363.865465
 30
0.0
 10
64.390784
 20
363.751854
 30
0.0
 10
64.527783
 20
363.695049
 30
0.0
 10
64.681491
 20
363.695049
 30
0.0
  0
SPLINE
  5
38e
100
AcDbEntity
  8
0
 62
7
100
AcDbSpline
 70
8
 71
3
 72
8
 73
4
 74
0
 40
0
 40
0
 40
0
 40
0
 40
1
 40
1
 40
1
 40
1
 10
64.681491
 20
363.695049
 30
0.0
 10
64.841880
 20
363.695049
 30
0.0
 10
64.978878
 20
363.755194
 30
0.0
 10
65.092484
 20
363.875484
 30
0.0
  0
SPLINE
  5
38f
100
AcDbEntity
  8
0
 62
7
100
AcDbSpline
 70
8
 71
3
 72
8
 73
4
 74
0
 40
0
 40
0
 40
0
 40
0
 40
1
 40
1
 40
1
 40
1
 10
65.092484
 20
363.875484
 30
0.0
 10
65.206090
 20
363.989095
 30
0.0
 10
65.262893
 20
364.126094
 30
0.0
 10
65.262893
 20
364.286481
 30
0.0
  0
SPLINE
  5
390
100
AcDbEntity
  8
0
 62
7
100
AcDbSpline
 70
8
 71
3
 72
8
 73
4
 74
0
 40
0
 40
0
 40
0
 40
0
 40
1
 40
1
 40
1
 40
1
 10
65.262893
 20
364.286481
 30
0.0
 10
65.262893
 20
364.446870
 30
0.0
 10
65.206090
 20
364.583869
 30
0.0
 10
65.092484
 20
364.697477
 30
0.0
  0
SPLINE
  5
391
100
AcDbEntity
  8
0
 62
7
100
AcDbSpline
 70
8
 71
3
 72
8
 73
4
 74
0
 40
0
 40
0
 40
0
 40
0
 40
1
 40
1
 40
1
 40
1
 10
65.092484
 20
364.697477
 30
0.0
 10
64.978878
 20
364.811088
 30
0.0
 10
64.841880
 20
364.867894
 30
0.0
 10
64.681491
 20
364.867894
 30
0.0
  0
LINE
  5
392
100
AcDbEntity
  8
0
 62
7
100
AcDbLine
 10
64.681491
 20
364.867894
 30
0.0
 11
64.681491
 21
364.867894
 31
0.0
  0
SPLINE
  5
393
100
AcDbEntity
  8
0
 62
7
100
AcDbSpline
 70
8
 71
3
 72
8
 73
4
 74
0
 40
0
 40
0
 40
0
 40
0
 40
1
 40
1
 40
1
 40
1
 10
59.242726
 20
364.707503
 30
0.0
 10
59.135799
 20
364.707503
 30
0.0
 10
59.042239
 20
364.670749
 30
0.0
 10
58.962046
 20
364.597239
 30
0.0
  0
SPLINE
  5
394
100
AcDbEntity
  8
0
 62
7
100
AcDbSpline
 70
8
 71
3
 72
8
 73
4
 74
0
 40
0
 40
0
 40
0
 40
0
 40
1
 40
1
 40
1
 40
1
 10
58.962046
 20
364.597239
 30
0.0
 10
58.888536
 20
364.517043
 30
0.0
 10
58.851781
 20
364.423482
 30
0.0
 10
58.851781
 20
364.316555
 30
0.0
  0
SPLINE
  5
395
100
AcDbEntity
  8
0
 62
7
100
AcDbSpline
 70
8
 71
3
 72
8
 73
4
 74
0
 40
0
 40
0
 40
0
 40
0
 40
1
 40
1
 40
1
 40
1
 10
58.851781
 20
364.316555
 30
0.0
 10
58.851781
 20
364.209630
 30
0.0
 10
58.888536
 20
364.119412
 30
0.0
 10
58.962046
 20
364.045900
 30
0.0
  0
LINE
  5
396
100
AcDbEntity
  8
0
 62
7
100
AcDbLine
 10
58.962046
 20
364.045900
 30
0.0
 11
61.999402
 21
360.457208
 31
0.0
  0
SPLINE
  5
397
100
AcDbEntity
  8
0
 62
7
100
AcDbSpline
 70
8
 71
3
 72
8
 73
4
 74
0
 40
0
 40
0
 40
0
 40
0
 40
1
 40
1
 40
1
 40
1
 10
61.999402
 20
360.457208
 30
0.0
 10
62.166475
 20
360.276772
 30
0.0
 10
62.300132
 20
360.076287
 30
0.0
 10
62.400373
 20
359.855754
 30
0.0
  0
SPLINE
  5
398
100
AcDbEntity
  8
0
 62
7
100
AcDbSpline
 70
8
 71
3
 72
8
 73
4
 74
0
 40
0
 40
0
 40
0
 40
0
 40
1
 40
1
 40
1
 40
1
 10
62.400373
 20
359.855754
 30
0.0
 10
62.500616
 20
359.628537
 30
0.0
 10
62.550738
 20
359.418027
 30
0.0
 10
62.550738
 20
359.224225
 30
0.0
  0
SPLINE
  5
399
100
AcDbEntity
  8
0
 62
7
100
AcDbSpline
 70
8
 71
3
 72
8
 73
4
 74
0
 40
0
 40
0
 40
0
 40
0
 40
1
 40
1
 40
1
 40
1
 10
62.550738
 20
359.224225
 30
0.0
 10
62.550738
 20
358.756428
 30
0.0
 10
62.410398
 20
358.372165
 30
0.0
 10
62.129718
 20
358.071436
 30
0.0
  0
SPLINE
  5
39a
100
AcDbEntity
  8
0
 62
7
100
AcDbSpline
 70
8
 71
3
 72
8
 73
4
 74
0
 40
0
 40
0
 40
0
 40
0
 40
1
 40
1
 40
1
 40
1
 10
62.129718
 20
358.071436
 30
0.0
 10
61.855721
 20
357.770707
 30
0.0
 10
61.504870
 20
357.620342
 30
0.0
 10
61.077167
 20
357.620342
 30
0.0
  0
SPLINE
  5
39b
100
AcDbEntity
  8
0
 62
7
100
AcDbSpline
 70
8
 71
3
 72
8
 73
4
 74
0
 40
0
 40
0
 40
0
 40
0
 40
1
 40
1
 40
1
 40
1
 10
61.077167
 20
357.620342
 30
0.0
 10
60.796490
 20
357.620342
 30
0.0
 10
60.542542
 20
357.693854
 30
0.0
 10
60.315322
 20
357.840878
 30
0.0
  0
SPLINE
  5
39c
100
AcDbEntity
  8
0
 62
7
100
AcDbSpline
 70
8
 71
3
 72
8
 73
4
 74
0
 40
0
 40
0
 40
0
 40
0
 40
1
 40
1
 40
1
 40
1
 10
60.315322
 20
357.840878
 30
0.0
 10
60.088108
 20
357.981218
 30
0.0
 10
59.907671
 20
358.175020
 30
0.0
 10
59.774013
 20
358.422284
 30
0.0
  0
SPLINE
  5
39d
100
AcDbEntity
  8
0
 62
7
100
AcDbSpline
 70
8
 71
3
 72
8
 73
4
 74
0
 40
0
 40
0
 40
0
 40
0
 40
1
 40
1
 40
1
 40
1
 10
59.774013
 20
358.422284
 30
0.0
 10
59.640357
 20
358.662867
 30
0.0
 10
59.573529
 20
358.930180
 30
0.0
 10
59.573529
 20
359.224225
 30
0.0
  0
SPLINE
  5
39e
100
AcDbEntity
  8
0
 62
7
100
AcDbSpline
 70
8
 71
3
 72
8
 73
4
 74
0
 40
0
 40
0
 40
0
 40
0
 40
1
 40
1
 40
1
 40
1
 10
59.573529
 20
359.224225
 30
0.0
 10
59.573529
 20
359.331150
 30
0.0
 10
59.533433
 20
359.421369
 30
0.0
 10
59.453239
 20
359.494884
 30
0.0
  0
SPLINE
  5
39f
100
AcDbEntity
  8
0
 62
7
100
AcDbSpline
 70
8
 71
3
 72
8
 73
4
 74
0
 40
0
 40
0
 40
0
 40
0
 40
1
 40
1
 40
1
 40
1
 10
59.453239
 20
359.494884
 30
0.0
 10
59.379725
 20
359.568393
 30
0.0
 10
59.289506
 20
359.605148
 30
0.0
 10
59.182581
 20
359.605148
 30
0.0
  0
SPLINE
  5
3a0
100
AcDbEntity
  8
0
 62
7
100
AcDbSpline
 70
8
 71
3
 72
8
 73
4
 74
0
 40
0
 40
0
 40
0
 40
0
 40
1
 40
1
 40
1
 40
1
 10
59.182581
 20
359.605148
 30
0.0
 10
59.075654
 20
359.605148
 30
0.0
 10
58.982094
 20
359.568393
 30
0.0
 10
58.901901
 20
359.494884
 30
0.0
  0
SPLINE
  5
3a1
100
AcDbEntity
  8
0
 62
7
100
AcDbSpline
 70
8
 71
3
 72
8
 73
4
 74
0
 40
0
 40
0
 40
0
 40
0
 40
1
 40
1
 40
1
 40
1
 10
58.901901
 20
359.494884
 30
0.0
 10
58.828389
 20
359.421369
 30
0.0
 10
58.791633
 20
359.331150
 30
0.0
 10
58.791633
 20
359.224225
 30
0.0
  0
SPLINE
  5
3a2
100
AcDbEntity
  8
0
 62
7
100
AcDbSpline
 70
8
 71
3
 72
8
 73
4
 74
0
 40
0
 40
0
 40
0
 40
0
 40
1
 40
1
 40
1
 40
1
 10
58.791633
 20
359.224225
 30
0.0
 10
58.791633
 20
358.783157
 30
0.0
 10
58.891876
 20
358.382186
 30
0.0
 10
59.092362
 20
358.021313
 30
0.0
  0
SPLINE
  5
3a3
100
AcDbEntity
  8
0
 62
7
100
AcDbSpline
 70
8
 71
3
 72
8
 73
4
 74
0
 40
0
 40
0
 40
0
 40
0
 40
1
 40
1
 40
1
 40
1
 10
59.092362
 20
358.021313
 30
0.0
 10
59.292850
 20
357.660440
 30
0.0
 10
59.566848
 20
357.379761
 30
0.0
 10
59.914355
 20
357.179275
 30
0.0
  0
SPLINE
  5
3a4
100
AcDbEntity
  8
0
 62
7
100
AcDbSpline
 70
8
 71
3
 72
8
 73
4
 74
0
 40
0
 40
0
 40
0
 40
0
 40
1
 40
1
 40
1
 40
1
 10
59.914355
 20
357.179275
 30
0.0
 10
60.261862
 20
356.972107
 30
0.0
 10
60.649466
 20
356.868524
 30
0.0
 10
61.077167
 20
356.868524
 30
0.0
  0
SPLINE
  5
3a5
100
AcDbEntity
  8
0
 62
7
100
AcDbSpline
 70
8
 71
3
 72
8
 73
4
 74
0
 40
0
 40
0
 40
0
 40
0
 40
1
 40
1
 40
1
 40
1
 10
61.077167
 20
356.868524
 30
0.0
 10
61.511549
 20
356.868524
 30
0.0
 10
61.895813
 20
356.968767
 30
0.0
 10
62.229957
 20
357.169253
 30
0.0
  0
SPLINE
  5
3a6
100
AcDbEntity
  8
0
 62
7
100
AcDbSpline
 70
8
 71
3
 72
8
 73
4
 74
0
 40
0
 40
0
 40
0
 40
0
 40
1
 40
1
 40
1
 40
1
 10
62.229957
 20
357.169253
 30
0.0
 10
62.570785
 20
357.369734
 30
0.0
 10
62.834758
 20
357.650413
 30
0.0
 10
63.021876
 20
358.011291
 30
0.0
  0
SPLINE
  5
3a7
100
AcDbEntity
  8
0
 62
7
100
AcDbSpline
 70
8
 71
3
 72
8
 73
4
 74
0
 40
0
 40
0
 40
0
 40
0
 40
1
 40
1
 40
1
 40
1
 10
63.021876
 20
358.011291
 30
0.0
 10
63.215680
 20
358.365480
 30
0.0
 10
63.312582
 20
358.769791
 30
0.0
 10
63.312582
 20
359.224225
 30
0.0
  0
SPLINE
  5
3a8
100
AcDbEntity
  8
0
 62
7
100
AcDbSpline
 70
8
 71
3
 72
8
 73
4
 74
0
 40
0
 40
0
 40
0
 40
0
 40
1
 40
1
 40
1
 40
1
 10
63.312582
 20
359.224225
 30
0.0
 10
63.312582
 20
359.765535
 30
0.0
 10
63.051950
 20
360.340260
 30
0.0
 10
62.530686
 20
360.948402
 30
0.0
  0
LINE
  5
3a9
100
AcDbEntity
  8
0
 62
7
100
AcDbLine
 10
62.530686
 20
360.948402
 30
0.0
 11
59.964471
 21
363.925610
 31
0.0
  0
LINE
  5
3aa
100
AcDbEntity
  8
0
 62
7
100
AcDbLine
 10
59.964471
 20
363.925610
 30
0.0
 11
63.102073
 21
363.925610
 31
0.0
  0
SPLINE
  5
3ab
100
AcDbEntity
  8
0
 62
7
100
AcDbSpline
 70
8
 71
3
 72
8
 73
4
 74
0
 40
0
 40
0
 40
0
 40
0
 40
1
 40
1
 40
1
 40
1
 10
63.102073
 20
363.925610
 30
0.0
 10
63.208997
 20
363.925610
 30
0.0
 10
63.299216
 20
363.965707
 30
0.0
 10
63.372727
 20
364.045900
 30
0.0
  0
SPLINE
  5
3ac
100
AcDbEntity
  8
0
 62
7
100
AcDbSpline
 70
8
 71
3
 72
8
 73
4
 74
0
 40
0
 40
0
 40
0
 40
0
 40
1
 40
1
 40
1
 40
1
 10
63.372727
 20
364.045900
 30
0.0
 10
63.452923
 20
364.119412
 30
0.0
 10
63.493021
 20
364.209630
 30
0.0
 10
63.493021
 20
364.316555
 30
0.0
  0
SPLINE
  5
3ad
100
AcDbEntity
  8
0
 62
7
100
AcDbSpline
 70
8
 71
3
 72
8
 73
4
 74
0
 40
0
 40
0
 40
0
 40
0
 40
1
 40
1
 40
1
 40
1
 10
63.493021
 20
364.316555
 30
0.0
 10
63.493021
 20
364.423482
 30
0.0
 10
63.456263
 20
364.517043
 30
0.0
 10
63.382746
 20
364.597239
 30
0.0
  0
SPLINE
  5
3ae
100
AcDbEntity
  8
0
 62
7
100
AcDbSpline
 70
8
 71
3
 72
8
 73
4
 74
0
 40
0
 40
0
 40
0
 40
0
 40
1
 40
1
 40
1
 40
1
 10
63.382746
 20
364.597239
 30
0.0
 10
63.309237
 20
364.670749
 30
0.0
 10
63.215679
 20
364.707503
 30
0.0
 10
63.102073
 20
364.707503
 30
0.0
  0
LINE
  5
3af
100
AcDbEntity
  8
0
 62
7
100
AcDbLine
 10
63.102073
 20
364.707503
 30
0.0
 11
59.242726
 21
364.707503
 31
0.0
  0
SPLINE
  5
3b0
100
AcDbEntity
  8
0
 62
7
100
AcDbSpline
 70
8
 71
3
 72
8
 73
4
 74
0
 40
0
 40
0
 40
0
 40
0
 40
1
 40
1
 40
1
 40
1
 10
55.259682
 20
364.757626
 30
0.0
 10
54.731736
 20
364.757626
 30
0.0
 10
54.253912
 20
364.637335
 30
0.0
 10
53.826212
 20
364.396752
 30
0.0
  0
SPLINE
  5
3b1
100
AcDbEntity
  8
0
 62
7
100
AcDbSpline
 70
8
 71
3
 72
8
 73
4
 74
0
 40
0
 40
0
 40
0
 40
0
 40
1
 40
1
 40
1
 40
1
 10
53.826212
 20
364.396752
 30
0.0
 10
53.405195
 20
364.156167
 30
0.0
 10
53.074394
 20
363.825365
 30
0.0
 10
52.833809
 20
363.404346
 30
0.0
  0
SPLINE
  5
3b2
100
AcDbEntity
  8
0
 62
7
100
AcDbSpline
 70
8
 71
3
 72
8
 73
4
 74
0
 40
0
 40
0
 40
0
 40
0
 40
1
 40
1
 40
1
 40
1
 10
52.833809
 20
363.404346
 30
0.0
 10
52.593224
 20
362.976645
 30
0.0
 10
52.472931
 20
362.498823
 30
0.0
 10
52.472931
 20
361.970879
 30
0.0
  0
SPLINE
  5
3b3
100
AcDbEntity
  8
0
 62
7
100
AcDbSpline
 70
8
 71
3
 72
8
 73
4
 74
0
 40
0
 40
0
 40
0
 40
0
 40
1
 40
1
 40
1
 40
1
 10
52.472931
 20
361.970879
 30
0.0
 10
52.472931
 20
361.442935
 30
0.0
 10
52.593224
 20
360.965111
 30
0.0
 10
52.833809
 20
360.537405
 30
0.0
  0
SPLINE
  5
3b4
100
AcDbEntity
  8
0
 62
7
100
AcDbSpline
 70
8
 71
3
 72
8
 73
4
 74
0
 40
0
 40
0
 40
0
 40
0
 40
1
 40
1
 40
1
 40
1
 10
52.833809
 20
360.537405
 30
0.0
 10
53.074394
 20
360.109702
 30
0.0
 10
53.405195
 20
359.775559
 30
0.0
 10
53.826212
 20
359.534977
 30
0.0
  0
SPLINE
  5
3b5
100
AcDbEntity
  8
0
 62
7
100
AcDbSpline
 70
8
 71
3
 72
8
 73
4
 74
0
 40
0
 40
0
 40
0
 40
0
 40
1
 40
1
 40
1
 40
1
 10
53.826212
 20
359.534977
 30
0.0
 10
54.253912
 20
359.294396
 30
0.0
 10
54.731736
 20
359.174106
 30
0.0
 10
55.259682
 20
359.174106
 30
0.0
  0
SPLINE
  5
3b6
100
AcDbEntity
  8
0
 62
7
100
AcDbSpline
 70
8
 71
3
 72
8
 73
4
 74
0
 40
0
 40
0
 40
0
 40
0
 40
1
 40
1
 40
1
 40
1
 10
55.259682
 20
359.174106
 30
0.0
 10
55.787625
 20
359.174106
 30
0.0
 10
56.262107
 20
359.294396
 30
0.0
 10
56.683126
 20
359.534977
 30
0.0
  0
SPLINE
  5
3b7
100
AcDbEntity
  8
0
 62
7
100
AcDbSpline
 70
8
 71
3
 72
8
 73
4
 74
0
 40
0
 40
0
 40
0
 40
0
 40
1
 40
1
 40
1
 40
1
 10
56.683126
 20
359.534977
 30
0.0
 10
57.104147
 20
359.775559
 30
0.0
 10
57.434949
 20
360.109702
 30
0.0
 10
57.675532
 20
360.537405
 30
0.0
  0
SPLINE
  5
3b8
100
AcDbEntity
  8
0
 62
7
100
AcDbSpline
 70
8
 71
3
 72
8
 73
4
 74
0
 40
0
 40
0
 40
0
 40
0
 40
1
 40
1
 40
1
 40
1
 10
57.675532
 20
360.537405
 30
0.0
 10
57.922796
 20
360.965111
 30
0.0
 10
58.046429
 20
361.442935
 30
0.0
 10
58.046429
 20
361.970879
 30
0.0
  0
SPLINE
  5
3b9
100
AcDbEntity
  8
0
 62
7
100
AcDbSpline
 70
8
 71
3
 72
8
 73
4
 74
0
 40
0
 40
0
 40
0
 40
0
 40
1
 40
1
 40
1
 40
1
 10
58.046429
 20
361.970879
 30
0.0
 10
58.046429
 20
362.498823
 30
0.0
 10
57.926137
 20
362.976645
 30
0.0
 10
57.685555
 20
363.404346
 30
0.0
  0
SPLINE
  5
3ba
100
AcDbEntity
  8
0
 62
7
100
AcDbSpline
 70
8
 71
3
 72
8
 73
4
 74
0
 40
0
 40
0
 40
0
 40
0
 40
1
 40
1
 40
1
 40
1
 10
57.685555
 20
363.404346
 30
0.0
 10
57.444974
 20
363.825365
 30
0.0
 10
57.110831
 20
364.156167
 30
0.0
 10
56.683126
 20
364.396752
 30
0.0
  0
SPLINE
  5
3bb
100
AcDbEntity
  8
0
 62
7
100
AcDbSpline
 70
8
 71
3
 72
8
 73
4
 74
0
 40
0
 40
0
 40
0
 40
0
 40
1
 40
1
 40
1
 40
1
 10
56.683126
 20
364.396752
 30
0.0
 10
56.262107
 20
364.637335
 30
0.0
 10
55.787625
 20
364.757626
 30
0.0
 10
55.259682
 20
364.757626
 30
0.0
  0
LINE
  5
3bc
100
AcDbEntity
  8
0
 62
7
100
AcDbLine
 10
55.259682
 20
364.757626
 30
0.0
 11
55.259682
 21
364.757626
 31
0.0
  0
SPLINE
  5
3bd
100
AcDbEntity
  8
0
 62
7
100
AcDbSpline
 70
8
 71
3
 72
8
 73
4
 74
0
 40
0
 40
0
 40
0
 40
0
 40
1
 40
1
 40
1
 40
1
 10
55.259682
 20
364.055926
 30
0.0
 10
55.647288
 20
364.055926
 30
0.0
 10
55.994795
 20
363.965708
 30
0.0
 10
56.302204
 20
363.785272
 30
0.0
  0
SPLINE
  5
3be
100
AcDbEntity
  8
0
 62
7
100
AcDbSpline
 70
8
 71
3
 72
8
 73
4
 74
0
 40
0
 40
0
 40
0
 40
0
 40
1
 40
1
 40
1
 40
1
 10
56.302204
 20
363.785272
 30
0.0
 10
56.609616
 20
363.604835
 30
0.0
 10
56.850199
 20
363.357569
 30
0.0
 10
57.023952
 20
363.043472
 30
0.0
  0
SPLINE
  5
3bf
100
AcDbEntity
  8
0
 62
7
100
AcDbSpline
 70
8
 71
3
 72
8
 73
4
 74
0
 40
0
 40
0
 40
0
 40
0
 40
1
 40
1
 40
1
 40
1
 10
57.023952
 20
363.043472
 30
0.0
 10
57.197706
 20
362.722698
 30
0.0
 10
57.284584
 20
362.365167
 30
0.0
 10
57.284584
 20
361.970879
 30
0.0
  0
SPLINE
  5
3c0
100
AcDbEntity
  8
0
 62
7
100
AcDbSpline
 70
8
 71
3
 72
8
 73
4
 74
0
 40
0
 40
0
 40
0
 40
0
 40
1
 40
1
 40
1
 40
1
 10
57.284584
 20
361.970879
 30
0.0
 10
57.284584
 20
361.569905
 30
0.0
 10
57.197706
 20
361.212372
 30
0.0
 10
57.023952
 20
360.898279
 30
0.0
  0
SPLINE
  5
3c1
100
AcDbEntity
  8
0
 62
7
100
AcDbSpline
 70
8
 71
3
 72
8
 73
4
 74
0
 40
0
 40
0
 40
0
 40
0
 40
1
 40
1
 40
1
 40
1
 10
57.023952
 20
360.898279
 30
0.0
 10
56.850199
 20
360.577503
 30
0.0
 10
56.609616
 20
360.326897
 30
0.0
 10
56.302204
 20
360.146461
 30
0.0
  0
SPLINE
  5
3c2
100
AcDbEntity
  8
0
 62
7
100
AcDbSpline
 70
8
 71
3
 72
8
 73
4
 74
0
 40
0
 40
0
 40
0
 40
0
 40
1
 40
1
 40
1
 40
1
 10
56.302204
 20
360.146461
 30
0.0
 10
55.994795
 20
359.966022
 30
0.0
 10
55.647288
 20
359.875802
 30
0.0
 10
55.259682
 20
359.875802
 30
0.0
  0
SPLINE
  5
3c3
100
AcDbEntity
  8
0
 62
7
100
AcDbSpline
 70
8
 71
3
 72
8
 73
4
 74
0
 40
0
 40
0
 40
0
 40
0
 40
1
 40
1
 40
1
 40
1
 10
55.259682
 20
359.875802
 30
0.0
 10
54.878762
 20
359.875802
 30
0.0
 10
54.531253
 20
359.966022
 30
0.0
 10
54.217156
 20
360.146461
 30
0.0
  0
SPLINE
  5
3c4
100
AcDbEntity
  8
0
 62
7
100
AcDbSpline
 70
8
 71
3
 72
8
 73
4
 74
0
 40
0
 40
0
 40
0
 40
0
 40
1
 40
1
 40
1
 40
1
 10
54.217156
 20
360.146461
 30
0.0
 10
53.909748
 20
360.326897
 30
0.0
 10
53.665826
 20
360.577503
 30
0.0
 10
53.485389
 20
360.898279
 30
0.0
  0
SPLINE
  5
3c5
100
AcDbEntity
  8
0
 62
7
100
AcDbSpline
 70
8
 71
3
 72
8
 73
4
 74
0
 40
0
 40
0
 40
0
 40
0
 40
1
 40
1
 40
1
 40
1
 10
53.485389
 20
360.898279
 30
0.0
 10
53.311635
 20
361.212372
 30
0.0
 10
53.224757
 20
361.569905
 30
0.0
 10
53.224757
 20
361.970879
 30
0.0
  0
SPLINE
  5
3c6
100
AcDbEntity
  8
0
 62
7
100
AcDbSpline
 70
8
 71
3
 72
8
 73
4
 74
0
 40
0
 40
0
 40
0
 40
0
 40
1
 40
1
 40
1
 40
1
 10
53.224757
 20
361.970879
 30
0.0
 10
53.224757
 20
362.365167
 30
0.0
 10
53.311635
 20
362.722698
 30
0.0
 10
53.485389
 20
363.043472
 30
0.0
  0
SPLINE
  5
3c7
100
AcDbEntity
  8
0
 62
7
100
AcDbSpline
 70
8
 71
3
 72
8
 73
4
 74
0
 40
0
 40
0
 40
0
 40
0
 40
1
 40
1
 40
1
 40
1
 10
53.485389
 20
363.043472
 30
0.0
 10
53.665826
 20
363.357569
 30
0.0
 10
53.909748
 20
363.604835
 30
0.0
 10
54.217156
 20
363.785272
 30
0.0
  0
SPLINE
  5
3c8
100
AcDbEntity
  8
0
 62
7
100
AcDbSpline
 70
8
 71
3
 72
8
 73
4
 74
0
 40
0
 40
0
 40
0
 40
0
 40
1
 40
1
 40
1
 40
1
 10
54.217156
 20
363.785272
 30
0.0
 10
54.531253
 20
363.965708
 30
0.0
 10
54.878762
 20
364.055926
 30
0.0
 10
55.259682
 20
364.055926
 30
0.0
  0
LINE
  5
3c9
100
AcDbEntity
  8
0
 62
7
100
AcDbLine
 10
55.259682
 20
364.055926
 30
0.0
 11
55.259682
 21
364.055926
 31
0.0
  0
SPLINE
  5
3ca
100
AcDbEntity
  8
0
 62
7
100
AcDbSpline
 70
8
 71
3
 72
8
 73
4
 74
0
 40
0
 40
0
 40
0
 40
0
 40
1
 40
1
 40
1
 40
1
 10
49.750746
 20
364.757626
 30
0.0
 10
49.229484
 20
364.757626
 30
0.0
 10
48.761685
 20
364.637335
 30
0.0
 10
48.347348
 20
364.396752
 30
0.0
  0
SPLINE
  5
3cb
100
AcDbEntity
  8
0
 62
7
100
AcDbSpline
 70
8
 71
3
 72
8
 73
4
 74
0
 40
0
 40
0
 40
0
 40
0
 40
1
 40
1
 40
1
 40
1
 10
48.347348
 20
364.396752
 30
0.0
 10
47.933012
 20
364.149485
 30
0.0
 10
47.605553
 20
363.815344
 30
0.0
 10
47.364973
 20
363.394327
 30
0.0
  0
SPLINE
  5
3cc
100
AcDbEntity
  8
0
 62
7
100
AcDbSpline
 70
8
 71
3
 72
8
 73
4
 74
0
 40
0
 40
0
 40
0
 40
0
 40
1
 40
1
 40
1
 40
1
 10
47.364973
 20
363.394327
 30
0.0
 10
47.131073
 20
362.966621
 30
0.0
 10
47.014123
 20
362.492139
 30
0.0
 10
47.014123
 20
361.970879
 30
0.0
  0
SPLINE
  5
3cd
100
AcDbEntity
  8
0
 62
7
100
AcDbSpline
 70
8
 71
3
 72
8
 73
4
 74
0
 40
0
 40
0
 40
0
 40
0
 40
1
 40
1
 40
1
 40
1
 10
47.014123
 20
361.970879
 30
0.0
 10
47.014123
 20
361.436249
 30
0.0
 10
47.127732
 20
360.958425
 30
0.0
 10
47.354949
 20
360.537405
 30
0.0
  0
SPLINE
  5
3ce
100
AcDbEntity
  8
0
 62
7
100
AcDbSpline
 70
8
 71
3
 72
8
 73
4
 74
0
 40
0
 40
0
 40
0
 40
0
 40
1
 40
1
 40
1
 40
1
 10
47.354949
 20
360.537405
 30
0.0
 10
47.582163
 20
360.109702
 30
0.0
 10
47.896257
 20
359.775559
 30
0.0
 10
48.297230
 20
359.534977
 30
0.0
  0
SPLINE
  5
3cf
100
AcDbEntity
  8
0
 62
7
100
AcDbSpline
 70
8
 71
3
 72
8
 73
4
 74
0
 40
0
 40
0
 40
0
 40
0
 40
1
 40
1
 40
1
 40
1
 10
48.297230
 20
359.534977
 30
0.0
 10
48.698201
 20
359.294396
 30
0.0
 10
49.149292
 20
359.174106
 30
0.0
 10
49.650505
 20
359.174106
 30
0.0
  0
SPLINE
  5
3d0
100
AcDbEntity
  8
0
 62
7
100
AcDbSpline
 70
8
 71
3
 72
8
 73
4
 74
0
 40
0
 40
0
 40
0
 40
0
 40
1
 40
1
 40
1
 40
1
 10
49.650505
 20
359.174106
 30
0.0
 10
50.485864
 20
359.174106
 30
0.0
 10
51.164173
 20
359.494882
 30
0.0
 10
51.685433
 20
360.136435
 30
0.0
  0
SPLINE
  5
3d1
100
AcDbEntity
  8
0
 62
7
100
AcDbSpline
 70
8
 71
3
 72
8
 73
4
 74
0
 40
0
 40
0
 40
0
 40
0
 40
1
 40
1
 40
1
 40
1
 10
51.685433
 20
360.136435
 30
0.0
 10
51.738893
 20
360.196581
 30
0.0
 10
51.765623
 20
360.266751
 30
0.0
 10
51.765623
 20
360.346944
 30
0.0
  0
SPLINE
  5
3d2
100
AcDbEntity
  8
0
 62
7
100
AcDbSpline
 70
8
 71
3
 72
8
 73
4
 74
0
 40
0
 40
0
 40
0
 40
0
 40
1
 40
1
 40
1
 40
1
 10
51.765623
 20
360.346944
 30
0.0
 10
51.765623
 20
360.453869
 30
0.0
 10
51.708819
 20
360.547429
 30
0.0
 10
51.595213
 20
360.627625
 30
0.0
  0
SPLINE
  5
3d3
100
AcDbEntity
  8
0
 62
7
100
AcDbSpline
 70
8
 71
3
 72
8
 73
4
 74
0
 40
0
 40
0
 40
0
 40
0
 40
1
 40
1
 40
1
 40
1
 10
51.595213
 20
360.627625
 30
0.0
 10
51.535067
 20
360.667719
 30
0.0
 10
51.471580
 20
360.687766
 30
0.0
 10
51.404752
 20
360.687766
 30
0.0
  0
SPLINE
  5
3d4
100
AcDbEntity
  8
0
 62
7
100
AcDbSpline
 70
8
 71
3
 72
8
 73
4
 74
0
 40
0
 40
0
 40
0
 40
0
 40
1
 40
1
 40
1
 40
1
 10
51.404752
 20
360.687766
 30
0.0
 10
51.304511
 20
360.687766
 30
0.0
 10
51.207610
 20
360.637646
 30
0.0
 10
51.114049
 20
360.537405
 30
0.0
  0
SPLINE
  5
3d5
100
AcDbEntity
  8
0
 62
7
100
AcDbSpline
 70
8
 71
3
 72
8
 73
4
 74
0
 40
0
 40
0
 40
0
 40
0
 40
1
 40
1
 40
1
 40
1
 10
51.114049
 20
360.537405
 30
0.0
 10
50.913565
 20
360.316875
 30
0.0
 10
50.693031
 20
360.153146
 30
0.0
 10
50.452446
 20
360.046219
 30
0.0
  0
SPLINE
  5
3d6
100
AcDbEntity
  8
0
 62
7
100
AcDbSpline
 70
8
 71
3
 72
8
 73
4
 74
0
 40
0
 40
0
 40
0
 40
0
 40
1
 40
1
 40
1
 40
1
 10
50.452446
 20
360.046219
 30
0.0
 10
50.211863
 20
359.932608
 30
0.0
 10
49.944550
 20
359.875802
 30
0.0
 10
49.650505
 20
359.875802
 30
0.0
  0
SPLINE
  5
3d7
100
AcDbEntity
  8
0
 62
7
100
AcDbSpline
 70
8
 71
3
 72
8
 73
4
 74
0
 40
0
 40
0
 40
0
 40
0
 40
1
 40
1
 40
1
 40
1
 10
49.650505
 20
359.875802
 30
0.0
 10
49.282948
 20
359.875802
 30
0.0
 10
48.955488
 20
359.966022
 30
0.0
 10
48.668125
 20
360.146461
 30
0.0
  0
SPLINE
  5
3d8
100
AcDbEntity
  8
0
 62
7
100
AcDbSpline
 70
8
 71
3
 72
8
 73
4
 74
0
 40
0
 40
0
 40
0
 40
0
 40
1
 40
1
 40
1
 40
1
 10
48.668125
 20
360.146461
 30
0.0
 10
48.380764
 20
360.320215
 30
0.0
 10
48.156890
 20
360.567480
 30
0.0
 10
47.996502
 20
360.888254
 30
0.0
  0
SPLINE
  5
3d9
100
AcDbEntity
  8
0
 62
7
100
AcDbSpline
 70
8
 71
3
 72
8
 73
4
 74
0
 40
0
 40
0
 40
0
 40
0
 40
1
 40
1
 40
1
 40
1
 10
47.996502
 20
360.888254
 30
0.0
 10
47.842795
 20
361.209030
 30
0.0
 10
47.765941
 20
361.569905
 30
0.0
 10
47.765941
 20
361.970879
 30
0.0
  0
SPLINE
  5
3da
100
AcDbEntity
  8
0
 62
7
100
AcDbSpline
 70
8
 71
3
 72
8
 73
4
 74
0
 40
0
 40
0
 40
0
 40
0
 40
1
 40
1
 40
1
 40
1
 10
47.765941
 20
361.970879
 30
0.0
 10
47.765941
 20
362.365167
 30
0.0
 10
47.849478
 20
362.722698
 30
0.0
 10
48.016551
 20
363.043472
 30
0.0
  0
SPLINE
  5
3db
100
AcDbEntity
  8
0
 62
7
100
AcDbSpline
 70
8
 71
3
 72
8
 73
4
 74
0
 40
0
 40
0
 40
0
 40
0
 40
1
 40
1
 40
1
 40
1
 10
48.016551
 20
363.043472
 30
0.0
 10
48.183622
 20
363.357569
 30
0.0
 10
48.417522
 20
363.604835
 30
0.0
 10
48.718251
 20
363.785272
 30
0.0
  0
SPLINE
  5
3dc
100
AcDbEntity
  8
0
 62
7
100
AcDbSpline
 70
8
 71
3
 72
8
 73
4
 74
0
 40
0
 40
0
 40
0
 40
0
 40
1
 40
1
 40
1
 40
1
 10
48.718251
 20
363.785272
 30
0.0
 10
49.018977
 20
363.965708
 30
0.0
 10
49.363142
 20
364.055926
 30
0.0
 10
49.750746
 20
364.055926
 30
0.0
  0
SPLINE
  5
3dd
100
AcDbEntity
  8
0
 62
7
100
AcDbSpline
 70
8
 71
3
 72
8
 73
4
 74
0
 40
0
 40
0
 40
0
 40
0
 40
1
 40
1
 40
1
 40
1
 10
49.750746
 20
364.055926
 30
0.0
 10
50.285376
 20
364.055926
 30
0.0
 10
50.716420
 20
363.912246
 30
0.0
 10
51.043878
 20
363.624885
 30
0.0
  0
SPLINE
  5
3de
100
AcDbEntity
  8
0
 62
7
100
AcDbSpline
 70
8
 71
3
 72
8
 73
4
 74
0
 40
0
 40
0
 40
0
 40
0
 40
1
 40
1
 40
1
 40
1
 10
51.043878
 20
363.624885
 30
0.0
 10
51.130758
 20
363.551373
 30
0.0
 10
51.220977
 20
363.514617
 30
0.0
 10
51.314536
 20
363.514617
 30
0.0
  0
SPLINE
  5
3df
100
AcDbEntity
  8
0
 62
7
100
AcDbSpline
 70
8
 71
3
 72
8
 73
4
 74
0
 40
0
 40
0
 40
0
 40
0
 40
1
 40
1
 40
1
 40
1
 10
51.314536
 20
363.514617
 30
0.0
 10
51.394730
 20
363.514617
 30
0.0
 10
51.468240
 20
363.541348
 30
0.0
 10
51.535068
 20
363.594810
 30
0.0
  0
SPLINE
  5
3e0
100
AcDbEntity
  8
0
 62
7
100
AcDbSpline
 70
8
 71
3
 72
8
 73
4
 74
0
 40
0
 40
0
 40
0
 40
0
 40
1
 40
1
 40
1
 40
1
 10
51.535068
 20
363.594810
 30
0.0
 10
51.628632
 20
363.675006
 30
0.0
 10
51.675414
 20
363.765224
 30
0.0
 10
51.675414
 20
363.865465
 30
0.0
  0
SPLINE
  5
3e1
100
AcDbEntity
  8
0
 62
7
100
AcDbSpline
 70
8
 71
3
 72
8
 73
4
 74
0
 40
0
 40
0
 40
0
 40
0
 40
1
 40
1
 40
1
 40
1
 10
51.675414
 20
363.865465
 30
0.0
 10
51.675414
 20
363.952340
 30
0.0
 10
51.641999
 20
364.025851
 30
0.0
 10
51.575168
 20
364.085997
 30
0.0
  0
SPLINE
  5
3e2
100
AcDbEntity
  8
0
 62
7
100
AcDbSpline
 70
8
 71
3
 72
8
 73
4
 74
0
 40
0
 40
0
 40
0
 40
0
 40
1
 40
1
 40
1
 40
1
 10
51.575168
 20
364.085997
 30
0.0
 10
51.094001
 20
364.533750
 30
0.0
 10
50.485860
 20
364.757626
 30
0.0
 10
49.750746
 20
364.757626
 30
0.0
  0
LINE
  5
3e3
100
AcDbEntity
  8
0
 62
7
100
AcDbLine
 10
49.750746
 20
364.757626
 30
0.0
 11
49.750746
 21
364.757626
 31
0.0
  0
SPLINE
  5
3e4
100
AcDbEntity
  8
0
 62
7
100
AcDbSpline
 70
8
 71
3
 72
8
 73
4
 74
0
 40
0
 40
0
 40
0
 40
0
 40
1
 40
1
 40
1
 40
1
 10
189.824939
 20
355.026135
 30
0.0
 10
189.824939
 20
353.349639
 30
0.0
 10
191.174596
 20
351.999965
 30
0.0
 10
192.851102
 20
351.999965
 30
0.0
  0
LINE
  5
3e5
100
AcDbEntity
  8
0
 62
7
100
AcDbLine
 10
192.851102
 20
351.999965
 30
0.0
 11
193.798840
 21
351.999965
 31
0.0
  0
SPLINE
  5
3e6
100
AcDbEntity
  8
0
 62
7
100
AcDbSpline
 70
8
 71
3
 72
8
 73
4
 74
0
 40
0
 40
0
 40
0
 40
0
 40
1
 40
1
 40
1
 40
1
 10
193.798840
 20
351.999965
 30
0.0
 10
195.475345
 20
351.999965
 30
0.0
 10
196.825003
 20
353.349639
 30
0.0
 10
196.825003
 20
355.026135
 30
0.0
  0
LINE
  5
3e7
100
AcDbEntity
  8
0
 62
7
100
AcDbLine
 10
196.825003
 20
355.026135
 30
0.0
 11
196.825003
 21
364.973851
 31
0.0
  0
SPLINE
  5
3e8
100
AcDbEntity
  8
0
 62
7
100
AcDbSpline
 70
8
 71
3
 72
8
 73
4
 74
0
 40
0
 40
0
 40
0
 40
0
 40
1
 40
1
 40
1
 40
1
 10
196.825003
 20
364.973851
 30
0.0
 10
196.825003
 20
366.650349
 30
0.0
 10
195.475345
 20
368.000024
 30
0.0
 10
193.798840
 20
368.000024
 30
0.0
  0
LINE
  5
3e9
100
AcDbEntity
  8
0
 62
7
100
AcDbLine
 10
193.798840
 20
368.000024
 30
0.0
 11
192.851102
 21
368.000024
 31
0.0
  0
SPLINE
  5
3ea
100
AcDbEntity
  8
0
 62
7
100
AcDbSpline
 70
8
 71
3
 72
8
 73
4
 74
0
 40
0
 40
0
 40
0
 40
0
 40
1
 40
1
 40
1
 40
1
 10
192.851102
 20
368.000024
 30
0.0
 10
191.174596
 20
368.000024
 30
0.0
 10
189.824939
 20
366.650349
 30
0.0
 10
189.824939
 20
364.973851
 30
0.0
  0
LINE
  5
3eb
100
AcDbEntity
  8
0
 62
7
100
AcDbLine
 10
189.824939
 20
364.973851
 30
0.0
 11
189.824939
 21
355.026135
 31
0.0
  0
SPLINE
  5
3ec
100
AcDbEntity
  8
0
 62
7
100
AcDbSpline
 70
8
 71
3
 72
8
 73
4
 74
0
 40
0
 40
0
 40
0
 40
0
 40
1
 40
1
 40
1
 40
1
 10
191.575211
 20
355.249898
 30
0.0
 10
191.575175
 20
355.940302
 30
0.0
 10
192.134893
 20
356.499987
 30
0.0
 10
192.825243
 20
356.499948
 30
0.0
  0
LINE
  5
3ed
100
AcDbEntity
  8
0
 62
7
100
AcDbLine
 10
192.825243
 20
356.499948
 30
0.0
 11
193.825192
 21
356.499948
 31
0.0
  0
SPLINE
  5
3ee
100
AcDbEntity
  8
0
 62
7
100
AcDbSpline
 70
8
 71
3
 72
8
 73
4
 74
0
 40
0
 40
0
 40
0
 40
0
 40
1
 40
1
 40
1
 40
1
 10
193.825192
 20
356.499948
 30
0.0
 10
194.515578
 20
356.499966
 30
0.0
 10
195.075295
 20
355.940284
 30
0.0
 10
195.075260
 20
355.249898
 30
0.0
  0
SPLINE
  5
3ef
100
AcDbEntity
  8
0
 62
7
100
AcDbSpline
 70
8
 71
3
 72
8
 73
4
 74
0
 40
0
 40
0
 40
0
 40
0
 40
1
 40
1
 40
1
 40
1
 10
195.075260
 20
355.249898
 30
0.0
 10
195.075295
 20
354.559508
 30
0.0
 10
194.515578
 20
353.999827
 30
0.0
 10
193.825192
 20
353.999844
 30
0.0
  0
LINE
  5
3f0
100
AcDbEntity
  8
0
 62
7
100
AcDbLine
 10
193.825192
 20
353.999844
 30
0.0
 11
192.825243
 21
353.999844
 31
0.0
  0
SPLINE
  5
3f1
100
AcDbEntity
  8
0
 62
7
100
AcDbSpline
 70
8
 71
3
 72
8
 73
4
 74
0
 40
0
 40
0
 40
0
 40
0
 40
1
 40
1
 40
1
 40
1
 10
192.825243
 20
353.999844
 30
0.0
 10
192.134893
 20
353.999805
 30
0.0
 10
191.575175
 20
354.559494
 30
0.0
 10
191.575211
 20
355.249898
 30
0.0
  0
LINE
  5
3f2
100
AcDbEntity
  8
0
 62
7
100
AcDbLine
 10
191.575211
 20
355.249898
 30
0.0
 11
191.575211
 21
355.249898
 31
0.0
  0
SPLINE
  5
3f3
100
AcDbEntity
  8
0
 62
7
100
AcDbSpline
 70
8
 71
3
 72
8
 73
4
 74
0
 40
0
 40
0
 40
0
 40
0
 40
1
 40
1
 40
1
 40
1
 10
191.575211
 20
364.750094
 30
0.0
 10
191.575175
 20
365.440498
 30
0.0
 10
192.134893
 20
366.000183
 30
0.0
 10
192.825243
 20
366.000145
 30
0.0
  0
LINE
  5
3f4
100
AcDbEntity
  8
0
 62
7
100
AcDbLine
 10
192.825243
 20
366.000145
 30
0.0
 11
193.825192
 21
366.000145
 31
0.0
  0
SPLINE
  5
3f5
100
AcDbEntity
  8
0
 62
7
100
AcDbSpline
 70
8
 71
3
 72
8
 73
4
 74
0
 40
0
 40
0
 40
0
 40
0
 40
1
 40
1
 40
1
 40
1
 10
193.825192
 20
366.000145
 30
0.0
 10
194.515578
 20
366.000162
 30
0.0
 10
195.075295
 20
365.440480
 30
0.0
 10
195.075260
 20
364.750094
 30
0.0
  0
SPLINE
  5
3f6
100
AcDbEntity
  8
0
 62
7
100
AcDbSpline
 70
8
 71
3
 72
8
 73
4
 74
0
 40
0
 40
0
 40
0
 40
0
 40
1
 40
1
 40
1
 40
1
 10
195.075260
 20
364.750094
 30
0.0
 10
195.075295
 20
364.059705
 30
0.0
 10
194.515578
 20
363.500023
 30
0.0
 10
193.825192
 20
363.500040
 30
0.0
  0
LINE
  5
3f7
100
AcDbEntity
  8
0
 62
7
100
AcDbLine
 10
193.825192
 20
363.500040
 30
0.0
 11
192.825243
 21
363.500040
 31
0.0
  0
SPLINE
  5
3f8
100
AcDbEntity
  8
0
 62
7
100
AcDbSpline
 70
8
 71
3
 72
8
 73
4
 74
0
 40
0
 40
0
 40
0
 40
0
 40
1
 40
1
 40
1
 40
1
 10
192.825243
 20
363.500040
 30
0.0
 10
192.134893
 20
363.500001
 30
0.0
 10
191.575175
 20
364.059690
 30
0.0
 10
191.575211
 20
364.750094
 30
0.0
  0
LINE
  5
3f9
100
AcDbEntity
  8
0
 62
7
100
AcDbLine
 10
191.575211
 20
364.750094
 30
0.0
 11
191.575211
 21
364.750094
 31
0.0
  0
ENDSEC
  0
SECTION
  2
OBJECTS
  0
DICTIONARY
  5
C
330
0
100
AcDbDictionary
  3
ACAD_GROUP
350
D
  3
ACAD_MLINESTYLE
350
17
  0
DICTIONARY
  5
D
330
C
100
AcDbDictionary
  0
DICTIONARY
  5
1A
330
C
100
AcDbDictionary
  0
DICTIONARY
  5
17
330
C
100
AcDbDictionary
  3
STANDARD
350
18
  0
DICTIONARY
  5
19
330
C
100
AcDbDictionary
  0
ENDSEC
  0
EOF
