<?xml version="1.0" encoding="UTF-8" standalone="no"?>
<!-- Created with Inkscape (http://www.inkscape.org/) -->

<svg
   xmlns:dc="http://purl.org/dc/elements/1.1/"
   xmlns:cc="http://creativecommons.org/ns#"
   xmlns:rdf="http://www.w3.org/1999/02/22-rdf-syntax-ns#"
   xmlns:svg="http://www.w3.org/2000/svg"
   xmlns="http://www.w3.org/2000/svg"
   xmlns:sodipodi="http://sodipodi.sourceforge.net/DTD/sodipodi-0.dtd"
   xmlns:inkscape="http://www.inkscape.org/namespaces/inkscape"
   width="210mm"
   height="297mm"
   viewBox="0 0 210 297"
   version="1.1"
   id="svg1453"
   inkscape:version="0.92.3 (2405546, 2018-03-11)"
   sodipodi:docname="gehaeuse.svg">
  <defs
     id="defs1447" />
  <sodipodi:namedview
     id="base"
     pagecolor="#ffffff"
     bordercolor="#666666"
     borderopacity="1.0"
     inkscape:pageopacity="0.0"
     inkscape:pageshadow="2"
     inkscape:zoom="0.49497475"
     inkscape:cx="132.61012"
     inkscape:cy="628.45218"
     inkscape:document-units="mm"
     inkscape:current-layer="layer1"
     showgrid="true"
     inkscape:snap-bbox="true"
     inkscape:snap-bbox-midpoints="true"
     inkscape:window-width="1920"
     inkscape:window-height="1021"
     inkscape:window-x="0"
     inkscape:window-y="0"
     inkscape:window-maximized="1"
     inkscape:object-paths="true"
     inkscape:snap-intersection-paths="true"
     inkscape:snap-midpoints="true"
     inkscape:snap-smooth-nodes="true">
    <inkscape:grid
       type="xygrid"
       id="grid1998" />
  </sodipodi:namedview>
  <metadata
     id="metadata1450">
    <rdf:RDF>
      <cc:Work
         rdf:about="">
        <dc:format>image/svg+xml</dc:format>
        <dc:type
           rdf:resource="http://purl.org/dc/dcmitype/StillImage" />
        <dc:title />
      </cc:Work>
    </rdf:RDF>
  </metadata>
  <g
     inkscape:label="Layer 1"
     inkscape:groupmode="layer"
     id="layer1">
    <path
       style="opacity:0.85199998;fill:#150bee;fill-opacity:0.50226249;fill-rule:evenodd;stroke:none;stroke-width:1;stroke-linecap:round;stroke-linejoin:round;stroke-miterlimit:4;stroke-dasharray:none;stroke-opacity:1"
       d="m 35.00018,97 v 4.00027 H 17.00025 11.0001 v 9.99991 h 4.00027 v 9.9999 H 11.0001 v 9.99991 h 6.00015 17.99993 v 4.00027 H 55 v -4.00027 h 20.00032 v 4.00027 h 19.99982 v -4.00027 h 17.99993 2.0004 3.99975 v -9.99991 h -3.99975 v -9.9999 h 3.99975 v -9.99991 H 115.00047 95.00014 V 97 H 75.00032 v 4.00027 H 55 V 97 Z m -4.99969,8.99996 a 10,10 0 0 1 9.9999,9.99991 10,10 0 0 1 -9.9999,10.00043 10,10 0 0 1 -10.00042,-10.00043 10,10 0 0 1 10.00042,-9.99991 z m 23.33294,0 a 10,10 0 0 1 9.99991,9.99991 10,10 0 0 1 -9.99991,10.00043 10,10 0 0 1 -9.9999,-10.00043 10,10 0 0 1 9.9999,-9.99991 z m 23.33346,0 a 10,10 0 0 1 9.99991,9.99991 10,10 0 0 1 -9.99991,10.00043 10,10 0 0 1 -9.99991,-10.00043 10,10 0 0 1 9.99991,-9.99991 z m 23.33346,0 a 10,10 0 0 1 9.99991,9.99991 10,10 0 0 1 -9.99991,10.00043 10,10 0 0 1 -9.99991,-10.00043 10,10 0 0 1 9.99991,-9.99991 z"
       id="path2004"
       inkscape:connector-curvature="0" />
    <path
       style="opacity:0.85199998;fill:#ee0b0b;fill-opacity:0.50226249;fill-rule:evenodd;stroke:none;stroke-width:1;stroke-linecap:round;stroke-linejoin:round;stroke-miterlimit:4;stroke-dasharray:none;stroke-opacity:1"
       d="m 26.000219,3.0000553 c -9.999999,0 -15.000117,5.0001185 -15.000117,15.0001177 v 8.999967 15.000119 h 4.000272 v 9.999906 h -4.000272 v 15.000118 h 4.000272 v 9.999905 H 11.000102 V 97 v 4.00027 h 8.999967 15.000117 V 97 H 55 v 4.00027 H 75.000328 V 97 h 19.999814 v 4.00027 h 20.000328 3.99976 V 92.500017 77.000188 h -3.99976 v -9.999905 h 3.99976 V 52.000165 h -3.99976 v -9.999906 h 3.99976 V 22.000446 18.000173 c 0,-9.9999992 -5.00012,-15.0001178 -15.00012,-15.0001177 z m -6.00015,8.0000287 a 2,2 0 0 1 2.000395,1.999878 2,2 0 0 1 -2.000395,2.000394 2,2 0 0 1 -1.999878,-2.000394 2,2 0 0 1 1.999878,-1.999878 z m 90.000191,0 a 1.9999999,1.9999999 0 0 1 1.99988,1.999878 1.9999999,1.9999999 0 0 1 -1.99988,2.000394 1.9999999,1.9999999 0 0 1 -1.99988,-2.000394 1.9999999,1.9999999 0 0 1 1.99988,-1.999878 z M 35.000186,18.000173 H 55 v 4.000273 H 35.000186 Z m 40.000142,0 h 19.999814 v 4.000273 H 75.000328 Z"
       id="circle2022"
       inkscape:connector-curvature="0" />
    <g
       id="g846"
       transform="rotate(-90,-79.499643,26.499994)">
      <path
         inkscape:connector-curvature="0"
         id="circle2014"
         d="m -188.00009,32.999916 v 4.000272 h -9.9999 V 57 h -4.00027 v 9.999908 h 4.00027 v 15.000118 h -4.00027 v 9.999906 h 4.00027 v 19.999808 h 9.9999 v 4.00028 h 9.99991 v -4.00028 h 9.99991 V 91.999932 H -164 v -9.999906 h -4.00027 V 76.39985 h -4.85035 v 1.250053 h -2.2996 V 76.39985 h -2.85048 v -2.799828 h 2.85048 v -1.250053 h 2.2996 v 1.250053 h 4.85035 V 66.999908 H -164 V 57 h -4.00027 V 37.000188 h -9.99991 v -4.000272 z m 4.9997,12.999722 a 5.9999998,5.9999998 0 0 1 6.00015,6.000152 5.9999998,5.9999998 0 0 1 -6.00015,6.00015 5.9999998,5.9999998 0 0 1 -6.00015,-6.00015 5.9999998,5.9999998 0 0 1 6.00015,-6.000152 z m -4.9997,16.000058 a 5,12.499999 0 0 1 4.9997,12.500012 5,12.499999 0 0 1 -4.9997,12.500012 5,12.499999 0 0 1 -5.00021,-12.500012 5,12.499999 0 0 1 5.00021,-12.500012 z m 4.9997,29.000296 a 5.9999998,5.9999998 0 0 1 6.00015,5.999634 5.9999998,5.9999998 0 0 1 -6.00015,6.000154 5.9999998,5.9999998 0 0 1 -6.00015,-6.000154 5.9999998,5.9999998 0 0 1 6.00015,-5.999634 z"
         style="opacity:0.85199998;fill:#ee0beb;fill-opacity:0.50226249;fill-rule:evenodd;stroke:none;stroke-width:1;stroke-linecap:round;stroke-linejoin:round;stroke-miterlimit:4;stroke-dasharray:none;stroke-opacity:1" />
      <path
         id="rect2165"
         transform="scale(0.26458333)"
         d="m -619.8418,124.72266 v 90.70898 h 15.11719 v 37.79492 h -15.11719 c -15.11852,2.8e-4 -15.11852,56.69319 0,56.69336 h 15.11719 v 37.79492 h -15.11719 v 90.70899 h 15.11719 37.79688 29.43945 8.35547 v -15.11914 h 75.58984 v 15.11914 h 75.5918 v -15.11914 h 75.58984 v 15.11914 h 37.79492 37.79688 15.11719 v -90.70899 h -15.11719 v -37.79492 h 15.11719 c 15.1189,-1.7e-4 15.1189,-56.69308 0,-56.69336 h -15.11719 v -37.79492 h 15.11719 v -90.70898 h -15.11719 -37.79688 -37.79492 v 15.11914 h -75.58984 v -15.11914 h -75.5918 v 15.11914 h -75.58984 v -15.11914 h -37.79492 -37.79688 z m 7.5586,153.07031 c 3.13156,-3.5e-4 5.67026,2.53837 5.66992,5.66992 3.4e-4,3.13156 -2.53836,5.67027 -5.66992,5.66992 -3.13157,3.5e-4 -5.67027,-2.53836 -5.66992,-5.66992 -3.5e-4,-3.13155 2.53835,-5.67027 5.66992,-5.66992 z m 393.07226,0 c 3.13161,-4e-4 5.67026,2.53833 5.66992,5.66992 3.4e-4,3.13159 -2.53831,5.67032 -5.66992,5.66992 -3.13156,3.4e-4 -5.67026,-2.53837 -5.66992,-5.66992 -3.4e-4,-3.13154 2.53839,-5.67025 5.66992,-5.66992 z m -118.30078,85.04101 h 84.2832 v 45.35547 h -84.2832 z m -10.20508,20.78711 a 1.8897638,1.8897638 0 0 1 1.89063,1.89063 1.8897638,1.8897638 0 0 1 -1.89063,1.89062 1.8897638,1.8897638 0 0 1 -1.88867,-1.89062 1.8897638,1.8897638 0 0 1 1.88867,-1.89063 z m 103.9375,0 a 1.8897638,1.8897638 0 0 1 1.88868,1.89063 1.8897638,1.8897638 0 0 1 -1.88868,1.89062 1.8897638,1.8897638 0 0 1 -1.89062,-1.89062 1.8897638,1.8897638 0 0 1 1.89062,-1.89063 z"
         style="opacity:0.85199998;fill:#2bee0b;fill-opacity:0.50226249;fill-rule:evenodd;stroke:none;stroke-width:3.77952766;stroke-linecap:round;stroke-linejoin:round;stroke-miterlimit:4;stroke-dasharray:none;stroke-opacity:1"
         inkscape:connector-curvature="0" />
      <path
         inkscape:connector-curvature="0"
         id="path831"
         d="m -139.99996,-1.000264 v 4.0002726 h -17.99993 -6.00015 -30.00024 a 14.999999,14.999999 0 0 0 -15.00011,15.0001174 14.999999,14.999999 0 0 0 15.00011,14.999602 h 30.00024 6.00015 17.99993 V 37 h 19.99982 v -4.000272 h 19.99981 V 37 H -80 v -4.000272 h 17.999932 2.000396 3.99924 v -9.999907 h -3.99924 v -9.999906 h 3.99924 V 3.0000086 H -59.999672 -80 V -1.000264 h -20.00033 v 4.0002726 h -19.99981 V -1.000264 Z m -4.99969,8.9999673 a 10,10 0 0 1 9.99939,9.9999067 10,10 0 0 1 -9.99939,10.000423 10,10 0 0 1 -10.00042,-10.000423 10,10 0 0 1 10.00042,-9.9999067 z m 23.33294,0 a 10,10 0 0 1 9.99991,9.9999067 10,10 0 0 1 -9.99991,10.000423 10,10 0 0 1 -9.99991,-10.000423 10,10 0 0 1 9.99991,-9.9999067 z m 23.333461,0 a 10,10 0 0 1 9.999906,9.9999067 10,10 0 0 1 -9.999906,10.000423 10,10 0 0 1 -10.000421,-10.000423 10,10 0 0 1 10.000421,-9.9999067 z m 23.333459,0 a 10,10 0 0 1 9.999905,9.9999067 10,10 0 0 1 -9.999905,10.000423 10,10 0 0 1 -9.999906,-10.000423 10,10 0 0 1 9.999906,-9.9999067 z m -89.00025,5.0002117 h 4.00027 v 9.999906 h -4.00027 z m -37.50004,3.500045 h 25.00003 v 2.999816 h -25.00003 z"
         style="opacity:0.85199998;fill:#0b19ee;fill-opacity:0.50226249;fill-rule:evenodd;stroke:none;stroke-width:1;stroke-linecap:round;stroke-linejoin:round;stroke-miterlimit:4;stroke-dasharray:none;stroke-opacity:1" />
    </g>
    <path
       style="opacity:0.85199998;fill:#ee0bd6;fill-opacity:0.50226249;fill-rule:evenodd;stroke:none;stroke-width:1;stroke-linecap:round;stroke-linejoin:round;stroke-miterlimit:4;stroke-dasharray:none;stroke-opacity:1"
       d="m 129.00018,17.99992 v 4.00027 h -9.99991 V 42 H 115 v 9.99991 h 4.00027 v 6.60011 h 4.85035 v -1.25005 h 2.2996 v 1.25005 h 2.85047 v 2.79983 h -2.85047 v 1.25006 h -2.2996 v -1.25006 h -4.85035 v 5.60018 H 115 v 9.9999 h 4.00027 v 19.99982 h 9.99991 v 4.00027 h 9.9999 v -4.00027 h 9.99991 V 76.99993 h 4.00027 v -9.9999 h -4.00027 V 51.99991 h 4.00027 V 42 h -4.00027 V 22.00019 h -9.99991 v -4.00027 z m 4.99969,8.99996 c 5.52285,0 9.99991,4.47706 9.99991,9.99991 0,5.52285 -4.47706,9.99991 -9.99991,9.99991 -5.52285,0 -9.9999,-4.47706 -9.9999,-9.99991 0,-5.52285 4.47705,-9.99991 9.9999,-9.99991 z m 5.2e-4,37.50004 a 5,7.5 0 0 1 4.99969,7.4998 5,7.5 0 0 1 -4.99969,7.50032 5,7.5 0 0 1 -5.00021,-7.50032 5,7.5 0 0 1 5.00021,-7.4998 z"
       id="path907"
       inkscape:connector-curvature="0" />
  </g>
</svg>
