<?xml version="1.0" encoding="UTF-8" standalone="no"?>
<!-- Created with Inkscape (http://www.inkscape.org/) -->

<svg
   xmlns:dc="http://purl.org/dc/elements/1.1/"
   xmlns:cc="http://creativecommons.org/ns#"
   xmlns:rdf="http://www.w3.org/1999/02/22-rdf-syntax-ns#"
   xmlns:svg="http://www.w3.org/2000/svg"
   xmlns="http://www.w3.org/2000/svg"
   xmlns:xlink="http://www.w3.org/1999/xlink"
   xmlns:sodipodi="http://sodipodi.sourceforge.net/DTD/sodipodi-0.dtd"
   xmlns:inkscape="http://www.inkscape.org/namespaces/inkscape"
   width="420mm"
   height="594mm"
   viewBox="0 0 420 594"
   version="1.1"
   id="svg8"
   inkscape:version="0.92.3 (2405546, 2018-03-11)"
   sodipodi:docname="zeiger.svg">
  <defs
     id="defs2">
    <marker
       inkscape:stockid="Arrow1Lstart"
       orient="auto"
       refY="0.0"
       refX="0.0"
       id="marker1227"
       style="overflow:visible"
       inkscape:isstock="true">
      <path
         id="path1225"
         d="M 0.0,0.0 L 5.0,-5.0 L -12.5,0.0 L 5.0,5.0 L 0.0,0.0 z "
         style="fill-rule:evenodd;stroke:#000000;stroke-width:1.0pt"
         transform="scale(0.8) translate(12.5,0)" />
    </marker>
    <marker
       inkscape:stockid="Arrow1Lstart"
       orient="auto"
       refY="0.0"
       refX="0.0"
       id="marker1211"
       style="overflow:visible"
       inkscape:isstock="true">
      <path
         id="path1209"
         d="M 0.0,0.0 L 5.0,-5.0 L -12.5,0.0 L 5.0,5.0 L 0.0,0.0 z "
         style="fill-rule:evenodd;stroke:#000000;stroke-width:1.0pt"
         transform="scale(0.8) translate(12.5,0)" />
    </marker>
    <marker
       inkscape:stockid="Arrow1Lstart"
       orient="auto"
       refY="0.0"
       refX="0.0"
       id="Arrow1Lstart"
       style="overflow:visible"
       inkscape:isstock="true">
      <path
         id="path939"
         d="M 0.0,0.0 L 5.0,-5.0 L -12.5,0.0 L 5.0,5.0 L 0.0,0.0 z "
         style="fill-rule:evenodd;stroke:#000000;stroke-width:1.0pt"
         transform="scale(0.8) translate(12.5,0)" />
    </marker>
  </defs>
  <sodipodi:namedview
     id="base"
     pagecolor="#ffffff"
     bordercolor="#666666"
     borderopacity="1.0"
     inkscape:pageopacity="0.0"
     inkscape:pageshadow="2"
     inkscape:zoom="11.313709"
     inkscape:cx="304.03347"
     inkscape:cy="1689.2584"
     inkscape:document-units="mm"
     inkscape:current-layer="layer1"
     showgrid="true"
     inkscape:snap-bbox="true"
     inkscape:snap-bbox-midpoints="false"
     inkscape:snap-center="true"
     inkscape:window-width="1920"
     inkscape:window-height="1021"
     inkscape:window-x="0"
     inkscape:window-y="0"
     inkscape:window-maximized="1"
     inkscape:snap-global="false"
     inkscape:snap-nodes="false">
    <inkscape:grid
       type="xygrid"
       id="grid815" />
  </sodipodi:namedview>
  <metadata
     id="metadata5">
    <rdf:RDF>
      <cc:Work
         rdf:about="">
        <dc:format>image/svg+xml</dc:format>
        <dc:type
           rdf:resource="http://purl.org/dc/dcmitype/StillImage" />
        <dc:title></dc:title>
      </cc:Work>
    </rdf:RDF>
  </metadata>
  <g
     inkscape:label="Layer 1"
     inkscape:groupmode="layer"
     id="layer1"
     transform="translate(0,297)">
    <path
       style="fill:#fcff00;fill-opacity:1;stroke:#000000;stroke-width:0.26458332px;stroke-linecap:butt;stroke-linejoin:miter;stroke-opacity:1"
       d="m 15,-153 29.999999,-15 -5,10 C 110,-158 155,-163 170,-163 c 10,0 20,0 20,5 v 10 c 0,5 -10,5 -20,5 -15,0 -65,-5 -130.000001,-5 l 5,10 z"
       id="path866"
       inkscape:connector-curvature="0"
       sodipodi:nodetypes="cccccccccc" />
    <g
       id="g1385"
       transform="translate(-4.9791759,14.390753)">
      <path
         inkscape:connector-curvature="0"
         d="m 59.670048,-168.76687 v -0.29102 h -0.06929 -0.06929 v -0.0832 -0.0831 h 0.152441 0.152438 v 0.37417 0.37418 h -0.08315 -0.08315 z m -0.609765,1.19182 c 0,-0.19864 -0.0014,-0.20788 -0.02773,-0.20788 -0.0265,0 -0.02773,0.009 -0.02773,0.20788 0,0.19862 0.0014,0.20786 0.02773,0.20786 0.0265,0 0.02773,-0.009 0.02773,-0.20786 z m -0.221732,0 v -0.37418 h 0.194017 0.194015 v 0.37418 0.37416 h -0.194015 -0.194017 z m 1.468981,1.06708 v -0.29103 h -0.0693 -0.06929 v -0.0831 -0.0831 h 0.152443 0.152442 v 0.37418 0.37416 h -0.08315 -0.08315 z m -0.235908,1.18454 c 0.04919,-0.0492 0.04762,-0.13188 -0.0036,-0.18297 -0.08368,-0.0837 -0.224249,-0.0259 -0.224249,0.0921 0,0.12368 0.13927,0.17924 0.227712,0.0908 z m -0.228464,0.1893 c -0.06309,-0.0287 -0.140784,-0.11033 -0.153624,-0.16149 l -0.0087,-0.0344 H 58.559818 57.4388 v -0.0831 -0.0832 h 1.121018 1.121018 l 0.0087,-0.0344 c 0.01282,-0.0512 0.09053,-0.13282 0.153624,-0.16149 0.03218,-0.0147 0.08763,-0.0252 0.131771,-0.0252 0.04413,0 0.0996,0.0106 0.131772,0.0252 0.0631,0.0287 0.140783,0.11034 0.153628,0.16149 l 0.0087,0.0344 h 0.511255 0.511253 v 0.0832 0.0831 h -0.511253 -0.511254 l -0.0087,0.0344 c -0.01286,0.0511 -0.09053,0.13283 -0.153628,0.16149 -0.03218,0.0146 -0.08762,0.0252 -0.131771,0.0252 -0.04413,0 -0.0996,-0.0106 -0.131773,-0.0252 z m 1.018386,0.43434 c 0.04919,-0.0492 0.04762,-0.13189 -0.0036,-0.18298 -0.08368,-0.0837 -0.22425,-0.0259 -0.22425,0.0921 0,0.12368 0.139271,0.17924 0.227713,0.0909 z m -0.228464,0.18929 c -0.0631,-0.0287 -0.140783,-0.11034 -0.153623,-0.16149 l -0.0087,-0.0344 h -1.703035 -1.703066 v -0.0831 -0.0831 h 1.703066 1.703071 l 0.0087,-0.0344 c 0.01281,-0.0512 0.09053,-0.13282 0.153623,-0.16149 0.03218,-0.0147 0.08763,-0.0252 0.131772,-0.0252 0.04413,0 0.0996,0.0106 0.131775,0.0252 0.0631,0.0287 0.14078,0.11033 0.153624,0.16149 l 0.0087,0.0344 h 0.275664 0.275664 v 0.0831 0.0831 h -0.275664 -0.275664 l -0.0087,0.0344 c -0.01287,0.0512 -0.09053,0.13282 -0.153624,0.16149 -0.03218,0.0147 -0.08762,0.0252 -0.131775,0.0252 -0.04413,0 -0.0996,-0.0106 -0.131772,-0.0252 z m -1.226654,0.50362 c 0.04919,-0.0492 0.04762,-0.13189 -0.0036,-0.18297 -0.08368,-0.0837 -0.22425,-0.0259 -0.22425,0.0921 0,0.12368 0.139275,0.17925 0.227717,0.0909 z m -0.228468,0.18929 c -0.06309,-0.0287 -0.14078,-0.11034 -0.153624,-0.16149 l -0.0087,-0.0344 h -1.169487 -1.169523 v -0.0831 -0.0832 h 1.169523 1.169523 l 0.0087,-0.0344 c 0.01287,-0.0512 0.09053,-0.13283 0.153624,-0.16149 0.03218,-0.0147 0.08763,-0.0252 0.131777,-0.0252 0.04413,0 0.0996,0.0106 0.13177,0.0252 0.0631,0.0287 0.140784,0.11033 0.153624,0.16149 l 0.0087,0.0344 h 1.190313 1.190308 v 0.0832 0.0831 H 60.79418 59.603867 l -0.0087,0.0344 c -0.01282,0.0512 -0.09053,0.13283 -0.153624,0.16149 -0.03218,0.0147 -0.08763,0.0252 -0.13177,0.0252 -0.04413,0 -0.0996,-0.0106 -0.131777,-0.0252 z m 3.590049,0.13041 c 0.01873,-0.0187 0.034,-0.0459 0.034,-0.0605 0,-0.0146 -0.629863,-1.12883 -1.399692,-2.47611 l -1.399685,-2.4496 v -1.0861 -1.0861 h 0.284727 0.284722 l 0.03536,-0.0354 c 0.041,-0.041 0.03668,-0.0941 -0.011,-0.13442 -0.02677,-0.0227 -0.103441,-0.0243 -1.175826,-0.0243 -1.072381,0 -1.149034,0.002 -1.175828,0.0243 -0.04768,0.0403 -0.05202,0.0934 -0.011,0.13442 l 0.03536,0.0354 h 0.284727 0.284721 v 1.0861 1.0861 l -1.399685,2.4496 c -0.769829,1.34728 -1.399686,2.46153 -1.399686,2.47611 0,0.0146 0.01532,0.0418 0.034,0.0605 l 0.034,0.034 h 3.313389 3.313394 z m -6.747888,0.23539 c -0.06801,-0.0242 -0.139197,-0.0928 -0.176681,-0.17028 -0.02273,-0.0469 -0.02795,-0.0791 -0.02363,-0.14611 0.0055,-0.0853 0.01595,-0.10427 1.401253,-2.52841 l 1.395768,-2.4425 v -0.94239 -0.9424 H 58.42237 c -0.210101,0 -0.250311,-0.009 -0.329296,-0.0759 -0.07212,-0.0608 -0.105768,-0.13807 -0.105768,-0.24287 0,-0.14069 0.05867,-0.23212 0.186062,-0.28986 0.06121,-0.0277 0.08422,-0.0283 1.247243,-0.0283 1.163032,0 1.186035,4.5e-4 1.247249,0.0283 0.12738,0.0577 0.186062,0.14917 0.186062,0.28986 0,0.1048 -0.03363,0.18206 -0.105769,0.24287 -0.07899,0.0666 -0.119199,0.0759 -0.3293,0.0759 h -0.194462 v 0.9424 0.94239 l 1.395768,2.4425 c 1.385288,2.42414 1.39581,2.44313 1.401259,2.52841 0.0045,0.0677 -8.67e-4,0.0991 -0.02459,0.14809 -0.03791,0.0784 -0.121553,0.15471 -0.190328,0.1738 -0.03668,0.0102 -1.079232,0.0146 -3.392798,0.0141 -2.805076,-4.5e-4 -3.34845,-0.003 -3.393551,-0.0197 z"
         style="fill:#000000;stroke-width:0.01385829"
         id="path965" />
      <path
         d="m 144.94641,-163.99848 v -0.50215 h -0.7372 v -2.76717 c 0,-1.12182 -0.57694,-1.5385 -1.64534,-1.5385 -1.02567,0 -1.57055,0.61968 -1.8056,1.02567 h -0.0107 v -3.63257 l -1.89108,0.0855 v 0.50215 c 0.66241,0 0.7372,0 0.7372,0.41668 v 5.90827 h -0.7372 v 0.50215 l 1.34619,-0.0321 1.34619,0.0321 v -0.50215 h -0.7372 v -2.23297 c 0,-1.16455 0.91883,-1.68807 1.59192,-1.68807 0.36326,0 0.58762,0.22436 0.58762,1.03635 v 2.88469 h -0.7372 v 0.50215 l 1.34619,-0.0321 z m -6.69722,-1.25004 c 0,-0.14957 -0.14957,-0.14957 -0.25641,-0.14957 -0.19232,0 -0.203,0.0214 -0.25642,0.16026 -0.27779,0.67309 -0.79062,0.87609 -1.3355,0.87609 -1.48508,0 -1.48508,-1.57055 -1.48508,-2.06202 0,-0.5983 0,-1.98723 1.37824,-1.98723 0.37394,0 0.55556,0.032 0.69446,0.0641 -0.19232,0.17094 -0.21368,0.39531 -0.21368,0.49146 0,0.4701 0.37394,0.6731 0.66241,0.6731 0.3312,0 0.67309,-0.22437 0.67309,-0.6731 0,-0.91882 -1.23935,-0.98293 -1.85902,-0.98293 -1.91244,0 -2.70306,1.22866 -2.70306,2.46801 0,1.42098 1.0043,2.43596 2.64964,2.43596 1.73081,0 2.05133,-1.23935 2.05133,-1.31414 z m -6.07637,0.41668 c 0,-0.45941 -0.37395,-0.83335 -0.83336,-0.83335 -0.45941,0 -0.83335,0.37394 -0.83335,0.83335 0,0.45941 0.37394,0.83336 0.83335,0.83336 0.45941,0 0.83336,-0.37395 0.83336,-0.83336 z m -3.04545,-1.54918 c 0,-1.42098 -1.0043,-2.42528 -2.55348,-2.42528 -0.77994,0 -1.31414,0.30984 -1.57056,0.52352 v -3.13042 l -1.89107,0.0855 v 0.50215 c 0.66241,0 0.7372,0 0.7372,0.41668 v 6.41042 h 0.50215 c 0.17094,-0.203 0.35257,-0.39531 0.52352,-0.59831 0.0855,0.0855 0.60899,0.66241 1.55986,0.66241 1.59192,0 2.69238,-0.96156 2.69238,-2.44664 z m -1.36756,0 c 0,0.50215 0,1.08977 -0.27778,1.50645 -0.30984,0.43804 -0.8013,0.55556 -1.14319,0.55556 -0.74788,0 -1.16456,-0.57693 -1.2714,-0.73719 v -2.68169 c 0.28847,-0.37394 0.8013,-0.68378 1.38892,-0.68378 1.30345,0 1.30345,1.29277 1.30345,2.04065 z m -5.20279,2.12612 c 0,-0.24573 -0.13889,-0.24573 -0.27778,-0.24573 -0.65173,-0.0107 -0.65173,-0.14958 -0.65173,-0.39531 v -2.29707 c 0,-0.95088 -0.75856,-1.64534 -2.35048,-1.64534 -0.60899,0 -1.91244,0.0427 -1.91244,0.98293 0,0.4701 0.37394,0.6731 0.66241,0.6731 0.3312,0 0.67309,-0.22437 0.67309,-0.6731 0,-0.32052 -0.203,-0.50215 -0.23505,-0.52352 0.29916,-0.0641 0.64104,-0.0748 0.76925,-0.0748 0.8013,0 1.17525,0.44873 1.17525,1.26071 v 0.36326 c -0.75857,0.032 -3.47231,0.12821 -3.47231,1.67739 0,1.02567 1.32482,1.21798 2.06201,1.21798 0.85473,0 1.35688,-0.43805 1.59192,-0.88677 0,0.3312 0,0.82267 1.11114,0.82267 h 0.51284 c 0.21368,0 0.34188,0 0.34188,-0.25642 z m -2.14748,-1.22866 c 0,1.02566 -0.98294,1.16455 -1.25004,1.16455 -0.54488,0 -0.97224,-0.37394 -0.97224,-0.84403 0,-1.15388 1.68807,-1.30345 2.22228,-1.33551 z m -4.13188,1.48508 v -0.50215 h -0.7372 v -6.91257 l -1.89107,0.0855 v 0.50215 c 0.6624,0 0.73719,0 0.73719,0.41668 v 5.90827 h -0.73719 v 0.50215 l 1.31413,-0.0321 z m -3.92304,-1.85903 v -1.03635 h -3.25863 v 1.03635 z m -3.7506,1.85903 v -0.50215 h -0.7372 v -2.76717 c 0,-1.12182 -0.57693,-1.5385 -1.64534,-1.5385 -1.02566,0 -1.57055,0.61968 -1.8056,1.02567 h -0.0107 v -3.63257 l -1.89107,0.0855 v 0.50215 c 0.66241,0 0.73719,0 0.73719,0.41668 v 5.90827 h -0.73719 v 0.50215 l 1.34618,-0.0321 1.34619,0.0321 v -0.50215 h -0.7372 v -2.23297 c 0,-1.16455 0.91883,-1.68807 1.59192,-1.68807 0.36326,0 0.58762,0.22436 0.58762,1.03635 v 2.88469 h -0.73719 v 0.50215 l 1.34618,-0.0321 z m -6.69722,-1.25004 c 0,-0.14957 -0.14957,-0.14957 -0.25641,-0.14957 -0.19232,0 -0.203,0.0214 -0.25642,0.16026 -0.27778,0.67309 -0.79062,0.87609 -1.3355,0.87609 -1.485083,0 -1.485083,-1.57055 -1.485083,-2.06202 0,-0.5983 0,-1.98723 1.37824,-1.98723 0.373943,0 0.555573,0.032 0.694463,0.0641 -0.19231,0.17094 -0.21368,0.39531 -0.21368,0.49146 0,0.4701 0.37394,0.6731 0.66241,0.6731 0.3312,0 0.67309,-0.22437 0.67309,-0.6731 0,-0.91882 -1.23935,-0.98293 -1.859019,-0.98293 -1.912441,0 -2.703059,1.22866 -2.703059,2.46801 0,1.42098 1.004299,2.43596 2.649639,2.43596 1.730809,0 2.051329,-1.23935 2.051329,-1.31414 z m -5.563368,0 c 0,-0.19231 -0.202996,-0.19231 -0.256416,-0.19231 -0.181629,0 -0.202997,0.0534 -0.267101,0.22437 -0.224365,0.51283 -0.833354,0.85472 -1.527816,0.85472 -1.506448,0 -1.517132,-1.42098 -1.517132,-1.96586 h 3.226576 c 0.235049,0 0.341889,0 0.341889,-0.28847 0,-0.33121 -0.0641,-1.11114 -0.598305,-1.64534 -0.395309,-0.38463 -0.961563,-0.57694 -1.69876,-0.57694 -1.709445,0 -2.638955,1.10046 -2.638955,2.43596 0,1.43166 1.068403,2.46801 2.788531,2.46801 1.688076,0 2.147489,-1.13251 2.147489,-1.31414 z m -1.014982,-1.43166 h -2.553483 c 0.02137,-0.41667 0.03205,-0.8654 0.256417,-1.21797 0.277785,-0.42737 0.705146,-0.55557 1.014983,-0.55557 1.250031,0 1.271399,1.3996 1.282083,1.77354 z m -5.06039,1.35688 v -0.56626 h -0.502149 v 0.54489 c 0,0.72651 -0.341889,0.98293 -0.641042,0.98293 -0.619673,0 -0.619673,-0.68378 -0.619673,-0.92951 v -2.94879 h 1.559868 v -0.50215 h -1.559868 v -2.04065 h -0.50215 c -0.01068,1.0684 -0.534201,2.12612 -1.59192,2.15817 v 0.38463 h 0.876091 v 2.92742 c 0,1.14319 0.92951,1.37824 1.688076,1.37824 0.811986,0 1.292767,-0.60899 1.292767,-1.38892 z m -5.050706,0.49146 c 0,-0.45941 -0.373941,-0.83335 -0.833354,-0.83335 -0.459413,0 -0.833354,0.37394 -0.833354,0.83335 0,0.45941 0.373941,0.83336 0.833354,0.83336 0.459413,0 0.833354,-0.37395 0.833354,-0.83336 z m -3.243604,-1.5385 h -0.502149 c -0.03205,0.21368 -0.128208,0.89746 -0.277785,0.97225 -0.117524,0.0641 -0.918826,0.0641 -1.08977,0.0641 h -1.570552 c 0.502149,-0.41667 1.057718,-0.87609 1.5385,-1.22866 1.217979,-0.89746 1.901756,-1.39961 1.901756,-2.41459 0,-1.22866 -1.111138,-2.01928 -2.617586,-2.01928 -1.292767,0 -2.297066,0.66241 -2.297066,1.62397 0,0.63036 0.512833,0.79062 0.76925,0.79062 0.341889,0 0.76925,-0.23505 0.76925,-0.76925 0,-0.55557 -0.448729,-0.72652 -0.60899,-0.76925 0.309837,-0.25642 0.71583,-0.37394 1.100455,-0.37394 0.918826,0 1.410292,0.72651 1.410292,1.52781 0,0.7372 -0.405993,1.46371 -1.153875,2.22228 l -2.14749,2.19023 c -0.138892,0.1282 -0.138892,0.14957 -0.138892,0.36325 v 0.19232 h 4.583448 z m -5.96803,0.0427 c 0,-1.43166 -0.98293,-2.51075 -2.724427,-2.51075 -1.75218,0 -2.724426,1.08977 -2.724426,2.51075 0,1.32482 0.940194,2.39322 2.724426,2.39322 1.794917,0 2.724427,-1.07909 2.724427,-2.39322 z m -1.367555,-0.11753 c 0,0.92951 0,2.08339 -1.356872,2.08339 -1.356871,0 -1.356871,-1.15388 -1.356871,-2.08339 0,-0.48078 0,-1.02566 0.181628,-1.38892 0.202997,-0.39531 0.651726,-0.61967 1.175243,-0.61967 0.44873,0 0.897459,0.17094 1.132507,0.54488 0.224365,0.36326 0.224365,0.95088 0.224365,1.46371 z m -4.883602,1.19661 c 0,-0.14957 -0.149576,-0.14957 -0.256417,-0.14957 -0.192312,0 -0.202996,0.0214 -0.256416,0.16026 -0.277785,0.67309 -0.790618,0.87609 -1.335504,0.87609 -1.485079,0 -1.485079,-1.57055 -1.485079,-2.06202 0,-0.5983 0,-1.98723 1.378239,-1.98723 0.373941,0 0.55557,0.032 0.694462,0.0641 -0.192313,0.17094 -0.213681,0.39531 -0.213681,0.49146 0,0.4701 0.373941,0.6731 0.66241,0.6731 0.331205,0 0.673094,-0.22437 0.673094,-0.6731 0,-0.91882 -1.239347,-0.98293 -1.859021,-0.98293 -1.912441,0 -2.703059,1.22866 -2.703059,2.46801 0,1.42098 1.004299,2.43596 2.649639,2.43596 1.730812,0 2.051333,-1.23935 2.051333,-1.31414 z"
         style="font-style:normal;font-variant:normal;font-weight:bold;font-stretch:normal;font-size:medium;line-height:1;font-family:'Latin Modern Roman';-inkscape-font-specification:'Latin Modern Roman,  Bold';letter-spacing:0.10016273px;word-spacing:0px;fill:#000000;fill-opacity:1;stroke:none;stroke-width:1.00162745"
         id="path1363"
         inkscape:connector-curvature="0" />
      <use
         height="100%"
         width="100%"
         transform="matrix(1.5395544,0,0,1.5395544,60.631192,89.882111)"
         id="use1329"
         xlink:href="#path965"
         y="0"
         x="0" />
    </g>
    <use
       id="use1395"
       inkscape:spray-origin="#path951"
       xlink:href="#path951"
       x="0"
       y="0"
       width="100%"
       height="100%"
       transform="translate(-141.98166,-9.2336352)" />
    <use
       id="use1397"
       inkscape:spray-origin="#path951"
       xlink:href="#path951"
       x="0"
       y="0"
       width="100%"
       height="100%"
       transform="translate(-141.75161,-2.6744342)" />
    <use
       id="use1399"
       inkscape:spray-origin="#path951"
       xlink:href="#path951"
       x="0"
       y="0"
       width="100%"
       height="100%"
       transform="translate(-143.50206,-2.9494752)" />
    <use
       id="use1401"
       inkscape:spray-origin="#path951"
       xlink:href="#path951"
       x="0"
       y="0"
       width="100%"
       height="100%"
       transform="translate(-139.32768,-5.9334462)" />
    <use
       id="use1403"
       inkscape:spray-origin="#path951"
       xlink:href="#path951"
       x="0"
       y="0"
       width="100%"
       height="100%"
       transform="translate(-136.91213,-4.8277072)" />
    <use
       id="use1405"
       inkscape:spray-origin="#path951"
       xlink:href="#path951"
       x="0"
       y="0"
       width="100%"
       height="100%"
       transform="translate(-157.31109,-1.8583402)" />
    <use
       id="use1407"
       inkscape:spray-origin="#path951"
       xlink:href="#path951"
       x="0"
       y="0"
       width="100%"
       height="100%"
       transform="translate(-147.98166,2.0292348)" />
    <use
       id="use1409"
       inkscape:spray-origin="#path951"
       xlink:href="#path951"
       x="0"
       y="0"
       width="100%"
       height="100%"
       transform="translate(-152.88035,0.11655677)" />
    <use
       id="use1411"
       inkscape:spray-origin="#path951"
       xlink:href="#path951"
       x="0"
       y="0"
       width="100%"
       height="100%"
       transform="translate(-151.24318,-3.6699512)" />
    <use
       id="use1413"
       inkscape:spray-origin="#path951"
       xlink:href="#path951"
       x="0"
       y="0"
       width="100%"
       height="100%"
       transform="translate(-145.71735,4.0105978)" />
    <use
       id="use1415"
       inkscape:spray-origin="#path951"
       xlink:href="#path951"
       x="0"
       y="0"
       width="100%"
       height="100%"
       transform="translate(-143.92484,3.5739308)" />
    <use
       id="use1417"
       inkscape:spray-origin="#path951"
       xlink:href="#path951"
       x="0"
       y="0"
       width="100%"
       height="100%"
       transform="translate(-146.96575,-5.5159192)" />
    <use
       id="use1419"
       inkscape:spray-origin="#path951"
       xlink:href="#path951"
       x="0"
       y="0"
       width="100%"
       height="100%"
       transform="translate(-150.90656,2.1792628)" />
    <use
       id="use1421"
       inkscape:spray-origin="#path951"
       xlink:href="#path951"
       x="0"
       y="0"
       width="100%"
       height="100%"
       transform="translate(-137.954,-11.592478)" />
    <use
       id="use1423"
       inkscape:spray-origin="#path951"
       xlink:href="#path951"
       x="0"
       y="0"
       width="100%"
       height="100%"
       transform="translate(-144.05389,-6.9825422)" />
    <use
       id="use1425"
       inkscape:spray-origin="#path951"
       xlink:href="#path951"
       x="0"
       y="0"
       width="100%"
       height="100%"
       transform="translate(-138.94223,0.75507077)" />
    <use
       id="use1427"
       inkscape:spray-origin="#path951"
       xlink:href="#path951"
       x="0"
       y="0"
       width="100%"
       height="100%"
       transform="translate(-136.38533,9.0346188)" />
    <use
       id="use1429"
       inkscape:spray-origin="#path951"
       xlink:href="#path951"
       x="0"
       y="0"
       width="100%"
       height="100%"
       transform="translate(-136.70101,6.2574848)" />
    <use
       id="use1431"
       inkscape:spray-origin="#path951"
       xlink:href="#path951"
       x="0"
       y="0"
       width="100%"
       height="100%"
       transform="translate(-130.98166,-0.97076523)" />
    <use
       id="use1433"
       inkscape:spray-origin="#path951"
       xlink:href="#path951"
       x="0"
       y="0"
       width="100%"
       height="100%"
       transform="translate(-137.16088,0.14096777)" />
    <use
       id="use1435"
       inkscape:spray-origin="#path951"
       xlink:href="#path951"
       x="0"
       y="0"
       width="100%"
       height="100%"
       transform="translate(-128.45361,-4.0542812)" />
    <use
       id="use1437"
       inkscape:spray-origin="#path951"
       xlink:href="#path951"
       x="0"
       y="0"
       width="100%"
       height="100%"
       transform="translate(-130.67454,1.9436408)" />
    <use
       id="use1439"
       inkscape:spray-origin="#path951"
       xlink:href="#path951"
       x="0"
       y="0"
       width="100%"
       height="100%"
       transform="translate(-125.88871,-5.0787312)" />
    <use
       id="use1441"
       inkscape:spray-origin="#path951"
       xlink:href="#path951"
       x="0"
       y="0"
       width="100%"
       height="100%"
       transform="translate(-132.497,-4.6324992)" />
    <use
       id="use1443"
       inkscape:spray-origin="#path951"
       xlink:href="#path951"
       x="0"
       y="0"
       width="100%"
       height="100%"
       transform="translate(-140.55279,6.4612388)" />
    <use
       id="use1445"
       inkscape:spray-origin="#path951"
       xlink:href="#path951"
       x="0"
       y="0"
       width="100%"
       height="100%"
       transform="translate(-141.58154,1.9119038)" />
    <use
       id="use1447"
       inkscape:spray-origin="#path951"
       xlink:href="#path951"
       x="0"
       y="0"
       width="100%"
       height="100%"
       transform="translate(-135.29287,0.30634077)" />
    <use
       id="use1449"
       inkscape:spray-origin="#path951"
       xlink:href="#path951"
       x="0"
       y="0"
       width="100%"
       height="100%"
       transform="translate(-148.7371,-5.9817412)" />
    <use
       id="use1451"
       inkscape:spray-origin="#path951"
       xlink:href="#path951"
       x="0"
       y="0"
       width="100%"
       height="100%"
       transform="translate(-134.98166,-12.970765)" />
    <use
       id="use1453"
       inkscape:spray-origin="#path951"
       xlink:href="#path951"
       x="0"
       y="0"
       width="100%"
       height="100%"
       transform="translate(-146.32646,-0.80603823)" />
    <use
       id="use1455"
       inkscape:spray-origin="#path951"
       xlink:href="#path951"
       x="0"
       y="0"
       width="100%"
       height="100%"
       transform="translate(-5.6677624,6.5211958)" />
    <use
       id="use1457"
       inkscape:spray-origin="#path951"
       xlink:href="#path951"
       x="0"
       y="0"
       width="100%"
       height="100%"
       transform="translate(-10.745526,0.01908677)" />
    <use
       id="use1461"
       inkscape:spray-origin="#path951"
       xlink:href="#path951"
       x="0"
       y="0"
       width="100%"
       height="100%"
       transform="translate(5.3674901,6.8464388)" />
    <use
       id="use1463"
       inkscape:spray-origin="#path951"
       xlink:href="#path951"
       x="0"
       y="0"
       width="100%"
       height="100%"
       transform="translate(7.2886781,5.3789068)" />
    <use
       id="use1465"
       inkscape:spray-origin="#path951"
       xlink:href="#path951"
       x="0"
       y="0"
       width="100%"
       height="100%"
       transform="translate(10.962125,3.4228048)" />
    <use
       id="use1467"
       inkscape:spray-origin="#path951"
       xlink:href="#path951"
       x="0"
       y="0"
       width="100%"
       height="100%"
       transform="translate(7.5616081,-0.98487623)" />
    <use
       id="use1469"
       inkscape:spray-origin="#path951"
       xlink:href="#path951"
       x="0"
       y="0"
       width="100%"
       height="100%"
       transform="translate(12.852491,1.9017748)" />
    <use
       id="use1471"
       inkscape:spray-origin="#path951"
       xlink:href="#path951"
       x="0"
       y="0"
       width="100%"
       height="100%"
       transform="translate(5.5562361,-3.7334002)" />
    <use
       id="use1473"
       inkscape:spray-origin="#path951"
       xlink:href="#path951"
       x="0"
       y="0"
       width="100%"
       height="100%"
       transform="translate(3.4741351,-0.47101923)" />
    <use
       id="use1475"
       inkscape:spray-origin="#path951"
       xlink:href="#path951"
       x="0"
       y="0"
       width="100%"
       height="100%"
       transform="translate(10.737086,-1.2312602)" />
    <use
       id="use1479"
       inkscape:spray-origin="#path951"
       xlink:href="#path951"
       x="0"
       y="0"
       width="100%"
       height="100%"
       transform="translate(-11.247156,5.0391088)" />
    <use
       id="use1481"
       inkscape:spray-origin="#path951"
       xlink:href="#path951"
       x="0"
       y="0"
       width="100%"
       height="100%"
       transform="translate(-4.724405,2.397795)" />
    <use
       id="use1483"
       inkscape:spray-origin="#path951"
       xlink:href="#path951"
       x="0"
       y="0"
       width="100%"
       height="100%"
       transform="translate(-8.7568956,6.1189088)" />
    <use
       id="use1485"
       inkscape:spray-origin="#path951"
       xlink:href="#path951"
       x="0"
       y="0"
       width="100%"
       height="100%"
       transform="translate(3.0183411,-3.2336352)" />
    <use
       id="use1489"
       inkscape:spray-origin="#path951"
       xlink:href="#path951"
       x="0"
       y="0"
       width="100%"
       height="100%"
       transform="translate(-5.6358703,-7.5932702)" />
    <use
       id="use1491"
       inkscape:spray-origin="#path951"
       xlink:href="#path951"
       x="0"
       y="0"
       width="100%"
       height="100%"
       transform="translate(-8.5361362,-4.2764722)" />
    <use
       id="use1493"
       inkscape:spray-origin="#path951"
       xlink:href="#path951"
       x="0"
       y="0"
       width="100%"
       height="100%"
       transform="translate(-8.2954393,-10.280058)" />
    <use
       id="use1495"
       inkscape:spray-origin="#path951"
       xlink:href="#path951"
       x="0"
       y="0"
       width="100%"
       height="100%"
       transform="translate(-8.5876376,0.44150177)" />
    <use
       id="use1497"
       inkscape:spray-origin="#path951"
       xlink:href="#path951"
       x="0"
       y="0"
       width="100%"
       height="100%"
       transform="translate(-12.599536,0.26669377)" />
    <use
       id="use1499"
       inkscape:spray-origin="#path951"
       xlink:href="#path951"
       x="0"
       y="0"
       width="100%"
       height="100%"
       transform="translate(-14.354725,-3.0378152)" />
    <use
       id="use1501"
       inkscape:spray-origin="#path951"
       xlink:href="#path951"
       x="0"
       y="0"
       width="100%"
       height="100%"
       transform="translate(-18.178007,-4.7187822)" />
    <use
       id="use1503"
       inkscape:spray-origin="#path951"
       xlink:href="#path951"
       x="0"
       y="0"
       width="100%"
       height="100%"
       transform="translate(-10.567325,-7.4495802)" />
    <use
       id="use1505"
       inkscape:spray-origin="#path951"
       xlink:href="#path951"
       x="0"
       y="0"
       width="100%"
       height="100%"
       transform="translate(-16.600978,-8.5517062)" />
    <use
       id="use1507"
       inkscape:spray-origin="#path951"
       xlink:href="#path951"
       x="0"
       y="0"
       width="100%"
       height="100%"
       transform="translate(-16.253957,-0.23085223)" />
    <use
       id="use1509"
       inkscape:spray-origin="#path951"
       xlink:href="#path951"
       x="0"
       y="0"
       width="100%"
       height="100%"
       transform="translate(-17.851421,1.2544048)" />
    <use
       id="use1515"
       inkscape:spray-origin="#path951"
       xlink:href="#path951"
       x="0"
       y="0"
       width="100%"
       height="100%"
       transform="translate(3.3459811,-6.9425352)" />
    <use
       id="use1517"
       inkscape:spray-origin="#path951"
       xlink:href="#path951"
       x="0"
       y="0"
       width="100%"
       height="100%"
       transform="translate(11.411465,-8.1741222)" />
    <use
       id="use1519"
       inkscape:spray-origin="#path951"
       xlink:href="#path951"
       x="0"
       y="0"
       width="100%"
       height="100%"
       transform="translate(9.7266721,-5.3850072)" />
    <use
       id="use1523"
       inkscape:spray-origin="#path951"
       xlink:href="#path951"
       x="0"
       y="0"
       width="100%"
       height="100%"
       transform="translate(-3.7244039,6.3977998)" />
    <use
       id="use1525"
       inkscape:spray-origin="#path951"
       xlink:href="#path951"
       x="0"
       y="0"
       width="100%"
       height="100%"
       transform="translate(-9.4671489,-1.2514052)" />
    <use
       id="use1527"
       inkscape:spray-origin="#path951"
       xlink:href="#path951"
       x="0"
       y="0"
       width="100%"
       height="100%"
       transform="translate(-15.701009,6.7485948)" />
    <use
       id="use1529"
       inkscape:spray-origin="#path951"
       xlink:href="#path951"
       x="0"
       y="0"
       width="100%"
       height="100%"
       transform="translate(-20.724404,3.3977998)" />
    <use
       id="use1531"
       inkscape:spray-origin="#path951"
       xlink:href="#path951"
       x="0"
       y="0"
       width="100%"
       height="100%"
       transform="translate(-20.458161,6.2534278)" />
    <use
       id="use1533"
       inkscape:spray-origin="#path951"
       xlink:href="#path951"
       x="0"
       y="0"
       width="100%"
       height="100%"
       transform="translate(-19.414226,-0.61776523)" />
    <use
       id="use1535"
       inkscape:spray-origin="#path951"
       xlink:href="#path951"
       x="0"
       y="0"
       width="100%"
       height="100%"
       transform="translate(-14.143975,6.1873338)" />
    <use
       id="use1537"
       inkscape:spray-origin="#path951"
       xlink:href="#path951"
       x="0"
       y="0"
       width="100%"
       height="100%"
       transform="translate(-21.696589,-1.8539582)" />
    <use
       id="use1539"
       inkscape:spray-origin="#path951"
       xlink:href="#path951"
       x="0"
       y="0"
       width="100%"
       height="100%"
       transform="translate(-20.849328,-6.2987002)" />
    <use
       id="use1541"
       inkscape:spray-origin="#path951"
       xlink:href="#path951"
       x="0"
       y="0"
       width="100%"
       height="100%"
       transform="translate(-23.609359,-2.3576382)" />
    <use
       id="use1543"
       inkscape:spray-origin="#path951"
       xlink:href="#path951"
       x="0"
       y="0"
       width="100%"
       height="100%"
       transform="translate(-11.701009,-6.7425152)" />
    <use
       id="use1545"
       inkscape:spray-origin="#path951"
       xlink:href="#path951"
       x="0"
       y="0"
       width="100%"
       height="100%"
       transform="translate(-19.701009,-8.7425152)" />
    <use
       id="use1547"
       inkscape:spray-origin="#path951"
       xlink:href="#path951"
       x="0"
       y="0"
       width="100%"
       height="100%"
       transform="translate(-14.65998,-10.175331)" />
    <use
       id="use1549"
       inkscape:spray-origin="#path951"
       xlink:href="#path951"
       x="0"
       y="0"
       width="100%"
       height="100%"
       transform="translate(12.607443,-3.2032112)" />
    <use
       id="use1551"
       inkscape:spray-origin="#path951"
       xlink:href="#path951"
       x="0"
       y="0"
       width="100%"
       height="100%"
       transform="translate(7.8575291,-5.3526482)" />
    <use
       id="use1553"
       inkscape:spray-origin="#path961"
       xlink:href="#path961"
       x="0"
       y="0"
       width="100%"
       height="100%"
       transform="translate(-146.60249,-3.8838146)" />
    <use
       id="use1555"
       inkscape:spray-origin="#path961"
       xlink:href="#path961"
       x="0"
       y="0"
       width="100%"
       height="100%"
       transform="translate(-142.90056,0.27845536)" />
    <use
       id="use1557"
       inkscape:spray-origin="#path961"
       xlink:href="#path961"
       x="0"
       y="0"
       width="100%"
       height="100%"
       transform="translate(-139.38238,-9.4460266)" />
    <use
       id="use1559"
       inkscape:spray-origin="#path961"
       xlink:href="#path961"
       x="0"
       y="0"
       width="100%"
       height="100%"
       transform="translate(-136.51983,-7.6391156)" />
    <use
       id="use1561"
       inkscape:spray-origin="#path961"
       xlink:href="#path961"
       x="0"
       y="0"
       width="100%"
       height="100%"
       transform="translate(-142.89306,-11.704161)" />
    <use
       id="use1563"
       inkscape:spray-origin="#path961"
       xlink:href="#path961"
       x="0"
       y="0"
       width="100%"
       height="100%"
       transform="translate(-145.67172,-11.792243)" />
    <use
       id="use1565"
       inkscape:spray-origin="#path961"
       xlink:href="#path961"
       x="0"
       y="0"
       width="100%"
       height="100%"
       transform="translate(-150.60249,-7.1467046)" />
    <use
       id="use1567"
       inkscape:spray-origin="#path961"
       xlink:href="#path961"
       x="0"
       y="0"
       width="100%"
       height="100%"
       transform="translate(-154.94766,-8.5152546)" />
    <use
       id="use1569"
       inkscape:spray-origin="#path961"
       xlink:href="#path961"
       x="0"
       y="0"
       width="100%"
       height="100%"
       transform="translate(-142.32185,-5.5152546)" />
    <use
       id="use1571"
       inkscape:spray-origin="#path961"
       xlink:href="#path961"
       x="0"
       y="0"
       width="100%"
       height="100%"
       transform="translate(-136.94766,-17.146705)" />
    <use
       id="use1573"
       inkscape:spray-origin="#path961"
       xlink:href="#path961"
       x="0"
       y="0"
       width="100%"
       height="100%"
       transform="translate(-139.87817,-15.50345)" />
    <use
       id="use1575"
       inkscape:spray-origin="#path961"
       xlink:href="#path961"
       x="0"
       y="0"
       width="100%"
       height="100%"
       transform="translate(-147.94766,-7.5152546)" />
    <use
       id="use1577"
       inkscape:spray-origin="#path961"
       xlink:href="#path961"
       x="0"
       y="0"
       width="100%"
       height="100%"
       transform="translate(-139.32185,1.4847454)" />
    <use
       id="use1579"
       inkscape:spray-origin="#path961"
       xlink:href="#path961"
       x="0"
       y="0"
       width="100%"
       height="100%"
       transform="translate(-139.94717,-3.1989026)" />
    <use
       id="use1581"
       inkscape:spray-origin="#path961"
       xlink:href="#path961"
       x="0"
       y="0"
       width="100%"
       height="100%"
       transform="translate(-134.40545,-4.4049906)" />
    <use
       id="use1583"
       inkscape:spray-origin="#path961"
       xlink:href="#path961"
       x="0"
       y="0"
       width="100%"
       height="100%"
       transform="translate(-133.9708,-9.1701066)" />
    <use
       id="use1585"
       inkscape:spray-origin="#path961"
       xlink:href="#path961"
       x="0"
       y="0"
       width="100%"
       height="100%"
       transform="translate(-129.36634,-4.5224006)" />
    <use
       id="use1587"
       inkscape:spray-origin="#path961"
       xlink:href="#path961"
       x="0"
       y="0"
       width="100%"
       height="100%"
       transform="translate(-127.44814,-9.3307506)" />
    <use
       id="use1589"
       inkscape:spray-origin="#path961"
       xlink:href="#path961"
       x="0"
       y="0"
       width="100%"
       height="100%"
       transform="translate(-130.49069,-11.434225)" />
    <use
       id="use1591"
       inkscape:spray-origin="#path961"
       xlink:href="#path961"
       x="0"
       y="0"
       width="100%"
       height="100%"
       transform="translate(-6.5981435,-3.9003836)" />
    <use
       id="use1593"
       inkscape:spray-origin="#path961"
       xlink:href="#path961"
       x="0"
       y="0"
       width="100%"
       height="100%"
       transform="translate(-18.275077,-1.5152596)" />
    <use
       id="use1595"
       inkscape:spray-origin="#path961"
       xlink:href="#path961"
       x="0"
       y="0"
       width="100%"
       height="100%"
       transform="translate(-10.321852,-1.5152546)" />
    <use
       id="use1597"
       inkscape:spray-origin="#path961"
       xlink:href="#path961"
       x="0"
       y="0"
       width="100%"
       height="100%"
       transform="translate(-8.6024921,-3.1467046)" />
    <use
       id="use1599"
       inkscape:spray-origin="#path961"
       xlink:href="#path961"
       x="0"
       y="0"
       width="100%"
       height="100%"
       transform="translate(-2.7373814,1.1012614)" />
    <use
       id="use1601"
       inkscape:spray-origin="#path961"
       xlink:href="#path961"
       x="0"
       y="0"
       width="100%"
       height="100%"
       transform="translate(-10.947662,1.4847454)" />
    <use
       id="use1605"
       inkscape:spray-origin="#path961"
       xlink:href="#path961"
       x="0"
       y="0"
       width="100%"
       height="100%"
       transform="translate(5.3625759,-3.6370886)" />
    <use
       id="use1607"
       inkscape:spray-origin="#path961"
       xlink:href="#path961"
       x="0"
       y="0"
       width="100%"
       height="100%"
       transform="translate(2.2241839,-4.5514436)" />
    <use
       id="use1609"
       inkscape:spray-origin="#path961"
       xlink:href="#path961"
       x="0"
       y="0"
       width="100%"
       height="100%"
       transform="translate(4.0457969,-9.9919386)" />
    <use
       id="use1615"
       inkscape:spray-origin="#path961"
       xlink:href="#path961"
       x="0"
       y="0"
       width="100%"
       height="100%"
       transform="translate(-7.6024921,-10.883815)" />
    <use
       id="use1619"
       inkscape:spray-origin="#path961"
       xlink:href="#path961"
       x="0"
       y="0"
       width="100%"
       height="100%"
       transform="translate(-10.321852,-15.515255)" />
    <use
       id="use1621"
       inkscape:spray-origin="#path961"
       xlink:href="#path961"
       x="0"
       y="0"
       width="100%"
       height="100%"
       transform="translate(-10.251438,-11.037359)" />
    <use
       id="use1623"
       inkscape:spray-origin="#path961"
       xlink:href="#path961"
       x="0"
       y="0"
       width="100%"
       height="100%"
       transform="translate(-15.745499,-11.378706)" />
    <use
       id="use1625"
       inkscape:spray-origin="#path961"
       xlink:href="#path961"
       x="0"
       y="0"
       width="100%"
       height="100%"
       transform="translate(-18.269217,-15.145508)" />
    <use
       id="use1627"
       inkscape:spray-origin="#path961"
       xlink:href="#path961"
       x="0"
       y="0"
       width="100%"
       height="100%"
       transform="translate(-13.602492,-16.146705)" />
    <use
       id="use1629"
       inkscape:spray-origin="#path961"
       xlink:href="#path961"
       x="0"
       y="0"
       width="100%"
       height="100%"
       transform="translate(-17.321852,-12.515255)" />
    <use
       id="use1631"
       inkscape:spray-origin="#path961"
       xlink:href="#path961"
       x="0"
       y="0"
       width="100%"
       height="100%"
       transform="translate(-14.726228,-4.8654096)" />
    <use
       id="use1633"
       inkscape:spray-origin="#path961"
       xlink:href="#path961"
       x="0"
       y="0"
       width="100%"
       height="100%"
       transform="translate(-23.321852,-11.515255)" />
    <use
       id="use1635"
       inkscape:spray-origin="#path961"
       xlink:href="#path961"
       x="0"
       y="0"
       width="100%"
       height="100%"
       transform="translate(-21.311723,-5.6664496)" />
    <use
       id="use1637"
       inkscape:spray-origin="#path961"
       xlink:href="#path961"
       x="0"
       y="0"
       width="100%"
       height="100%"
       transform="translate(-17.872356,-7.0021486)" />
    <use
       id="use1639"
       inkscape:spray-origin="#path961"
       xlink:href="#path961"
       x="0"
       y="0"
       width="100%"
       height="100%"
       transform="translate(-14.602492,-1.8838146)" />
    <use
       id="use1641"
       inkscape:spray-origin="#path961"
       xlink:href="#path961"
       x="0"
       y="0"
       width="100%"
       height="100%"
       transform="translate(-11.321852,-9.5152546)" />
    <use
       id="use1643"
       inkscape:spray-origin="#path961"
       xlink:href="#path961"
       x="0"
       y="0"
       width="100%"
       height="100%"
       transform="translate(8.6781479,-0.51525464)" />
    <use
       id="use1645"
       inkscape:spray-origin="#path961"
       xlink:href="#path961"
       x="0"
       y="0"
       width="100%"
       height="100%"
       transform="translate(2.9698609,0.05939736)" />
    <use
       id="use1647"
       inkscape:spray-origin="#path961"
       xlink:href="#path961"
       x="0"
       y="0"
       width="100%"
       height="100%"
       transform="translate(-33.891242,-11.382608)" />
    <use
       id="use1651"
       inkscape:spray-origin="#path961"
       xlink:href="#path961"
       x="0"
       y="0"
       width="100%"
       height="100%"
       transform="translate(8.3975079,-14.146705)" />
    <use
       id="use1653"
       inkscape:spray-origin="#path961"
       xlink:href="#path961"
       x="0"
       y="0"
       width="100%"
       height="100%"
       transform="translate(-8.0037931,-15.246701)" />
    <use
       id="use1657"
       inkscape:spray-origin="#path961"
       xlink:href="#path961"
       x="0"
       y="0"
       width="100%"
       height="100%"
       transform="translate(5.4997569,-15.637148)" />
    <use
       id="use1659"
       inkscape:spray-origin="#path961"
       xlink:href="#path961"
       x="0"
       y="0"
       width="100%"
       height="100%"
       transform="translate(8.6781479,-8.5152546)" />
    <use
       id="use1661"
       inkscape:spray-origin="#path961"
       xlink:href="#path961"
       x="0"
       y="0"
       width="100%"
       height="100%"
       transform="translate(-7.3218521,-0.51525464)" />
    <use
       id="use1663"
       inkscape:spray-origin="#path961"
       xlink:href="#path961"
       x="0"
       y="0"
       width="100%"
       height="100%"
       transform="translate(-24.947662,0.48474536)" />
    <use
       id="use1665"
       inkscape:spray-origin="#path961"
       xlink:href="#path961"
       x="0"
       y="0"
       width="100%"
       height="100%"
       transform="translate(-22.876938,-15.167556)" />
    <use
       id="use1667"
       inkscape:spray-origin="#path961"
       xlink:href="#path961"
       x="0"
       y="0"
       width="100%"
       height="100%"
       transform="translate(-28.275075,-15.077982)" />
    <use
       id="use1669"
       inkscape:spray-origin="#path961"
       xlink:href="#path961"
       x="0"
       y="0"
       width="100%"
       height="100%"
       transform="translate(-36.246387,-14.357807)" />
    <use
       id="use1671"
       inkscape:spray-origin="#path961"
       xlink:href="#path961"
       x="0"
       y="0"
       width="100%"
       height="100%"
       transform="translate(-62.719923,-13.16481)" />
    <use
       id="use1673"
       inkscape:spray-origin="#path961"
       xlink:href="#path961"
       x="0"
       y="0"
       width="100%"
       height="100%"
       transform="translate(-46.176293,-14.204821)" />
    <use
       id="use1685"
       inkscape:spray-origin="#path961"
       xlink:href="#path961"
       x="0"
       y="0"
       width="100%"
       height="100%"
       transform="translate(-65.947662,-2.1467046)" />
    <use
       id="use1687"
       inkscape:spray-origin="#path961"
       xlink:href="#path961"
       x="0"
       y="0"
       width="100%"
       height="100%"
       transform="translate(-74.376064,-12.533024)" />
    <use
       id="use1693"
       inkscape:spray-origin="#path961"
       xlink:href="#path961"
       x="0"
       y="0"
       width="100%"
       height="100%"
       transform="translate(-86.321852,-12.515255)" />
    <use
       id="use1697"
       inkscape:spray-origin="#path961"
       xlink:href="#path961"
       x="0"
       y="0"
       width="100%"
       height="100%"
       transform="translate(-92.513244,-12.155895)" />
    <use
       id="use1699"
       inkscape:spray-origin="#path961"
       xlink:href="#path961"
       x="0"
       y="0"
       width="100%"
       height="100%"
       transform="translate(-110.1773,-11.626412)" />
    <use
       id="use1701"
       inkscape:spray-origin="#path961"
       xlink:href="#path961"
       x="0"
       y="0"
       width="100%"
       height="100%"
       transform="translate(-128.87353,-7.1900216)" />
    <use
       id="use1703"
       inkscape:spray-origin="#path961"
       xlink:href="#path961"
       x="0"
       y="0"
       width="100%"
       height="100%"
       transform="translate(-115.58384,-11.466691)" />
    <use
       id="use1705"
       inkscape:spray-origin="#path961"
       xlink:href="#path961"
       x="0"
       y="0"
       width="100%"
       height="100%"
       transform="translate(-119.0778,-8.8896656)" />
    <use
       id="use1707"
       inkscape:spray-origin="#path961"
       xlink:href="#path961"
       x="0"
       y="0"
       width="100%"
       height="100%"
       transform="translate(-43.947662,-0.88381464)" />
    <use
       id="use1709"
       inkscape:spray-origin="#path961"
       xlink:href="#path961"
       x="0"
       y="0"
       width="100%"
       height="100%"
       transform="translate(-35.602492,-0.14670464)" />
    <use
       id="use1711"
       inkscape:spray-origin="#path961"
       xlink:href="#path961"
       x="0"
       y="0"
       width="100%"
       height="100%"
       transform="translate(-38.602492,-1.8838146)" />
    <use
       id="use1715"
       inkscape:spray-origin="#path961"
       xlink:href="#path961"
       x="0"
       y="0"
       width="100%"
       height="100%"
       transform="translate(-76.666356,-2.406698)" />
    <use
       id="use1719"
       inkscape:spray-origin="#path951"
       xlink:href="#path951"
       x="0"
       y="0"
       width="100%"
       height="100%"
       transform="translate(-82.710072,3.2227948)" />
    <use
       id="use1721"
       inkscape:spray-origin="#path951"
       xlink:href="#path951"
       x="0"
       y="0"
       width="100%"
       height="100%"
       transform="translate(-70.558767,3.5904968)" />
    <use
       id="use1723"
       inkscape:spray-origin="#path951"
       xlink:href="#path951"
       x="0"
       y="0"
       width="100%"
       height="100%"
       transform="translate(-69.981659,-5.9707652)" />
    <use
       id="use1725"
       inkscape:spray-origin="#path951"
       xlink:href="#path951"
       x="0"
       y="0"
       width="100%"
       height="100%"
       transform="translate(-54.981659,4.0292348)" />
    <use
       id="use1727"
       inkscape:spray-origin="#path951"
       xlink:href="#path951"
       x="0"
       y="0"
       width="100%"
       height="100%"
       transform="translate(-49.24411,4.3183438)" />
    <use
       id="use1729"
       inkscape:spray-origin="#path951"
       xlink:href="#path951"
       x="0"
       y="0"
       width="100%"
       height="100%"
       transform="translate(-125.49541,-0.53800923)" />
    <use
       id="use1731"
       inkscape:spray-origin="#path951"
       xlink:href="#path951"
       x="0"
       y="0"
       width="100%"
       height="100%"
       transform="translate(-51.759699,-7.4948402)" />
    <use
       id="use1733"
       inkscape:spray-origin="#path951"
       xlink:href="#path951"
       x="0"
       y="0"
       width="100%"
       height="100%"
       transform="translate(-59.171638,-7.4723412)" />
    <use
       id="use1735"
       inkscape:spray-origin="#path951"
       xlink:href="#path951"
       x="0"
       y="0"
       width="100%"
       height="100%"
       transform="translate(-105.20262,-5.9015682)" />
    <use
       id="use1737"
       inkscape:spray-origin="#path951"
       xlink:href="#path951"
       x="0"
       y="0"
       width="100%"
       height="100%"
       transform="translate(-112.40295,-4.8319502)" />
    <use
       id="use1739"
       inkscape:spray-origin="#path951"
       xlink:href="#path951"
       x="0"
       y="0"
       width="100%"
       height="100%"
       transform="translate(-134.04438,-4.3223082)" />
    <path
       style="fill:#000000;stroke-width:0.08839048"
       d="M 665 570.26953 L 665 572.65625 L 665 575.04297 L 666.23633 575.04297 L 667.47461 575.04297 L 667.47461 572.65625 L 667.47461 570.26953 L 666.23633 570.26953 L 665 570.26953 z M 665.74023 571.03125 L 666.66992 571.03125 L 666.66992 574.2793 L 665.74023 574.2793 L 665.74023 571.03125 z "
       transform="matrix(0.26458333,0,0,0.26458333,0,-297)"
       id="path961" />
    <path
       style="fill:#000000;stroke-width:0.02338665"
       d="m 175.70101,-151.25748 v -0.49111 h -0.11692 -0.11694 v -0.14032 -0.14032 h 0.25725 0.25726 v 0.63143 0.63144 h -0.14032 -0.14032 z"
       id="path951"
       inkscape:connector-curvature="0" />
    <use
       id="use1459"
       inkscape:spray-origin="#path951"
       xlink:href="#path951"
       x="0"
       y="0"
       width="100%"
       height="100%"
       transform="translate(-1.0715589,3.7077798)" />
    <use
       id="use1477"
       inkscape:spray-origin="#path951"
       xlink:href="#path951"
       x="0"
       y="0"
       width="100%"
       height="100%"
       transform="translate(-0.81791387,-3.5737902)" />
    <use
       id="use1487"
       inkscape:spray-origin="#path951"
       xlink:href="#path951"
       x="0"
       y="0"
       width="100%"
       height="100%"
       transform="translate(-0.70101887,-9.2336352)" />
    <use
       id="use1511"
       inkscape:spray-origin="#path951"
       xlink:href="#path951"
       x="0"
       y="0"
       width="100%"
       height="100%"
       transform="translate(-3.0290999,-7.4859962)" />
    <use
       id="use1513"
       inkscape:spray-origin="#path951"
       xlink:href="#path951"
       x="0"
       y="0"
       width="100%"
       height="100%"
       transform="translate(2.2989811,-8.2336352)" />
    <use
       id="use1521"
       inkscape:spray-origin="#path951"
       xlink:href="#path951"
       x="0"
       y="0"
       width="100%"
       height="100%"
       transform="translate(-2.8250635,3.6131458)" />
    <use
       id="use1603"
       inkscape:spray-origin="#path961"
       xlink:href="#path961"
       x="0"
       y="0"
       width="100%"
       height="100%"
       transform="translate(0.0901652,-2.2660536)" />
    <use
       id="use1611"
       inkscape:spray-origin="#path961"
       xlink:href="#path961"
       x="0"
       y="0"
       width="100%"
       height="100%"
       transform="translate(0.2071181,-11.989108)" />
    <use
       id="use1613"
       inkscape:spray-origin="#path961"
       xlink:href="#path961"
       x="0"
       y="0"
       width="100%"
       height="100%"
       transform="translate(0.1441964,-15.821299)" />
    <use
       id="use1617"
       inkscape:spray-origin="#path961"
       xlink:href="#path961"
       x="0"
       y="0"
       width="100%"
       height="100%"
       transform="translate(-1.8545017,-8.0724626)" />
    <use
       id="use1649"
       inkscape:spray-origin="#path961"
       xlink:href="#path961"
       x="0"
       y="0"
       width="100%"
       height="100%"
       transform="translate(-3.3218521,-10.515255)" />
    <use
       id="use1655"
       inkscape:spray-origin="#path961"
       xlink:href="#path961"
       x="0"
       y="0"
       width="100%"
       height="100%"
       transform="translate(-3.5372013,-14.843805)" />
    <path
       style="opacity:0.98999999;fill:none;fill-opacity:1;fill-rule:nonzero;stroke:#000000;stroke-width:0.28;stroke-linecap:round;stroke-linejoin:round;stroke-miterlimit:4;stroke-dasharray:none;stroke-opacity:1"
       d="m 171.83488,-154.56019 c -0.003,-0.003 -0.35475,-0.14626 -0.35824,-0.14928 -0.003,-0.003 -0.18122,-0.31771 -0.18495,-0.32004 -0.004,-0.003 -0.3821,-0.0352 -0.38633,-0.0371 -0.004,-0.002 -0.26682,-0.25018 -0.27107,-0.25131 -0.005,-0.001 -0.3755,0.079 -0.38009,0.0785 -0.004,-5.6e-4 -0.3287,-0.16042 -0.33309,-0.16025 -0.005,1.8e-4 -0.33554,0.18617 -0.34008,0.18702 -0.004,8.4e-4 -0.36138,-0.0564 -0.36553,-0.0549 -0.004,0.002 -0.26575,0.27679 -0.26984,0.27894 -0.004,0.002 -0.36196,0.0526 -0.36549,0.0552 -0.004,0.003 -0.17236,0.34283 -0.17563,0.34609 -0.003,0.003 -0.33037,0.15697 -0.33297,0.16051 -0.003,0.004 -0.0636,0.3784 -0.0658,0.38248 -0.002,0.004 -0.26942,0.24737 -0.27087,0.25153 -0.001,0.004 0.0507,0.38035 0.0498,0.38489 -8.4e-4,0.004 -0.18453,0.31579 -0.18469,0.32019 -1.6e-4,0.005 0.16057,0.34851 0.16108,0.3531 5.5e-4,0.004 -0.0833,0.35615 -0.0821,0.3604 0.001,0.004 0.25616,0.2857 0.258,0.28993 0.002,0.004 0.0254,0.36488 0.0278,0.3686 0.002,0.004 0.32899,0.1975 0.332,0.20101 0.003,0.003 0.13184,0.34117 0.13517,0.34403 0.003,0.003 0.3726,0.0917 0.3765,0.0942 0.004,0.002 0.22654,0.28715 0.23058,0.2889 0.004,0.002 0.38308,-0.0222 0.38754,-0.0209 0.004,0.001 0.30112,0.20762 0.30549,0.20811 0.005,5.5e-4 0.35954,-0.13408 0.36415,-0.13425 0.004,-1.5e-4 0.34894,0.10964 0.35326,0.10882 0.005,-8.5e-4 0.30404,-0.2341 0.3084,-0.23561 0.004,-0.001 0.36576,0.002 0.36964,-1.5e-4 0.004,-0.002 0.22154,-0.31331 0.22526,-0.31605 0.004,-0.003 0.35007,-0.10597 0.35317,-0.10909 0.003,-0.003 0.11934,-0.36469 0.12209,-0.3684 0.002,-0.004 0.30328,-0.20445 0.30533,-0.20835 0.002,-0.004 0.007,-0.38366 0.008,-0.38802 0.001,-0.004 0.22954,-0.28476 0.23035,-0.28908 8.5e-4,-0.005 -0.10683,-0.36855 -0.10665,-0.37317 1.7e-4,-0.004 0.13541,-0.33977 0.13491,-0.34414 -5.6e-4,-0.005 -0.21072,-0.32068 -0.21191,-0.32515 -0.001,-0.004 0.0292,-0.36458 0.0275,-0.36861 -0.002,-0.004 -0.29588,-0.24433 -0.29833,-0.24824 -0.002,-0.004 -0.0795,-0.35702 -0.0824,-0.36034 z"
       id="path2311"
       inkscape:connector-curvature="0" />
  </g>
</svg>
