  0
SECTION
  2
HEADER
  9
$ACADVER
  1
AC1014
  9
$HANDSEED
  5
FFFF
  9
$MEASUREMENT
 70
     1
  0
ENDSEC
  0
SECTION
  2
TABLES
  0
TABLE
  2
VPORT
  5
8
330
0
100
AcDbSymbolTable
 70
     4
  0
VPORT
  5
2E
330
8
100
AcDbSymbolTableRecord
100
AcDbViewportTableRecord
  2
*ACTIVE
 70
     0
 10
0.0
 20
0.0
 11
1.0
 21
1.0
 12
210.0
 22
148.5
 13
0.0
 23
0.0
 14
10.0
 24
10.0
 15
10.0
 25
10.0
 16
0.0
 26
0.0
 36
1.0
 17
0.0
 27
0.0
 37
0.0
 40
341.0
 41
1.24
 42
50.0
 43
0.0
 44
0.0
 50
0.0
 51
0.0
 71
     0
 72
   100
 73
     1
 74
     3
 75
     0
 76
     0
 77
     0
 78
     0
  0
ENDTAB
  0
TABLE
  2
LTYPE
  5
5
330
0
100
AcDbSymbolTable
 70
     1
  0
LTYPE
  5
14
330
5
100
AcDbSymbolTableRecord
100
AcDbLinetypeTableRecord
  2
BYBLOCK
 70
     0
  3

 72
    65
 73
     0
 40
0.0
  0
LTYPE
  5
15
330
5
100
AcDbSymbolTableRecord
100
AcDbLinetypeTableRecord
  2
BYLAYER
 70
     0
  3

 72
    65
 73
     0
 40
0.0
  0
LTYPE
  5
16
330
5
100
AcDbSymbolTableRecord
100
AcDbLinetypeTableRecord
  2
CONTINUOUS
 70
     0
  3
Solid line
 72
    65
 73
     0
 40
0.0
  0
ENDTAB
  0
TABLE
  2
LAYER
  5
2
100
AcDbSymbolTable
 70
1
  0
LAYER
  5
50
100
AcDbSymbolTableRecord
100
AcDbLayerTableRecord
  2
0
 70
0
  6
CONTINUOUS
  0
ENDTAB
  0
TABLE
  2
STYLE
  5
3
330
0
100
AcDbSymbolTable
 70
     1
  0
STYLE
  5
11
330
3
100
AcDbSymbolTableRecord
100
AcDbTextStyleTableRecord
  2
STANDARD
 70
     0
 40
0.0
 41
1.0
 50
0.0
 71
     0
 42
2.5
  3
txt
  4

  0
ENDTAB
  0
TABLE
  2
VIEW
  5
6
330
0
100
AcDbSymbolTable
 70
     0
  0
ENDTAB
  0
TABLE
  2
UCS
  5
7
330
0
100
AcDbSymbolTable
 70
     0
  0
ENDTAB
  0
TABLE
  2
APPID
  5
9
330
0
100
AcDbSymbolTable
 70
     2
  0
APPID
  5
12
330
9
100
AcDbSymbolTableRecord
100
AcDbRegAppTableRecord
  2
ACAD
 70
     0
  0
ENDTAB
  0
TABLE
  2
DIMSTYLE
  5
A
330
0
100
AcDbSymbolTable
 70
     1
  0
DIMSTYLE
105
27
330
A
100
AcDbSymbolTableRecord
100
AcDbDimStyleTableRecord
  2
ISO-25
 70
     0
  3

  4

  5

  6

  7

 40
1.0
 41
2.5
 42
0.625
 43
3.75
 44
1.25
 45
0.0
 46
0.0
 47
0.0
 48
0.0
140
2.5
141
2.5
142
0.0
143
0.03937007874016
144
1.0
145
0.0
146
1.0
147
0.625
 71
     0
 72
     0
 73
     0
 74
     0
 75
     0
 76
     0
 77
     1
 78
     8
170
     0
171
     3
172
     1
173
     0
174
     0
175
     0
176
     0
177
     0
178
     0
270
     2
271
     2
272
     2
273
     2
274
     3
340
11
275
     0
280
     0
281
     0
282
     0
283
     0
284
     8
285
     0
286
     0
287
     3
288
     0
  0
ENDTAB
  0
TABLE
  2
BLOCK_RECORD
  5
1
330
0
100
AcDbSymbolTable
 70
     1
  0
BLOCK_RECORD
  5
1F
330
1
100
AcDbSymbolTableRecord
100
AcDbBlockTableRecord
  2
*MODEL_SPACE
  0
BLOCK_RECORD
  5
1B
330
1
100
AcDbSymbolTableRecord
100
AcDbBlockTableRecord
  2
*PAPER_SPACE
  0
ENDTAB
  0
ENDSEC
  0
SECTION
  2
BLOCKS
  0
BLOCK
  5
20
330
1F
100
AcDbEntity
  8
0
100
AcDbBlockBegin
  2
*MODEL_SPACE
 70
     0
 10
0.0
 20
0.0
 30
0.0
  3
*MODEL_SPACE
  1

  0
ENDBLK
  5
21
330
1F
100
AcDbEntity
  8
0
100
AcDbBlockEnd
  0
BLOCK
  5
1C
330
1B
100
AcDbEntity
 67
     1
  8
0
100
AcDbBlockBegin
  2
*PAPER_SPACE
  1

  0
ENDBLK
  5
1D
330
1B
100
AcDbEntity
 67
     1
  8
0
100
AcDbBlockEnd
  0
ENDSEC
  0
SECTION
  2
ENTITIES
  0
LINE
  5
100
100
AcDbEntity
  8
0
 62
7
100
AcDbLine
 10
25.000000
 20
264.999992
 30
0.0
 11
28.999999
 21
264.999992
 31
0.0
  0
LINE
  5
101
100
AcDbEntity
  8
0
 62
7
100
AcDbLine
 10
28.999999
 20
264.999992
 30
0.0
 11
28.999999
 21
254.999991
 31
0.0
  0
LINE
  5
102
100
AcDbEntity
  8
0
 62
7
100
AcDbLine
 10
28.999999
 20
254.999991
 30
0.0
 11
25.000000
 21
254.999991
 31
0.0
  0
LINE
  5
103
100
AcDbEntity
  8
0
 62
7
100
AcDbLine
 10
25.000000
 20
254.999991
 30
0.0
 11
25.000000
 21
264.999992
 31
0.0
  0
LINE
  5
104
100
AcDbEntity
  8
0
 62
7
100
AcDbLine
 10
25.000000
 20
244.999990
 30
0.0
 11
28.999999
 21
244.999990
 31
0.0
  0
LINE
  5
105
100
AcDbEntity
  8
0
 62
7
100
AcDbLine
 10
28.999999
 20
244.999990
 30
0.0
 11
28.999999
 21
234.999989
 31
0.0
  0
LINE
  5
106
100
AcDbEntity
  8
0
 62
7
100
AcDbLine
 10
28.999999
 20
234.999989
 30
0.0
 11
25.000000
 21
234.999989
 31
0.0
  0
LINE
  5
107
100
AcDbEntity
  8
0
 62
7
100
AcDbLine
 10
25.000000
 20
234.999989
 30
0.0
 11
25.000000
 21
244.999990
 31
0.0
  0
LINE
  5
108
100
AcDbEntity
  8
0
 62
7
100
AcDbLine
 10
25.000000
 20
344.999993
 30
0.0
 11
28.999999
 21
344.999993
 31
0.0
  0
LINE
  5
109
100
AcDbEntity
  8
0
 62
7
100
AcDbLine
 10
28.999999
 20
344.999993
 30
0.0
 11
28.999999
 21
334.999992
 31
0.0
  0
LINE
  5
10a
100
AcDbEntity
  8
0
 62
7
100
AcDbLine
 10
28.999999
 20
334.999992
 30
0.0
 11
25.000000
 21
334.999992
 31
0.0
  0
LINE
  5
10b
100
AcDbEntity
  8
0
 62
7
100
AcDbLine
 10
25.000000
 20
334.999992
 30
0.0
 11
25.000000
 21
344.999993
 31
0.0
  0
LINE
  5
10c
100
AcDbEntity
  8
0
 62
7
100
AcDbLine
 10
25.000000
 20
324.999991
 30
0.0
 11
28.999999
 21
324.999991
 31
0.0
  0
LINE
  5
10d
100
AcDbEntity
  8
0
 62
7
100
AcDbLine
 10
28.999999
 20
324.999991
 30
0.0
 11
28.999999
 21
314.999990
 31
0.0
  0
LINE
  5
10e
100
AcDbEntity
  8
0
 62
7
100
AcDbLine
 10
28.999999
 20
314.999990
 30
0.0
 11
25.000000
 21
314.999990
 31
0.0
  0
LINE
  5
10f
100
AcDbEntity
  8
0
 62
7
100
AcDbLine
 10
25.000000
 20
314.999990
 30
0.0
 11
25.000000
 21
324.999991
 31
0.0
  0
LINE
  5
110
100
AcDbEntity
  8
0
 62
7
100
AcDbLine
 10
44.996738
 20
354.951773
 30
0.0
 11
44.996738
 21
350.951774
 31
0.0
  0
LINE
  5
111
100
AcDbEntity
  8
0
 62
7
100
AcDbLine
 10
44.996738
 20
350.951774
 30
0.0
 11
34.996738
 21
350.951774
 31
0.0
  0
LINE
  5
112
100
AcDbEntity
  8
0
 62
7
100
AcDbLine
 10
34.996738
 20
350.951774
 30
0.0
 11
34.996738
 21
354.951773
 31
0.0
  0
LINE
  5
113
100
AcDbEntity
  8
0
 62
7
100
AcDbLine
 10
34.996738
 20
354.951773
 30
0.0
 11
44.996738
 21
354.951773
 31
0.0
  0
LINE
  5
114
100
AcDbEntity
  8
0
 62
7
100
AcDbLine
 10
64.996736
 20
354.951773
 30
0.0
 11
64.996736
 21
350.951774
 31
0.0
  0
LINE
  5
115
100
AcDbEntity
  8
0
 62
7
100
AcDbLine
 10
64.996736
 20
350.951774
 30
0.0
 11
54.996735
 21
350.951774
 31
0.0
  0
LINE
  5
116
100
AcDbEntity
  8
0
 62
7
100
AcDbLine
 10
54.996735
 20
350.951774
 30
0.0
 11
54.996735
 21
354.951773
 31
0.0
  0
LINE
  5
117
100
AcDbEntity
  8
0
 62
7
100
AcDbLine
 10
54.996735
 20
354.951773
 30
0.0
 11
64.996736
 21
354.951773
 31
0.0
  0
LINE
  5
118
100
AcDbEntity
  8
0
 62
7
100
AcDbLine
 10
45.000001
 20
228.999990
 30
0.0
 11
45.000001
 21
224.999991
 31
0.0
  0
LINE
  5
119
100
AcDbEntity
  8
0
 62
7
100
AcDbLine
 10
45.000001
 20
224.999991
 30
0.0
 11
35.000001
 21
224.999991
 31
0.0
  0
LINE
  5
11a
100
AcDbEntity
  8
0
 62
7
100
AcDbLine
 10
35.000001
 20
224.999991
 30
0.0
 11
35.000001
 21
228.999990
 31
0.0
  0
LINE
  5
11b
100
AcDbEntity
  8
0
 62
7
100
AcDbLine
 10
35.000001
 20
228.999990
 30
0.0
 11
45.000001
 21
228.999990
 31
0.0
  0
LINE
  5
11c
100
AcDbEntity
  8
0
 62
7
100
AcDbLine
 10
64.999999
 20
228.999990
 30
0.0
 11
64.999999
 21
224.999991
 31
0.0
  0
LINE
  5
11d
100
AcDbEntity
  8
0
 62
7
100
AcDbLine
 10
64.999999
 20
224.999991
 30
0.0
 11
54.999998
 21
224.999991
 31
0.0
  0
LINE
  5
11e
100
AcDbEntity
  8
0
 62
7
100
AcDbLine
 10
54.999998
 20
224.999991
 30
0.0
 11
54.999998
 21
228.999990
 31
0.0
  0
LINE
  5
11f
100
AcDbEntity
  8
0
 62
7
100
AcDbLine
 10
54.999998
 20
228.999990
 30
0.0
 11
64.999999
 21
228.999990
 31
0.0
  0
LINE
  5
120
100
AcDbEntity
  8
0
 62
7
100
AcDbLine
 10
136.000005
 20
274.999993
 30
0.0
 11
140.000004
 21
274.999993
 31
0.0
  0
LINE
  5
121
100
AcDbEntity
  8
0
 62
7
100
AcDbLine
 10
140.000004
 20
274.999993
 30
0.0
 11
140.000004
 21
264.999992
 31
0.0
  0
LINE
  5
122
100
AcDbEntity
  8
0
 62
7
100
AcDbLine
 10
140.000004
 20
264.999992
 30
0.0
 11
136.000005
 21
264.999992
 31
0.0
  0
LINE
  5
123
100
AcDbEntity
  8
0
 62
7
100
AcDbLine
 10
136.000005
 20
264.999992
 30
0.0
 11
136.000005
 21
274.999993
 31
0.0
  0
LINE
  5
124
100
AcDbEntity
  8
0
 62
7
100
AcDbLine
 10
136.000005
 20
254.999994
 30
0.0
 11
140.000004
 21
254.999994
 31
0.0
  0
LINE
  5
125
100
AcDbEntity
  8
0
 62
7
100
AcDbLine
 10
140.000004
 20
254.999994
 30
0.0
 11
140.000004
 21
244.999993
 31
0.0
  0
LINE
  5
126
100
AcDbEntity
  8
0
 62
7
100
AcDbLine
 10
140.000004
 20
244.999993
 30
0.0
 11
136.000005
 21
244.999993
 31
0.0
  0
LINE
  5
127
100
AcDbEntity
  8
0
 62
7
100
AcDbLine
 10
136.000005
 20
244.999993
 30
0.0
 11
136.000005
 21
254.999994
 31
0.0
  0
LINE
  5
128
100
AcDbEntity
  8
0
 62
7
100
AcDbLine
 10
136.000005
 20
334.999992
 30
0.0
 11
140.000004
 21
334.999992
 31
0.0
  0
LINE
  5
129
100
AcDbEntity
  8
0
 62
7
100
AcDbLine
 10
140.000004
 20
334.999992
 30
0.0
 11
140.000004
 21
324.999991
 31
0.0
  0
LINE
  5
12a
100
AcDbEntity
  8
0
 62
7
100
AcDbLine
 10
140.000004
 20
324.999991
 30
0.0
 11
136.000005
 21
324.999991
 31
0.0
  0
LINE
  5
12b
100
AcDbEntity
  8
0
 62
7
100
AcDbLine
 10
136.000005
 20
324.999991
 30
0.0
 11
136.000005
 21
334.999992
 31
0.0
  0
LINE
  5
12c
100
AcDbEntity
  8
0
 62
7
100
AcDbLine
 10
136.000005
 20
314.999990
 30
0.0
 11
140.000004
 21
314.999990
 31
0.0
  0
LINE
  5
12d
100
AcDbEntity
  8
0
 62
7
100
AcDbLine
 10
140.000004
 20
314.999990
 30
0.0
 11
140.000004
 21
304.999989
 31
0.0
  0
LINE
  5
12e
100
AcDbEntity
  8
0
 62
7
100
AcDbLine
 10
140.000004
 20
304.999989
 30
0.0
 11
136.000005
 21
304.999989
 31
0.0
  0
LINE
  5
12f
100
AcDbEntity
  8
0
 62
7
100
AcDbLine
 10
136.000005
 20
304.999989
 30
0.0
 11
136.000005
 21
314.999990
 31
0.0
  0
LINE
  5
130
100
AcDbEntity
  8
0
 62
7
100
AcDbLine
 10
0.000000
 20
419.999993
 30
0.0
 11
0.000000
 21
159.999840
 31
0.0
  0
LINE
  5
131
100
AcDbEntity
  8
0
 62
7
100
AcDbLine
 10
0.000000
 20
159.999840
 30
0.0
 11
35.248497
 21
159.829826
 31
0.0
  0
SPLINE
  5
132
100
AcDbEntity
  8
0
 62
7
100
AcDbSpline
 70
8
 71
3
 72
8
 73
4
 74
0
 40
0
 40
0
 40
0
 40
0
 40
1
 40
1
 40
1
 40
1
 10
35.248497
 20
159.829826
 30
0.0
 10
69.726209
 20
159.663562
 30
0.0
 10
102.792899
 20
173.526363
 30
0.0
 10
127.172598
 20
197.906052
 30
0.0
  0
SPLINE
  5
133
100
AcDbEntity
  8
0
 62
7
100
AcDbSpline
 70
8
 71
3
 72
8
 73
4
 74
0
 40
0
 40
0
 40
0
 40
0
 40
1
 40
1
 40
1
 40
1
 10
127.172598
 20
197.906052
 30
0.0
 10
151.552304
 20
222.285747
 30
0.0
 10
165.248273
 20
255.351544
 30
0.0
 10
165.248312
 20
289.829645
 30
0.0
  0
SPLINE
  5
134
100
AcDbEntity
  8
0
 62
7
100
AcDbSpline
 70
8
 71
3
 72
8
 73
4
 74
0
 40
0
 40
0
 40
0
 40
0
 40
1
 40
1
 40
1
 40
1
 10
165.248312
 20
289.829645
 30
0.0
 10
165.248206
 20
361.626543
 30
0.0
 10
107.045395
 20
419.829406
 30
0.0
 10
35.248497
 20
419.829461
 30
0.0
  0
LINE
  5
135
100
AcDbEntity
  8
0
 62
7
100
AcDbLine
 10
35.248497
 20
419.829461
 30
0.0
 11
0.000000
 21
419.999993
 31
0.0
  0
SPLINE
  5
136
100
AcDbEntity
  8
0
 62
7
100
AcDbSpline
 70
8
 71
3
 72
8
 73
4
 74
0
 40
0
 40
0
 40
0
 40
0
 40
1
 40
1
 40
1
 40
1
 10
5.227071
 20
350.208905
 30
0.0
 10
5.415384
 20
350.217618
 30
0.0
 10
5.679422
 20
350.088724
 30
0.0
 10
6.128825
 20
350.065758
 30
0.0
  0
SPLINE
  5
137
100
AcDbEntity
  8
0
 62
7
100
AcDbSpline
 70
8
 71
3
 72
8
 73
4
 74
0
 40
0
 40
0
 40
0
 40
0
 40
1
 40
1
 40
1
 40
1
 10
6.128825
 20
350.065758
 30
0.0
 10
12.000634
 20
349.765904
 30
0.0
 10
17.990661
 20
349.735160
 30
0.0
 10
24.129277
 20
350.065758
 30
0.0
  0
SPLINE
  5
138
100
AcDbEntity
  8
0
 62
7
100
AcDbSpline
 70
8
 71
3
 72
8
 73
4
 74
0
 40
0
 40
0
 40
0
 40
0
 40
1
 40
1
 40
1
 40
1
 10
24.129277
 20
350.065758
 30
0.0
 10
24.728858
 20
350.065942
 30
0.0
 10
24.997391
 20
350.335665
 30
0.0
 10
25.197945
 20
350.135005
 30
0.0
  0
SPLINE
  5
139
100
AcDbEntity
  8
0
 62
7
100
AcDbSpline
 70
8
 71
3
 72
8
 73
4
 74
0
 40
0
 40
0
 40
0
 40
0
 40
1
 40
1
 40
1
 40
1
 10
25.197945
 20
350.135005
 30
0.0
 10
25.398641
 20
349.934345
 30
0.0
 10
25.179947
 20
349.663595
 30
0.0
 10
25.129215
 20
349.065820
 30
0.0
  0
SPLINE
  5
13a
100
AcDbEntity
  8
0
 62
7
100
AcDbSpline
 70
8
 71
3
 72
8
 73
4
 74
0
 40
0
 40
0
 40
0
 40
0
 40
1
 40
1
 40
1
 40
1
 10
25.129215
 20
349.065820
 30
0.0
 10
25.064199
 20
348.301809
 30
0.0
 10
25.067833
 20
347.640418
 30
0.0
 10
25.129215
 20
347.065426
 30
0.0
  0
SPLINE
  5
13b
100
AcDbEntity
  8
0
 62
7
100
AcDbSpline
 70
8
 71
3
 72
8
 73
4
 74
0
 40
0
 40
0
 40
0
 40
0
 40
1
 40
1
 40
1
 40
1
 10
25.129215
 20
347.065426
 30
0.0
 10
25.168762
 20
346.692508
 30
0.0
 10
25.264211
 20
346.446555
 30
0.0
 10
25.281145
 20
346.265474
 30
0.0
  0
SPLINE
  5
13c
100
AcDbEntity
  8
0
 62
7
100
AcDbSpline
 70
8
 71
3
 72
8
 73
4
 74
0
 40
0
 40
0
 40
0
 40
0
 40
1
 40
1
 40
1
 40
1
 10
25.281145
 20
346.265474
 30
0.0
 10
25.284672
 20
346.238310
 30
0.0
 10
25.284761
 20
346.212441
 30
0.0
 10
25.284761
 20
346.187961
 30
0.0
  0
LINE
  5
13d
100
AcDbEntity
  8
0
 62
7
100
AcDbLine
 10
25.284761
 20
346.187961
 30
0.0
 11
25.283208
 21
346.187961
 31
0.0
  0
SPLINE
  5
13e
100
AcDbEntity
  8
0
 62
7
100
AcDbSpline
 70
8
 71
3
 72
8
 73
4
 74
0
 40
0
 40
0
 40
0
 40
0
 40
1
 40
1
 40
1
 40
1
 10
25.283208
 20
346.187961
 30
0.0
 10
25.278975
 20
346.114619
 30
0.0
 10
25.254281
 20
346.052650
 30
0.0
 10
25.197942
 20
345.996241
 30
0.0
  0
SPLINE
  5
13f
100
AcDbEntity
  8
0
 62
7
100
AcDbSpline
 70
8
 71
3
 72
8
 73
4
 74
0
 40
0
 40
0
 40
0
 40
0
 40
1
 40
1
 40
1
 40
1
 10
25.197942
 20
345.996241
 30
0.0
 10
24.997247
 20
345.795546
 30
0.0
 10
24.728514
 20
346.048766
 30
0.0
 10
24.128757
 20
346.065488
 30
0.0
  0
SPLINE
  5
140
100
AcDbEntity
  8
0
 62
7
100
AcDbSpline
 70
8
 71
3
 72
8
 73
4
 74
0
 40
0
 40
0
 40
0
 40
0
 40
1
 40
1
 40
1
 40
1
 10
24.128757
 20
346.065488
 30
0.0
 10
18.128642
 20
346.232951
 30
0.0
 10
12.128455
 20
346.212737
 30
0.0
 10
6.128305
 20
346.065488
 30
0.0
  0
SPLINE
  5
141
100
AcDbEntity
  8
0
 62
7
100
AcDbSpline
 70
8
 71
3
 72
8
 73
4
 74
0
 40
0
 40
0
 40
0
 40
0
 40
1
 40
1
 40
1
 40
1
 10
6.128305
 20
346.065488
 30
0.0
 10
5.528547
 20
346.050671
 30
0.0
 10
5.259744
 20
345.795510
 30
0.0
 10
5.059120
 20
345.996241
 30
0.0
  0
SPLINE
  5
142
100
AcDbEntity
  8
0
 62
7
100
AcDbSpline
 70
8
 71
3
 72
8
 73
4
 74
0
 40
0
 40
0
 40
0
 40
0
 40
1
 40
1
 40
1
 40
1
 10
5.059120
 20
345.996241
 30
0.0
 10
4.858389
 20
346.196936
 30
0.0
 10
5.055627
 20
346.469623
 30
0.0
 10
5.128883
 20
347.065426
 30
0.0
  0
SPLINE
  5
143
100
AcDbEntity
  8
0
 62
7
100
AcDbSpline
 70
8
 71
3
 72
8
 73
4
 74
0
 40
0
 40
0
 40
0
 40
0
 40
1
 40
1
 40
1
 40
1
 10
5.128883
 20
347.065426
 30
0.0
 10
5.199685
 20
347.661504
 30
0.0
 10
5.245158
 20
348.283077
 30
0.0
 10
5.128883
 20
349.065820
 30
0.0
  0
SPLINE
  5
144
100
AcDbEntity
  8
0
 62
7
100
AcDbSpline
 70
8
 71
3
 72
8
 73
4
 74
0
 40
0
 40
0
 40
0
 40
0
 40
1
 40
1
 40
1
 40
1
 10
5.128883
 20
349.065820
 30
0.0
 10
5.041111
 20
349.659333
 30
0.0
 10
4.858976
 20
349.934377
 30
0.0
 10
5.059636
 20
350.135005
 30
0.0
  0
SPLINE
  5
145
100
AcDbEntity
  8
0
 62
7
100
AcDbSpline
 70
8
 71
3
 72
8
 73
4
 74
0
 40
0
 40
0
 40
0
 40
0
 40
1
 40
1
 40
1
 40
1
 10
5.059636
 20
350.135005
 30
0.0
 10
5.109836
 20
350.185202
 30
0.0
 10
5.164238
 20
350.206019
 30
0.0
 10
5.227068
 20
350.208905
 30
0.0
  0
LINE
  5
146
100
AcDbEntity
  8
0
 62
7
100
AcDbLine
 10
5.227068
 20
350.208905
 30
0.0
 11
5.227071
 21
350.208905
 31
0.0
  0
LINE
  5
147
100
AcDbEntity
  8
0
 62
7
100
AcDbLine
 10
120.000093
 20
344.999993
 30
0.0
 11
130.000003
 21
344.999993
 31
0.0
  0
LINE
  5
148
100
AcDbEntity
  8
0
 62
7
100
AcDbLine
 10
130.000003
 20
344.999993
 30
0.0
 11
130.000003
 21
341.000234
 31
0.0
  0
LINE
  5
149
100
AcDbEntity
  8
0
 62
7
100
AcDbLine
 10
130.000003
 20
341.000234
 30
0.0
 11
120.000093
 21
341.000234
 31
0.0
  0
LINE
  5
14a
100
AcDbEntity
  8
0
 62
7
100
AcDbLine
 10
120.000093
 20
341.000234
 30
0.0
 11
120.000093
 21
344.999993
 31
0.0
  0
LINE
  5
14b
100
AcDbEntity
  8
0
 62
7
100
AcDbLine
 10
17.513660
 20
331.693240
 30
0.0
 11
20.513477
 21
331.693240
 31
0.0
  0
SPLINE
  5
14c
100
AcDbEntity
  8
0
 62
7
100
AcDbSpline
 70
8
 71
3
 72
8
 73
4
 74
0
 40
0
 40
0
 40
0
 40
0
 40
1
 40
1
 40
1
 40
1
 10
20.513477
 20
331.693240
 30
0.0
 10
21.203863
 20
331.693275
 30
0.0
 10
21.763565
 20
331.133583
 30
0.0
 10
21.763530
 20
330.443186
 30
0.0
  0
SPLINE
  5
14d
100
AcDbEntity
  8
0
 62
7
100
AcDbSpline
 70
8
 71
3
 72
8
 73
4
 74
0
 40
0
 40
0
 40
0
 40
0
 40
1
 40
1
 40
1
 40
1
 10
21.763530
 20
330.443186
 30
0.0
 10
21.763565
 20
329.752775
 30
0.0
 10
21.203898
 20
329.193093
 30
0.0
 10
20.513477
 20
329.193132
 30
0.0
  0
LINE
  5
14e
100
AcDbEntity
  8
0
 62
7
100
AcDbLine
 10
20.513477
 20
329.193132
 30
0.0
 11
17.513660
 21
329.193132
 31
0.0
  0
SPLINE
  5
14f
100
AcDbEntity
  8
0
 62
7
100
AcDbSpline
 70
8
 71
3
 72
8
 73
4
 74
0
 40
0
 40
0
 40
0
 40
0
 40
1
 40
1
 40
1
 40
1
 10
17.513660
 20
329.193132
 30
0.0
 10
16.823239
 20
329.193093
 30
0.0
 10
16.263572
 20
329.752775
 30
0.0
 10
16.263607
 20
330.443186
 30
0.0
  0
SPLINE
  5
150
100
AcDbEntity
  8
0
 62
7
100
AcDbSpline
 70
8
 71
3
 72
8
 73
4
 74
0
 40
0
 40
0
 40
0
 40
0
 40
1
 40
1
 40
1
 40
1
 10
16.263607
 20
330.443186
 30
0.0
 10
16.263572
 20
331.133583
 30
0.0
 10
16.823274
 20
331.693275
 30
0.0
 10
17.513660
 20
331.693240
 30
0.0
  0
LINE
  5
151
100
AcDbEntity
  8
0
 62
7
100
AcDbLine
 10
17.513660
 20
331.693240
 30
0.0
 11
17.513660
 21
331.693240
 31
0.0
  0
LINE
  5
152
100
AcDbEntity
  8
0
 62
7
100
AcDbLine
 10
17.513660
 20
322.193044
 30
0.0
 11
20.513477
 21
322.193044
 31
0.0
  0
SPLINE
  5
153
100
AcDbEntity
  8
0
 62
7
100
AcDbSpline
 70
8
 71
3
 72
8
 73
4
 74
0
 40
0
 40
0
 40
0
 40
0
 40
1
 40
1
 40
1
 40
1
 10
20.513477
 20
322.193044
 30
0.0
 10
21.203898
 20
322.193079
 30
0.0
 10
21.763565
 20
321.633401
 30
0.0
 10
21.763530
 20
320.942990
 30
0.0
  0
SPLINE
  5
154
100
AcDbEntity
  8
0
 62
7
100
AcDbSpline
 70
8
 71
3
 72
8
 73
4
 74
0
 40
0
 40
0
 40
0
 40
0
 40
1
 40
1
 40
1
 40
1
 10
21.763530
 20
320.942990
 30
0.0
 10
21.763565
 20
320.252590
 30
0.0
 10
21.203863
 20
319.692897
 30
0.0
 10
20.513477
 20
319.692936
 30
0.0
  0
LINE
  5
155
100
AcDbEntity
  8
0
 62
7
100
AcDbLine
 10
20.513477
 20
319.692936
 30
0.0
 11
17.513660
 21
319.692936
 31
0.0
  0
SPLINE
  5
156
100
AcDbEntity
  8
0
 62
7
100
AcDbSpline
 70
8
 71
3
 72
8
 73
4
 74
0
 40
0
 40
0
 40
0
 40
0
 40
1
 40
1
 40
1
 40
1
 10
17.513660
 20
319.692936
 30
0.0
 10
16.823274
 20
319.692897
 30
0.0
 10
16.263572
 20
320.252590
 30
0.0
 10
16.263607
 20
320.942990
 30
0.0
  0
SPLINE
  5
157
100
AcDbEntity
  8
0
 62
7
100
AcDbSpline
 70
8
 71
3
 72
8
 73
4
 74
0
 40
0
 40
0
 40
0
 40
0
 40
1
 40
1
 40
1
 40
1
 10
16.263607
 20
320.942990
 30
0.0
 10
16.263572
 20
321.633401
 30
0.0
 10
16.823239
 20
322.193079
 30
0.0
 10
17.513660
 20
322.193044
 30
0.0
  0
LINE
  5
158
100
AcDbEntity
  8
0
 62
7
100
AcDbLine
 10
17.513660
 20
322.193044
 30
0.0
 11
17.513660
 21
322.193044
 31
0.0
  0
SPLINE
  5
159
100
AcDbEntity
  8
0
 62
7
100
AcDbSpline
 70
8
 71
3
 72
8
 73
4
 74
0
 40
0
 40
0
 40
0
 40
0
 40
1
 40
1
 40
1
 40
1
 10
15.441435
 20
314.116532
 30
0.0
 10
17.926704
 20
314.116525
 30
0.0
 10
19.941411
 20
312.101815
 30
0.0
 10
19.941419
 20
309.616548
 30
0.0
  0
SPLINE
  5
15a
100
AcDbEntity
  8
0
 62
7
100
AcDbSpline
 70
8
 71
3
 72
8
 73
4
 74
0
 40
0
 40
0
 40
0
 40
0
 40
1
 40
1
 40
1
 40
1
 10
19.941419
 20
309.616548
 30
0.0
 10
19.941410
 20
307.131278
 30
0.0
 10
17.926703
 20
305.116571
 30
0.0
 10
15.441435
 20
305.116564
 30
0.0
  0
SPLINE
  5
15b
100
AcDbEntity
  8
0
 62
7
100
AcDbSpline
 70
8
 71
3
 72
8
 73
4
 74
0
 40
0
 40
0
 40
0
 40
0
 40
1
 40
1
 40
1
 40
1
 10
15.441435
 20
305.116564
 30
0.0
 10
12.956167
 20
305.116571
 30
0.0
 10
10.941460
 20
307.131278
 30
0.0
 10
10.941451
 20
309.616548
 30
0.0
  0
SPLINE
  5
15c
100
AcDbEntity
  8
0
 62
7
100
AcDbSpline
 70
8
 71
3
 72
8
 73
4
 74
0
 40
0
 40
0
 40
0
 40
0
 40
1
 40
1
 40
1
 40
1
 10
10.941451
 20
309.616548
 30
0.0
 10
10.941459
 20
312.101815
 30
0.0
 10
12.956165
 20
314.116525
 30
0.0
 10
15.441435
 20
314.116532
 30
0.0
  0
LINE
  5
15d
100
AcDbEntity
  8
0
 62
7
100
AcDbLine
 10
15.441435
 20
314.116532
 30
0.0
 11
15.441435
 21
314.116532
 31
0.0
  0
SPLINE
  5
15e
100
AcDbEntity
  8
0
 62
7
100
AcDbSpline
 70
8
 71
3
 72
8
 73
4
 74
0
 40
0
 40
0
 40
0
 40
0
 40
1
 40
1
 40
1
 40
1
 10
27.249499
 20
309.179883
 30
0.0
 10
28.271252
 20
309.179904
 30
0.0
 10
29.099553
 20
308.351625
 30
0.0
 10
29.099517
 20
307.329867
 30
0.0
  0
SPLINE
  5
15f
100
AcDbEntity
  8
0
 62
7
100
AcDbSpline
 70
8
 71
3
 72
8
 73
4
 74
0
 40
0
 40
0
 40
0
 40
0
 40
1
 40
1
 40
1
 40
1
 10
29.099517
 20
307.329867
 30
0.0
 10
29.099517
 20
306.308124
 30
0.0
 10
28.271252
 20
305.479830
 30
0.0
 10
27.249499
 20
305.479851
 30
0.0
  0
SPLINE
  5
160
100
AcDbEntity
  8
0
 62
7
100
AcDbSpline
 70
8
 71
3
 72
8
 73
4
 74
0
 40
0
 40
0
 40
0
 40
0
 40
1
 40
1
 40
1
 40
1
 10
27.249499
 20
305.479851
 30
0.0
 10
26.227786
 20
305.479851
 30
0.0
 10
25.399483
 20
306.308138
 30
0.0
 10
25.399483
 20
307.329867
 30
0.0
  0
SPLINE
  5
161
100
AcDbEntity
  8
0
 62
7
100
AcDbSpline
 70
8
 71
3
 72
8
 73
4
 74
0
 40
0
 40
0
 40
0
 40
0
 40
1
 40
1
 40
1
 40
1
 10
25.399483
 20
307.329867
 30
0.0
 10
25.399448
 20
308.351610
 30
0.0
 10
26.227751
 20
309.179883
 30
0.0
 10
27.249499
 20
309.179883
 30
0.0
  0
LINE
  5
162
100
AcDbEntity
  8
0
 62
7
100
AcDbLine
 10
27.249499
 20
309.179883
 30
0.0
 11
27.249499
 21
309.179883
 31
0.0
  0
SPLINE
  5
163
100
AcDbEntity
  8
0
 62
7
100
AcDbSpline
 70
8
 71
3
 72
8
 73
4
 74
0
 40
0
 40
0
 40
0
 40
0
 40
1
 40
1
 40
1
 40
1
 10
35.249527
 20
294.579741
 30
0.0
 10
37.872786
 20
294.579791
 30
0.0
 10
39.999415
 20
292.452834
 30
0.0
 10
39.999627
 20
289.829645
 30
0.0
  0
SPLINE
  5
164
100
AcDbEntity
  8
0
 62
7
100
AcDbSpline
 70
8
 71
3
 72
8
 73
4
 74
0
 40
0
 40
0
 40
0
 40
0
 40
1
 40
1
 40
1
 40
1
 10
39.999627
 20
289.829645
 30
0.0
 10
39.999697
 20
287.206382
 30
0.0
 10
37.872722
 20
285.079778
 30
0.0
 10
35.249527
 20
285.079545
 30
0.0
  0
SPLINE
  5
165
100
AcDbEntity
  8
0
 62
7
100
AcDbSpline
 70
8
 71
3
 72
8
 73
4
 74
0
 40
0
 40
0
 40
0
 40
0
 40
1
 40
1
 40
1
 40
1
 10
35.249527
 20
285.079545
 30
0.0
 10
32.626096
 20
285.079478
 30
0.0
 10
30.499361
 20
287.206195
 30
0.0
 10
30.499431
 20
289.829645
 30
0.0
  0
SPLINE
  5
166
100
AcDbEntity
  8
0
 62
7
100
AcDbSpline
 70
8
 71
3
 72
8
 73
4
 74
0
 40
0
 40
0
 40
0
 40
0
 40
1
 40
1
 40
1
 40
1
 10
30.499431
 20
289.829645
 30
0.0
 10
30.499361
 20
292.453088
 30
0.0
 10
32.626096
 20
294.579808
 30
0.0
 10
35.249527
 20
294.579741
 30
0.0
  0
LINE
  5
167
100
AcDbEntity
  8
0
 62
7
100
AcDbLine
 10
35.249527
 20
294.579741
 30
0.0
 11
35.249527
 21
294.579741
 31
0.0
  0
SPLINE
  5
168
100
AcDbEntity
  8
0
 62
7
100
AcDbSpline
 70
8
 71
3
 72
8
 73
4
 74
0
 40
0
 40
0
 40
0
 40
0
 40
1
 40
1
 40
1
 40
1
 10
27.249499
 20
274.179435
 30
0.0
 10
28.271252
 20
274.179456
 30
0.0
 10
29.099517
 20
273.351162
 30
0.0
 10
29.099517
 20
272.329419
 30
0.0
  0
SPLINE
  5
169
100
AcDbEntity
  8
0
 62
7
100
AcDbSpline
 70
8
 71
3
 72
8
 73
4
 74
0
 40
0
 40
0
 40
0
 40
0
 40
1
 40
1
 40
1
 40
1
 10
29.099517
 20
272.329419
 30
0.0
 10
29.099553
 20
271.307662
 30
0.0
 10
28.271252
 20
270.479382
 30
0.0
 10
27.249499
 20
270.479403
 30
0.0
  0
SPLINE
  5
16a
100
AcDbEntity
  8
0
 62
7
100
AcDbSpline
 70
8
 71
3
 72
8
 73
4
 74
0
 40
0
 40
0
 40
0
 40
0
 40
1
 40
1
 40
1
 40
1
 10
27.249499
 20
270.479403
 30
0.0
 10
26.227751
 20
270.479403
 30
0.0
 10
25.399448
 20
271.307676
 30
0.0
 10
25.399483
 20
272.329419
 30
0.0
  0
SPLINE
  5
16b
100
AcDbEntity
  8
0
 62
7
100
AcDbSpline
 70
8
 71
3
 72
8
 73
4
 74
0
 40
0
 40
0
 40
0
 40
0
 40
1
 40
1
 40
1
 40
1
 10
25.399483
 20
272.329419
 30
0.0
 10
25.399483
 20
273.351148
 30
0.0
 10
26.227786
 20
274.179435
 30
0.0
 10
27.249499
 20
274.179435
 30
0.0
  0
LINE
  5
16c
100
AcDbEntity
  8
0
 62
7
100
AcDbLine
 10
27.249499
 20
274.179435
 30
0.0
 11
27.249499
 21
274.179435
 31
0.0
  0
LINE
  5
16d
100
AcDbEntity
  8
0
 62
7
100
AcDbLine
 10
120.000093
 20
239.000259
 30
0.0
 11
130.000003
 21
239.000259
 31
0.0
  0
LINE
  5
16e
100
AcDbEntity
  8
0
 62
7
100
AcDbLine
 10
130.000003
 20
239.000259
 30
0.0
 11
130.000003
 21
234.999985
 31
0.0
  0
LINE
  5
16f
100
AcDbEntity
  8
0
 62
7
100
AcDbLine
 10
130.000003
 20
234.999985
 30
0.0
 11
120.000093
 21
234.999985
 31
0.0
  0
LINE
  5
170
100
AcDbEntity
  8
0
 62
7
100
AcDbLine
 10
120.000093
 20
234.999985
 30
0.0
 11
120.000093
 21
239.000259
 31
0.0
  0
SPLINE
  5
171
100
AcDbEntity
  8
0
 62
7
100
AcDbSpline
 70
8
 71
3
 72
8
 73
4
 74
0
 40
0
 40
0
 40
0
 40
0
 40
1
 40
1
 40
1
 40
1
 10
5.349028
 20
233.974139
 30
0.0
 10
5.537340
 20
233.982959
 30
0.0
 10
5.801378
 20
233.853958
 30
0.0
 10
6.250781
 20
233.830993
 30
0.0
  0
SPLINE
  5
172
100
AcDbEntity
  8
0
 62
7
100
AcDbSpline
 70
8
 71
3
 72
8
 73
4
 74
0
 40
0
 40
0
 40
0
 40
0
 40
1
 40
1
 40
1
 40
1
 10
6.250781
 20
233.830993
 30
0.0
 10
12.122591
 20
233.531132
 30
0.0
 10
18.112618
 20
233.500369
 30
0.0
 10
24.251233
 20
233.830993
 30
0.0
  0
SPLINE
  5
173
100
AcDbEntity
  8
0
 62
7
100
AcDbSpline
 70
8
 71
3
 72
8
 73
4
 74
0
 40
0
 40
0
 40
0
 40
0
 40
1
 40
1
 40
1
 40
1
 10
24.251233
 20
233.830993
 30
0.0
 10
24.850814
 20
233.831169
 30
0.0
 10
25.119348
 20
234.100899
 30
0.0
 10
25.319902
 20
233.900239
 30
0.0
  0
SPLINE
  5
174
100
AcDbEntity
  8
0
 62
7
100
AcDbSpline
 70
8
 71
3
 72
8
 73
4
 74
0
 40
0
 40
0
 40
0
 40
0
 40
1
 40
1
 40
1
 40
1
 10
25.319902
 20
233.900239
 30
0.0
 10
25.520597
 20
233.699579
 30
0.0
 10
25.301903
 20
233.428837
 30
0.0
 10
25.251172
 20
232.831055
 30
0.0
  0
SPLINE
  5
175
100
AcDbEntity
  8
0
 62
7
100
AcDbSpline
 70
8
 71
3
 72
8
 73
4
 74
0
 40
0
 40
0
 40
0
 40
0
 40
1
 40
1
 40
1
 40
1
 10
25.251172
 20
232.831055
 30
0.0
 10
25.186155
 20
232.067044
 30
0.0
 10
25.189789
 20
231.405723
 30
0.0
 10
25.251172
 20
230.830660
 30
0.0
  0
SPLINE
  5
176
100
AcDbEntity
  8
0
 62
7
100
AcDbSpline
 70
8
 71
3
 72
8
 73
4
 74
0
 40
0
 40
0
 40
0
 40
0
 40
1
 40
1
 40
1
 40
1
 10
25.251172
 20
230.830660
 30
0.0
 10
25.290719
 20
230.457774
 30
0.0
 10
25.386168
 20
230.211789
 30
0.0
 10
25.403101
 20
230.030708
 30
0.0
  0
SPLINE
  5
177
100
AcDbEntity
  8
0
 62
7
100
AcDbSpline
 70
8
 71
3
 72
8
 73
4
 74
0
 40
0
 40
0
 40
0
 40
0
 40
1
 40
1
 40
1
 40
1
 10
25.403101
 20
230.030708
 30
0.0
 10
25.413331
 20
229.922053
 30
0.0
 10
25.395326
 20
229.836723
 30
0.0
 10
25.319902
 20
229.761475
 30
0.0
  0
SPLINE
  5
178
100
AcDbEntity
  8
0
 62
7
100
AcDbSpline
 70
8
 71
3
 72
8
 73
4
 74
0
 40
0
 40
0
 40
0
 40
0
 40
1
 40
1
 40
1
 40
1
 10
25.319902
 20
229.761475
 30
0.0
 10
25.119206
 20
229.560780
 30
0.0
 10
24.850474
 20
229.814000
 30
0.0
 10
24.250716
 20
229.830722
 30
0.0
  0
SPLINE
  5
179
100
AcDbEntity
  8
0
 62
7
100
AcDbSpline
 70
8
 71
3
 72
8
 73
4
 74
0
 40
0
 40
0
 40
0
 40
0
 40
1
 40
1
 40
1
 40
1
 10
24.250716
 20
229.830722
 30
0.0
 10
18.250602
 20
229.998182
 30
0.0
 10
12.250415
 20
229.977968
 30
0.0
 10
6.250265
 20
229.830722
 30
0.0
  0
SPLINE
  5
17a
100
AcDbEntity
  8
0
 62
7
100
AcDbSpline
 70
8
 71
3
 72
8
 73
4
 74
0
 40
0
 40
0
 40
0
 40
0
 40
1
 40
1
 40
1
 40
1
 10
6.250265
 20
229.830722
 30
0.0
 10
5.650507
 20
229.815905
 30
0.0
 10
5.381704
 20
229.560741
 30
0.0
 10
5.181079
 20
229.761475
 30
0.0
  0
SPLINE
  5
17b
100
AcDbEntity
  8
0
 62
7
100
AcDbSpline
 70
8
 71
3
 72
8
 73
4
 74
0
 40
0
 40
0
 40
0
 40
0
 40
1
 40
1
 40
1
 40
1
 10
5.181079
 20
229.761475
 30
0.0
 10
4.980349
 20
229.962167
 30
0.0
 10
5.177587
 20
230.234889
 30
0.0
 10
5.250842
 20
230.830660
 30
0.0
  0
SPLINE
  5
17c
100
AcDbEntity
  8
0
 62
7
100
AcDbSpline
 70
8
 71
3
 72
8
 73
4
 74
0
 40
0
 40
0
 40
0
 40
0
 40
1
 40
1
 40
1
 40
1
 10
5.250842
 20
230.830660
 30
0.0
 10
5.321645
 20
231.426819
 30
0.0
 10
5.367118
 20
232.048311
 30
0.0
 10
5.250842
 20
232.831055
 30
0.0
  0
SPLINE
  5
17d
100
AcDbEntity
  8
0
 62
7
100
AcDbSpline
 70
8
 71
3
 72
8
 73
4
 74
0
 40
0
 40
0
 40
0
 40
0
 40
1
 40
1
 40
1
 40
1
 10
5.250842
 20
232.831055
 30
0.0
 10
5.163071
 20
233.424568
 30
0.0
 10
4.980936
 20
233.699615
 30
0.0
 10
5.181596
 20
233.900239
 30
0.0
  0
SPLINE
  5
17e
100
AcDbEntity
  8
0
 62
7
100
AcDbSpline
 70
8
 71
3
 72
8
 73
4
 74
0
 40
0
 40
0
 40
0
 40
0
 40
1
 40
1
 40
1
 40
1
 10
5.181596
 20
233.900239
 30
0.0
 10
5.231796
 20
233.950440
 30
0.0
 10
5.286233
 20
233.971243
 30
0.0
 10
5.349028
 20
233.974139
 30
0.0
  0
LINE
  5
17f
100
AcDbEntity
  8
0
 62
7
100
AcDbLine
 10
5.349028
 20
233.974139
 30
0.0
 11
5.349028
 21
233.974139
 31
0.0
  0
LINE
  5
180
100
AcDbEntity
  8
0
 62
7
100
AcDbLine
 10
130.766557
 20
154.525054
 30
0.0
 11
130.766557
 21
129.525026
 31
0.0
  0
LINE
  5
181
100
AcDbEntity
  8
0
 62
7
100
AcDbLine
 10
130.766557
 20
129.525026
 30
0.0
 11
134.766316
 21
129.525026
 31
0.0
  0
LINE
  5
182
100
AcDbEntity
  8
0
 62
7
100
AcDbLine
 10
134.766316
 20
129.525026
 30
0.0
 11
134.766316
 21
89.524892
 31
0.0
  0
LINE
  5
183
100
AcDbEntity
  8
0
 62
7
100
AcDbLine
 10
134.766316
 20
89.524892
 30
0.0
 11
134.766316
 21
49.525371
 31
0.0
  0
LINE
  5
184
100
AcDbEntity
  8
0
 62
7
100
AcDbLine
 10
134.766316
 20
49.525371
 30
0.0
 11
130.766557
 21
49.525371
 31
0.0
  0
LINE
  5
185
100
AcDbEntity
  8
0
 62
7
100
AcDbLine
 10
130.766557
 20
49.525371
 30
0.0
 11
130.766557
 21
24.525316
 31
0.0
  0
LINE
  5
186
100
AcDbEntity
  8
0
 62
7
100
AcDbLine
 10
130.766557
 20
24.525316
 30
0.0
 11
134.766316
 21
24.525316
 31
0.0
  0
LINE
  5
187
100
AcDbEntity
  8
0
 62
7
100
AcDbLine
 10
134.766316
 20
24.525316
 30
0.0
 11
154.766628
 21
24.525316
 31
0.0
  0
LINE
  5
188
100
AcDbEntity
  8
0
 62
7
100
AcDbLine
 10
154.766628
 20
24.525316
 30
0.0
 11
154.766628
 21
28.525604
 31
0.0
  0
LINE
  5
189
100
AcDbEntity
  8
0
 62
7
100
AcDbLine
 10
154.766628
 20
28.525604
 30
0.0
 11
164.766538
 21
28.525604
 31
0.0
  0
LINE
  5
18a
100
AcDbEntity
  8
0
 62
7
100
AcDbLine
 10
164.766538
 20
28.525604
 30
0.0
 11
164.766538
 21
33.525276
 31
0.0
  0
SPLINE
  5
18b
100
AcDbEntity
  8
0
 62
7
100
AcDbSpline
 70
8
 71
3
 72
8
 73
4
 74
0
 40
0
 40
0
 40
0
 40
0
 40
1
 40
1
 40
1
 40
1
 10
164.766538
 20
33.525276
 30
0.0
 10
164.766502
 20
34.077515
 30
0.0
 10
164.318827
 20
34.525225
 30
0.0
 10
163.766589
 20
34.525225
 30
0.0
  0
LINE
  5
18c
100
AcDbEntity
  8
0
 62
7
100
AcDbLine
 10
163.766589
 20
34.525225
 30
0.0
 11
154.766628
 21
34.525225
 31
0.0
  0
LINE
  5
18d
100
AcDbEntity
  8
0
 62
7
100
AcDbLine
 10
154.766628
 20
34.525225
 30
0.0
 11
154.766628
 21
38.525513
 31
0.0
  0
LINE
  5
18e
100
AcDbEntity
  8
0
 62
7
100
AcDbLine
 10
154.766628
 20
38.525513
 30
0.0
 11
163.766589
 21
38.525513
 31
0.0
  0
SPLINE
  5
18f
100
AcDbEntity
  8
0
 62
7
100
AcDbSpline
 70
8
 71
3
 72
8
 73
4
 74
0
 40
0
 40
0
 40
0
 40
0
 40
1
 40
1
 40
1
 40
1
 10
163.766589
 20
38.525513
 30
0.0
 10
164.318827
 20
38.525513
 30
0.0
 10
164.766502
 20
38.973188
 30
0.0
 10
164.766538
 20
39.525427
 30
0.0
  0
LINE
  5
190
100
AcDbEntity
  8
0
 62
7
100
AcDbLine
 10
164.766538
 20
39.525427
 30
0.0
 11
164.766538
 21
139.524925
 31
0.0
  0
SPLINE
  5
191
100
AcDbEntity
  8
0
 62
7
100
AcDbSpline
 70
8
 71
3
 72
8
 73
4
 74
0
 40
0
 40
0
 40
0
 40
0
 40
1
 40
1
 40
1
 40
1
 10
164.766538
 20
139.524925
 30
0.0
 10
164.766502
 20
140.077163
 30
0.0
 10
164.318827
 20
140.524867
 30
0.0
 10
163.766589
 20
140.524867
 30
0.0
  0
LINE
  5
192
100
AcDbEntity
  8
0
 62
7
100
AcDbLine
 10
163.766589
 20
140.524867
 30
0.0
 11
154.766628
 21
140.524867
 31
0.0
  0
LINE
  5
193
100
AcDbEntity
  8
0
 62
7
100
AcDbLine
 10
154.766628
 20
140.524867
 30
0.0
 11
154.766628
 21
144.525155
 31
0.0
  0
LINE
  5
194
100
AcDbEntity
  8
0
 62
7
100
AcDbLine
 10
154.766628
 20
144.525155
 30
0.0
 11
163.766589
 21
144.525155
 31
0.0
  0
SPLINE
  5
195
100
AcDbEntity
  8
0
 62
7
100
AcDbSpline
 70
8
 71
3
 72
8
 73
4
 74
0
 40
0
 40
0
 40
0
 40
0
 40
1
 40
1
 40
1
 40
1
 10
163.766589
 20
144.525155
 30
0.0
 10
164.318827
 20
144.525155
 30
0.0
 10
164.766502
 20
144.972855
 30
0.0
 10
164.766538
 20
145.525093
 30
0.0
  0
LINE
  5
196
100
AcDbEntity
  8
0
 62
7
100
AcDbLine
 10
164.766538
 20
145.525093
 30
0.0
 11
164.766538
 21
150.524765
 31
0.0
  0
LINE
  5
197
100
AcDbEntity
  8
0
 62
7
100
AcDbLine
 10
164.766538
 20
150.524765
 30
0.0
 11
154.766628
 21
150.524765
 31
0.0
  0
LINE
  5
198
100
AcDbEntity
  8
0
 62
7
100
AcDbLine
 10
154.766628
 20
150.524765
 30
0.0
 11
154.766628
 21
154.525054
 31
0.0
  0
LINE
  5
199
100
AcDbEntity
  8
0
 62
7
100
AcDbLine
 10
154.766628
 20
154.525054
 30
0.0
 11
134.766316
 21
154.525054
 31
0.0
  0
LINE
  5
19a
100
AcDbEntity
  8
0
 62
7
100
AcDbLine
 10
134.766316
 20
154.525054
 30
0.0
 11
130.766557
 21
154.525054
 31
0.0
  0
SPLINE
  5
19b
100
AcDbEntity
  8
0
 62
7
100
AcDbSpline
 70
8
 71
3
 72
8
 73
4
 74
0
 40
0
 40
0
 40
0
 40
0
 40
1
 40
1
 40
1
 40
1
 10
134.766316
 20
144.774735
 30
0.0
 10
134.904287
 20
144.774816
 30
0.0
 10
135.016224
 20
144.663109
 30
0.0
 10
135.016435
 20
144.525155
 30
0.0
  0
LINE
  5
19c
100
AcDbEntity
  8
0
 62
7
100
AcDbLine
 10
135.016435
 20
144.525155
 30
0.0
 11
140.574731
 21
144.525155
 31
0.0
  0
SPLINE
  5
19d
100
AcDbEntity
  8
0
 62
7
100
AcDbSpline
 70
8
 71
3
 72
8
 73
4
 74
0
 40
0
 40
0
 40
0
 40
0
 40
1
 40
1
 40
1
 40
1
 10
140.574731
 20
144.525155
 30
0.0
 10
140.574943
 20
144.663109
 30
0.0
 10
140.686879
 20
144.774816
 30
0.0
 10
140.824851
 20
144.774735
 30
0.0
  0
SPLINE
  5
19e
100
AcDbEntity
  8
0
 62
7
100
AcDbSpline
 70
8
 71
3
 72
8
 73
4
 74
0
 40
0
 40
0
 40
0
 40
0
 40
1
 40
1
 40
1
 40
1
 10
140.824851
 20
144.774735
 30
0.0
 10
140.962611
 20
144.774523
 30
0.0
 10
141.074229
 20
144.662897
 30
0.0
 10
141.074441
 20
144.525155
 30
0.0
  0
SPLINE
  5
19f
100
AcDbEntity
  8
0
 62
7
100
AcDbSpline
 70
8
 71
3
 72
8
 73
4
 74
0
 40
0
 40
0
 40
0
 40
0
 40
1
 40
1
 40
1
 40
1
 10
141.074441
 20
144.525155
 30
0.0
 10
141.074512
 20
144.387148
 30
0.0
 10
140.962787
 20
144.275230
 30
0.0
 10
140.824851
 20
144.275018
 30
0.0
  0
LINE
  5
1a0
100
AcDbEntity
  8
0
 62
7
100
AcDbLine
 10
140.824851
 20
144.275018
 30
0.0
 11
140.824851
 21
140.798234
 31
0.0
  0
SPLINE
  5
1a1
100
AcDbEntity
  8
0
 62
7
100
AcDbSpline
 70
8
 71
3
 72
8
 73
4
 74
0
 40
0
 40
0
 40
0
 40
0
 40
1
 40
1
 40
1
 40
1
 10
140.824851
 20
140.798234
 30
0.0
 10
140.931354
 20
140.766837
 30
0.0
 10
141.004379
 20
140.669012
 30
0.0
 10
141.004168
 20
140.557940
 30
0.0
  0
SPLINE
  5
1a2
100
AcDbEntity
  8
0
 62
7
100
AcDbSpline
 70
8
 71
3
 72
8
 73
4
 74
0
 40
0
 40
0
 40
0
 40
0
 40
1
 40
1
 40
1
 40
1
 10
141.004168
 20
140.557940
 30
0.0
 10
141.003921
 20
140.419986
 30
0.0
 10
140.891984
 20
140.308303
 30
0.0
 10
140.754048
 20
140.308356
 30
0.0
  0
SPLINE
  5
1a3
100
AcDbEntity
  8
0
 62
7
100
AcDbSpline
 70
8
 71
3
 72
8
 73
4
 74
0
 40
0
 40
0
 40
0
 40
0
 40
1
 40
1
 40
1
 40
1
 10
140.754048
 20
140.308356
 30
0.0
 10
140.628989
 20
140.308462
 30
0.0
 10
140.523261
 20
140.400936
 30
0.0
 10
140.506539
 20
140.524867
 30
0.0
  0
LINE
  5
1a4
100
AcDbEntity
  8
0
 62
7
100
AcDbLine
 10
140.506539
 20
140.524867
 30
0.0
 11
135.016435
 21
140.524867
 31
0.0
  0
SPLINE
  5
1a5
100
AcDbEntity
  8
0
 62
7
100
AcDbSpline
 70
8
 71
3
 72
8
 73
4
 74
0
 40
0
 40
0
 40
0
 40
0
 40
1
 40
1
 40
1
 40
1
 10
135.016435
 20
140.524867
 30
0.0
 10
135.016506
 20
140.386754
 30
0.0
 10
134.904499
 20
140.274648
 30
0.0
 10
134.766316
 20
140.274754
 30
0.0
  0
SPLINE
  5
1a6
100
AcDbEntity
  8
0
 62
7
100
AcDbSpline
 70
8
 71
3
 72
8
 73
4
 74
0
 40
0
 40
0
 40
0
 40
0
 40
1
 40
1
 40
1
 40
1
 10
134.766316
 20
140.274754
 30
0.0
 10
134.628168
 20
140.274648
 30
0.0
 10
134.516126
 20
140.386754
 30
0.0
 10
134.516197
 20
140.524867
 30
0.0
  0
SPLINE
  5
1a7
100
AcDbEntity
  8
0
 62
7
100
AcDbSpline
 70
8
 71
3
 72
8
 73
4
 74
0
 40
0
 40
0
 40
0
 40
0
 40
1
 40
1
 40
1
 40
1
 10
134.516197
 20
140.524867
 30
0.0
 10
134.516126
 20
140.663032
 30
0.0
 10
134.628168
 20
140.775057
 30
0.0
 10
134.766316
 20
140.774976
 30
0.0
  0
LINE
  5
1a8
100
AcDbEntity
  8
0
 62
7
100
AcDbLine
 10
134.766316
 20
140.774976
 30
0.0
 11
134.766316
 21
144.275018
 31
0.0
  0
SPLINE
  5
1a9
100
AcDbEntity
  8
0
 62
7
100
AcDbSpline
 70
8
 71
3
 72
8
 73
4
 74
0
 40
0
 40
0
 40
0
 40
0
 40
1
 40
1
 40
1
 40
1
 10
134.766316
 20
144.275018
 30
0.0
 10
134.628168
 20
144.274965
 30
0.0
 10
134.516126
 20
144.386990
 30
0.0
 10
134.516197
 20
144.525155
 30
0.0
  0
SPLINE
  5
1aa
100
AcDbEntity
  8
0
 62
7
100
AcDbSpline
 70
8
 71
3
 72
8
 73
4
 74
0
 40
0
 40
0
 40
0
 40
0
 40
1
 40
1
 40
1
 40
1
 10
134.516197
 20
144.525155
 30
0.0
 10
134.516408
 20
144.663109
 30
0.0
 10
134.628345
 20
144.774816
 30
0.0
 10
134.766316
 20
144.774735
 30
0.0
  0
LINE
  5
1ab
100
AcDbEntity
  8
0
 62
7
100
AcDbLine
 10
134.766316
 20
144.774735
 30
0.0
 11
134.766316
 21
144.774735
 31
0.0
  0
SPLINE
  5
1ac
100
AcDbEntity
  8
0
 62
7
100
AcDbSpline
 70
8
 71
3
 72
8
 73
4
 74
0
 40
0
 40
0
 40
0
 40
0
 40
1
 40
1
 40
1
 40
1
 10
149.766427
 20
129.525026
 30
0.0
 10
155.289201
 20
129.524976
 30
0.0
 10
159.766282
 20
125.047898
 30
0.0
 10
159.766336
 20
119.525124
 30
0.0
  0
SPLINE
  5
1ad
100
AcDbEntity
  8
0
 62
7
100
AcDbSpline
 70
8
 71
3
 72
8
 73
4
 74
0
 40
0
 40
0
 40
0
 40
0
 40
1
 40
1
 40
1
 40
1
 10
159.766336
 20
119.525124
 30
0.0
 10
159.766450
 20
116.872900
 30
0.0
 10
158.712945
 20
114.329264
 30
0.0
 10
156.837588
 20
112.453810
 30
0.0
  0
SPLINE
  5
1ae
100
AcDbEntity
  8
0
 62
7
100
AcDbSpline
 70
8
 71
3
 72
8
 73
4
 74
0
 40
0
 40
0
 40
0
 40
0
 40
1
 40
1
 40
1
 40
1
 10
156.837588
 20
112.453810
 30
0.0
 10
154.962232
 20
110.578355
 30
0.0
 10
152.418651
 20
109.524717
 30
0.0
 10
149.766427
 20
109.524693
 30
0.0
  0
SPLINE
  5
1af
100
AcDbEntity
  8
0
 62
7
100
AcDbSpline
 70
8
 71
3
 72
8
 73
4
 74
0
 40
0
 40
0
 40
0
 40
0
 40
1
 40
1
 40
1
 40
1
 10
149.766427
 20
109.524693
 30
0.0
 10
147.114203
 20
109.524717
 30
0.0
 10
144.570622
 20
110.578355
 30
0.0
 10
142.695265
 20
112.453810
 30
0.0
  0
SPLINE
  5
1b0
100
AcDbEntity
  8
0
 62
7
100
AcDbSpline
 70
8
 71
3
 72
8
 73
4
 74
0
 40
0
 40
0
 40
0
 40
0
 40
1
 40
1
 40
1
 40
1
 10
142.695265
 20
112.453810
 30
0.0
 10
140.819909
 20
114.329264
 30
0.0
 10
139.766403
 20
116.872900
 30
0.0
 10
139.766518
 20
119.525124
 30
0.0
  0
SPLINE
  5
1b1
100
AcDbEntity
  8
0
 62
7
100
AcDbSpline
 70
8
 71
3
 72
8
 73
4
 74
0
 40
0
 40
0
 40
0
 40
0
 40
1
 40
1
 40
1
 40
1
 10
139.766518
 20
119.525124
 30
0.0
 10
139.766572
 20
125.047898
 30
0.0
 10
144.243653
 20
129.524976
 30
0.0
 10
149.766427
 20
129.525026
 30
0.0
  0
LINE
  5
1b2
100
AcDbEntity
  8
0
 62
7
100
AcDbLine
 10
149.766427
 20
129.525026
 30
0.0
 11
149.766427
 21
129.525026
 31
0.0
  0
SPLINE
  5
1b3
100
AcDbEntity
  8
0
 62
7
100
AcDbSpline
 70
8
 71
3
 72
8
 73
4
 74
0
 40
0
 40
0
 40
0
 40
0
 40
1
 40
1
 40
1
 40
1
 10
149.766427
 20
99.524794
 30
0.0
 10
155.289201
 20
99.524744
 30
0.0
 10
159.766282
 20
95.047666
 30
0.0
 10
159.766336
 20
89.524892
 30
0.0
  0
SPLINE
  5
1b4
100
AcDbEntity
  8
0
 62
7
100
AcDbSpline
 70
8
 71
3
 72
8
 73
4
 74
0
 40
0
 40
0
 40
0
 40
0
 40
1
 40
1
 40
1
 40
1
 10
159.766336
 20
89.524892
 30
0.0
 10
159.766284
 20
84.002117
 30
0.0
 10
155.289202
 20
79.525036
 30
0.0
 10
149.766427
 20
79.524986
 30
0.0
  0
SPLINE
  5
1b5
100
AcDbEntity
  8
0
 62
7
100
AcDbSpline
 70
8
 71
3
 72
8
 73
4
 74
0
 40
0
 40
0
 40
0
 40
0
 40
1
 40
1
 40
1
 40
1
 10
149.766427
 20
79.524986
 30
0.0
 10
144.243652
 20
79.525036
 30
0.0
 10
139.766570
 20
84.002117
 30
0.0
 10
139.766518
 20
89.524892
 30
0.0
  0
SPLINE
  5
1b6
100
AcDbEntity
  8
0
 62
7
100
AcDbSpline
 70
8
 71
3
 72
8
 73
4
 74
0
 40
0
 40
0
 40
0
 40
0
 40
1
 40
1
 40
1
 40
1
 10
139.766518
 20
89.524892
 30
0.0
 10
139.766572
 20
95.047666
 30
0.0
 10
144.243653
 20
99.524744
 30
0.0
 10
149.766427
 20
99.524794
 30
0.0
  0
LINE
  5
1b7
100
AcDbEntity
  8
0
 62
7
100
AcDbLine
 10
149.766427
 20
99.524794
 30
0.0
 11
149.766427
 21
99.524794
 31
0.0
  0
SPLINE
  5
1b8
100
AcDbEntity
  8
0
 62
7
100
AcDbSpline
 70
8
 71
3
 72
8
 73
4
 74
0
 40
0
 40
0
 40
0
 40
0
 40
1
 40
1
 40
1
 40
1
 10
149.766427
 20
69.525119
 30
0.0
 10
152.418646
 20
69.525095
 30
0.0
 10
154.962223
 20
68.471461
 30
0.0
 10
156.837578
 20
66.596012
 30
0.0
  0
SPLINE
  5
1b9
100
AcDbEntity
  8
0
 62
7
100
AcDbSpline
 70
8
 71
3
 72
8
 73
4
 74
0
 40
0
 40
0
 40
0
 40
0
 40
1
 40
1
 40
1
 40
1
 10
156.837578
 20
66.596012
 30
0.0
 10
158.712934
 20
64.720564
 30
0.0
 10
159.766443
 20
62.176935
 30
0.0
 10
159.766336
 20
59.524716
 30
0.0
  0
SPLINE
  5
1ba
100
AcDbEntity
  8
0
 62
7
100
AcDbSpline
 70
8
 71
3
 72
8
 73
4
 74
0
 40
0
 40
0
 40
0
 40
0
 40
1
 40
1
 40
1
 40
1
 10
159.766336
 20
59.524716
 30
0.0
 10
159.766266
 20
54.001953
 30
0.0
 10
155.289190
 20
49.524892
 30
0.0
 10
149.766427
 20
49.524842
 30
0.0
  0
SPLINE
  5
1bb
100
AcDbEntity
  8
0
 62
7
100
AcDbSpline
 70
8
 71
3
 72
8
 73
4
 74
0
 40
0
 40
0
 40
0
 40
0
 40
1
 40
1
 40
1
 40
1
 10
149.766427
 20
49.524842
 30
0.0
 10
144.243664
 20
49.524892
 30
0.0
 10
139.766587
 20
54.001953
 30
0.0
 10
139.766518
 20
59.524716
 30
0.0
  0
SPLINE
  5
1bc
100
AcDbEntity
  8
0
 62
7
100
AcDbSpline
 70
8
 71
3
 72
8
 73
4
 74
0
 40
0
 40
0
 40
0
 40
0
 40
1
 40
1
 40
1
 40
1
 10
139.766518
 20
59.524716
 30
0.0
 10
139.766411
 20
62.176935
 30
0.0
 10
140.819919
 20
64.720564
 30
0.0
 10
142.695275
 20
66.596012
 30
0.0
  0
SPLINE
  5
1bd
100
AcDbEntity
  8
0
 62
7
100
AcDbSpline
 70
8
 71
3
 72
8
 73
4
 74
0
 40
0
 40
0
 40
0
 40
0
 40
1
 40
1
 40
1
 40
1
 10
142.695275
 20
66.596012
 30
0.0
 10
144.570631
 20
68.471461
 30
0.0
 10
147.114208
 20
69.525095
 30
0.0
 10
149.766427
 20
69.525119
 30
0.0
  0
LINE
  5
1be
100
AcDbEntity
  8
0
 62
7
100
AcDbLine
 10
149.766427
 20
69.525119
 30
0.0
 11
149.766427
 21
69.525119
 31
0.0
  0
SPLINE
  5
1bf
100
AcDbEntity
  8
0
 62
7
100
AcDbSpline
 70
8
 71
3
 72
8
 73
4
 74
0
 40
0
 40
0
 40
0
 40
0
 40
1
 40
1
 40
1
 40
1
 10
134.766316
 20
38.775633
 30
0.0
 10
134.904499
 20
38.775668
 30
0.0
 10
135.016506
 20
38.663661
 30
0.0
 10
135.016435
 20
38.525513
 30
0.0
  0
LINE
  5
1c0
100
AcDbEntity
  8
0
 62
7
100
AcDbLine
 10
135.016435
 20
38.525513
 30
0.0
 11
140.506539
 21
38.525513
 31
0.0
  0
SPLINE
  5
1c1
100
AcDbEntity
  8
0
 62
7
100
AcDbSpline
 70
8
 71
3
 72
8
 73
4
 74
0
 40
0
 40
0
 40
0
 40
0
 40
1
 40
1
 40
1
 40
1
 10
140.506539
 20
38.525513
 30
0.0
 10
140.523120
 20
38.649444
 30
0.0
 10
140.628989
 20
38.741872
 30
0.0
 10
140.754048
 20
38.742013
 30
0.0
  0
SPLINE
  5
1c2
100
AcDbEntity
  8
0
 62
7
100
AcDbSpline
 70
8
 71
3
 72
8
 73
4
 74
0
 40
0
 40
0
 40
0
 40
0
 40
1
 40
1
 40
1
 40
1
 10
140.754048
 20
38.742013
 30
0.0
 10
140.891984
 20
38.742119
 30
0.0
 10
141.003921
 20
38.630394
 30
0.0
 10
141.004168
 20
38.492458
 30
0.0
  0
SPLINE
  5
1c3
100
AcDbEntity
  8
0
 62
7
100
AcDbSpline
 70
8
 71
3
 72
8
 73
4
 74
0
 40
0
 40
0
 40
0
 40
0
 40
1
 40
1
 40
1
 40
1
 10
141.004168
 20
38.492458
 30
0.0
 10
141.004379
 20
38.381368
 30
0.0
 10
140.931354
 20
38.283543
 30
0.0
 10
140.824851
 20
38.252146
 30
0.0
  0
LINE
  5
1c4
100
AcDbEntity
  8
0
 62
7
100
AcDbLine
 10
140.824851
 20
38.252146
 30
0.0
 11
140.824851
 21
34.775344
 31
0.0
  0
SPLINE
  5
1c5
100
AcDbEntity
  8
0
 62
7
100
AcDbSpline
 70
8
 71
3
 72
8
 73
4
 74
0
 40
0
 40
0
 40
0
 40
0
 40
1
 40
1
 40
1
 40
1
 10
140.824851
 20
34.775344
 30
0.0
 10
140.962787
 20
34.775133
 30
0.0
 10
141.074512
 20
34.663232
 30
0.0
 10
141.074441
 20
34.525225
 30
0.0
  0
SPLINE
  5
1c6
100
AcDbEntity
  8
0
 62
7
100
AcDbSpline
 70
8
 71
3
 72
8
 73
4
 74
0
 40
0
 40
0
 40
0
 40
0
 40
1
 40
1
 40
1
 40
1
 10
141.074441
 20
34.525225
 30
0.0
 10
141.074229
 20
34.387465
 30
0.0
 10
140.962611
 20
34.275846
 30
0.0
 10
140.824851
 20
34.275635
 30
0.0
  0
SPLINE
  5
1c7
100
AcDbEntity
  8
0
 62
7
100
AcDbSpline
 70
8
 71
3
 72
8
 73
4
 74
0
 40
0
 40
0
 40
0
 40
0
 40
1
 40
1
 40
1
 40
1
 10
140.824851
 20
34.275635
 30
0.0
 10
140.686879
 20
34.275564
 30
0.0
 10
140.574943
 20
34.387254
 30
0.0
 10
140.574731
 20
34.525225
 30
0.0
  0
LINE
  5
1c8
100
AcDbEntity
  8
0
 62
7
100
AcDbLine
 10
140.574731
 20
34.525225
 30
0.0
 11
135.016435
 21
34.525225
 31
0.0
  0
SPLINE
  5
1c9
100
AcDbEntity
  8
0
 62
7
100
AcDbSpline
 70
8
 71
3
 72
8
 73
4
 74
0
 40
0
 40
0
 40
0
 40
0
 40
1
 40
1
 40
1
 40
1
 10
135.016435
 20
34.525225
 30
0.0
 10
135.016224
 20
34.387254
 30
0.0
 10
134.904287
 20
34.275564
 30
0.0
 10
134.766316
 20
34.275635
 30
0.0
  0
SPLINE
  5
1ca
100
AcDbEntity
  8
0
 62
7
100
AcDbSpline
 70
8
 71
3
 72
8
 73
4
 74
0
 40
0
 40
0
 40
0
 40
0
 40
1
 40
1
 40
1
 40
1
 10
134.766316
 20
34.275635
 30
0.0
 10
134.628345
 20
34.275564
 30
0.0
 10
134.516373
 20
34.387254
 30
0.0
 10
134.516197
 20
34.525225
 30
0.0
  0
SPLINE
  5
1cb
100
AcDbEntity
  8
0
 62
7
100
AcDbSpline
 70
8
 71
3
 72
8
 73
4
 74
0
 40
0
 40
0
 40
0
 40
0
 40
1
 40
1
 40
1
 40
1
 10
134.516197
 20
34.525225
 30
0.0
 10
134.516126
 20
34.663373
 30
0.0
 10
134.628168
 20
34.775415
 30
0.0
 10
134.766316
 20
34.775344
 30
0.0
  0
LINE
  5
1cc
100
AcDbEntity
  8
0
 62
7
100
AcDbLine
 10
134.766316
 20
34.775344
 30
0.0
 11
134.766316
 21
38.275394
 31
0.0
  0
SPLINE
  5
1cd
100
AcDbEntity
  8
0
 62
7
100
AcDbSpline
 70
8
 71
3
 72
8
 73
4
 74
0
 40
0
 40
0
 40
0
 40
0
 40
1
 40
1
 40
1
 40
1
 10
134.766316
 20
38.275394
 30
0.0
 10
134.628168
 20
38.275323
 30
0.0
 10
134.516126
 20
38.387366
 30
0.0
 10
134.516197
 20
38.525513
 30
0.0
  0
SPLINE
  5
1ce
100
AcDbEntity
  8
0
 62
7
100
AcDbSpline
 70
8
 71
3
 72
8
 73
4
 74
0
 40
0
 40
0
 40
0
 40
0
 40
1
 40
1
 40
1
 40
1
 10
134.516197
 20
38.525513
 30
0.0
 10
134.516126
 20
38.663661
 30
0.0
 10
134.628168
 20
38.775668
 30
0.0
 10
134.766316
 20
38.775633
 30
0.0
  0
LINE
  5
1cf
100
AcDbEntity
  8
0
 62
7
100
AcDbLine
 10
134.766316
 20
38.775633
 30
0.0
 11
134.766316
 21
38.775633
 31
0.0
  0
SPLINE
  5
1d0
100
AcDbEntity
  8
0
 62
7
100
AcDbSpline
 70
8
 71
3
 72
8
 73
4
 74
0
 40
0
 40
0
 40
0
 40
0
 40
1
 40
1
 40
1
 40
1
 10
137.825079
 20
199.999812
 30
0.0
 10
137.825132
 20
190.058746
 30
0.0
 10
145.883998
 20
181.999962
 30
0.0
 10
155.825029
 20
181.999891
 30
0.0
  0
SPLINE
  5
1d1
100
AcDbEntity
  8
0
 62
7
100
AcDbSpline
 70
8
 71
3
 72
8
 73
4
 74
0
 40
0
 40
0
 40
0
 40
0
 40
1
 40
1
 40
1
 40
1
 10
155.825029
 20
181.999891
 30
0.0
 10
164.825120
 20
181.999891
 30
0.0
 10
165.825139
 20
180.999872
 30
0.0
 10
165.824927
 20
172.144691
 30
0.0
  0
LINE
  5
1d2
100
AcDbEntity
  8
0
 62
7
100
AcDbLine
 10
165.824927
 20
172.144691
 30
0.0
 11
165.824927
 21
139.999873
 31
0.0
  0
LINE
  5
1d3
100
AcDbEntity
  8
0
 62
7
100
AcDbLine
 10
165.824927
 20
139.999873
 30
0.0
 11
175.825094
 21
139.999873
 31
0.0
  0
LINE
  5
1d4
100
AcDbEntity
  8
0
 62
7
100
AcDbLine
 10
175.825094
 20
139.999873
 30
0.0
 11
175.825094
 21
143.999139
 31
0.0
  0
LINE
  5
1d5
100
AcDbEntity
  8
0
 62
7
100
AcDbLine
 10
175.825094
 20
143.999139
 30
0.0
 11
180.825328
 21
143.999139
 31
0.0
  0
LINE
  5
1d6
100
AcDbEntity
  8
0
 62
7
100
AcDbLine
 10
180.825328
 20
143.999139
 30
0.0
 11
180.825328
 21
139.999873
 31
0.0
  0
LINE
  5
1d7
100
AcDbEntity
  8
0
 62
7
100
AcDbLine
 10
180.825328
 20
139.999873
 30
0.0
 11
185.825025
 21
139.999873
 31
0.0
  0
LINE
  5
1d8
100
AcDbEntity
  8
0
 62
7
100
AcDbLine
 10
185.825025
 20
139.999873
 30
0.0
 11
185.825025
 21
143.999633
 31
0.0
  0
LINE
  5
1d9
100
AcDbEntity
  8
0
 62
7
100
AcDbLine
 10
185.825025
 20
143.999633
 30
0.0
 11
190.825226
 21
143.999633
 31
0.0
  0
LINE
  5
1da
100
AcDbEntity
  8
0
 62
7
100
AcDbLine
 10
190.825226
 20
143.999633
 30
0.0
 11
190.825226
 21
139.999873
 31
0.0
  0
LINE
  5
1db
100
AcDbEntity
  8
0
 62
7
100
AcDbLine
 10
190.825226
 20
139.999873
 30
0.0
 11
195.824927
 21
139.999873
 31
0.0
  0
LINE
  5
1dc
100
AcDbEntity
  8
0
 62
7
100
AcDbLine
 10
195.824927
 20
139.999873
 30
0.0
 11
195.824927
 21
260.000108
 31
0.0
  0
LINE
  5
1dd
100
AcDbEntity
  8
0
 62
7
100
AcDbLine
 10
195.824927
 20
260.000108
 30
0.0
 11
190.825226
 21
260.000108
 31
0.0
  0
LINE
  5
1de
100
AcDbEntity
  8
0
 62
7
100
AcDbLine
 10
190.825226
 20
260.000108
 30
0.0
 11
190.825226
 21
256.000349
 31
0.0
  0
LINE
  5
1df
100
AcDbEntity
  8
0
 62
7
100
AcDbLine
 10
190.825226
 20
256.000349
 30
0.0
 11
185.825025
 21
256.000349
 31
0.0
  0
LINE
  5
1e0
100
AcDbEntity
  8
0
 62
7
100
AcDbLine
 10
185.825025
 20
256.000349
 30
0.0
 11
185.825025
 21
260.000108
 31
0.0
  0
LINE
  5
1e1
100
AcDbEntity
  8
0
 62
7
100
AcDbLine
 10
185.825025
 20
260.000108
 30
0.0
 11
180.825328
 21
260.000108
 31
0.0
  0
LINE
  5
1e2
100
AcDbEntity
  8
0
 62
7
100
AcDbLine
 10
180.825328
 20
260.000108
 30
0.0
 11
180.825328
 21
255.999819
 31
0.0
  0
LINE
  5
1e3
100
AcDbEntity
  8
0
 62
7
100
AcDbLine
 10
180.825328
 20
255.999819
 30
0.0
 11
175.825094
 21
255.999819
 31
0.0
  0
LINE
  5
1e4
100
AcDbEntity
  8
0
 62
7
100
AcDbLine
 10
175.825094
 20
255.999819
 30
0.0
 11
175.825094
 21
260.000108
 31
0.0
  0
LINE
  5
1e5
100
AcDbEntity
  8
0
 62
7
100
AcDbLine
 10
175.825094
 20
260.000108
 30
0.0
 11
165.824927
 21
260.000108
 31
0.0
  0
LINE
  5
1e6
100
AcDbEntity
  8
0
 62
7
100
AcDbLine
 10
165.824927
 20
260.000108
 30
0.0
 11
165.824927
 21
228.037697
 31
0.0
  0
SPLINE
  5
1e7
100
AcDbEntity
  8
0
 62
7
100
AcDbSpline
 70
8
 71
3
 72
8
 73
4
 74
0
 40
0
 40
0
 40
0
 40
0
 40
1
 40
1
 40
1
 40
1
 10
165.824927
 20
228.037697
 30
0.0
 10
165.825139
 20
218.999689
 30
0.0
 10
164.825120
 20
217.999670
 30
0.0
 10
155.825029
 20
217.999540
 30
0.0
  0
SPLINE
  5
1e8
100
AcDbEntity
  8
0
 62
7
100
AcDbSpline
 70
8
 71
3
 72
8
 73
4
 74
0
 40
0
 40
0
 40
0
 40
0
 40
1
 40
1
 40
1
 40
1
 10
155.825029
 20
217.999540
 30
0.0
 10
145.883998
 20
217.999512
 30
0.0
 10
137.825132
 20
209.940737
 30
0.0
 10
137.825079
 20
199.999636
 30
0.0
  0
LINE
  5
1e9
100
AcDbEntity
  8
0
 62
7
100
AcDbLine
 10
137.825079
 20
199.999636
 30
0.0
 11
137.825079
 21
199.999812
 31
0.0
  0
LINE
  5
1ea
100
AcDbEntity
  8
0
 62
7
100
AcDbLine
 10
133.999617
 20
419.999910
 30
0.0
 11
133.999617
 21
413.991021
 31
0.0
  0
SPLINE
  5
1eb
100
AcDbEntity
  8
0
 62
7
100
AcDbSpline
 70
8
 71
3
 72
8
 73
4
 74
0
 40
0
 40
0
 40
0
 40
0
 40
1
 40
1
 40
1
 40
1
 10
133.999617
 20
413.991021
 30
0.0
 10
134.000323
 20
412.000243
 30
0.0
 10
134.000323
 20
412.000243
 30
0.0
 10
136.009607
 20
411.911449
 30
0.0
  0
SPLINE
  5
1ec
100
AcDbEntity
  8
0
 62
7
100
AcDbSpline
 70
8
 71
3
 72
8
 73
4
 74
0
 40
0
 40
0
 40
0
 40
0
 40
1
 40
1
 40
1
 40
1
 10
136.009607
 20
411.911449
 30
0.0
 10
143.343748
 20
411.256870
 30
0.0
 10
149.000176
 20
407.069073
 30
0.0
 10
149.000253
 20
402.000503
 30
0.0
  0
SPLINE
  5
1ed
100
AcDbEntity
  8
0
 62
7
100
AcDbSpline
 70
8
 71
3
 72
8
 73
4
 74
0
 40
0
 40
0
 40
0
 40
0
 40
1
 40
1
 40
1
 40
1
 10
149.000253
 20
402.000503
 30
0.0
 10
149.000518
 20
396.931482
 30
0.0
 10
143.343465
 20
392.743209
 30
0.0
 10
136.008496
 20
392.088919
 30
0.0
  0
SPLINE
  5
1ee
100
AcDbEntity
  8
0
 62
7
100
AcDbSpline
 70
8
 71
3
 72
8
 73
4
 74
0
 40
0
 40
0
 40
0
 40
0
 40
1
 40
1
 40
1
 40
1
 10
136.008496
 20
392.088919
 30
0.0
 10
134.000457
 20
392.000230
 30
0.0
 10
134.000457
 20
392.000230
 30
0.0
 10
134.000651
 20
390.020276
 30
0.0
  0
LINE
  5
1ef
100
AcDbEntity
  8
0
 62
7
100
AcDbLine
 10
134.000651
 20
390.020276
 30
0.0
 11
134.000651
 21
384.999991
 31
0.0
  0
SPLINE
  5
1f0
100
AcDbEntity
  8
0
 62
7
100
AcDbSpline
 70
8
 71
3
 72
8
 73
4
 74
0
 40
0
 40
0
 40
0
 40
0
 40
1
 40
1
 40
1
 40
1
 10
134.000651
 20
384.999991
 30
0.0
 10
134.000651
 20
383.891968
 30
0.0
 10
134.892522
 20
383.000110
 30
0.0
 10
136.000527
 20
383.000110
 30
0.0
  0
LINE
  5
1f1
100
AcDbEntity
  8
0
 62
7
100
AcDbLine
 10
136.000527
 20
383.000110
 30
0.0
 11
142.000680
 21
383.000110
 31
0.0
  0
SPLINE
  5
1f2
100
AcDbEntity
  8
0
 62
7
100
AcDbSpline
 70
8
 71
3
 72
8
 73
4
 74
0
 40
0
 40
0
 40
0
 40
0
 40
1
 40
1
 40
1
 40
1
 10
142.000680
 20
383.000110
 30
0.0
 10
143.108681
 20
383.000110
 30
0.0
 10
144.068223
 20
383.894032
 30
0.0
 10
144.000556
 20
384.999991
 30
0.0
  0
LINE
  5
1f3
100
AcDbEntity
  8
0
 62
7
100
AcDbLine
 10
144.000556
 20
384.999991
 30
0.0
 11
144.000556
 21
387.000375
 31
0.0
  0
LINE
  5
1f4
100
AcDbEntity
  8
0
 62
7
100
AcDbLine
 10
144.000556
 20
387.000375
 30
0.0
 11
170.001037
 21
387.000375
 31
0.0
  0
LINE
  5
1f5
100
AcDbEntity
  8
0
 62
7
100
AcDbLine
 10
170.001037
 20
387.000375
 30
0.0
 11
169.999978
 21
398.999652
 31
0.0
  0
LINE
  5
1f6
100
AcDbEntity
  8
0
 62
7
100
AcDbLine
 10
169.999978
 20
398.999652
 30
0.0
 11
173.999730
 21
398.999652
 31
0.0
  0
LINE
  5
1f7
100
AcDbEntity
  8
0
 62
7
100
AcDbLine
 10
173.999730
 20
398.999652
 30
0.0
 11
173.999730
 21
409.999993
 31
0.0
  0
LINE
  5
1f8
100
AcDbEntity
  8
0
 62
7
100
AcDbLine
 10
173.999730
 20
409.999993
 30
0.0
 11
170.000003
 21
409.999993
 31
0.0
  0
LINE
  5
1f9
100
AcDbEntity
  8
0
 62
7
100
AcDbLine
 10
170.000003
 20
409.999993
 30
0.0
 11
170.000003
 21
417.000095
 31
0.0
  0
LINE
  5
1fa
100
AcDbEntity
  8
0
 62
7
100
AcDbLine
 10
170.000003
 20
417.000095
 30
0.0
 11
163.999853
 21
417.000095
 31
0.0
  0
LINE
  5
1fb
100
AcDbEntity
  8
0
 62
7
100
AcDbLine
 10
163.999853
 20
417.000095
 30
0.0
 11
163.999853
 21
419.999910
 31
0.0
  0
LINE
  5
1fc
100
AcDbEntity
  8
0
 62
7
100
AcDbLine
 10
163.999853
 20
419.999910
 30
0.0
 11
153.999432
 21
419.999910
 31
0.0
  0
LINE
  5
1fd
100
AcDbEntity
  8
0
 62
7
100
AcDbLine
 10
153.999432
 20
419.999910
 30
0.0
 11
153.999432
 21
417.000095
 31
0.0
  0
LINE
  5
1fe
100
AcDbEntity
  8
0
 62
7
100
AcDbLine
 10
153.999432
 20
417.000095
 30
0.0
 11
143.999523
 21
417.000095
 31
0.0
  0
LINE
  5
1ff
100
AcDbEntity
  8
0
 62
7
100
AcDbLine
 10
143.999523
 20
417.000095
 30
0.0
 11
143.999523
 21
419.999910
 31
0.0
  0
LINE
  5
200
100
AcDbEntity
  8
0
 62
7
100
AcDbLine
 10
143.999523
 20
419.999910
 30
0.0
 11
133.999617
 21
419.999910
 31
0.0
  0
LINE
  5
201
100
AcDbEntity
  8
0
 62
7
100
AcDbLine
 10
24.999986
 20
134.999975
 30
0.0
 11
55.000016
 21
134.999975
 31
0.0
  0
SPLINE
  5
202
100
AcDbEntity
  8
0
 62
7
100
AcDbSpline
 70
8
 71
3
 72
8
 73
4
 74
0
 40
0
 40
0
 40
0
 40
0
 40
1
 40
1
 40
1
 40
1
 10
55.000016
 20
134.999975
 30
0.0
 10
57.770010
 20
134.999975
 30
0.0
 10
60.000003
 20
132.769979
 30
0.0
 10
60.000003
 20
129.999989
 30
0.0
  0
LINE
  5
203
100
AcDbEntity
  8
0
 62
7
100
AcDbLine
 10
60.000003
 20
129.999989
 30
0.0
 11
60.000003
 21
109.999959
 31
0.0
  0
SPLINE
  5
204
100
AcDbEntity
  8
0
 62
7
100
AcDbSpline
 70
8
 71
3
 72
8
 73
4
 74
0
 40
0
 40
0
 40
0
 40
0
 40
1
 40
1
 40
1
 40
1
 10
60.000003
 20
109.999959
 30
0.0
 10
60.000003
 20
107.229965
 30
0.0
 10
57.770010
 20
104.999972
 30
0.0
 10
55.000016
 20
104.999972
 30
0.0
  0
LINE
  5
205
100
AcDbEntity
  8
0
 62
7
100
AcDbLine
 10
55.000016
 20
104.999972
 30
0.0
 11
24.999986
 21
104.999972
 31
0.0
  0
SPLINE
  5
206
100
AcDbEntity
  8
0
 62
7
100
AcDbSpline
 70
8
 71
3
 72
8
 73
4
 74
0
 40
0
 40
0
 40
0
 40
0
 40
1
 40
1
 40
1
 40
1
 10
24.999986
 20
104.999972
 30
0.0
 10
22.229994
 20
104.999972
 30
0.0
 10
20.000001
 20
107.229965
 30
0.0
 10
20.000001
 20
109.999959
 30
0.0
  0
LINE
  5
207
100
AcDbEntity
  8
0
 62
7
100
AcDbLine
 10
20.000001
 20
109.999959
 30
0.0
 11
20.000001
 21
129.999989
 31
0.0
  0
SPLINE
  5
208
100
AcDbEntity
  8
0
 62
7
100
AcDbSpline
 70
8
 71
3
 72
8
 73
4
 74
0
 40
0
 40
0
 40
0
 40
0
 40
1
 40
1
 40
1
 40
1
 10
20.000001
 20
129.999989
 30
0.0
 10
20.000001
 20
132.769979
 30
0.0
 10
22.229994
 20
134.999975
 30
0.0
 10
24.999986
 20
134.999975
 30
0.0
  0
LINE
  5
209
100
AcDbEntity
  8
0
 62
7
100
AcDbLine
 10
24.999986
 20
134.999975
 30
0.0
 11
24.999986
 21
134.999975
 31
0.0
  0
LINE
  5
20a
100
AcDbEntity
  8
0
 62
7
100
AcDbLine
 10
24.999986
 20
74.999997
 30
0.0
 11
55.000016
 21
74.999997
 31
0.0
  0
SPLINE
  5
20b
100
AcDbEntity
  8
0
 62
7
100
AcDbSpline
 70
8
 71
3
 72
8
 73
4
 74
0
 40
0
 40
0
 40
0
 40
0
 40
1
 40
1
 40
1
 40
1
 10
55.000016
 20
74.999997
 30
0.0
 10
57.770010
 20
74.999997
 30
0.0
 10
60.000003
 20
72.770004
 30
0.0
 10
60.000003
 20
70.000011
 30
0.0
  0
LINE
  5
20c
100
AcDbEntity
  8
0
 62
7
100
AcDbLine
 10
60.000003
 20
70.000011
 30
0.0
 11
60.000003
 21
49.999998
 31
0.0
  0
SPLINE
  5
20d
100
AcDbEntity
  8
0
 62
7
100
AcDbSpline
 70
8
 71
3
 72
8
 73
4
 74
0
 40
0
 40
0
 40
0
 40
0
 40
1
 40
1
 40
1
 40
1
 10
60.000003
 20
49.999998
 30
0.0
 10
60.000003
 20
47.229987
 30
0.0
 10
57.770010
 20
45.000008
 30
0.0
 10
55.000016
 20
45.000008
 30
0.0
  0
LINE
  5
20e
100
AcDbEntity
  8
0
 62
7
100
AcDbLine
 10
55.000016
 20
45.000008
 30
0.0
 11
24.999986
 21
45.000008
 31
0.0
  0
SPLINE
  5
20f
100
AcDbEntity
  8
0
 62
7
100
AcDbSpline
 70
8
 71
3
 72
8
 73
4
 74
0
 40
0
 40
0
 40
0
 40
0
 40
1
 40
1
 40
1
 40
1
 10
24.999986
 20
45.000008
 30
0.0
 10
22.229994
 20
45.000008
 30
0.0
 10
20.000001
 20
47.229987
 30
0.0
 10
20.000001
 20
49.999998
 30
0.0
  0
LINE
  5
210
100
AcDbEntity
  8
0
 62
7
100
AcDbLine
 10
20.000001
 20
49.999998
 30
0.0
 11
20.000001
 21
70.000011
 31
0.0
  0
SPLINE
  5
211
100
AcDbEntity
  8
0
 62
7
100
AcDbSpline
 70
8
 71
3
 72
8
 73
4
 74
0
 40
0
 40
0
 40
0
 40
0
 40
1
 40
1
 40
1
 40
1
 10
20.000001
 20
70.000011
 30
0.0
 10
20.000001
 20
72.770004
 30
0.0
 10
22.229994
 20
74.999997
 30
0.0
 10
24.999986
 20
74.999997
 30
0.0
  0
LINE
  5
212
100
AcDbEntity
  8
0
 62
7
100
AcDbLine
 10
24.999986
 20
74.999997
 30
0.0
 11
24.999986
 21
74.999997
 31
0.0
  0
SPLINE
  5
213
100
AcDbEntity
  8
0
 62
7
100
AcDbSpline
 70
8
 71
3
 72
8
 73
4
 74
0
 40
0
 40
0
 40
0
 40
0
 40
1
 40
1
 40
1
 40
1
 10
132.499800
 20
124.500148
 30
0.0
 10
132.499691
 20
128.642126
 30
0.0
 10
129.141980
 20
131.999837
 30
0.0
 10
125.000002
 20
131.999946
 30
0.0
  0
LINE
  5
214
100
AcDbEntity
  8
0
 62
7
100
AcDbLine
 10
125.000002
 20
131.999946
 30
0.0
 11
125.000002
 21
154.500384
 31
0.0
  0
SPLINE
  5
215
100
AcDbEntity
  8
0
 62
7
100
AcDbSpline
 70
8
 71
3
 72
8
 73
4
 74
0
 40
0
 40
0
 40
0
 40
0
 40
1
 40
1
 40
1
 40
1
 10
125.000002
 20
154.500384
 30
0.0
 10
125.000002
 20
157.270395
 30
0.0
 10
112.770167
 20
159.000015
 30
0.0
 10
110.000191
 20
159.000015
 30
0.0
  0
LINE
  5
216
100
AcDbEntity
  8
0
 62
7
100
AcDbLine
 10
110.000191
 20
159.000015
 30
0.0
 11
90.000362
 21
159.000015
 31
0.0
  0
LINE
  5
217
100
AcDbEntity
  8
0
 62
7
100
AcDbLine
 10
90.000362
 20
159.000015
 30
0.0
 11
80.000460
 21
159.000015
 31
0.0
  0
LINE
  5
218
100
AcDbEntity
  8
0
 62
7
100
AcDbLine
 10
80.000460
 20
159.000015
 30
0.0
 11
35.000363
 21
159.000227
 31
0.0
  0
SPLINE
  5
219
100
AcDbEntity
  8
0
 62
7
100
AcDbSpline
 70
8
 71
3
 72
8
 73
4
 74
0
 40
0
 40
0
 40
0
 40
0
 40
1
 40
1
 40
1
 40
1
 10
35.000363
 20
159.000227
 30
0.0
 10
15.610370
 20
159.000318
 30
0.0
 10
0.000430
 20
143.390301
 30
0.0
 10
0.000430
 20
124.000297
 30
0.0
  0
LINE
  5
21a
100
AcDbEntity
  8
0
 62
7
100
AcDbLine
 10
0.000430
 20
124.000297
 30
0.0
 11
0.000430
 21
54.000322
 31
0.0
  0
SPLINE
  5
21b
100
AcDbEntity
  8
0
 62
7
100
AcDbSpline
 70
8
 71
3
 72
8
 73
4
 74
0
 40
0
 40
0
 40
0
 40
0
 40
1
 40
1
 40
1
 40
1
 10
0.000430
 20
54.000322
 30
0.0
 10
0.000430
 20
34.610315
 30
0.0
 10
15.610437
 20
19.000322
 30
0.0
 10
35.000430
 20
19.000322
 30
0.0
  0
LINE
  5
21c
100
AcDbEntity
  8
0
 62
7
100
AcDbLine
 10
35.000430
 20
19.000322
 30
0.0
 11
80.000460
 21
19.000287
 31
0.0
  0
LINE
  5
21d
100
AcDbEntity
  8
0
 62
7
100
AcDbLine
 10
80.000460
 20
19.000287
 30
0.0
 11
90.000362
 21
19.000287
 31
0.0
  0
LINE
  5
21e
100
AcDbEntity
  8
0
 62
7
100
AcDbLine
 10
90.000362
 20
19.000287
 30
0.0
 11
110.000191
 21
19.000287
 31
0.0
  0
SPLINE
  5
21f
100
AcDbEntity
  8
0
 62
7
100
AcDbSpline
 70
8
 71
3
 72
8
 73
4
 74
0
 40
0
 40
0
 40
0
 40
0
 40
1
 40
1
 40
1
 40
1
 10
110.000191
 20
19.000287
 30
0.0
 10
112.770167
 20
19.000287
 30
0.0
 10
125.000002
 20
21.730575
 30
0.0
 10
125.000002
 20
24.500551
 30
0.0
  0
LINE
  5
220
100
AcDbEntity
  8
0
 62
7
100
AcDbLine
 10
125.000002
 20
24.500551
 30
0.0
 11
125.000002
 21
46.999976
 31
0.0
  0
SPLINE
  5
221
100
AcDbEntity
  8
0
 62
7
100
AcDbSpline
 70
8
 71
3
 72
8
 73
4
 74
0
 40
0
 40
0
 40
0
 40
0
 40
1
 40
1
 40
1
 40
1
 10
125.000002
 20
46.999976
 30
0.0
 10
129.142178
 20
47.000082
 30
0.0
 10
132.499969
 20
50.358103
 30
0.0
 10
132.499800
 20
54.500279
 30
0.0
  0
SPLINE
  5
222
100
AcDbEntity
  8
0
 62
7
100
AcDbSpline
 70
8
 71
3
 72
8
 73
4
 74
0
 40
0
 40
0
 40
0
 40
0
 40
1
 40
1
 40
1
 40
1
 10
132.499800
 20
54.500279
 30
0.0
 10
132.499694
 20
58.642242
 30
0.0
 10
129.141983
 20
61.999981
 30
0.0
 10
125.000002
 20
62.000087
 30
0.0
  0
LINE
  5
223
100
AcDbEntity
  8
0
 62
7
100
AcDbLine
 10
125.000002
 20
62.000087
 30
0.0
 11
125.000002
 21
117.000347
 31
0.0
  0
SPLINE
  5
224
100
AcDbEntity
  8
0
 62
7
100
AcDbSpline
 70
8
 71
3
 72
8
 73
4
 74
0
 40
0
 40
0
 40
0
 40
0
 40
1
 40
1
 40
1
 40
1
 10
125.000002
 20
117.000347
 30
0.0
 10
129.141983
 20
117.000460
 30
0.0
 10
132.499691
 20
120.358170
 30
0.0
 10
132.499800
 20
124.500148
 30
0.0
  0
LINE
  5
225
100
AcDbEntity
  8
0
 62
7
100
AcDbLine
 10
132.499800
 20
124.500148
 30
0.0
 11
132.499800
 21
124.500148
 31
0.0
  0
SPLINE
  5
226
100
AcDbEntity
  8
0
 62
7
100
AcDbSpline
 70
8
 71
3
 72
8
 73
4
 74
0
 40
0
 40
0
 40
0
 40
0
 40
1
 40
1
 40
1
 40
1
 10
127.500103
 20
124.500148
 30
0.0
 10
127.500163
 20
123.119355
 30
0.0
 10
126.380795
 20
121.999987
 30
0.0
 10
125.000002
 20
122.000040
 30
0.0
  0
SPLINE
  5
227
100
AcDbEntity
  8
0
 62
7
100
AcDbSpline
 70
8
 71
3
 72
8
 73
4
 74
0
 40
0
 40
0
 40
0
 40
0
 40
1
 40
1
 40
1
 40
1
 10
125.000002
 20
122.000040
 30
0.0
 10
123.619209
 20
121.999987
 30
0.0
 10
122.499841
 20
123.119355
 30
0.0
 10
122.499901
 20
124.500148
 30
0.0
  0
SPLINE
  5
228
100
AcDbEntity
  8
0
 62
7
100
AcDbSpline
 70
8
 71
3
 72
8
 73
4
 74
0
 40
0
 40
0
 40
0
 40
0
 40
1
 40
1
 40
1
 40
1
 10
122.499901
 20
124.500148
 30
0.0
 10
122.499845
 20
125.880941
 30
0.0
 10
123.619212
 20
127.000309
 30
0.0
 10
125.000002
 20
127.000252
 30
0.0
  0
SPLINE
  5
229
100
AcDbEntity
  8
0
 62
7
100
AcDbSpline
 70
8
 71
3
 72
8
 73
4
 74
0
 40
0
 40
0
 40
0
 40
0
 40
1
 40
1
 40
1
 40
1
 10
125.000002
 20
127.000252
 30
0.0
 10
126.380795
 20
127.000309
 30
0.0
 10
127.500163
 20
125.880941
 30
0.0
 10
127.500103
 20
124.500148
 30
0.0
  0
LINE
  5
22a
100
AcDbEntity
  8
0
 62
7
100
AcDbLine
 10
127.500103
 20
124.500148
 30
0.0
 11
127.500103
 21
124.500148
 31
0.0
  0
SPLINE
  5
22b
100
AcDbEntity
  8
0
 62
7
100
AcDbSpline
 70
8
 71
3
 72
8
 73
4
 74
0
 40
0
 40
0
 40
0
 40
0
 40
1
 40
1
 40
1
 40
1
 10
127.500103
 20
54.500279
 30
0.0
 10
127.500159
 20
53.119471
 30
0.0
 10
126.380792
 20
52.000107
 30
0.0
 10
125.000002
 20
52.000178
 30
0.0
  0
SPLINE
  5
22c
100
AcDbEntity
  8
0
 62
7
100
AcDbSpline
 70
8
 71
3
 72
8
 73
4
 74
0
 40
0
 40
0
 40
0
 40
0
 40
1
 40
1
 40
1
 40
1
 10
125.000002
 20
52.000178
 30
0.0
 10
123.619212
 20
52.000107
 30
0.0
 10
122.499845
 20
53.119471
 30
0.0
 10
122.499901
 20
54.500279
 30
0.0
  0
SPLINE
  5
22d
100
AcDbEntity
  8
0
 62
7
100
AcDbSpline
 70
8
 71
3
 72
8
 73
4
 74
0
 40
0
 40
0
 40
0
 40
0
 40
1
 40
1
 40
1
 40
1
 10
122.499901
 20
54.500279
 30
0.0
 10
122.499845
 20
55.881051
 30
0.0
 10
123.619212
 20
57.000415
 30
0.0
 10
125.000002
 20
57.000379
 30
0.0
  0
SPLINE
  5
22e
100
AcDbEntity
  8
0
 62
7
100
AcDbSpline
 70
8
 71
3
 72
8
 73
4
 74
0
 40
0
 40
0
 40
0
 40
0
 40
1
 40
1
 40
1
 40
1
 10
125.000002
 20
57.000379
 30
0.0
 10
126.380792
 20
57.000415
 30
0.0
 10
127.500159
 20
55.881051
 30
0.0
 10
127.500103
 20
54.500279
 30
0.0
  0
LINE
  5
22f
100
AcDbEntity
  8
0
 62
7
100
AcDbLine
 10
127.500103
 20
54.500279
 30
0.0
 11
127.500103
 21
54.500279
 31
0.0
  0
LINE
  5
230
100
AcDbEntity
  8
0
 62
7
100
AcDbLine
 10
110.000191
 20
154.000321
 30
0.0
 11
110.000431
 21
129.000005
 31
0.0
  0
LINE
  5
231
100
AcDbEntity
  8
0
 62
7
100
AcDbLine
 10
110.000431
 20
129.000005
 30
0.0
 11
106.000432
 21
129.000298
 31
0.0
  0
LINE
  5
232
100
AcDbEntity
  8
0
 62
7
100
AcDbLine
 10
106.000432
 20
129.000298
 30
0.0
 11
106.000432
 21
154.000321
 31
0.0
  0
LINE
  5
233
100
AcDbEntity
  8
0
 62
7
100
AcDbLine
 10
106.000432
 20
154.000321
 30
0.0
 11
110.000191
 21
154.000321
 31
0.0
  0
LINE
  5
234
100
AcDbEntity
  8
0
 62
7
100
AcDbLine
 10
110.000431
 20
49.000015
 30
0.0
 11
110.000191
 21
23.999994
 31
0.0
  0
LINE
  5
235
100
AcDbEntity
  8
0
 62
7
100
AcDbLine
 10
110.000191
 20
23.999994
 30
0.0
 11
106.000432
 21
23.999994
 31
0.0
  0
LINE
  5
236
100
AcDbEntity
  8
0
 62
7
100
AcDbLine
 10
106.000432
 20
23.999994
 30
0.0
 11
106.000432
 21
49.000015
 31
0.0
  0
LINE
  5
237
100
AcDbEntity
  8
0
 62
7
100
AcDbLine
 10
106.000432
 20
49.000015
 30
0.0
 11
110.000431
 21
49.000015
 31
0.0
  0
LINE
  5
238
100
AcDbEntity
  8
0
 62
7
100
AcDbLine
 10
96.000001
 20
154.000321
 30
0.0
 11
96.000001
 21
150.000047
 31
0.0
  0
LINE
  5
239
100
AcDbEntity
  8
0
 62
7
100
AcDbLine
 10
96.000001
 20
150.000047
 30
0.0
 11
81.000401
 21
150.000047
 31
0.0
  0
LINE
  5
23a
100
AcDbEntity
  8
0
 62
7
100
AcDbLine
 10
81.000401
 20
150.000047
 30
0.0
 11
81.000401
 21
154.000321
 31
0.0
  0
LINE
  5
23b
100
AcDbEntity
  8
0
 62
7
100
AcDbLine
 10
81.000401
 20
154.000321
 30
0.0
 11
96.000001
 21
154.000321
 31
0.0
  0
LINE
  5
23c
100
AcDbEntity
  8
0
 62
7
100
AcDbLine
 10
96.000001
 20
28.000247
 30
0.0
 11
96.000001
 21
23.999994
 31
0.0
  0
LINE
  5
23d
100
AcDbEntity
  8
0
 62
7
100
AcDbLine
 10
96.000001
 20
23.999994
 30
0.0
 11
81.000401
 21
23.999994
 31
0.0
  0
LINE
  5
23e
100
AcDbEntity
  8
0
 62
7
100
AcDbLine
 10
81.000401
 20
23.999994
 30
0.0
 11
81.000401
 21
28.000247
 31
0.0
  0
LINE
  5
23f
100
AcDbEntity
  8
0
 62
7
100
AcDbLine
 10
81.000401
 20
28.000247
 30
0.0
 11
96.000001
 21
28.000247
 31
0.0
  0
SPLINE
  5
240
100
AcDbEntity
  8
0
 62
7
100
AcDbSpline
 70
8
 71
3
 72
8
 73
4
 74
0
 40
0
 40
0
 40
0
 40
0
 40
1
 40
1
 40
1
 40
1
 10
45.246748
 20
149.963570
 30
0.0
 10
45.246536
 20
149.825775
 30
0.0
 10
45.134907
 20
149.714184
 30
0.0
 10
44.997165
 20
149.713973
 30
0.0
  0
SPLINE
  5
241
100
AcDbEntity
  8
0
 62
7
100
AcDbSpline
 70
8
 71
3
 72
8
 73
4
 74
0
 40
0
 40
0
 40
0
 40
0
 40
1
 40
1
 40
1
 40
1
 10
44.997165
 20
149.713973
 30
0.0
 10
44.859158
 20
149.713902
 30
0.0
 10
44.747215
 20
149.825599
 30
0.0
 10
44.747056
 20
149.963570
 30
0.0
  0
LINE
  5
242
100
AcDbEntity
  8
0
 62
7
100
AcDbLine
 10
44.747056
 20
149.963570
 30
0.0
 11
35.253069
 21
149.963570
 31
0.0
  0
SPLINE
  5
243
100
AcDbEntity
  8
0
 62
7
100
AcDbSpline
 70
8
 71
3
 72
8
 73
4
 74
0
 40
0
 40
0
 40
0
 40
0
 40
1
 40
1
 40
1
 40
1
 10
35.253069
 20
149.963570
 30
0.0
 10
35.252857
 20
149.825599
 30
0.0
 10
35.140910
 20
149.713902
 30
0.0
 10
35.002932
 20
149.713973
 30
0.0
  0
SPLINE
  5
244
100
AcDbEntity
  8
0
 62
7
100
AcDbSpline
 70
8
 71
3
 72
8
 73
4
 74
0
 40
0
 40
0
 40
0
 40
0
 40
1
 40
1
 40
1
 40
1
 10
35.002932
 20
149.713973
 30
0.0
 10
34.864978
 20
149.713902
 30
0.0
 10
34.753031
 20
149.825599
 30
0.0
 10
34.752819
 20
149.963570
 30
0.0
  0
SPLINE
  5
245
100
AcDbEntity
  8
0
 62
7
100
AcDbSpline
 70
8
 71
3
 72
8
 73
4
 74
0
 40
0
 40
0
 40
0
 40
0
 40
1
 40
1
 40
1
 40
1
 10
34.752819
 20
149.963570
 30
0.0
 10
34.752766
 20
150.101718
 30
0.0
 10
34.864791
 20
150.213718
 30
0.0
 10
35.002932
 20
150.213682
 30
0.0
  0
LINE
  5
246
100
AcDbEntity
  8
0
 62
7
100
AcDbLine
 10
35.002932
 20
150.213682
 30
0.0
 11
35.002932
 21
153.713728
 31
0.0
  0
SPLINE
  5
247
100
AcDbEntity
  8
0
 62
7
100
AcDbSpline
 70
8
 71
3
 72
8
 73
4
 74
0
 40
0
 40
0
 40
0
 40
0
 40
1
 40
1
 40
1
 40
1
 10
35.002932
 20
153.713728
 30
0.0
 10
34.864791
 20
153.713658
 30
0.0
 10
34.752766
 20
153.825658
 30
0.0
 10
34.752819
 20
153.963841
 30
0.0
  0
SPLINE
  5
248
100
AcDbEntity
  8
0
 62
7
100
AcDbSpline
 70
8
 71
3
 72
8
 73
4
 74
0
 40
0
 40
0
 40
0
 40
0
 40
1
 40
1
 40
1
 40
1
 10
34.752819
 20
153.963841
 30
0.0
 10
34.752766
 20
154.101988
 30
0.0
 10
34.864791
 20
154.213992
 30
0.0
 10
35.002932
 20
154.213957
 30
0.0
  0
SPLINE
  5
249
100
AcDbEntity
  8
0
 62
7
100
AcDbSpline
 70
8
 71
3
 72
8
 73
4
 74
0
 40
0
 40
0
 40
0
 40
0
 40
1
 40
1
 40
1
 40
1
 10
35.002932
 20
154.213957
 30
0.0
 10
35.141097
 20
154.213992
 30
0.0
 10
35.253122
 20
154.101988
 30
0.0
 10
35.253069
 20
153.963841
 30
0.0
  0
LINE
  5
24a
100
AcDbEntity
  8
0
 62
7
100
AcDbLine
 10
35.253069
 20
153.963841
 30
0.0
 11
44.678846
 21
153.963841
 31
0.0
  0
SPLINE
  5
24b
100
AcDbEntity
  8
0
 62
7
100
AcDbSpline
 70
8
 71
3
 72
8
 73
4
 74
0
 40
0
 40
0
 40
0
 40
0
 40
1
 40
1
 40
1
 40
1
 10
44.678846
 20
153.963841
 30
0.0
 10
44.695392
 20
154.087736
 30
0.0
 10
44.801295
 20
154.180224
 30
0.0
 10
44.926362
 20
154.180365
 30
0.0
  0
SPLINE
  5
24c
100
AcDbEntity
  8
0
 62
7
100
AcDbSpline
 70
8
 71
3
 72
8
 73
4
 74
0
 40
0
 40
0
 40
0
 40
0
 40
1
 40
1
 40
1
 40
1
 10
44.926362
 20
154.180365
 30
0.0
 10
45.064291
 20
154.180365
 30
0.0
 10
45.176235
 20
154.068739
 30
0.0
 10
45.176475
 20
153.930768
 30
0.0
  0
SPLINE
  5
24d
100
AcDbEntity
  8
0
 62
7
100
AcDbSpline
 70
8
 71
3
 72
8
 73
4
 74
0
 40
0
 40
0
 40
0
 40
0
 40
1
 40
1
 40
1
 40
1
 10
45.176475
 20
153.930768
 30
0.0
 10
45.176686
 20
153.819713
 30
0.0
 10
45.103661
 20
153.721870
 30
0.0
 10
44.997165
 20
153.690473
 30
0.0
  0
LINE
  5
24e
100
AcDbEntity
  8
0
 62
7
100
AcDbLine
 10
44.997165
 20
153.690473
 30
0.0
 11
44.997165
 21
150.213682
 31
0.0
  0
SPLINE
  5
24f
100
AcDbEntity
  8
0
 62
7
100
AcDbSpline
 70
8
 71
3
 72
8
 73
4
 74
0
 40
0
 40
0
 40
0
 40
0
 40
1
 40
1
 40
1
 40
1
 10
44.997165
 20
150.213682
 30
0.0
 10
45.135094
 20
150.213435
 30
0.0
 10
45.246801
 20
150.101506
 30
0.0
 10
45.246748
 20
149.963570
 30
0.0
  0
LINE
  5
250
100
AcDbEntity
  8
0
 62
7
100
AcDbLine
 10
45.246748
 20
149.963570
 30
0.0
 11
45.246748
 21
149.963570
 31
0.0
  0
SPLINE
  5
251
100
AcDbEntity
  8
0
 62
7
100
AcDbSpline
 70
8
 71
3
 72
8
 73
4
 74
0
 40
0
 40
0
 40
0
 40
0
 40
1
 40
1
 40
1
 40
1
 10
45.246815
 20
28.036972
 30
0.0
 10
45.246868
 20
27.899035
 30
0.0
 10
45.135161
 20
27.787099
 30
0.0
 10
44.997232
 20
27.786852
 30
0.0
  0
LINE
  5
252
100
AcDbEntity
  8
0
 62
7
100
AcDbLine
 10
44.997232
 20
27.786852
 30
0.0
 11
44.997232
 21
24.310086
 31
0.0
  0
SPLINE
  5
253
100
AcDbEntity
  8
0
 62
7
100
AcDbSpline
 70
8
 71
3
 72
8
 73
4
 74
0
 40
0
 40
0
 40
0
 40
0
 40
1
 40
1
 40
1
 40
1
 10
44.997232
 20
24.310086
 30
0.0
 10
45.103728
 20
24.278689
 30
0.0
 10
45.176753
 20
24.180828
 30
0.0
 10
45.176542
 20
24.069774
 30
0.0
  0
SPLINE
  5
254
100
AcDbEntity
  8
0
 62
7
100
AcDbSpline
 70
8
 71
3
 72
8
 73
4
 74
0
 40
0
 40
0
 40
0
 40
0
 40
1
 40
1
 40
1
 40
1
 10
45.176542
 20
24.069774
 30
0.0
 10
45.176302
 20
23.931838
 30
0.0
 10
45.064358
 20
23.820148
 30
0.0
 10
44.926429
 20
23.820184
 30
0.0
  0
SPLINE
  5
255
100
AcDbEntity
  8
0
 62
7
100
AcDbSpline
 70
8
 71
3
 72
8
 73
4
 74
0
 40
0
 40
0
 40
0
 40
0
 40
1
 40
1
 40
1
 40
1
 10
44.926429
 20
23.820184
 30
0.0
 10
44.801362
 20
23.820325
 30
0.0
 10
44.695635
 20
23.912823
 30
0.0
 10
44.678913
 20
24.036719
 30
0.0
  0
LINE
  5
256
100
AcDbEntity
  8
0
 62
7
100
AcDbLine
 10
44.678913
 20
24.036719
 30
0.0
 11
35.253136
 21
24.036719
 31
0.0
  0
SPLINE
  5
257
100
AcDbEntity
  8
0
 62
7
100
AcDbSpline
 70
8
 71
3
 72
8
 73
4
 74
0
 40
0
 40
0
 40
0
 40
0
 40
1
 40
1
 40
1
 40
1
 10
35.253136
 20
24.036719
 30
0.0
 10
35.253189
 20
23.898535
 30
0.0
 10
35.141164
 20
23.786564
 30
0.0
 10
35.002999
 20
23.786599
 30
0.0
  0
SPLINE
  5
258
100
AcDbEntity
  8
0
 62
7
100
AcDbSpline
 70
8
 71
3
 72
8
 73
4
 74
0
 40
0
 40
0
 40
0
 40
0
 40
1
 40
1
 40
1
 40
1
 10
35.002999
 20
23.786599
 30
0.0
 10
34.864858
 20
23.786564
 30
0.0
 10
34.752833
 20
23.898535
 30
0.0
 10
34.752886
 20
24.036719
 30
0.0
  0
SPLINE
  5
259
100
AcDbEntity
  8
0
 62
7
100
AcDbSpline
 70
8
 71
3
 72
8
 73
4
 74
0
 40
0
 40
0
 40
0
 40
0
 40
1
 40
1
 40
1
 40
1
 10
34.752886
 20
24.036719
 30
0.0
 10
34.752833
 20
24.174866
 30
0.0
 10
34.864858
 20
24.286873
 30
0.0
 10
35.002999
 20
24.286838
 30
0.0
  0
LINE
  5
25a
100
AcDbEntity
  8
0
 62
7
100
AcDbLine
 10
35.002999
 20
24.286838
 30
0.0
 11
35.002999
 21
27.786852
 31
0.0
  0
SPLINE
  5
25b
100
AcDbEntity
  8
0
 62
7
100
AcDbSpline
 70
8
 71
3
 72
8
 73
4
 74
0
 40
0
 40
0
 40
0
 40
0
 40
1
 40
1
 40
1
 40
1
 10
35.002999
 20
27.786852
 30
0.0
 10
34.864858
 20
27.786852
 30
0.0
 10
34.752833
 20
27.898824
 30
0.0
 10
34.752886
 20
28.036972
 30
0.0
  0
SPLINE
  5
25c
100
AcDbEntity
  8
0
 62
7
100
AcDbSpline
 70
8
 71
3
 72
8
 73
4
 74
0
 40
0
 40
0
 40
0
 40
0
 40
1
 40
1
 40
1
 40
1
 10
34.752886
 20
28.036972
 30
0.0
 10
34.753098
 20
28.174943
 30
0.0
 10
34.865045
 20
28.286597
 30
0.0
 10
35.002999
 20
28.286562
 30
0.0
  0
SPLINE
  5
25d
100
AcDbEntity
  8
0
 62
7
100
AcDbSpline
 70
8
 71
3
 72
8
 73
4
 74
0
 40
0
 40
0
 40
0
 40
0
 40
1
 40
1
 40
1
 40
1
 10
35.002999
 20
28.286562
 30
0.0
 10
35.140977
 20
28.286597
 30
0.0
 10
35.252924
 20
28.174943
 30
0.0
 10
35.253136
 20
28.036972
 30
0.0
  0
LINE
  5
25e
100
AcDbEntity
  8
0
 62
7
100
AcDbLine
 10
35.253136
 20
28.036972
 30
0.0
 11
44.747123
 21
28.036972
 31
0.0
  0
SPLINE
  5
25f
100
AcDbEntity
  8
0
 62
7
100
AcDbSpline
 70
8
 71
3
 72
8
 73
4
 74
0
 40
0
 40
0
 40
0
 40
0
 40
1
 40
1
 40
1
 40
1
 10
44.747123
 20
28.036972
 30
0.0
 10
44.747282
 20
28.174943
 30
0.0
 10
44.859225
 20
28.286597
 30
0.0
 10
44.997232
 20
28.286562
 30
0.0
  0
SPLINE
  5
260
100
AcDbEntity
  8
0
 62
7
100
AcDbSpline
 70
8
 71
3
 72
8
 73
4
 74
0
 40
0
 40
0
 40
0
 40
0
 40
1
 40
1
 40
1
 40
1
 10
44.997232
 20
28.286562
 30
0.0
 10
45.134974
 20
28.286350
 30
0.0
 10
45.246603
 20
28.174767
 30
0.0
 10
45.246815
 20
28.036972
 30
0.0
  0
LINE
  5
261
100
AcDbEntity
  8
0
 62
7
100
AcDbLine
 10
45.246815
 20
28.036972
 30
0.0
 11
45.246815
 21
28.036972
 31
0.0
  0
SPLINE
  5
262
100
AcDbEntity
  8
0
 62
7
100
AcDbSpline
 70
8
 71
3
 72
8
 73
4
 74
0
 40
0
 40
0
 40
0
 40
0
 40
1
 40
1
 40
1
 40
1
 10
9.249998
 20
123.994610
 30
0.0
 10
9.250051
 20
123.856604
 30
0.0
 10
9.138369
 20
123.744710
 30
0.0
 10
9.000390
 20
123.744498
 30
0.0
  0
LINE
  5
263
100
AcDbEntity
  8
0
 62
7
100
AcDbLine
 10
9.000390
 20
123.744498
 30
0.0
 11
9.000390
 21
114.250504
 31
0.0
  0
SPLINE
  5
264
100
AcDbEntity
  8
0
 62
7
100
AcDbSpline
 70
8
 71
3
 72
8
 73
4
 74
0
 40
0
 40
0
 40
0
 40
0
 40
1
 40
1
 40
1
 40
1
 10
9.000390
 20
114.250504
 30
0.0
 10
9.138369
 20
114.250292
 30
0.0
 10
9.250051
 20
114.138328
 30
0.0
 10
9.249998
 20
114.000391
 30
0.0
  0
SPLINE
  5
265
100
AcDbEntity
  8
0
 62
7
100
AcDbSpline
 70
8
 71
3
 72
8
 73
4
 74
0
 40
0
 40
0
 40
0
 40
0
 40
1
 40
1
 40
1
 40
1
 10
9.249998
 20
114.000391
 30
0.0
 10
9.250051
 20
113.862385
 30
0.0
 10
9.138369
 20
113.750487
 30
0.0
 10
9.000390
 20
113.750276
 30
0.0
  0
SPLINE
  5
266
100
AcDbEntity
  8
0
 62
7
100
AcDbSpline
 70
8
 71
3
 72
8
 73
4
 74
0
 40
0
 40
0
 40
0
 40
0
 40
1
 40
1
 40
1
 40
1
 10
9.000390
 20
113.750276
 30
0.0
 10
8.862250
 20
113.750205
 30
0.0
 10
8.750200
 20
113.862208
 30
0.0
 10
8.750278
 20
114.000391
 30
0.0
  0
LINE
  5
267
100
AcDbEntity
  8
0
 62
7
100
AcDbLine
 10
8.750278
 20
114.000391
 30
0.0
 11
5.250239
 21
114.000391
 31
0.0
  0
SPLINE
  5
268
100
AcDbEntity
  8
0
 62
7
100
AcDbSpline
 70
8
 71
3
 72
8
 73
4
 74
0
 40
0
 40
0
 40
0
 40
0
 40
1
 40
1
 40
1
 40
1
 10
5.250239
 20
114.000391
 30
0.0
 10
5.250292
 20
113.862208
 30
0.0
 10
5.138268
 20
113.750205
 30
0.0
 10
5.000127
 20
113.750276
 30
0.0
  0
SPLINE
  5
269
100
AcDbEntity
  8
0
 62
7
100
AcDbSpline
 70
8
 71
3
 72
8
 73
4
 74
0
 40
0
 40
0
 40
0
 40
0
 40
1
 40
1
 40
1
 40
1
 10
5.000127
 20
113.750276
 30
0.0
 10
4.861961
 20
113.750205
 30
0.0
 10
4.749937
 20
113.862208
 30
0.0
 10
4.749990
 20
114.000391
 30
0.0
  0
SPLINE
  5
26a
100
AcDbEntity
  8
0
 62
7
100
AcDbSpline
 70
8
 71
3
 72
8
 73
4
 74
0
 40
0
 40
0
 40
0
 40
0
 40
1
 40
1
 40
1
 40
1
 10
4.749990
 20
114.000391
 30
0.0
 10
4.749937
 20
114.138504
 30
0.0
 10
4.861961
 20
114.250610
 30
0.0
 10
5.000127
 20
114.250504
 30
0.0
  0
LINE
  5
26b
100
AcDbEntity
  8
0
 62
7
100
AcDbLine
 10
5.000127
 20
114.250504
 30
0.0
 11
5.000127
 21
123.676285
 31
0.0
  0
SPLINE
  5
26c
100
AcDbEntity
  8
0
 62
7
100
AcDbSpline
 70
8
 71
3
 72
8
 73
4
 74
0
 40
0
 40
0
 40
0
 40
0
 40
1
 40
1
 40
1
 40
1
 10
5.000127
 20
123.676285
 30
0.0
 10
4.876196
 20
123.692866
 30
0.0
 10
4.783698
 20
123.798791
 30
0.0
 10
4.783592
 20
123.923815
 30
0.0
  0
SPLINE
  5
26d
100
AcDbEntity
  8
0
 62
7
100
AcDbSpline
 70
8
 71
3
 72
8
 73
4
 74
0
 40
0
 40
0
 40
0
 40
0
 40
1
 40
1
 40
1
 40
1
 10
4.783592
 20
123.923815
 30
0.0
 10
4.783514
 20
124.061783
 30
0.0
 10
4.895221
 20
124.173680
 30
0.0
 10
5.033200
 20
124.173931
 30
0.0
  0
SPLINE
  5
26e
100
AcDbEntity
  8
0
 62
7
100
AcDbSpline
 70
8
 71
3
 72
8
 73
4
 74
0
 40
0
 40
0
 40
0
 40
0
 40
1
 40
1
 40
1
 40
1
 10
5.033200
 20
124.173931
 30
0.0
 10
5.144247
 20
124.174143
 30
0.0
 10
5.242090
 20
124.101118
 30
0.0
 10
5.273494
 20
123.994610
 30
0.0
  0
LINE
  5
26f
100
AcDbEntity
  8
0
 62
7
100
AcDbLine
 10
5.273494
 20
123.994610
 30
0.0
 11
8.750278
 21
123.994610
 31
0.0
  0
SPLINE
  5
270
100
AcDbEntity
  8
0
 62
7
100
AcDbSpline
 70
8
 71
3
 72
8
 73
4
 74
0
 40
0
 40
0
 40
0
 40
0
 40
1
 40
1
 40
1
 40
1
 10
8.750278
 20
123.994610
 30
0.0
 10
8.750490
 20
124.132550
 30
0.0
 10
8.862408
 20
124.244208
 30
0.0
 10
9.000390
 20
124.244208
 30
0.0
  0
SPLINE
  5
271
100
AcDbEntity
  8
0
 62
7
100
AcDbSpline
 70
8
 71
3
 72
8
 73
4
 74
0
 40
0
 40
0
 40
0
 40
0
 40
1
 40
1
 40
1
 40
1
 10
9.000390
 20
124.244208
 30
0.0
 10
9.138157
 20
124.243996
 30
0.0
 10
9.249787
 20
124.132370
 30
0.0
 10
9.249998
 20
123.994610
 30
0.0
  0
LINE
  5
272
100
AcDbEntity
  8
0
 62
7
100
AcDbLine
 10
9.249998
 20
123.994610
 30
0.0
 11
9.249998
 21
123.994610
 31
0.0
  0
SPLINE
  5
273
100
AcDbEntity
  8
0
 62
7
100
AcDbSpline
 70
8
 71
3
 72
8
 73
4
 74
0
 40
0
 40
0
 40
0
 40
0
 40
1
 40
1
 40
1
 40
1
 10
9.249998
 20
64.000231
 30
0.0
 10
9.250051
 20
63.862260
 30
0.0
 10
9.138369
 20
63.750323
 30
0.0
 10
9.000390
 20
63.750112
 30
0.0
  0
LINE
  5
274
100
AcDbEntity
  8
0
 62
7
100
AcDbLine
 10
9.000390
 20
63.750112
 30
0.0
 11
9.000390
 21
54.256121
 31
0.0
  0
SPLINE
  5
275
100
AcDbEntity
  8
0
 62
7
100
AcDbSpline
 70
8
 71
3
 72
8
 73
4
 74
0
 40
0
 40
0
 40
0
 40
0
 40
1
 40
1
 40
1
 40
1
 10
9.000390
 20
54.256121
 30
0.0
 10
9.138369
 20
54.255945
 30
0.0
 10
9.250051
 20
54.144008
 30
0.0
 10
9.249998
 20
54.006002
 30
0.0
  0
SPLINE
  5
276
100
AcDbEntity
  8
0
 62
7
100
AcDbSpline
 70
8
 71
3
 72
8
 73
4
 74
0
 40
0
 40
0
 40
0
 40
0
 40
1
 40
1
 40
1
 40
1
 10
9.249998
 20
54.006002
 30
0.0
 10
9.249787
 20
53.868242
 30
0.0
 10
9.138157
 20
53.756623
 30
0.0
 10
9.000390
 20
53.756411
 30
0.0
  0
SPLINE
  5
277
100
AcDbEntity
  8
0
 62
7
100
AcDbSpline
 70
8
 71
3
 72
8
 73
4
 74
0
 40
0
 40
0
 40
0
 40
0
 40
1
 40
1
 40
1
 40
1
 10
9.000390
 20
53.756411
 30
0.0
 10
8.862408
 20
53.756376
 30
0.0
 10
8.750490
 20
53.868066
 30
0.0
 10
8.750278
 20
54.006002
 30
0.0
  0
LINE
  5
278
100
AcDbEntity
  8
0
 62
7
100
AcDbLine
 10
8.750278
 20
54.006002
 30
0.0
 11
5.273494
 21
54.006002
 31
0.0
  0
SPLINE
  5
279
100
AcDbEntity
  8
0
 62
7
100
AcDbSpline
 70
8
 71
3
 72
8
 73
4
 74
0
 40
0
 40
0
 40
0
 40
0
 40
1
 40
1
 40
1
 40
1
 10
5.273494
 20
54.006002
 30
0.0
 10
5.242097
 20
53.899498
 30
0.0
 10
5.144247
 20
53.826473
 30
0.0
 10
5.033200
 20
53.826685
 30
0.0
  0
SPLINE
  5
27a
100
AcDbEntity
  8
0
 62
7
100
AcDbSpline
 70
8
 71
3
 72
8
 73
4
 74
0
 40
0
 40
0
 40
0
 40
0
 40
1
 40
1
 40
1
 40
1
 10
5.033200
 20
53.826685
 30
0.0
 10
4.895221
 20
53.826932
 30
0.0
 10
4.783514
 20
53.938868
 30
0.0
 10
4.783592
 20
54.076804
 30
0.0
  0
SPLINE
  5
27b
100
AcDbEntity
  8
0
 62
7
100
AcDbSpline
 70
8
 71
3
 72
8
 73
4
 74
0
 40
0
 40
0
 40
0
 40
0
 40
1
 40
1
 40
1
 40
1
 10
4.783592
 20
54.076804
 30
0.0
 10
4.783698
 20
54.201864
 30
0.0
 10
4.876196
 20
54.307627
 30
0.0
 10
5.000127
 20
54.324348
 30
0.0
  0
LINE
  5
27c
100
AcDbEntity
  8
0
 62
7
100
AcDbLine
 10
5.000127
 20
54.324348
 30
0.0
 11
5.000127
 21
63.750112
 31
0.0
  0
SPLINE
  5
27d
100
AcDbEntity
  8
0
 62
7
100
AcDbSpline
 70
8
 71
3
 72
8
 73
4
 74
0
 40
0
 40
0
 40
0
 40
0
 40
1
 40
1
 40
1
 40
1
 10
5.000127
 20
63.750112
 30
0.0
 10
4.861961
 20
63.750041
 30
0.0
 10
4.749937
 20
63.862083
 30
0.0
 10
4.749990
 20
64.000231
 30
0.0
  0
SPLINE
  5
27e
100
AcDbEntity
  8
0
 62
7
100
AcDbSpline
 70
8
 71
3
 72
8
 73
4
 74
0
 40
0
 40
0
 40
0
 40
0
 40
1
 40
1
 40
1
 40
1
 10
4.749990
 20
64.000231
 30
0.0
 10
4.749937
 20
64.138379
 30
0.0
 10
4.861961
 20
64.250456
 30
0.0
 10
5.000127
 20
64.250351
 30
0.0
  0
SPLINE
  5
27f
100
AcDbEntity
  8
0
 62
7
100
AcDbSpline
 70
8
 71
3
 72
8
 73
4
 74
0
 40
0
 40
0
 40
0
 40
0
 40
1
 40
1
 40
1
 40
1
 10
5.000127
 20
64.250351
 30
0.0
 10
5.138268
 20
64.250456
 30
0.0
 10
5.250292
 20
64.138379
 30
0.0
 10
5.250239
 20
64.000231
 30
0.0
  0
LINE
  5
280
100
AcDbEntity
  8
0
 62
7
100
AcDbLine
 10
5.250239
 20
64.000231
 30
0.0
 11
8.750278
 21
64.000231
 31
0.0
  0
SPLINE
  5
281
100
AcDbEntity
  8
0
 62
7
100
AcDbSpline
 70
8
 71
3
 72
8
 73
4
 74
0
 40
0
 40
0
 40
0
 40
0
 40
1
 40
1
 40
1
 40
1
 10
8.750278
 20
64.000231
 30
0.0
 10
8.750200
 20
64.138379
 30
0.0
 10
8.862250
 20
64.250456
 30
0.0
 10
9.000390
 20
64.250351
 30
0.0
  0
SPLINE
  5
282
100
AcDbEntity
  8
0
 62
7
100
AcDbSpline
 70
8
 71
3
 72
8
 73
4
 74
0
 40
0
 40
0
 40
0
 40
0
 40
1
 40
1
 40
1
 40
1
 10
9.000390
 20
64.250351
 30
0.0
 10
9.138369
 20
64.250139
 30
0.0
 10
9.250051
 20
64.138203
 30
0.0
 10
9.249998
 20
64.000231
 30
0.0
  0
LINE
  5
283
100
AcDbEntity
  8
0
 62
7
100
AcDbLine
 10
9.249998
 20
64.000231
 30
0.0
 11
9.249998
 21
64.000231
 31
0.0
  0
SPLINE
  5
284
100
AcDbEntity
  8
0
 62
7
100
AcDbSpline
 70
8
 71
3
 72
8
 73
4
 74
0
 40
0
 40
0
 40
0
 40
0
 40
1
 40
1
 40
1
 40
1
 10
51.570822
 20
131.004471
 30
0.0
 10
51.559180
 20
132.619791
 30
0.0
 10
47.999847
 20
134.004472
 30
0.0
 10
47.999635
 20
132.004246
 30
0.0
  0
SPLINE
  5
285
100
AcDbEntity
  8
0
 62
7
100
AcDbSpline
 70
8
 71
3
 72
8
 73
4
 74
0
 40
0
 40
0
 40
0
 40
0
 40
1
 40
1
 40
1
 40
1
 10
47.999635
 20
132.004246
 30
0.0
 10
47.999847
 20
131.004471
 30
0.0
 10
35.110114
 20
130.003852
 30
0.0
 10
31.005315
 20
130.003852
 30
0.0
  0
SPLINE
  5
286
100
AcDbEntity
  8
0
 62
7
100
AcDbSpline
 70
8
 71
3
 72
8
 73
4
 74
0
 40
0
 40
0
 40
0
 40
0
 40
1
 40
1
 40
1
 40
1
 10
31.005315
 20
130.003852
 30
0.0
 10
29.999846
 20
130.004557
 30
0.0
 10
29.999846
 20
129.004471
 30
0.0
 10
29.999846
 20
128.004470
 30
0.0
  0
LINE
  5
287
100
AcDbEntity
  8
0
 62
7
100
AcDbLine
 10
29.999846
 20
128.004470
 30
0.0
 11
29.999846
 21
126.003987
 31
0.0
  0
LINE
  5
288
100
AcDbEntity
  8
0
 62
7
100
AcDbLine
 10
29.999846
 20
126.003987
 30
0.0
 11
25.000150
 21
126.003987
 31
0.0
  0
LINE
  5
289
100
AcDbEntity
  8
0
 62
7
100
AcDbLine
 10
25.000150
 20
126.003987
 30
0.0
 11
25.000150
 21
111.003869
 31
0.0
  0
LINE
  5
28a
100
AcDbEntity
  8
0
 62
7
100
AcDbLine
 10
25.000150
 20
111.003869
 30
0.0
 11
29.999846
 21
111.003869
 31
0.0
  0
LINE
  5
28b
100
AcDbEntity
  8
0
 62
7
100
AcDbLine
 10
29.999846
 20
111.003869
 30
0.0
 11
29.999846
 21
107.004110
 31
0.0
  0
LINE
  5
28c
100
AcDbEntity
  8
0
 62
7
100
AcDbLine
 10
29.999846
 20
107.004110
 30
0.0
 11
35.000047
 21
107.004110
 31
0.0
  0
LINE
  5
28d
100
AcDbEntity
  8
0
 62
7
100
AcDbLine
 10
35.000047
 20
107.004110
 30
0.0
 11
35.000047
 21
111.003869
 31
0.0
  0
LINE
  5
28e
100
AcDbEntity
  8
0
 62
7
100
AcDbLine
 10
35.000047
 20
111.003869
 30
0.0
 11
39.999747
 21
111.003869
 31
0.0
  0
LINE
  5
28f
100
AcDbEntity
  8
0
 62
7
100
AcDbLine
 10
39.999747
 20
111.003869
 30
0.0
 11
39.999747
 21
107.004628
 31
0.0
  0
LINE
  5
290
100
AcDbEntity
  8
0
 62
7
100
AcDbLine
 10
39.999747
 20
107.004628
 30
0.0
 11
44.999976
 21
107.004628
 31
0.0
  0
LINE
  5
291
100
AcDbEntity
  8
0
 62
7
100
AcDbLine
 10
44.999976
 20
107.004628
 30
0.0
 11
44.999976
 21
111.003869
 31
0.0
  0
LINE
  5
292
100
AcDbEntity
  8
0
 62
7
100
AcDbLine
 10
44.999976
 20
111.003869
 30
0.0
 11
54.999850
 21
111.004222
 31
0.0
  0
SPLINE
  5
293
100
AcDbEntity
  8
0
 62
7
100
AcDbSpline
 70
8
 71
3
 72
8
 73
4
 74
0
 40
0
 40
0
 40
0
 40
0
 40
1
 40
1
 40
1
 40
1
 10
54.999850
 20
111.004222
 30
0.0
 10
54.999850
 20
115.004221
 30
0.0
 10
49.999860
 20
123.004222
 30
0.0
 10
49.999860
 20
126.004223
 30
0.0
  0
LINE
  5
294
100
AcDbEntity
  8
0
 62
7
100
AcDbLine
 10
49.999860
 20
126.004223
 30
0.0
 11
49.999860
 21
130.003605
 31
0.0
  0
SPLINE
  5
295
100
AcDbEntity
  8
0
 62
7
100
AcDbSpline
 70
8
 71
3
 72
8
 73
4
 74
0
 40
0
 40
0
 40
0
 40
0
 40
1
 40
1
 40
1
 40
1
 10
49.999860
 20
130.003605
 30
0.0
 10
51.595164
 20
130.004310
 30
0.0
 10
51.577331
 20
130.107138
 30
0.0
 10
51.570822
 20
131.004294
 30
0.0
  0
LINE
  5
296
100
AcDbEntity
  8
0
 62
7
100
AcDbLine
 10
51.570822
 20
131.004294
 30
0.0
 11
51.570822
 21
131.004471
 31
0.0
  0
SPLINE
  5
297
100
AcDbEntity
  8
0
 62
7
100
AcDbSpline
 70
8
 71
3
 72
8
 73
4
 74
0
 40
0
 40
0
 40
0
 40
0
 40
1
 40
1
 40
1
 40
1
 10
51.570981
 20
48.587511
 30
0.0
 10
51.559339
 20
46.972177
 30
0.0
 10
48.000006
 20
45.587525
 30
0.0
 10
47.999794
 20
47.587739
 30
0.0
  0
SPLINE
  5
298
100
AcDbEntity
  8
0
 62
7
100
AcDbSpline
 70
8
 71
3
 72
8
 73
4
 74
0
 40
0
 40
0
 40
0
 40
0
 40
1
 40
1
 40
1
 40
1
 10
47.999794
 20
47.587739
 30
0.0
 10
48.000006
 20
48.587511
 30
0.0
 10
35.110269
 20
49.588130
 30
0.0
 10
31.005470
 20
49.588130
 30
0.0
  0
SPLINE
  5
299
100
AcDbEntity
  8
0
 62
7
100
AcDbSpline
 70
8
 71
3
 72
8
 73
4
 74
0
 40
0
 40
0
 40
0
 40
0
 40
1
 40
1
 40
1
 40
1
 10
31.005470
 20
49.588130
 30
0.0
 10
30.000001
 20
49.587778
 30
0.0
 10
30.000001
 20
50.587514
 30
0.0
 10
30.000001
 20
51.587498
 30
0.0
  0
LINE
  5
29a
100
AcDbEntity
  8
0
 62
7
100
AcDbLine
 10
30.000001
 20
51.587498
 30
0.0
 11
30.000001
 21
53.587995
 31
0.0
  0
LINE
  5
29b
100
AcDbEntity
  8
0
 62
7
100
AcDbLine
 10
30.000001
 20
53.587995
 30
0.0
 11
25.000303
 21
53.587995
 31
0.0
  0
LINE
  5
29c
100
AcDbEntity
  8
0
 62
7
100
AcDbLine
 10
25.000303
 20
53.587995
 30
0.0
 11
25.000303
 21
68.588106
 31
0.0
  0
LINE
  5
29d
100
AcDbEntity
  8
0
 62
7
100
AcDbLine
 10
25.000303
 20
68.588106
 30
0.0
 11
30.000001
 21
68.588106
 31
0.0
  0
LINE
  5
29e
100
AcDbEntity
  8
0
 62
7
100
AcDbLine
 10
30.000001
 20
68.588106
 30
0.0
 11
30.000001
 21
72.587855
 31
0.0
  0
LINE
  5
29f
100
AcDbEntity
  8
0
 62
7
100
AcDbLine
 10
30.000001
 20
72.587855
 30
0.0
 11
35.000202
 21
72.587855
 31
0.0
  0
LINE
  5
2a0
100
AcDbEntity
  8
0
 62
7
100
AcDbLine
 10
35.000202
 20
72.587855
 30
0.0
 11
35.000202
 21
68.588106
 31
0.0
  0
LINE
  5
2a1
100
AcDbEntity
  8
0
 62
7
100
AcDbLine
 10
35.000202
 20
68.588106
 30
0.0
 11
39.999905
 21
68.588106
 31
0.0
  0
LINE
  5
2a2
100
AcDbEntity
  8
0
 62
7
100
AcDbLine
 10
39.999905
 20
68.588106
 30
0.0
 11
39.999905
 21
72.587325
 31
0.0
  0
LINE
  5
2a3
100
AcDbEntity
  8
0
 62
7
100
AcDbLine
 10
39.999905
 20
72.587325
 30
0.0
 11
45.000135
 21
72.587325
 31
0.0
  0
LINE
  5
2a4
100
AcDbEntity
  8
0
 62
7
100
AcDbLine
 10
45.000135
 20
72.587325
 30
0.0
 11
45.000135
 21
68.588106
 31
0.0
  0
LINE
  5
2a5
100
AcDbEntity
  8
0
 62
7
100
AcDbLine
 10
45.000135
 20
68.588106
 30
0.0
 11
55.000009
 21
68.588106
 31
0.0
  0
SPLINE
  5
2a6
100
AcDbEntity
  8
0
 62
7
100
AcDbSpline
 70
8
 71
3
 72
8
 73
4
 74
0
 40
0
 40
0
 40
0
 40
0
 40
1
 40
1
 40
1
 40
1
 10
55.000009
 20
68.588106
 30
0.0
 10
55.000009
 20
64.588100
 30
0.0
 10
50.000019
 20
56.588123
 30
0.0
 10
50.000019
 20
53.588101
 30
0.0
  0
LINE
  5
2a7
100
AcDbEntity
  8
0
 62
7
100
AcDbLine
 10
50.000019
 20
53.588101
 30
0.0
 11
50.000019
 21
49.588730
 31
0.0
  0
SPLINE
  5
2a8
100
AcDbEntity
  8
0
 62
7
100
AcDbSpline
 70
8
 71
3
 72
8
 73
4
 74
0
 40
0
 40
0
 40
0
 40
0
 40
1
 40
1
 40
1
 40
1
 10
50.000019
 20
49.588730
 30
0.0
 10
51.595323
 20
49.588730
 30
0.0
 10
51.577490
 20
49.485190
 30
0.0
 10
51.570981
 20
48.588041
 30
0.0
  0
LINE
  5
2a9
100
AcDbEntity
  8
0
 62
7
100
AcDbLine
 10
51.570981
 20
48.588041
 30
0.0
 11
51.570981
 21
48.587511
 31
0.0
  0
LINE
  5
2aa
100
AcDbEntity
  8
0
 62
7
100
AcDbLine
 10
75.000001
 20
114.999988
 30
0.0
 11
105.000022
 21
114.999988
 31
0.0
  0
SPLINE
  5
2ab
100
AcDbEntity
  8
0
 62
7
100
AcDbSpline
 70
8
 71
3
 72
8
 73
4
 74
0
 40
0
 40
0
 40
0
 40
0
 40
1
 40
1
 40
1
 40
1
 10
105.000022
 20
114.999988
 30
0.0
 10
107.770019
 20
114.999988
 30
0.0
 10
110.000015
 20
112.769992
 30
0.0
 10
110.000015
 20
109.999998
 30
0.0
  0
LINE
  5
2ac
100
AcDbEntity
  8
0
 62
7
100
AcDbLine
 10
110.000015
 20
109.999998
 30
0.0
 11
110.000015
 21
69.999980
 31
0.0
  0
SPLINE
  5
2ad
100
AcDbEntity
  8
0
 62
7
100
AcDbSpline
 70
8
 71
3
 72
8
 73
4
 74
0
 40
0
 40
0
 40
0
 40
0
 40
1
 40
1
 40
1
 40
1
 10
110.000015
 20
69.999980
 30
0.0
 10
110.000015
 20
67.229987
 30
0.0
 10
107.770019
 20
64.999990
 30
0.0
 10
105.000022
 20
64.999990
 30
0.0
  0
LINE
  5
2ae
100
AcDbEntity
  8
0
 62
7
100
AcDbLine
 10
105.000022
 20
64.999990
 30
0.0
 11
75.000001
 21
64.999990
 31
0.0
  0
SPLINE
  5
2af
100
AcDbEntity
  8
0
 62
7
100
AcDbSpline
 70
8
 71
3
 72
8
 73
4
 74
0
 40
0
 40
0
 40
0
 40
0
 40
1
 40
1
 40
1
 40
1
 10
75.000001
 20
64.999990
 30
0.0
 10
72.230008
 20
64.999990
 30
0.0
 10
70.000011
 20
67.229987
 30
0.0
 10
70.000011
 20
69.999980
 30
0.0
  0
LINE
  5
2b0
100
AcDbEntity
  8
0
 62
7
100
AcDbLine
 10
70.000011
 20
69.999980
 30
0.0
 11
70.000011
 21
109.999998
 31
0.0
  0
SPLINE
  5
2b1
100
AcDbEntity
  8
0
 62
7
100
AcDbSpline
 70
8
 71
3
 72
8
 73
4
 74
0
 40
0
 40
0
 40
0
 40
0
 40
1
 40
1
 40
1
 40
1
 10
70.000011
 20
109.999998
 30
0.0
 10
70.000011
 20
112.769992
 30
0.0
 10
72.230008
 20
114.999988
 30
0.0
 10
75.000001
 20
114.999988
 30
0.0
  0
LINE
  5
2b2
100
AcDbEntity
  8
0
 62
7
100
AcDbLine
 10
75.000001
 20
114.999988
 30
0.0
 11
75.000001
 21
114.999988
 31
0.0
  0
LINE
  5
2b3
100
AcDbEntity
  8
0
 62
7
100
AcDbLine
 10
75.883357
 20
87.174525
 30
0.0
 11
71.883153
 21
87.174560
 31
0.0
  0
LINE
  5
2b4
100
AcDbEntity
  8
0
 62
7
100
AcDbLine
 10
71.883153
 20
87.174560
 30
0.0
 11
71.883393
 21
99.174579
 31
0.0
  0
LINE
  5
2b5
100
AcDbEntity
  8
0
 62
7
100
AcDbLine
 10
71.883393
 20
99.174579
 30
0.0
 11
86.883532
 21
99.174579
 31
0.0
  0
SPLINE
  5
2b6
100
AcDbEntity
  8
0
 62
7
100
AcDbSpline
 70
8
 71
3
 72
8
 73
4
 74
0
 40
0
 40
0
 40
0
 40
0
 40
1
 40
1
 40
1
 40
1
 10
86.883532
 20
99.174579
 30
0.0
 10
91.883519
 20
99.174579
 30
0.0
 10
91.883519
 20
94.174871
 30
0.0
 10
86.883532
 20
94.174871
 30
0.0
  0
LINE
  5
2b7
100
AcDbEntity
  8
0
 62
7
100
AcDbLine
 10
86.883532
 20
94.174871
 30
0.0
 11
81.883295
 21
94.174871
 31
0.0
  0
LINE
  5
2b8
100
AcDbEntity
  8
0
 62
7
100
AcDbLine
 10
81.883295
 20
94.174871
 30
0.0
 11
81.883295
 21
79.174972
 31
0.0
  0
LINE
  5
2b9
100
AcDbEntity
  8
0
 62
7
100
AcDbLine
 10
81.883295
 20
79.174972
 30
0.0
 11
91.883395
 21
79.174972
 31
0.0
  0
SPLINE
  5
2ba
100
AcDbEntity
  8
0
 62
7
100
AcDbSpline
 70
8
 71
3
 72
8
 73
4
 74
0
 40
0
 40
0
 40
0
 40
0
 40
1
 40
1
 40
1
 40
1
 10
91.883395
 20
79.174972
 30
0.0
 10
96.883396
 20
79.174972
 30
0.0
 10
96.883396
 20
74.174982
 30
0.0
 10
96.883396
 20
69.174992
 30
0.0
  0
LINE
  5
2bb
100
AcDbEntity
  8
0
 62
7
100
AcDbLine
 10
96.883396
 20
69.174992
 30
0.0
 11
91.883734
 21
69.174992
 31
0.0
  0
LINE
  5
2bc
100
AcDbEntity
  8
0
 62
7
100
AcDbLine
 10
91.883734
 20
69.174992
 30
0.0
 11
91.883988
 21
66.175252
 31
0.0
  0
LINE
  5
2bd
100
AcDbEntity
  8
0
 62
7
100
AcDbLine
 10
91.883988
 20
66.175252
 30
0.0
 11
81.883549
 21
66.175252
 31
0.0
  0
LINE
  5
2be
100
AcDbEntity
  8
0
 62
7
100
AcDbLine
 10
81.883549
 20
66.175252
 30
0.0
 11
81.883295
 21
69.174992
 31
0.0
  0
LINE
  5
2bf
100
AcDbEntity
  8
0
 62
7
100
AcDbLine
 10
81.883295
 20
69.174992
 30
0.0
 11
71.883393
 21
69.174992
 31
0.0
  0
LINE
  5
2c0
100
AcDbEntity
  8
0
 62
7
100
AcDbLine
 10
71.883393
 20
69.174992
 30
0.0
 11
71.883393
 21
76.175020
 31
0.0
  0
LINE
  5
2c1
100
AcDbEntity
  8
0
 62
7
100
AcDbLine
 10
71.883393
 20
76.175020
 30
0.0
 11
75.883357
 21
76.174985
 31
0.0
  0
LINE
  5
2c2
100
AcDbEntity
  8
0
 62
7
100
AcDbLine
 10
75.883357
 20
76.174985
 30
0.0
 11
75.883357
 21
87.174525
 31
0.0
  0
LINE
  5
2c3
100
AcDbEntity
  8
0
 62
7
100
AcDbLine
 10
104.412453
 20
100.645358
 30
0.0
 11
108.412656
 21
100.645394
 31
0.0
  0
LINE
  5
2c4
100
AcDbEntity
  8
0
 62
7
100
AcDbLine
 10
108.412656
 20
100.645394
 30
0.0
 11
108.412417
 21
112.645412
 31
0.0
  0
LINE
  5
2c5
100
AcDbEntity
  8
0
 62
7
100
AcDbLine
 10
108.412417
 20
112.645412
 30
0.0
 11
93.412277
 21
112.645412
 31
0.0
  0
SPLINE
  5
2c6
100
AcDbEntity
  8
0
 62
7
100
AcDbSpline
 70
8
 71
3
 72
8
 73
4
 74
0
 40
0
 40
0
 40
0
 40
0
 40
1
 40
1
 40
1
 40
1
 10
93.412277
 20
112.645412
 30
0.0
 10
88.412291
 20
112.645412
 30
0.0
 10
88.412291
 20
107.645704
 30
0.0
 10
93.412277
 20
107.645704
 30
0.0
  0
LINE
  5
2c7
100
AcDbEntity
  8
0
 62
7
100
AcDbLine
 10
93.412277
 20
107.645704
 30
0.0
 11
98.412514
 21
107.645704
 31
0.0
  0
LINE
  5
2c8
100
AcDbEntity
  8
0
 62
7
100
AcDbLine
 10
98.412514
 20
107.645704
 30
0.0
 11
98.412514
 21
92.645805
 31
0.0
  0
LINE
  5
2c9
100
AcDbEntity
  8
0
 62
7
100
AcDbLine
 10
98.412514
 20
92.645805
 30
0.0
 11
88.412415
 21
92.645805
 31
0.0
  0
SPLINE
  5
2ca
100
AcDbEntity
  8
0
 62
7
100
AcDbSpline
 70
8
 71
3
 72
8
 73
4
 74
0
 40
0
 40
0
 40
0
 40
0
 40
1
 40
1
 40
1
 40
1
 10
88.412415
 20
92.645805
 30
0.0
 10
83.412414
 20
92.645805
 30
0.0
 10
83.412414
 20
87.645815
 30
0.0
 10
83.412414
 20
82.645825
 30
0.0
  0
LINE
  5
2cb
100
AcDbEntity
  8
0
 62
7
100
AcDbLine
 10
83.412414
 20
82.645825
 30
0.0
 11
88.412076
 21
82.645825
 31
0.0
  0
LINE
  5
2cc
100
AcDbEntity
  8
0
 62
7
100
AcDbLine
 10
88.412076
 20
82.645825
 30
0.0
 11
88.411822
 21
79.646085
 31
0.0
  0
LINE
  5
2cd
100
AcDbEntity
  8
0
 62
7
100
AcDbLine
 10
88.411822
 20
79.646085
 30
0.0
 11
98.412260
 21
79.646085
 31
0.0
  0
LINE
  5
2ce
100
AcDbEntity
  8
0
 62
7
100
AcDbLine
 10
98.412260
 20
79.646085
 30
0.0
 11
98.412514
 21
82.645825
 31
0.0
  0
LINE
  5
2cf
100
AcDbEntity
  8
0
 62
7
100
AcDbLine
 10
98.412514
 20
82.645825
 30
0.0
 11
108.412417
 21
82.645825
 31
0.0
  0
LINE
  5
2d0
100
AcDbEntity
  8
0
 62
7
100
AcDbLine
 10
108.412417
 20
82.645825
 30
0.0
 11
108.412417
 21
89.645853
 31
0.0
  0
LINE
  5
2d1
100
AcDbEntity
  8
0
 62
7
100
AcDbLine
 10
108.412417
 20
89.645853
 30
0.0
 11
104.412453
 21
89.645818
 31
0.0
  0
LINE
  5
2d2
100
AcDbEntity
  8
0
 62
7
100
AcDbLine
 10
104.412453
 20
89.645818
 30
0.0
 11
104.412453
 21
100.645358
 31
0.0
  0
LINE
  5
2d3
100
AcDbEntity
  8
0
 62
7
100
AcDbLine
 10
100.000471
 20
256.999938
 30
0.0
 11
99.999954
 21
289.999991
 31
0.0
  0
LINE
  5
2d4
100
AcDbEntity
  8
0
 62
7
100
AcDbLine
 10
99.999954
 20
289.999991
 30
0.0
 11
90.000048
 21
289.999991
 31
0.0
  0
LINE
  5
2d5
100
AcDbEntity
  8
0
 62
7
100
AcDbLine
 10
90.000048
 20
289.999991
 30
0.0
 11
90.000048
 21
287.000174
 31
0.0
  0
LINE
  5
2d6
100
AcDbEntity
  8
0
 62
7
100
AcDbLine
 10
90.000048
 20
287.000174
 30
0.0
 11
80.000141
 21
287.000174
 31
0.0
  0
LINE
  5
2d7
100
AcDbEntity
  8
0
 62
7
100
AcDbLine
 10
80.000141
 20
287.000174
 30
0.0
 11
80.000141
 21
289.999991
 31
0.0
  0
LINE
  5
2d8
100
AcDbEntity
  8
0
 62
7
100
AcDbLine
 10
80.000141
 20
289.999991
 30
0.0
 11
69.999718
 21
289.999991
 31
0.0
  0
LINE
  5
2d9
100
AcDbEntity
  8
0
 62
7
100
AcDbLine
 10
69.999718
 20
289.999991
 30
0.0
 11
69.999718
 21
288.000114
 31
0.0
  0
LINE
  5
2da
100
AcDbEntity
  8
0
 62
7
100
AcDbLine
 10
69.999718
 20
288.000114
 30
0.0
 11
69.999718
 21
287.000174
 31
0.0
  0
SPLINE
  5
2db
100
AcDbEntity
  8
0
 62
7
100
AcDbSpline
 70
8
 71
3
 72
8
 73
4
 74
0
 40
0
 40
0
 40
0
 40
0
 40
1
 40
1
 40
1
 40
1
 10
69.999718
 20
287.000174
 30
0.0
 10
68.999717
 20
287.000174
 30
0.0
 10
68.999778
 20
287.000238
 30
0.0
 10
68.999778
 20
286.000235
 30
0.0
  0
LINE
  5
2dc
100
AcDbEntity
  8
0
 62
7
100
AcDbLine
 10
68.999778
 20
286.000235
 30
0.0
 11
68.999778
 21
283.999842
 31
0.0
  0
LINE
  5
2dd
100
AcDbEntity
  8
0
 62
7
100
AcDbLine
 10
68.999778
 20
283.999842
 30
0.0
 11
65.000024
 21
283.999842
 31
0.0
  0
LINE
  5
2de
100
AcDbEntity
  8
0
 62
7
100
AcDbLine
 10
65.000024
 20
283.999842
 30
0.0
 11
65.000024
 21
286.000235
 31
0.0
  0
SPLINE
  5
2df
100
AcDbEntity
  8
0
 62
7
100
AcDbSpline
 70
8
 71
3
 72
8
 73
4
 74
0
 40
0
 40
0
 40
0
 40
0
 40
1
 40
1
 40
1
 40
1
 10
65.000024
 20
286.000235
 30
0.0
 10
65.000024
 20
287.000238
 30
0.0
 10
64.999759
 20
287.000174
 30
0.0
 10
63.999568
 20
287.000174
 30
0.0
  0
LINE
  5
2e0
100
AcDbEntity
  8
0
 62
7
100
AcDbLine
 10
63.999568
 20
287.000174
 30
0.0
 11
59.999296
 21
287.000174
 31
0.0
  0
LINE
  5
2e1
100
AcDbEntity
  8
0
 62
7
100
AcDbLine
 10
59.999296
 20
287.000174
 30
0.0
 11
59.999296
 21
280.000085
 31
0.0
  0
LINE
  5
2e2
100
AcDbEntity
  8
0
 62
7
100
AcDbLine
 10
59.999296
 20
280.000085
 30
0.0
 11
63.999568
 21
280.000085
 31
0.0
  0
LINE
  5
2e3
100
AcDbEntity
  8
0
 62
7
100
AcDbLine
 10
63.999568
 20
280.000085
 30
0.0
 11
63.999568
 21
268.999723
 31
0.0
  0
LINE
  5
2e4
100
AcDbEntity
  8
0
 62
7
100
AcDbLine
 10
63.999568
 20
268.999723
 30
0.0
 11
59.999296
 21
268.999723
 31
0.0
  0
LINE
  5
2e5
100
AcDbEntity
  8
0
 62
7
100
AcDbLine
 10
59.999296
 20
268.999723
 30
0.0
 11
59.999825
 21
256.999938
 31
0.0
  0
LINE
  5
2e6
100
AcDbEntity
  8
0
 62
7
100
AcDbLine
 10
59.999825
 20
256.999938
 30
0.0
 11
90.000048
 21
256.999938
 31
0.0
  0
LINE
  5
2e7
100
AcDbEntity
  8
0
 62
7
100
AcDbLine
 10
90.000048
 20
256.999938
 30
0.0
 11
90.000048
 21
254.999542
 31
0.0
  0
SPLINE
  5
2e8
100
AcDbEntity
  8
0
 62
7
100
AcDbSpline
 70
8
 71
3
 72
8
 73
4
 74
0
 40
0
 40
0
 40
0
 40
0
 40
1
 40
1
 40
1
 40
1
 10
90.000048
 20
254.999542
 30
0.0
 10
89.930865
 20
253.893708
 30
0.0
 10
90.891921
 20
252.999657
 30
0.0
 10
91.999926
 20
252.999665
 30
0.0
  0
LINE
  5
2e9
100
AcDbEntity
  8
0
 62
7
100
AcDbLine
 10
91.999926
 20
252.999665
 30
0.0
 11
98.000593
 21
252.999665
 31
0.0
  0
SPLINE
  5
2ea
100
AcDbEntity
  8
0
 62
7
100
AcDbSpline
 70
8
 71
3
 72
8
 73
4
 74
0
 40
0
 40
0
 40
0
 40
0
 40
1
 40
1
 40
1
 40
1
 10
98.000593
 20
252.999665
 30
0.0
 10
99.108598
 20
252.999673
 30
0.0
 10
100.000471
 20
253.891541
 30
0.0
 10
100.000471
 20
254.999542
 30
0.0
  0
LINE
  5
2eb
100
AcDbEntity
  8
0
 62
7
100
AcDbLine
 10
100.000471
 20
254.999542
 30
0.0
 11
100.000471
 21
256.999938
 31
0.0
  0
SPLINE
  5
2ec
100
AcDbEntity
  8
0
 62
7
100
AcDbSpline
 70
8
 71
3
 72
8
 73
4
 74
0
 40
0
 40
0
 40
0
 40
0
 40
1
 40
1
 40
1
 40
1
 10
94.999743
 20
272.000056
 30
0.0
 10
94.999888
 20
269.347855
 30
0.0
 10
93.630351
 20
266.804240
 30
0.0
 10
91.192422
 20
264.928791
 30
0.0
  0
SPLINE
  5
2ed
100
AcDbEntity
  8
0
 62
7
100
AcDbSpline
 70
8
 71
3
 72
8
 73
4
 74
0
 40
0
 40
0
 40
0
 40
0
 40
1
 40
1
 40
1
 40
1
 10
91.192422
 20
264.928791
 30
0.0
 10
88.754493
 20
263.053342
 30
0.0
 10
85.447881
 20
261.999691
 30
0.0
 10
82.000019
 20
261.999634
 30
0.0
  0
SPLINE
  5
2ee
100
AcDbEntity
  8
0
 62
7
100
AcDbSpline
 70
8
 71
3
 72
8
 73
4
 74
0
 40
0
 40
0
 40
0
 40
0
 40
1
 40
1
 40
1
 40
1
 10
82.000019
 20
261.999634
 30
0.0
 10
78.552068
 20
261.999585
 30
0.0
 10
75.245322
 20
263.053189
 30
0.0
 10
72.807281
 20
264.928650
 30
0.0
  0
SPLINE
  5
2ef
100
AcDbEntity
  8
0
 62
7
100
AcDbSpline
 70
8
 71
3
 72
8
 73
4
 74
0
 40
0
 40
0
 40
0
 40
0
 40
1
 40
1
 40
1
 40
1
 10
72.807281
 20
264.928650
 30
0.0
 10
70.369240
 20
266.804110
 30
0.0
 10
68.999633
 20
269.347786
 30
0.0
 10
68.999778
 20
272.000056
 30
0.0
  0
SPLINE
  5
2f0
100
AcDbEntity
  8
0
 62
7
100
AcDbSpline
 70
8
 71
3
 72
8
 73
4
 74
0
 40
0
 40
0
 40
0
 40
0
 40
1
 40
1
 40
1
 40
1
 10
68.999778
 20
272.000056
 30
0.0
 10
68.999810
 20
274.652237
 30
0.0
 10
70.369497
 20
277.195780
 30
0.0
 10
72.807518
 20
279.071129
 30
0.0
  0
SPLINE
  5
2f1
100
AcDbEntity
  8
0
 62
7
100
AcDbSpline
 70
8
 71
3
 72
8
 73
4
 74
0
 40
0
 40
0
 40
0
 40
0
 40
1
 40
1
 40
1
 40
1
 10
72.807518
 20
279.071129
 30
0.0
 10
75.245540
 20
280.946477
 30
0.0
 10
78.552184
 20
282.000011
 30
0.0
 10
82.000019
 20
281.999962
 30
0.0
  0
SPLINE
  5
2f2
100
AcDbEntity
  8
0
 62
7
100
AcDbSpline
 70
8
 71
3
 72
8
 73
4
 74
0
 40
0
 40
0
 40
0
 40
0
 40
1
 40
1
 40
1
 40
1
 10
82.000019
 20
281.999962
 30
0.0
 10
89.179565
 20
281.999844
 30
0.0
 10
94.999675
 20
277.522784
 30
0.0
 10
94.999743
 20
272.000056
 30
0.0
  0
LINE
  5
2f3
100
AcDbEntity
  8
0
 62
7
100
AcDbLine
 10
94.999743
 20
272.000056
 30
0.0
 11
94.999743
 21
272.000056
 31
0.0
  0
LINE
  5
2f4
100
AcDbEntity
  8
0
 62
7
100
AcDbLine
 10
100.000471
 20
323.000044
 30
0.0
 11
99.999954
 21
289.999990
 31
0.0
  0
LINE
  5
2f5
100
AcDbEntity
  8
0
 62
7
100
AcDbLine
 10
99.999954
 20
289.999990
 30
0.0
 11
90.000048
 21
289.999990
 31
0.0
  0
LINE
  5
2f6
100
AcDbEntity
  8
0
 62
7
100
AcDbLine
 10
90.000048
 20
289.999990
 30
0.0
 11
90.000048
 21
292.999808
 31
0.0
  0
LINE
  5
2f7
100
AcDbEntity
  8
0
 62
7
100
AcDbLine
 10
90.000048
 20
292.999808
 30
0.0
 11
80.000141
 21
292.999808
 31
0.0
  0
LINE
  5
2f8
100
AcDbEntity
  8
0
 62
7
100
AcDbLine
 10
80.000141
 20
292.999808
 30
0.0
 11
80.000141
 21
289.999990
 31
0.0
  0
LINE
  5
2f9
100
AcDbEntity
  8
0
 62
7
100
AcDbLine
 10
80.000141
 20
289.999990
 30
0.0
 11
69.999718
 21
289.999990
 31
0.0
  0
LINE
  5
2fa
100
AcDbEntity
  8
0
 62
7
100
AcDbLine
 10
69.999718
 20
289.999990
 30
0.0
 11
69.999718
 21
291.999866
 31
0.0
  0
LINE
  5
2fb
100
AcDbEntity
  8
0
 62
7
100
AcDbLine
 10
69.999718
 20
291.999866
 30
0.0
 11
69.999718
 21
292.999808
 31
0.0
  0
SPLINE
  5
2fc
100
AcDbEntity
  8
0
 62
7
100
AcDbSpline
 70
8
 71
3
 72
8
 73
4
 74
0
 40
0
 40
0
 40
0
 40
0
 40
1
 40
1
 40
1
 40
1
 10
69.999718
 20
292.999808
 30
0.0
 10
68.999717
 20
292.999808
 30
0.0
 10
68.999778
 20
292.999744
 30
0.0
 10
68.999778
 20
293.999746
 30
0.0
  0
LINE
  5
2fd
100
AcDbEntity
  8
0
 62
7
100
AcDbLine
 10
68.999778
 20
293.999746
 30
0.0
 11
68.999778
 21
296.000140
 31
0.0
  0
LINE
  5
2fe
100
AcDbEntity
  8
0
 62
7
100
AcDbLine
 10
68.999778
 20
296.000140
 30
0.0
 11
65.000024
 21
296.000140
 31
0.0
  0
LINE
  5
2ff
100
AcDbEntity
  8
0
 62
7
100
AcDbLine
 10
65.000024
 20
296.000140
 30
0.0
 11
65.000024
 21
293.999746
 31
0.0
  0
SPLINE
  5
300
100
AcDbEntity
  8
0
 62
7
100
AcDbSpline
 70
8
 71
3
 72
8
 73
4
 74
0
 40
0
 40
0
 40
0
 40
0
 40
1
 40
1
 40
1
 40
1
 10
65.000024
 20
293.999746
 30
0.0
 10
65.000024
 20
292.999744
 30
0.0
 10
64.999671
 20
292.999808
 30
0.0
 10
63.999568
 20
292.999808
 30
0.0
  0
LINE
  5
301
100
AcDbEntity
  8
0
 62
7
100
AcDbLine
 10
63.999568
 20
292.999808
 30
0.0
 11
59.999294
 21
292.999808
 31
0.0
  0
LINE
  5
302
100
AcDbEntity
  8
0
 62
7
100
AcDbLine
 10
59.999294
 20
292.999808
 30
0.0
 11
59.999294
 21
299.999896
 31
0.0
  0
LINE
  5
303
100
AcDbEntity
  8
0
 62
7
100
AcDbLine
 10
59.999294
 20
299.999896
 30
0.0
 11
63.999568
 21
299.999896
 31
0.0
  0
LINE
  5
304
100
AcDbEntity
  8
0
 62
7
100
AcDbLine
 10
63.999568
 20
299.999896
 30
0.0
 11
63.999568
 21
311.000258
 31
0.0
  0
LINE
  5
305
100
AcDbEntity
  8
0
 62
7
100
AcDbLine
 10
63.999568
 20
311.000258
 30
0.0
 11
59.999294
 21
311.000258
 31
0.0
  0
LINE
  5
306
100
AcDbEntity
  8
0
 62
7
100
AcDbLine
 10
59.999294
 20
311.000258
 30
0.0
 11
59.999647
 21
323.000044
 31
0.0
  0
LINE
  5
307
100
AcDbEntity
  8
0
 62
7
100
AcDbLine
 10
59.999647
 20
323.000044
 30
0.0
 11
90.000048
 21
323.000044
 31
0.0
  0
LINE
  5
308
100
AcDbEntity
  8
0
 62
7
100
AcDbLine
 10
90.000048
 20
323.000044
 30
0.0
 11
90.000048
 21
325.000438
 31
0.0
  0
SPLINE
  5
309
100
AcDbEntity
  8
0
 62
7
100
AcDbSpline
 70
8
 71
3
 72
8
 73
4
 74
0
 40
0
 40
0
 40
0
 40
0
 40
1
 40
1
 40
1
 40
1
 10
90.000048
 20
325.000438
 30
0.0
 10
89.930865
 20
326.106273
 30
0.0
 10
90.891922
 20
327.000325
 30
0.0
 10
91.999926
 20
327.000314
 30
0.0
  0
LINE
  5
30a
100
AcDbEntity
  8
0
 62
7
100
AcDbLine
 10
91.999926
 20
327.000314
 30
0.0
 11
98.000593
 21
327.000314
 31
0.0
  0
SPLINE
  5
30b
100
AcDbEntity
  8
0
 62
7
100
AcDbSpline
 70
8
 71
3
 72
8
 73
4
 74
0
 40
0
 40
0
 40
0
 40
0
 40
1
 40
1
 40
1
 40
1
 10
98.000593
 20
327.000314
 30
0.0
 10
99.108598
 20
327.000307
 30
0.0
 10
100.000471
 20
326.108439
 30
0.0
 10
100.000471
 20
325.000438
 30
0.0
  0
LINE
  5
30c
100
AcDbEntity
  8
0
 62
7
100
AcDbLine
 10
100.000471
 20
325.000438
 30
0.0
 11
100.000471
 21
323.000044
 31
0.0
  0
SPLINE
  5
30d
100
AcDbEntity
  8
0
 62
7
100
AcDbSpline
 70
8
 71
3
 72
8
 73
4
 74
0
 40
0
 40
0
 40
0
 40
0
 40
1
 40
1
 40
1
 40
1
 10
94.999743
 20
307.999926
 30
0.0
 10
94.999887
 20
310.652127
 30
0.0
 10
93.630350
 20
313.195742
 30
0.0
 10
91.192422
 20
315.071190
 30
0.0
  0
SPLINE
  5
30e
100
AcDbEntity
  8
0
 62
7
100
AcDbSpline
 70
8
 71
3
 72
8
 73
4
 74
0
 40
0
 40
0
 40
0
 40
0
 40
1
 40
1
 40
1
 40
1
 10
91.192422
 20
315.071190
 30
0.0
 10
88.754493
 20
316.946639
 30
0.0
 10
85.447880
 20
318.000290
 30
0.0
 10
82.000019
 20
318.000346
 30
0.0
  0
SPLINE
  5
30f
100
AcDbEntity
  8
0
 62
7
100
AcDbSpline
 70
8
 71
3
 72
8
 73
4
 74
0
 40
0
 40
0
 40
0
 40
0
 40
1
 40
1
 40
1
 40
1
 10
82.000019
 20
318.000346
 30
0.0
 10
78.552068
 20
318.000396
 30
0.0
 10
75.245323
 20
316.946791
 30
0.0
 10
72.807282
 20
315.071331
 30
0.0
  0
SPLINE
  5
310
100
AcDbEntity
  8
0
 62
7
100
AcDbSpline
 70
8
 71
3
 72
8
 73
4
 74
0
 40
0
 40
0
 40
0
 40
0
 40
1
 40
1
 40
1
 40
1
 10
72.807282
 20
315.071331
 30
0.0
 10
70.369241
 20
313.195871
 30
0.0
 10
68.999633
 20
310.652196
 30
0.0
 10
68.999778
 20
307.999926
 30
0.0
  0
SPLINE
  5
311
100
AcDbEntity
  8
0
 62
7
100
AcDbSpline
 70
8
 71
3
 72
8
 73
4
 74
0
 40
0
 40
0
 40
0
 40
0
 40
1
 40
1
 40
1
 40
1
 10
68.999778
 20
307.999926
 30
0.0
 10
68.999811
 20
305.347745
 30
0.0
 10
70.369497
 20
302.804202
 30
0.0
 10
72.807519
 20
300.928853
 30
0.0
  0
SPLINE
  5
312
100
AcDbEntity
  8
0
 62
7
100
AcDbSpline
 70
8
 71
3
 72
8
 73
4
 74
0
 40
0
 40
0
 40
0
 40
0
 40
1
 40
1
 40
1
 40
1
 10
72.807519
 20
300.928853
 30
0.0
 10
75.245540
 20
299.053504
 30
0.0
 10
78.552184
 20
297.999971
 30
0.0
 10
82.000019
 20
298.000020
 30
0.0
  0
SPLINE
  5
313
100
AcDbEntity
  8
0
 62
7
100
AcDbSpline
 70
8
 71
3
 72
8
 73
4
 74
0
 40
0
 40
0
 40
0
 40
0
 40
1
 40
1
 40
1
 40
1
 10
82.000019
 20
298.000020
 30
0.0
 10
89.179565
 20
298.000138
 30
0.0
 10
94.999674
 20
302.477198
 30
0.0
 10
94.999743
 20
307.999926
 30
0.0
  0
LINE
  5
314
100
AcDbEntity
  8
0
 62
7
100
AcDbLine
 10
94.999743
 20
307.999926
 30
0.0
 11
94.999743
 21
307.999926
 31
0.0
  0
LINE
  5
315
100
AcDbEntity
  8
0
 62
7
100
AcDbLine
 10
154.999857
 20
8.000111
 30
0.0
 11
154.999857
 21
11.999870
 31
0.0
  0
LINE
  5
316
100
AcDbEntity
  8
0
 62
7
100
AcDbLine
 10
154.999857
 20
11.999870
 30
0.0
 11
144.999948
 21
11.999870
 31
0.0
  0
LINE
  5
317
100
AcDbEntity
  8
0
 62
7
100
AcDbLine
 10
144.999948
 20
11.999870
 30
0.0
 11
144.999856
 21
14.000120
 31
0.0
  0
SPLINE
  5
318
100
AcDbEntity
  8
0
 62
7
100
AcDbSpline
 70
8
 71
3
 72
8
 73
4
 74
0
 40
0
 40
0
 40
0
 40
0
 40
1
 40
1
 40
1
 40
1
 10
144.999856
 20
14.000120
 30
0.0
 10
144.999856
 20
18.118377
 30
0.0
 10
161.410203
 20
16.604149
 30
0.0
 10
166.999857
 20
21.000113
 30
0.0
  0
SPLINE
  5
319
100
AcDbEntity
  8
0
 62
7
100
AcDbSpline
 70
8
 71
3
 72
8
 73
4
 74
0
 40
0
 40
0
 40
0
 40
0
 40
1
 40
1
 40
1
 40
1
 10
166.999857
 20
21.000113
 30
0.0
 10
175.137562
 20
27.399996
 30
0.0
 10
174.071845
 20
41.999880
 30
0.0
 10
179.999888
 20
41.999880
 30
0.0
  0
LINE
  5
31a
100
AcDbEntity
  8
0
 62
7
100
AcDbLine
 10
179.999888
 20
41.999880
 30
0.0
 11
184.000176
 21
41.999880
 31
0.0
  0
LINE
  5
31b
100
AcDbEntity
  8
0
 62
7
100
AcDbLine
 10
184.000176
 20
41.999880
 30
0.0
 11
184.000176
 21
31.999971
 31
0.0
  0
LINE
  5
31c
100
AcDbEntity
  8
0
 62
7
100
AcDbLine
 10
184.000176
 20
31.999971
 30
0.0
 11
179.999888
 21
31.999971
 31
0.0
  0
LINE
  5
31d
100
AcDbEntity
  8
0
 62
7
100
AcDbLine
 10
179.999888
 20
31.999971
 30
0.0
 11
179.999888
 21
11.999870
 31
0.0
  0
LINE
  5
31e
100
AcDbEntity
  8
0
 62
7
100
AcDbLine
 10
179.999888
 20
11.999870
 30
0.0
 11
170.000003
 21
11.999870
 31
0.0
  0
LINE
  5
31f
100
AcDbEntity
  8
0
 62
7
100
AcDbLine
 10
170.000003
 20
11.999870
 30
0.0
 11
170.000003
 21
8.000111
 31
0.0
  0
LINE
  5
320
100
AcDbEntity
  8
0
 62
7
100
AcDbLine
 10
170.000003
 20
8.000111
 30
0.0
 11
154.999857
 21
8.000111
 31
0.0
  0
LINE
  5
321
100
AcDbEntity
  8
0
 62
7
100
AcDbLine
 10
103.000001
 20
161.999988
 30
0.0
 11
103.000001
 21
165.999747
 31
0.0
  0
LINE
  5
322
100
AcDbEntity
  8
0
 62
7
100
AcDbLine
 10
103.000001
 20
165.999747
 30
0.0
 11
93.000091
 21
165.999747
 31
0.0
  0
LINE
  5
323
100
AcDbEntity
  8
0
 62
7
100
AcDbLine
 10
93.000091
 20
165.999747
 30
0.0
 11
92.999999
 21
167.999990
 31
0.0
  0
SPLINE
  5
324
100
AcDbEntity
  8
0
 62
7
100
AcDbSpline
 70
8
 71
3
 72
8
 73
4
 74
0
 40
0
 40
0
 40
0
 40
0
 40
1
 40
1
 40
1
 40
1
 10
92.999999
 20
167.999990
 30
0.0
 10
92.999999
 20
172.118272
 30
0.0
 10
109.410347
 20
170.604019
 30
0.0
 10
115.000001
 20
174.999990
 30
0.0
  0
SPLINE
  5
325
100
AcDbEntity
  8
0
 62
7
100
AcDbSpline
 70
8
 71
3
 72
8
 73
4
 74
0
 40
0
 40
0
 40
0
 40
0
 40
1
 40
1
 40
1
 40
1
 10
115.000001
 20
174.999990
 30
0.0
 10
123.137706
 20
181.399865
 30
0.0
 10
122.071989
 20
195.999757
 30
0.0
 10
128.000031
 20
195.999768
 30
0.0
  0
LINE
  5
326
100
AcDbEntity
  8
0
 62
7
100
AcDbLine
 10
128.000031
 20
195.999768
 30
0.0
 11
132.000320
 21
195.999768
 31
0.0
  0
LINE
  5
327
100
AcDbEntity
  8
0
 62
7
100
AcDbLine
 10
132.000320
 20
195.999768
 30
0.0
 11
132.000320
 21
185.999858
 31
0.0
  0
LINE
  5
328
100
AcDbEntity
  8
0
 62
7
100
AcDbLine
 10
132.000320
 20
185.999858
 30
0.0
 11
128.000031
 21
185.999858
 31
0.0
  0
LINE
  5
329
100
AcDbEntity
  8
0
 62
7
100
AcDbLine
 10
128.000031
 20
185.999858
 30
0.0
 11
128.000031
 21
165.999747
 31
0.0
  0
LINE
  5
32a
100
AcDbEntity
  8
0
 62
7
100
AcDbLine
 10
128.000031
 20
165.999747
 30
0.0
 11
118.000147
 21
165.999747
 31
0.0
  0
LINE
  5
32b
100
AcDbEntity
  8
0
 62
7
100
AcDbLine
 10
118.000147
 20
165.999747
 30
0.0
 11
118.000147
 21
161.999988
 31
0.0
  0
LINE
  5
32c
100
AcDbEntity
  8
0
 62
7
100
AcDbLine
 10
118.000147
 20
161.999988
 30
0.0
 11
103.000001
 21
161.999988
 31
0.0
  0
LINE
  5
32d
100
AcDbEntity
  8
0
 62
7
100
AcDbLine
 10
131.000350
 20
384.999955
 30
0.0
 11
131.000590
 21
396.999539
 31
0.0
  0
LINE
  5
32e
100
AcDbEntity
  8
0
 62
7
100
AcDbLine
 10
131.000590
 20
396.999539
 30
0.0
 11
135.000349
 21
396.999539
 31
0.0
  0
LINE
  5
32f
100
AcDbEntity
  8
0
 62
7
100
AcDbLine
 10
135.000349
 20
396.999539
 30
0.0
 11
135.000349
 21
407.999905
 31
0.0
  0
LINE
  5
330
100
AcDbEntity
  8
0
 62
7
100
AcDbLine
 10
135.000349
 20
407.999905
 30
0.0
 11
131.000590
 21
407.999905
 31
0.0
  0
LINE
  5
331
100
AcDbEntity
  8
0
 62
7
100
AcDbLine
 10
131.000590
 20
407.999905
 30
0.0
 11
131.000590
 21
414.999993
 31
0.0
  0
LINE
  5
332
100
AcDbEntity
  8
0
 62
7
100
AcDbLine
 10
131.000590
 20
414.999993
 30
0.0
 11
125.000439
 21
414.999993
 31
0.0
  0
LINE
  5
333
100
AcDbEntity
  8
0
 62
7
100
AcDbLine
 10
125.000439
 20
414.999993
 30
0.0
 11
125.000425
 21
417.999744
 31
0.0
  0
LINE
  5
334
100
AcDbEntity
  8
0
 62
7
100
AcDbLine
 10
125.000425
 20
417.999744
 30
0.0
 11
114.999987
 21
417.999744
 31
0.0
  0
LINE
  5
335
100
AcDbEntity
  8
0
 62
7
100
AcDbLine
 10
114.999987
 20
417.999744
 30
0.0
 11
115.000001
 21
414.999993
 31
0.0
  0
LINE
  5
336
100
AcDbEntity
  8
0
 62
7
100
AcDbLine
 10
115.000001
 20
414.999993
 30
0.0
 11
105.000067
 21
414.999993
 31
0.0
  0
LINE
  5
337
100
AcDbEntity
  8
0
 62
7
100
AcDbLine
 10
105.000067
 20
414.999993
 30
0.0
 11
105.000067
 21
417.999744
 31
0.0
  0
LINE
  5
338
100
AcDbEntity
  8
0
 62
7
100
AcDbLine
 10
105.000067
 20
417.999744
 30
0.0
 11
95.000218
 21
417.999744
 31
0.0
  0
LINE
  5
339
100
AcDbEntity
  8
0
 62
7
100
AcDbLine
 10
95.000218
 20
417.999744
 30
0.0
 11
94.999971
 21
409.999957
 31
0.0
  0
SPLINE
  5
33a
100
AcDbEntity
  8
0
 62
7
100
AcDbSpline
 70
8
 71
3
 72
8
 73
4
 74
0
 40
0
 40
0
 40
0
 40
0
 40
1
 40
1
 40
1
 40
1
 10
94.999971
 20
409.999957
 30
0.0
 10
94.999971
 20
404.999957
 30
0.0
 10
112.999959
 20
408.999956
 30
0.0
 10
118.999961
 20
404.999957
 30
0.0
  0
SPLINE
  5
33b
100
AcDbEntity
  8
0
 62
7
100
AcDbSpline
 70
8
 71
3
 72
8
 73
4
 74
0
 40
0
 40
0
 40
0
 40
0
 40
1
 40
1
 40
1
 40
1
 10
118.999961
 20
404.999957
 30
0.0
 10
124.999960
 20
400.999958
 30
0.0
 10
120.999961
 20
384.999958
 30
0.0
 10
126.154291
 20
384.999958
 30
0.0
  0
LINE
  5
33c
100
AcDbEntity
  8
0
 62
7
100
AcDbLine
 10
126.154291
 20
384.999958
 30
0.0
 11
131.000350
 21
384.999955
 31
0.0
  0
LINE
  5
33d
100
AcDbEntity
  8
0
 62
7
100
AcDbLine
 10
170.729449
 20
264.577770
 30
0.0
 11
179.837366
 21
272.390316
 31
0.0
  0
LINE
  5
33e
100
AcDbEntity
  8
0
 62
7
100
AcDbLine
 10
179.837366
 20
272.390316
 30
0.0
 11
182.441540
 21
269.354476
 31
0.0
  0
LINE
  5
33f
100
AcDbEntity
  8
0
 62
7
100
AcDbLine
 10
182.441540
 20
269.354476
 30
0.0
 11
190.790883
 21
276.516627
 31
0.0
  0
LINE
  5
340
100
AcDbEntity
  8
0
 62
7
100
AcDbLine
 10
190.790883
 20
276.516627
 30
0.0
 11
188.186710
 21
279.552470
 31
0.0
  0
LINE
  5
341
100
AcDbEntity
  8
0
 62
7
100
AcDbLine
 10
188.186710
 20
279.552470
 30
0.0
 11
193.499822
 21
284.110112
 31
0.0
  0
LINE
  5
342
100
AcDbEntity
  8
0
 62
7
100
AcDbLine
 10
193.499822
 20
284.110112
 30
0.0
 11
189.593224
 21
288.664265
 31
0.0
  0
LINE
  5
343
100
AcDbEntity
  8
0
 62
7
100
AcDbLine
 10
189.593224
 20
288.664265
 30
0.0
 11
191.870041
 21
290.617363
 31
0.0
  0
LINE
  5
344
100
AcDbEntity
  8
0
 62
7
100
AcDbLine
 10
191.870041
 20
290.617363
 30
0.0
 11
185.358924
 21
298.207757
 31
0.0
  0
LINE
  5
345
100
AcDbEntity
  8
0
 62
7
100
AcDbLine
 10
185.358924
 20
298.207757
 30
0.0
 11
183.082103
 21
296.254656
 31
0.0
  0
LINE
  5
346
100
AcDbEntity
  8
0
 62
7
100
AcDbLine
 10
183.082103
 20
296.254656
 30
0.0
 11
176.571322
 21
303.844659
 31
0.0
  0
LINE
  5
347
100
AcDbEntity
  8
0
 62
7
100
AcDbLine
 10
176.571322
 20
303.844659
 30
0.0
 11
178.848153
 21
305.797750
 31
0.0
  0
LINE
  5
348
100
AcDbEntity
  8
0
 62
7
100
AcDbLine
 10
178.848153
 20
305.797750
 30
0.0
 11
172.337399
 21
313.387714
 31
0.0
  0
LINE
  5
349
100
AcDbEntity
  8
0
 62
7
100
AcDbLine
 10
172.337399
 20
313.387714
 30
0.0
 11
166.265346
 21
308.179370
 31
0.0
  0
SPLINE
  5
34a
100
AcDbEntity
  8
0
 62
7
100
AcDbSpline
 70
8
 71
3
 72
8
 73
4
 74
0
 40
0
 40
0
 40
0
 40
0
 40
1
 40
1
 40
1
 40
1
 10
166.265346
 20
308.179370
 30
0.0
 10
162.470321
 20
304.923955
 30
0.0
 10
177.225844
 20
293.866178
 30
0.0
 10
178.096323
 20
286.707809
 30
0.0
  0
SPLINE
  5
34b
100
AcDbEntity
  8
0
 62
7
100
AcDbSpline
 70
8
 71
3
 72
8
 73
4
 74
0
 40
0
 40
0
 40
0
 40
0
 40
1
 40
1
 40
1
 40
1
 10
178.096323
 20
286.707809
 30
0.0
 10
178.966796
 20
279.549436
 30
0.0
 10
164.218363
 20
272.168126
 30
0.0
 10
167.574261
 20
268.255954
 30
0.0
  0
LINE
  5
34c
100
AcDbEntity
  8
0
 62
7
100
AcDbLine
 10
167.574261
 20
268.255954
 30
0.0
 11
170.729449
 21
264.577770
 31
0.0
  0
LINE
  5
34d
100
AcDbEntity
  8
0
 62
7
100
AcDbLine
 10
59.999992
 20
329.999998
 30
0.0
 11
100.000010
 21
329.999998
 31
0.0
  0
SPLINE
  5
34e
100
AcDbEntity
  8
0
 62
7
100
AcDbSpline
 70
8
 71
3
 72
8
 73
4
 74
0
 40
0
 40
0
 40
0
 40
0
 40
1
 40
1
 40
1
 40
1
 10
100.000010
 20
329.999998
 30
0.0
 10
102.770004
 20
329.999998
 30
0.0
 10
105.000000
 20
327.770002
 30
0.0
 10
105.000000
 20
325.000008
 30
0.0
  0
LINE
  5
34f
100
AcDbEntity
  8
0
 62
7
100
AcDbLine
 10
105.000000
 20
325.000008
 30
0.0
 11
105.000000
 21
254.999984
 31
0.0
  0
SPLINE
  5
350
100
AcDbEntity
  8
0
 62
7
100
AcDbSpline
 70
8
 71
3
 72
8
 73
4
 74
0
 40
0
 40
0
 40
0
 40
0
 40
1
 40
1
 40
1
 40
1
 10
105.000000
 20
254.999984
 30
0.0
 10
105.000000
 20
252.229990
 30
0.0
 10
102.770004
 20
249.999994
 30
0.0
 10
100.000010
 20
249.999994
 30
0.0
  0
LINE
  5
351
100
AcDbEntity
  8
0
 62
7
100
AcDbLine
 10
100.000010
 20
249.999994
 30
0.0
 11
59.999992
 21
249.999994
 31
0.0
  0
SPLINE
  5
352
100
AcDbEntity
  8
0
 62
7
100
AcDbSpline
 70
8
 71
3
 72
8
 73
4
 74
0
 40
0
 40
0
 40
0
 40
0
 40
1
 40
1
 40
1
 40
1
 10
59.999992
 20
249.999994
 30
0.0
 10
57.229999
 20
249.999994
 30
0.0
 10
55.000002
 20
252.229990
 30
0.0
 10
55.000002
 20
254.999984
 30
0.0
  0
LINE
  5
353
100
AcDbEntity
  8
0
 62
7
100
AcDbLine
 10
55.000002
 20
254.999984
 30
0.0
 11
55.000002
 21
325.000008
 31
0.0
  0
SPLINE
  5
354
100
AcDbEntity
  8
0
 62
7
100
AcDbSpline
 70
8
 71
3
 72
8
 73
4
 74
0
 40
0
 40
0
 40
0
 40
0
 40
1
 40
1
 40
1
 40
1
 10
55.000002
 20
325.000008
 30
0.0
 10
55.000002
 20
327.770002
 30
0.0
 10
57.229999
 20
329.999998
 30
0.0
 10
59.999992
 20
329.999998
 30
0.0
  0
LINE
  5
355
100
AcDbEntity
  8
0
 62
7
100
AcDbLine
 10
59.999992
 20
329.999998
 30
0.0
 11
59.999992
 21
329.999998
 31
0.0
  0
LINE
  5
356
100
AcDbEntity
  8
0
 62
7
100
AcDbLine
 10
183.999876
 20
386.142465
 30
0.0
 11
148.999943
 21
386.141442
 31
0.0
  0
SPLINE
  5
357
100
AcDbEntity
  8
0
 62
7
100
AcDbSpline
 70
8
 71
3
 72
8
 73
4
 74
0
 40
0
 40
0
 40
0
 40
0
 40
1
 40
1
 40
1
 40
1
 10
148.999943
 20
386.141442
 30
0.0
 10
147.891921
 20
386.141442
 30
0.0
 10
147.000067
 20
385.249562
 30
0.0
 10
147.000064
 20
384.141565
 30
0.0
  0
LINE
  5
358
100
AcDbEntity
  8
0
 62
7
100
AcDbLine
 10
147.000064
 20
384.141565
 30
0.0
 11
147.000064
 21
378.141411
 31
0.0
  0
SPLINE
  5
359
100
AcDbEntity
  8
0
 62
7
100
AcDbSpline
 70
8
 71
3
 72
8
 73
4
 74
0
 40
0
 40
0
 40
0
 40
0
 40
1
 40
1
 40
1
 40
1
 10
147.000064
 20
378.141411
 30
0.0
 10
147.000064
 20
377.033410
 30
0.0
 10
147.893985
 20
376.073869
 30
0.0
 10
148.999943
 20
376.141535
 30
0.0
  0
LINE
  5
35a
100
AcDbEntity
  8
0
 62
7
100
AcDbLine
 10
148.999943
 20
376.141535
 30
0.0
 11
151.000341
 21
376.141535
 31
0.0
  0
LINE
  5
35b
100
AcDbEntity
  8
0
 62
7
100
AcDbLine
 10
151.000341
 20
376.141535
 30
0.0
 11
151.000341
 21
350.141055
 31
0.0
  0
LINE
  5
35c
100
AcDbEntity
  8
0
 62
7
100
AcDbLine
 10
151.000341
 20
350.141055
 30
0.0
 11
162.999608
 21
350.142113
 31
0.0
  0
LINE
  5
35d
100
AcDbEntity
  8
0
 62
7
100
AcDbLine
 10
162.999608
 20
350.142113
 30
0.0
 11
162.999608
 21
346.142361
 31
0.0
  0
LINE
  5
35e
100
AcDbEntity
  8
0
 62
7
100
AcDbLine
 10
162.999608
 20
346.142361
 30
0.0
 11
173.999970
 21
346.142361
 31
0.0
  0
LINE
  5
35f
100
AcDbEntity
  8
0
 62
7
100
AcDbLine
 10
173.999970
 20
346.142361
 30
0.0
 11
173.999970
 21
350.142113
 31
0.0
  0
LINE
  5
360
100
AcDbEntity
  8
0
 62
7
100
AcDbLine
 10
173.999970
 20
350.142113
 30
0.0
 11
181.000058
 21
350.142113
 31
0.0
  0
LINE
  5
361
100
AcDbEntity
  8
0
 62
7
100
AcDbLine
 10
181.000058
 20
350.142113
 30
0.0
 11
181.000058
 21
356.142267
 31
0.0
  0
LINE
  5
362
100
AcDbEntity
  8
0
 62
7
100
AcDbLine
 10
181.000058
 20
356.142267
 30
0.0
 11
183.999876
 21
356.142267
 31
0.0
  0
LINE
  5
363
100
AcDbEntity
  8
0
 62
7
100
AcDbLine
 10
183.999876
 20
356.142267
 30
0.0
 11
183.999876
 21
366.142688
 31
0.0
  0
LINE
  5
364
100
AcDbEntity
  8
0
 62
7
100
AcDbLine
 10
183.999876
 20
366.142688
 30
0.0
 11
181.000058
 21
366.142688
 31
0.0
  0
LINE
  5
365
100
AcDbEntity
  8
0
 62
7
100
AcDbLine
 10
181.000058
 20
366.142688
 30
0.0
 11
181.000058
 21
376.142555
 31
0.0
  0
LINE
  5
366
100
AcDbEntity
  8
0
 62
7
100
AcDbLine
 10
181.000058
 20
376.142555
 30
0.0
 11
183.999876
 21
376.142555
 31
0.0
  0
LINE
  5
367
100
AcDbEntity
  8
0
 62
7
100
AcDbLine
 10
183.999876
 20
376.142555
 30
0.0
 11
183.999876
 21
386.142465
 31
0.0
  0
LINE
  5
368
100
AcDbEntity
  8
0
 62
7
100
AcDbLine
 10
165.000003
 20
376.058326
 30
0.0
 11
165.000003
 21
368.142010
 31
0.0
  0
LINE
  5
369
100
AcDbEntity
  8
0
 62
7
100
AcDbLine
 10
165.000003
 20
368.142010
 30
0.0
 11
159.999790
 21
368.142010
 31
0.0
  0
LINE
  5
36a
100
AcDbEntity
  8
0
 62
7
100
AcDbLine
 10
159.999790
 20
368.142010
 30
0.0
 11
159.999790
 21
370.141890
 31
0.0
  0
SPLINE
  5
36b
100
AcDbEntity
  8
0
 62
7
100
AcDbSpline
 70
8
 71
3
 72
8
 73
4
 74
0
 40
0
 40
0
 40
0
 40
0
 40
1
 40
1
 40
1
 40
1
 10
159.999790
 20
370.141890
 30
0.0
 10
159.999790
 20
373.124908
 30
0.0
 10
162.155450
 20
375.584757
 30
0.0
 10
165.000003
 20
376.058326
 30
0.0
  0
LINE
  5
36c
100
AcDbEntity
  8
0
 62
7
100
AcDbLine
 10
165.000003
 20
376.058326
 30
0.0
 11
165.000003
 21
376.058326
 31
0.0
  0
SPLINE
  5
36d
100
AcDbEntity
  8
0
 62
7
100
AcDbSpline
 70
8
 71
3
 72
8
 73
4
 74
0
 40
0
 40
0
 40
0
 40
0
 40
1
 40
1
 40
1
 40
1
 10
166.999879
 20
376.058326
 30
0.0
 10
169.844435
 20
375.584757
 30
0.0
 10
172.000091
 20
373.124908
 30
0.0
 10
172.000091
 20
370.141890
 30
0.0
  0
LINE
  5
36e
100
AcDbEntity
  8
0
 62
7
100
AcDbLine
 10
172.000091
 20
370.141890
 30
0.0
 11
172.000091
 21
368.142010
 31
0.0
  0
LINE
  5
36f
100
AcDbEntity
  8
0
 62
7
100
AcDbLine
 10
172.000091
 20
368.142010
 30
0.0
 11
166.999879
 21
368.142010
 31
0.0
  0
LINE
  5
370
100
AcDbEntity
  8
0
 62
7
100
AcDbLine
 10
166.999879
 20
368.142010
 30
0.0
 11
166.999879
 21
376.058326
 31
0.0
  0
LINE
  5
371
100
AcDbEntity
  8
0
 62
7
100
AcDbLine
 10
159.999790
 20
366.142134
 30
0.0
 11
165.000003
 21
366.142134
 31
0.0
  0
LINE
  5
372
100
AcDbEntity
  8
0
 62
7
100
AcDbLine
 10
165.000003
 20
366.142134
 30
0.0
 11
165.000003
 21
358.225822
 31
0.0
  0
SPLINE
  5
373
100
AcDbEntity
  8
0
 62
7
100
AcDbSpline
 70
8
 71
3
 72
8
 73
4
 74
0
 40
0
 40
0
 40
0
 40
0
 40
1
 40
1
 40
1
 40
1
 10
165.000003
 20
358.225822
 30
0.0
 10
162.155450
 20
358.699387
 30
0.0
 10
159.999790
 20
361.159307
 30
0.0
 10
159.999790
 20
364.142258
 30
0.0
  0
LINE
  5
374
100
AcDbEntity
  8
0
 62
7
100
AcDbLine
 10
159.999790
 20
364.142258
 30
0.0
 11
159.999790
 21
366.142134
 31
0.0
  0
LINE
  5
375
100
AcDbEntity
  8
0
 62
7
100
AcDbLine
 10
166.999879
 20
366.142134
 30
0.0
 11
172.000091
 21
366.142134
 31
0.0
  0
LINE
  5
376
100
AcDbEntity
  8
0
 62
7
100
AcDbLine
 10
172.000091
 20
366.142134
 30
0.0
 11
172.000091
 21
364.142258
 31
0.0
  0
SPLINE
  5
377
100
AcDbEntity
  8
0
 62
7
100
AcDbSpline
 70
8
 71
3
 72
8
 73
4
 74
0
 40
0
 40
0
 40
0
 40
0
 40
1
 40
1
 40
1
 40
1
 10
172.000091
 20
364.142258
 30
0.0
 10
172.000091
 20
361.159307
 30
0.0
 10
169.844435
 20
358.699387
 30
0.0
 10
166.999879
 20
358.225822
 30
0.0
  0
LINE
  5
378
100
AcDbEntity
  8
0
 62
7
100
AcDbLine
 10
166.999879
 20
358.225822
 30
0.0
 11
166.999879
 21
366.142134
 31
0.0
  0
ENDSEC
  0
SECTION
  2
OBJECTS
  0
DICTIONARY
  5
C
330
0
100
AcDbDictionary
  3
ACAD_GROUP
350
D
  3
ACAD_MLINESTYLE
350
17
  0
DICTIONARY
  5
D
330
C
100
AcDbDictionary
  0
DICTIONARY
  5
1A
330
C
100
AcDbDictionary
  0
DICTIONARY
  5
17
330
C
100
AcDbDictionary
  3
STANDARD
350
18
  0
DICTIONARY
  5
19
330
C
100
AcDbDictionary
  0
ENDSEC
  0
EOF
