  0
SECTION
  2
HEADER
  9
$ACADVER
  1
AC1014
  9
$HANDSEED
  5
FFFF
  9
$MEASUREMENT
 70
     1
  0
ENDSEC
  0
SECTION
  2
TABLES
  0
TABLE
  2
VPORT
  5
8
330
0
100
AcDbSymbolTable
 70
     4
  0
VPORT
  5
2E
330
8
100
AcDbSymbolTableRecord
100
AcDbViewportTableRecord
  2
*ACTIVE
 70
     0
 10
0.0
 20
0.0
 11
1.0
 21
1.0
 12
210.0
 22
148.5
 13
0.0
 23
0.0
 14
10.0
 24
10.0
 15
10.0
 25
10.0
 16
0.0
 26
0.0
 36
1.0
 17
0.0
 27
0.0
 37
0.0
 40
341.0
 41
1.24
 42
50.0
 43
0.0
 44
0.0
 50
0.0
 51
0.0
 71
     0
 72
   100
 73
     1
 74
     3
 75
     0
 76
     0
 77
     0
 78
     0
  0
ENDTAB
  0
TABLE
  2
LTYPE
  5
5
330
0
100
AcDbSymbolTable
 70
     1
  0
LTYPE
  5
14
330
5
100
AcDbSymbolTableRecord
100
AcDbLinetypeTableRecord
  2
BYBLOCK
 70
     0
  3

 72
    65
 73
     0
 40
0.0
  0
LTYPE
  5
15
330
5
100
AcDbSymbolTableRecord
100
AcDbLinetypeTableRecord
  2
BYLAYER
 70
     0
  3

 72
    65
 73
     0
 40
0.0
  0
LTYPE
  5
16
330
5
100
AcDbSymbolTableRecord
100
AcDbLinetypeTableRecord
  2
CONTINUOUS
 70
     0
  3
Solid line
 72
    65
 73
     0
 40
0.0
  0
ENDTAB
  0
TABLE
  2
LAYER
  5
2
100
AcDbSymbolTable
 70
1
  0
LAYER
  5
50
100
AcDbSymbolTableRecord
100
AcDbLayerTableRecord
  2
0
 70
0
  6
CONTINUOUS
  0
ENDTAB
  0
TABLE
  2
STYLE
  5
3
330
0
100
AcDbSymbolTable
 70
     1
  0
STYLE
  5
11
330
3
100
AcDbSymbolTableRecord
100
AcDbTextStyleTableRecord
  2
STANDARD
 70
     0
 40
0.0
 41
1.0
 50
0.0
 71
     0
 42
2.5
  3
txt
  4

  0
ENDTAB
  0
TABLE
  2
VIEW
  5
6
330
0
100
AcDbSymbolTable
 70
     0
  0
ENDTAB
  0
TABLE
  2
UCS
  5
7
330
0
100
AcDbSymbolTable
 70
     0
  0
ENDTAB
  0
TABLE
  2
APPID
  5
9
330
0
100
AcDbSymbolTable
 70
     2
  0
APPID
  5
12
330
9
100
AcDbSymbolTableRecord
100
AcDbRegAppTableRecord
  2
ACAD
 70
     0
  0
ENDTAB
  0
TABLE
  2
DIMSTYLE
  5
A
330
0
100
AcDbSymbolTable
 70
     1
  0
DIMSTYLE
105
27
330
A
100
AcDbSymbolTableRecord
100
AcDbDimStyleTableRecord
  2
ISO-25
 70
     0
  3

  4

  5

  6

  7

 40
1.0
 41
2.5
 42
0.625
 43
3.75
 44
1.25
 45
0.0
 46
0.0
 47
0.0
 48
0.0
140
2.5
141
2.5
142
0.0
143
0.03937007874016
144
1.0
145
0.0
146
1.0
147
0.625
 71
     0
 72
     0
 73
     0
 74
     0
 75
     0
 76
     0
 77
     1
 78
     8
170
     0
171
     3
172
     1
173
     0
174
     0
175
     0
176
     0
177
     0
178
     0
270
     2
271
     2
272
     2
273
     2
274
     3
340
11
275
     0
280
     0
281
     0
282
     0
283
     0
284
     8
285
     0
286
     0
287
     3
288
     0
  0
ENDTAB
  0
TABLE
  2
BLOCK_RECORD
  5
1
330
0
100
AcDbSymbolTable
 70
     1
  0
BLOCK_RECORD
  5
1F
330
1
100
AcDbSymbolTableRecord
100
AcDbBlockTableRecord
  2
*MODEL_SPACE
  0
BLOCK_RECORD
  5
1B
330
1
100
AcDbSymbolTableRecord
100
AcDbBlockTableRecord
  2
*PAPER_SPACE
  0
ENDTAB
  0
ENDSEC
  0
SECTION
  2
BLOCKS
  0
BLOCK
  5
20
330
1F
100
AcDbEntity
  8
0
100
AcDbBlockBegin
  2
*MODEL_SPACE
 70
     0
 10
0.0
 20
0.0
 30
0.0
  3
*MODEL_SPACE
  1

  0
ENDBLK
  5
21
330
1F
100
AcDbEntity
  8
0
100
AcDbBlockEnd
  0
BLOCK
  5
1C
330
1B
100
AcDbEntity
 67
     1
  8
0
100
AcDbBlockBegin
  2
*PAPER_SPACE
  1

  0
ENDBLK
  5
1D
330
1B
100
AcDbEntity
 67
     1
  8
0
100
AcDbBlockEnd
  0
ENDSEC
  0
SECTION
  2
ENTITIES
  0
LINE
  5
100
100
AcDbEntity
  8
0
 62
7
100
AcDbLine
 10
25.000000
 20
264.999992
 30
0.0
 11
28.999999
 21
264.999992
 31
0.0
  0
LINE
  5
101
100
AcDbEntity
  8
0
 62
7
100
AcDbLine
 10
28.999999
 20
264.999992
 30
0.0
 11
28.999999
 21
254.999991
 31
0.0
  0
LINE
  5
102
100
AcDbEntity
  8
0
 62
7
100
AcDbLine
 10
28.999999
 20
254.999991
 30
0.0
 11
25.000000
 21
254.999991
 31
0.0
  0
LINE
  5
103
100
AcDbEntity
  8
0
 62
7
100
AcDbLine
 10
25.000000
 20
254.999991
 30
0.0
 11
25.000000
 21
264.999992
 31
0.0
  0
LINE
  5
104
100
AcDbEntity
  8
0
 62
7
100
AcDbLine
 10
25.000000
 20
244.999990
 30
0.0
 11
28.999999
 21
244.999990
 31
0.0
  0
LINE
  5
105
100
AcDbEntity
  8
0
 62
7
100
AcDbLine
 10
28.999999
 20
244.999990
 30
0.0
 11
28.999999
 21
234.999989
 31
0.0
  0
LINE
  5
106
100
AcDbEntity
  8
0
 62
7
100
AcDbLine
 10
28.999999
 20
234.999989
 30
0.0
 11
25.000000
 21
234.999989
 31
0.0
  0
LINE
  5
107
100
AcDbEntity
  8
0
 62
7
100
AcDbLine
 10
25.000000
 20
234.999989
 30
0.0
 11
25.000000
 21
244.999990
 31
0.0
  0
LINE
  5
108
100
AcDbEntity
  8
0
 62
7
100
AcDbLine
 10
25.000000
 20
344.999993
 30
0.0
 11
28.999999
 21
344.999993
 31
0.0
  0
LINE
  5
109
100
AcDbEntity
  8
0
 62
7
100
AcDbLine
 10
28.999999
 20
344.999993
 30
0.0
 11
28.999999
 21
334.999992
 31
0.0
  0
LINE
  5
10a
100
AcDbEntity
  8
0
 62
7
100
AcDbLine
 10
28.999999
 20
334.999992
 30
0.0
 11
25.000000
 21
334.999992
 31
0.0
  0
LINE
  5
10b
100
AcDbEntity
  8
0
 62
7
100
AcDbLine
 10
25.000000
 20
334.999992
 30
0.0
 11
25.000000
 21
344.999993
 31
0.0
  0
LINE
  5
10c
100
AcDbEntity
  8
0
 62
7
100
AcDbLine
 10
25.000000
 20
324.999991
 30
0.0
 11
28.999999
 21
324.999991
 31
0.0
  0
LINE
  5
10d
100
AcDbEntity
  8
0
 62
7
100
AcDbLine
 10
28.999999
 20
324.999991
 30
0.0
 11
28.999999
 21
314.999990
 31
0.0
  0
LINE
  5
10e
100
AcDbEntity
  8
0
 62
7
100
AcDbLine
 10
28.999999
 20
314.999990
 30
0.0
 11
25.000000
 21
314.999990
 31
0.0
  0
LINE
  5
10f
100
AcDbEntity
  8
0
 62
7
100
AcDbLine
 10
25.000000
 20
314.999990
 30
0.0
 11
25.000000
 21
324.999991
 31
0.0
  0
LINE
  5
110
100
AcDbEntity
  8
0
 62
7
100
AcDbLine
 10
44.996738
 20
354.951773
 30
0.0
 11
44.996738
 21
350.951774
 31
0.0
  0
LINE
  5
111
100
AcDbEntity
  8
0
 62
7
100
AcDbLine
 10
44.996738
 20
350.951774
 30
0.0
 11
34.996738
 21
350.951774
 31
0.0
  0
LINE
  5
112
100
AcDbEntity
  8
0
 62
7
100
AcDbLine
 10
34.996738
 20
350.951774
 30
0.0
 11
34.996738
 21
354.951773
 31
0.0
  0
LINE
  5
113
100
AcDbEntity
  8
0
 62
7
100
AcDbLine
 10
34.996738
 20
354.951773
 30
0.0
 11
44.996738
 21
354.951773
 31
0.0
  0
LINE
  5
114
100
AcDbEntity
  8
0
 62
7
100
AcDbLine
 10
64.996736
 20
354.951773
 30
0.0
 11
64.996736
 21
350.951774
 31
0.0
  0
LINE
  5
115
100
AcDbEntity
  8
0
 62
7
100
AcDbLine
 10
64.996736
 20
350.951774
 30
0.0
 11
54.996735
 21
350.951774
 31
0.0
  0
LINE
  5
116
100
AcDbEntity
  8
0
 62
7
100
AcDbLine
 10
54.996735
 20
350.951774
 30
0.0
 11
54.996735
 21
354.951773
 31
0.0
  0
LINE
  5
117
100
AcDbEntity
  8
0
 62
7
100
AcDbLine
 10
54.996735
 20
354.951773
 30
0.0
 11
64.996736
 21
354.951773
 31
0.0
  0
LINE
  5
118
100
AcDbEntity
  8
0
 62
7
100
AcDbLine
 10
45.000001
 20
228.999990
 30
0.0
 11
45.000001
 21
224.999991
 31
0.0
  0
LINE
  5
119
100
AcDbEntity
  8
0
 62
7
100
AcDbLine
 10
45.000001
 20
224.999991
 30
0.0
 11
35.000001
 21
224.999991
 31
0.0
  0
LINE
  5
11a
100
AcDbEntity
  8
0
 62
7
100
AcDbLine
 10
35.000001
 20
224.999991
 30
0.0
 11
35.000001
 21
228.999990
 31
0.0
  0
LINE
  5
11b
100
AcDbEntity
  8
0
 62
7
100
AcDbLine
 10
35.000001
 20
228.999990
 30
0.0
 11
45.000001
 21
228.999990
 31
0.0
  0
LINE
  5
11c
100
AcDbEntity
  8
0
 62
7
100
AcDbLine
 10
64.999999
 20
228.999990
 30
0.0
 11
64.999999
 21
224.999991
 31
0.0
  0
LINE
  5
11d
100
AcDbEntity
  8
0
 62
7
100
AcDbLine
 10
64.999999
 20
224.999991
 30
0.0
 11
54.999998
 21
224.999991
 31
0.0
  0
LINE
  5
11e
100
AcDbEntity
  8
0
 62
7
100
AcDbLine
 10
54.999998
 20
224.999991
 30
0.0
 11
54.999998
 21
228.999990
 31
0.0
  0
LINE
  5
11f
100
AcDbEntity
  8
0
 62
7
100
AcDbLine
 10
54.999998
 20
228.999990
 30
0.0
 11
64.999999
 21
228.999990
 31
0.0
  0
LINE
  5
120
100
AcDbEntity
  8
0
 62
7
100
AcDbLine
 10
136.000005
 20
274.999993
 30
0.0
 11
140.000004
 21
274.999993
 31
0.0
  0
LINE
  5
121
100
AcDbEntity
  8
0
 62
7
100
AcDbLine
 10
140.000004
 20
274.999993
 30
0.0
 11
140.000004
 21
264.999992
 31
0.0
  0
LINE
  5
122
100
AcDbEntity
  8
0
 62
7
100
AcDbLine
 10
140.000004
 20
264.999992
 30
0.0
 11
136.000005
 21
264.999992
 31
0.0
  0
LINE
  5
123
100
AcDbEntity
  8
0
 62
7
100
AcDbLine
 10
136.000005
 20
264.999992
 30
0.0
 11
136.000005
 21
274.999993
 31
0.0
  0
LINE
  5
124
100
AcDbEntity
  8
0
 62
7
100
AcDbLine
 10
136.000005
 20
254.999994
 30
0.0
 11
140.000004
 21
254.999994
 31
0.0
  0
LINE
  5
125
100
AcDbEntity
  8
0
 62
7
100
AcDbLine
 10
140.000004
 20
254.999994
 30
0.0
 11
140.000004
 21
244.999993
 31
0.0
  0
LINE
  5
126
100
AcDbEntity
  8
0
 62
7
100
AcDbLine
 10
140.000004
 20
244.999993
 30
0.0
 11
136.000005
 21
244.999993
 31
0.0
  0
LINE
  5
127
100
AcDbEntity
  8
0
 62
7
100
AcDbLine
 10
136.000005
 20
244.999993
 30
0.0
 11
136.000005
 21
254.999994
 31
0.0
  0
LINE
  5
128
100
AcDbEntity
  8
0
 62
7
100
AcDbLine
 10
136.000005
 20
334.999992
 30
0.0
 11
140.000004
 21
334.999992
 31
0.0
  0
LINE
  5
129
100
AcDbEntity
  8
0
 62
7
100
AcDbLine
 10
140.000004
 20
334.999992
 30
0.0
 11
140.000004
 21
324.999991
 31
0.0
  0
LINE
  5
12a
100
AcDbEntity
  8
0
 62
7
100
AcDbLine
 10
140.000004
 20
324.999991
 30
0.0
 11
136.000005
 21
324.999991
 31
0.0
  0
LINE
  5
12b
100
AcDbEntity
  8
0
 62
7
100
AcDbLine
 10
136.000005
 20
324.999991
 30
0.0
 11
136.000005
 21
334.999992
 31
0.0
  0
LINE
  5
12c
100
AcDbEntity
  8
0
 62
7
100
AcDbLine
 10
136.000005
 20
314.999990
 30
0.0
 11
140.000004
 21
314.999990
 31
0.0
  0
LINE
  5
12d
100
AcDbEntity
  8
0
 62
7
100
AcDbLine
 10
140.000004
 20
314.999990
 30
0.0
 11
140.000004
 21
304.999989
 31
0.0
  0
LINE
  5
12e
100
AcDbEntity
  8
0
 62
7
100
AcDbLine
 10
140.000004
 20
304.999989
 30
0.0
 11
136.000005
 21
304.999989
 31
0.0
  0
LINE
  5
12f
100
AcDbEntity
  8
0
 62
7
100
AcDbLine
 10
136.000005
 20
304.999989
 30
0.0
 11
136.000005
 21
314.999990
 31
0.0
  0
LINE
  5
130
100
AcDbEntity
  8
0
 62
7
100
AcDbLine
 10
0.000000
 20
419.999993
 30
0.0
 11
0.000000
 21
159.999840
 31
0.0
  0
LINE
  5
131
100
AcDbEntity
  8
0
 62
7
100
AcDbLine
 10
0.000000
 20
159.999840
 30
0.0
 11
35.248497
 21
159.829826
 31
0.0
  0
SPLINE
  5
132
100
AcDbEntity
  8
0
 62
7
100
AcDbSpline
 70
8
 71
3
 72
8
 73
4
 74
0
 40
0
 40
0
 40
0
 40
0
 40
1
 40
1
 40
1
 40
1
 10
35.248497
 20
159.829826
 30
0.0
 10
69.726209
 20
159.663562
 30
0.0
 10
102.792899
 20
173.526363
 30
0.0
 10
127.172598
 20
197.906052
 30
0.0
  0
SPLINE
  5
133
100
AcDbEntity
  8
0
 62
7
100
AcDbSpline
 70
8
 71
3
 72
8
 73
4
 74
0
 40
0
 40
0
 40
0
 40
0
 40
1
 40
1
 40
1
 40
1
 10
127.172598
 20
197.906052
 30
0.0
 10
151.552304
 20
222.285747
 30
0.0
 10
165.248273
 20
255.351544
 30
0.0
 10
165.248312
 20
289.829645
 30
0.0
  0
SPLINE
  5
134
100
AcDbEntity
  8
0
 62
7
100
AcDbSpline
 70
8
 71
3
 72
8
 73
4
 74
0
 40
0
 40
0
 40
0
 40
0
 40
1
 40
1
 40
1
 40
1
 10
165.248312
 20
289.829645
 30
0.0
 10
165.248206
 20
361.626543
 30
0.0
 10
107.045395
 20
419.829406
 30
0.0
 10
35.248497
 20
419.829461
 30
0.0
  0
LINE
  5
135
100
AcDbEntity
  8
0
 62
7
100
AcDbLine
 10
35.248497
 20
419.829461
 30
0.0
 11
0.000000
 21
419.999993
 31
0.0
  0
SPLINE
  5
136
100
AcDbEntity
  8
0
 62
7
100
AcDbSpline
 70
8
 71
3
 72
8
 73
4
 74
0
 40
0
 40
0
 40
0
 40
0
 40
1
 40
1
 40
1
 40
1
 10
5.227071
 20
350.208905
 30
0.0
 10
5.415384
 20
350.217618
 30
0.0
 10
5.679422
 20
350.088724
 30
0.0
 10
6.128825
 20
350.065758
 30
0.0
  0
SPLINE
  5
137
100
AcDbEntity
  8
0
 62
7
100
AcDbSpline
 70
8
 71
3
 72
8
 73
4
 74
0
 40
0
 40
0
 40
0
 40
0
 40
1
 40
1
 40
1
 40
1
 10
6.128825
 20
350.065758
 30
0.0
 10
12.000634
 20
349.765904
 30
0.0
 10
17.990661
 20
349.735160
 30
0.0
 10
24.129277
 20
350.065758
 30
0.0
  0
SPLINE
  5
138
100
AcDbEntity
  8
0
 62
7
100
AcDbSpline
 70
8
 71
3
 72
8
 73
4
 74
0
 40
0
 40
0
 40
0
 40
0
 40
1
 40
1
 40
1
 40
1
 10
24.129277
 20
350.065758
 30
0.0
 10
24.728858
 20
350.065942
 30
0.0
 10
24.997391
 20
350.335665
 30
0.0
 10
25.197945
 20
350.135005
 30
0.0
  0
SPLINE
  5
139
100
AcDbEntity
  8
0
 62
7
100
AcDbSpline
 70
8
 71
3
 72
8
 73
4
 74
0
 40
0
 40
0
 40
0
 40
0
 40
1
 40
1
 40
1
 40
1
 10
25.197945
 20
350.135005
 30
0.0
 10
25.398641
 20
349.934345
 30
0.0
 10
25.179947
 20
349.663595
 30
0.0
 10
25.129215
 20
349.065820
 30
0.0
  0
SPLINE
  5
13a
100
AcDbEntity
  8
0
 62
7
100
AcDbSpline
 70
8
 71
3
 72
8
 73
4
 74
0
 40
0
 40
0
 40
0
 40
0
 40
1
 40
1
 40
1
 40
1
 10
25.129215
 20
349.065820
 30
0.0
 10
25.064199
 20
348.301809
 30
0.0
 10
25.067833
 20
347.640418
 30
0.0
 10
25.129215
 20
347.065426
 30
0.0
  0
SPLINE
  5
13b
100
AcDbEntity
  8
0
 62
7
100
AcDbSpline
 70
8
 71
3
 72
8
 73
4
 74
0
 40
0
 40
0
 40
0
 40
0
 40
1
 40
1
 40
1
 40
1
 10
25.129215
 20
347.065426
 30
0.0
 10
25.168762
 20
346.692508
 30
0.0
 10
25.264211
 20
346.446555
 30
0.0
 10
25.281145
 20
346.265474
 30
0.0
  0
SPLINE
  5
13c
100
AcDbEntity
  8
0
 62
7
100
AcDbSpline
 70
8
 71
3
 72
8
 73
4
 74
0
 40
0
 40
0
 40
0
 40
0
 40
1
 40
1
 40
1
 40
1
 10
25.281145
 20
346.265474
 30
0.0
 10
25.284672
 20
346.238310
 30
0.0
 10
25.284761
 20
346.212441
 30
0.0
 10
25.284761
 20
346.187961
 30
0.0
  0
LINE
  5
13d
100
AcDbEntity
  8
0
 62
7
100
AcDbLine
 10
25.284761
 20
346.187961
 30
0.0
 11
25.283208
 21
346.187961
 31
0.0
  0
SPLINE
  5
13e
100
AcDbEntity
  8
0
 62
7
100
AcDbSpline
 70
8
 71
3
 72
8
 73
4
 74
0
 40
0
 40
0
 40
0
 40
0
 40
1
 40
1
 40
1
 40
1
 10
25.283208
 20
346.187961
 30
0.0
 10
25.278975
 20
346.114619
 30
0.0
 10
25.254281
 20
346.052650
 30
0.0
 10
25.197942
 20
345.996241
 30
0.0
  0
SPLINE
  5
13f
100
AcDbEntity
  8
0
 62
7
100
AcDbSpline
 70
8
 71
3
 72
8
 73
4
 74
0
 40
0
 40
0
 40
0
 40
0
 40
1
 40
1
 40
1
 40
1
 10
25.197942
 20
345.996241
 30
0.0
 10
24.997247
 20
345.795546
 30
0.0
 10
24.728514
 20
346.048766
 30
0.0
 10
24.128757
 20
346.065488
 30
0.0
  0
SPLINE
  5
140
100
AcDbEntity
  8
0
 62
7
100
AcDbSpline
 70
8
 71
3
 72
8
 73
4
 74
0
 40
0
 40
0
 40
0
 40
0
 40
1
 40
1
 40
1
 40
1
 10
24.128757
 20
346.065488
 30
0.0
 10
18.128642
 20
346.232951
 30
0.0
 10
12.128455
 20
346.212737
 30
0.0
 10
6.128305
 20
346.065488
 30
0.0
  0
SPLINE
  5
141
100
AcDbEntity
  8
0
 62
7
100
AcDbSpline
 70
8
 71
3
 72
8
 73
4
 74
0
 40
0
 40
0
 40
0
 40
0
 40
1
 40
1
 40
1
 40
1
 10
6.128305
 20
346.065488
 30
0.0
 10
5.528547
 20
346.050671
 30
0.0
 10
5.259744
 20
345.795510
 30
0.0
 10
5.059120
 20
345.996241
 30
0.0
  0
SPLINE
  5
142
100
AcDbEntity
  8
0
 62
7
100
AcDbSpline
 70
8
 71
3
 72
8
 73
4
 74
0
 40
0
 40
0
 40
0
 40
0
 40
1
 40
1
 40
1
 40
1
 10
5.059120
 20
345.996241
 30
0.0
 10
4.858389
 20
346.196936
 30
0.0
 10
5.055627
 20
346.469623
 30
0.0
 10
5.128883
 20
347.065426
 30
0.0
  0
SPLINE
  5
143
100
AcDbEntity
  8
0
 62
7
100
AcDbSpline
 70
8
 71
3
 72
8
 73
4
 74
0
 40
0
 40
0
 40
0
 40
0
 40
1
 40
1
 40
1
 40
1
 10
5.128883
 20
347.065426
 30
0.0
 10
5.199685
 20
347.661504
 30
0.0
 10
5.245158
 20
348.283077
 30
0.0
 10
5.128883
 20
349.065820
 30
0.0
  0
SPLINE
  5
144
100
AcDbEntity
  8
0
 62
7
100
AcDbSpline
 70
8
 71
3
 72
8
 73
4
 74
0
 40
0
 40
0
 40
0
 40
0
 40
1
 40
1
 40
1
 40
1
 10
5.128883
 20
349.065820
 30
0.0
 10
5.041111
 20
349.659333
 30
0.0
 10
4.858976
 20
349.934377
 30
0.0
 10
5.059636
 20
350.135005
 30
0.0
  0
SPLINE
  5
145
100
AcDbEntity
  8
0
 62
7
100
AcDbSpline
 70
8
 71
3
 72
8
 73
4
 74
0
 40
0
 40
0
 40
0
 40
0
 40
1
 40
1
 40
1
 40
1
 10
5.059636
 20
350.135005
 30
0.0
 10
5.109836
 20
350.185202
 30
0.0
 10
5.164238
 20
350.206019
 30
0.0
 10
5.227068
 20
350.208905
 30
0.0
  0
LINE
  5
146
100
AcDbEntity
  8
0
 62
7
100
AcDbLine
 10
5.227068
 20
350.208905
 30
0.0
 11
5.227071
 21
350.208905
 31
0.0
  0
LINE
  5
147
100
AcDbEntity
  8
0
 62
7
100
AcDbLine
 10
120.000093
 20
344.999993
 30
0.0
 11
130.000003
 21
344.999993
 31
0.0
  0
LINE
  5
148
100
AcDbEntity
  8
0
 62
7
100
AcDbLine
 10
130.000003
 20
344.999993
 30
0.0
 11
130.000003
 21
341.000234
 31
0.0
  0
LINE
  5
149
100
AcDbEntity
  8
0
 62
7
100
AcDbLine
 10
130.000003
 20
341.000234
 30
0.0
 11
120.000093
 21
341.000234
 31
0.0
  0
LINE
  5
14a
100
AcDbEntity
  8
0
 62
7
100
AcDbLine
 10
120.000093
 20
341.000234
 30
0.0
 11
120.000093
 21
344.999993
 31
0.0
  0
LINE
  5
14b
100
AcDbEntity
  8
0
 62
7
100
AcDbLine
 10
17.513660
 20
331.880329
 30
0.0
 11
20.513477
 21
331.880329
 31
0.0
  0
SPLINE
  5
14c
100
AcDbEntity
  8
0
 62
7
100
AcDbSpline
 70
8
 71
3
 72
8
 73
4
 74
0
 40
0
 40
0
 40
0
 40
0
 40
1
 40
1
 40
1
 40
1
 10
20.513477
 20
331.880329
 30
0.0
 10
21.203863
 20
331.880364
 30
0.0
 10
21.763565
 20
331.133583
 30
0.0
 10
21.763530
 20
330.443186
 30
0.0
  0
SPLINE
  5
14d
100
AcDbEntity
  8
0
 62
7
100
AcDbSpline
 70
8
 71
3
 72
8
 73
4
 74
0
 40
0
 40
0
 40
0
 40
0
 40
1
 40
1
 40
1
 40
1
 10
21.763530
 20
330.443186
 30
0.0
 10
21.763565
 20
329.752775
 30
0.0
 10
21.203898
 20
329.006005
 30
0.0
 10
20.513477
 20
329.006043
 30
0.0
  0
LINE
  5
14e
100
AcDbEntity
  8
0
 62
7
100
AcDbLine
 10
20.513477
 20
329.006043
 30
0.0
 11
17.513660
 21
329.006043
 31
0.0
  0
SPLINE
  5
14f
100
AcDbEntity
  8
0
 62
7
100
AcDbSpline
 70
8
 71
3
 72
8
 73
4
 74
0
 40
0
 40
0
 40
0
 40
0
 40
1
 40
1
 40
1
 40
1
 10
17.513660
 20
329.006043
 30
0.0
 10
16.823239
 20
329.006005
 30
0.0
 10
16.263572
 20
329.752775
 30
0.0
 10
16.263607
 20
330.443186
 30
0.0
  0
SPLINE
  5
150
100
AcDbEntity
  8
0
 62
7
100
AcDbSpline
 70
8
 71
3
 72
8
 73
4
 74
0
 40
0
 40
0
 40
0
 40
0
 40
1
 40
1
 40
1
 40
1
 10
16.263607
 20
330.443186
 30
0.0
 10
16.263572
 20
331.133583
 30
0.0
 10
16.823274
 20
331.880364
 30
0.0
 10
17.513660
 20
331.880329
 30
0.0
  0
LINE
  5
151
100
AcDbEntity
  8
0
 62
7
100
AcDbLine
 10
17.513660
 20
331.880329
 30
0.0
 11
17.513660
 21
331.880329
 31
0.0
  0
LINE
  5
152
100
AcDbEntity
  8
0
 62
7
100
AcDbLine
 10
17.513660
 20
322.368438
 30
0.0
 11
20.513477
 21
322.368438
 31
0.0
  0
SPLINE
  5
153
100
AcDbEntity
  8
0
 62
7
100
AcDbSpline
 70
8
 71
3
 72
8
 73
4
 74
0
 40
0
 40
0
 40
0
 40
0
 40
1
 40
1
 40
1
 40
1
 10
20.513477
 20
322.368438
 30
0.0
 10
21.203898
 20
322.368473
 30
0.0
 10
21.763565
 20
321.633401
 30
0.0
 10
21.763530
 20
320.942990
 30
0.0
  0
SPLINE
  5
154
100
AcDbEntity
  8
0
 62
7
100
AcDbSpline
 70
8
 71
3
 72
8
 73
4
 74
0
 40
0
 40
0
 40
0
 40
0
 40
1
 40
1
 40
1
 40
1
 10
21.763530
 20
320.942990
 30
0.0
 10
21.763565
 20
320.252590
 30
0.0
 10
21.203863
 20
319.529194
 30
0.0
 10
20.513477
 20
319.529233
 30
0.0
  0
LINE
  5
155
100
AcDbEntity
  8
0
 62
7
100
AcDbLine
 10
20.513477
 20
319.529233
 30
0.0
 11
17.513660
 21
319.529233
 31
0.0
  0
SPLINE
  5
156
100
AcDbEntity
  8
0
 62
7
100
AcDbSpline
 70
8
 71
3
 72
8
 73
4
 74
0
 40
0
 40
0
 40
0
 40
0
 40
1
 40
1
 40
1
 40
1
 10
17.513660
 20
319.529233
 30
0.0
 10
16.823274
 20
319.529194
 30
0.0
 10
16.263572
 20
320.252590
 30
0.0
 10
16.263607
 20
320.942990
 30
0.0
  0
SPLINE
  5
157
100
AcDbEntity
  8
0
 62
7
100
AcDbSpline
 70
8
 71
3
 72
8
 73
4
 74
0
 40
0
 40
0
 40
0
 40
0
 40
1
 40
1
 40
1
 40
1
 10
16.263607
 20
320.942990
 30
0.0
 10
16.263572
 20
321.633401
 30
0.0
 10
16.823239
 20
322.368473
 30
0.0
 10
17.513660
 20
322.368438
 30
0.0
  0
LINE
  5
158
100
AcDbEntity
  8
0
 62
7
100
AcDbLine
 10
17.513660
 20
322.368438
 30
0.0
 11
17.513660
 21
322.368438
 31
0.0
  0
SPLINE
  5
159
100
AcDbEntity
  8
0
 62
7
100
AcDbSpline
 70
8
 71
3
 72
8
 73
4
 74
0
 40
0
 40
0
 40
0
 40
0
 40
1
 40
1
 40
1
 40
1
 10
15.441435
 20
314.116532
 30
0.0
 10
17.926704
 20
314.116525
 30
0.0
 10
19.941411
 20
312.101815
 30
0.0
 10
19.941419
 20
309.616548
 30
0.0
  0
SPLINE
  5
15a
100
AcDbEntity
  8
0
 62
7
100
AcDbSpline
 70
8
 71
3
 72
8
 73
4
 74
0
 40
0
 40
0
 40
0
 40
0
 40
1
 40
1
 40
1
 40
1
 10
19.941419
 20
309.616548
 30
0.0
 10
19.941410
 20
307.131278
 30
0.0
 10
17.926703
 20
305.116571
 30
0.0
 10
15.441435
 20
305.116564
 30
0.0
  0
SPLINE
  5
15b
100
AcDbEntity
  8
0
 62
7
100
AcDbSpline
 70
8
 71
3
 72
8
 73
4
 74
0
 40
0
 40
0
 40
0
 40
0
 40
1
 40
1
 40
1
 40
1
 10
15.441435
 20
305.116564
 30
0.0
 10
12.956167
 20
305.116571
 30
0.0
 10
10.941460
 20
307.131278
 30
0.0
 10
10.941451
 20
309.616548
 30
0.0
  0
SPLINE
  5
15c
100
AcDbEntity
  8
0
 62
7
100
AcDbSpline
 70
8
 71
3
 72
8
 73
4
 74
0
 40
0
 40
0
 40
0
 40
0
 40
1
 40
1
 40
1
 40
1
 10
10.941451
 20
309.616548
 30
0.0
 10
10.941459
 20
312.101815
 30
0.0
 10
12.956165
 20
314.116525
 30
0.0
 10
15.441435
 20
314.116532
 30
0.0
  0
LINE
  5
15d
100
AcDbEntity
  8
0
 62
7
100
AcDbLine
 10
15.441435
 20
314.116532
 30
0.0
 11
15.441435
 21
314.116532
 31
0.0
  0
SPLINE
  5
15e
100
AcDbEntity
  8
0
 62
7
100
AcDbSpline
 70
8
 71
3
 72
8
 73
4
 74
0
 40
0
 40
0
 40
0
 40
0
 40
1
 40
1
 40
1
 40
1
 10
27.249499
 20
309.179883
 30
0.0
 10
28.271252
 20
309.179904
 30
0.0
 10
29.099553
 20
308.351625
 30
0.0
 10
29.099517
 20
307.329867
 30
0.0
  0
SPLINE
  5
15f
100
AcDbEntity
  8
0
 62
7
100
AcDbSpline
 70
8
 71
3
 72
8
 73
4
 74
0
 40
0
 40
0
 40
0
 40
0
 40
1
 40
1
 40
1
 40
1
 10
29.099517
 20
307.329867
 30
0.0
 10
29.099517
 20
306.308124
 30
0.0
 10
28.271252
 20
305.479830
 30
0.0
 10
27.249499
 20
305.479851
 30
0.0
  0
SPLINE
  5
160
100
AcDbEntity
  8
0
 62
7
100
AcDbSpline
 70
8
 71
3
 72
8
 73
4
 74
0
 40
0
 40
0
 40
0
 40
0
 40
1
 40
1
 40
1
 40
1
 10
27.249499
 20
305.479851
 30
0.0
 10
26.227786
 20
305.479851
 30
0.0
 10
25.399483
 20
306.308138
 30
0.0
 10
25.399483
 20
307.329867
 30
0.0
  0
SPLINE
  5
161
100
AcDbEntity
  8
0
 62
7
100
AcDbSpline
 70
8
 71
3
 72
8
 73
4
 74
0
 40
0
 40
0
 40
0
 40
0
 40
1
 40
1
 40
1
 40
1
 10
25.399483
 20
307.329867
 30
0.0
 10
25.399448
 20
308.351610
 30
0.0
 10
26.227751
 20
309.179883
 30
0.0
 10
27.249499
 20
309.179883
 30
0.0
  0
LINE
  5
162
100
AcDbEntity
  8
0
 62
7
100
AcDbLine
 10
27.249499
 20
309.179883
 30
0.0
 11
27.249499
 21
309.179883
 31
0.0
  0
SPLINE
  5
163
100
AcDbEntity
  8
0
 62
7
100
AcDbSpline
 70
8
 71
3
 72
8
 73
4
 74
0
 40
0
 40
0
 40
0
 40
0
 40
1
 40
1
 40
1
 40
1
 10
35.249527
 20
294.579741
 30
0.0
 10
37.872786
 20
294.579791
 30
0.0
 10
39.999415
 20
292.452834
 30
0.0
 10
39.999627
 20
289.829645
 30
0.0
  0
SPLINE
  5
164
100
AcDbEntity
  8
0
 62
7
100
AcDbSpline
 70
8
 71
3
 72
8
 73
4
 74
0
 40
0
 40
0
 40
0
 40
0
 40
1
 40
1
 40
1
 40
1
 10
39.999627
 20
289.829645
 30
0.0
 10
39.999697
 20
287.206382
 30
0.0
 10
37.872722
 20
285.079778
 30
0.0
 10
35.249527
 20
285.079545
 30
0.0
  0
SPLINE
  5
165
100
AcDbEntity
  8
0
 62
7
100
AcDbSpline
 70
8
 71
3
 72
8
 73
4
 74
0
 40
0
 40
0
 40
0
 40
0
 40
1
 40
1
 40
1
 40
1
 10
35.249527
 20
285.079545
 30
0.0
 10
32.626096
 20
285.079478
 30
0.0
 10
30.499361
 20
287.206195
 30
0.0
 10
30.499431
 20
289.829645
 30
0.0
  0
SPLINE
  5
166
100
AcDbEntity
  8
0
 62
7
100
AcDbSpline
 70
8
 71
3
 72
8
 73
4
 74
0
 40
0
 40
0
 40
0
 40
0
 40
1
 40
1
 40
1
 40
1
 10
30.499431
 20
289.829645
 30
0.0
 10
30.499361
 20
292.453088
 30
0.0
 10
32.626096
 20
294.579808
 30
0.0
 10
35.249527
 20
294.579741
 30
0.0
  0
LINE
  5
167
100
AcDbEntity
  8
0
 62
7
100
AcDbLine
 10
35.249527
 20
294.579741
 30
0.0
 11
35.249527
 21
294.579741
 31
0.0
  0
SPLINE
  5
168
100
AcDbEntity
  8
0
 62
7
100
AcDbSpline
 70
8
 71
3
 72
8
 73
4
 74
0
 40
0
 40
0
 40
0
 40
0
 40
1
 40
1
 40
1
 40
1
 10
27.249499
 20
274.179435
 30
0.0
 10
28.271252
 20
274.179456
 30
0.0
 10
29.099517
 20
273.351162
 30
0.0
 10
29.099517
 20
272.329419
 30
0.0
  0
SPLINE
  5
169
100
AcDbEntity
  8
0
 62
7
100
AcDbSpline
 70
8
 71
3
 72
8
 73
4
 74
0
 40
0
 40
0
 40
0
 40
0
 40
1
 40
1
 40
1
 40
1
 10
29.099517
 20
272.329419
 30
0.0
 10
29.099553
 20
271.307662
 30
0.0
 10
28.271252
 20
270.479382
 30
0.0
 10
27.249499
 20
270.479403
 30
0.0
  0
SPLINE
  5
16a
100
AcDbEntity
  8
0
 62
7
100
AcDbSpline
 70
8
 71
3
 72
8
 73
4
 74
0
 40
0
 40
0
 40
0
 40
0
 40
1
 40
1
 40
1
 40
1
 10
27.249499
 20
270.479403
 30
0.0
 10
26.227751
 20
270.479403
 30
0.0
 10
25.399448
 20
271.307676
 30
0.0
 10
25.399483
 20
272.329419
 30
0.0
  0
SPLINE
  5
16b
100
AcDbEntity
  8
0
 62
7
100
AcDbSpline
 70
8
 71
3
 72
8
 73
4
 74
0
 40
0
 40
0
 40
0
 40
0
 40
1
 40
1
 40
1
 40
1
 10
25.399483
 20
272.329419
 30
0.0
 10
25.399483
 20
273.351148
 30
0.0
 10
26.227786
 20
274.179435
 30
0.0
 10
27.249499
 20
274.179435
 30
0.0
  0
LINE
  5
16c
100
AcDbEntity
  8
0
 62
7
100
AcDbLine
 10
27.249499
 20
274.179435
 30
0.0
 11
27.249499
 21
274.179435
 31
0.0
  0
LINE
  5
16d
100
AcDbEntity
  8
0
 62
7
100
AcDbLine
 10
120.000093
 20
239.000259
 30
0.0
 11
130.000003
 21
239.000259
 31
0.0
  0
LINE
  5
16e
100
AcDbEntity
  8
0
 62
7
100
AcDbLine
 10
130.000003
 20
239.000259
 30
0.0
 11
130.000003
 21
234.999985
 31
0.0
  0
LINE
  5
16f
100
AcDbEntity
  8
0
 62
7
100
AcDbLine
 10
130.000003
 20
234.999985
 30
0.0
 11
120.000093
 21
234.999985
 31
0.0
  0
LINE
  5
170
100
AcDbEntity
  8
0
 62
7
100
AcDbLine
 10
120.000093
 20
234.999985
 30
0.0
 11
120.000093
 21
239.000259
 31
0.0
  0
SPLINE
  5
171
100
AcDbEntity
  8
0
 62
7
100
AcDbSpline
 70
8
 71
3
 72
8
 73
4
 74
0
 40
0
 40
0
 40
0
 40
0
 40
1
 40
1
 40
1
 40
1
 10
5.349028
 20
233.974139
 30
0.0
 10
5.537340
 20
233.982959
 30
0.0
 10
5.801378
 20
233.853958
 30
0.0
 10
6.250781
 20
233.830993
 30
0.0
  0
SPLINE
  5
172
100
AcDbEntity
  8
0
 62
7
100
AcDbSpline
 70
8
 71
3
 72
8
 73
4
 74
0
 40
0
 40
0
 40
0
 40
0
 40
1
 40
1
 40
1
 40
1
 10
6.250781
 20
233.830993
 30
0.0
 10
12.122591
 20
233.531132
 30
0.0
 10
18.112618
 20
233.500369
 30
0.0
 10
24.251233
 20
233.830993
 30
0.0
  0
SPLINE
  5
173
100
AcDbEntity
  8
0
 62
7
100
AcDbSpline
 70
8
 71
3
 72
8
 73
4
 74
0
 40
0
 40
0
 40
0
 40
0
 40
1
 40
1
 40
1
 40
1
 10
24.251233
 20
233.830993
 30
0.0
 10
24.850814
 20
233.831169
 30
0.0
 10
25.119348
 20
234.100899
 30
0.0
 10
25.319902
 20
233.900239
 30
0.0
  0
SPLINE
  5
174
100
AcDbEntity
  8
0
 62
7
100
AcDbSpline
 70
8
 71
3
 72
8
 73
4
 74
0
 40
0
 40
0
 40
0
 40
0
 40
1
 40
1
 40
1
 40
1
 10
25.319902
 20
233.900239
 30
0.0
 10
25.520597
 20
233.699579
 30
0.0
 10
25.301903
 20
233.428837
 30
0.0
 10
25.251172
 20
232.831055
 30
0.0
  0
SPLINE
  5
175
100
AcDbEntity
  8
0
 62
7
100
AcDbSpline
 70
8
 71
3
 72
8
 73
4
 74
0
 40
0
 40
0
 40
0
 40
0
 40
1
 40
1
 40
1
 40
1
 10
25.251172
 20
232.831055
 30
0.0
 10
25.186155
 20
232.067044
 30
0.0
 10
25.189789
 20
231.405723
 30
0.0
 10
25.251172
 20
230.830660
 30
0.0
  0
SPLINE
  5
176
100
AcDbEntity
  8
0
 62
7
100
AcDbSpline
 70
8
 71
3
 72
8
 73
4
 74
0
 40
0
 40
0
 40
0
 40
0
 40
1
 40
1
 40
1
 40
1
 10
25.251172
 20
230.830660
 30
0.0
 10
25.290719
 20
230.457774
 30
0.0
 10
25.386168
 20
230.211789
 30
0.0
 10
25.403101
 20
230.030708
 30
0.0
  0
SPLINE
  5
177
100
AcDbEntity
  8
0
 62
7
100
AcDbSpline
 70
8
 71
3
 72
8
 73
4
 74
0
 40
0
 40
0
 40
0
 40
0
 40
1
 40
1
 40
1
 40
1
 10
25.403101
 20
230.030708
 30
0.0
 10
25.413331
 20
229.922053
 30
0.0
 10
25.395326
 20
229.836723
 30
0.0
 10
25.319902
 20
229.761475
 30
0.0
  0
SPLINE
  5
178
100
AcDbEntity
  8
0
 62
7
100
AcDbSpline
 70
8
 71
3
 72
8
 73
4
 74
0
 40
0
 40
0
 40
0
 40
0
 40
1
 40
1
 40
1
 40
1
 10
25.319902
 20
229.761475
 30
0.0
 10
25.119206
 20
229.560780
 30
0.0
 10
24.850474
 20
229.814000
 30
0.0
 10
24.250716
 20
229.830722
 30
0.0
  0
SPLINE
  5
179
100
AcDbEntity
  8
0
 62
7
100
AcDbSpline
 70
8
 71
3
 72
8
 73
4
 74
0
 40
0
 40
0
 40
0
 40
0
 40
1
 40
1
 40
1
 40
1
 10
24.250716
 20
229.830722
 30
0.0
 10
18.250602
 20
229.998182
 30
0.0
 10
12.250415
 20
229.977968
 30
0.0
 10
6.250265
 20
229.830722
 30
0.0
  0
SPLINE
  5
17a
100
AcDbEntity
  8
0
 62
7
100
AcDbSpline
 70
8
 71
3
 72
8
 73
4
 74
0
 40
0
 40
0
 40
0
 40
0
 40
1
 40
1
 40
1
 40
1
 10
6.250265
 20
229.830722
 30
0.0
 10
5.650507
 20
229.815905
 30
0.0
 10
5.381704
 20
229.560741
 30
0.0
 10
5.181079
 20
229.761475
 30
0.0
  0
SPLINE
  5
17b
100
AcDbEntity
  8
0
 62
7
100
AcDbSpline
 70
8
 71
3
 72
8
 73
4
 74
0
 40
0
 40
0
 40
0
 40
0
 40
1
 40
1
 40
1
 40
1
 10
5.181079
 20
229.761475
 30
0.0
 10
4.980349
 20
229.962167
 30
0.0
 10
5.177587
 20
230.234889
 30
0.0
 10
5.250842
 20
230.830660
 30
0.0
  0
SPLINE
  5
17c
100
AcDbEntity
  8
0
 62
7
100
AcDbSpline
 70
8
 71
3
 72
8
 73
4
 74
0
 40
0
 40
0
 40
0
 40
0
 40
1
 40
1
 40
1
 40
1
 10
5.250842
 20
230.830660
 30
0.0
 10
5.321645
 20
231.426819
 30
0.0
 10
5.367118
 20
232.048311
 30
0.0
 10
5.250842
 20
232.831055
 30
0.0
  0
SPLINE
  5
17d
100
AcDbEntity
  8
0
 62
7
100
AcDbSpline
 70
8
 71
3
 72
8
 73
4
 74
0
 40
0
 40
0
 40
0
 40
0
 40
1
 40
1
 40
1
 40
1
 10
5.250842
 20
232.831055
 30
0.0
 10
5.163071
 20
233.424568
 30
0.0
 10
4.980936
 20
233.699615
 30
0.0
 10
5.181596
 20
233.900239
 30
0.0
  0
SPLINE
  5
17e
100
AcDbEntity
  8
0
 62
7
100
AcDbSpline
 70
8
 71
3
 72
8
 73
4
 74
0
 40
0
 40
0
 40
0
 40
0
 40
1
 40
1
 40
1
 40
1
 10
5.181596
 20
233.900239
 30
0.0
 10
5.231796
 20
233.950440
 30
0.0
 10
5.286233
 20
233.971243
 30
0.0
 10
5.349028
 20
233.974139
 30
0.0
  0
LINE
  5
17f
100
AcDbEntity
  8
0
 62
7
100
AcDbLine
 10
5.349028
 20
233.974139
 30
0.0
 11
5.349028
 21
233.974139
 31
0.0
  0
LINE
  5
180
100
AcDbEntity
  8
0
 62
7
100
AcDbLine
 10
165.848440
 20
419.907582
 30
0.0
 11
165.848440
 21
394.907555
 31
0.0
  0
LINE
  5
181
100
AcDbEntity
  8
0
 62
7
100
AcDbLine
 10
165.848440
 20
394.907555
 30
0.0
 11
169.848199
 21
394.907555
 31
0.0
  0
LINE
  5
182
100
AcDbEntity
  8
0
 62
7
100
AcDbLine
 10
169.848199
 20
394.907555
 30
0.0
 11
169.848199
 21
354.907421
 31
0.0
  0
LINE
  5
183
100
AcDbEntity
  8
0
 62
7
100
AcDbLine
 10
169.848199
 20
354.907421
 30
0.0
 11
169.848199
 21
314.907901
 31
0.0
  0
LINE
  5
184
100
AcDbEntity
  8
0
 62
7
100
AcDbLine
 10
169.848199
 20
314.907901
 30
0.0
 11
165.848440
 21
314.907901
 31
0.0
  0
LINE
  5
185
100
AcDbEntity
  8
0
 62
7
100
AcDbLine
 10
165.848440
 20
314.907901
 30
0.0
 11
165.848440
 21
289.907845
 31
0.0
  0
LINE
  5
186
100
AcDbEntity
  8
0
 62
7
100
AcDbLine
 10
165.848440
 20
289.907845
 30
0.0
 11
169.848199
 21
289.907845
 31
0.0
  0
LINE
  5
187
100
AcDbEntity
  8
0
 62
7
100
AcDbLine
 10
169.848199
 20
289.907845
 30
0.0
 11
189.848512
 21
289.907845
 31
0.0
  0
LINE
  5
188
100
AcDbEntity
  8
0
 62
7
100
AcDbLine
 10
189.848512
 20
289.907845
 30
0.0
 11
189.848512
 21
293.908134
 31
0.0
  0
LINE
  5
189
100
AcDbEntity
  8
0
 62
7
100
AcDbLine
 10
189.848512
 20
293.908134
 30
0.0
 11
199.848421
 21
293.908134
 31
0.0
  0
LINE
  5
18a
100
AcDbEntity
  8
0
 62
7
100
AcDbLine
 10
199.848421
 20
293.908134
 30
0.0
 11
199.848421
 21
298.907806
 31
0.0
  0
SPLINE
  5
18b
100
AcDbEntity
  8
0
 62
7
100
AcDbSpline
 70
8
 71
3
 72
8
 73
4
 74
0
 40
0
 40
0
 40
0
 40
0
 40
1
 40
1
 40
1
 40
1
 10
199.848421
 20
298.907806
 30
0.0
 10
199.848386
 20
299.460044
 30
0.0
 10
199.400711
 20
299.907755
 30
0.0
 10
198.848472
 20
299.907755
 30
0.0
  0
LINE
  5
18c
100
AcDbEntity
  8
0
 62
7
100
AcDbLine
 10
198.848472
 20
299.907755
 30
0.0
 11
189.848512
 21
299.907755
 31
0.0
  0
LINE
  5
18d
100
AcDbEntity
  8
0
 62
7
100
AcDbLine
 10
189.848512
 20
299.907755
 30
0.0
 11
189.848512
 21
303.908043
 31
0.0
  0
LINE
  5
18e
100
AcDbEntity
  8
0
 62
7
100
AcDbLine
 10
189.848512
 20
303.908043
 30
0.0
 11
198.848472
 21
303.908043
 31
0.0
  0
SPLINE
  5
18f
100
AcDbEntity
  8
0
 62
7
100
AcDbSpline
 70
8
 71
3
 72
8
 73
4
 74
0
 40
0
 40
0
 40
0
 40
0
 40
1
 40
1
 40
1
 40
1
 10
198.848472
 20
303.908043
 30
0.0
 10
199.400711
 20
303.908043
 30
0.0
 10
199.848386
 20
304.355718
 30
0.0
 10
199.848421
 20
304.907956
 30
0.0
  0
LINE
  5
190
100
AcDbEntity
  8
0
 62
7
100
AcDbLine
 10
199.848421
 20
304.907956
 30
0.0
 11
199.848421
 21
404.907453
 31
0.0
  0
SPLINE
  5
191
100
AcDbEntity
  8
0
 62
7
100
AcDbSpline
 70
8
 71
3
 72
8
 73
4
 74
0
 40
0
 40
0
 40
0
 40
0
 40
1
 40
1
 40
1
 40
1
 10
199.848421
 20
404.907453
 30
0.0
 10
199.848386
 20
405.459692
 30
0.0
 10
199.400711
 20
405.907395
 30
0.0
 10
198.848472
 20
405.907395
 30
0.0
  0
LINE
  5
192
100
AcDbEntity
  8
0
 62
7
100
AcDbLine
 10
198.848472
 20
405.907395
 30
0.0
 11
189.848512
 21
405.907395
 31
0.0
  0
LINE
  5
193
100
AcDbEntity
  8
0
 62
7
100
AcDbLine
 10
189.848512
 20
405.907395
 30
0.0
 11
189.848512
 21
409.907683
 31
0.0
  0
LINE
  5
194
100
AcDbEntity
  8
0
 62
7
100
AcDbLine
 10
189.848512
 20
409.907683
 30
0.0
 11
198.848472
 21
409.907683
 31
0.0
  0
SPLINE
  5
195
100
AcDbEntity
  8
0
 62
7
100
AcDbSpline
 70
8
 71
3
 72
8
 73
4
 74
0
 40
0
 40
0
 40
0
 40
0
 40
1
 40
1
 40
1
 40
1
 10
198.848472
 20
409.907683
 30
0.0
 10
199.400711
 20
409.907683
 30
0.0
 10
199.848386
 20
410.355383
 30
0.0
 10
199.848421
 20
410.907621
 30
0.0
  0
LINE
  5
196
100
AcDbEntity
  8
0
 62
7
100
AcDbLine
 10
199.848421
 20
410.907621
 30
0.0
 11
199.848421
 21
415.907294
 31
0.0
  0
LINE
  5
197
100
AcDbEntity
  8
0
 62
7
100
AcDbLine
 10
199.848421
 20
415.907294
 30
0.0
 11
189.848512
 21
415.907294
 31
0.0
  0
LINE
  5
198
100
AcDbEntity
  8
0
 62
7
100
AcDbLine
 10
189.848512
 20
415.907294
 30
0.0
 11
189.848512
 21
419.907582
 31
0.0
  0
LINE
  5
199
100
AcDbEntity
  8
0
 62
7
100
AcDbLine
 10
189.848512
 20
419.907582
 30
0.0
 11
169.848199
 21
419.907582
 31
0.0
  0
LINE
  5
19a
100
AcDbEntity
  8
0
 62
7
100
AcDbLine
 10
169.848199
 20
419.907582
 30
0.0
 11
165.848440
 21
419.907582
 31
0.0
  0
SPLINE
  5
19b
100
AcDbEntity
  8
0
 62
7
100
AcDbSpline
 70
8
 71
3
 72
8
 73
4
 74
0
 40
0
 40
0
 40
0
 40
0
 40
1
 40
1
 40
1
 40
1
 10
169.848199
 20
410.157263
 30
0.0
 10
169.986171
 20
410.157344
 30
0.0
 10
170.098107
 20
410.045637
 30
0.0
 10
170.098319
 20
409.907683
 30
0.0
  0
LINE
  5
19c
100
AcDbEntity
  8
0
 62
7
100
AcDbLine
 10
170.098319
 20
409.907683
 30
0.0
 11
175.656615
 21
409.907683
 31
0.0
  0
SPLINE
  5
19d
100
AcDbEntity
  8
0
 62
7
100
AcDbSpline
 70
8
 71
3
 72
8
 73
4
 74
0
 40
0
 40
0
 40
0
 40
0
 40
1
 40
1
 40
1
 40
1
 10
175.656615
 20
409.907683
 30
0.0
 10
175.656826
 20
410.045637
 30
0.0
 10
175.768763
 20
410.157344
 30
0.0
 10
175.906734
 20
410.157263
 30
0.0
  0
SPLINE
  5
19e
100
AcDbEntity
  8
0
 62
7
100
AcDbSpline
 70
8
 71
3
 72
8
 73
4
 74
0
 40
0
 40
0
 40
0
 40
0
 40
1
 40
1
 40
1
 40
1
 10
175.906734
 20
410.157263
 30
0.0
 10
176.044494
 20
410.157051
 30
0.0
 10
176.156113
 20
410.045425
 30
0.0
 10
176.156324
 20
409.907683
 30
0.0
  0
SPLINE
  5
19f
100
AcDbEntity
  8
0
 62
7
100
AcDbSpline
 70
8
 71
3
 72
8
 73
4
 74
0
 40
0
 40
0
 40
0
 40
0
 40
1
 40
1
 40
1
 40
1
 10
176.156324
 20
409.907683
 30
0.0
 10
176.156395
 20
409.769676
 30
0.0
 10
176.044670
 20
409.657758
 30
0.0
 10
175.906734
 20
409.657546
 30
0.0
  0
LINE
  5
1a0
100
AcDbEntity
  8
0
 62
7
100
AcDbLine
 10
175.906734
 20
409.657546
 30
0.0
 11
175.906734
 21
406.180762
 31
0.0
  0
SPLINE
  5
1a1
100
AcDbEntity
  8
0
 62
7
100
AcDbSpline
 70
8
 71
3
 72
8
 73
4
 74
0
 40
0
 40
0
 40
0
 40
0
 40
1
 40
1
 40
1
 40
1
 10
175.906734
 20
406.180762
 30
0.0
 10
176.013238
 20
406.149365
 30
0.0
 10
176.086263
 20
406.051540
 30
0.0
 10
176.086051
 20
405.940468
 30
0.0
  0
SPLINE
  5
1a2
100
AcDbEntity
  8
0
 62
7
100
AcDbSpline
 70
8
 71
3
 72
8
 73
4
 74
0
 40
0
 40
0
 40
0
 40
0
 40
1
 40
1
 40
1
 40
1
 10
176.086051
 20
405.940468
 30
0.0
 10
176.085804
 20
405.802514
 30
0.0
 10
175.973868
 20
405.690832
 30
0.0
 10
175.835932
 20
405.690885
 30
0.0
  0
SPLINE
  5
1a3
100
AcDbEntity
  8
0
 62
7
100
AcDbSpline
 70
8
 71
3
 72
8
 73
4
 74
0
 40
0
 40
0
 40
0
 40
0
 40
1
 40
1
 40
1
 40
1
 10
175.835932
 20
405.690885
 30
0.0
 10
175.710872
 20
405.690990
 30
0.0
 10
175.605144
 20
405.783464
 30
0.0
 10
175.588423
 20
405.907395
 30
0.0
  0
LINE
  5
1a4
100
AcDbEntity
  8
0
 62
7
100
AcDbLine
 10
175.588423
 20
405.907395
 30
0.0
 11
170.098319
 21
405.907395
 31
0.0
  0
SPLINE
  5
1a5
100
AcDbEntity
  8
0
 62
7
100
AcDbSpline
 70
8
 71
3
 72
8
 73
4
 74
0
 40
0
 40
0
 40
0
 40
0
 40
1
 40
1
 40
1
 40
1
 10
170.098319
 20
405.907395
 30
0.0
 10
170.098389
 20
405.769282
 30
0.0
 10
169.986382
 20
405.657177
 30
0.0
 10
169.848199
 20
405.657282
 30
0.0
  0
SPLINE
  5
1a6
100
AcDbEntity
  8
0
 62
7
100
AcDbSpline
 70
8
 71
3
 72
8
 73
4
 74
0
 40
0
 40
0
 40
0
 40
0
 40
1
 40
1
 40
1
 40
1
 10
169.848199
 20
405.657282
 30
0.0
 10
169.710051
 20
405.657177
 30
0.0
 10
169.598009
 20
405.769282
 30
0.0
 10
169.598080
 20
405.907395
 30
0.0
  0
SPLINE
  5
1a7
100
AcDbEntity
  8
0
 62
7
100
AcDbSpline
 70
8
 71
3
 72
8
 73
4
 74
0
 40
0
 40
0
 40
0
 40
0
 40
1
 40
1
 40
1
 40
1
 10
169.598080
 20
405.907395
 30
0.0
 10
169.598009
 20
406.045560
 30
0.0
 10
169.710051
 20
406.157585
 30
0.0
 10
169.848199
 20
406.157504
 30
0.0
  0
LINE
  5
1a8
100
AcDbEntity
  8
0
 62
7
100
AcDbLine
 10
169.848199
 20
406.157504
 30
0.0
 11
169.848199
 21
409.657546
 31
0.0
  0
SPLINE
  5
1a9
100
AcDbEntity
  8
0
 62
7
100
AcDbSpline
 70
8
 71
3
 72
8
 73
4
 74
0
 40
0
 40
0
 40
0
 40
0
 40
1
 40
1
 40
1
 40
1
 10
169.848199
 20
409.657546
 30
0.0
 10
169.710051
 20
409.657493
 30
0.0
 10
169.598009
 20
409.769518
 30
0.0
 10
169.598080
 20
409.907683
 30
0.0
  0
SPLINE
  5
1aa
100
AcDbEntity
  8
0
 62
7
100
AcDbSpline
 70
8
 71
3
 72
8
 73
4
 74
0
 40
0
 40
0
 40
0
 40
0
 40
1
 40
1
 40
1
 40
1
 10
169.598080
 20
409.907683
 30
0.0
 10
169.598291
 20
410.045637
 30
0.0
 10
169.710228
 20
410.157344
 30
0.0
 10
169.848199
 20
410.157263
 30
0.0
  0
LINE
  5
1ab
100
AcDbEntity
  8
0
 62
7
100
AcDbLine
 10
169.848199
 20
410.157263
 30
0.0
 11
169.848199
 21
410.157263
 31
0.0
  0
SPLINE
  5
1ac
100
AcDbEntity
  8
0
 62
7
100
AcDbSpline
 70
8
 71
3
 72
8
 73
4
 74
0
 40
0
 40
0
 40
0
 40
0
 40
1
 40
1
 40
1
 40
1
 10
184.848310
 20
394.907555
 30
0.0
 10
190.371083
 20
394.907504
 30
0.0
 10
194.848164
 20
390.430427
 30
0.0
 10
194.848219
 20
384.907654
 30
0.0
  0
SPLINE
  5
1ad
100
AcDbEntity
  8
0
 62
7
100
AcDbSpline
 70
8
 71
3
 72
8
 73
4
 74
0
 40
0
 40
0
 40
0
 40
0
 40
1
 40
1
 40
1
 40
1
 10
194.848219
 20
384.907654
 30
0.0
 10
194.848334
 20
382.255430
 30
0.0
 10
193.794828
 20
379.711794
 30
0.0
 10
191.919472
 20
377.836339
 30
0.0
  0
SPLINE
  5
1ae
100
AcDbEntity
  8
0
 62
7
100
AcDbSpline
 70
8
 71
3
 72
8
 73
4
 74
0
 40
0
 40
0
 40
0
 40
0
 40
1
 40
1
 40
1
 40
1
 10
191.919472
 20
377.836339
 30
0.0
 10
190.044115
 20
375.960885
 30
0.0
 10
187.500534
 20
374.907247
 30
0.0
 10
184.848310
 20
374.907222
 30
0.0
  0
SPLINE
  5
1af
100
AcDbEntity
  8
0
 62
7
100
AcDbSpline
 70
8
 71
3
 72
8
 73
4
 74
0
 40
0
 40
0
 40
0
 40
0
 40
1
 40
1
 40
1
 40
1
 10
184.848310
 20
374.907222
 30
0.0
 10
182.196086
 20
374.907247
 30
0.0
 10
179.652505
 20
375.960885
 30
0.0
 10
177.777148
 20
377.836339
 30
0.0
  0
SPLINE
  5
1b0
100
AcDbEntity
  8
0
 62
7
100
AcDbSpline
 70
8
 71
3
 72
8
 73
4
 74
0
 40
0
 40
0
 40
0
 40
0
 40
1
 40
1
 40
1
 40
1
 10
177.777148
 20
377.836339
 30
0.0
 10
175.901792
 20
379.711794
 30
0.0
 10
174.848286
 20
382.255430
 30
0.0
 10
174.848401
 20
384.907654
 30
0.0
  0
SPLINE
  5
1b1
100
AcDbEntity
  8
0
 62
7
100
AcDbSpline
 70
8
 71
3
 72
8
 73
4
 74
0
 40
0
 40
0
 40
0
 40
0
 40
1
 40
1
 40
1
 40
1
 10
174.848401
 20
384.907654
 30
0.0
 10
174.848456
 20
390.430427
 30
0.0
 10
179.325537
 20
394.907504
 30
0.0
 10
184.848310
 20
394.907555
 30
0.0
  0
LINE
  5
1b2
100
AcDbEntity
  8
0
 62
7
100
AcDbLine
 10
184.848310
 20
394.907555
 30
0.0
 11
184.848310
 21
394.907555
 31
0.0
  0
SPLINE
  5
1b3
100
AcDbEntity
  8
0
 62
7
100
AcDbSpline
 70
8
 71
3
 72
8
 73
4
 74
0
 40
0
 40
0
 40
0
 40
0
 40
1
 40
1
 40
1
 40
1
 10
184.848310
 20
364.907324
 30
0.0
 10
190.371084
 20
364.907273
 30
0.0
 10
194.848165
 20
360.430195
 30
0.0
 10
194.848219
 20
354.907421
 30
0.0
  0
SPLINE
  5
1b4
100
AcDbEntity
  8
0
 62
7
100
AcDbSpline
 70
8
 71
3
 72
8
 73
4
 74
0
 40
0
 40
0
 40
0
 40
0
 40
1
 40
1
 40
1
 40
1
 10
194.848219
 20
354.907421
 30
0.0
 10
194.848167
 20
349.384646
 30
0.0
 10
190.371085
 20
344.907566
 30
0.0
 10
184.848310
 20
344.907516
 30
0.0
  0
SPLINE
  5
1b5
100
AcDbEntity
  8
0
 62
7
100
AcDbSpline
 70
8
 71
3
 72
8
 73
4
 74
0
 40
0
 40
0
 40
0
 40
0
 40
1
 40
1
 40
1
 40
1
 10
184.848310
 20
344.907516
 30
0.0
 10
179.325535
 20
344.907566
 30
0.0
 10
174.848453
 20
349.384646
 30
0.0
 10
174.848401
 20
354.907421
 30
0.0
  0
SPLINE
  5
1b6
100
AcDbEntity
  8
0
 62
7
100
AcDbSpline
 70
8
 71
3
 72
8
 73
4
 74
0
 40
0
 40
0
 40
0
 40
0
 40
1
 40
1
 40
1
 40
1
 10
174.848401
 20
354.907421
 30
0.0
 10
174.848455
 20
360.430195
 30
0.0
 10
179.325536
 20
364.907273
 30
0.0
 10
184.848310
 20
364.907324
 30
0.0
  0
LINE
  5
1b7
100
AcDbEntity
  8
0
 62
7
100
AcDbLine
 10
184.848310
 20
364.907324
 30
0.0
 11
184.848310
 21
364.907324
 31
0.0
  0
SPLINE
  5
1b8
100
AcDbEntity
  8
0
 62
7
100
AcDbSpline
 70
8
 71
3
 72
8
 73
4
 74
0
 40
0
 40
0
 40
0
 40
0
 40
1
 40
1
 40
1
 40
1
 10
184.848310
 20
334.907649
 30
0.0
 10
187.500529
 20
334.907625
 30
0.0
 10
190.044106
 20
333.853990
 30
0.0
 10
191.919462
 20
331.978542
 30
0.0
  0
SPLINE
  5
1b9
100
AcDbEntity
  8
0
 62
7
100
AcDbSpline
 70
8
 71
3
 72
8
 73
4
 74
0
 40
0
 40
0
 40
0
 40
0
 40
1
 40
1
 40
1
 40
1
 10
191.919462
 20
331.978542
 30
0.0
 10
193.794817
 20
330.103093
 30
0.0
 10
194.848326
 20
327.559465
 30
0.0
 10
194.848219
 20
324.907246
 30
0.0
  0
SPLINE
  5
1ba
100
AcDbEntity
  8
0
 62
7
100
AcDbSpline
 70
8
 71
3
 72
8
 73
4
 74
0
 40
0
 40
0
 40
0
 40
0
 40
1
 40
1
 40
1
 40
1
 10
194.848219
 20
324.907246
 30
0.0
 10
194.848150
 20
319.384483
 30
0.0
 10
190.371073
 20
314.907422
 30
0.0
 10
184.848310
 20
314.907372
 30
0.0
  0
SPLINE
  5
1bb
100
AcDbEntity
  8
0
 62
7
100
AcDbSpline
 70
8
 71
3
 72
8
 73
4
 74
0
 40
0
 40
0
 40
0
 40
0
 40
1
 40
1
 40
1
 40
1
 10
184.848310
 20
314.907372
 30
0.0
 10
179.325547
 20
314.907422
 30
0.0
 10
174.848471
 20
319.384483
 30
0.0
 10
174.848401
 20
324.907246
 30
0.0
  0
SPLINE
  5
1bc
100
AcDbEntity
  8
0
 62
7
100
AcDbSpline
 70
8
 71
3
 72
8
 73
4
 74
0
 40
0
 40
0
 40
0
 40
0
 40
1
 40
1
 40
1
 40
1
 10
174.848401
 20
324.907246
 30
0.0
 10
174.848294
 20
327.559465
 30
0.0
 10
175.901803
 20
330.103093
 30
0.0
 10
177.777158
 20
331.978542
 30
0.0
  0
SPLINE
  5
1bd
100
AcDbEntity
  8
0
 62
7
100
AcDbSpline
 70
8
 71
3
 72
8
 73
4
 74
0
 40
0
 40
0
 40
0
 40
0
 40
1
 40
1
 40
1
 40
1
 10
177.777158
 20
331.978542
 30
0.0
 10
179.652514
 20
333.853990
 30
0.0
 10
182.196091
 20
334.907625
 30
0.0
 10
184.848310
 20
334.907649
 30
0.0
  0
LINE
  5
1be
100
AcDbEntity
  8
0
 62
7
100
AcDbLine
 10
184.848310
 20
334.907649
 30
0.0
 11
184.848310
 21
334.907649
 31
0.0
  0
SPLINE
  5
1bf
100
AcDbEntity
  8
0
 62
7
100
AcDbSpline
 70
8
 71
3
 72
8
 73
4
 74
0
 40
0
 40
0
 40
0
 40
0
 40
1
 40
1
 40
1
 40
1
 10
169.848199
 20
304.158162
 30
0.0
 10
169.986382
 20
304.158198
 30
0.0
 10
170.098389
 20
304.046191
 30
0.0
 10
170.098319
 20
303.908043
 30
0.0
  0
LINE
  5
1c0
100
AcDbEntity
  8
0
 62
7
100
AcDbLine
 10
170.098319
 20
303.908043
 30
0.0
 11
175.588423
 21
303.908043
 31
0.0
  0
SPLINE
  5
1c1
100
AcDbEntity
  8
0
 62
7
100
AcDbSpline
 70
8
 71
3
 72
8
 73
4
 74
0
 40
0
 40
0
 40
0
 40
0
 40
1
 40
1
 40
1
 40
1
 10
175.588423
 20
303.908043
 30
0.0
 10
175.605003
 20
304.031974
 30
0.0
 10
175.710872
 20
304.124401
 30
0.0
 10
175.835932
 20
304.124543
 30
0.0
  0
SPLINE
  5
1c2
100
AcDbEntity
  8
0
 62
7
100
AcDbSpline
 70
8
 71
3
 72
8
 73
4
 74
0
 40
0
 40
0
 40
0
 40
0
 40
1
 40
1
 40
1
 40
1
 10
175.835932
 20
304.124543
 30
0.0
 10
175.973868
 20
304.124648
 30
0.0
 10
176.085804
 20
304.012924
 30
0.0
 10
176.086051
 20
303.874988
 30
0.0
  0
SPLINE
  5
1c3
100
AcDbEntity
  8
0
 62
7
100
AcDbSpline
 70
8
 71
3
 72
8
 73
4
 74
0
 40
0
 40
0
 40
0
 40
0
 40
1
 40
1
 40
1
 40
1
 10
176.086051
 20
303.874988
 30
0.0
 10
176.086263
 20
303.763898
 30
0.0
 10
176.013238
 20
303.666073
 30
0.0
 10
175.906734
 20
303.634675
 30
0.0
  0
LINE
  5
1c4
100
AcDbEntity
  8
0
 62
7
100
AcDbLine
 10
175.906734
 20
303.634675
 30
0.0
 11
175.906734
 21
300.157874
 31
0.0
  0
SPLINE
  5
1c5
100
AcDbEntity
  8
0
 62
7
100
AcDbSpline
 70
8
 71
3
 72
8
 73
4
 74
0
 40
0
 40
0
 40
0
 40
0
 40
1
 40
1
 40
1
 40
1
 10
175.906734
 20
300.157874
 30
0.0
 10
176.044670
 20
300.157662
 30
0.0
 10
176.156395
 20
300.045761
 30
0.0
 10
176.156324
 20
299.907755
 30
0.0
  0
SPLINE
  5
1c6
100
AcDbEntity
  8
0
 62
7
100
AcDbSpline
 70
8
 71
3
 72
8
 73
4
 74
0
 40
0
 40
0
 40
0
 40
0
 40
1
 40
1
 40
1
 40
1
 10
176.156324
 20
299.907755
 30
0.0
 10
176.156113
 20
299.769995
 30
0.0
 10
176.044494
 20
299.658376
 30
0.0
 10
175.906734
 20
299.658164
 30
0.0
  0
SPLINE
  5
1c7
100
AcDbEntity
  8
0
 62
7
100
AcDbSpline
 70
8
 71
3
 72
8
 73
4
 74
0
 40
0
 40
0
 40
0
 40
0
 40
1
 40
1
 40
1
 40
1
 10
175.906734
 20
299.658164
 30
0.0
 10
175.768763
 20
299.658094
 30
0.0
 10
175.656826
 20
299.769783
 30
0.0
 10
175.656615
 20
299.907755
 30
0.0
  0
LINE
  5
1c8
100
AcDbEntity
  8
0
 62
7
100
AcDbLine
 10
175.656615
 20
299.907755
 30
0.0
 11
170.098319
 21
299.907755
 31
0.0
  0
SPLINE
  5
1c9
100
AcDbEntity
  8
0
 62
7
100
AcDbSpline
 70
8
 71
3
 72
8
 73
4
 74
0
 40
0
 40
0
 40
0
 40
0
 40
1
 40
1
 40
1
 40
1
 10
170.098319
 20
299.907755
 30
0.0
 10
170.098107
 20
299.769783
 30
0.0
 10
169.986171
 20
299.658094
 30
0.0
 10
169.848199
 20
299.658164
 30
0.0
  0
SPLINE
  5
1ca
100
AcDbEntity
  8
0
 62
7
100
AcDbSpline
 70
8
 71
3
 72
8
 73
4
 74
0
 40
0
 40
0
 40
0
 40
0
 40
1
 40
1
 40
1
 40
1
 10
169.848199
 20
299.658164
 30
0.0
 10
169.710228
 20
299.658094
 30
0.0
 10
169.598256
 20
299.769783
 30
0.0
 10
169.598080
 20
299.907755
 30
0.0
  0
SPLINE
  5
1cb
100
AcDbEntity
  8
0
 62
7
100
AcDbSpline
 70
8
 71
3
 72
8
 73
4
 74
0
 40
0
 40
0
 40
0
 40
0
 40
1
 40
1
 40
1
 40
1
 10
169.598080
 20
299.907755
 30
0.0
 10
169.598009
 20
300.045902
 30
0.0
 10
169.710051
 20
300.157945
 30
0.0
 10
169.848199
 20
300.157874
 30
0.0
  0
LINE
  5
1cc
100
AcDbEntity
  8
0
 62
7
100
AcDbLine
 10
169.848199
 20
300.157874
 30
0.0
 11
169.848199
 21
303.657923
 31
0.0
  0
SPLINE
  5
1cd
100
AcDbEntity
  8
0
 62
7
100
AcDbSpline
 70
8
 71
3
 72
8
 73
4
 74
0
 40
0
 40
0
 40
0
 40
0
 40
1
 40
1
 40
1
 40
1
 10
169.848199
 20
303.657923
 30
0.0
 10
169.710051
 20
303.657853
 30
0.0
 10
169.598009
 20
303.769895
 30
0.0
 10
169.598080
 20
303.908043
 30
0.0
  0
SPLINE
  5
1ce
100
AcDbEntity
  8
0
 62
7
100
AcDbSpline
 70
8
 71
3
 72
8
 73
4
 74
0
 40
0
 40
0
 40
0
 40
0
 40
1
 40
1
 40
1
 40
1
 10
169.598080
 20
303.908043
 30
0.0
 10
169.598009
 20
304.046191
 30
0.0
 10
169.710051
 20
304.158198
 30
0.0
 10
169.848199
 20
304.158162
 30
0.0
  0
LINE
  5
1cf
100
AcDbEntity
  8
0
 62
7
100
AcDbLine
 10
169.848199
 20
304.158162
 30
0.0
 11
169.848199
 21
304.158162
 31
0.0
  0
SPLINE
  5
1d0
100
AcDbEntity
  8
0
 62
7
100
AcDbSpline
 70
8
 71
3
 72
8
 73
4
 74
0
 40
0
 40
0
 40
0
 40
0
 40
1
 40
1
 40
1
 40
1
 10
134.963282
 20
196.155565
 30
0.0
 10
134.963335
 20
186.214499
 30
0.0
 10
143.022201
 20
178.155714
 30
0.0
 10
152.963232
 20
178.155643
 30
0.0
  0
SPLINE
  5
1d1
100
AcDbEntity
  8
0
 62
7
100
AcDbSpline
 70
8
 71
3
 72
8
 73
4
 74
0
 40
0
 40
0
 40
0
 40
0
 40
1
 40
1
 40
1
 40
1
 10
152.963232
 20
178.155643
 30
0.0
 10
161.963323
 20
178.155643
 30
0.0
 10
162.963342
 20
177.155624
 30
0.0
 10
162.963131
 20
168.300444
 30
0.0
  0
LINE
  5
1d2
100
AcDbEntity
  8
0
 62
7
100
AcDbLine
 10
162.963131
 20
168.300444
 30
0.0
 11
162.963131
 21
136.155626
 31
0.0
  0
LINE
  5
1d3
100
AcDbEntity
  8
0
 62
7
100
AcDbLine
 10
162.963131
 20
136.155626
 30
0.0
 11
172.963298
 21
136.155626
 31
0.0
  0
LINE
  5
1d4
100
AcDbEntity
  8
0
 62
7
100
AcDbLine
 10
172.963298
 20
136.155626
 30
0.0
 11
172.963298
 21
140.154891
 31
0.0
  0
LINE
  5
1d5
100
AcDbEntity
  8
0
 62
7
100
AcDbLine
 10
172.963298
 20
140.154891
 30
0.0
 11
177.963531
 21
140.154891
 31
0.0
  0
LINE
  5
1d6
100
AcDbEntity
  8
0
 62
7
100
AcDbLine
 10
177.963531
 20
140.154891
 30
0.0
 11
177.963531
 21
136.155626
 31
0.0
  0
LINE
  5
1d7
100
AcDbEntity
  8
0
 62
7
100
AcDbLine
 10
177.963531
 20
136.155626
 30
0.0
 11
182.963228
 21
136.155626
 31
0.0
  0
LINE
  5
1d8
100
AcDbEntity
  8
0
 62
7
100
AcDbLine
 10
182.963228
 20
136.155626
 30
0.0
 11
182.963228
 21
140.155385
 31
0.0
  0
LINE
  5
1d9
100
AcDbEntity
  8
0
 62
7
100
AcDbLine
 10
182.963228
 20
140.155385
 30
0.0
 11
187.963430
 21
140.155385
 31
0.0
  0
LINE
  5
1da
100
AcDbEntity
  8
0
 62
7
100
AcDbLine
 10
187.963430
 20
140.155385
 30
0.0
 11
187.963430
 21
136.155626
 31
0.0
  0
LINE
  5
1db
100
AcDbEntity
  8
0
 62
7
100
AcDbLine
 10
187.963430
 20
136.155626
 30
0.0
 11
192.963130
 21
136.155626
 31
0.0
  0
LINE
  5
1dc
100
AcDbEntity
  8
0
 62
7
100
AcDbLine
 10
192.963130
 20
136.155626
 30
0.0
 11
192.963130
 21
256.155860
 31
0.0
  0
LINE
  5
1dd
100
AcDbEntity
  8
0
 62
7
100
AcDbLine
 10
192.963130
 20
256.155860
 30
0.0
 11
187.963430
 21
256.155860
 31
0.0
  0
LINE
  5
1de
100
AcDbEntity
  8
0
 62
7
100
AcDbLine
 10
187.963430
 20
256.155860
 30
0.0
 11
187.963430
 21
252.156101
 31
0.0
  0
LINE
  5
1df
100
AcDbEntity
  8
0
 62
7
100
AcDbLine
 10
187.963430
 20
252.156101
 30
0.0
 11
182.963228
 21
252.156101
 31
0.0
  0
LINE
  5
1e0
100
AcDbEntity
  8
0
 62
7
100
AcDbLine
 10
182.963228
 20
252.156101
 30
0.0
 11
182.963228
 21
256.155860
 31
0.0
  0
LINE
  5
1e1
100
AcDbEntity
  8
0
 62
7
100
AcDbLine
 10
182.963228
 20
256.155860
 30
0.0
 11
177.963531
 21
256.155860
 31
0.0
  0
LINE
  5
1e2
100
AcDbEntity
  8
0
 62
7
100
AcDbLine
 10
177.963531
 20
256.155860
 30
0.0
 11
177.963531
 21
252.155572
 31
0.0
  0
LINE
  5
1e3
100
AcDbEntity
  8
0
 62
7
100
AcDbLine
 10
177.963531
 20
252.155572
 30
0.0
 11
172.963298
 21
252.155572
 31
0.0
  0
LINE
  5
1e4
100
AcDbEntity
  8
0
 62
7
100
AcDbLine
 10
172.963298
 20
252.155572
 30
0.0
 11
172.963298
 21
256.155860
 31
0.0
  0
LINE
  5
1e5
100
AcDbEntity
  8
0
 62
7
100
AcDbLine
 10
172.963298
 20
256.155860
 30
0.0
 11
162.963131
 21
256.155860
 31
0.0
  0
LINE
  5
1e6
100
AcDbEntity
  8
0
 62
7
100
AcDbLine
 10
162.963131
 20
256.155860
 30
0.0
 11
162.963131
 21
224.193450
 31
0.0
  0
SPLINE
  5
1e7
100
AcDbEntity
  8
0
 62
7
100
AcDbSpline
 70
8
 71
3
 72
8
 73
4
 74
0
 40
0
 40
0
 40
0
 40
0
 40
1
 40
1
 40
1
 40
1
 10
162.963131
 20
224.193450
 30
0.0
 10
162.963342
 20
215.155442
 30
0.0
 10
161.963323
 20
214.155423
 30
0.0
 10
152.963232
 20
214.155292
 30
0.0
  0
SPLINE
  5
1e8
100
AcDbEntity
  8
0
 62
7
100
AcDbSpline
 70
8
 71
3
 72
8
 73
4
 74
0
 40
0
 40
0
 40
0
 40
0
 40
1
 40
1
 40
1
 40
1
 10
152.963232
 20
214.155292
 30
0.0
 10
143.022201
 20
214.155264
 30
0.0
 10
134.963335
 20
206.096490
 30
0.0
 10
134.963282
 20
196.155388
 30
0.0
  0
LINE
  5
1e9
100
AcDbEntity
  8
0
 62
7
100
AcDbLine
 10
134.963282
 20
196.155388
 30
0.0
 11
134.963282
 21
196.155565
 31
0.0
  0
LINE
  5
1ea
100
AcDbEntity
  8
0
 62
7
100
AcDbLine
 10
166.517007
 20
48.226585
 30
0.0
 11
166.517007
 21
42.217650
 31
0.0
  0
SPLINE
  5
1eb
100
AcDbEntity
  8
0
 62
7
100
AcDbSpline
 70
8
 71
3
 72
8
 73
4
 74
0
 40
0
 40
0
 40
0
 40
0
 40
1
 40
1
 40
1
 40
1
 10
166.517007
 20
42.217650
 30
0.0
 10
166.517712
 20
40.226855
 30
0.0
 10
166.518065
 20
40.226996
 30
0.0
 10
168.527219
 20
40.138202
 30
0.0
  0
SPLINE
  5
1ec
100
AcDbEntity
  8
0
 62
7
100
AcDbSpline
 70
8
 71
3
 72
8
 73
4
 74
0
 40
0
 40
0
 40
0
 40
0
 40
1
 40
1
 40
1
 40
1
 10
168.527219
 20
40.138202
 30
0.0
 10
175.861363
 20
39.483622
 30
0.0
 10
181.517566
 20
35.295727
 30
0.0
 10
181.517643
 20
30.227157
 30
0.0
  0
SPLINE
  5
1ed
100
AcDbEntity
  8
0
 62
7
100
AcDbSpline
 70
8
 71
3
 72
8
 73
4
 74
0
 40
0
 40
0
 40
0
 40
0
 40
1
 40
1
 40
1
 40
1
 10
181.517643
 20
30.227157
 30
0.0
 10
181.517908
 20
25.158128
 30
0.0
 10
175.860640
 20
20.969916
 30
0.0
 10
168.525671
 20
20.315619
 30
0.0
  0
SPLINE
  5
1ee
100
AcDbEntity
  8
0
 62
7
100
AcDbSpline
 70
8
 71
3
 72
8
 73
4
 74
0
 40
0
 40
0
 40
0
 40
0
 40
1
 40
1
 40
1
 40
1
 10
168.525671
 20
20.315619
 30
0.0
 10
166.517631
 20
20.226930
 30
0.0
 10
166.517847
 20
20.226966
 30
0.0
 10
166.518041
 20
18.247036
 30
0.0
  0
LINE
  5
1ef
100
AcDbEntity
  8
0
 62
7
100
AcDbLine
 10
166.518041
 20
18.247036
 30
0.0
 11
166.518041
 21
13.226655
 31
0.0
  0
SPLINE
  5
1f0
100
AcDbEntity
  8
0
 62
7
100
AcDbSpline
 70
8
 71
3
 72
8
 73
4
 74
0
 40
0
 40
0
 40
0
 40
0
 40
1
 40
1
 40
1
 40
1
 10
166.518041
 20
13.226655
 30
0.0
 10
166.518041
 20
12.118615
 30
0.0
 10
167.409912
 20
11.226758
 30
0.0
 10
168.517920
 20
11.226758
 30
0.0
  0
LINE
  5
1f1
100
AcDbEntity
  8
0
 62
7
100
AcDbLine
 10
168.517920
 20
11.226758
 30
0.0
 11
174.518070
 21
11.226758
 31
0.0
  0
SPLINE
  5
1f2
100
AcDbEntity
  8
0
 62
7
100
AcDbSpline
 70
8
 71
3
 72
8
 73
4
 74
0
 40
0
 40
0
 40
0
 40
0
 40
1
 40
1
 40
1
 40
1
 10
174.518070
 20
11.226758
 30
0.0
 10
175.626071
 20
11.226758
 30
0.0
 10
176.585613
 20
12.120697
 30
0.0
 10
176.517950
 20
13.226655
 30
0.0
  0
LINE
  5
1f3
100
AcDbEntity
  8
0
 62
7
100
AcDbLine
 10
176.517950
 20
13.226655
 30
0.0
 11
176.517950
 21
15.227046
 31
0.0
  0
LINE
  5
1f4
100
AcDbEntity
  8
0
 62
7
100
AcDbLine
 10
176.517950
 20
15.227046
 30
0.0
 11
202.518437
 21
15.227046
 31
0.0
  0
LINE
  5
1f5
100
AcDbEntity
  8
0
 62
7
100
AcDbLine
 10
202.518437
 20
15.227046
 30
0.0
 11
202.518437
 21
27.226323
 31
0.0
  0
LINE
  5
1f6
100
AcDbEntity
  8
0
 62
7
100
AcDbLine
 10
202.518437
 20
27.226323
 30
0.0
 11
206.518196
 21
27.226323
 31
0.0
  0
LINE
  5
1f7
100
AcDbEntity
  8
0
 62
7
100
AcDbLine
 10
206.518196
 20
27.226323
 30
0.0
 11
206.518196
 21
38.226675
 31
0.0
  0
LINE
  5
1f8
100
AcDbEntity
  8
0
 62
7
100
AcDbLine
 10
206.518196
 20
38.226675
 30
0.0
 11
202.518437
 21
38.226675
 31
0.0
  0
LINE
  5
1f9
100
AcDbEntity
  8
0
 62
7
100
AcDbLine
 10
202.518437
 20
38.226675
 30
0.0
 11
202.518437
 21
45.226774
 31
0.0
  0
LINE
  5
1fa
100
AcDbEntity
  8
0
 62
7
100
AcDbLine
 10
202.518437
 20
45.226774
 30
0.0
 11
196.518305
 21
45.226774
 31
0.0
  0
LINE
  5
1fb
100
AcDbEntity
  8
0
 62
7
100
AcDbLine
 10
196.518305
 20
45.226774
 30
0.0
 11
196.518305
 21
48.226585
 31
0.0
  0
LINE
  5
1fc
100
AcDbEntity
  8
0
 62
7
100
AcDbLine
 10
196.518305
 20
48.226585
 30
0.0
 11
186.517880
 21
48.226585
 31
0.0
  0
LINE
  5
1fd
100
AcDbEntity
  8
0
 62
7
100
AcDbLine
 10
186.517880
 20
48.226585
 30
0.0
 11
186.517880
 21
45.226774
 31
0.0
  0
LINE
  5
1fe
100
AcDbEntity
  8
0
 62
7
100
AcDbLine
 10
186.517880
 20
45.226774
 30
0.0
 11
176.516916
 21
45.226774
 31
0.0
  0
LINE
  5
1ff
100
AcDbEntity
  8
0
 62
7
100
AcDbLine
 10
176.516916
 20
45.226774
 30
0.0
 11
176.516916
 21
48.226585
 31
0.0
  0
LINE
  5
200
100
AcDbEntity
  8
0
 62
7
100
AcDbLine
 10
176.516916
 20
48.226585
 30
0.0
 11
166.517007
 21
48.226585
 31
0.0
  0
SPLINE
  5
201
100
AcDbEntity
  8
0
 62
7
100
AcDbSpline
 70
8
 71
3
 72
8
 73
4
 74
0
 40
0
 40
0
 40
0
 40
0
 40
1
 40
1
 40
1
 40
1
 10
187.017565
 20
38.259766
 30
0.0
 10
187.845929
 20
38.259573
 30
0.0
 10
188.517320
 20
37.587942
 30
0.0
 10
188.517217
 20
36.759578
 30
0.0
  0
SPLINE
  5
202
100
AcDbEntity
  8
0
 62
7
100
AcDbSpline
 70
8
 71
3
 72
8
 73
4
 74
0
 40
0
 40
0
 40
0
 40
0
 40
1
 40
1
 40
1
 40
1
 10
188.517217
 20
36.759578
 30
0.0
 10
188.517301
 20
35.931228
 30
0.0
 10
187.845916
 20
35.259619
 30
0.0
 10
187.017565
 20
35.259426
 30
0.0
  0
SPLINE
  5
203
100
AcDbEntity
  8
0
 62
7
100
AcDbSpline
 70
8
 71
3
 72
8
 73
4
 74
0
 40
0
 40
0
 40
0
 40
0
 40
1
 40
1
 40
1
 40
1
 10
187.017565
 20
35.259426
 30
0.0
 10
186.619685
 20
35.259382
 30
0.0
 10
186.238089
 20
35.417419
 30
0.0
 10
185.956744
 20
35.698761
 30
0.0
  0
SPLINE
  5
204
100
AcDbEntity
  8
0
 62
7
100
AcDbSpline
 70
8
 71
3
 72
8
 73
4
 74
0
 40
0
 40
0
 40
0
 40
0
 40
1
 40
1
 40
1
 40
1
 10
185.956744
 20
35.698761
 30
0.0
 10
185.675399
 20
35.980103
 30
0.0
 10
185.517359
 20
36.361698
 30
0.0
 10
185.517399
 20
36.759578
 30
0.0
  0
SPLINE
  5
205
100
AcDbEntity
  8
0
 62
7
100
AcDbSpline
 70
8
 71
3
 72
8
 73
4
 74
0
 40
0
 40
0
 40
0
 40
0
 40
1
 40
1
 40
1
 40
1
 10
185.517399
 20
36.759578
 30
0.0
 10
185.517349
 20
37.157464
 30
0.0
 10
185.675385
 20
37.539069
 30
0.0
 10
185.956731
 20
37.820418
 30
0.0
  0
SPLINE
  5
206
100
AcDbEntity
  8
0
 62
7
100
AcDbSpline
 70
8
 71
3
 72
8
 73
4
 74
0
 40
0
 40
0
 40
0
 40
0
 40
1
 40
1
 40
1
 40
1
 10
185.956731
 20
37.820418
 30
0.0
 10
186.238077
 20
38.101768
 30
0.0
 10
186.619679
 20
38.259810
 30
0.0
 10
187.017565
 20
38.259766
 30
0.0
  0
LINE
  5
207
100
AcDbEntity
  8
0
 62
7
100
AcDbLine
 10
187.017565
 20
38.259766
 30
0.0
 11
187.017565
 21
38.259766
 31
0.0
  0
SPLINE
  5
208
100
AcDbEntity
  8
0
 62
7
100
AcDbSpline
 70
8
 71
3
 72
8
 73
4
 74
0
 40
0
 40
0
 40
0
 40
0
 40
1
 40
1
 40
1
 40
1
 10
197.517177
 20
38.226605
 30
0.0
 10
197.915067
 20
38.226654
 30
0.0
 10
198.296674
 20
38.068615
 30
0.0
 10
198.578025
 20
37.787265
 30
0.0
  0
SPLINE
  5
209
100
AcDbEntity
  8
0
 62
7
100
AcDbSpline
 70
8
 71
3
 72
8
 73
4
 74
0
 40
0
 40
0
 40
0
 40
0
 40
1
 40
1
 40
1
 40
1
 10
198.578025
 20
37.787265
 30
0.0
 10
198.859375
 20
37.505914
 30
0.0
 10
199.017414
 20
37.124307
 30
0.0
 10
199.017365
 20
36.726417
 30
0.0
  0
SPLINE
  5
20a
100
AcDbEntity
  8
0
 62
7
100
AcDbSpline
 70
8
 71
3
 72
8
 73
4
 74
0
 40
0
 40
0
 40
0
 40
0
 40
1
 40
1
 40
1
 40
1
 10
199.017365
 20
36.726417
 30
0.0
 10
199.017405
 20
36.328534
 30
0.0
 10
198.859362
 20
35.946935
 30
0.0
 10
198.578012
 20
35.665592
 30
0.0
  0
SPLINE
  5
20b
100
AcDbEntity
  8
0
 62
7
100
AcDbSpline
 70
8
 71
3
 72
8
 73
4
 74
0
 40
0
 40
0
 40
0
 40
0
 40
1
 40
1
 40
1
 40
1
 10
198.578012
 20
35.665592
 30
0.0
 10
198.296663
 20
35.384250
 30
0.0
 10
197.915061
 20
35.226215
 30
0.0
 10
197.517177
 20
35.226265
 30
0.0
  0
SPLINE
  5
20c
100
AcDbEntity
  8
0
 62
7
100
AcDbSpline
 70
8
 71
3
 72
8
 73
4
 74
0
 40
0
 40
0
 40
0
 40
0
 40
1
 40
1
 40
1
 40
1
 10
197.517177
 20
35.226265
 30
0.0
 10
196.688830
 20
35.226462
 30
0.0
 10
196.017449
 20
35.898070
 30
0.0
 10
196.017533
 20
36.726417
 30
0.0
  0
SPLINE
  5
20d
100
AcDbEntity
  8
0
 62
7
100
AcDbSpline
 70
8
 71
3
 72
8
 73
4
 74
0
 40
0
 40
0
 40
0
 40
0
 40
1
 40
1
 40
1
 40
1
 10
196.017533
 20
36.726417
 30
0.0
 10
196.017430
 20
37.554779
 30
0.0
 10
196.688816
 20
38.226408
 30
0.0
 10
197.517177
 20
38.226605
 30
0.0
  0
LINE
  5
20e
100
AcDbEntity
  8
0
 62
7
100
AcDbLine
 10
197.517177
 20
38.226605
 30
0.0
 11
197.517177
 21
38.226605
 31
0.0
  0
LINE
  5
20f
100
AcDbEntity
  8
0
 62
7
100
AcDbLine
 10
187.017565
 20
26.226304
 30
0.0
 11
197.517177
 21
26.226304
 31
0.0
  0
LINE
  5
210
100
AcDbEntity
  8
0
 62
7
100
AcDbLine
 10
197.517177
 20
26.226304
 30
0.0
 11
197.517177
 21
23.626438
 31
0.0
  0
LINE
  5
211
100
AcDbEntity
  8
0
 62
7
100
AcDbLine
 10
197.517177
 20
23.626438
 30
0.0
 11
187.017565
 21
23.626438
 31
0.0
  0
LINE
  5
212
100
AcDbEntity
  8
0
 62
7
100
AcDbLine
 10
187.017565
 20
23.626438
 30
0.0
 11
187.017565
 21
26.226304
 31
0.0
  0
LINE
  5
213
100
AcDbEntity
  8
0
 62
7
100
AcDbLine
 10
100.000471
 20
256.999938
 30
0.0
 11
99.999954
 21
289.999991
 31
0.0
  0
LINE
  5
214
100
AcDbEntity
  8
0
 62
7
100
AcDbLine
 10
99.999954
 20
289.999991
 30
0.0
 11
90.000048
 21
289.999991
 31
0.0
  0
LINE
  5
215
100
AcDbEntity
  8
0
 62
7
100
AcDbLine
 10
90.000048
 20
289.999991
 30
0.0
 11
90.000048
 21
287.000174
 31
0.0
  0
LINE
  5
216
100
AcDbEntity
  8
0
 62
7
100
AcDbLine
 10
90.000048
 20
287.000174
 30
0.0
 11
80.000141
 21
287.000174
 31
0.0
  0
LINE
  5
217
100
AcDbEntity
  8
0
 62
7
100
AcDbLine
 10
80.000141
 20
287.000174
 30
0.0
 11
80.000141
 21
289.999991
 31
0.0
  0
LINE
  5
218
100
AcDbEntity
  8
0
 62
7
100
AcDbLine
 10
80.000141
 20
289.999991
 30
0.0
 11
69.999718
 21
289.999991
 31
0.0
  0
LINE
  5
219
100
AcDbEntity
  8
0
 62
7
100
AcDbLine
 10
69.999718
 20
289.999991
 30
0.0
 11
69.999718
 21
288.000114
 31
0.0
  0
LINE
  5
21a
100
AcDbEntity
  8
0
 62
7
100
AcDbLine
 10
69.999718
 20
288.000114
 30
0.0
 11
69.999718
 21
287.000174
 31
0.0
  0
SPLINE
  5
21b
100
AcDbEntity
  8
0
 62
7
100
AcDbSpline
 70
8
 71
3
 72
8
 73
4
 74
0
 40
0
 40
0
 40
0
 40
0
 40
1
 40
1
 40
1
 40
1
 10
69.999718
 20
287.000174
 30
0.0
 10
68.999717
 20
287.000174
 30
0.0
 10
68.999778
 20
287.000238
 30
0.0
 10
68.999778
 20
286.000235
 30
0.0
  0
LINE
  5
21c
100
AcDbEntity
  8
0
 62
7
100
AcDbLine
 10
68.999778
 20
286.000235
 30
0.0
 11
68.999778
 21
283.999842
 31
0.0
  0
LINE
  5
21d
100
AcDbEntity
  8
0
 62
7
100
AcDbLine
 10
68.999778
 20
283.999842
 30
0.0
 11
65.000024
 21
283.999842
 31
0.0
  0
LINE
  5
21e
100
AcDbEntity
  8
0
 62
7
100
AcDbLine
 10
65.000024
 20
283.999842
 30
0.0
 11
65.000024
 21
286.000235
 31
0.0
  0
SPLINE
  5
21f
100
AcDbEntity
  8
0
 62
7
100
AcDbSpline
 70
8
 71
3
 72
8
 73
4
 74
0
 40
0
 40
0
 40
0
 40
0
 40
1
 40
1
 40
1
 40
1
 10
65.000024
 20
286.000235
 30
0.0
 10
65.000024
 20
287.000238
 30
0.0
 10
64.999759
 20
287.000174
 30
0.0
 10
63.999568
 20
287.000174
 30
0.0
  0
LINE
  5
220
100
AcDbEntity
  8
0
 62
7
100
AcDbLine
 10
63.999568
 20
287.000174
 30
0.0
 11
59.999296
 21
287.000174
 31
0.0
  0
LINE
  5
221
100
AcDbEntity
  8
0
 62
7
100
AcDbLine
 10
59.999296
 20
287.000174
 30
0.0
 11
59.999296
 21
280.000085
 31
0.0
  0
LINE
  5
222
100
AcDbEntity
  8
0
 62
7
100
AcDbLine
 10
59.999296
 20
280.000085
 30
0.0
 11
63.999568
 21
280.000085
 31
0.0
  0
LINE
  5
223
100
AcDbEntity
  8
0
 62
7
100
AcDbLine
 10
63.999568
 20
280.000085
 30
0.0
 11
63.999568
 21
268.999723
 31
0.0
  0
LINE
  5
224
100
AcDbEntity
  8
0
 62
7
100
AcDbLine
 10
63.999568
 20
268.999723
 30
0.0
 11
59.999296
 21
268.999723
 31
0.0
  0
LINE
  5
225
100
AcDbEntity
  8
0
 62
7
100
AcDbLine
 10
59.999296
 20
268.999723
 30
0.0
 11
59.999825
 21
256.999938
 31
0.0
  0
LINE
  5
226
100
AcDbEntity
  8
0
 62
7
100
AcDbLine
 10
59.999825
 20
256.999938
 30
0.0
 11
90.000048
 21
256.999938
 31
0.0
  0
LINE
  5
227
100
AcDbEntity
  8
0
 62
7
100
AcDbLine
 10
90.000048
 20
256.999938
 30
0.0
 11
90.000048
 21
254.999542
 31
0.0
  0
SPLINE
  5
228
100
AcDbEntity
  8
0
 62
7
100
AcDbSpline
 70
8
 71
3
 72
8
 73
4
 74
0
 40
0
 40
0
 40
0
 40
0
 40
1
 40
1
 40
1
 40
1
 10
90.000048
 20
254.999542
 30
0.0
 10
89.930865
 20
253.893708
 30
0.0
 10
90.891921
 20
252.999657
 30
0.0
 10
91.999926
 20
252.999665
 30
0.0
  0
LINE
  5
229
100
AcDbEntity
  8
0
 62
7
100
AcDbLine
 10
91.999926
 20
252.999665
 30
0.0
 11
98.000593
 21
252.999665
 31
0.0
  0
SPLINE
  5
22a
100
AcDbEntity
  8
0
 62
7
100
AcDbSpline
 70
8
 71
3
 72
8
 73
4
 74
0
 40
0
 40
0
 40
0
 40
0
 40
1
 40
1
 40
1
 40
1
 10
98.000593
 20
252.999665
 30
0.0
 10
99.108598
 20
252.999673
 30
0.0
 10
100.000471
 20
253.891541
 30
0.0
 10
100.000471
 20
254.999542
 30
0.0
  0
LINE
  5
22b
100
AcDbEntity
  8
0
 62
7
100
AcDbLine
 10
100.000471
 20
254.999542
 30
0.0
 11
100.000471
 21
256.999938
 31
0.0
  0
SPLINE
  5
22c
100
AcDbEntity
  8
0
 62
7
100
AcDbSpline
 70
8
 71
3
 72
8
 73
4
 74
0
 40
0
 40
0
 40
0
 40
0
 40
1
 40
1
 40
1
 40
1
 10
94.999743
 20
272.000056
 30
0.0
 10
94.999888
 20
269.347855
 30
0.0
 10
93.630351
 20
266.804240
 30
0.0
 10
91.192422
 20
264.928791
 30
0.0
  0
SPLINE
  5
22d
100
AcDbEntity
  8
0
 62
7
100
AcDbSpline
 70
8
 71
3
 72
8
 73
4
 74
0
 40
0
 40
0
 40
0
 40
0
 40
1
 40
1
 40
1
 40
1
 10
91.192422
 20
264.928791
 30
0.0
 10
88.754493
 20
263.053342
 30
0.0
 10
85.447881
 20
261.999691
 30
0.0
 10
82.000019
 20
261.999634
 30
0.0
  0
SPLINE
  5
22e
100
AcDbEntity
  8
0
 62
7
100
AcDbSpline
 70
8
 71
3
 72
8
 73
4
 74
0
 40
0
 40
0
 40
0
 40
0
 40
1
 40
1
 40
1
 40
1
 10
82.000019
 20
261.999634
 30
0.0
 10
78.552068
 20
261.999585
 30
0.0
 10
75.245322
 20
263.053189
 30
0.0
 10
72.807281
 20
264.928650
 30
0.0
  0
SPLINE
  5
22f
100
AcDbEntity
  8
0
 62
7
100
AcDbSpline
 70
8
 71
3
 72
8
 73
4
 74
0
 40
0
 40
0
 40
0
 40
0
 40
1
 40
1
 40
1
 40
1
 10
72.807281
 20
264.928650
 30
0.0
 10
70.369240
 20
266.804110
 30
0.0
 10
68.999633
 20
269.347786
 30
0.0
 10
68.999778
 20
272.000056
 30
0.0
  0
SPLINE
  5
230
100
AcDbEntity
  8
0
 62
7
100
AcDbSpline
 70
8
 71
3
 72
8
 73
4
 74
0
 40
0
 40
0
 40
0
 40
0
 40
1
 40
1
 40
1
 40
1
 10
68.999778
 20
272.000056
 30
0.0
 10
68.999810
 20
274.652237
 30
0.0
 10
70.369497
 20
277.195780
 30
0.0
 10
72.807518
 20
279.071129
 30
0.0
  0
SPLINE
  5
231
100
AcDbEntity
  8
0
 62
7
100
AcDbSpline
 70
8
 71
3
 72
8
 73
4
 74
0
 40
0
 40
0
 40
0
 40
0
 40
1
 40
1
 40
1
 40
1
 10
72.807518
 20
279.071129
 30
0.0
 10
75.245540
 20
280.946477
 30
0.0
 10
78.552184
 20
282.000011
 30
0.0
 10
82.000019
 20
281.999962
 30
0.0
  0
SPLINE
  5
232
100
AcDbEntity
  8
0
 62
7
100
AcDbSpline
 70
8
 71
3
 72
8
 73
4
 74
0
 40
0
 40
0
 40
0
 40
0
 40
1
 40
1
 40
1
 40
1
 10
82.000019
 20
281.999962
 30
0.0
 10
89.179565
 20
281.999844
 30
0.0
 10
94.999675
 20
277.522784
 30
0.0
 10
94.999743
 20
272.000056
 30
0.0
  0
LINE
  5
233
100
AcDbEntity
  8
0
 62
7
100
AcDbLine
 10
94.999743
 20
272.000056
 30
0.0
 11
94.999743
 21
272.000056
 31
0.0
  0
LINE
  5
234
100
AcDbEntity
  8
0
 62
7
100
AcDbLine
 10
100.000471
 20
323.000044
 30
0.0
 11
99.999954
 21
289.999990
 31
0.0
  0
LINE
  5
235
100
AcDbEntity
  8
0
 62
7
100
AcDbLine
 10
99.999954
 20
289.999990
 30
0.0
 11
90.000048
 21
289.999990
 31
0.0
  0
LINE
  5
236
100
AcDbEntity
  8
0
 62
7
100
AcDbLine
 10
90.000048
 20
289.999990
 30
0.0
 11
90.000048
 21
292.999808
 31
0.0
  0
LINE
  5
237
100
AcDbEntity
  8
0
 62
7
100
AcDbLine
 10
90.000048
 20
292.999808
 30
0.0
 11
80.000141
 21
292.999808
 31
0.0
  0
LINE
  5
238
100
AcDbEntity
  8
0
 62
7
100
AcDbLine
 10
80.000141
 20
292.999808
 30
0.0
 11
80.000141
 21
289.999990
 31
0.0
  0
LINE
  5
239
100
AcDbEntity
  8
0
 62
7
100
AcDbLine
 10
80.000141
 20
289.999990
 30
0.0
 11
69.999718
 21
289.999990
 31
0.0
  0
LINE
  5
23a
100
AcDbEntity
  8
0
 62
7
100
AcDbLine
 10
69.999718
 20
289.999990
 30
0.0
 11
69.999718
 21
291.999866
 31
0.0
  0
LINE
  5
23b
100
AcDbEntity
  8
0
 62
7
100
AcDbLine
 10
69.999718
 20
291.999866
 30
0.0
 11
69.999718
 21
292.999808
 31
0.0
  0
SPLINE
  5
23c
100
AcDbEntity
  8
0
 62
7
100
AcDbSpline
 70
8
 71
3
 72
8
 73
4
 74
0
 40
0
 40
0
 40
0
 40
0
 40
1
 40
1
 40
1
 40
1
 10
69.999718
 20
292.999808
 30
0.0
 10
68.999717
 20
292.999808
 30
0.0
 10
68.999778
 20
292.999744
 30
0.0
 10
68.999778
 20
293.999746
 30
0.0
  0
LINE
  5
23d
100
AcDbEntity
  8
0
 62
7
100
AcDbLine
 10
68.999778
 20
293.999746
 30
0.0
 11
68.999778
 21
296.000140
 31
0.0
  0
LINE
  5
23e
100
AcDbEntity
  8
0
 62
7
100
AcDbLine
 10
68.999778
 20
296.000140
 30
0.0
 11
65.000024
 21
296.000140
 31
0.0
  0
LINE
  5
23f
100
AcDbEntity
  8
0
 62
7
100
AcDbLine
 10
65.000024
 20
296.000140
 30
0.0
 11
65.000024
 21
293.999746
 31
0.0
  0
SPLINE
  5
240
100
AcDbEntity
  8
0
 62
7
100
AcDbSpline
 70
8
 71
3
 72
8
 73
4
 74
0
 40
0
 40
0
 40
0
 40
0
 40
1
 40
1
 40
1
 40
1
 10
65.000024
 20
293.999746
 30
0.0
 10
65.000024
 20
292.999744
 30
0.0
 10
64.999671
 20
292.999808
 30
0.0
 10
63.999568
 20
292.999808
 30
0.0
  0
LINE
  5
241
100
AcDbEntity
  8
0
 62
7
100
AcDbLine
 10
63.999568
 20
292.999808
 30
0.0
 11
59.999294
 21
292.999808
 31
0.0
  0
LINE
  5
242
100
AcDbEntity
  8
0
 62
7
100
AcDbLine
 10
59.999294
 20
292.999808
 30
0.0
 11
59.999294
 21
299.999896
 31
0.0
  0
LINE
  5
243
100
AcDbEntity
  8
0
 62
7
100
AcDbLine
 10
59.999294
 20
299.999896
 30
0.0
 11
63.999568
 21
299.999896
 31
0.0
  0
LINE
  5
244
100
AcDbEntity
  8
0
 62
7
100
AcDbLine
 10
63.999568
 20
299.999896
 30
0.0
 11
63.999568
 21
311.000258
 31
0.0
  0
LINE
  5
245
100
AcDbEntity
  8
0
 62
7
100
AcDbLine
 10
63.999568
 20
311.000258
 30
0.0
 11
59.999294
 21
311.000258
 31
0.0
  0
LINE
  5
246
100
AcDbEntity
  8
0
 62
7
100
AcDbLine
 10
59.999294
 20
311.000258
 30
0.0
 11
59.999647
 21
323.000044
 31
0.0
  0
LINE
  5
247
100
AcDbEntity
  8
0
 62
7
100
AcDbLine
 10
59.999647
 20
323.000044
 30
0.0
 11
90.000048
 21
323.000044
 31
0.0
  0
LINE
  5
248
100
AcDbEntity
  8
0
 62
7
100
AcDbLine
 10
90.000048
 20
323.000044
 30
0.0
 11
90.000048
 21
325.000438
 31
0.0
  0
SPLINE
  5
249
100
AcDbEntity
  8
0
 62
7
100
AcDbSpline
 70
8
 71
3
 72
8
 73
4
 74
0
 40
0
 40
0
 40
0
 40
0
 40
1
 40
1
 40
1
 40
1
 10
90.000048
 20
325.000438
 30
0.0
 10
89.930865
 20
326.106273
 30
0.0
 10
90.891922
 20
327.000325
 30
0.0
 10
91.999926
 20
327.000314
 30
0.0
  0
LINE
  5
24a
100
AcDbEntity
  8
0
 62
7
100
AcDbLine
 10
91.999926
 20
327.000314
 30
0.0
 11
98.000593
 21
327.000314
 31
0.0
  0
SPLINE
  5
24b
100
AcDbEntity
  8
0
 62
7
100
AcDbSpline
 70
8
 71
3
 72
8
 73
4
 74
0
 40
0
 40
0
 40
0
 40
0
 40
1
 40
1
 40
1
 40
1
 10
98.000593
 20
327.000314
 30
0.0
 10
99.108598
 20
327.000307
 30
0.0
 10
100.000471
 20
326.108439
 30
0.0
 10
100.000471
 20
325.000438
 30
0.0
  0
LINE
  5
24c
100
AcDbEntity
  8
0
 62
7
100
AcDbLine
 10
100.000471
 20
325.000438
 30
0.0
 11
100.000471
 21
323.000044
 31
0.0
  0
SPLINE
  5
24d
100
AcDbEntity
  8
0
 62
7
100
AcDbSpline
 70
8
 71
3
 72
8
 73
4
 74
0
 40
0
 40
0
 40
0
 40
0
 40
1
 40
1
 40
1
 40
1
 10
94.999743
 20
307.999926
 30
0.0
 10
94.999887
 20
310.652127
 30
0.0
 10
93.630350
 20
313.195742
 30
0.0
 10
91.192422
 20
315.071190
 30
0.0
  0
SPLINE
  5
24e
100
AcDbEntity
  8
0
 62
7
100
AcDbSpline
 70
8
 71
3
 72
8
 73
4
 74
0
 40
0
 40
0
 40
0
 40
0
 40
1
 40
1
 40
1
 40
1
 10
91.192422
 20
315.071190
 30
0.0
 10
88.754493
 20
316.946639
 30
0.0
 10
85.447880
 20
318.000290
 30
0.0
 10
82.000019
 20
318.000346
 30
0.0
  0
SPLINE
  5
24f
100
AcDbEntity
  8
0
 62
7
100
AcDbSpline
 70
8
 71
3
 72
8
 73
4
 74
0
 40
0
 40
0
 40
0
 40
0
 40
1
 40
1
 40
1
 40
1
 10
82.000019
 20
318.000346
 30
0.0
 10
78.552068
 20
318.000396
 30
0.0
 10
75.245323
 20
316.946791
 30
0.0
 10
72.807282
 20
315.071331
 30
0.0
  0
SPLINE
  5
250
100
AcDbEntity
  8
0
 62
7
100
AcDbSpline
 70
8
 71
3
 72
8
 73
4
 74
0
 40
0
 40
0
 40
0
 40
0
 40
1
 40
1
 40
1
 40
1
 10
72.807282
 20
315.071331
 30
0.0
 10
70.369241
 20
313.195871
 30
0.0
 10
68.999633
 20
310.652196
 30
0.0
 10
68.999778
 20
307.999926
 30
0.0
  0
SPLINE
  5
251
100
AcDbEntity
  8
0
 62
7
100
AcDbSpline
 70
8
 71
3
 72
8
 73
4
 74
0
 40
0
 40
0
 40
0
 40
0
 40
1
 40
1
 40
1
 40
1
 10
68.999778
 20
307.999926
 30
0.0
 10
68.999811
 20
305.347745
 30
0.0
 10
70.369497
 20
302.804202
 30
0.0
 10
72.807519
 20
300.928853
 30
0.0
  0
SPLINE
  5
252
100
AcDbEntity
  8
0
 62
7
100
AcDbSpline
 70
8
 71
3
 72
8
 73
4
 74
0
 40
0
 40
0
 40
0
 40
0
 40
1
 40
1
 40
1
 40
1
 10
72.807519
 20
300.928853
 30
0.0
 10
75.245540
 20
299.053504
 30
0.0
 10
78.552184
 20
297.999971
 30
0.0
 10
82.000019
 20
298.000020
 30
0.0
  0
SPLINE
  5
253
100
AcDbEntity
  8
0
 62
7
100
AcDbSpline
 70
8
 71
3
 72
8
 73
4
 74
0
 40
0
 40
0
 40
0
 40
0
 40
1
 40
1
 40
1
 40
1
 10
82.000019
 20
298.000020
 30
0.0
 10
89.179565
 20
298.000138
 30
0.0
 10
94.999674
 20
302.477198
 30
0.0
 10
94.999743
 20
307.999926
 30
0.0
  0
LINE
  5
254
100
AcDbEntity
  8
0
 62
7
100
AcDbLine
 10
94.999743
 20
307.999926
 30
0.0
 11
94.999743
 21
307.999926
 31
0.0
  0
LINE
  5
255
100
AcDbEntity
  8
0
 62
7
100
AcDbLine
 10
146.471542
 20
138.819179
 30
0.0
 11
143.125611
 21
141.010712
 31
0.0
  0
LINE
  5
256
100
AcDbEntity
  8
0
 62
7
100
AcDbLine
 10
143.125611
 20
141.010712
 30
0.0
 11
137.646492
 21
132.645462
 31
0.0
  0
LINE
  5
257
100
AcDbEntity
  8
0
 62
7
100
AcDbLine
 10
137.646492
 20
132.645462
 30
0.0
 11
135.973169
 21
133.741356
 31
0.0
  0
SPLINE
  5
258
100
AcDbEntity
  8
0
 62
7
100
AcDbSpline
 70
8
 71
3
 72
8
 73
4
 74
0
 40
0
 40
0
 40
0
 40
0
 40
1
 40
1
 40
1
 40
1
 10
135.973169
 20
133.741356
 30
0.0
 10
132.528110
 20
135.997818
 30
0.0
 10
142.786316
 20
148.895941
 30
0.0
 10
142.171612
 20
155.980491
 30
0.0
  0
SPLINE
  5
259
100
AcDbEntity
  8
0
 62
7
100
AcDbSpline
 70
8
 71
3
 72
8
 73
4
 74
0
 40
0
 40
0
 40
0
 40
0
 40
1
 40
1
 40
1
 40
1
 10
142.171612
 20
155.980491
 30
0.0
 10
141.276685
 20
166.294553
 30
0.0
 10
128.479477
 20
173.402566
 30
0.0
 10
131.727552
 20
178.361570
 30
0.0
  0
LINE
  5
25a
100
AcDbEntity
  8
0
 62
7
100
AcDbLine
 10
131.727552
 20
178.361570
 30
0.0
 11
133.919374
 21
181.707943
 31
0.0
  0
LINE
  5
25b
100
AcDbEntity
  8
0
 62
7
100
AcDbLine
 10
133.919374
 20
181.707943
 30
0.0
 11
142.284628
 21
176.228824
 31
0.0
  0
LINE
  5
25c
100
AcDbEntity
  8
0
 62
7
100
AcDbLine
 10
142.284628
 20
176.228824
 30
0.0
 11
140.092805
 21
172.882452
 31
0.0
  0
LINE
  5
25d
100
AcDbEntity
  8
0
 62
7
100
AcDbLine
 10
140.092805
 20
172.882452
 30
0.0
 11
156.823545
 21
161.924063
 31
0.0
  0
LINE
  5
25e
100
AcDbEntity
  8
0
 62
7
100
AcDbLine
 10
156.823545
 20
161.924063
 30
0.0
 11
151.344441
 21
153.558831
 31
0.0
  0
LINE
  5
25f
100
AcDbEntity
  8
0
 62
7
100
AcDbLine
 10
151.344441
 20
153.558831
 30
0.0
 11
154.690372
 21
151.367294
 31
0.0
  0
LINE
  5
260
100
AcDbEntity
  8
0
 62
7
100
AcDbLine
 10
154.690372
 20
151.367294
 30
0.0
 11
146.471542
 21
138.819179
 31
0.0
  0
LINE
  5
261
100
AcDbEntity
  8
0
 62
7
100
AcDbLine
 10
103.000001
 20
161.999988
 30
0.0
 11
103.000001
 21
165.999747
 31
0.0
  0
LINE
  5
262
100
AcDbEntity
  8
0
 62
7
100
AcDbLine
 10
103.000001
 20
165.999747
 30
0.0
 11
93.000091
 21
165.999747
 31
0.0
  0
LINE
  5
263
100
AcDbEntity
  8
0
 62
7
100
AcDbLine
 10
93.000091
 20
165.999747
 30
0.0
 11
92.999999
 21
167.999990
 31
0.0
  0
SPLINE
  5
264
100
AcDbEntity
  8
0
 62
7
100
AcDbSpline
 70
8
 71
3
 72
8
 73
4
 74
0
 40
0
 40
0
 40
0
 40
0
 40
1
 40
1
 40
1
 40
1
 10
92.999999
 20
167.999990
 30
0.0
 10
92.999999
 20
172.118272
 30
0.0
 10
109.410347
 20
170.604019
 30
0.0
 10
115.000001
 20
174.999990
 30
0.0
  0
SPLINE
  5
265
100
AcDbEntity
  8
0
 62
7
100
AcDbSpline
 70
8
 71
3
 72
8
 73
4
 74
0
 40
0
 40
0
 40
0
 40
0
 40
1
 40
1
 40
1
 40
1
 10
115.000001
 20
174.999990
 30
0.0
 10
123.137706
 20
181.399865
 30
0.0
 10
122.071989
 20
195.999757
 30
0.0
 10
128.000031
 20
195.999768
 30
0.0
  0
LINE
  5
266
100
AcDbEntity
  8
0
 62
7
100
AcDbLine
 10
128.000031
 20
195.999768
 30
0.0
 11
132.000320
 21
195.999768
 31
0.0
  0
LINE
  5
267
100
AcDbEntity
  8
0
 62
7
100
AcDbLine
 10
132.000320
 20
195.999768
 30
0.0
 11
132.000320
 21
185.999858
 31
0.0
  0
LINE
  5
268
100
AcDbEntity
  8
0
 62
7
100
AcDbLine
 10
132.000320
 20
185.999858
 30
0.0
 11
128.000031
 21
185.999858
 31
0.0
  0
LINE
  5
269
100
AcDbEntity
  8
0
 62
7
100
AcDbLine
 10
128.000031
 20
185.999858
 30
0.0
 11
128.000031
 21
165.999747
 31
0.0
  0
LINE
  5
26a
100
AcDbEntity
  8
0
 62
7
100
AcDbLine
 10
128.000031
 20
165.999747
 30
0.0
 11
118.000147
 21
165.999747
 31
0.0
  0
LINE
  5
26b
100
AcDbEntity
  8
0
 62
7
100
AcDbLine
 10
118.000147
 20
165.999747
 30
0.0
 11
118.000147
 21
161.999988
 31
0.0
  0
LINE
  5
26c
100
AcDbEntity
  8
0
 62
7
100
AcDbLine
 10
118.000147
 20
161.999988
 30
0.0
 11
103.000001
 21
161.999988
 31
0.0
  0
LINE
  5
26d
100
AcDbEntity
  8
0
 62
7
100
AcDbLine
 10
131.000350
 20
384.999955
 30
0.0
 11
131.000590
 21
396.999539
 31
0.0
  0
LINE
  5
26e
100
AcDbEntity
  8
0
 62
7
100
AcDbLine
 10
131.000590
 20
396.999539
 30
0.0
 11
135.000349
 21
396.999539
 31
0.0
  0
LINE
  5
26f
100
AcDbEntity
  8
0
 62
7
100
AcDbLine
 10
135.000349
 20
396.999539
 30
0.0
 11
135.000349
 21
407.999905
 31
0.0
  0
LINE
  5
270
100
AcDbEntity
  8
0
 62
7
100
AcDbLine
 10
135.000349
 20
407.999905
 30
0.0
 11
131.000590
 21
407.999905
 31
0.0
  0
LINE
  5
271
100
AcDbEntity
  8
0
 62
7
100
AcDbLine
 10
131.000590
 20
407.999905
 30
0.0
 11
131.000590
 21
414.999993
 31
0.0
  0
LINE
  5
272
100
AcDbEntity
  8
0
 62
7
100
AcDbLine
 10
131.000590
 20
414.999993
 30
0.0
 11
125.000439
 21
414.999993
 31
0.0
  0
LINE
  5
273
100
AcDbEntity
  8
0
 62
7
100
AcDbLine
 10
125.000439
 20
414.999993
 30
0.0
 11
125.000425
 21
417.999744
 31
0.0
  0
LINE
  5
274
100
AcDbEntity
  8
0
 62
7
100
AcDbLine
 10
125.000425
 20
417.999744
 30
0.0
 11
114.999987
 21
417.999744
 31
0.0
  0
LINE
  5
275
100
AcDbEntity
  8
0
 62
7
100
AcDbLine
 10
114.999987
 20
417.999744
 30
0.0
 11
115.000001
 21
414.999993
 31
0.0
  0
LINE
  5
276
100
AcDbEntity
  8
0
 62
7
100
AcDbLine
 10
115.000001
 20
414.999993
 30
0.0
 11
105.000067
 21
414.999993
 31
0.0
  0
LINE
  5
277
100
AcDbEntity
  8
0
 62
7
100
AcDbLine
 10
105.000067
 20
414.999993
 30
0.0
 11
105.000067
 21
417.999744
 31
0.0
  0
LINE
  5
278
100
AcDbEntity
  8
0
 62
7
100
AcDbLine
 10
105.000067
 20
417.999744
 30
0.0
 11
95.000218
 21
417.999744
 31
0.0
  0
LINE
  5
279
100
AcDbEntity
  8
0
 62
7
100
AcDbLine
 10
95.000218
 20
417.999744
 30
0.0
 11
94.999971
 21
409.999957
 31
0.0
  0
SPLINE
  5
27a
100
AcDbEntity
  8
0
 62
7
100
AcDbSpline
 70
8
 71
3
 72
8
 73
4
 74
0
 40
0
 40
0
 40
0
 40
0
 40
1
 40
1
 40
1
 40
1
 10
94.999971
 20
409.999957
 30
0.0
 10
94.999971
 20
404.999957
 30
0.0
 10
112.999959
 20
408.999956
 30
0.0
 10
118.999961
 20
404.999957
 30
0.0
  0
SPLINE
  5
27b
100
AcDbEntity
  8
0
 62
7
100
AcDbSpline
 70
8
 71
3
 72
8
 73
4
 74
0
 40
0
 40
0
 40
0
 40
0
 40
1
 40
1
 40
1
 40
1
 10
118.999961
 20
404.999957
 30
0.0
 10
124.999960
 20
400.999958
 30
0.0
 10
120.999961
 20
384.999958
 30
0.0
 10
126.154291
 20
384.999958
 30
0.0
  0
LINE
  5
27c
100
AcDbEntity
  8
0
 62
7
100
AcDbLine
 10
126.154291
 20
384.999958
 30
0.0
 11
131.000350
 21
384.999955
 31
0.0
  0
LINE
  5
27d
100
AcDbEntity
  8
0
 62
7
100
AcDbLine
 10
143.788682
 20
368.973250
 30
0.0
 11
152.896599
 21
376.785796
 31
0.0
  0
LINE
  5
27e
100
AcDbEntity
  8
0
 62
7
100
AcDbLine
 10
152.896599
 20
376.785796
 30
0.0
 11
155.500773
 21
373.749956
 31
0.0
  0
LINE
  5
27f
100
AcDbEntity
  8
0
 62
7
100
AcDbLine
 10
155.500773
 20
373.749956
 30
0.0
 11
163.850116
 21
380.912107
 31
0.0
  0
LINE
  5
280
100
AcDbEntity
  8
0
 62
7
100
AcDbLine
 10
163.850116
 20
380.912107
 30
0.0
 11
161.245943
 21
383.947950
 31
0.0
  0
LINE
  5
281
100
AcDbEntity
  8
0
 62
7
100
AcDbLine
 10
161.245943
 20
383.947950
 30
0.0
 11
166.559054
 21
388.505591
 31
0.0
  0
LINE
  5
282
100
AcDbEntity
  8
0
 62
7
100
AcDbLine
 10
166.559054
 20
388.505591
 30
0.0
 11
162.652457
 21
393.059744
 31
0.0
  0
LINE
  5
283
100
AcDbEntity
  8
0
 62
7
100
AcDbLine
 10
162.652457
 20
393.059744
 30
0.0
 11
164.929274
 21
395.012841
 31
0.0
  0
LINE
  5
284
100
AcDbEntity
  8
0
 62
7
100
AcDbLine
 10
164.929274
 20
395.012841
 30
0.0
 11
158.418157
 21
402.603236
 31
0.0
  0
LINE
  5
285
100
AcDbEntity
  8
0
 62
7
100
AcDbLine
 10
158.418157
 20
402.603236
 30
0.0
 11
156.141336
 21
400.650135
 31
0.0
  0
LINE
  5
286
100
AcDbEntity
  8
0
 62
7
100
AcDbLine
 10
156.141336
 20
400.650135
 30
0.0
 11
149.630554
 21
408.240138
 31
0.0
  0
LINE
  5
287
100
AcDbEntity
  8
0
 62
7
100
AcDbLine
 10
149.630554
 20
408.240138
 30
0.0
 11
151.907386
 21
410.193229
 31
0.0
  0
LINE
  5
288
100
AcDbEntity
  8
0
 62
7
100
AcDbLine
 10
151.907386
 20
410.193229
 30
0.0
 11
145.396632
 21
417.783193
 31
0.0
  0
LINE
  5
289
100
AcDbEntity
  8
0
 62
7
100
AcDbLine
 10
145.396632
 20
417.783193
 30
0.0
 11
139.324579
 21
412.574849
 31
0.0
  0
SPLINE
  5
28a
100
AcDbEntity
  8
0
 62
7
100
AcDbSpline
 70
8
 71
3
 72
8
 73
4
 74
0
 40
0
 40
0
 40
0
 40
0
 40
1
 40
1
 40
1
 40
1
 10
139.324579
 20
412.574849
 30
0.0
 10
135.529554
 20
409.319434
 30
0.0
 10
150.285077
 20
398.261657
 30
0.0
 10
151.155556
 20
391.103288
 30
0.0
  0
SPLINE
  5
28b
100
AcDbEntity
  8
0
 62
7
100
AcDbSpline
 70
8
 71
3
 72
8
 73
4
 74
0
 40
0
 40
0
 40
0
 40
0
 40
1
 40
1
 40
1
 40
1
 10
151.155556
 20
391.103288
 30
0.0
 10
152.026028
 20
383.944916
 30
0.0
 10
137.277596
 20
376.563606
 30
0.0
 10
140.633494
 20
372.651434
 30
0.0
  0
LINE
  5
28c
100
AcDbEntity
  8
0
 62
7
100
AcDbLine
 10
140.633494
 20
372.651434
 30
0.0
 11
143.788682
 21
368.973250
 31
0.0
  0
LINE
  5
28d
100
AcDbEntity
  8
0
 62
7
100
AcDbLine
 10
59.999992
 20
329.999998
 30
0.0
 11
100.000010
 21
329.999998
 31
0.0
  0
SPLINE
  5
28e
100
AcDbEntity
  8
0
 62
7
100
AcDbSpline
 70
8
 71
3
 72
8
 73
4
 74
0
 40
0
 40
0
 40
0
 40
0
 40
1
 40
1
 40
1
 40
1
 10
100.000010
 20
329.999998
 30
0.0
 10
102.770004
 20
329.999998
 30
0.0
 10
105.000000
 20
327.770002
 30
0.0
 10
105.000000
 20
325.000008
 30
0.0
  0
LINE
  5
28f
100
AcDbEntity
  8
0
 62
7
100
AcDbLine
 10
105.000000
 20
325.000008
 30
0.0
 11
105.000000
 21
254.999984
 31
0.0
  0
SPLINE
  5
290
100
AcDbEntity
  8
0
 62
7
100
AcDbSpline
 70
8
 71
3
 72
8
 73
4
 74
0
 40
0
 40
0
 40
0
 40
0
 40
1
 40
1
 40
1
 40
1
 10
105.000000
 20
254.999984
 30
0.0
 10
105.000000
 20
252.229990
 30
0.0
 10
102.770004
 20
249.999994
 30
0.0
 10
100.000010
 20
249.999994
 30
0.0
  0
LINE
  5
291
100
AcDbEntity
  8
0
 62
7
100
AcDbLine
 10
100.000010
 20
249.999994
 30
0.0
 11
59.999992
 21
249.999994
 31
0.0
  0
SPLINE
  5
292
100
AcDbEntity
  8
0
 62
7
100
AcDbSpline
 70
8
 71
3
 72
8
 73
4
 74
0
 40
0
 40
0
 40
0
 40
0
 40
1
 40
1
 40
1
 40
1
 10
59.999992
 20
249.999994
 30
0.0
 10
57.229999
 20
249.999994
 30
0.0
 10
55.000002
 20
252.229990
 30
0.0
 10
55.000002
 20
254.999984
 30
0.0
  0
LINE
  5
293
100
AcDbEntity
  8
0
 62
7
100
AcDbLine
 10
55.000002
 20
254.999984
 30
0.0
 11
55.000002
 21
325.000008
 31
0.0
  0
SPLINE
  5
294
100
AcDbEntity
  8
0
 62
7
100
AcDbSpline
 70
8
 71
3
 72
8
 73
4
 74
0
 40
0
 40
0
 40
0
 40
0
 40
1
 40
1
 40
1
 40
1
 10
55.000002
 20
325.000008
 30
0.0
 10
55.000002
 20
327.770002
 30
0.0
 10
57.229999
 20
329.999998
 30
0.0
 10
59.999992
 20
329.999998
 30
0.0
  0
LINE
  5
295
100
AcDbEntity
  8
0
 62
7
100
AcDbLine
 10
59.999992
 20
329.999998
 30
0.0
 11
59.999992
 21
329.999998
 31
0.0
  0
LINE
  5
296
100
AcDbEntity
  8
0
 62
7
100
AcDbLine
 10
129.922815
 20
47.664398
 30
0.0
 11
129.922815
 21
12.664468
 31
0.0
  0
SPLINE
  5
297
100
AcDbEntity
  8
0
 62
7
100
AcDbSpline
 70
8
 71
3
 72
8
 73
4
 74
0
 40
0
 40
0
 40
0
 40
0
 40
1
 40
1
 40
1
 40
1
 10
129.922815
 20
12.664468
 30
0.0
 10
129.922815
 20
11.556429
 30
0.0
 10
130.814672
 20
10.664571
 30
0.0
 10
131.922677
 20
10.664571
 30
0.0
  0
LINE
  5
298
100
AcDbEntity
  8
0
 62
7
100
AcDbLine
 10
131.922677
 20
10.664571
 30
0.0
 11
137.922827
 21
10.664571
 31
0.0
  0
SPLINE
  5
299
100
AcDbEntity
  8
0
 62
7
100
AcDbSpline
 70
8
 71
3
 72
8
 73
4
 74
0
 40
0
 40
0
 40
0
 40
0
 40
1
 40
1
 40
1
 40
1
 10
137.922827
 20
10.664571
 30
0.0
 10
139.030831
 20
10.664571
 30
0.0
 10
139.990387
 20
11.558510
 30
0.0
 10
139.922724
 20
12.664468
 30
0.0
  0
LINE
  5
29a
100
AcDbEntity
  8
0
 62
7
100
AcDbLine
 10
139.922724
 20
12.664468
 30
0.0
 11
139.922724
 21
14.664859
 31
0.0
  0
LINE
  5
29b
100
AcDbEntity
  8
0
 62
7
100
AcDbLine
 10
139.922724
 20
14.664859
 30
0.0
 11
165.923187
 21
14.664859
 31
0.0
  0
LINE
  5
29c
100
AcDbEntity
  8
0
 62
7
100
AcDbLine
 10
165.923187
 20
14.664859
 30
0.0
 11
165.923187
 21
26.664137
 31
0.0
  0
LINE
  5
29d
100
AcDbEntity
  8
0
 62
7
100
AcDbLine
 10
165.923187
 20
26.664137
 30
0.0
 11
169.922946
 21
26.664137
 31
0.0
  0
LINE
  5
29e
100
AcDbEntity
  8
0
 62
7
100
AcDbLine
 10
169.922946
 20
26.664137
 30
0.0
 11
169.922946
 21
37.664489
 31
0.0
  0
LINE
  5
29f
100
AcDbEntity
  8
0
 62
7
100
AcDbLine
 10
169.922946
 20
37.664489
 30
0.0
 11
165.923187
 21
37.664489
 31
0.0
  0
LINE
  5
2a0
100
AcDbEntity
  8
0
 62
7
100
AcDbLine
 10
165.923187
 20
37.664489
 30
0.0
 11
165.923187
 21
44.664587
 31
0.0
  0
LINE
  5
2a1
100
AcDbEntity
  8
0
 62
7
100
AcDbLine
 10
165.923187
 20
44.664587
 30
0.0
 11
159.923036
 21
44.664587
 31
0.0
  0
LINE
  5
2a2
100
AcDbEntity
  8
0
 62
7
100
AcDbLine
 10
159.923036
 20
44.664587
 30
0.0
 11
159.923036
 21
47.664398
 31
0.0
  0
LINE
  5
2a3
100
AcDbEntity
  8
0
 62
7
100
AcDbLine
 10
159.923036
 20
47.664398
 30
0.0
 11
149.922633
 21
47.664398
 31
0.0
  0
LINE
  5
2a4
100
AcDbEntity
  8
0
 62
7
100
AcDbLine
 10
149.922633
 20
47.664398
 30
0.0
 11
149.922633
 21
44.664587
 31
0.0
  0
LINE
  5
2a5
100
AcDbEntity
  8
0
 62
7
100
AcDbLine
 10
149.922633
 20
44.664587
 30
0.0
 11
139.922724
 21
44.664587
 31
0.0
  0
LINE
  5
2a6
100
AcDbEntity
  8
0
 62
7
100
AcDbLine
 10
139.922724
 20
44.664587
 30
0.0
 11
139.922724
 21
47.664398
 31
0.0
  0
LINE
  5
2a7
100
AcDbEntity
  8
0
 62
7
100
AcDbLine
 10
139.922724
 20
47.664398
 30
0.0
 11
129.922815
 21
47.664398
 31
0.0
  0
SPLINE
  5
2a8
100
AcDbEntity
  8
0
 62
7
100
AcDbSpline
 70
8
 71
3
 72
8
 73
4
 74
0
 40
0
 40
0
 40
0
 40
0
 40
1
 40
1
 40
1
 40
1
 10
139.922724
 20
29.663947
 30
0.0
 10
139.922724
 20
32.156922
 30
0.0
 10
141.929712
 20
34.163910
 30
0.0
 10
144.422687
 20
34.163910
 30
0.0
  0
LINE
  5
2a9
100
AcDbEntity
  8
0
 62
7
100
AcDbLine
 10
144.422687
 20
34.163910
 30
0.0
 11
150.422837
 21
34.163910
 31
0.0
  0
SPLINE
  5
2aa
100
AcDbEntity
  8
0
 62
7
100
AcDbSpline
 70
8
 71
3
 72
8
 73
4
 74
0
 40
0
 40
0
 40
0
 40
0
 40
1
 40
1
 40
1
 40
1
 10
150.422837
 20
34.163910
 30
0.0
 10
152.915847
 20
34.163910
 30
0.0
 10
154.922835
 20
32.156922
 30
0.0
 10
154.922835
 20
29.663947
 30
0.0
  0
SPLINE
  5
2ab
100
AcDbEntity
  8
0
 62
7
100
AcDbSpline
 70
8
 71
3
 72
8
 73
4
 74
0
 40
0
 40
0
 40
0
 40
0
 40
1
 40
1
 40
1
 40
1
 10
154.922835
 20
29.663947
 30
0.0
 10
154.922835
 20
27.170937
 30
0.0
 10
152.915847
 20
25.163949
 30
0.0
 10
150.422837
 20
25.163949
 30
0.0
  0
LINE
  5
2ac
100
AcDbEntity
  8
0
 62
7
100
AcDbLine
 10
150.422837
 20
25.163949
 30
0.0
 11
144.422687
 21
25.163949
 31
0.0
  0
SPLINE
  5
2ad
100
AcDbEntity
  8
0
 62
7
100
AcDbSpline
 70
8
 71
3
 72
8
 73
4
 74
0
 40
0
 40
0
 40
0
 40
0
 40
1
 40
1
 40
1
 40
1
 10
144.422687
 20
25.163949
 30
0.0
 10
141.929712
 20
25.163949
 30
0.0
 10
139.922724
 20
27.170937
 30
0.0
 10
139.922724
 20
29.663947
 30
0.0
  0
LINE
  5
2ae
100
AcDbEntity
  8
0
 62
7
100
AcDbLine
 10
139.922724
 20
29.663947
 30
0.0
 11
139.922724
 21
29.663947
 31
0.0
  0
SPLINE
  5
2af
100
AcDbEntity
  8
0
 62
7
100
AcDbSpline
 70
8
 71
3
 72
8
 73
4
 74
0
 40
0
 40
0
 40
0
 40
0
 40
1
 40
1
 40
1
 40
1
 10
145.422635
 20
19.664532
 30
0.0
 10
145.422824
 20
20.492886
 30
0.0
 10
146.094437
 20
21.164276
 30
0.0
 10
146.922791
 20
21.164190
 30
0.0
  0
SPLINE
  5
2b0
100
AcDbEntity
  8
0
 62
7
100
AcDbSpline
 70
8
 71
3
 72
8
 73
4
 74
0
 40
0
 40
0
 40
0
 40
0
 40
1
 40
1
 40
1
 40
1
 10
146.922791
 20
21.164190
 30
0.0
 10
147.751158
 20
21.164294
 30
0.0
 10
148.422790
 20
20.492899
 30
0.0
 10
148.422979
 20
19.664532
 30
0.0
  0
SPLINE
  5
2b1
100
AcDbEntity
  8
0
 62
7
100
AcDbSpline
 70
8
 71
3
 72
8
 73
4
 74
0
 40
0
 40
0
 40
0
 40
0
 40
1
 40
1
 40
1
 40
1
 10
148.422979
 20
19.664532
 30
0.0
 10
148.423019
 20
19.266648
 30
0.0
 10
148.264976
 20
18.885050
 30
0.0
 10
147.983626
 20
18.603707
 30
0.0
  0
SPLINE
  5
2b2
100
AcDbEntity
  8
0
 62
7
100
AcDbSpline
 70
8
 71
3
 72
8
 73
4
 74
0
 40
0
 40
0
 40
0
 40
0
 40
1
 40
1
 40
1
 40
1
 10
147.983626
 20
18.603707
 30
0.0
 10
147.702277
 20
18.322364
 30
0.0
 10
147.320675
 20
18.164330
 30
0.0
 10
146.922791
 20
18.164380
 30
0.0
  0
SPLINE
  5
2b3
100
AcDbEntity
  8
0
 62
7
100
AcDbSpline
 70
8
 71
3
 72
8
 73
4
 74
0
 40
0
 40
0
 40
0
 40
0
 40
1
 40
1
 40
1
 40
1
 10
146.922791
 20
18.164380
 30
0.0
 10
146.524913
 20
18.164338
 30
0.0
 10
146.143319
 20
18.322376
 30
0.0
 10
145.861976
 20
18.603718
 30
0.0
  0
SPLINE
  5
2b4
100
AcDbEntity
  8
0
 62
7
100
AcDbSpline
 70
8
 71
3
 72
8
 73
4
 74
0
 40
0
 40
0
 40
0
 40
0
 40
1
 40
1
 40
1
 40
1
 10
145.861976
 20
18.603718
 30
0.0
 10
145.580634
 20
18.885060
 30
0.0
 10
145.422595
 20
19.266654
 30
0.0
 10
145.422635
 20
19.664532
 30
0.0
  0
LINE
  5
2b5
100
AcDbEntity
  8
0
 62
7
100
AcDbLine
 10
145.422635
 20
19.664532
 30
0.0
 11
145.422635
 21
19.664532
 31
0.0
  0
SPLINE
  5
2b6
100
AcDbEntity
  8
0
 62
7
100
AcDbSpline
 70
8
 71
3
 72
8
 73
4
 74
0
 40
0
 40
0
 40
0
 40
0
 40
1
 40
1
 40
1
 40
1
 10
145.422635
 20
39.664350
 30
0.0
 10
145.422586
 20
40.062235
 30
0.0
 10
145.580620
 20
40.443837
 30
0.0
 10
145.861964
 20
40.725187
 30
0.0
  0
SPLINE
  5
2b7
100
AcDbEntity
  8
0
 62
7
100
AcDbSpline
 70
8
 71
3
 72
8
 73
4
 74
0
 40
0
 40
0
 40
0
 40
0
 40
1
 40
1
 40
1
 40
1
 10
145.861964
 20
40.725187
 30
0.0
 10
146.143308
 20
41.006536
 30
0.0
 10
146.524907
 20
41.164579
 30
0.0
 10
146.922791
 20
41.164538
 30
0.0
  0
SPLINE
  5
2b8
100
AcDbEntity
  8
0
 62
7
100
AcDbSpline
 70
8
 71
3
 72
8
 73
4
 74
0
 40
0
 40
0
 40
0
 40
0
 40
1
 40
1
 40
1
 40
1
 10
146.922791
 20
41.164538
 30
0.0
 10
147.320681
 20
41.164588
 30
0.0
 10
147.702288
 20
41.006549
 30
0.0
 10
147.983639
 20
40.725198
 30
0.0
  0
SPLINE
  5
2b9
100
AcDbEntity
  8
0
 62
7
100
AcDbSpline
 70
8
 71
3
 72
8
 73
4
 74
0
 40
0
 40
0
 40
0
 40
0
 40
1
 40
1
 40
1
 40
1
 10
147.983639
 20
40.725198
 30
0.0
 10
148.264989
 20
40.443848
 30
0.0
 10
148.423028
 20
40.062240
 30
0.0
 10
148.422979
 20
39.664350
 30
0.0
  0
SPLINE
  5
2ba
100
AcDbEntity
  8
0
 62
7
100
AcDbSpline
 70
8
 71
3
 72
8
 73
4
 74
0
 40
0
 40
0
 40
0
 40
0
 40
1
 40
1
 40
1
 40
1
 10
148.422979
 20
39.664350
 30
0.0
 10
148.423019
 20
39.266467
 30
0.0
 10
148.264976
 20
38.884869
 30
0.0
 10
147.983626
 20
38.603526
 30
0.0
  0
SPLINE
  5
2bb
100
AcDbEntity
  8
0
 62
7
100
AcDbSpline
 70
8
 71
3
 72
8
 73
4
 74
0
 40
0
 40
0
 40
0
 40
0
 40
1
 40
1
 40
1
 40
1
 10
147.983626
 20
38.603526
 30
0.0
 10
147.702277
 20
38.322183
 30
0.0
 10
147.320675
 20
38.164149
 30
0.0
 10
146.922791
 20
38.164198
 30
0.0
  0
SPLINE
  5
2bc
100
AcDbEntity
  8
0
 62
7
100
AcDbSpline
 70
8
 71
3
 72
8
 73
4
 74
0
 40
0
 40
0
 40
0
 40
0
 40
1
 40
1
 40
1
 40
1
 10
146.922791
 20
38.164198
 30
0.0
 10
146.524913
 20
38.164157
 30
0.0
 10
146.143319
 20
38.322195
 30
0.0
 10
145.861976
 20
38.603537
 30
0.0
  0
SPLINE
  5
2bd
100
AcDbEntity
  8
0
 62
7
100
AcDbSpline
 70
8
 71
3
 72
8
 73
4
 74
0
 40
0
 40
0
 40
0
 40
0
 40
1
 40
1
 40
1
 40
1
 10
145.861976
 20
38.603537
 30
0.0
 10
145.580634
 20
38.884879
 30
0.0
 10
145.422595
 20
39.266472
 30
0.0
 10
145.422635
 20
39.664350
 30
0.0
  0
LINE
  5
2be
100
AcDbEntity
  8
0
 62
7
100
AcDbLine
 10
145.422635
 20
39.664350
 30
0.0
 11
145.422635
 21
39.664350
 31
0.0
  0
SPLINE
  5
2bf
100
AcDbEntity
  8
0
 62
7
100
AcDbSpline
 70
8
 71
3
 72
8
 73
4
 74
0
 40
0
 40
0
 40
0
 40
0
 40
1
 40
1
 40
1
 40
1
 10
173.000004
 20
286.999990
 30
0.0
 10
167.460000
 20
286.999990
 30
0.0
 10
165.999912
 20
282.540082
 30
0.0
 10
165.999912
 20
277.000084
 30
0.0
  0
LINE
  5
2c0
100
AcDbEntity
  8
0
 62
7
100
AcDbLine
 10
165.999912
 20
277.000084
 30
0.0
 11
165.999912
 21
272.000390
 31
0.0
  0
SPLINE
  5
2c1
100
AcDbEntity
  8
0
 62
7
100
AcDbSpline
 70
8
 71
3
 72
8
 73
4
 74
0
 40
0
 40
0
 40
0
 40
0
 40
1
 40
1
 40
1
 40
1
 10
165.999912
 20
272.000390
 30
0.0
 10
165.999912
 20
266.460393
 30
0.0
 10
167.460000
 20
261.999966
 30
0.0
 10
173.000004
 20
261.999966
 30
0.0
  0
SPLINE
  5
2c2
100
AcDbEntity
  8
0
 62
7
100
AcDbSpline
 70
8
 71
3
 72
8
 73
4
 74
0
 40
0
 40
0
 40
0
 40
0
 40
1
 40
1
 40
1
 40
1
 10
173.000004
 20
261.999966
 30
0.0
 10
175.999663
 20
261.999966
 30
0.0
 10
176.000002
 20
261.999991
 30
0.0
 10
176.000002
 20
264.999992
 30
0.0
  0
LINE
  5
2c3
100
AcDbEntity
  8
0
 62
7
100
AcDbLine
 10
176.000002
 20
264.999992
 30
0.0
 11
184.000031
 21
264.999992
 31
0.0
  0
SPLINE
  5
2c4
100
AcDbEntity
  8
0
 62
7
100
AcDbSpline
 70
8
 71
3
 72
8
 73
4
 74
0
 40
0
 40
0
 40
0
 40
0
 40
1
 40
1
 40
1
 40
1
 10
184.000031
 20
264.999992
 30
0.0
 10
184.000003
 20
261.999991
 30
0.0
 10
183.999678
 20
261.999966
 30
0.0
 10
186.999665
 20
261.999966
 30
0.0
  0
SPLINE
  5
2c5
100
AcDbEntity
  8
0
 62
7
100
AcDbSpline
 70
8
 71
3
 72
8
 73
4
 74
0
 40
0
 40
0
 40
0
 40
0
 40
1
 40
1
 40
1
 40
1
 10
186.999665
 20
261.999966
 30
0.0
 10
192.539663
 20
261.999966
 30
0.0
 10
193.999754
 20
266.460393
 30
0.0
 10
193.999754
 20
272.000390
 30
0.0
  0
LINE
  5
2c6
100
AcDbEntity
  8
0
 62
7
100
AcDbLine
 10
193.999754
 20
272.000390
 30
0.0
 11
193.999754
 21
277.000084
 31
0.0
  0
SPLINE
  5
2c7
100
AcDbEntity
  8
0
 62
7
100
AcDbSpline
 70
8
 71
3
 72
8
 73
4
 74
0
 40
0
 40
0
 40
0
 40
0
 40
1
 40
1
 40
1
 40
1
 10
193.999754
 20
277.000084
 30
0.0
 10
193.999754
 20
282.540082
 30
0.0
 10
192.539663
 20
286.999990
 30
0.0
 10
186.999665
 20
286.999990
 30
0.0
  0
LINE
  5
2c8
100
AcDbEntity
  8
0
 62
7
100
AcDbLine
 10
186.999665
 20
286.999990
 30
0.0
 11
173.000004
 21
286.999990
 31
0.0
  0
SPLINE
  5
2c9
100
AcDbEntity
  8
0
 62
7
100
AcDbSpline
 70
8
 71
3
 72
8
 73
4
 74
0
 40
0
 40
0
 40
0
 40
0
 40
1
 40
1
 40
1
 40
1
 10
179.999577
 20
281.500068
 30
0.0
 10
182.459832
 20
281.496893
 30
0.0
 10
184.737831
 20
280.202445
 30
0.0
 10
185.999724
 20
278.090457
 30
0.0
  0
LINE
  5
2ca
100
AcDbEntity
  8
0
 62
7
100
AcDbLine
 10
185.999724
 20
278.090457
 30
0.0
 11
185.999724
 21
270.910533
 31
0.0
  0
SPLINE
  5
2cb
100
AcDbEntity
  8
0
 62
7
100
AcDbSpline
 70
8
 71
3
 72
8
 73
4
 74
0
 40
0
 40
0
 40
0
 40
0
 40
1
 40
1
 40
1
 40
1
 10
185.999724
 20
270.910533
 30
0.0
 10
184.738085
 20
268.798149
 30
0.0
 10
182.460043
 20
267.503246
 30
0.0
 10
179.999577
 20
267.499888
 30
0.0
  0
SPLINE
  5
2cc
100
AcDbEntity
  8
0
 62
7
100
AcDbSpline
 70
8
 71
3
 72
8
 73
4
 74
0
 40
0
 40
0
 40
0
 40
0
 40
1
 40
1
 40
1
 40
1
 10
179.999577
 20
267.499888
 30
0.0
 10
177.539813
 20
267.502710
 30
0.0
 10
175.262128
 20
268.796713
 30
0.0
 10
173.999942
 20
270.907951
 30
0.0
  0
LINE
  5
2cd
100
AcDbEntity
  8
0
 62
7
100
AcDbLine
 10
173.999942
 20
270.907951
 30
0.0
 11
173.999942
 21
278.090457
 31
0.0
  0
SPLINE
  5
2ce
100
AcDbEntity
  8
0
 62
7
100
AcDbSpline
 70
8
 71
3
 72
8
 73
4
 74
0
 40
0
 40
0
 40
0
 40
0
 40
1
 40
1
 40
1
 40
1
 10
173.999942
 20
278.090457
 30
0.0
 10
175.261743
 20
280.202287
 30
0.0
 10
177.539503
 20
281.496745
 30
0.0
 10
179.999577
 20
281.500068
 30
0.0
  0
LINE
  5
2cf
100
AcDbEntity
  8
0
 62
7
100
AcDbLine
 10
179.999577
 20
281.500068
 30
0.0
 11
179.999577
 21
281.500068
 31
0.0
  0
SPLINE
  5
2d0
100
AcDbEntity
  8
0
 62
7
100
AcDbSpline
 70
8
 71
3
 72
8
 73
4
 74
0
 40
0
 40
0
 40
0
 40
0
 40
1
 40
1
 40
1
 40
1
 10
170.000186
 20
276.500374
 30
0.0
 10
170.828544
 20
276.500180
 30
0.0
 10
171.499933
 20
275.828562
 30
0.0
 10
171.499838
 20
275.000205
 30
0.0
  0
SPLINE
  5
2d1
100
AcDbEntity
  8
0
 62
7
100
AcDbSpline
 70
8
 71
3
 72
8
 73
4
 74
0
 40
0
 40
0
 40
0
 40
0
 40
1
 40
1
 40
1
 40
1
 10
171.499838
 20
275.000205
 30
0.0
 10
171.499929
 20
274.171847
 30
0.0
 10
170.828544
 20
273.500232
 30
0.0
 10
170.000186
 20
273.500038
 30
0.0
  0
SPLINE
  5
2d2
100
AcDbEntity
  8
0
 62
7
100
AcDbSpline
 70
8
 71
3
 72
8
 73
4
 74
0
 40
0
 40
0
 40
0
 40
0
 40
1
 40
1
 40
1
 40
1
 10
170.000186
 20
273.500038
 30
0.0
 10
169.171628
 20
273.499946
 30
0.0
 10
168.499928
 20
274.171646
 30
0.0
 10
168.500020
 20
275.000205
 30
0.0
  0
SPLINE
  5
2d3
100
AcDbEntity
  8
0
 62
7
100
AcDbSpline
 70
8
 71
3
 72
8
 73
4
 74
0
 40
0
 40
0
 40
0
 40
0
 40
1
 40
1
 40
1
 40
1
 10
168.500020
 20
275.000205
 30
0.0
 10
168.499925
 20
275.828763
 30
0.0
 10
169.171628
 20
276.500466
 30
0.0
 10
170.000186
 20
276.500374
 30
0.0
  0
LINE
  5
2d4
100
AcDbEntity
  8
0
 62
7
100
AcDbLine
 10
170.000186
 20
276.500374
 30
0.0
 11
170.000186
 21
276.500374
 31
0.0
  0
SPLINE
  5
2d5
100
AcDbEntity
  8
0
 62
7
100
AcDbSpline
 70
8
 71
3
 72
8
 73
4
 74
0
 40
0
 40
0
 40
0
 40
0
 40
1
 40
1
 40
1
 40
1
 10
189.999998
 20
276.500374
 30
0.0
 10
190.828557
 20
276.500466
 30
0.0
 10
191.500260
 20
275.828763
 30
0.0
 10
191.500164
 20
275.000205
 30
0.0
  0
SPLINE
  5
2d6
100
AcDbEntity
  8
0
 62
7
100
AcDbSpline
 70
8
 71
3
 72
8
 73
4
 74
0
 40
0
 40
0
 40
0
 40
0
 40
1
 40
1
 40
1
 40
1
 10
191.500164
 20
275.000205
 30
0.0
 10
191.500256
 20
274.171646
 30
0.0
 10
190.828557
 20
273.499946
 30
0.0
 10
189.999998
 20
273.500038
 30
0.0
  0
SPLINE
  5
2d7
100
AcDbEntity
  8
0
 62
7
100
AcDbSpline
 70
8
 71
3
 72
8
 73
4
 74
0
 40
0
 40
0
 40
0
 40
0
 40
1
 40
1
 40
1
 40
1
 10
189.999998
 20
273.500038
 30
0.0
 10
189.171439
 20
273.499946
 30
0.0
 10
188.499740
 20
274.171646
 30
0.0
 10
188.499832
 20
275.000205
 30
0.0
  0
SPLINE
  5
2d8
100
AcDbEntity
  8
0
 62
7
100
AcDbSpline
 70
8
 71
3
 72
8
 73
4
 74
0
 40
0
 40
0
 40
0
 40
0
 40
1
 40
1
 40
1
 40
1
 10
188.499832
 20
275.000205
 30
0.0
 10
188.499736
 20
275.828763
 30
0.0
 10
189.171439
 20
276.500466
 30
0.0
 10
189.999998
 20
276.500374
 30
0.0
  0
LINE
  5
2d9
100
AcDbEntity
  8
0
 62
7
100
AcDbLine
 10
189.999998
 20
276.500374
 30
0.0
 11
189.999998
 21
276.500374
 31
0.0
  0
SPLINE
  5
2da
100
AcDbEntity
  8
0
 62
7
100
AcDbSpline
 70
8
 71
3
 72
8
 73
4
 74
0
 40
0
 40
0
 40
0
 40
0
 40
1
 40
1
 40
1
 40
1
 10
132.499370
 20
124.441492
 30
0.0
 10
132.499260
 20
128.583470
 30
0.0
 10
129.141550
 20
131.941180
 30
0.0
 10
124.999572
 20
131.941290
 30
0.0
  0
LINE
  5
2db
100
AcDbEntity
  8
0
 62
7
100
AcDbLine
 10
124.999572
 20
131.941290
 30
0.0
 11
124.999572
 21
154.441728
 31
0.0
  0
SPLINE
  5
2dc
100
AcDbEntity
  8
0
 62
7
100
AcDbSpline
 70
8
 71
3
 72
8
 73
4
 74
0
 40
0
 40
0
 40
0
 40
0
 40
1
 40
1
 40
1
 40
1
 10
124.999572
 20
154.441728
 30
0.0
 10
124.999572
 20
157.211739
 30
0.0
 10
112.769736
 20
158.941359
 30
0.0
 10
109.999761
 20
158.941359
 30
0.0
  0
LINE
  5
2dd
100
AcDbEntity
  8
0
 62
7
100
AcDbLine
 10
109.999761
 20
158.941359
 30
0.0
 11
89.999931
 21
158.941359
 31
0.0
  0
LINE
  5
2de
100
AcDbEntity
  8
0
 62
7
100
AcDbLine
 10
89.999931
 20
158.941359
 30
0.0
 11
80.000029
 21
158.941359
 31
0.0
  0
LINE
  5
2df
100
AcDbEntity
  8
0
 62
7
100
AcDbLine
 10
80.000029
 20
158.941359
 30
0.0
 11
34.999934
 21
158.941570
 31
0.0
  0
SPLINE
  5
2e0
100
AcDbEntity
  8
0
 62
7
100
AcDbSpline
 70
8
 71
3
 72
8
 73
4
 74
0
 40
0
 40
0
 40
0
 40
0
 40
1
 40
1
 40
1
 40
1
 10
34.999934
 20
158.941570
 30
0.0
 10
15.609940
 20
158.941662
 30
0.0
 10
0.000000
 20
143.331644
 30
0.0
 10
0.000000
 20
123.941641
 30
0.0
  0
LINE
  5
2e1
100
AcDbEntity
  8
0
 62
7
100
AcDbLine
 10
0.000000
 20
123.941641
 30
0.0
 11
0.000000
 21
53.941655
 31
0.0
  0
SPLINE
  5
2e2
100
AcDbEntity
  8
0
 62
7
100
AcDbSpline
 70
8
 71
3
 72
8
 73
4
 74
0
 40
0
 40
0
 40
0
 40
0
 40
1
 40
1
 40
1
 40
1
 10
0.000000
 20
53.941655
 30
0.0
 10
0.000000
 20
34.551648
 30
0.0
 10
15.610007
 20
18.941655
 30
0.0
 10
35.000001
 20
18.941655
 30
0.0
  0
LINE
  5
2e3
100
AcDbEntity
  8
0
 62
7
100
AcDbLine
 10
35.000001
 20
18.941655
 30
0.0
 11
80.000029
 21
18.941620
 31
0.0
  0
LINE
  5
2e4
100
AcDbEntity
  8
0
 62
7
100
AcDbLine
 10
80.000029
 20
18.941620
 30
0.0
 11
89.999931
 21
18.941620
 31
0.0
  0
LINE
  5
2e5
100
AcDbEntity
  8
0
 62
7
100
AcDbLine
 10
89.999931
 20
18.941620
 30
0.0
 11
109.999761
 21
18.941620
 31
0.0
  0
SPLINE
  5
2e6
100
AcDbEntity
  8
0
 62
7
100
AcDbSpline
 70
8
 71
3
 72
8
 73
4
 74
0
 40
0
 40
0
 40
0
 40
0
 40
1
 40
1
 40
1
 40
1
 10
109.999761
 20
18.941620
 30
0.0
 10
112.769736
 20
18.941620
 30
0.0
 10
124.999572
 20
21.671908
 30
0.0
 10
124.999572
 20
24.441884
 30
0.0
  0
LINE
  5
2e7
100
AcDbEntity
  8
0
 62
7
100
AcDbLine
 10
124.999572
 20
24.441884
 30
0.0
 11
124.999572
 21
46.941309
 31
0.0
  0
SPLINE
  5
2e8
100
AcDbEntity
  8
0
 62
7
100
AcDbSpline
 70
8
 71
3
 72
8
 73
4
 74
0
 40
0
 40
0
 40
0
 40
0
 40
1
 40
1
 40
1
 40
1
 10
124.999572
 20
46.941309
 30
0.0
 10
129.141747
 20
46.941415
 30
0.0
 10
132.499539
 20
50.299436
 30
0.0
 10
132.499370
 20
54.441612
 30
0.0
  0
SPLINE
  5
2e9
100
AcDbEntity
  8
0
 62
7
100
AcDbSpline
 70
8
 71
3
 72
8
 73
4
 74
0
 40
0
 40
0
 40
0
 40
0
 40
1
 40
1
 40
1
 40
1
 10
132.499370
 20
54.441612
 30
0.0
 10
132.499264
 20
58.583575
 30
0.0
 10
129.141553
 20
61.941314
 30
0.0
 10
124.999572
 20
61.941420
 30
0.0
  0
LINE
  5
2ea
100
AcDbEntity
  8
0
 62
7
100
AcDbLine
 10
124.999572
 20
61.941420
 30
0.0
 11
124.999572
 21
116.941690
 31
0.0
  0
SPLINE
  5
2eb
100
AcDbEntity
  8
0
 62
7
100
AcDbSpline
 70
8
 71
3
 72
8
 73
4
 74
0
 40
0
 40
0
 40
0
 40
0
 40
1
 40
1
 40
1
 40
1
 10
124.999572
 20
116.941690
 30
0.0
 10
129.141553
 20
116.941803
 30
0.0
 10
132.499260
 20
120.299514
 30
0.0
 10
132.499370
 20
124.441492
 30
0.0
  0
LINE
  5
2ec
100
AcDbEntity
  8
0
 62
7
100
AcDbLine
 10
132.499370
 20
124.441492
 30
0.0
 11
132.499370
 21
124.441492
 31
0.0
  0
SPLINE
  5
2ed
100
AcDbEntity
  8
0
 62
7
100
AcDbSpline
 70
8
 71
3
 72
8
 73
4
 74
0
 40
0
 40
0
 40
0
 40
0
 40
1
 40
1
 40
1
 40
1
 10
127.499672
 20
124.441492
 30
0.0
 10
127.499732
 20
123.060698
 30
0.0
 10
126.380365
 20
121.941331
 30
0.0
 10
124.999572
 20
121.941384
 30
0.0
  0
SPLINE
  5
2ee
100
AcDbEntity
  8
0
 62
7
100
AcDbSpline
 70
8
 71
3
 72
8
 73
4
 74
0
 40
0
 40
0
 40
0
 40
0
 40
1
 40
1
 40
1
 40
1
 10
124.999572
 20
121.941384
 30
0.0
 10
123.618778
 20
121.941331
 30
0.0
 10
122.499411
 20
123.060698
 30
0.0
 10
122.499471
 20
124.441492
 30
0.0
  0
SPLINE
  5
2ef
100
AcDbEntity
  8
0
 62
7
100
AcDbSpline
 70
8
 71
3
 72
8
 73
4
 74
0
 40
0
 40
0
 40
0
 40
0
 40
1
 40
1
 40
1
 40
1
 10
122.499471
 20
124.441492
 30
0.0
 10
122.499414
 20
125.822285
 30
0.0
 10
123.618782
 20
126.941652
 30
0.0
 10
124.999572
 20
126.941596
 30
0.0
  0
SPLINE
  5
2f0
100
AcDbEntity
  8
0
 62
7
100
AcDbSpline
 70
8
 71
3
 72
8
 73
4
 74
0
 40
0
 40
0
 40
0
 40
0
 40
1
 40
1
 40
1
 40
1
 10
124.999572
 20
126.941596
 30
0.0
 10
126.380365
 20
126.941652
 30
0.0
 10
127.499732
 20
125.822285
 30
0.0
 10
127.499672
 20
124.441492
 30
0.0
  0
LINE
  5
2f1
100
AcDbEntity
  8
0
 62
7
100
AcDbLine
 10
127.499672
 20
124.441492
 30
0.0
 11
127.499672
 21
124.441492
 31
0.0
  0
SPLINE
  5
2f2
100
AcDbEntity
  8
0
 62
7
100
AcDbSpline
 70
8
 71
3
 72
8
 73
4
 74
0
 40
0
 40
0
 40
0
 40
0
 40
1
 40
1
 40
1
 40
1
 10
127.499672
 20
54.441612
 30
0.0
 10
127.499729
 20
53.060804
 30
0.0
 10
126.380361
 20
51.941440
 30
0.0
 10
124.999572
 20
51.941511
 30
0.0
  0
SPLINE
  5
2f3
100
AcDbEntity
  8
0
 62
7
100
AcDbSpline
 70
8
 71
3
 72
8
 73
4
 74
0
 40
0
 40
0
 40
0
 40
0
 40
1
 40
1
 40
1
 40
1
 10
124.999572
 20
51.941511
 30
0.0
 10
123.618782
 20
51.941440
 30
0.0
 10
122.499414
 20
53.060804
 30
0.0
 10
122.499471
 20
54.441612
 30
0.0
  0
SPLINE
  5
2f4
100
AcDbEntity
  8
0
 62
7
100
AcDbSpline
 70
8
 71
3
 72
8
 73
4
 74
0
 40
0
 40
0
 40
0
 40
0
 40
1
 40
1
 40
1
 40
1
 10
122.499471
 20
54.441612
 30
0.0
 10
122.499414
 20
55.822384
 30
0.0
 10
123.618782
 20
56.941748
 30
0.0
 10
124.999572
 20
56.941712
 30
0.0
  0
SPLINE
  5
2f5
100
AcDbEntity
  8
0
 62
7
100
AcDbSpline
 70
8
 71
3
 72
8
 73
4
 74
0
 40
0
 40
0
 40
0
 40
0
 40
1
 40
1
 40
1
 40
1
 10
124.999572
 20
56.941712
 30
0.0
 10
126.380361
 20
56.941748
 30
0.0
 10
127.499729
 20
55.822384
 30
0.0
 10
127.499672
 20
54.441612
 30
0.0
  0
LINE
  5
2f6
100
AcDbEntity
  8
0
 62
7
100
AcDbLine
 10
127.499672
 20
54.441612
 30
0.0
 11
127.499672
 21
54.441612
 31
0.0
  0
LINE
  5
2f7
100
AcDbEntity
  8
0
 62
7
100
AcDbLine
 10
109.999761
 20
153.941665
 30
0.0
 11
110.000001
 21
128.941349
 31
0.0
  0
LINE
  5
2f8
100
AcDbEntity
  8
0
 62
7
100
AcDbLine
 10
110.000001
 20
128.941349
 30
0.0
 11
106.000002
 21
128.941641
 31
0.0
  0
LINE
  5
2f9
100
AcDbEntity
  8
0
 62
7
100
AcDbLine
 10
106.000002
 20
128.941641
 30
0.0
 11
106.000002
 21
153.941665
 31
0.0
  0
LINE
  5
2fa
100
AcDbEntity
  8
0
 62
7
100
AcDbLine
 10
106.000002
 20
153.941665
 30
0.0
 11
109.999761
 21
153.941665
 31
0.0
  0
LINE
  5
2fb
100
AcDbEntity
  8
0
 62
7
100
AcDbLine
 10
110.000001
 20
48.941348
 30
0.0
 11
109.999761
 21
23.941327
 31
0.0
  0
LINE
  5
2fc
100
AcDbEntity
  8
0
 62
7
100
AcDbLine
 10
109.999761
 20
23.941327
 30
0.0
 11
106.000002
 21
23.941327
 31
0.0
  0
LINE
  5
2fd
100
AcDbEntity
  8
0
 62
7
100
AcDbLine
 10
106.000002
 20
23.941327
 30
0.0
 11
106.000002
 21
48.941348
 31
0.0
  0
LINE
  5
2fe
100
AcDbEntity
  8
0
 62
7
100
AcDbLine
 10
106.000002
 20
48.941348
 30
0.0
 11
110.000001
 21
48.941348
 31
0.0
  0
LINE
  5
2ff
100
AcDbEntity
  8
0
 62
7
100
AcDbLine
 10
95.999570
 20
153.941665
 30
0.0
 11
95.999570
 21
149.941391
 31
0.0
  0
LINE
  5
300
100
AcDbEntity
  8
0
 62
7
100
AcDbLine
 10
95.999570
 20
149.941391
 30
0.0
 11
80.999971
 21
149.941391
 31
0.0
  0
LINE
  5
301
100
AcDbEntity
  8
0
 62
7
100
AcDbLine
 10
80.999971
 20
149.941391
 30
0.0
 11
80.999971
 21
153.941665
 31
0.0
  0
LINE
  5
302
100
AcDbEntity
  8
0
 62
7
100
AcDbLine
 10
80.999971
 20
153.941665
 30
0.0
 11
95.999570
 21
153.941665
 31
0.0
  0
LINE
  5
303
100
AcDbEntity
  8
0
 62
7
100
AcDbLine
 10
95.999570
 20
27.941580
 30
0.0
 11
95.999570
 21
23.941327
 31
0.0
  0
LINE
  5
304
100
AcDbEntity
  8
0
 62
7
100
AcDbLine
 10
95.999570
 20
23.941327
 30
0.0
 11
80.999971
 21
23.941327
 31
0.0
  0
LINE
  5
305
100
AcDbEntity
  8
0
 62
7
100
AcDbLine
 10
80.999971
 20
23.941327
 30
0.0
 11
80.999971
 21
27.941580
 31
0.0
  0
LINE
  5
306
100
AcDbEntity
  8
0
 62
7
100
AcDbLine
 10
80.999971
 20
27.941580
 30
0.0
 11
95.999570
 21
27.941580
 31
0.0
  0
SPLINE
  5
307
100
AcDbEntity
  8
0
 62
7
100
AcDbSpline
 70
8
 71
3
 72
8
 73
4
 74
0
 40
0
 40
0
 40
0
 40
0
 40
1
 40
1
 40
1
 40
1
 10
45.246318
 20
149.904914
 30
0.0
 10
45.246106
 20
149.767119
 30
0.0
 10
45.134476
 20
149.655528
 30
0.0
 10
44.996734
 20
149.655316
 30
0.0
  0
SPLINE
  5
308
100
AcDbEntity
  8
0
 62
7
100
AcDbSpline
 70
8
 71
3
 72
8
 73
4
 74
0
 40
0
 40
0
 40
0
 40
0
 40
1
 40
1
 40
1
 40
1
 10
44.996734
 20
149.655316
 30
0.0
 10
44.858728
 20
149.655246
 30
0.0
 10
44.746784
 20
149.766942
 30
0.0
 10
44.746625
 20
149.904914
 30
0.0
  0
LINE
  5
309
100
AcDbEntity
  8
0
 62
7
100
AcDbLine
 10
44.746625
 20
149.904914
 30
0.0
 11
35.252639
 21
149.904914
 31
0.0
  0
SPLINE
  5
30a
100
AcDbEntity
  8
0
 62
7
100
AcDbSpline
 70
8
 71
3
 72
8
 73
4
 74
0
 40
0
 40
0
 40
0
 40
0
 40
1
 40
1
 40
1
 40
1
 10
35.252639
 20
149.904914
 30
0.0
 10
35.252427
 20
149.766942
 30
0.0
 10
35.140480
 20
149.655246
 30
0.0
 10
35.002502
 20
149.655316
 30
0.0
  0
SPLINE
  5
30b
100
AcDbEntity
  8
0
 62
7
100
AcDbSpline
 70
8
 71
3
 72
8
 73
4
 74
0
 40
0
 40
0
 40
0
 40
0
 40
1
 40
1
 40
1
 40
1
 10
35.002502
 20
149.655316
 30
0.0
 10
34.864548
 20
149.655246
 30
0.0
 10
34.752601
 20
149.766942
 30
0.0
 10
34.752390
 20
149.904914
 30
0.0
  0
SPLINE
  5
30c
100
AcDbEntity
  8
0
 62
7
100
AcDbSpline
 70
8
 71
3
 72
8
 73
4
 74
0
 40
0
 40
0
 40
0
 40
0
 40
1
 40
1
 40
1
 40
1
 10
34.752390
 20
149.904914
 30
0.0
 10
34.752337
 20
150.043061
 30
0.0
 10
34.864361
 20
150.155061
 30
0.0
 10
35.002502
 20
150.155026
 30
0.0
  0
LINE
  5
30d
100
AcDbEntity
  8
0
 62
7
100
AcDbLine
 10
35.002502
 20
150.155026
 30
0.0
 11
35.002502
 21
153.655072
 31
0.0
  0
SPLINE
  5
30e
100
AcDbEntity
  8
0
 62
7
100
AcDbSpline
 70
8
 71
3
 72
8
 73
4
 74
0
 40
0
 40
0
 40
0
 40
0
 40
1
 40
1
 40
1
 40
1
 10
35.002502
 20
153.655072
 30
0.0
 10
34.864361
 20
153.655001
 30
0.0
 10
34.752337
 20
153.767001
 30
0.0
 10
34.752390
 20
153.905184
 30
0.0
  0
SPLINE
  5
30f
100
AcDbEntity
  8
0
 62
7
100
AcDbSpline
 70
8
 71
3
 72
8
 73
4
 74
0
 40
0
 40
0
 40
0
 40
0
 40
1
 40
1
 40
1
 40
1
 10
34.752390
 20
153.905184
 30
0.0
 10
34.752337
 20
154.043332
 30
0.0
 10
34.864361
 20
154.155335
 30
0.0
 10
35.002502
 20
154.155300
 30
0.0
  0
SPLINE
  5
310
100
AcDbEntity
  8
0
 62
7
100
AcDbSpline
 70
8
 71
3
 72
8
 73
4
 74
0
 40
0
 40
0
 40
0
 40
0
 40
1
 40
1
 40
1
 40
1
 10
35.002502
 20
154.155300
 30
0.0
 10
35.140667
 20
154.155335
 30
0.0
 10
35.252692
 20
154.043332
 30
0.0
 10
35.252639
 20
153.905184
 30
0.0
  0
LINE
  5
311
100
AcDbEntity
  8
0
 62
7
100
AcDbLine
 10
35.252639
 20
153.905184
 30
0.0
 11
44.678416
 21
153.905184
 31
0.0
  0
SPLINE
  5
312
100
AcDbEntity
  8
0
 62
7
100
AcDbSpline
 70
8
 71
3
 72
8
 73
4
 74
0
 40
0
 40
0
 40
0
 40
0
 40
1
 40
1
 40
1
 40
1
 10
44.678416
 20
153.905184
 30
0.0
 10
44.694961
 20
154.029080
 30
0.0
 10
44.800865
 20
154.121568
 30
0.0
 10
44.925932
 20
154.121709
 30
0.0
  0
SPLINE
  5
313
100
AcDbEntity
  8
0
 62
7
100
AcDbSpline
 70
8
 71
3
 72
8
 73
4
 74
0
 40
0
 40
0
 40
0
 40
0
 40
1
 40
1
 40
1
 40
1
 10
44.925932
 20
154.121709
 30
0.0
 10
45.063861
 20
154.121709
 30
0.0
 10
45.175804
 20
154.010083
 30
0.0
 10
45.176044
 20
153.872111
 30
0.0
  0
SPLINE
  5
314
100
AcDbEntity
  8
0
 62
7
100
AcDbSpline
 70
8
 71
3
 72
8
 73
4
 74
0
 40
0
 40
0
 40
0
 40
0
 40
1
 40
1
 40
1
 40
1
 10
45.176044
 20
153.872111
 30
0.0
 10
45.176256
 20
153.761057
 30
0.0
 10
45.103231
 20
153.663214
 30
0.0
 10
44.996734
 20
153.631817
 30
0.0
  0
LINE
  5
315
100
AcDbEntity
  8
0
 62
7
100
AcDbLine
 10
44.996734
 20
153.631817
 30
0.0
 11
44.996734
 21
150.155026
 31
0.0
  0
SPLINE
  5
316
100
AcDbEntity
  8
0
 62
7
100
AcDbSpline
 70
8
 71
3
 72
8
 73
4
 74
0
 40
0
 40
0
 40
0
 40
0
 40
1
 40
1
 40
1
 40
1
 10
44.996734
 20
150.155026
 30
0.0
 10
45.134663
 20
150.154779
 30
0.0
 10
45.246370
 20
150.042850
 30
0.0
 10
45.246318
 20
149.904914
 30
0.0
  0
LINE
  5
317
100
AcDbEntity
  8
0
 62
7
100
AcDbLine
 10
45.246318
 20
149.904914
 30
0.0
 11
45.246318
 21
149.904914
 31
0.0
  0
SPLINE
  5
318
100
AcDbEntity
  8
0
 62
7
100
AcDbSpline
 70
8
 71
3
 72
8
 73
4
 74
0
 40
0
 40
0
 40
0
 40
0
 40
1
 40
1
 40
1
 40
1
 10
45.246385
 20
27.978305
 30
0.0
 10
45.246437
 20
27.840368
 30
0.0
 10
45.134730
 20
27.728432
 30
0.0
 10
44.996801
 20
27.728185
 30
0.0
  0
LINE
  5
319
100
AcDbEntity
  8
0
 62
7
100
AcDbLine
 10
44.996801
 20
27.728185
 30
0.0
 11
44.996801
 21
24.251419
 31
0.0
  0
SPLINE
  5
31a
100
AcDbEntity
  8
0
 62
7
100
AcDbSpline
 70
8
 71
3
 72
8
 73
4
 74
0
 40
0
 40
0
 40
0
 40
0
 40
1
 40
1
 40
1
 40
1
 10
44.996801
 20
24.251419
 30
0.0
 10
45.103298
 20
24.220022
 30
0.0
 10
45.176323
 20
24.122161
 30
0.0
 10
45.176111
 20
24.011107
 30
0.0
  0
SPLINE
  5
31b
100
AcDbEntity
  8
0
 62
7
100
AcDbSpline
 70
8
 71
3
 72
8
 73
4
 74
0
 40
0
 40
0
 40
0
 40
0
 40
1
 40
1
 40
1
 40
1
 10
45.176111
 20
24.011107
 30
0.0
 10
45.175871
 20
23.873171
 30
0.0
 10
45.063928
 20
23.761481
 30
0.0
 10
44.925999
 20
23.761517
 30
0.0
  0
SPLINE
  5
31c
100
AcDbEntity
  8
0
 62
7
100
AcDbSpline
 70
8
 71
3
 72
8
 73
4
 74
0
 40
0
 40
0
 40
0
 40
0
 40
1
 40
1
 40
1
 40
1
 10
44.925999
 20
23.761517
 30
0.0
 10
44.800932
 20
23.761658
 30
0.0
 10
44.695205
 20
23.854156
 30
0.0
 10
44.678483
 20
23.978052
 30
0.0
  0
LINE
  5
31d
100
AcDbEntity
  8
0
 62
7
100
AcDbLine
 10
44.678483
 20
23.978052
 30
0.0
 11
35.252706
 21
23.978052
 31
0.0
  0
SPLINE
  5
31e
100
AcDbEntity
  8
0
 62
7
100
AcDbSpline
 70
8
 71
3
 72
8
 73
4
 74
0
 40
0
 40
0
 40
0
 40
0
 40
1
 40
1
 40
1
 40
1
 10
35.252706
 20
23.978052
 30
0.0
 10
35.252759
 20
23.839868
 30
0.0
 10
35.140734
 20
23.727897
 30
0.0
 10
35.002569
 20
23.727932
 30
0.0
  0
SPLINE
  5
31f
100
AcDbEntity
  8
0
 62
7
100
AcDbSpline
 70
8
 71
3
 72
8
 73
4
 74
0
 40
0
 40
0
 40
0
 40
0
 40
1
 40
1
 40
1
 40
1
 10
35.002569
 20
23.727932
 30
0.0
 10
34.864428
 20
23.727897
 30
0.0
 10
34.752404
 20
23.839868
 30
0.0
 10
34.752457
 20
23.978052
 30
0.0
  0
SPLINE
  5
320
100
AcDbEntity
  8
0
 62
7
100
AcDbSpline
 70
8
 71
3
 72
8
 73
4
 74
0
 40
0
 40
0
 40
0
 40
0
 40
1
 40
1
 40
1
 40
1
 10
34.752457
 20
23.978052
 30
0.0
 10
34.752404
 20
24.116199
 30
0.0
 10
34.864428
 20
24.228206
 30
0.0
 10
35.002569
 20
24.228171
 30
0.0
  0
LINE
  5
321
100
AcDbEntity
  8
0
 62
7
100
AcDbLine
 10
35.002569
 20
24.228171
 30
0.0
 11
35.002569
 21
27.728185
 31
0.0
  0
SPLINE
  5
322
100
AcDbEntity
  8
0
 62
7
100
AcDbSpline
 70
8
 71
3
 72
8
 73
4
 74
0
 40
0
 40
0
 40
0
 40
0
 40
1
 40
1
 40
1
 40
1
 10
35.002569
 20
27.728185
 30
0.0
 10
34.864428
 20
27.728185
 30
0.0
 10
34.752404
 20
27.840157
 30
0.0
 10
34.752457
 20
27.978305
 30
0.0
  0
SPLINE
  5
323
100
AcDbEntity
  8
0
 62
7
100
AcDbSpline
 70
8
 71
3
 72
8
 73
4
 74
0
 40
0
 40
0
 40
0
 40
0
 40
1
 40
1
 40
1
 40
1
 10
34.752457
 20
27.978305
 30
0.0
 10
34.752668
 20
28.116276
 30
0.0
 10
34.864615
 20
28.227930
 30
0.0
 10
35.002569
 20
28.227895
 30
0.0
  0
SPLINE
  5
324
100
AcDbEntity
  8
0
 62
7
100
AcDbSpline
 70
8
 71
3
 72
8
 73
4
 74
0
 40
0
 40
0
 40
0
 40
0
 40
1
 40
1
 40
1
 40
1
 10
35.002569
 20
28.227895
 30
0.0
 10
35.140547
 20
28.227930
 30
0.0
 10
35.252494
 20
28.116276
 30
0.0
 10
35.252706
 20
27.978305
 30
0.0
  0
LINE
  5
325
100
AcDbEntity
  8
0
 62
7
100
AcDbLine
 10
35.252706
 20
27.978305
 30
0.0
 11
44.746692
 21
27.978305
 31
0.0
  0
SPLINE
  5
326
100
AcDbEntity
  8
0
 62
7
100
AcDbSpline
 70
8
 71
3
 72
8
 73
4
 74
0
 40
0
 40
0
 40
0
 40
0
 40
1
 40
1
 40
1
 40
1
 10
44.746692
 20
27.978305
 30
0.0
 10
44.746851
 20
28.116276
 30
0.0
 10
44.858795
 20
28.227930
 30
0.0
 10
44.996801
 20
28.227895
 30
0.0
  0
SPLINE
  5
327
100
AcDbEntity
  8
0
 62
7
100
AcDbSpline
 70
8
 71
3
 72
8
 73
4
 74
0
 40
0
 40
0
 40
0
 40
0
 40
1
 40
1
 40
1
 40
1
 10
44.996801
 20
28.227895
 30
0.0
 10
45.134543
 20
28.227683
 30
0.0
 10
45.246173
 20
28.116100
 30
0.0
 10
45.246385
 20
27.978305
 30
0.0
  0
LINE
  5
328
100
AcDbEntity
  8
0
 62
7
100
AcDbLine
 10
45.246385
 20
27.978305
 30
0.0
 11
45.246385
 21
27.978305
 31
0.0
  0
SPLINE
  5
329
100
AcDbEntity
  8
0
 62
7
100
AcDbSpline
 70
8
 71
3
 72
8
 73
4
 74
0
 40
0
 40
0
 40
0
 40
0
 40
1
 40
1
 40
1
 40
1
 10
9.249569
 20
123.935954
 30
0.0
 10
9.249622
 20
123.797947
 30
0.0
 10
9.137939
 20
123.686053
 30
0.0
 10
8.999961
 20
123.685842
 30
0.0
  0
LINE
  5
32a
100
AcDbEntity
  8
0
 62
7
100
AcDbLine
 10
8.999961
 20
123.685842
 30
0.0
 11
8.999961
 21
114.191847
 31
0.0
  0
SPLINE
  5
32b
100
AcDbEntity
  8
0
 62
7
100
AcDbSpline
 70
8
 71
3
 72
8
 73
4
 74
0
 40
0
 40
0
 40
0
 40
0
 40
1
 40
1
 40
1
 40
1
 10
8.999961
 20
114.191847
 30
0.0
 10
9.137939
 20
114.191636
 30
0.0
 10
9.249622
 20
114.079671
 30
0.0
 10
9.249569
 20
113.941735
 30
0.0
  0
SPLINE
  5
32c
100
AcDbEntity
  8
0
 62
7
100
AcDbSpline
 70
8
 71
3
 72
8
 73
4
 74
0
 40
0
 40
0
 40
0
 40
0
 40
1
 40
1
 40
1
 40
1
 10
9.249569
 20
113.941735
 30
0.0
 10
9.249622
 20
113.803728
 30
0.0
 10
9.137939
 20
113.691831
 30
0.0
 10
8.999961
 20
113.691619
 30
0.0
  0
SPLINE
  5
32d
100
AcDbEntity
  8
0
 62
7
100
AcDbSpline
 70
8
 71
3
 72
8
 73
4
 74
0
 40
0
 40
0
 40
0
 40
0
 40
1
 40
1
 40
1
 40
1
 10
8.999961
 20
113.691619
 30
0.0
 10
8.861820
 20
113.691549
 30
0.0
 10
8.749771
 20
113.803552
 30
0.0
 10
8.749848
 20
113.941735
 30
0.0
  0
LINE
  5
32e
100
AcDbEntity
  8
0
 62
7
100
AcDbLine
 10
8.749848
 20
113.941735
 30
0.0
 11
5.249810
 21
113.941735
 31
0.0
  0
SPLINE
  5
32f
100
AcDbEntity
  8
0
 62
7
100
AcDbSpline
 70
8
 71
3
 72
8
 73
4
 74
0
 40
0
 40
0
 40
0
 40
0
 40
1
 40
1
 40
1
 40
1
 10
5.249810
 20
113.941735
 30
0.0
 10
5.249862
 20
113.803552
 30
0.0
 10
5.137838
 20
113.691549
 30
0.0
 10
4.999697
 20
113.691619
 30
0.0
  0
SPLINE
  5
330
100
AcDbEntity
  8
0
 62
7
100
AcDbSpline
 70
8
 71
3
 72
8
 73
4
 74
0
 40
0
 40
0
 40
0
 40
0
 40
1
 40
1
 40
1
 40
1
 10
4.999697
 20
113.691619
 30
0.0
 10
4.861532
 20
113.691549
 30
0.0
 10
4.749507
 20
113.803552
 30
0.0
 10
4.749560
 20
113.941735
 30
0.0
  0
SPLINE
  5
331
100
AcDbEntity
  8
0
 62
7
100
AcDbSpline
 70
8
 71
3
 72
8
 73
4
 74
0
 40
0
 40
0
 40
0
 40
0
 40
1
 40
1
 40
1
 40
1
 10
4.749560
 20
113.941735
 30
0.0
 10
4.749507
 20
114.079848
 30
0.0
 10
4.861532
 20
114.191953
 30
0.0
 10
4.999697
 20
114.191847
 30
0.0
  0
LINE
  5
332
100
AcDbEntity
  8
0
 62
7
100
AcDbLine
 10
4.999697
 20
114.191847
 30
0.0
 11
4.999697
 21
123.617629
 31
0.0
  0
SPLINE
  5
333
100
AcDbEntity
  8
0
 62
7
100
AcDbSpline
 70
8
 71
3
 72
8
 73
4
 74
0
 40
0
 40
0
 40
0
 40
0
 40
1
 40
1
 40
1
 40
1
 10
4.999697
 20
123.617629
 30
0.0
 10
4.875766
 20
123.634209
 30
0.0
 10
4.783268
 20
123.740134
 30
0.0
 10
4.783162
 20
123.865159
 30
0.0
  0
SPLINE
  5
334
100
AcDbEntity
  8
0
 62
7
100
AcDbSpline
 70
8
 71
3
 72
8
 73
4
 74
0
 40
0
 40
0
 40
0
 40
0
 40
1
 40
1
 40
1
 40
1
 10
4.783162
 20
123.865159
 30
0.0
 10
4.783085
 20
124.003126
 30
0.0
 10
4.894792
 20
124.115024
 30
0.0
 10
5.032770
 20
124.115275
 30
0.0
  0
SPLINE
  5
335
100
AcDbEntity
  8
0
 62
7
100
AcDbSpline
 70
8
 71
3
 72
8
 73
4
 74
0
 40
0
 40
0
 40
0
 40
0
 40
1
 40
1
 40
1
 40
1
 10
5.032770
 20
124.115275
 30
0.0
 10
5.143817
 20
124.115486
 30
0.0
 10
5.241660
 20
124.042461
 30
0.0
 10
5.273065
 20
123.935954
 30
0.0
  0
LINE
  5
336
100
AcDbEntity
  8
0
 62
7
100
AcDbLine
 10
5.273065
 20
123.935954
 30
0.0
 11
8.749848
 21
123.935954
 31
0.0
  0
SPLINE
  5
337
100
AcDbEntity
  8
0
 62
7
100
AcDbSpline
 70
8
 71
3
 72
8
 73
4
 74
0
 40
0
 40
0
 40
0
 40
0
 40
1
 40
1
 40
1
 40
1
 10
8.749848
 20
123.935954
 30
0.0
 10
8.750060
 20
124.073894
 30
0.0
 10
8.861979
 20
124.185551
 30
0.0
 10
8.999961
 20
124.185551
 30
0.0
  0
SPLINE
  5
338
100
AcDbEntity
  8
0
 62
7
100
AcDbSpline
 70
8
 71
3
 72
8
 73
4
 74
0
 40
0
 40
0
 40
0
 40
0
 40
1
 40
1
 40
1
 40
1
 10
8.999961
 20
124.185551
 30
0.0
 10
9.137727
 20
124.185340
 30
0.0
 10
9.249357
 20
124.073714
 30
0.0
 10
9.249569
 20
123.935954
 30
0.0
  0
LINE
  5
339
100
AcDbEntity
  8
0
 62
7
100
AcDbLine
 10
9.249569
 20
123.935954
 30
0.0
 11
9.249569
 21
123.935954
 31
0.0
  0
SPLINE
  5
33a
100
AcDbEntity
  8
0
 62
7
100
AcDbSpline
 70
8
 71
3
 72
8
 73
4
 74
0
 40
0
 40
0
 40
0
 40
0
 40
1
 40
1
 40
1
 40
1
 10
9.249569
 20
63.941564
 30
0.0
 10
9.249622
 20
63.803593
 30
0.0
 10
9.137939
 20
63.691656
 30
0.0
 10
8.999961
 20
63.691445
 30
0.0
  0
LINE
  5
33b
100
AcDbEntity
  8
0
 62
7
100
AcDbLine
 10
8.999961
 20
63.691445
 30
0.0
 11
8.999961
 21
54.197454
 31
0.0
  0
SPLINE
  5
33c
100
AcDbEntity
  8
0
 62
7
100
AcDbSpline
 70
8
 71
3
 72
8
 73
4
 74
0
 40
0
 40
0
 40
0
 40
0
 40
1
 40
1
 40
1
 40
1
 10
8.999961
 20
54.197454
 30
0.0
 10
9.137939
 20
54.197278
 30
0.0
 10
9.249622
 20
54.085341
 30
0.0
 10
9.249569
 20
53.947335
 30
0.0
  0
SPLINE
  5
33d
100
AcDbEntity
  8
0
 62
7
100
AcDbSpline
 70
8
 71
3
 72
8
 73
4
 74
0
 40
0
 40
0
 40
0
 40
0
 40
1
 40
1
 40
1
 40
1
 10
9.249569
 20
53.947335
 30
0.0
 10
9.249357
 20
53.809575
 30
0.0
 10
9.137727
 20
53.697956
 30
0.0
 10
8.999961
 20
53.697744
 30
0.0
  0
SPLINE
  5
33e
100
AcDbEntity
  8
0
 62
7
100
AcDbSpline
 70
8
 71
3
 72
8
 73
4
 74
0
 40
0
 40
0
 40
0
 40
0
 40
1
 40
1
 40
1
 40
1
 10
8.999961
 20
53.697744
 30
0.0
 10
8.861979
 20
53.697709
 30
0.0
 10
8.750060
 20
53.809399
 30
0.0
 10
8.749848
 20
53.947335
 30
0.0
  0
LINE
  5
33f
100
AcDbEntity
  8
0
 62
7
100
AcDbLine
 10
8.749848
 20
53.947335
 30
0.0
 11
5.273065
 21
53.947335
 31
0.0
  0
SPLINE
  5
340
100
AcDbEntity
  8
0
 62
7
100
AcDbSpline
 70
8
 71
3
 72
8
 73
4
 74
0
 40
0
 40
0
 40
0
 40
0
 40
1
 40
1
 40
1
 40
1
 10
5.273065
 20
53.947335
 30
0.0
 10
5.241667
 20
53.840831
 30
0.0
 10
5.143817
 20
53.767806
 30
0.0
 10
5.032770
 20
53.768018
 30
0.0
  0
SPLINE
  5
341
100
AcDbEntity
  8
0
 62
7
100
AcDbSpline
 70
8
 71
3
 72
8
 73
4
 74
0
 40
0
 40
0
 40
0
 40
0
 40
1
 40
1
 40
1
 40
1
 10
5.032770
 20
53.768018
 30
0.0
 10
4.894792
 20
53.768265
 30
0.0
 10
4.783085
 20
53.880201
 30
0.0
 10
4.783162
 20
54.018137
 30
0.0
  0
SPLINE
  5
342
100
AcDbEntity
  8
0
 62
7
100
AcDbSpline
 70
8
 71
3
 72
8
 73
4
 74
0
 40
0
 40
0
 40
0
 40
0
 40
1
 40
1
 40
1
 40
1
 10
4.783162
 20
54.018137
 30
0.0
 10
4.783268
 20
54.143197
 30
0.0
 10
4.875766
 20
54.248960
 30
0.0
 10
4.999697
 20
54.265681
 30
0.0
  0
LINE
  5
343
100
AcDbEntity
  8
0
 62
7
100
AcDbLine
 10
4.999697
 20
54.265681
 30
0.0
 11
4.999697
 21
63.691445
 31
0.0
  0
SPLINE
  5
344
100
AcDbEntity
  8
0
 62
7
100
AcDbSpline
 70
8
 71
3
 72
8
 73
4
 74
0
 40
0
 40
0
 40
0
 40
0
 40
1
 40
1
 40
1
 40
1
 10
4.999697
 20
63.691445
 30
0.0
 10
4.861532
 20
63.691374
 30
0.0
 10
4.749507
 20
63.803416
 30
0.0
 10
4.749560
 20
63.941564
 30
0.0
  0
SPLINE
  5
345
100
AcDbEntity
  8
0
 62
7
100
AcDbSpline
 70
8
 71
3
 72
8
 73
4
 74
0
 40
0
 40
0
 40
0
 40
0
 40
1
 40
1
 40
1
 40
1
 10
4.749560
 20
63.941564
 30
0.0
 10
4.749507
 20
64.079712
 30
0.0
 10
4.861532
 20
64.191790
 30
0.0
 10
4.999697
 20
64.191684
 30
0.0
  0
SPLINE
  5
346
100
AcDbEntity
  8
0
 62
7
100
AcDbSpline
 70
8
 71
3
 72
8
 73
4
 74
0
 40
0
 40
0
 40
0
 40
0
 40
1
 40
1
 40
1
 40
1
 10
4.999697
 20
64.191684
 30
0.0
 10
5.137838
 20
64.191790
 30
0.0
 10
5.249862
 20
64.079712
 30
0.0
 10
5.249810
 20
63.941564
 30
0.0
  0
LINE
  5
347
100
AcDbEntity
  8
0
 62
7
100
AcDbLine
 10
5.249810
 20
63.941564
 30
0.0
 11
8.749848
 21
63.941564
 31
0.0
  0
SPLINE
  5
348
100
AcDbEntity
  8
0
 62
7
100
AcDbSpline
 70
8
 71
3
 72
8
 73
4
 74
0
 40
0
 40
0
 40
0
 40
0
 40
1
 40
1
 40
1
 40
1
 10
8.749848
 20
63.941564
 30
0.0
 10
8.749771
 20
64.079712
 30
0.0
 10
8.861820
 20
64.191790
 30
0.0
 10
8.999961
 20
64.191684
 30
0.0
  0
SPLINE
  5
349
100
AcDbEntity
  8
0
 62
7
100
AcDbSpline
 70
8
 71
3
 72
8
 73
4
 74
0
 40
0
 40
0
 40
0
 40
0
 40
1
 40
1
 40
1
 40
1
 10
8.999961
 20
64.191684
 30
0.0
 10
9.137939
 20
64.191472
 30
0.0
 10
9.249622
 20
64.079536
 30
0.0
 10
9.249569
 20
63.941564
 30
0.0
  0
LINE
  5
34a
100
AcDbEntity
  8
0
 62
7
100
AcDbLine
 10
9.249569
 20
63.941564
 30
0.0
 11
9.249569
 21
63.941564
 31
0.0
  0
LINE
  5
34b
100
AcDbEntity
  8
0
 62
7
100
AcDbLine
 10
74.999572
 20
114.941333
 30
0.0
 11
104.999592
 21
114.941333
 31
0.0
  0
SPLINE
  5
34c
100
AcDbEntity
  8
0
 62
7
100
AcDbSpline
 70
8
 71
3
 72
8
 73
4
 74
0
 40
0
 40
0
 40
0
 40
0
 40
1
 40
1
 40
1
 40
1
 10
104.999592
 20
114.941333
 30
0.0
 10
107.769589
 20
114.941333
 30
0.0
 10
109.999586
 20
112.711337
 30
0.0
 10
109.999586
 20
109.941343
 30
0.0
  0
LINE
  5
34d
100
AcDbEntity
  8
0
 62
7
100
AcDbLine
 10
109.999586
 20
109.941343
 30
0.0
 11
109.999586
 21
69.941325
 31
0.0
  0
SPLINE
  5
34e
100
AcDbEntity
  8
0
 62
7
100
AcDbSpline
 70
8
 71
3
 72
8
 73
4
 74
0
 40
0
 40
0
 40
0
 40
0
 40
1
 40
1
 40
1
 40
1
 10
109.999586
 20
69.941325
 30
0.0
 10
109.999586
 20
67.171332
 30
0.0
 10
107.769589
 20
64.941335
 30
0.0
 10
104.999592
 20
64.941335
 30
0.0
  0
LINE
  5
34f
100
AcDbEntity
  8
0
 62
7
100
AcDbLine
 10
104.999592
 20
64.941335
 30
0.0
 11
74.999572
 21
64.941335
 31
0.0
  0
SPLINE
  5
350
100
AcDbEntity
  8
0
 62
7
100
AcDbSpline
 70
8
 71
3
 72
8
 73
4
 74
0
 40
0
 40
0
 40
0
 40
0
 40
1
 40
1
 40
1
 40
1
 10
74.999572
 20
64.941335
 30
0.0
 10
72.229578
 20
64.941335
 30
0.0
 10
69.999582
 20
67.171332
 30
0.0
 10
69.999582
 20
69.941325
 30
0.0
  0
LINE
  5
351
100
AcDbEntity
  8
0
 62
7
100
AcDbLine
 10
69.999582
 20
69.941325
 30
0.0
 11
69.999582
 21
109.941343
 31
0.0
  0
SPLINE
  5
352
100
AcDbEntity
  8
0
 62
7
100
AcDbSpline
 70
8
 71
3
 72
8
 73
4
 74
0
 40
0
 40
0
 40
0
 40
0
 40
1
 40
1
 40
1
 40
1
 10
69.999582
 20
109.941343
 30
0.0
 10
69.999582
 20
112.711337
 30
0.0
 10
72.229578
 20
114.941333
 30
0.0
 10
74.999572
 20
114.941333
 30
0.0
  0
LINE
  5
353
100
AcDbEntity
  8
0
 62
7
100
AcDbLine
 10
74.999572
 20
114.941333
 30
0.0
 11
74.999572
 21
114.941333
 31
0.0
  0
LINE
  5
354
100
AcDbEntity
  8
0
 62
7
100
AcDbLine
 10
75.882927
 20
87.115870
 30
0.0
 11
71.882724
 21
87.115905
 31
0.0
  0
LINE
  5
355
100
AcDbEntity
  8
0
 62
7
100
AcDbLine
 10
71.882724
 20
87.115905
 30
0.0
 11
71.882964
 21
99.115924
 31
0.0
  0
LINE
  5
356
100
AcDbEntity
  8
0
 62
7
100
AcDbLine
 10
71.882964
 20
99.115924
 30
0.0
 11
86.883103
 21
99.115924
 31
0.0
  0
SPLINE
  5
357
100
AcDbEntity
  8
0
 62
7
100
AcDbSpline
 70
8
 71
3
 72
8
 73
4
 74
0
 40
0
 40
0
 40
0
 40
0
 40
1
 40
1
 40
1
 40
1
 10
86.883103
 20
99.115924
 30
0.0
 10
91.883089
 20
99.115924
 30
0.0
 10
91.883089
 20
94.116216
 30
0.0
 10
86.883103
 20
94.116216
 30
0.0
  0
LINE
  5
358
100
AcDbEntity
  8
0
 62
7
100
AcDbLine
 10
86.883103
 20
94.116216
 30
0.0
 11
81.882866
 21
94.116216
 31
0.0
  0
LINE
  5
359
100
AcDbEntity
  8
0
 62
7
100
AcDbLine
 10
81.882866
 20
94.116216
 30
0.0
 11
81.882866
 21
79.116317
 31
0.0
  0
LINE
  5
35a
100
AcDbEntity
  8
0
 62
7
100
AcDbLine
 10
81.882866
 20
79.116317
 30
0.0
 11
91.882966
 21
79.116317
 31
0.0
  0
SPLINE
  5
35b
100
AcDbEntity
  8
0
 62
7
100
AcDbSpline
 70
8
 71
3
 72
8
 73
4
 74
0
 40
0
 40
0
 40
0
 40
0
 40
1
 40
1
 40
1
 40
1
 10
91.882966
 20
79.116317
 30
0.0
 10
96.882966
 20
79.116317
 30
0.0
 10
96.882966
 20
74.116327
 30
0.0
 10
96.882966
 20
69.116337
 30
0.0
  0
LINE
  5
35c
100
AcDbEntity
  8
0
 62
7
100
AcDbLine
 10
96.882966
 20
69.116337
 30
0.0
 11
91.883304
 21
69.116337
 31
0.0
  0
LINE
  5
35d
100
AcDbEntity
  8
0
 62
7
100
AcDbLine
 10
91.883304
 20
69.116337
 30
0.0
 11
91.883558
 21
66.116597
 31
0.0
  0
LINE
  5
35e
100
AcDbEntity
  8
0
 62
7
100
AcDbLine
 10
91.883558
 20
66.116597
 30
0.0
 11
81.883120
 21
66.116597
 31
0.0
  0
LINE
  5
35f
100
AcDbEntity
  8
0
 62
7
100
AcDbLine
 10
81.883120
 20
66.116597
 30
0.0
 11
81.882866
 21
69.116337
 31
0.0
  0
LINE
  5
360
100
AcDbEntity
  8
0
 62
7
100
AcDbLine
 10
81.882866
 20
69.116337
 30
0.0
 11
71.882964
 21
69.116337
 31
0.0
  0
LINE
  5
361
100
AcDbEntity
  8
0
 62
7
100
AcDbLine
 10
71.882964
 20
69.116337
 30
0.0
 11
71.882964
 21
76.116365
 31
0.0
  0
LINE
  5
362
100
AcDbEntity
  8
0
 62
7
100
AcDbLine
 10
71.882964
 20
76.116365
 30
0.0
 11
75.882927
 21
76.116330
 31
0.0
  0
LINE
  5
363
100
AcDbEntity
  8
0
 62
7
100
AcDbLine
 10
75.882927
 20
76.116330
 30
0.0
 11
75.882927
 21
87.115870
 31
0.0
  0
LINE
  5
364
100
AcDbEntity
  8
0
 62
7
100
AcDbLine
 10
104.412023
 20
100.586704
 30
0.0
 11
108.412227
 21
100.586739
 31
0.0
  0
LINE
  5
365
100
AcDbEntity
  8
0
 62
7
100
AcDbLine
 10
108.412227
 20
100.586739
 30
0.0
 11
108.411987
 21
112.586757
 31
0.0
  0
LINE
  5
366
100
AcDbEntity
  8
0
 62
7
100
AcDbLine
 10
108.411987
 20
112.586757
 30
0.0
 11
93.411848
 21
112.586757
 31
0.0
  0
SPLINE
  5
367
100
AcDbEntity
  8
0
 62
7
100
AcDbSpline
 70
8
 71
3
 72
8
 73
4
 74
0
 40
0
 40
0
 40
0
 40
0
 40
1
 40
1
 40
1
 40
1
 10
93.411848
 20
112.586757
 30
0.0
 10
88.411862
 20
112.586757
 30
0.0
 10
88.411862
 20
107.587049
 30
0.0
 10
93.411848
 20
107.587049
 30
0.0
  0
LINE
  5
368
100
AcDbEntity
  8
0
 62
7
100
AcDbLine
 10
93.411848
 20
107.587049
 30
0.0
 11
98.412085
 21
107.587049
 31
0.0
  0
LINE
  5
369
100
AcDbEntity
  8
0
 62
7
100
AcDbLine
 10
98.412085
 20
107.587049
 30
0.0
 11
98.412085
 21
92.587150
 31
0.0
  0
LINE
  5
36a
100
AcDbEntity
  8
0
 62
7
100
AcDbLine
 10
98.412085
 20
92.587150
 30
0.0
 11
88.411985
 21
92.587150
 31
0.0
  0
SPLINE
  5
36b
100
AcDbEntity
  8
0
 62
7
100
AcDbSpline
 70
8
 71
3
 72
8
 73
4
 74
0
 40
0
 40
0
 40
0
 40
0
 40
1
 40
1
 40
1
 40
1
 10
88.411985
 20
92.587150
 30
0.0
 10
83.411985
 20
92.587150
 30
0.0
 10
83.411985
 20
87.587160
 30
0.0
 10
83.411985
 20
82.587170
 30
0.0
  0
LINE
  5
36c
100
AcDbEntity
  8
0
 62
7
100
AcDbLine
 10
83.411985
 20
82.587170
 30
0.0
 11
88.411646
 21
82.587170
 31
0.0
  0
LINE
  5
36d
100
AcDbEntity
  8
0
 62
7
100
AcDbLine
 10
88.411646
 20
82.587170
 30
0.0
 11
88.411392
 21
79.587430
 31
0.0
  0
LINE
  5
36e
100
AcDbEntity
  8
0
 62
7
100
AcDbLine
 10
88.411392
 20
79.587430
 30
0.0
 11
98.411831
 21
79.587430
 31
0.0
  0
LINE
  5
36f
100
AcDbEntity
  8
0
 62
7
100
AcDbLine
 10
98.411831
 20
79.587430
 30
0.0
 11
98.412085
 21
82.587170
 31
0.0
  0
LINE
  5
370
100
AcDbEntity
  8
0
 62
7
100
AcDbLine
 10
98.412085
 20
82.587170
 30
0.0
 11
108.411987
 21
82.587170
 31
0.0
  0
LINE
  5
371
100
AcDbEntity
  8
0
 62
7
100
AcDbLine
 10
108.411987
 20
82.587170
 30
0.0
 11
108.411987
 21
89.587198
 31
0.0
  0
LINE
  5
372
100
AcDbEntity
  8
0
 62
7
100
AcDbLine
 10
108.411987
 20
89.587198
 30
0.0
 11
104.412023
 21
89.587163
 31
0.0
  0
LINE
  5
373
100
AcDbEntity
  8
0
 62
7
100
AcDbLine
 10
104.412023
 20
89.587163
 30
0.0
 11
104.412023
 21
100.586704
 31
0.0
  0
SPLINE
  5
374
100
AcDbEntity
  8
0
 62
7
100
AcDbSpline
 70
8
 71
3
 72
8
 73
4
 74
0
 40
0
 40
0
 40
0
 40
0
 40
1
 40
1
 40
1
 40
1
 10
6.500000
 20
88.941651
 30
0.0
 10
6.500000
 20
88.405753
 30
0.0
 10
6.214102
 20
87.910562
 30
0.0
 10
5.750000
 20
87.642613
 30
0.0
  0
SPLINE
  5
375
100
AcDbEntity
  8
0
 62
7
100
AcDbSpline
 70
8
 71
3
 72
8
 73
4
 74
0
 40
0
 40
0
 40
0
 40
0
 40
1
 40
1
 40
1
 40
1
 10
5.750000
 20
87.642613
 30
0.0
 10
5.285899
 20
87.374664
 30
0.0
 10
4.714102
 20
87.374664
 30
0.0
 10
4.250000
 20
87.642613
 30
0.0
  0
SPLINE
  5
376
100
AcDbEntity
  8
0
 62
7
100
AcDbSpline
 70
8
 71
3
 72
8
 73
4
 74
0
 40
0
 40
0
 40
0
 40
0
 40
1
 40
1
 40
1
 40
1
 10
4.250000
 20
87.642613
 30
0.0
 10
3.785898
 20
87.910562
 30
0.0
 10
3.500000
 20
88.405753
 30
0.0
 10
3.500000
 20
88.941651
 30
0.0
  0
SPLINE
  5
377
100
AcDbEntity
  8
0
 62
7
100
AcDbSpline
 70
8
 71
3
 72
8
 73
4
 74
0
 40
0
 40
0
 40
0
 40
0
 40
1
 40
1
 40
1
 40
1
 10
3.500000
 20
88.941651
 30
0.0
 10
3.500000
 20
89.477550
 30
0.0
 10
3.785898
 20
89.972740
 30
0.0
 10
4.250000
 20
90.240690
 30
0.0
  0
SPLINE
  5
378
100
AcDbEntity
  8
0
 62
7
100
AcDbSpline
 70
8
 71
3
 72
8
 73
4
 74
0
 40
0
 40
0
 40
0
 40
0
 40
1
 40
1
 40
1
 40
1
 10
4.250000
 20
90.240690
 30
0.0
 10
4.714102
 20
90.508639
 30
0.0
 10
5.285899
 20
90.508639
 30
0.0
 10
5.750000
 20
90.240690
 30
0.0
  0
SPLINE
  5
379
100
AcDbEntity
  8
0
 62
7
100
AcDbSpline
 70
8
 71
3
 72
8
 73
4
 74
0
 40
0
 40
0
 40
0
 40
0
 40
1
 40
1
 40
1
 40
1
 10
5.750000
 20
90.240690
 30
0.0
 10
6.214102
 20
89.972740
 30
0.0
 10
6.500000
 20
89.477550
 30
0.0
 10
6.500000
 20
88.941651
 30
0.0
  0
LINE
  5
37a
100
AcDbEntity
  8
0
 62
7
100
AcDbLine
 10
6.500000
 20
88.941651
 30
0.0
 11
6.500000
 21
88.941651
 31
0.0
  0
SPLINE
  5
37b
100
AcDbEntity
  8
0
 62
7
100
AcDbSpline
 70
8
 71
3
 72
8
 73
4
 74
0
 40
0
 40
0
 40
0
 40
0
 40
1
 40
1
 40
1
 40
1
 10
21.500001
 20
88.941651
 30
0.0
 10
21.500001
 20
88.405753
 30
0.0
 10
21.214103
 20
87.910562
 30
0.0
 10
20.750001
 20
87.642613
 30
0.0
  0
SPLINE
  5
37c
100
AcDbEntity
  8
0
 62
7
100
AcDbSpline
 70
8
 71
3
 72
8
 73
4
 74
0
 40
0
 40
0
 40
0
 40
0
 40
1
 40
1
 40
1
 40
1
 10
20.750001
 20
87.642613
 30
0.0
 10
20.285899
 20
87.374664
 30
0.0
 10
19.714103
 20
87.374664
 30
0.0
 10
19.250001
 20
87.642613
 30
0.0
  0
SPLINE
  5
37d
100
AcDbEntity
  8
0
 62
7
100
AcDbSpline
 70
8
 71
3
 72
8
 73
4
 74
0
 40
0
 40
0
 40
0
 40
0
 40
1
 40
1
 40
1
 40
1
 10
19.250001
 20
87.642613
 30
0.0
 10
18.785899
 20
87.910562
 30
0.0
 10
18.500001
 20
88.405753
 30
0.0
 10
18.500001
 20
88.941651
 30
0.0
  0
SPLINE
  5
37e
100
AcDbEntity
  8
0
 62
7
100
AcDbSpline
 70
8
 71
3
 72
8
 73
4
 74
0
 40
0
 40
0
 40
0
 40
0
 40
1
 40
1
 40
1
 40
1
 10
18.500001
 20
88.941651
 30
0.0
 10
18.500001
 20
89.477550
 30
0.0
 10
18.785899
 20
89.972740
 30
0.0
 10
19.250001
 20
90.240690
 30
0.0
  0
SPLINE
  5
37f
100
AcDbEntity
  8
0
 62
7
100
AcDbSpline
 70
8
 71
3
 72
8
 73
4
 74
0
 40
0
 40
0
 40
0
 40
0
 40
1
 40
1
 40
1
 40
1
 10
19.250001
 20
90.240690
 30
0.0
 10
19.714103
 20
90.508639
 30
0.0
 10
20.285899
 20
90.508639
 30
0.0
 10
20.750001
 20
90.240690
 30
0.0
  0
SPLINE
  5
380
100
AcDbEntity
  8
0
 62
7
100
AcDbSpline
 70
8
 71
3
 72
8
 73
4
 74
0
 40
0
 40
0
 40
0
 40
0
 40
1
 40
1
 40
1
 40
1
 10
20.750001
 20
90.240690
 30
0.0
 10
21.214103
 20
89.972740
 30
0.0
 10
21.500001
 20
89.477550
 30
0.0
 10
21.500001
 20
88.941651
 30
0.0
  0
LINE
  5
381
100
AcDbEntity
  8
0
 62
7
100
AcDbLine
 10
21.500001
 20
88.941651
 30
0.0
 11
21.500001
 21
88.941651
 31
0.0
  0
SPLINE
  5
382
100
AcDbEntity
  8
0
 62
7
100
AcDbSpline
 70
8
 71
3
 72
8
 73
4
 74
0
 40
0
 40
0
 40
0
 40
0
 40
1
 40
1
 40
1
 40
1
 10
6.500000
 20
88.941600
 30
0.0
 10
6.500000
 20
88.405702
 30
0.0
 10
6.214102
 20
87.910511
 30
0.0
 10
5.750000
 20
87.642562
 30
0.0
  0
SPLINE
  5
383
100
AcDbEntity
  8
0
 62
7
100
AcDbSpline
 70
8
 71
3
 72
8
 73
4
 74
0
 40
0
 40
0
 40
0
 40
0
 40
1
 40
1
 40
1
 40
1
 10
5.750000
 20
87.642562
 30
0.0
 10
5.285899
 20
87.374613
 30
0.0
 10
4.714102
 20
87.374613
 30
0.0
 10
4.250000
 20
87.642562
 30
0.0
  0
SPLINE
  5
384
100
AcDbEntity
  8
0
 62
7
100
AcDbSpline
 70
8
 71
3
 72
8
 73
4
 74
0
 40
0
 40
0
 40
0
 40
0
 40
1
 40
1
 40
1
 40
1
 10
4.250000
 20
87.642562
 30
0.0
 10
3.785898
 20
87.910511
 30
0.0
 10
3.500000
 20
88.405702
 30
0.0
 10
3.500000
 20
88.941600
 30
0.0
  0
SPLINE
  5
385
100
AcDbEntity
  8
0
 62
7
100
AcDbSpline
 70
8
 71
3
 72
8
 73
4
 74
0
 40
0
 40
0
 40
0
 40
0
 40
1
 40
1
 40
1
 40
1
 10
3.500000
 20
88.941600
 30
0.0
 10
3.500000
 20
89.477499
 30
0.0
 10
3.785898
 20
89.972689
 30
0.0
 10
4.250000
 20
90.240638
 30
0.0
  0
SPLINE
  5
386
100
AcDbEntity
  8
0
 62
7
100
AcDbSpline
 70
8
 71
3
 72
8
 73
4
 74
0
 40
0
 40
0
 40
0
 40
0
 40
1
 40
1
 40
1
 40
1
 10
4.250000
 20
90.240638
 30
0.0
 10
4.714102
 20
90.508588
 30
0.0
 10
5.285899
 20
90.508588
 30
0.0
 10
5.750000
 20
90.240638
 30
0.0
  0
SPLINE
  5
387
100
AcDbEntity
  8
0
 62
7
100
AcDbSpline
 70
8
 71
3
 72
8
 73
4
 74
0
 40
0
 40
0
 40
0
 40
0
 40
1
 40
1
 40
1
 40
1
 10
5.750000
 20
90.240638
 30
0.0
 10
6.214102
 20
89.972689
 30
0.0
 10
6.500000
 20
89.477499
 30
0.0
 10
6.500000
 20
88.941600
 30
0.0
  0
LINE
  5
388
100
AcDbEntity
  8
0
 62
7
100
AcDbLine
 10
6.500000
 20
88.941600
 30
0.0
 11
6.500000
 21
88.941600
 31
0.0
  0
SPLINE
  5
389
100
AcDbEntity
  8
0
 62
7
100
AcDbSpline
 70
8
 71
3
 72
8
 73
4
 74
0
 40
0
 40
0
 40
0
 40
0
 40
1
 40
1
 40
1
 40
1
 10
21.500001
 20
88.941600
 30
0.0
 10
21.500001
 20
88.405702
 30
0.0
 10
21.214103
 20
87.910511
 30
0.0
 10
20.750001
 20
87.642562
 30
0.0
  0
SPLINE
  5
38a
100
AcDbEntity
  8
0
 62
7
100
AcDbSpline
 70
8
 71
3
 72
8
 73
4
 74
0
 40
0
 40
0
 40
0
 40
0
 40
1
 40
1
 40
1
 40
1
 10
20.750001
 20
87.642562
 30
0.0
 10
20.285899
 20
87.374613
 30
0.0
 10
19.714103
 20
87.374613
 30
0.0
 10
19.250001
 20
87.642562
 30
0.0
  0
SPLINE
  5
38b
100
AcDbEntity
  8
0
 62
7
100
AcDbSpline
 70
8
 71
3
 72
8
 73
4
 74
0
 40
0
 40
0
 40
0
 40
0
 40
1
 40
1
 40
1
 40
1
 10
19.250001
 20
87.642562
 30
0.0
 10
18.785899
 20
87.910511
 30
0.0
 10
18.500001
 20
88.405702
 30
0.0
 10
18.500001
 20
88.941600
 30
0.0
  0
SPLINE
  5
38c
100
AcDbEntity
  8
0
 62
7
100
AcDbSpline
 70
8
 71
3
 72
8
 73
4
 74
0
 40
0
 40
0
 40
0
 40
0
 40
1
 40
1
 40
1
 40
1
 10
18.500001
 20
88.941600
 30
0.0
 10
18.500001
 20
89.477499
 30
0.0
 10
18.785899
 20
89.972689
 30
0.0
 10
19.250001
 20
90.240638
 30
0.0
  0
SPLINE
  5
38d
100
AcDbEntity
  8
0
 62
7
100
AcDbSpline
 70
8
 71
3
 72
8
 73
4
 74
0
 40
0
 40
0
 40
0
 40
0
 40
1
 40
1
 40
1
 40
1
 10
19.250001
 20
90.240638
 30
0.0
 10
19.714103
 20
90.508588
 30
0.0
 10
20.285899
 20
90.508588
 30
0.0
 10
20.750001
 20
90.240638
 30
0.0
  0
SPLINE
  5
38e
100
AcDbEntity
  8
0
 62
7
100
AcDbSpline
 70
8
 71
3
 72
8
 73
4
 74
0
 40
0
 40
0
 40
0
 40
0
 40
1
 40
1
 40
1
 40
1
 10
20.750001
 20
90.240638
 30
0.0
 10
21.214103
 20
89.972689
 30
0.0
 10
21.500001
 20
89.477499
 30
0.0
 10
21.500001
 20
88.941600
 30
0.0
  0
LINE
  5
38f
100
AcDbEntity
  8
0
 62
7
100
AcDbLine
 10
21.500001
 20
88.941600
 30
0.0
 11
21.500001
 21
88.941600
 31
0.0
  0
LINE
  5
390
100
AcDbEntity
  8
0
 62
7
100
AcDbLine
 10
25.000000
 20
73.941653
 30
0.0
 11
55.000030
 21
73.941653
 31
0.0
  0
SPLINE
  5
391
100
AcDbEntity
  8
0
 62
7
100
AcDbSpline
 70
8
 71
3
 72
8
 73
4
 74
0
 40
0
 40
0
 40
0
 40
0
 40
1
 40
1
 40
1
 40
1
 10
55.000030
 20
73.941653
 30
0.0
 10
57.770024
 20
73.941653
 30
0.0
 10
60.000017
 20
71.711660
 30
0.0
 10
60.000017
 20
68.941667
 30
0.0
  0
LINE
  5
392
100
AcDbEntity
  8
0
 62
7
100
AcDbLine
 10
60.000017
 20
68.941667
 30
0.0
 11
60.000017
 21
48.941630
 31
0.0
  0
SPLINE
  5
393
100
AcDbEntity
  8
0
 62
7
100
AcDbSpline
 70
8
 71
3
 72
8
 73
4
 74
0
 40
0
 40
0
 40
0
 40
0
 40
1
 40
1
 40
1
 40
1
 10
60.000017
 20
48.941630
 30
0.0
 10
60.000017
 20
46.171619
 30
0.0
 10
57.770024
 20
43.941640
 30
0.0
 10
55.000030
 20
43.941640
 30
0.0
  0
LINE
  5
394
100
AcDbEntity
  8
0
 62
7
100
AcDbLine
 10
55.000030
 20
43.941640
 30
0.0
 11
25.000000
 21
43.941640
 31
0.0
  0
SPLINE
  5
395
100
AcDbEntity
  8
0
 62
7
100
AcDbSpline
 70
8
 71
3
 72
8
 73
4
 74
0
 40
0
 40
0
 40
0
 40
0
 40
1
 40
1
 40
1
 40
1
 10
25.000000
 20
43.941640
 30
0.0
 10
22.230009
 20
43.941640
 30
0.0
 10
20.000015
 20
46.171619
 30
0.0
 10
20.000015
 20
48.941630
 30
0.0
  0
LINE
  5
396
100
AcDbEntity
  8
0
 62
7
100
AcDbLine
 10
20.000015
 20
48.941630
 30
0.0
 11
20.000015
 21
68.941667
 31
0.0
  0
SPLINE
  5
397
100
AcDbEntity
  8
0
 62
7
100
AcDbSpline
 70
8
 71
3
 72
8
 73
4
 74
0
 40
0
 40
0
 40
0
 40
0
 40
1
 40
1
 40
1
 40
1
 10
20.000015
 20
68.941667
 30
0.0
 10
20.000015
 20
71.711660
 30
0.0
 10
22.230009
 20
73.941653
 30
0.0
 10
25.000000
 20
73.941653
 30
0.0
  0
LINE
  5
398
100
AcDbEntity
  8
0
 62
7
100
AcDbLine
 10
25.000000
 20
73.941653
 30
0.0
 11
25.000000
 21
73.941653
 31
0.0
  0
SPLINE
  5
399
100
AcDbEntity
  8
0
 62
7
100
AcDbSpline
 70
8
 71
3
 72
8
 73
4
 74
0
 40
0
 40
0
 40
0
 40
0
 40
1
 40
1
 40
1
 40
1
 10
51.570836
 20
47.937130
 30
0.0
 10
51.559195
 20
46.321831
 30
0.0
 10
47.999861
 20
44.937143
 30
0.0
 10
47.999649
 20
46.937358
 30
0.0
  0
SPLINE
  5
39a
100
AcDbEntity
  8
0
 62
7
100
AcDbSpline
 70
8
 71
3
 72
8
 73
4
 74
0
 40
0
 40
0
 40
0
 40
0
 40
1
 40
1
 40
1
 40
1
 10
47.999649
 20
46.937358
 30
0.0
 10
47.999861
 20
47.937130
 30
0.0
 10
35.110129
 20
48.937749
 30
0.0
 10
31.005330
 20
48.937749
 30
0.0
  0
SPLINE
  5
39b
100
AcDbEntity
  8
0
 62
7
100
AcDbSpline
 70
8
 71
3
 72
8
 73
4
 74
0
 40
0
 40
0
 40
0
 40
0
 40
1
 40
1
 40
1
 40
1
 10
31.005330
 20
48.937749
 30
0.0
 10
29.999861
 20
48.937749
 30
0.0
 10
29.999861
 20
49.937133
 30
0.0
 10
29.999861
 20
50.937152
 30
0.0
  0
LINE
  5
39c
100
AcDbEntity
  8
0
 62
7
100
AcDbLine
 10
29.999861
 20
50.937152
 30
0.0
 11
29.999861
 21
52.937614
 31
0.0
  0
LINE
  5
39d
100
AcDbEntity
  8
0
 62
7
100
AcDbLine
 10
29.999861
 20
52.937614
 30
0.0
 11
25.000165
 21
52.937614
 31
0.0
  0
LINE
  5
39e
100
AcDbEntity
  8
0
 62
7
100
AcDbLine
 10
25.000165
 20
52.937614
 30
0.0
 11
25.000165
 21
67.937764
 31
0.0
  0
LINE
  5
39f
100
AcDbEntity
  8
0
 62
7
100
AcDbLine
 10
25.000165
 20
67.937764
 30
0.0
 11
29.999861
 21
67.937764
 31
0.0
  0
LINE
  5
3a0
100
AcDbEntity
  8
0
 62
7
100
AcDbLine
 10
29.999861
 20
67.937764
 30
0.0
 11
29.999861
 21
71.937523
 31
0.0
  0
LINE
  5
3a1
100
AcDbEntity
  8
0
 62
7
100
AcDbLine
 10
29.999861
 20
71.937523
 30
0.0
 11
35.000062
 21
71.937523
 31
0.0
  0
LINE
  5
3a2
100
AcDbEntity
  8
0
 62
7
100
AcDbLine
 10
35.000062
 20
71.937523
 30
0.0
 11
35.000062
 21
67.937764
 31
0.0
  0
LINE
  5
3a3
100
AcDbEntity
  8
0
 62
7
100
AcDbLine
 10
35.000062
 20
67.937764
 30
0.0
 11
39.999761
 21
67.937764
 31
0.0
  0
LINE
  5
3a4
100
AcDbEntity
  8
0
 62
7
100
AcDbLine
 10
39.999761
 20
67.937764
 30
0.0
 11
39.999761
 21
71.937004
 31
0.0
  0
LINE
  5
3a5
100
AcDbEntity
  8
0
 62
7
100
AcDbLine
 10
39.999761
 20
71.937004
 30
0.0
 11
44.999990
 21
71.937004
 31
0.0
  0
LINE
  5
3a6
100
AcDbEntity
  8
0
 62
7
100
AcDbLine
 10
44.999990
 20
71.937004
 30
0.0
 11
44.999990
 21
67.937764
 31
0.0
  0
LINE
  5
3a7
100
AcDbEntity
  8
0
 62
7
100
AcDbLine
 10
44.999990
 20
67.937764
 30
0.0
 11
54.999864
 21
67.937411
 31
0.0
  0
SPLINE
  5
3a8
100
AcDbEntity
  8
0
 62
7
100
AcDbSpline
 70
8
 71
3
 72
8
 73
4
 74
0
 40
0
 40
0
 40
0
 40
0
 40
1
 40
1
 40
1
 40
1
 10
54.999864
 20
67.937411
 30
0.0
 10
55.000016
 20
63.941635
 30
0.0
 10
53.000017
 20
63.941635
 30
0.0
 10
50.000016
 20
63.941635
 30
0.0
  0
SPLINE
  5
3a9
100
AcDbEntity
  8
0
 62
7
100
AcDbSpline
 70
8
 71
3
 72
8
 73
4
 74
0
 40
0
 40
0
 40
0
 40
0
 40
1
 40
1
 40
1
 40
1
 10
50.000016
 20
63.941635
 30
0.0
 10
45.000015
 20
63.941635
 30
0.0
 10
45.000015
 20
52.941601
 30
0.0
 10
49.999875
 20
52.937367
 30
0.0
  0
LINE
  5
3aa
100
AcDbEntity
  8
0
 62
7
100
AcDbLine
 10
49.999875
 20
52.937367
 30
0.0
 11
49.999875
 21
48.937996
 31
0.0
  0
SPLINE
  5
3ab
100
AcDbEntity
  8
0
 62
7
100
AcDbSpline
 70
8
 71
3
 72
8
 73
4
 74
0
 40
0
 40
0
 40
0
 40
0
 40
1
 40
1
 40
1
 40
1
 10
49.999875
 20
48.937996
 30
0.0
 10
51.595178
 20
48.937996
 30
0.0
 10
51.577345
 20
48.834456
 30
0.0
 10
51.570836
 20
47.937307
 30
0.0
  0
LINE
  5
3ac
100
AcDbEntity
  8
0
 62
7
100
AcDbLine
 10
51.570836
 20
47.937307
 30
0.0
 11
51.570836
 21
47.937130
 31
0.0
  0
LINE
  5
3ad
100
AcDbEntity
  8
0
 62
7
100
AcDbLine
 10
25.000000
 20
133.941656
 30
0.0
 11
55.000030
 21
133.941656
 31
0.0
  0
SPLINE
  5
3ae
100
AcDbEntity
  8
0
 62
7
100
AcDbSpline
 70
8
 71
3
 72
8
 73
4
 74
0
 40
0
 40
0
 40
0
 40
0
 40
1
 40
1
 40
1
 40
1
 10
55.000030
 20
133.941656
 30
0.0
 10
57.770024
 20
133.941656
 30
0.0
 10
60.000017
 20
131.711659
 30
0.0
 10
60.000017
 20
128.941670
 30
0.0
  0
LINE
  5
3af
100
AcDbEntity
  8
0
 62
7
100
AcDbLine
 10
60.000017
 20
128.941670
 30
0.0
 11
60.000017
 21
108.941639
 31
0.0
  0
SPLINE
  5
3b0
100
AcDbEntity
  8
0
 62
7
100
AcDbSpline
 70
8
 71
3
 72
8
 73
4
 74
0
 40
0
 40
0
 40
0
 40
0
 40
1
 40
1
 40
1
 40
1
 10
60.000017
 20
108.941639
 30
0.0
 10
60.000017
 20
106.171646
 30
0.0
 10
57.770024
 20
103.941653
 30
0.0
 10
55.000030
 20
103.941653
 30
0.0
  0
LINE
  5
3b1
100
AcDbEntity
  8
0
 62
7
100
AcDbLine
 10
55.000030
 20
103.941653
 30
0.0
 11
25.000000
 21
103.941653
 31
0.0
  0
SPLINE
  5
3b2
100
AcDbEntity
  8
0
 62
7
100
AcDbSpline
 70
8
 71
3
 72
8
 73
4
 74
0
 40
0
 40
0
 40
0
 40
0
 40
1
 40
1
 40
1
 40
1
 10
25.000000
 20
103.941653
 30
0.0
 10
22.230009
 20
103.941653
 30
0.0
 10
20.000015
 20
106.171646
 30
0.0
 10
20.000015
 20
108.941639
 30
0.0
  0
LINE
  5
3b3
100
AcDbEntity
  8
0
 62
7
100
AcDbLine
 10
20.000015
 20
108.941639
 30
0.0
 11
20.000015
 21
128.941670
 31
0.0
  0
SPLINE
  5
3b4
100
AcDbEntity
  8
0
 62
7
100
AcDbSpline
 70
8
 71
3
 72
8
 73
4
 74
0
 40
0
 40
0
 40
0
 40
0
 40
1
 40
1
 40
1
 40
1
 10
20.000015
 20
128.941670
 30
0.0
 10
20.000015
 20
131.711659
 30
0.0
 10
22.230009
 20
133.941656
 30
0.0
 10
25.000000
 20
133.941656
 30
0.0
  0
LINE
  5
3b5
100
AcDbEntity
  8
0
 62
7
100
AcDbLine
 10
25.000000
 20
133.941656
 30
0.0
 11
25.000000
 21
133.941656
 31
0.0
  0
SPLINE
  5
3b6
100
AcDbEntity
  8
0
 62
7
100
AcDbSpline
 70
8
 71
3
 72
8
 73
4
 74
0
 40
0
 40
0
 40
0
 40
0
 40
1
 40
1
 40
1
 40
1
 10
51.570836
 20
129.946151
 30
0.0
 10
51.559195
 20
131.561471
 30
0.0
 10
47.999861
 20
132.946152
 30
0.0
 10
47.999649
 20
130.945927
 30
0.0
  0
SPLINE
  5
3b7
100
AcDbEntity
  8
0
 62
7
100
AcDbSpline
 70
8
 71
3
 72
8
 73
4
 74
0
 40
0
 40
0
 40
0
 40
0
 40
1
 40
1
 40
1
 40
1
 10
47.999649
 20
130.945927
 30
0.0
 10
47.999861
 20
129.946151
 30
0.0
 10
35.110128
 20
128.945532
 30
0.0
 10
31.005330
 20
128.945532
 30
0.0
  0
SPLINE
  5
3b8
100
AcDbEntity
  8
0
 62
7
100
AcDbSpline
 70
8
 71
3
 72
8
 73
4
 74
0
 40
0
 40
0
 40
0
 40
0
 40
1
 40
1
 40
1
 40
1
 10
31.005330
 20
128.945532
 30
0.0
 10
29.999860
 20
128.946238
 30
0.0
 10
29.999860
 20
127.946152
 30
0.0
 10
29.999860
 20
126.946150
 30
0.0
  0
LINE
  5
3b9
100
AcDbEntity
  8
0
 62
7
100
AcDbLine
 10
29.999860
 20
126.946150
 30
0.0
 11
29.999860
 21
124.945668
 31
0.0
  0
LINE
  5
3ba
100
AcDbEntity
  8
0
 62
7
100
AcDbLine
 10
29.999860
 20
124.945668
 30
0.0
 11
25.000164
 21
124.945668
 31
0.0
  0
LINE
  5
3bb
100
AcDbEntity
  8
0
 62
7
100
AcDbLine
 10
25.000164
 20
124.945668
 30
0.0
 11
25.000164
 21
109.945550
 31
0.0
  0
LINE
  5
3bc
100
AcDbEntity
  8
0
 62
7
100
AcDbLine
 10
25.000164
 20
109.945550
 30
0.0
 11
29.999860
 21
109.945550
 31
0.0
  0
LINE
  5
3bd
100
AcDbEntity
  8
0
 62
7
100
AcDbLine
 10
29.999860
 20
109.945550
 30
0.0
 11
29.999860
 21
105.945791
 31
0.0
  0
LINE
  5
3be
100
AcDbEntity
  8
0
 62
7
100
AcDbLine
 10
29.999860
 20
105.945791
 30
0.0
 11
35.000062
 21
105.945791
 31
0.0
  0
LINE
  5
3bf
100
AcDbEntity
  8
0
 62
7
100
AcDbLine
 10
35.000062
 20
105.945791
 30
0.0
 11
35.000062
 21
109.945550
 31
0.0
  0
LINE
  5
3c0
100
AcDbEntity
  8
0
 62
7
100
AcDbLine
 10
35.000062
 20
109.945550
 30
0.0
 11
39.999761
 21
109.945550
 31
0.0
  0
LINE
  5
3c1
100
AcDbEntity
  8
0
 62
7
100
AcDbLine
 10
39.999761
 20
109.945550
 30
0.0
 11
39.999761
 21
105.946309
 31
0.0
  0
LINE
  5
3c2
100
AcDbEntity
  8
0
 62
7
100
AcDbLine
 10
39.999761
 20
105.946309
 30
0.0
 11
44.999990
 21
105.946309
 31
0.0
  0
LINE
  5
3c3
100
AcDbEntity
  8
0
 62
7
100
AcDbLine
 10
44.999990
 20
105.946309
 30
0.0
 11
44.999990
 21
109.945550
 31
0.0
  0
LINE
  5
3c4
100
AcDbEntity
  8
0
 62
7
100
AcDbLine
 10
44.999990
 20
109.945550
 30
0.0
 11
54.999864
 21
109.945902
 31
0.0
  0
SPLINE
  5
3c5
100
AcDbEntity
  8
0
 62
7
100
AcDbSpline
 70
8
 71
3
 72
8
 73
4
 74
0
 40
0
 40
0
 40
0
 40
0
 40
1
 40
1
 40
1
 40
1
 10
54.999864
 20
109.945902
 30
0.0
 10
55.000016
 20
113.941668
 30
0.0
 10
53.000017
 20
113.941668
 30
0.0
 10
50.000016
 20
113.941668
 30
0.0
  0
SPLINE
  5
3c6
100
AcDbEntity
  8
0
 62
7
100
AcDbSpline
 70
8
 71
3
 72
8
 73
4
 74
0
 40
0
 40
0
 40
0
 40
0
 40
1
 40
1
 40
1
 40
1
 10
50.000016
 20
113.941668
 30
0.0
 10
45.000015
 20
113.941668
 30
0.0
 10
45.000015
 20
124.941671
 30
0.0
 10
49.999875
 20
124.945904
 30
0.0
  0
LINE
  5
3c7
100
AcDbEntity
  8
0
 62
7
100
AcDbLine
 10
49.999875
 20
124.945904
 30
0.0
 11
49.999875
 21
128.945286
 31
0.0
  0
SPLINE
  5
3c8
100
AcDbEntity
  8
0
 62
7
100
AcDbSpline
 70
8
 71
3
 72
8
 73
4
 74
0
 40
0
 40
0
 40
0
 40
0
 40
1
 40
1
 40
1
 40
1
 10
49.999875
 20
128.945286
 30
0.0
 10
51.595178
 20
128.945991
 30
0.0
 10
51.577345
 20
129.048819
 30
0.0
 10
51.570836
 20
129.945975
 30
0.0
  0
LINE
  5
3c9
100
AcDbEntity
  8
0
 62
7
100
AcDbLine
 10
51.570836
 20
129.945975
 30
0.0
 11
51.570836
 21
129.946151
 31
0.0
  0
LINE
  5
3ca
100
AcDbEntity
  8
0
 62
7
100
AcDbLine
 10
148.620767
 20
129.674770
 30
0.0
 11
188.620729
 21
129.674770
 31
0.0
  0
SPLINE
  5
3cb
100
AcDbEntity
  8
0
 62
7
100
AcDbSpline
 70
8
 71
3
 72
8
 73
4
 74
0
 40
0
 40
0
 40
0
 40
0
 40
1
 40
1
 40
1
 40
1
 10
188.620729
 20
129.674770
 30
0.0
 10
199.700734
 20
129.674770
 30
0.0
 10
208.620739
 20
120.754766
 30
0.0
 10
208.620739
 20
109.674761
 30
0.0
  0
LINE
  5
3cc
100
AcDbEntity
  8
0
 62
7
100
AcDbLine
 10
208.620739
 20
109.674761
 30
0.0
 11
208.620739
 21
69.674810
 31
0.0
  0
SPLINE
  5
3cd
100
AcDbEntity
  8
0
 62
7
100
AcDbSpline
 70
8
 71
3
 72
8
 73
4
 74
0
 40
0
 40
0
 40
0
 40
0
 40
1
 40
1
 40
1
 40
1
 10
208.620739
 20
69.674810
 30
0.0
 10
208.620739
 20
58.594790
 30
0.0
 10
199.700734
 20
49.674804
 30
0.0
 10
188.620729
 20
49.674804
 30
0.0
  0
LINE
  5
3ce
100
AcDbEntity
  8
0
 62
7
100
AcDbLine
 10
188.620729
 20
49.674804
 30
0.0
 11
148.620767
 21
49.674804
 31
0.0
  0
SPLINE
  5
3cf
100
AcDbEntity
  8
0
 62
7
100
AcDbSpline
 70
8
 71
3
 72
8
 73
4
 74
0
 40
0
 40
0
 40
0
 40
0
 40
1
 40
1
 40
1
 40
1
 10
148.620767
 20
49.674804
 30
0.0
 10
137.540762
 20
49.674804
 30
0.0
 10
128.620758
 20
58.594790
 30
0.0
 10
128.620758
 20
69.674810
 30
0.0
  0
LINE
  5
3d0
100
AcDbEntity
  8
0
 62
7
100
AcDbLine
 10
128.620758
 20
69.674810
 30
0.0
 11
128.620758
 21
109.674761
 31
0.0
  0
SPLINE
  5
3d1
100
AcDbEntity
  8
0
 62
7
100
AcDbSpline
 70
8
 71
3
 72
8
 73
4
 74
0
 40
0
 40
0
 40
0
 40
0
 40
1
 40
1
 40
1
 40
1
 10
128.620758
 20
109.674761
 30
0.0
 10
128.620758
 20
120.754766
 30
0.0
 10
137.540762
 20
129.674770
 30
0.0
 10
148.620767
 20
129.674770
 30
0.0
  0
LINE
  5
3d2
100
AcDbEntity
  8
0
 62
7
100
AcDbLine
 10
148.620767
 20
129.674770
 30
0.0
 11
148.620767
 21
129.674770
 31
0.0
  0
LINE
  5
3d3
100
AcDbEntity
  8
0
 62
7
100
AcDbLine
 10
173.620756
 20
99.674760
 30
0.0
 11
183.620757
 21
99.674760
 31
0.0
  0
LINE
  5
3d4
100
AcDbEntity
  8
0
 62
7
100
AcDbLine
 10
183.620757
 20
99.674760
 30
0.0
 11
183.620757
 21
95.674761
 31
0.0
  0
LINE
  5
3d5
100
AcDbEntity
  8
0
 62
7
100
AcDbLine
 10
183.620757
 20
95.674761
 30
0.0
 11
173.620756
 21
95.674761
 31
0.0
  0
LINE
  5
3d6
100
AcDbEntity
  8
0
 62
7
100
AcDbLine
 10
173.620756
 20
95.674761
 30
0.0
 11
173.620756
 21
99.674760
 31
0.0
  0
LINE
  5
3d7
100
AcDbEntity
  8
0
 62
7
100
AcDbLine
 10
193.620758
 20
99.674760
 30
0.0
 11
203.620755
 21
99.674760
 31
0.0
  0
LINE
  5
3d8
100
AcDbEntity
  8
0
 62
7
100
AcDbLine
 10
203.620755
 20
99.674760
 30
0.0
 11
203.620755
 21
95.674761
 31
0.0
  0
LINE
  5
3d9
100
AcDbEntity
  8
0
 62
7
100
AcDbLine
 10
203.620755
 20
95.674761
 30
0.0
 11
193.620758
 21
95.674761
 31
0.0
  0
LINE
  5
3da
100
AcDbEntity
  8
0
 62
7
100
AcDbLine
 10
193.620758
 20
95.674761
 30
0.0
 11
193.620758
 21
99.674760
 31
0.0
  0
LINE
  5
3db
100
AcDbEntity
  8
0
 62
7
100
AcDbLine
 10
173.620756
 20
83.674757
 30
0.0
 11
183.620757
 21
83.674757
 31
0.0
  0
LINE
  5
3dc
100
AcDbEntity
  8
0
 62
7
100
AcDbLine
 10
183.620757
 20
83.674757
 30
0.0
 11
183.620757
 21
79.674758
 31
0.0
  0
LINE
  5
3dd
100
AcDbEntity
  8
0
 62
7
100
AcDbLine
 10
183.620757
 20
79.674758
 30
0.0
 11
173.620756
 21
79.674758
 31
0.0
  0
LINE
  5
3de
100
AcDbEntity
  8
0
 62
7
100
AcDbLine
 10
173.620756
 20
79.674758
 30
0.0
 11
173.620756
 21
83.674757
 31
0.0
  0
LINE
  5
3df
100
AcDbEntity
  8
0
 62
7
100
AcDbLine
 10
193.620758
 20
83.674757
 30
0.0
 11
203.620755
 21
83.674757
 31
0.0
  0
LINE
  5
3e0
100
AcDbEntity
  8
0
 62
7
100
AcDbLine
 10
203.620755
 20
83.674757
 30
0.0
 11
203.620755
 21
79.674758
 31
0.0
  0
LINE
  5
3e1
100
AcDbEntity
  8
0
 62
7
100
AcDbLine
 10
203.620755
 20
79.674758
 30
0.0
 11
193.620758
 21
79.674758
 31
0.0
  0
LINE
  5
3e2
100
AcDbEntity
  8
0
 62
7
100
AcDbLine
 10
193.620758
 20
79.674758
 30
0.0
 11
193.620758
 21
83.674757
 31
0.0
  0
LINE
  5
3e3
100
AcDbEntity
  8
0
 62
7
100
AcDbLine
 10
167.667521
 20
114.721548
 30
0.0
 11
167.667521
 21
64.721562
 31
0.0
  0
SPLINE
  5
3e4
100
AcDbEntity
  8
0
 62
7
100
AcDbSpline
 70
8
 71
3
 72
8
 73
4
 74
0
 40
0
 40
0
 40
0
 40
0
 40
1
 40
1
 40
1
 40
1
 10
167.667521
 20
64.721562
 30
0.0
 10
167.667521
 20
61.951557
 30
0.0
 10
165.437518
 20
59.721554
 30
0.0
 10
162.667514
 20
59.721554
 30
0.0
  0
LINE
  5
3e5
100
AcDbEntity
  8
0
 62
7
100
AcDbLine
 10
162.667514
 20
59.721554
 30
0.0
 11
142.667529
 21
59.721554
 31
0.0
  0
SPLINE
  5
3e6
100
AcDbEntity
  8
0
 62
7
100
AcDbSpline
 70
8
 71
3
 72
8
 73
4
 74
0
 40
0
 40
0
 40
0
 40
0
 40
1
 40
1
 40
1
 40
1
 10
142.667529
 20
59.721554
 30
0.0
 10
139.897522
 20
59.721554
 30
0.0
 10
137.667518
 20
61.951557
 30
0.0
 10
137.667518
 20
64.721562
 30
0.0
  0
LINE
  5
3e7
100
AcDbEntity
  8
0
 62
7
100
AcDbLine
 10
137.667518
 20
64.721562
 30
0.0
 11
137.667518
 21
114.721548
 31
0.0
  0
SPLINE
  5
3e8
100
AcDbEntity
  8
0
 62
7
100
AcDbSpline
 70
8
 71
3
 72
8
 73
4
 74
0
 40
0
 40
0
 40
0
 40
0
 40
1
 40
1
 40
1
 40
1
 10
137.667518
 20
114.721548
 30
0.0
 10
137.667518
 20
117.491553
 30
0.0
 10
139.897522
 20
119.721556
 30
0.0
 10
142.667529
 20
119.721556
 30
0.0
  0
LINE
  5
3e9
100
AcDbEntity
  8
0
 62
7
100
AcDbLine
 10
142.667529
 20
119.721556
 30
0.0
 11
162.667514
 21
119.721556
 31
0.0
  0
SPLINE
  5
3ea
100
AcDbEntity
  8
0
 62
7
100
AcDbSpline
 70
8
 71
3
 72
8
 73
4
 74
0
 40
0
 40
0
 40
0
 40
0
 40
1
 40
1
 40
1
 40
1
 10
162.667514
 20
119.721556
 30
0.0
 10
165.437518
 20
119.721556
 30
0.0
 10
167.667521
 20
117.491553
 30
0.0
 10
167.667521
 20
114.721548
 30
0.0
  0
LINE
  5
3eb
100
AcDbEntity
  8
0
 62
7
100
AcDbLine
 10
167.667521
 20
114.721548
 30
0.0
 11
167.667521
 21
114.721548
 31
0.0
  0
LINE
  5
3ec
100
AcDbEntity
  8
0
 62
7
100
AcDbLine
 10
162.620739
 20
94.721555
 30
0.0
 11
158.714279
 21
94.721555
 31
0.0
  0
SPLINE
  5
3ed
100
AcDbEntity
  8
0
 62
7
100
AcDbSpline
 70
8
 71
3
 72
8
 73
4
 74
0
 40
0
 40
0
 40
0
 40
0
 40
1
 40
1
 40
1
 40
1
 10
158.714279
 20
94.721555
 30
0.0
 10
158.688385
 20
94.721555
 30
0.0
 10
158.667507
 20
94.742414
 30
0.0
 10
158.667507
 20
94.768327
 30
0.0
  0
LINE
  5
3ee
100
AcDbEntity
  8
0
 62
7
100
AcDbLine
 10
158.667507
 20
94.768327
 30
0.0
 11
158.667507
 21
100.674783
 31
0.0
  0
SPLINE
  5
3ef
100
AcDbEntity
  8
0
 62
7
100
AcDbSpline
 70
8
 71
3
 72
8
 73
4
 74
0
 40
0
 40
0
 40
0
 40
0
 40
1
 40
1
 40
1
 40
1
 10
158.667507
 20
100.674783
 30
0.0
 10
158.667507
 20
100.700695
 30
0.0
 10
158.688357
 20
100.721555
 30
0.0
 10
158.714279
 20
100.721555
 30
0.0
  0
LINE
  5
3f0
100
AcDbEntity
  8
0
 62
7
100
AcDbLine
 10
158.714279
 20
100.721555
 30
0.0
 11
162.620739
 21
100.721555
 31
0.0
  0
SPLINE
  5
3f1
100
AcDbEntity
  8
0
 62
7
100
AcDbSpline
 70
8
 71
3
 72
8
 73
4
 74
0
 40
0
 40
0
 40
0
 40
0
 40
1
 40
1
 40
1
 40
1
 10
162.620739
 20
100.721555
 30
0.0
 10
162.646633
 20
100.721555
 30
0.0
 10
162.667514
 20
100.700696
 30
0.0
 10
162.667514
 20
100.674783
 30
0.0
  0
LINE
  5
3f2
100
AcDbEntity
  8
0
 62
7
100
AcDbLine
 10
162.667514
 20
100.674783
 30
0.0
 11
162.667514
 21
94.768327
 31
0.0
  0
SPLINE
  5
3f3
100
AcDbEntity
  8
0
 62
7
100
AcDbSpline
 70
8
 71
3
 72
8
 73
4
 74
0
 40
0
 40
0
 40
0
 40
0
 40
1
 40
1
 40
1
 40
1
 10
162.667514
 20
94.768327
 30
0.0
 10
162.667514
 20
94.742416
 30
0.0
 10
162.646664
 20
94.721555
 30
0.0
 10
162.620739
 20
94.721555
 30
0.0
  0
LINE
  5
3f4
100
AcDbEntity
  8
0
 62
7
100
AcDbLine
 10
162.620739
 20
94.721555
 30
0.0
 11
162.620739
 21
94.721555
 31
0.0
  0
LINE
  5
3f5
100
AcDbEntity
  8
0
 62
7
100
AcDbLine
 10
162.620739
 20
108.721555
 30
0.0
 11
158.714279
 21
108.721555
 31
0.0
  0
SPLINE
  5
3f6
100
AcDbEntity
  8
0
 62
7
100
AcDbSpline
 70
8
 71
3
 72
8
 73
4
 74
0
 40
0
 40
0
 40
0
 40
0
 40
1
 40
1
 40
1
 40
1
 10
158.714279
 20
108.721555
 30
0.0
 10
158.688385
 20
108.721555
 30
0.0
 10
158.667507
 20
108.742415
 30
0.0
 10
158.667507
 20
108.768327
 30
0.0
  0
LINE
  5
3f7
100
AcDbEntity
  8
0
 62
7
100
AcDbLine
 10
158.667507
 20
108.768327
 30
0.0
 11
158.667507
 21
114.674783
 31
0.0
  0
SPLINE
  5
3f8
100
AcDbEntity
  8
0
 62
7
100
AcDbSpline
 70
8
 71
3
 72
8
 73
4
 74
0
 40
0
 40
0
 40
0
 40
0
 40
1
 40
1
 40
1
 40
1
 10
158.667507
 20
114.674783
 30
0.0
 10
158.667507
 20
114.700695
 30
0.0
 10
158.688357
 20
114.721555
 30
0.0
 10
158.714279
 20
114.721555
 30
0.0
  0
LINE
  5
3f9
100
AcDbEntity
  8
0
 62
7
100
AcDbLine
 10
158.714279
 20
114.721555
 30
0.0
 11
162.620739
 21
114.721555
 31
0.0
  0
SPLINE
  5
3fa
100
AcDbEntity
  8
0
 62
7
100
AcDbSpline
 70
8
 71
3
 72
8
 73
4
 74
0
 40
0
 40
0
 40
0
 40
0
 40
1
 40
1
 40
1
 40
1
 10
162.620739
 20
114.721555
 30
0.0
 10
162.646633
 20
114.721555
 30
0.0
 10
162.667514
 20
114.700696
 30
0.0
 10
162.667514
 20
114.674783
 30
0.0
  0
LINE
  5
3fb
100
AcDbEntity
  8
0
 62
7
100
AcDbLine
 10
162.667514
 20
114.674783
 30
0.0
 11
162.667514
 21
108.768327
 31
0.0
  0
SPLINE
  5
3fc
100
AcDbEntity
  8
0
 62
7
100
AcDbSpline
 70
8
 71
3
 72
8
 73
4
 74
0
 40
0
 40
0
 40
0
 40
0
 40
1
 40
1
 40
1
 40
1
 10
162.667514
 20
108.768327
 30
0.0
 10
162.667514
 20
108.742416
 30
0.0
 10
162.646664
 20
108.721555
 30
0.0
 10
162.620739
 20
108.721555
 30
0.0
  0
LINE
  5
3fd
100
AcDbEntity
  8
0
 62
7
100
AcDbLine
 10
162.620739
 20
108.721555
 30
0.0
 11
162.620739
 21
108.721555
 31
0.0
  0
LINE
  5
3fe
100
AcDbEntity
  8
0
 62
7
100
AcDbLine
 10
146.573971
 20
94.721555
 30
0.0
 11
142.667511
 21
94.721555
 31
0.0
  0
SPLINE
  5
3ff
100
AcDbEntity
  8
0
 62
7
100
AcDbSpline
 70
8
 71
3
 72
8
 73
4
 74
0
 40
0
 40
0
 40
0
 40
0
 40
1
 40
1
 40
1
 40
1
 10
142.667511
 20
94.721555
 30
0.0
 10
142.641618
 20
94.721555
 30
0.0
 10
142.620740
 20
94.742414
 30
0.0
 10
142.620740
 20
94.768327
 30
0.0
  0
LINE
  5
400
100
AcDbEntity
  8
0
 62
7
100
AcDbLine
 10
142.620740
 20
94.768327
 30
0.0
 11
142.620740
 21
100.674783
 31
0.0
  0
SPLINE
  5
401
100
AcDbEntity
  8
0
 62
7
100
AcDbSpline
 70
8
 71
3
 72
8
 73
4
 74
0
 40
0
 40
0
 40
0
 40
0
 40
1
 40
1
 40
1
 40
1
 10
142.620740
 20
100.674783
 30
0.0
 10
142.620740
 20
100.700695
 30
0.0
 10
142.641589
 20
100.721555
 30
0.0
 10
142.667511
 20
100.721555
 30
0.0
  0
LINE
  5
402
100
AcDbEntity
  8
0
 62
7
100
AcDbLine
 10
142.667511
 20
100.721555
 30
0.0
 11
146.573971
 21
100.721555
 31
0.0
  0
SPLINE
  5
403
100
AcDbEntity
  8
0
 62
7
100
AcDbSpline
 70
8
 71
3
 72
8
 73
4
 74
0
 40
0
 40
0
 40
0
 40
0
 40
1
 40
1
 40
1
 40
1
 10
146.573971
 20
100.721555
 30
0.0
 10
146.599865
 20
100.721555
 30
0.0
 10
146.620746
 20
100.700696
 30
0.0
 10
146.620746
 20
100.674783
 30
0.0
  0
LINE
  5
404
100
AcDbEntity
  8
0
 62
7
100
AcDbLine
 10
146.620746
 20
100.674783
 30
0.0
 11
146.620746
 21
94.768327
 31
0.0
  0
SPLINE
  5
405
100
AcDbEntity
  8
0
 62
7
100
AcDbSpline
 70
8
 71
3
 72
8
 73
4
 74
0
 40
0
 40
0
 40
0
 40
0
 40
1
 40
1
 40
1
 40
1
 10
146.620746
 20
94.768327
 30
0.0
 10
146.620746
 20
94.742416
 30
0.0
 10
146.599897
 20
94.721555
 30
0.0
 10
146.573971
 20
94.721555
 30
0.0
  0
LINE
  5
406
100
AcDbEntity
  8
0
 62
7
100
AcDbLine
 10
146.573971
 20
94.721555
 30
0.0
 11
146.573971
 21
94.721555
 31
0.0
  0
LINE
  5
407
100
AcDbEntity
  8
0
 62
7
100
AcDbLine
 10
146.573971
 20
108.721555
 30
0.0
 11
142.667511
 21
108.721555
 31
0.0
  0
SPLINE
  5
408
100
AcDbEntity
  8
0
 62
7
100
AcDbSpline
 70
8
 71
3
 72
8
 73
4
 74
0
 40
0
 40
0
 40
0
 40
0
 40
1
 40
1
 40
1
 40
1
 10
142.667511
 20
108.721555
 30
0.0
 10
142.641618
 20
108.721555
 30
0.0
 10
142.620740
 20
108.742415
 30
0.0
 10
142.620740
 20
108.768327
 30
0.0
  0
LINE
  5
409
100
AcDbEntity
  8
0
 62
7
100
AcDbLine
 10
142.620740
 20
108.768327
 30
0.0
 11
142.620740
 21
114.674783
 31
0.0
  0
SPLINE
  5
40a
100
AcDbEntity
  8
0
 62
7
100
AcDbSpline
 70
8
 71
3
 72
8
 73
4
 74
0
 40
0
 40
0
 40
0
 40
0
 40
1
 40
1
 40
1
 40
1
 10
142.620740
 20
114.674783
 30
0.0
 10
142.620740
 20
114.700695
 30
0.0
 10
142.641589
 20
114.721555
 30
0.0
 10
142.667511
 20
114.721555
 30
0.0
  0
LINE
  5
40b
100
AcDbEntity
  8
0
 62
7
100
AcDbLine
 10
142.667511
 20
114.721555
 30
0.0
 11
146.573971
 21
114.721555
 31
0.0
  0
SPLINE
  5
40c
100
AcDbEntity
  8
0
 62
7
100
AcDbSpline
 70
8
 71
3
 72
8
 73
4
 74
0
 40
0
 40
0
 40
0
 40
0
 40
1
 40
1
 40
1
 40
1
 10
146.573971
 20
114.721555
 30
0.0
 10
146.599865
 20
114.721555
 30
0.0
 10
146.620746
 20
114.700696
 30
0.0
 10
146.620746
 20
114.674783
 30
0.0
  0
LINE
  5
40d
100
AcDbEntity
  8
0
 62
7
100
AcDbLine
 10
146.620746
 20
114.674783
 30
0.0
 11
146.620746
 21
108.768327
 31
0.0
  0
SPLINE
  5
40e
100
AcDbEntity
  8
0
 62
7
100
AcDbSpline
 70
8
 71
3
 72
8
 73
4
 74
0
 40
0
 40
0
 40
0
 40
0
 40
1
 40
1
 40
1
 40
1
 10
146.620746
 20
108.768327
 30
0.0
 10
146.620746
 20
108.742416
 30
0.0
 10
146.599897
 20
108.721555
 30
0.0
 10
146.573971
 20
108.721555
 30
0.0
  0
LINE
  5
40f
100
AcDbEntity
  8
0
 62
7
100
AcDbLine
 10
146.573971
 20
108.721555
 30
0.0
 11
146.573971
 21
108.721555
 31
0.0
  0
SPLINE
  5
410
100
AcDbEntity
  8
0
 62
7
100
AcDbSpline
 70
8
 71
3
 72
8
 73
4
 74
0
 40
0
 40
0
 40
0
 40
0
 40
1
 40
1
 40
1
 40
1
 10
152.667509
 20
83.221555
 30
0.0
 10
151.839083
 20
83.221556
 30
0.0
 10
151.167512
 20
83.893129
 30
0.0
 10
151.167512
 20
84.721555
 30
0.0
  0
SPLINE
  5
411
100
AcDbEntity
  8
0
 62
7
100
AcDbSpline
 70
8
 71
3
 72
8
 73
4
 74
0
 40
0
 40
0
 40
0
 40
0
 40
1
 40
1
 40
1
 40
1
 10
151.167512
 20
84.721555
 30
0.0
 10
151.167512
 20
85.549981
 30
0.0
 10
151.839083
 20
86.221553
 30
0.0
 10
152.667509
 20
86.221555
 30
0.0
  0
SPLINE
  5
412
100
AcDbEntity
  8
0
 62
7
100
AcDbSpline
 70
8
 71
3
 72
8
 73
4
 74
0
 40
0
 40
0
 40
0
 40
0
 40
1
 40
1
 40
1
 40
1
 10
152.667509
 20
86.221555
 30
0.0
 10
153.065334
 20
86.221555
 30
0.0
 10
153.446865
 20
86.063520
 30
0.0
 10
153.728169
 20
85.782215
 30
0.0
  0
SPLINE
  5
413
100
AcDbEntity
  8
0
 62
7
100
AcDbSpline
 70
8
 71
3
 72
8
 73
4
 74
0
 40
0
 40
0
 40
0
 40
0
 40
1
 40
1
 40
1
 40
1
 10
153.728169
 20
85.782215
 30
0.0
 10
154.009474
 20
85.500911
 30
0.0
 10
154.167509
 20
85.119380
 30
0.0
 10
154.167509
 20
84.721555
 30
0.0
  0
SPLINE
  5
414
100
AcDbEntity
  8
0
 62
7
100
AcDbSpline
 70
8
 71
3
 72
8
 73
4
 74
0
 40
0
 40
0
 40
0
 40
0
 40
1
 40
1
 40
1
 40
1
 10
154.167509
 20
84.721555
 30
0.0
 10
154.167509
 20
84.323730
 30
0.0
 10
154.009474
 20
83.942199
 30
0.0
 10
153.728169
 20
83.660894
 30
0.0
  0
SPLINE
  5
415
100
AcDbEntity
  8
0
 62
7
100
AcDbSpline
 70
8
 71
3
 72
8
 73
4
 74
0
 40
0
 40
0
 40
0
 40
0
 40
1
 40
1
 40
1
 40
1
 10
153.728169
 20
83.660894
 30
0.0
 10
153.446865
 20
83.379590
 30
0.0
 10
153.065334
 20
83.221555
 30
0.0
 10
152.667509
 20
83.221555
 30
0.0
  0
LINE
  5
416
100
AcDbEntity
  8
0
 62
7
100
AcDbLine
 10
152.667509
 20
83.221555
 30
0.0
 11
152.667509
 21
83.221555
 31
0.0
  0
SPLINE
  5
417
100
AcDbEntity
  8
0
 62
7
100
AcDbSpline
 70
8
 71
3
 72
8
 73
4
 74
0
 40
0
 40
0
 40
0
 40
0
 40
1
 40
1
 40
1
 40
1
 10
152.667509
 20
68.221554
 30
0.0
 10
151.839083
 20
68.221556
 30
0.0
 10
151.167512
 20
68.893128
 30
0.0
 10
151.167512
 20
69.721554
 30
0.0
  0
SPLINE
  5
418
100
AcDbEntity
  8
0
 62
7
100
AcDbSpline
 70
8
 71
3
 72
8
 73
4
 74
0
 40
0
 40
0
 40
0
 40
0
 40
1
 40
1
 40
1
 40
1
 10
151.167512
 20
69.721554
 30
0.0
 10
151.167512
 20
70.549980
 30
0.0
 10
151.839083
 20
71.221552
 30
0.0
 10
152.667509
 20
71.221554
 30
0.0
  0
SPLINE
  5
419
100
AcDbEntity
  8
0
 62
7
100
AcDbSpline
 70
8
 71
3
 72
8
 73
4
 74
0
 40
0
 40
0
 40
0
 40
0
 40
1
 40
1
 40
1
 40
1
 10
152.667509
 20
71.221554
 30
0.0
 10
153.065334
 20
71.221554
 30
0.0
 10
153.446865
 20
71.063519
 30
0.0
 10
153.728169
 20
70.782214
 30
0.0
  0
SPLINE
  5
41a
100
AcDbEntity
  8
0
 62
7
100
AcDbSpline
 70
8
 71
3
 72
8
 73
4
 74
0
 40
0
 40
0
 40
0
 40
0
 40
1
 40
1
 40
1
 40
1
 10
153.728169
 20
70.782214
 30
0.0
 10
154.009474
 20
70.500910
 30
0.0
 10
154.167509
 20
70.119379
 30
0.0
 10
154.167509
 20
69.721554
 30
0.0
  0
SPLINE
  5
41b
100
AcDbEntity
  8
0
 62
7
100
AcDbSpline
 70
8
 71
3
 72
8
 73
4
 74
0
 40
0
 40
0
 40
0
 40
0
 40
1
 40
1
 40
1
 40
1
 10
154.167509
 20
69.721554
 30
0.0
 10
154.167509
 20
69.323729
 30
0.0
 10
154.009474
 20
68.942198
 30
0.0
 10
153.728169
 20
68.660894
 30
0.0
  0
SPLINE
  5
41c
100
AcDbEntity
  8
0
 62
7
100
AcDbSpline
 70
8
 71
3
 72
8
 73
4
 74
0
 40
0
 40
0
 40
0
 40
0
 40
1
 40
1
 40
1
 40
1
 10
153.728169
 20
68.660894
 30
0.0
 10
153.446865
 20
68.379589
 30
0.0
 10
153.065334
 20
68.221554
 30
0.0
 10
152.667509
 20
68.221554
 30
0.0
  0
LINE
  5
41d
100
AcDbEntity
  8
0
 62
7
100
AcDbLine
 10
152.667509
 20
68.221554
 30
0.0
 11
152.667509
 21
68.221554
 31
0.0
  0
SPLINE
  5
41e
100
AcDbEntity
  8
0
 62
7
100
AcDbSpline
 70
8
 71
3
 72
8
 73
4
 74
0
 40
0
 40
0
 40
0
 40
0
 40
1
 40
1
 40
1
 40
1
 10
152.667458
 20
83.221555
 30
0.0
 10
151.839032
 20
83.221556
 30
0.0
 10
151.167461
 20
83.893129
 30
0.0
 10
151.167461
 20
84.721555
 30
0.0
  0
SPLINE
  5
41f
100
AcDbEntity
  8
0
 62
7
100
AcDbSpline
 70
8
 71
3
 72
8
 73
4
 74
0
 40
0
 40
0
 40
0
 40
0
 40
1
 40
1
 40
1
 40
1
 10
151.167461
 20
84.721555
 30
0.0
 10
151.167461
 20
85.549981
 30
0.0
 10
151.839032
 20
86.221553
 30
0.0
 10
152.667458
 20
86.221555
 30
0.0
  0
SPLINE
  5
420
100
AcDbEntity
  8
0
 62
7
100
AcDbSpline
 70
8
 71
3
 72
8
 73
4
 74
0
 40
0
 40
0
 40
0
 40
0
 40
1
 40
1
 40
1
 40
1
 10
152.667458
 20
86.221555
 30
0.0
 10
153.065282
 20
86.221555
 30
0.0
 10
153.446813
 20
86.063520
 30
0.0
 10
153.728118
 20
85.782215
 30
0.0
  0
SPLINE
  5
421
100
AcDbEntity
  8
0
 62
7
100
AcDbSpline
 70
8
 71
3
 72
8
 73
4
 74
0
 40
0
 40
0
 40
0
 40
0
 40
1
 40
1
 40
1
 40
1
 10
153.728118
 20
85.782215
 30
0.0
 10
154.009423
 20
85.500911
 30
0.0
 10
154.167458
 20
85.119380
 30
0.0
 10
154.167458
 20
84.721555
 30
0.0
  0
SPLINE
  5
422
100
AcDbEntity
  8
0
 62
7
100
AcDbSpline
 70
8
 71
3
 72
8
 73
4
 74
0
 40
0
 40
0
 40
0
 40
0
 40
1
 40
1
 40
1
 40
1
 10
154.167458
 20
84.721555
 30
0.0
 10
154.167458
 20
84.323730
 30
0.0
 10
154.009423
 20
83.942199
 30
0.0
 10
153.728118
 20
83.660894
 30
0.0
  0
SPLINE
  5
423
100
AcDbEntity
  8
0
 62
7
100
AcDbSpline
 70
8
 71
3
 72
8
 73
4
 74
0
 40
0
 40
0
 40
0
 40
0
 40
1
 40
1
 40
1
 40
1
 10
153.728118
 20
83.660894
 30
0.0
 10
153.446814
 20
83.379590
 30
0.0
 10
153.065283
 20
83.221555
 30
0.0
 10
152.667458
 20
83.221555
 30
0.0
  0
LINE
  5
424
100
AcDbEntity
  8
0
 62
7
100
AcDbLine
 10
152.667458
 20
83.221555
 30
0.0
 11
152.667458
 21
83.221555
 31
0.0
  0
SPLINE
  5
425
100
AcDbEntity
  8
0
 62
7
100
AcDbSpline
 70
8
 71
3
 72
8
 73
4
 74
0
 40
0
 40
0
 40
0
 40
0
 40
1
 40
1
 40
1
 40
1
 10
152.667458
 20
68.221554
 30
0.0
 10
151.839032
 20
68.221556
 30
0.0
 10
151.167461
 20
68.893128
 30
0.0
 10
151.167461
 20
69.721554
 30
0.0
  0
SPLINE
  5
426
100
AcDbEntity
  8
0
 62
7
100
AcDbSpline
 70
8
 71
3
 72
8
 73
4
 74
0
 40
0
 40
0
 40
0
 40
0
 40
1
 40
1
 40
1
 40
1
 10
151.167461
 20
69.721554
 30
0.0
 10
151.167461
 20
70.549980
 30
0.0
 10
151.839032
 20
71.221552
 30
0.0
 10
152.667458
 20
71.221554
 30
0.0
  0
SPLINE
  5
427
100
AcDbEntity
  8
0
 62
7
100
AcDbSpline
 70
8
 71
3
 72
8
 73
4
 74
0
 40
0
 40
0
 40
0
 40
0
 40
1
 40
1
 40
1
 40
1
 10
152.667458
 20
71.221554
 30
0.0
 10
153.065283
 20
71.221554
 30
0.0
 10
153.446814
 20
71.063519
 30
0.0
 10
153.728118
 20
70.782214
 30
0.0
  0
SPLINE
  5
428
100
AcDbEntity
  8
0
 62
7
100
AcDbSpline
 70
8
 71
3
 72
8
 73
4
 74
0
 40
0
 40
0
 40
0
 40
0
 40
1
 40
1
 40
1
 40
1
 10
153.728118
 20
70.782214
 30
0.0
 10
154.009423
 20
70.500910
 30
0.0
 10
154.167458
 20
70.119379
 30
0.0
 10
154.167458
 20
69.721554
 30
0.0
  0
SPLINE
  5
429
100
AcDbEntity
  8
0
 62
7
100
AcDbSpline
 70
8
 71
3
 72
8
 73
4
 74
0
 40
0
 40
0
 40
0
 40
0
 40
1
 40
1
 40
1
 40
1
 10
154.167458
 20
69.721554
 30
0.0
 10
154.167458
 20
69.323729
 30
0.0
 10
154.009423
 20
68.942198
 30
0.0
 10
153.728118
 20
68.660894
 30
0.0
  0
SPLINE
  5
42a
100
AcDbEntity
  8
0
 62
7
100
AcDbSpline
 70
8
 71
3
 72
8
 73
4
 74
0
 40
0
 40
0
 40
0
 40
0
 40
1
 40
1
 40
1
 40
1
 10
153.728118
 20
68.660894
 30
0.0
 10
153.446814
 20
68.379589
 30
0.0
 10
153.065283
 20
68.221554
 30
0.0
 10
152.667458
 20
68.221554
 30
0.0
  0
LINE
  5
42b
100
AcDbEntity
  8
0
 62
7
100
AcDbLine
 10
152.667458
 20
68.221554
 30
0.0
 11
152.667458
 21
68.221554
 31
0.0
  0
LINE
  5
42c
100
AcDbEntity
  8
0
 62
7
100
AcDbLine
 10
21.805070
 20
213.797420
 30
0.0
 11
21.115190
 21
209.857615
 31
0.0
  0
LINE
  5
42d
100
AcDbEntity
  8
0
 62
7
100
AcDbLine
 10
21.115190
 20
209.857615
 30
0.0
 11
17.174861
 21
210.546960
 31
0.0
  0
LINE
  5
42e
100
AcDbEntity
  8
0
 62
7
100
AcDbLine
 10
17.174861
 20
210.546960
 30
0.0
 11
16.140301
 21
204.636724
 31
0.0
  0
LINE
  5
42f
100
AcDbEntity
  8
0
 62
7
100
AcDbLine
 10
16.140301
 20
204.636724
 30
0.0
 11
20.080627
 21
203.947379
 31
0.0
  0
LINE
  5
430
100
AcDbEntity
  8
0
 62
7
100
AcDbLine
 10
20.080627
 20
203.947379
 30
0.0
 11
18.701383
 21
196.066711
 31
0.0
  0
LINE
  5
431
100
AcDbEntity
  8
0
 62
7
100
AcDbLine
 10
18.701383
 20
196.066711
 30
0.0
 11
14.761054
 21
196.756586
 31
0.0
  0
LINE
  5
432
100
AcDbEntity
  8
0
 62
7
100
AcDbLine
 10
14.761054
 20
196.756586
 30
0.0
 11
13.726494
 21
190.846879
 31
0.0
  0
LINE
  5
433
100
AcDbEntity
  8
0
 62
7
100
AcDbLine
 10
13.726494
 20
190.846879
 30
0.0
 11
17.666822
 21
190.157004
 31
0.0
  0
LINE
  5
434
100
AcDbEntity
  8
0
 62
7
100
AcDbLine
 10
17.666822
 20
190.157004
 30
0.0
 11
16.804857
 21
185.231706
 31
0.0
  0
LINE
  5
435
100
AcDbEntity
  8
0
 62
7
100
AcDbLine
 10
16.804857
 20
185.231706
 30
0.0
 11
16.805916
 21
185.231706
 31
0.0
  0
LINE
  5
436
100
AcDbEntity
  8
0
 62
7
100
AcDbLine
 10
16.805916
 20
185.231706
 30
0.0
 11
16.804857
 21
185.231706
 31
0.0
  0
LINE
  5
437
100
AcDbEntity
  8
0
 62
7
100
AcDbLine
 10
16.804857
 20
185.231706
 30
0.0
 11
16.804857
 21
181.231973
 31
0.0
  0
LINE
  5
438
100
AcDbEntity
  8
0
 62
7
100
AcDbLine
 10
16.804857
 20
181.231973
 30
0.0
 11
26.804766
 21
181.231973
 31
0.0
  0
LINE
  5
439
100
AcDbEntity
  8
0
 62
7
100
AcDbLine
 10
26.804766
 20
181.231973
 30
0.0
 11
26.804838
 21
185.231706
 31
0.0
  0
LINE
  5
43a
100
AcDbEntity
  8
0
 62
7
100
AcDbLine
 10
26.804838
 20
185.231706
 30
0.0
 11
36.804672
 21
185.231706
 31
0.0
  0
LINE
  5
43b
100
AcDbEntity
  8
0
 62
7
100
AcDbLine
 10
36.804672
 20
185.231706
 30
0.0
 11
36.804672
 21
181.231973
 31
0.0
  0
LINE
  5
43c
100
AcDbEntity
  8
0
 62
7
100
AcDbLine
 10
36.804672
 20
181.231973
 30
0.0
 11
46.804578
 21
181.231973
 31
0.0
  0
LINE
  5
43d
100
AcDbEntity
  8
0
 62
7
100
AcDbLine
 10
46.804578
 20
181.231973
 30
0.0
 11
46.804578
 21
185.231706
 31
0.0
  0
SPLINE
  5
43e
100
AcDbEntity
  8
0
 62
7
100
AcDbSpline
 70
8
 71
3
 72
8
 73
4
 74
0
 40
0
 40
0
 40
0
 40
0
 40
1
 40
1
 40
1
 40
1
 10
46.804578
 20
185.231706
 30
0.0
 10
46.804837
 20
194.231694
 30
0.0
 10
34.858188
 20
188.816599
 30
0.0
 10
29.804837
 20
194.231694
 30
0.0
  0
SPLINE
  5
43f
100
AcDbEntity
  8
0
 62
7
100
AcDbSpline
 70
8
 71
3
 72
8
 73
4
 74
0
 40
0
 40
0
 40
0
 40
0
 40
1
 40
1
 40
1
 40
1
 10
29.804837
 20
194.231694
 30
0.0
 10
24.080680
 20
200.365635
 30
0.0
 10
31.804838
 20
211.231702
 30
0.0
 10
21.805070
 20
213.798451
 30
0.0
  0
LINE
  5
440
100
AcDbEntity
  8
0
 62
7
100
AcDbLine
 10
21.805070
 20
213.798451
 30
0.0
 11
21.805070
 21
213.797420
 31
0.0
  0
LINE
  5
441
100
AcDbEntity
  8
0
 62
7
100
AcDbLine
 10
52.666589
 20
181.193382
 30
0.0
 11
53.356467
 21
185.133187
 31
0.0
  0
LINE
  5
442
100
AcDbEntity
  8
0
 62
7
100
AcDbLine
 10
53.356467
 20
185.133187
 30
0.0
 11
57.296797
 21
184.443842
 31
0.0
  0
LINE
  5
443
100
AcDbEntity
  8
0
 62
7
100
AcDbLine
 10
57.296797
 20
184.443842
 30
0.0
 11
58.331357
 21
190.354079
 31
0.0
  0
LINE
  5
444
100
AcDbEntity
  8
0
 62
7
100
AcDbLine
 10
58.331357
 20
190.354079
 30
0.0
 11
54.391030
 21
191.043425
 31
0.0
  0
LINE
  5
445
100
AcDbEntity
  8
0
 62
7
100
AcDbLine
 10
54.391030
 20
191.043425
 30
0.0
 11
55.770275
 21
198.924092
 31
0.0
  0
LINE
  5
446
100
AcDbEntity
  8
0
 62
7
100
AcDbLine
 10
55.770275
 20
198.924092
 30
0.0
 11
59.710605
 21
198.234218
 31
0.0
  0
LINE
  5
447
100
AcDbEntity
  8
0
 62
7
100
AcDbLine
 10
59.710605
 20
198.234218
 30
0.0
 11
60.745165
 21
204.143923
 31
0.0
  0
LINE
  5
448
100
AcDbEntity
  8
0
 62
7
100
AcDbLine
 10
60.745165
 20
204.143923
 30
0.0
 11
56.804838
 21
204.833797
 31
0.0
  0
LINE
  5
449
100
AcDbEntity
  8
0
 62
7
100
AcDbLine
 10
56.804838
 20
204.833797
 30
0.0
 11
57.666801
 21
209.759097
 31
0.0
  0
LINE
  5
44a
100
AcDbEntity
  8
0
 62
7
100
AcDbLine
 10
57.666801
 20
209.759097
 30
0.0
 11
57.665743
 21
209.759097
 31
0.0
  0
LINE
  5
44b
100
AcDbEntity
  8
0
 62
7
100
AcDbLine
 10
57.665743
 20
209.759097
 30
0.0
 11
57.666801
 21
209.759097
 31
0.0
  0
LINE
  5
44c
100
AcDbEntity
  8
0
 62
7
100
AcDbLine
 10
57.666801
 20
209.759097
 30
0.0
 11
57.666801
 21
213.758828
 31
0.0
  0
LINE
  5
44d
100
AcDbEntity
  8
0
 62
7
100
AcDbLine
 10
57.666801
 20
213.758828
 30
0.0
 11
47.666892
 21
213.758828
 31
0.0
  0
LINE
  5
44e
100
AcDbEntity
  8
0
 62
7
100
AcDbLine
 10
47.666892
 20
213.758828
 30
0.0
 11
47.666821
 21
209.759097
 31
0.0
  0
LINE
  5
44f
100
AcDbEntity
  8
0
 62
7
100
AcDbLine
 10
47.666821
 20
209.759097
 30
0.0
 11
37.666986
 21
209.759097
 31
0.0
  0
LINE
  5
450
100
AcDbEntity
  8
0
 62
7
100
AcDbLine
 10
37.666986
 20
209.759097
 30
0.0
 11
37.666986
 21
213.758828
 31
0.0
  0
LINE
  5
451
100
AcDbEntity
  8
0
 62
7
100
AcDbLine
 10
37.666986
 20
213.758828
 30
0.0
 11
27.667080
 21
213.758828
 31
0.0
  0
LINE
  5
452
100
AcDbEntity
  8
0
 62
7
100
AcDbLine
 10
27.667080
 20
213.758828
 30
0.0
 11
27.667080
 21
209.759097
 31
0.0
  0
SPLINE
  5
453
100
AcDbEntity
  8
0
 62
7
100
AcDbSpline
 70
8
 71
3
 72
8
 73
4
 74
0
 40
0
 40
0
 40
0
 40
0
 40
1
 40
1
 40
1
 40
1
 10
27.667080
 20
209.759097
 30
0.0
 10
27.666823
 20
200.759108
 30
0.0
 10
39.613469
 20
206.174204
 30
0.0
 10
44.666820
 20
200.759108
 30
0.0
  0
SPLINE
  5
454
100
AcDbEntity
  8
0
 62
7
100
AcDbSpline
 70
8
 71
3
 72
8
 73
4
 74
0
 40
0
 40
0
 40
0
 40
0
 40
1
 40
1
 40
1
 40
1
 10
44.666820
 20
200.759108
 30
0.0
 10
50.390978
 20
194.625167
 30
0.0
 10
42.666821
 20
183.759100
 30
0.0
 10
52.666589
 20
181.192352
 30
0.0
  0
LINE
  5
455
100
AcDbEntity
  8
0
 62
7
100
AcDbLine
 10
52.666589
 20
181.192352
 30
0.0
 11
52.666589
 21
181.193382
 31
0.0
  0
LINE
  5
456
100
AcDbEntity
  8
0
 62
7
100
AcDbLine
 10
18.779283
 20
214.770753
 30
0.0
 11
55.233883
 21
214.770753
 31
0.0
  0
SPLINE
  5
457
100
AcDbEntity
  8
0
 62
7
100
AcDbSpline
 70
8
 71
3
 72
8
 73
4
 74
0
 40
0
 40
0
 40
0
 40
0
 40
1
 40
1
 40
1
 40
1
 10
55.233883
 20
214.770753
 30
0.0
 10
58.599846
 20
214.770753
 30
0.0
 10
61.309623
 20
212.165271
 30
0.0
 10
61.309623
 20
208.928870
 30
0.0
  0
LINE
  5
458
100
AcDbEntity
  8
0
 62
7
100
AcDbLine
 10
61.309623
 20
208.928870
 30
0.0
 11
61.309623
 21
185.561237
 31
0.0
  0
SPLINE
  5
459
100
AcDbEntity
  8
0
 62
7
100
AcDbSpline
 70
8
 71
3
 72
8
 73
4
 74
0
 40
0
 40
0
 40
0
 40
0
 40
1
 40
1
 40
1
 40
1
 10
61.309623
 20
185.561237
 30
0.0
 10
61.309623
 20
182.324833
 30
0.0
 10
58.599846
 20
179.719353
 30
0.0
 10
55.233883
 20
179.719353
 30
0.0
  0
LINE
  5
45a
100
AcDbEntity
  8
0
 62
7
100
AcDbLine
 10
55.233883
 20
179.719353
 30
0.0
 11
18.779283
 21
179.719353
 31
0.0
  0
SPLINE
  5
45b
100
AcDbEntity
  8
0
 62
7
100
AcDbSpline
 70
8
 71
3
 72
8
 73
4
 74
0
 40
0
 40
0
 40
0
 40
0
 40
1
 40
1
 40
1
 40
1
 10
18.779283
 20
179.719353
 30
0.0
 10
15.413321
 20
179.719353
 30
0.0
 10
12.703540
 20
182.324833
 30
0.0
 10
12.703540
 20
185.561237
 30
0.0
  0
LINE
  5
45c
100
AcDbEntity
  8
0
 62
7
100
AcDbLine
 10
12.703540
 20
185.561237
 30
0.0
 11
12.703540
 21
208.928870
 31
0.0
  0
SPLINE
  5
45d
100
AcDbEntity
  8
0
 62
7
100
AcDbSpline
 70
8
 71
3
 72
8
 73
4
 74
0
 40
0
 40
0
 40
0
 40
0
 40
1
 40
1
 40
1
 40
1
 10
12.703540
 20
208.928870
 30
0.0
 10
12.703540
 20
212.165271
 30
0.0
 10
15.413321
 20
214.770753
 30
0.0
 10
18.779283
 20
214.770753
 30
0.0
  0
LINE
  5
45e
100
AcDbEntity
  8
0
 62
7
100
AcDbLine
 10
18.779283
 20
214.770753
 30
0.0
 11
18.779283
 21
214.770753
 31
0.0
  0
ENDSEC
  0
SECTION
  2
OBJECTS
  0
DICTIONARY
  5
C
330
0
100
AcDbDictionary
  3
ACAD_GROUP
350
D
  3
ACAD_MLINESTYLE
350
17
  0
DICTIONARY
  5
D
330
C
100
AcDbDictionary
  0
DICTIONARY
  5
1A
330
C
100
AcDbDictionary
  0
DICTIONARY
  5
17
330
C
100
AcDbDictionary
  3
STANDARD
350
18
  0
DICTIONARY
  5
19
330
C
100
AcDbDictionary
  0
ENDSEC
  0
EOF
