  0
SECTION
  2
HEADER
  9
$ACADVER
  1
AC1014
  9
$HANDSEED
  5
FFFF
  9
$MEASUREMENT
 70
     1
  0
ENDSEC
  0
SECTION
  2
TABLES
  0
TABLE
  2
VPORT
  5
8
330
0
100
AcDbSymbolTable
 70
     4
  0
VPORT
  5
2E
330
8
100
AcDbSymbolTableRecord
100
AcDbViewportTableRecord
  2
*ACTIVE
 70
     0
 10
0.0
 20
0.0
 11
1.0
 21
1.0
 12
210.0
 22
148.5
 13
0.0
 23
0.0
 14
10.0
 24
10.0
 15
10.0
 25
10.0
 16
0.0
 26
0.0
 36
1.0
 17
0.0
 27
0.0
 37
0.0
 40
341.0
 41
1.24
 42
50.0
 43
0.0
 44
0.0
 50
0.0
 51
0.0
 71
     0
 72
   100
 73
     1
 74
     3
 75
     0
 76
     0
 77
     0
 78
     0
  0
ENDTAB
  0
TABLE
  2
LTYPE
  5
5
330
0
100
AcDbSymbolTable
 70
     1
  0
LTYPE
  5
14
330
5
100
AcDbSymbolTableRecord
100
AcDbLinetypeTableRecord
  2
BYBLOCK
 70
     0
  3

 72
    65
 73
     0
 40
0.0
  0
LTYPE
  5
15
330
5
100
AcDbSymbolTableRecord
100
AcDbLinetypeTableRecord
  2
BYLAYER
 70
     0
  3

 72
    65
 73
     0
 40
0.0
  0
LTYPE
  5
16
330
5
100
AcDbSymbolTableRecord
100
AcDbLinetypeTableRecord
  2
CONTINUOUS
 70
     0
  3
Solid line
 72
    65
 73
     0
 40
0.0
  0
ENDTAB
  0
TABLE
  2
LAYER
  5
2
100
AcDbSymbolTable
 70
1
  0
LAYER
  5
50
100
AcDbSymbolTableRecord
100
AcDbLayerTableRecord
  2
0
 70
0
  6
CONTINUOUS
  0
ENDTAB
  0
TABLE
  2
STYLE
  5
3
330
0
100
AcDbSymbolTable
 70
     1
  0
STYLE
  5
11
330
3
100
AcDbSymbolTableRecord
100
AcDbTextStyleTableRecord
  2
STANDARD
 70
     0
 40
0.0
 41
1.0
 50
0.0
 71
     0
 42
2.5
  3
txt
  4

  0
ENDTAB
  0
TABLE
  2
VIEW
  5
6
330
0
100
AcDbSymbolTable
 70
     0
  0
ENDTAB
  0
TABLE
  2
UCS
  5
7
330
0
100
AcDbSymbolTable
 70
     0
  0
ENDTAB
  0
TABLE
  2
APPID
  5
9
330
0
100
AcDbSymbolTable
 70
     2
  0
APPID
  5
12
330
9
100
AcDbSymbolTableRecord
100
AcDbRegAppTableRecord
  2
ACAD
 70
     0
  0
ENDTAB
  0
TABLE
  2
DIMSTYLE
  5
A
330
0
100
AcDbSymbolTable
 70
     1
  0
DIMSTYLE
105
27
330
A
100
AcDbSymbolTableRecord
100
AcDbDimStyleTableRecord
  2
ISO-25
 70
     0
  3

  4

  5

  6

  7

 40
1.0
 41
2.5
 42
0.625
 43
3.75
 44
1.25
 45
0.0
 46
0.0
 47
0.0
 48
0.0
140
2.5
141
2.5
142
0.0
143
0.03937007874016
144
1.0
145
0.0
146
1.0
147
0.625
 71
     0
 72
     0
 73
     0
 74
     0
 75
     0
 76
     0
 77
     1
 78
     8
170
     0
171
     3
172
     1
173
     0
174
     0
175
     0
176
     0
177
     0
178
     0
270
     2
271
     2
272
     2
273
     2
274
     3
340
11
275
     0
280
     0
281
     0
282
     0
283
     0
284
     8
285
     0
286
     0
287
     3
288
     0
  0
ENDTAB
  0
TABLE
  2
BLOCK_RECORD
  5
1
330
0
100
AcDbSymbolTable
 70
     1
  0
BLOCK_RECORD
  5
1F
330
1
100
AcDbSymbolTableRecord
100
AcDbBlockTableRecord
  2
*MODEL_SPACE
  0
BLOCK_RECORD
  5
1B
330
1
100
AcDbSymbolTableRecord
100
AcDbBlockTableRecord
  2
*PAPER_SPACE
  0
ENDTAB
  0
ENDSEC
  0
SECTION
  2
BLOCKS
  0
BLOCK
  5
20
330
1F
100
AcDbEntity
  8
0
100
AcDbBlockBegin
  2
*MODEL_SPACE
 70
     0
 10
0.0
 20
0.0
 30
0.0
  3
*MODEL_SPACE
  1

  0
ENDBLK
  5
21
330
1F
100
AcDbEntity
  8
0
100
AcDbBlockEnd
  0
BLOCK
  5
1C
330
1B
100
AcDbEntity
 67
     1
  8
0
100
AcDbBlockBegin
  2
*PAPER_SPACE
  1

  0
ENDBLK
  5
1D
330
1B
100
AcDbEntity
 67
     1
  8
0
100
AcDbBlockEnd
  0
ENDSEC
  0
SECTION
  2
ENTITIES
  0
SPLINE
  5
100
100
AcDbEntity
  8
0
 62
7
100
AcDbSpline
 70
8
 71
3
 72
8
 73
4
 74
0
 40
0
 40
0
 40
0
 40
0
 40
1
 40
1
 40
1
 40
1
 10
191.438675
 20
368.000021
 30
0.0
 10
189.762169
 20
368.000021
 30
0.0
 10
188.412502
 20
366.650346
 30
0.0
 10
188.412502
 20
364.973851
 30
0.0
  0
LINE
  5
101
100
AcDbEntity
  8
0
 62
7
100
AcDbLine
 10
188.412502
 20
364.973851
 30
0.0
 11
188.412502
 21
355.026135
 31
0.0
  0
SPLINE
  5
102
100
AcDbEntity
  8
0
 62
7
100
AcDbSpline
 70
8
 71
3
 72
8
 73
4
 74
0
 40
0
 40
0
 40
0
 40
0
 40
1
 40
1
 40
1
 40
1
 10
188.412502
 20
355.026135
 30
0.0
 10
188.412502
 20
353.349639
 30
0.0
 10
189.762169
 20
351.999965
 30
0.0
 10
191.438675
 20
351.999965
 30
0.0
  0
LINE
  5
103
100
AcDbEntity
  8
0
 62
7
100
AcDbLine
 10
191.438675
 20
351.999965
 30
0.0
 11
192.386420
 21
351.999965
 31
0.0
  0
SPLINE
  5
104
100
AcDbEntity
  8
0
 62
7
100
AcDbSpline
 70
8
 71
3
 72
8
 73
4
 74
0
 40
0
 40
0
 40
0
 40
0
 40
1
 40
1
 40
1
 40
1
 10
192.386420
 20
351.999965
 30
0.0
 10
194.062925
 20
351.999965
 30
0.0
 10
195.412593
 20
353.349639
 30
0.0
 10
195.412593
 20
355.026135
 30
0.0
  0
LINE
  5
105
100
AcDbEntity
  8
0
 62
7
100
AcDbLine
 10
195.412593
 20
355.026135
 30
0.0
 11
195.412593
 21
364.973851
 31
0.0
  0
SPLINE
  5
106
100
AcDbEntity
  8
0
 62
7
100
AcDbSpline
 70
8
 71
3
 72
8
 73
4
 74
0
 40
0
 40
0
 40
0
 40
0
 40
1
 40
1
 40
1
 40
1
 10
195.412593
 20
364.973851
 30
0.0
 10
195.412593
 20
366.650346
 30
0.0
 10
194.062925
 20
368.000021
 30
0.0
 10
192.386420
 20
368.000021
 30
0.0
  0
LINE
  5
107
100
AcDbEntity
  8
0
 62
7
100
AcDbLine
 10
192.386420
 20
368.000021
 30
0.0
 11
191.438675
 21
368.000021
 31
0.0
  0
SPLINE
  5
108
100
AcDbEntity
  8
0
 62
7
100
AcDbSpline
 70
8
 71
3
 72
8
 73
4
 74
0
 40
0
 40
0
 40
0
 40
0
 40
1
 40
1
 40
1
 40
1
 10
191.913066
 20
366.249738
 30
0.0
 10
192.741218
 20
366.249544
 30
0.0
 10
193.412519
 20
365.578243
 30
0.0
 10
193.412714
 20
364.750091
 30
0.0
  0
SPLINE
  5
109
100
AcDbEntity
  8
0
 62
7
100
AcDbSpline
 70
8
 71
3
 72
8
 73
4
 74
0
 40
0
 40
0
 40
0
 40
0
 40
1
 40
1
 40
1
 40
1
 10
193.412714
 20
364.750091
 30
0.0
 10
193.412807
 20
363.921735
 30
0.0
 10
192.741422
 20
363.250115
 30
0.0
 10
191.913066
 20
363.249921
 30
0.0
  0
SPLINE
  5
10a
100
AcDbEntity
  8
0
 62
7
100
AcDbSpline
 70
8
 71
3
 72
8
 73
4
 74
0
 40
0
 40
0
 40
0
 40
0
 40
1
 40
1
 40
1
 40
1
 10
191.913066
 20
363.249921
 30
0.0
 10
191.515182
 20
363.249876
 30
0.0
 10
191.133582
 20
363.407914
 30
0.0
 10
190.852236
 20
363.689261
 30
0.0
  0
SPLINE
  5
10b
100
AcDbEntity
  8
0
 62
7
100
AcDbSpline
 70
8
 71
3
 72
8
 73
4
 74
0
 40
0
 40
0
 40
0
 40
0
 40
1
 40
1
 40
1
 40
1
 10
190.852236
 20
363.689261
 30
0.0
 10
190.570890
 20
363.970607
 30
0.0
 10
190.412851
 20
364.352207
 30
0.0
 10
190.412896
 20
364.750091
 30
0.0
  0
SPLINE
  5
10c
100
AcDbEntity
  8
0
 62
7
100
AcDbSpline
 70
8
 71
3
 72
8
 73
4
 74
0
 40
0
 40
0
 40
0
 40
0
 40
1
 40
1
 40
1
 40
1
 10
190.412896
 20
364.750091
 30
0.0
 10
190.413091
 20
365.578446
 30
0.0
 10
191.084710
 20
366.249832
 30
0.0
 10
191.913066
 20
366.249738
 30
0.0
  0
LINE
  5
10d
100
AcDbEntity
  8
0
 62
7
100
AcDbLine
 10
191.913066
 20
366.249738
 30
0.0
 11
191.913066
 21
366.249738
 31
0.0
  0
SPLINE
  5
10e
100
AcDbEntity
  8
0
 62
7
100
AcDbSpline
 70
8
 71
3
 72
8
 73
4
 74
0
 40
0
 40
0
 40
0
 40
0
 40
1
 40
1
 40
1
 40
1
 10
191.912713
 20
356.749542
 30
0.0
 10
192.741068
 20
356.749634
 30
0.0
 10
193.412685
 20
356.078249
 30
0.0
 10
193.412880
 20
355.249895
 30
0.0
  0
SPLINE
  5
10f
100
AcDbEntity
  8
0
 62
7
100
AcDbSpline
 70
8
 71
3
 72
8
 73
4
 74
0
 40
0
 40
0
 40
0
 40
0
 40
1
 40
1
 40
1
 40
1
 10
193.412880
 20
355.249895
 30
0.0
 10
193.412924
 20
354.852012
 30
0.0
 10
193.254885
 20
354.470413
 30
0.0
 10
192.973540
 20
354.189068
 30
0.0
  0
SPLINE
  5
110
100
AcDbEntity
  8
0
 62
7
100
AcDbSpline
 70
8
 71
3
 72
8
 73
4
 74
0
 40
0
 40
0
 40
0
 40
0
 40
1
 40
1
 40
1
 40
1
 10
192.973540
 20
354.189068
 30
0.0
 10
192.692194
 20
353.907723
 30
0.0
 10
192.310596
 20
353.749684
 30
0.0
 10
191.912713
 20
353.749728
 30
0.0
  0
SPLINE
  5
111
100
AcDbEntity
  8
0
 62
7
100
AcDbSpline
 70
8
 71
3
 72
8
 73
4
 74
0
 40
0
 40
0
 40
0
 40
0
 40
1
 40
1
 40
1
 40
1
 10
191.912713
 20
353.749728
 30
0.0
 10
191.514831
 20
353.749684
 30
0.0
 10
191.133232
 20
353.907723
 30
0.0
 10
190.851887
 20
354.189068
 30
0.0
  0
SPLINE
  5
112
100
AcDbEntity
  8
0
 62
7
100
AcDbSpline
 70
8
 71
3
 72
8
 73
4
 74
0
 40
0
 40
0
 40
0
 40
0
 40
1
 40
1
 40
1
 40
1
 10
190.851887
 20
354.189068
 30
0.0
 10
190.570541
 20
354.470413
 30
0.0
 10
190.412503
 20
354.852012
 30
0.0
 10
190.412547
 20
355.249895
 30
0.0
  0
SPLINE
  5
113
100
AcDbEntity
  8
0
 62
7
100
AcDbSpline
 70
8
 71
3
 72
8
 73
4
 74
0
 40
0
 40
0
 40
0
 40
0
 40
1
 40
1
 40
1
 40
1
 10
190.412547
 20
355.249895
 30
0.0
 10
190.412741
 20
356.078249
 30
0.0
 10
191.084359
 20
356.749634
 30
0.0
 10
191.912713
 20
356.749542
 30
0.0
  0
LINE
  5
114
100
AcDbEntity
  8
0
 62
7
100
AcDbLine
 10
191.912713
 20
356.749542
 30
0.0
 11
191.912713
 21
356.749542
 31
0.0
  0
SPLINE
  5
115
100
AcDbEntity
  8
0
 62
7
100
AcDbSpline
 70
8
 71
3
 72
8
 73
4
 74
0
 40
0
 40
0
 40
0
 40
0
 40
1
 40
1
 40
1
 40
1
 10
157.399854
 20
370.000395
 30
0.0
 10
151.877079
 20
370.000343
 30
0.0
 10
147.399999
 20
365.523261
 30
0.0
 10
147.399949
 20
360.000486
 30
0.0
  0
SPLINE
  5
116
100
AcDbEntity
  8
0
 62
7
100
AcDbSpline
 70
8
 71
3
 72
8
 73
4
 74
0
 40
0
 40
0
 40
0
 40
0
 40
1
 40
1
 40
1
 40
1
 10
147.399949
 20
360.000486
 30
0.0
 10
147.399999
 20
354.477711
 30
0.0
 10
151.877079
 20
350.000629
 30
0.0
 10
157.399854
 20
350.000577
 30
0.0
  0
SPLINE
  5
117
100
AcDbEntity
  8
0
 62
7
100
AcDbSpline
 70
8
 71
3
 72
8
 73
4
 74
0
 40
0
 40
0
 40
0
 40
0
 40
1
 40
1
 40
1
 40
1
 10
157.399854
 20
350.000577
 30
0.0
 10
162.922630
 20
350.000629
 30
0.0
 10
167.399710
 20
354.477711
 30
0.0
 10
167.399760
 20
360.000486
 30
0.0
  0
SPLINE
  5
118
100
AcDbEntity
  8
0
 62
7
100
AcDbSpline
 70
8
 71
3
 72
8
 73
4
 74
0
 40
0
 40
0
 40
0
 40
0
 40
1
 40
1
 40
1
 40
1
 10
167.399760
 20
360.000486
 30
0.0
 10
167.399710
 20
365.523261
 30
0.0
 10
162.922630
 20
370.000343
 30
0.0
 10
157.399854
 20
370.000395
 30
0.0
  0
LINE
  5
119
100
AcDbEntity
  8
0
 62
7
100
AcDbLine
 10
157.399854
 20
370.000395
 30
0.0
 11
157.399854
 21
370.000395
 31
0.0
  0
LINE
  5
11a
100
AcDbEntity
  8
0
 62
7
100
AcDbLine
 10
155.483693
 20
361.440701
 30
0.0
 11
159.317050
 21
361.440701
 31
0.0
  0
SPLINE
  5
11b
100
AcDbEntity
  8
0
 62
7
100
AcDbSpline
 70
8
 71
3
 72
8
 73
4
 74
0
 40
0
 40
0
 40
0
 40
0
 40
1
 40
1
 40
1
 40
1
 10
159.317050
 20
361.440701
 30
0.0
 10
159.629703
 20
361.025402
 30
0.0
 10
159.799080
 20
360.519824
 30
0.0
 10
159.799710
 20
359.999992
 30
0.0
  0
SPLINE
  5
11c
100
AcDbEntity
  8
0
 62
7
100
AcDbSpline
 70
8
 71
3
 72
8
 73
4
 74
0
 40
0
 40
0
 40
0
 40
0
 40
1
 40
1
 40
1
 40
1
 10
159.799710
 20
359.999992
 30
0.0
 10
159.798569
 20
359.480381
 30
0.0
 10
159.628838
 20
358.975171
 30
0.0
 10
159.316020
 20
358.560271
 30
0.0
  0
LINE
  5
11d
100
AcDbEntity
  8
0
 62
7
100
AcDbLine
 10
159.316020
 20
358.560271
 30
0.0
 11
155.482662
 21
358.560271
 31
0.0
  0
SPLINE
  5
11e
100
AcDbEntity
  8
0
 62
7
100
AcDbSpline
 70
8
 71
3
 72
8
 73
4
 74
0
 40
0
 40
0
 40
0
 40
0
 40
1
 40
1
 40
1
 40
1
 10
155.482662
 20
358.560271
 30
0.0
 10
155.170212
 20
358.975300
 30
0.0
 10
155.000847
 20
359.480498
 30
0.0
 10
155.000003
 20
359.999992
 30
0.0
  0
SPLINE
  5
11f
100
AcDbEntity
  8
0
 62
7
100
AcDbSpline
 70
8
 71
3
 72
8
 73
4
 74
0
 40
0
 40
0
 40
0
 40
0
 40
1
 40
1
 40
1
 40
1
 10
155.000003
 20
359.999992
 30
0.0
 10
155.000930
 20
360.519942
 30
0.0
 10
155.170671
 20
361.025531
 30
0.0
 10
155.483693
 20
361.440701
 30
0.0
  0
LINE
  5
120
100
AcDbEntity
  8
0
 62
7
100
AcDbLine
 10
155.483693
 20
361.440701
 30
0.0
 11
155.483693
 21
361.440701
 31
0.0
  0
LINE
  5
121
100
AcDbEntity
  8
0
 62
7
100
AcDbLine
 10
154.650153
 20
357.200136
 30
0.0
 11
160.150075
 21
357.200136
 31
0.0
  0
LINE
  5
122
100
AcDbEntity
  8
0
 62
7
100
AcDbLine
 10
160.150075
 20
357.200136
 30
0.0
 11
160.150075
 21
354.800295
 31
0.0
  0
LINE
  5
123
100
AcDbEntity
  8
0
 62
7
100
AcDbLine
 10
160.150075
 20
354.800295
 30
0.0
 11
154.650153
 21
354.800295
 31
0.0
  0
LINE
  5
124
100
AcDbEntity
  8
0
 62
7
100
AcDbLine
 10
154.650153
 20
354.800295
 30
0.0
 11
154.650153
 21
357.200136
 31
0.0
  0
SPLINE
  5
125
100
AcDbEntity
  8
0
 62
7
100
AcDbSpline
 70
8
 71
3
 72
8
 73
4
 74
0
 40
0
 40
0
 40
0
 40
0
 40
1
 40
1
 40
1
 40
1
 10
164.899857
 20
360.000394
 30
0.0
 10
164.899857
 20
359.602570
 30
0.0
 10
164.741822
 20
359.221038
 30
0.0
 10
164.460517
 20
358.939734
 30
0.0
  0
SPLINE
  5
126
100
AcDbEntity
  8
0
 62
7
100
AcDbSpline
 70
8
 71
3
 72
8
 73
4
 74
0
 40
0
 40
0
 40
0
 40
0
 40
1
 40
1
 40
1
 40
1
 10
164.460517
 20
358.939734
 30
0.0
 10
164.179212
 20
358.658429
 30
0.0
 10
163.797681
 20
358.500394
 30
0.0
 10
163.399856
 20
358.500394
 30
0.0
  0
SPLINE
  5
127
100
AcDbEntity
  8
0
 62
7
100
AcDbSpline
 70
8
 71
3
 72
8
 73
4
 74
0
 40
0
 40
0
 40
0
 40
0
 40
1
 40
1
 40
1
 40
1
 10
163.399856
 20
358.500394
 30
0.0
 10
163.002032
 20
358.500394
 30
0.0
 10
162.620500
 20
358.658429
 30
0.0
 10
162.339196
 20
358.939734
 30
0.0
  0
SPLINE
  5
128
100
AcDbEntity
  8
0
 62
7
100
AcDbSpline
 70
8
 71
3
 72
8
 73
4
 74
0
 40
0
 40
0
 40
0
 40
0
 40
1
 40
1
 40
1
 40
1
 10
162.339196
 20
358.939734
 30
0.0
 10
162.057891
 20
359.221038
 30
0.0
 10
161.899856
 20
359.602570
 30
0.0
 10
161.899856
 20
360.000394
 30
0.0
  0
SPLINE
  5
129
100
AcDbEntity
  8
0
 62
7
100
AcDbSpline
 70
8
 71
3
 72
8
 73
4
 74
0
 40
0
 40
0
 40
0
 40
0
 40
1
 40
1
 40
1
 40
1
 10
161.899856
 20
360.000394
 30
0.0
 10
161.899856
 20
360.398219
 30
0.0
 10
162.057891
 20
360.779750
 30
0.0
 10
162.339196
 20
361.061055
 30
0.0
  0
SPLINE
  5
12a
100
AcDbEntity
  8
0
 62
7
100
AcDbSpline
 70
8
 71
3
 72
8
 73
4
 74
0
 40
0
 40
0
 40
0
 40
0
 40
1
 40
1
 40
1
 40
1
 10
162.339196
 20
361.061055
 30
0.0
 10
162.620500
 20
361.342360
 30
0.0
 10
163.002032
 20
361.500395
 30
0.0
 10
163.399856
 20
361.500395
 30
0.0
  0
SPLINE
  5
12b
100
AcDbEntity
  8
0
 62
7
100
AcDbSpline
 70
8
 71
3
 72
8
 73
4
 74
0
 40
0
 40
0
 40
0
 40
0
 40
1
 40
1
 40
1
 40
1
 10
163.399856
 20
361.500395
 30
0.0
 10
163.797681
 20
361.500395
 30
0.0
 10
164.179212
 20
361.342360
 30
0.0
 10
164.460517
 20
361.061055
 30
0.0
  0
SPLINE
  5
12c
100
AcDbEntity
  8
0
 62
7
100
AcDbSpline
 70
8
 71
3
 72
8
 73
4
 74
0
 40
0
 40
0
 40
0
 40
0
 40
1
 40
1
 40
1
 40
1
 10
164.460517
 20
361.061055
 30
0.0
 10
164.741822
 20
360.779750
 30
0.0
 10
164.899857
 20
360.398219
 30
0.0
 10
164.899857
 20
360.000394
 30
0.0
  0
LINE
  5
12d
100
AcDbEntity
  8
0
 62
7
100
AcDbLine
 10
164.899857
 20
360.000394
 30
0.0
 11
164.899857
 21
360.000394
 31
0.0
  0
SPLINE
  5
12e
100
AcDbEntity
  8
0
 62
7
100
AcDbSpline
 70
8
 71
3
 72
8
 73
4
 74
0
 40
0
 40
0
 40
0
 40
0
 40
1
 40
1
 40
1
 40
1
 10
152.899856
 20
360.000394
 30
0.0
 10
152.899857
 20
359.602570
 30
0.0
 10
152.741821
 20
359.221038
 30
0.0
 10
152.460517
 20
358.939734
 30
0.0
  0
SPLINE
  5
12f
100
AcDbEntity
  8
0
 62
7
100
AcDbSpline
 70
8
 71
3
 72
8
 73
4
 74
0
 40
0
 40
0
 40
0
 40
0
 40
1
 40
1
 40
1
 40
1
 10
152.460517
 20
358.939734
 30
0.0
 10
152.179212
 20
358.658429
 30
0.0
 10
151.797681
 20
358.500394
 30
0.0
 10
151.399856
 20
358.500394
 30
0.0
  0
SPLINE
  5
130
100
AcDbEntity
  8
0
 62
7
100
AcDbSpline
 70
8
 71
3
 72
8
 73
4
 74
0
 40
0
 40
0
 40
0
 40
0
 40
1
 40
1
 40
1
 40
1
 10
151.399856
 20
358.500394
 30
0.0
 10
151.002031
 20
358.500394
 30
0.0
 10
150.620500
 20
358.658429
 30
0.0
 10
150.339195
 20
358.939734
 30
0.0
  0
SPLINE
  5
131
100
AcDbEntity
  8
0
 62
7
100
AcDbSpline
 70
8
 71
3
 72
8
 73
4
 74
0
 40
0
 40
0
 40
0
 40
0
 40
1
 40
1
 40
1
 40
1
 10
150.339195
 20
358.939734
 30
0.0
 10
150.057891
 20
359.221038
 30
0.0
 10
149.899855
 20
359.602570
 30
0.0
 10
149.899855
 20
360.000394
 30
0.0
  0
SPLINE
  5
132
100
AcDbEntity
  8
0
 62
7
100
AcDbSpline
 70
8
 71
3
 72
8
 73
4
 74
0
 40
0
 40
0
 40
0
 40
0
 40
1
 40
1
 40
1
 40
1
 10
149.899855
 20
360.000394
 30
0.0
 10
149.899855
 20
360.398219
 30
0.0
 10
150.057891
 20
360.779750
 30
0.0
 10
150.339195
 20
361.061055
 30
0.0
  0
SPLINE
  5
133
100
AcDbEntity
  8
0
 62
7
100
AcDbSpline
 70
8
 71
3
 72
8
 73
4
 74
0
 40
0
 40
0
 40
0
 40
0
 40
1
 40
1
 40
1
 40
1
 10
150.339195
 20
361.061055
 30
0.0
 10
150.620500
 20
361.342360
 30
0.0
 10
151.002031
 20
361.500395
 30
0.0
 10
151.399856
 20
361.500395
 30
0.0
  0
SPLINE
  5
134
100
AcDbEntity
  8
0
 62
7
100
AcDbSpline
 70
8
 71
3
 72
8
 73
4
 74
0
 40
0
 40
0
 40
0
 40
0
 40
1
 40
1
 40
1
 40
1
 10
151.399856
 20
361.500395
 30
0.0
 10
151.797681
 20
361.500395
 30
0.0
 10
152.179212
 20
361.342360
 30
0.0
 10
152.460517
 20
361.061055
 30
0.0
  0
SPLINE
  5
135
100
AcDbEntity
  8
0
 62
7
100
AcDbSpline
 70
8
 71
3
 72
8
 73
4
 74
0
 40
0
 40
0
 40
0
 40
0
 40
1
 40
1
 40
1
 40
1
 10
152.460517
 20
361.061055
 30
0.0
 10
152.741821
 20
360.779750
 30
0.0
 10
152.899857
 20
360.398219
 30
0.0
 10
152.899856
 20
360.000394
 30
0.0
  0
LINE
  5
136
100
AcDbEntity
  8
0
 62
7
100
AcDbLine
 10
152.899856
 20
360.000394
 30
0.0
 11
152.899856
 21
360.000394
 31
0.0
  0
SPLINE
  5
137
100
AcDbEntity
  8
0
 62
7
100
AcDbSpline
 70
8
 71
3
 72
8
 73
4
 74
0
 40
0
 40
0
 40
0
 40
0
 40
1
 40
1
 40
1
 40
1
 10
177.929007
 20
370.000395
 30
0.0
 10
172.406238
 20
370.000335
 30
0.0
 10
167.929166
 20
365.523256
 30
0.0
 10
167.929116
 20
360.000486
 30
0.0
  0
SPLINE
  5
138
100
AcDbEntity
  8
0
 62
7
100
AcDbSpline
 70
8
 71
3
 72
8
 73
4
 74
0
 40
0
 40
0
 40
0
 40
0
 40
1
 40
1
 40
1
 40
1
 10
167.929116
 20
360.000486
 30
0.0
 10
167.929166
 20
354.477716
 30
0.0
 10
172.406238
 20
350.000637
 30
0.0
 10
177.929007
 20
350.000577
 30
0.0
  0
SPLINE
  5
139
100
AcDbEntity
  8
0
 62
7
100
AcDbSpline
 70
8
 71
3
 72
8
 73
4
 74
0
 40
0
 40
0
 40
0
 40
0
 40
1
 40
1
 40
1
 40
1
 10
177.929007
 20
350.000577
 30
0.0
 10
183.451783
 20
350.000629
 30
0.0
 10
187.928863
 20
354.477711
 30
0.0
 10
187.928913
 20
360.000486
 30
0.0
  0
SPLINE
  5
13a
100
AcDbEntity
  8
0
 62
7
100
AcDbSpline
 70
8
 71
3
 72
8
 73
4
 74
0
 40
0
 40
0
 40
0
 40
0
 40
1
 40
1
 40
1
 40
1
 10
187.928913
 20
360.000486
 30
0.0
 10
187.928863
 20
365.523261
 30
0.0
 10
183.451783
 20
370.000343
 30
0.0
 10
177.929007
 20
370.000395
 30
0.0
  0
LINE
  5
13b
100
AcDbEntity
  8
0
 62
7
100
AcDbLine
 10
177.929007
 20
370.000395
 30
0.0
 11
177.929007
 21
370.000395
 31
0.0
  0
LINE
  5
13c
100
AcDbEntity
  8
0
 62
7
100
AcDbLine
 10
176.012860
 20
361.440701
 30
0.0
 11
179.846203
 21
361.440701
 31
0.0
  0
SPLINE
  5
13d
100
AcDbEntity
  8
0
 62
7
100
AcDbSpline
 70
8
 71
3
 72
8
 73
4
 74
0
 40
0
 40
0
 40
0
 40
0
 40
1
 40
1
 40
1
 40
1
 10
179.846203
 20
361.440701
 30
0.0
 10
180.158856
 20
361.025402
 30
0.0
 10
180.328233
 20
360.519824
 30
0.0
 10
180.328863
 20
359.999992
 30
0.0
  0
SPLINE
  5
13e
100
AcDbEntity
  8
0
 62
7
100
AcDbSpline
 70
8
 71
3
 72
8
 73
4
 74
0
 40
0
 40
0
 40
0
 40
0
 40
1
 40
1
 40
1
 40
1
 10
180.328863
 20
359.999992
 30
0.0
 10
180.327719
 20
359.480379
 30
0.0
 10
180.157984
 20
358.975170
 30
0.0
 10
179.845162
 20
358.560271
 30
0.0
  0
LINE
  5
13f
100
AcDbEntity
  8
0
 62
7
100
AcDbLine
 10
179.845162
 20
358.560271
 30
0.0
 11
176.011829
 21
358.560271
 31
0.0
  0
SPLINE
  5
140
100
AcDbEntity
  8
0
 62
7
100
AcDbSpline
 70
8
 71
3
 72
8
 73
4
 74
0
 40
0
 40
0
 40
0
 40
0
 40
1
 40
1
 40
1
 40
1
 10
176.011829
 20
358.560271
 30
0.0
 10
175.699379
 20
358.975300
 30
0.0
 10
175.530014
 20
359.480498
 30
0.0
 10
175.529169
 20
359.999992
 30
0.0
  0
SPLINE
  5
141
100
AcDbEntity
  8
0
 62
7
100
AcDbSpline
 70
8
 71
3
 72
8
 73
4
 74
0
 40
0
 40
0
 40
0
 40
0
 40
1
 40
1
 40
1
 40
1
 10
175.529169
 20
359.999992
 30
0.0
 10
175.530097
 20
360.519942
 30
0.0
 10
175.699838
 20
361.025531
 30
0.0
 10
176.012860
 20
361.440701
 30
0.0
  0
LINE
  5
142
100
AcDbEntity
  8
0
 62
7
100
AcDbLine
 10
176.012860
 20
361.440701
 30
0.0
 11
176.012860
 21
361.440701
 31
0.0
  0
LINE
  5
143
100
AcDbEntity
  8
0
 62
7
100
AcDbLine
 10
175.179323
 20
357.200136
 30
0.0
 11
180.679231
 21
357.200136
 31
0.0
  0
LINE
  5
144
100
AcDbEntity
  8
0
 62
7
100
AcDbLine
 10
180.679231
 20
357.200136
 30
0.0
 11
180.679231
 21
354.800295
 31
0.0
  0
LINE
  5
145
100
AcDbEntity
  8
0
 62
7
100
AcDbLine
 10
180.679231
 20
354.800295
 30
0.0
 11
175.179323
 21
354.800295
 31
0.0
  0
LINE
  5
146
100
AcDbEntity
  8
0
 62
7
100
AcDbLine
 10
175.179323
 20
354.800295
 30
0.0
 11
175.179323
 21
357.200136
 31
0.0
  0
SPLINE
  5
147
100
AcDbEntity
  8
0
 62
7
100
AcDbSpline
 70
8
 71
3
 72
8
 73
4
 74
0
 40
0
 40
0
 40
0
 40
0
 40
1
 40
1
 40
1
 40
1
 10
185.179007
 20
360.000398
 30
0.0
 10
185.179007
 20
359.668878
 30
0.0
 10
185.047312
 20
359.350935
 30
0.0
 10
184.812892
 20
359.116514
 30
0.0
  0
SPLINE
  5
148
100
AcDbEntity
  8
0
 62
7
100
AcDbSpline
 70
8
 71
3
 72
8
 73
4
 74
0
 40
0
 40
0
 40
0
 40
0
 40
1
 40
1
 40
1
 40
1
 10
184.812892
 20
359.116514
 30
0.0
 10
184.578472
 20
358.882094
 30
0.0
 10
184.260530
 20
358.750397
 30
0.0
 10
183.929009
 20
358.750397
 30
0.0
  0
SPLINE
  5
149
100
AcDbEntity
  8
0
 62
7
100
AcDbSpline
 70
8
 71
3
 72
8
 73
4
 74
0
 40
0
 40
0
 40
0
 40
0
 40
1
 40
1
 40
1
 40
1
 10
183.929009
 20
358.750397
 30
0.0
 10
183.597488
 20
358.750396
 30
0.0
 10
183.279545
 20
358.882092
 30
0.0
 10
183.045125
 20
359.116513
 30
0.0
  0
SPLINE
  5
14a
100
AcDbEntity
  8
0
 62
7
100
AcDbSpline
 70
8
 71
3
 72
8
 73
4
 74
0
 40
0
 40
0
 40
0
 40
0
 40
1
 40
1
 40
1
 40
1
 10
183.045125
 20
359.116513
 30
0.0
 10
182.810704
 20
359.350934
 30
0.0
 10
182.679008
 20
359.668877
 30
0.0
 10
182.679008
 20
360.000398
 30
0.0
  0
SPLINE
  5
14b
100
AcDbEntity
  8
0
 62
7
100
AcDbSpline
 70
8
 71
3
 72
8
 73
4
 74
0
 40
0
 40
0
 40
0
 40
0
 40
1
 40
1
 40
1
 40
1
 10
182.679008
 20
360.000398
 30
0.0
 10
182.679009
 20
360.331918
 30
0.0
 10
182.810705
 20
360.649860
 30
0.0
 10
183.045126
 20
360.884280
 30
0.0
  0
SPLINE
  5
14c
100
AcDbEntity
  8
0
 62
7
100
AcDbSpline
 70
8
 71
3
 72
8
 73
4
 74
0
 40
0
 40
0
 40
0
 40
0
 40
1
 40
1
 40
1
 40
1
 10
183.045126
 20
360.884280
 30
0.0
 10
183.279546
 20
361.118700
 30
0.0
 10
183.597489
 20
361.250396
 30
0.0
 10
183.929009
 20
361.250395
 30
0.0
  0
SPLINE
  5
14d
100
AcDbEntity
  8
0
 62
7
100
AcDbSpline
 70
8
 71
3
 72
8
 73
4
 74
0
 40
0
 40
0
 40
0
 40
0
 40
1
 40
1
 40
1
 40
1
 10
183.929009
 20
361.250395
 30
0.0
 10
184.619364
 20
361.250395
 30
0.0
 10
185.179006
 20
360.690752
 30
0.0
 10
185.179007
 20
360.000398
 30
0.0
  0
LINE
  5
14e
100
AcDbEntity
  8
0
 62
7
100
AcDbLine
 10
185.179007
 20
360.000398
 30
0.0
 11
185.179007
 21
360.000398
 31
0.0
  0
SPLINE
  5
14f
100
AcDbEntity
  8
0
 62
7
100
AcDbSpline
 70
8
 71
3
 72
8
 73
4
 74
0
 40
0
 40
0
 40
0
 40
0
 40
1
 40
1
 40
1
 40
1
 10
173.179006
 20
360.000398
 30
0.0
 10
173.179007
 20
359.668878
 30
0.0
 10
173.047311
 20
359.350935
 30
0.0
 10
172.812891
 20
359.116514
 30
0.0
  0
SPLINE
  5
150
100
AcDbEntity
  8
0
 62
7
100
AcDbSpline
 70
8
 71
3
 72
8
 73
4
 74
0
 40
0
 40
0
 40
0
 40
0
 40
1
 40
1
 40
1
 40
1
 10
172.812891
 20
359.116514
 30
0.0
 10
172.578471
 20
358.882094
 30
0.0
 10
172.260529
 20
358.750397
 30
0.0
 10
171.929009
 20
358.750397
 30
0.0
  0
SPLINE
  5
151
100
AcDbEntity
  8
0
 62
7
100
AcDbSpline
 70
8
 71
3
 72
8
 73
4
 74
0
 40
0
 40
0
 40
0
 40
0
 40
1
 40
1
 40
1
 40
1
 10
171.929009
 20
358.750397
 30
0.0
 10
171.597488
 20
358.750396
 30
0.0
 10
171.279545
 20
358.882092
 30
0.0
 10
171.045124
 20
359.116513
 30
0.0
  0
SPLINE
  5
152
100
AcDbEntity
  8
0
 62
7
100
AcDbSpline
 70
8
 71
3
 72
8
 73
4
 74
0
 40
0
 40
0
 40
0
 40
0
 40
1
 40
1
 40
1
 40
1
 10
171.045124
 20
359.116513
 30
0.0
 10
170.810703
 20
359.350934
 30
0.0
 10
170.679007
 20
359.668877
 30
0.0
 10
170.679008
 20
360.000398
 30
0.0
  0
SPLINE
  5
153
100
AcDbEntity
  8
0
 62
7
100
AcDbSpline
 70
8
 71
3
 72
8
 73
4
 74
0
 40
0
 40
0
 40
0
 40
0
 40
1
 40
1
 40
1
 40
1
 10
170.679008
 20
360.000398
 30
0.0
 10
170.679008
 20
360.331918
 30
0.0
 10
170.810705
 20
360.649860
 30
0.0
 10
171.045125
 20
360.884280
 30
0.0
  0
SPLINE
  5
154
100
AcDbEntity
  8
0
 62
7
100
AcDbSpline
 70
8
 71
3
 72
8
 73
4
 74
0
 40
0
 40
0
 40
0
 40
0
 40
1
 40
1
 40
1
 40
1
 10
171.045125
 20
360.884280
 30
0.0
 10
171.279546
 20
361.118700
 30
0.0
 10
171.597488
 20
361.250396
 30
0.0
 10
171.929009
 20
361.250395
 30
0.0
  0
SPLINE
  5
155
100
AcDbEntity
  8
0
 62
7
100
AcDbSpline
 70
8
 71
3
 72
8
 73
4
 74
0
 40
0
 40
0
 40
0
 40
0
 40
1
 40
1
 40
1
 40
1
 10
171.929009
 20
361.250395
 30
0.0
 10
172.619363
 20
361.250395
 30
0.0
 10
173.179005
 20
360.690752
 30
0.0
 10
173.179006
 20
360.000398
 30
0.0
  0
LINE
  5
156
100
AcDbEntity
  8
0
 62
7
100
AcDbLine
 10
173.179006
 20
360.000398
 30
0.0
 11
173.179006
 21
360.000398
 31
0.0
  0
LINE
  5
157
100
AcDbEntity
  8
0
 62
7
100
AcDbLine
 10
138.457701
 20
362.405572
 30
0.0
 11
135.577257
 21
358.571184
 31
0.0
  0
LINE
  5
158
100
AcDbEntity
  8
0
 62
7
100
AcDbLine
 10
135.577257
 20
362.404542
 30
0.0
 11
138.457701
 21
358.572215
 31
0.0
  0
LINE
  5
159
100
AcDbEntity
  8
0
 62
7
100
AcDbLine
 10
44.245767
 20
356.371928
 30
0.0
 11
43.754657
 21
356.371928
 31
0.0
  0
LINE
  5
15a
100
AcDbEntity
  8
0
 62
7
100
AcDbLine
 10
43.754657
 20
356.371928
 30
0.0
 11
43.754657
 21
356.488859
 31
0.0
  0
LINE
  5
15b
100
AcDbEntity
  8
0
 62
7
100
AcDbLine
 10
43.754657
 20
356.488859
 30
0.0
 11
43.754657
 21
356.605788
 31
0.0
  0
LINE
  5
15c
100
AcDbEntity
  8
0
 62
7
100
AcDbLine
 10
43.754657
 20
356.605788
 30
0.0
 11
43.614337
 21
356.605788
 31
0.0
  0
LINE
  5
15d
100
AcDbEntity
  8
0
 62
7
100
AcDbLine
 10
43.614337
 20
356.605788
 30
0.0
 11
43.474017
 21
356.605788
 31
0.0
  0
LINE
  5
15e
100
AcDbEntity
  8
0
 62
7
100
AcDbLine
 10
43.474017
 20
356.605788
 30
0.0
 11
43.474017
 21
356.348549
 31
0.0
  0
LINE
  5
15f
100
AcDbEntity
  8
0
 62
7
100
AcDbLine
 10
43.474017
 20
356.348549
 30
0.0
 11
43.474017
 21
356.091290
 31
0.0
  0
LINE
  5
160
100
AcDbEntity
  8
0
 62
7
100
AcDbLine
 10
43.474017
 20
356.091290
 30
0.0
 11
44.105447
 21
356.091290
 31
0.0
  0
LINE
  5
161
100
AcDbEntity
  8
0
 62
7
100
AcDbLine
 10
44.105447
 20
356.091290
 30
0.0
 11
44.736887
 21
356.091290
 31
0.0
  0
LINE
  5
162
100
AcDbEntity
  8
0
 62
7
100
AcDbLine
 10
44.736887
 20
356.091290
 30
0.0
 11
44.736887
 21
356.231596
 31
0.0
  0
LINE
  5
163
100
AcDbEntity
  8
0
 62
7
100
AcDbLine
 10
44.736887
 20
356.231596
 30
0.0
 11
44.736887
 21
356.371928
 31
0.0
  0
LINE
  5
164
100
AcDbEntity
  8
0
 62
7
100
AcDbLine
 10
44.736887
 20
356.371928
 30
0.0
 11
44.245767
 21
356.371928
 31
0.0
  0
LINE
  5
165
100
AcDbEntity
  8
0
 62
7
100
AcDbLine
 10
32.102648
 20
364.806068
 30
0.0
 11
31.611538
 21
364.806068
 31
0.0
  0
LINE
  5
166
100
AcDbEntity
  8
0
 62
7
100
AcDbLine
 10
31.611538
 20
364.806068
 30
0.0
 11
31.611538
 21
364.923000
 31
0.0
  0
LINE
  5
167
100
AcDbEntity
  8
0
 62
7
100
AcDbLine
 10
31.611538
 20
364.923000
 30
0.0
 11
31.611538
 21
365.039928
 31
0.0
  0
LINE
  5
168
100
AcDbEntity
  8
0
 62
7
100
AcDbLine
 10
31.611538
 20
365.039928
 30
0.0
 11
31.471218
 21
365.039928
 31
0.0
  0
LINE
  5
169
100
AcDbEntity
  8
0
 62
7
100
AcDbLine
 10
31.471218
 20
365.039928
 30
0.0
 11
31.330898
 21
365.039928
 31
0.0
  0
LINE
  5
16a
100
AcDbEntity
  8
0
 62
7
100
AcDbLine
 10
31.330898
 20
365.039928
 30
0.0
 11
31.330898
 21
364.782690
 31
0.0
  0
LINE
  5
16b
100
AcDbEntity
  8
0
 62
7
100
AcDbLine
 10
31.330898
 20
364.782690
 30
0.0
 11
31.330898
 21
364.525430
 31
0.0
  0
LINE
  5
16c
100
AcDbEntity
  8
0
 62
7
100
AcDbLine
 10
31.330898
 20
364.525430
 30
0.0
 11
31.962328
 21
364.525430
 31
0.0
  0
LINE
  5
16d
100
AcDbEntity
  8
0
 62
7
100
AcDbLine
 10
31.962328
 20
364.525430
 30
0.0
 11
32.593768
 21
364.525430
 31
0.0
  0
LINE
  5
16e
100
AcDbEntity
  8
0
 62
7
100
AcDbLine
 10
32.593768
 20
364.525430
 30
0.0
 11
32.593768
 21
364.665737
 31
0.0
  0
LINE
  5
16f
100
AcDbEntity
  8
0
 62
7
100
AcDbLine
 10
32.593768
 20
364.665737
 30
0.0
 11
32.593768
 21
364.806068
 31
0.0
  0
LINE
  5
170
100
AcDbEntity
  8
0
 62
7
100
AcDbLine
 10
32.593768
 20
364.806068
 30
0.0
 11
32.102648
 21
364.806068
 31
0.0
  0
LINE
  5
171
100
AcDbEntity
  8
0
 62
7
100
AcDbLine
 10
29.866746
 20
363.511797
 30
0.0
 11
29.375636
 21
363.511797
 31
0.0
  0
LINE
  5
172
100
AcDbEntity
  8
0
 62
7
100
AcDbLine
 10
29.375636
 20
363.511797
 30
0.0
 11
29.375636
 21
363.628729
 31
0.0
  0
LINE
  5
173
100
AcDbEntity
  8
0
 62
7
100
AcDbLine
 10
29.375636
 20
363.628729
 30
0.0
 11
29.375636
 21
363.745657
 31
0.0
  0
LINE
  5
174
100
AcDbEntity
  8
0
 62
7
100
AcDbLine
 10
29.375636
 20
363.745657
 30
0.0
 11
29.235316
 21
363.745657
 31
0.0
  0
LINE
  5
175
100
AcDbEntity
  8
0
 62
7
100
AcDbLine
 10
29.235316
 20
363.745657
 30
0.0
 11
29.094996
 21
363.745657
 31
0.0
  0
LINE
  5
176
100
AcDbEntity
  8
0
 62
7
100
AcDbLine
 10
29.094996
 20
363.745657
 30
0.0
 11
29.094996
 21
363.488419
 31
0.0
  0
LINE
  5
177
100
AcDbEntity
  8
0
 62
7
100
AcDbLine
 10
29.094996
 20
363.488419
 30
0.0
 11
29.094996
 21
363.231159
 31
0.0
  0
LINE
  5
178
100
AcDbEntity
  8
0
 62
7
100
AcDbLine
 10
29.094996
 20
363.231159
 30
0.0
 11
29.726426
 21
363.231159
 31
0.0
  0
LINE
  5
179
100
AcDbEntity
  8
0
 62
7
100
AcDbLine
 10
29.726426
 20
363.231159
 30
0.0
 11
30.357866
 21
363.231159
 31
0.0
  0
LINE
  5
17a
100
AcDbEntity
  8
0
 62
7
100
AcDbLine
 10
30.357866
 20
363.231159
 30
0.0
 11
30.357866
 21
363.371466
 31
0.0
  0
LINE
  5
17b
100
AcDbEntity
  8
0
 62
7
100
AcDbLine
 10
30.357866
 20
363.371466
 30
0.0
 11
30.357866
 21
363.511797
 31
0.0
  0
LINE
  5
17c
100
AcDbEntity
  8
0
 62
7
100
AcDbLine
 10
30.357866
 20
363.511797
 30
0.0
 11
29.866746
 21
363.511797
 31
0.0
  0
LINE
  5
17d
100
AcDbEntity
  8
0
 62
7
100
AcDbLine
 10
37.853720
 20
367.633935
 30
0.0
 11
37.362610
 21
367.633935
 31
0.0
  0
LINE
  5
17e
100
AcDbEntity
  8
0
 62
7
100
AcDbLine
 10
37.362610
 20
367.633935
 30
0.0
 11
37.362610
 21
367.750867
 31
0.0
  0
LINE
  5
17f
100
AcDbEntity
  8
0
 62
7
100
AcDbLine
 10
37.362610
 20
367.750867
 30
0.0
 11
37.362610
 21
367.867795
 31
0.0
  0
LINE
  5
180
100
AcDbEntity
  8
0
 62
7
100
AcDbLine
 10
37.362610
 20
367.867795
 30
0.0
 11
37.222290
 21
367.867795
 31
0.0
  0
LINE
  5
181
100
AcDbEntity
  8
0
 62
7
100
AcDbLine
 10
37.222290
 20
367.867795
 30
0.0
 11
37.081970
 21
367.867795
 31
0.0
  0
LINE
  5
182
100
AcDbEntity
  8
0
 62
7
100
AcDbLine
 10
37.081970
 20
367.867795
 30
0.0
 11
37.081970
 21
367.610556
 31
0.0
  0
LINE
  5
183
100
AcDbEntity
  8
0
 62
7
100
AcDbLine
 10
37.081970
 20
367.610556
 30
0.0
 11
37.081970
 21
367.353297
 31
0.0
  0
LINE
  5
184
100
AcDbEntity
  8
0
 62
7
100
AcDbLine
 10
37.081970
 20
367.353297
 30
0.0
 11
37.713400
 21
367.353297
 31
0.0
  0
LINE
  5
185
100
AcDbEntity
  8
0
 62
7
100
AcDbLine
 10
37.713400
 20
367.353297
 30
0.0
 11
38.344840
 21
367.353297
 31
0.0
  0
LINE
  5
186
100
AcDbEntity
  8
0
 62
7
100
AcDbLine
 10
38.344840
 20
367.353297
 30
0.0
 11
38.344840
 21
367.493603
 31
0.0
  0
LINE
  5
187
100
AcDbEntity
  8
0
 62
7
100
AcDbLine
 10
38.344840
 20
367.493603
 30
0.0
 11
38.344840
 21
367.633935
 31
0.0
  0
LINE
  5
188
100
AcDbEntity
  8
0
 62
7
100
AcDbLine
 10
38.344840
 20
367.633935
 30
0.0
 11
37.853720
 21
367.633935
 31
0.0
  0
LINE
  5
189
100
AcDbEntity
  8
0
 62
7
100
AcDbLine
 10
41.273720
 20
351.391411
 30
0.0
 11
40.782610
 21
351.391411
 31
0.0
  0
LINE
  5
18a
100
AcDbEntity
  8
0
 62
7
100
AcDbLine
 10
40.782610
 20
351.391411
 30
0.0
 11
40.782610
 21
351.508343
 31
0.0
  0
LINE
  5
18b
100
AcDbEntity
  8
0
 62
7
100
AcDbLine
 10
40.782610
 20
351.508343
 30
0.0
 11
40.782610
 21
351.625271
 31
0.0
  0
LINE
  5
18c
100
AcDbEntity
  8
0
 62
7
100
AcDbLine
 10
40.782610
 20
351.625271
 30
0.0
 11
40.642290
 21
351.625271
 31
0.0
  0
LINE
  5
18d
100
AcDbEntity
  8
0
 62
7
100
AcDbLine
 10
40.642290
 20
351.625271
 30
0.0
 11
40.501970
 21
351.625271
 31
0.0
  0
LINE
  5
18e
100
AcDbEntity
  8
0
 62
7
100
AcDbLine
 10
40.501970
 20
351.625271
 30
0.0
 11
40.501970
 21
351.368033
 31
0.0
  0
LINE
  5
18f
100
AcDbEntity
  8
0
 62
7
100
AcDbLine
 10
40.501970
 20
351.368033
 30
0.0
 11
40.501970
 21
351.110773
 31
0.0
  0
LINE
  5
190
100
AcDbEntity
  8
0
 62
7
100
AcDbLine
 10
40.501970
 20
351.110773
 30
0.0
 11
41.133400
 21
351.110773
 31
0.0
  0
LINE
  5
191
100
AcDbEntity
  8
0
 62
7
100
AcDbLine
 10
41.133400
 20
351.110773
 30
0.0
 11
41.764840
 21
351.110773
 31
0.0
  0
LINE
  5
192
100
AcDbEntity
  8
0
 62
7
100
AcDbLine
 10
41.764840
 20
351.110773
 30
0.0
 11
41.764840
 21
351.251080
 31
0.0
  0
LINE
  5
193
100
AcDbEntity
  8
0
 62
7
100
AcDbLine
 10
41.764840
 20
351.251080
 30
0.0
 11
41.764840
 21
351.391411
 31
0.0
  0
LINE
  5
194
100
AcDbEntity
  8
0
 62
7
100
AcDbLine
 10
41.764840
 20
351.391411
 30
0.0
 11
41.273720
 21
351.391411
 31
0.0
  0
LINE
  5
195
100
AcDbEntity
  8
0
 62
7
100
AcDbLine
 10
50.506355
 20
355.545451
 30
0.0
 11
51.137834
 21
355.545451
 31
0.0
  0
LINE
  5
196
100
AcDbEntity
  8
0
 62
7
100
AcDbLine
 10
51.137834
 20
355.545451
 30
0.0
 11
51.769324
 21
355.545451
 31
0.0
  0
LINE
  5
197
100
AcDbEntity
  8
0
 62
7
100
AcDbLine
 10
51.769324
 20
355.545451
 30
0.0
 11
51.769324
 21
355.218337
 31
0.0
  0
LINE
  5
198
100
AcDbEntity
  8
0
 62
7
100
AcDbLine
 10
51.769324
 20
355.218337
 30
0.0
 11
51.769324
 21
354.890709
 31
0.0
  0
LINE
  5
199
100
AcDbEntity
  8
0
 62
7
100
AcDbLine
 10
51.769324
 20
354.890709
 30
0.0
 11
51.137834
 21
354.890709
 31
0.0
  0
LINE
  5
19a
100
AcDbEntity
  8
0
 62
7
100
AcDbLine
 10
51.137834
 20
354.890709
 30
0.0
 11
50.506355
 21
354.890709
 31
0.0
  0
LINE
  5
19b
100
AcDbEntity
  8
0
 62
7
100
AcDbLine
 10
50.506355
 20
354.890709
 30
0.0
 11
50.506355
 21
355.218337
 31
0.0
  0
LINE
  5
19c
100
AcDbEntity
  8
0
 62
7
100
AcDbLine
 10
50.506355
 20
355.218337
 30
0.0
 11
50.506355
 21
355.545451
 31
0.0
  0
LINE
  5
19d
100
AcDbEntity
  8
0
 62
7
100
AcDbLine
 10
50.707893
 20
355.349599
 30
0.0
 11
50.707893
 21
355.103618
 31
0.0
  0
LINE
  5
19e
100
AcDbEntity
  8
0
 62
7
100
AcDbLine
 10
50.707893
 20
355.103618
 30
0.0
 11
51.567274
 21
355.103618
 31
0.0
  0
LINE
  5
19f
100
AcDbEntity
  8
0
 62
7
100
AcDbLine
 10
51.567274
 20
355.103618
 30
0.0
 11
51.567274
 21
355.349599
 31
0.0
  0
LINE
  5
1a0
100
AcDbEntity
  8
0
 62
7
100
AcDbLine
 10
51.567274
 20
355.349599
 30
0.0
 11
50.707893
 21
355.349599
 31
0.0
  0
LINE
  5
1a1
100
AcDbEntity
  8
0
 62
7
100
AcDbLine
 10
47.367962
 20
356.265082
 30
0.0
 11
47.999442
 21
356.265082
 31
0.0
  0
LINE
  5
1a2
100
AcDbEntity
  8
0
 62
7
100
AcDbLine
 10
47.999442
 20
356.265082
 30
0.0
 11
48.630932
 21
356.265082
 31
0.0
  0
LINE
  5
1a3
100
AcDbEntity
  8
0
 62
7
100
AcDbLine
 10
48.630932
 20
356.265082
 30
0.0
 11
48.630932
 21
355.937969
 31
0.0
  0
LINE
  5
1a4
100
AcDbEntity
  8
0
 62
7
100
AcDbLine
 10
48.630932
 20
355.937969
 30
0.0
 11
48.630932
 21
355.610341
 31
0.0
  0
LINE
  5
1a5
100
AcDbEntity
  8
0
 62
7
100
AcDbLine
 10
48.630932
 20
355.610341
 30
0.0
 11
47.999442
 21
355.610341
 31
0.0
  0
LINE
  5
1a6
100
AcDbEntity
  8
0
 62
7
100
AcDbLine
 10
47.999442
 20
355.610341
 30
0.0
 11
47.367962
 21
355.610341
 31
0.0
  0
LINE
  5
1a7
100
AcDbEntity
  8
0
 62
7
100
AcDbLine
 10
47.367962
 20
355.610341
 30
0.0
 11
47.367962
 21
355.937969
 31
0.0
  0
LINE
  5
1a8
100
AcDbEntity
  8
0
 62
7
100
AcDbLine
 10
47.367962
 20
355.937969
 30
0.0
 11
47.367962
 21
356.265082
 31
0.0
  0
LINE
  5
1a9
100
AcDbEntity
  8
0
 62
7
100
AcDbLine
 10
47.569502
 20
356.069230
 30
0.0
 11
47.569502
 21
355.823249
 31
0.0
  0
LINE
  5
1aa
100
AcDbEntity
  8
0
 62
7
100
AcDbLine
 10
47.569502
 20
355.823249
 30
0.0
 11
48.428882
 21
355.823249
 31
0.0
  0
LINE
  5
1ab
100
AcDbEntity
  8
0
 62
7
100
AcDbLine
 10
48.428882
 20
355.823249
 30
0.0
 11
48.428882
 21
356.069230
 31
0.0
  0
LINE
  5
1ac
100
AcDbEntity
  8
0
 62
7
100
AcDbLine
 10
48.428882
 20
356.069230
 30
0.0
 11
47.569502
 21
356.069230
 31
0.0
  0
LINE
  5
1ad
100
AcDbEntity
  8
0
 62
7
100
AcDbLine
 10
31.354649
 20
355.705682
 30
0.0
 11
31.986129
 21
355.705682
 31
0.0
  0
LINE
  5
1ae
100
AcDbEntity
  8
0
 62
7
100
AcDbLine
 10
31.986129
 20
355.705682
 30
0.0
 11
32.617619
 21
355.705682
 31
0.0
  0
LINE
  5
1af
100
AcDbEntity
  8
0
 62
7
100
AcDbLine
 10
32.617619
 20
355.705682
 30
0.0
 11
32.617619
 21
355.378569
 31
0.0
  0
LINE
  5
1b0
100
AcDbEntity
  8
0
 62
7
100
AcDbLine
 10
32.617619
 20
355.378569
 30
0.0
 11
32.617619
 21
355.050941
 31
0.0
  0
LINE
  5
1b1
100
AcDbEntity
  8
0
 62
7
100
AcDbLine
 10
32.617619
 20
355.050941
 30
0.0
 11
31.986129
 21
355.050941
 31
0.0
  0
LINE
  5
1b2
100
AcDbEntity
  8
0
 62
7
100
AcDbLine
 10
31.986129
 20
355.050941
 30
0.0
 11
31.354649
 21
355.050941
 31
0.0
  0
LINE
  5
1b3
100
AcDbEntity
  8
0
 62
7
100
AcDbLine
 10
31.354649
 20
355.050941
 30
0.0
 11
31.354649
 21
355.378569
 31
0.0
  0
LINE
  5
1b4
100
AcDbEntity
  8
0
 62
7
100
AcDbLine
 10
31.354649
 20
355.378569
 30
0.0
 11
31.354649
 21
355.705682
 31
0.0
  0
LINE
  5
1b5
100
AcDbEntity
  8
0
 62
7
100
AcDbLine
 10
31.556189
 20
355.509831
 30
0.0
 11
31.556189
 21
355.263849
 31
0.0
  0
LINE
  5
1b6
100
AcDbEntity
  8
0
 62
7
100
AcDbLine
 10
31.556189
 20
355.263849
 30
0.0
 11
32.415569
 21
355.263849
 31
0.0
  0
LINE
  5
1b7
100
AcDbEntity
  8
0
 62
7
100
AcDbLine
 10
32.415569
 20
355.263849
 30
0.0
 11
32.415569
 21
355.509831
 31
0.0
  0
LINE
  5
1b8
100
AcDbEntity
  8
0
 62
7
100
AcDbLine
 10
32.415569
 20
355.509831
 30
0.0
 11
31.556189
 21
355.509831
 31
0.0
  0
LINE
  5
1b9
100
AcDbEntity
  8
0
 62
7
100
AcDbLine
 10
41.592782
 20
370.158353
 30
0.0
 11
42.224262
 21
370.158353
 31
0.0
  0
LINE
  5
1ba
100
AcDbEntity
  8
0
 62
7
100
AcDbLine
 10
42.224262
 20
370.158353
 30
0.0
 11
42.855752
 21
370.158353
 31
0.0
  0
LINE
  5
1bb
100
AcDbEntity
  8
0
 62
7
100
AcDbLine
 10
42.855752
 20
370.158353
 30
0.0
 11
42.855752
 21
369.831239
 31
0.0
  0
LINE
  5
1bc
100
AcDbEntity
  8
0
 62
7
100
AcDbLine
 10
42.855752
 20
369.831239
 30
0.0
 11
42.855752
 21
369.503611
 31
0.0
  0
LINE
  5
1bd
100
AcDbEntity
  8
0
 62
7
100
AcDbLine
 10
42.855752
 20
369.503611
 30
0.0
 11
42.224262
 21
369.503611
 31
0.0
  0
LINE
  5
1be
100
AcDbEntity
  8
0
 62
7
100
AcDbLine
 10
42.224262
 20
369.503611
 30
0.0
 11
41.592782
 21
369.503611
 31
0.0
  0
LINE
  5
1bf
100
AcDbEntity
  8
0
 62
7
100
AcDbLine
 10
41.592782
 20
369.503611
 30
0.0
 11
41.592782
 21
369.831239
 31
0.0
  0
LINE
  5
1c0
100
AcDbEntity
  8
0
 62
7
100
AcDbLine
 10
41.592782
 20
369.831239
 30
0.0
 11
41.592782
 21
370.158353
 31
0.0
  0
LINE
  5
1c1
100
AcDbEntity
  8
0
 62
7
100
AcDbLine
 10
41.794322
 20
369.962501
 30
0.0
 11
41.794322
 21
369.716520
 31
0.0
  0
LINE
  5
1c2
100
AcDbEntity
  8
0
 62
7
100
AcDbLine
 10
41.794322
 20
369.716520
 30
0.0
 11
42.653702
 21
369.716520
 31
0.0
  0
LINE
  5
1c3
100
AcDbEntity
  8
0
 62
7
100
AcDbLine
 10
42.653702
 20
369.716520
 30
0.0
 11
42.653702
 21
369.962501
 31
0.0
  0
LINE
  5
1c4
100
AcDbEntity
  8
0
 62
7
100
AcDbLine
 10
42.653702
 20
369.962501
 30
0.0
 11
41.794322
 21
369.962501
 31
0.0
  0
LINE
  5
1c5
100
AcDbEntity
  8
0
 62
7
100
AcDbLine
 10
23.172187
 20
361.468131
 30
0.0
 11
23.803667
 21
361.468131
 31
0.0
  0
LINE
  5
1c6
100
AcDbEntity
  8
0
 62
7
100
AcDbLine
 10
23.803667
 20
361.468131
 30
0.0
 11
24.435157
 21
361.468131
 31
0.0
  0
LINE
  5
1c7
100
AcDbEntity
  8
0
 62
7
100
AcDbLine
 10
24.435157
 20
361.468131
 30
0.0
 11
24.435157
 21
361.141018
 31
0.0
  0
LINE
  5
1c8
100
AcDbEntity
  8
0
 62
7
100
AcDbLine
 10
24.435157
 20
361.141018
 30
0.0
 11
24.435157
 21
360.813389
 31
0.0
  0
LINE
  5
1c9
100
AcDbEntity
  8
0
 62
7
100
AcDbLine
 10
24.435157
 20
360.813389
 30
0.0
 11
23.803667
 21
360.813389
 31
0.0
  0
LINE
  5
1ca
100
AcDbEntity
  8
0
 62
7
100
AcDbLine
 10
23.803667
 20
360.813389
 30
0.0
 11
23.172187
 21
360.813389
 31
0.0
  0
LINE
  5
1cb
100
AcDbEntity
  8
0
 62
7
100
AcDbLine
 10
23.172187
 20
360.813389
 30
0.0
 11
23.172187
 21
361.141018
 31
0.0
  0
LINE
  5
1cc
100
AcDbEntity
  8
0
 62
7
100
AcDbLine
 10
23.172187
 20
361.141018
 30
0.0
 11
23.172187
 21
361.468131
 31
0.0
  0
LINE
  5
1cd
100
AcDbEntity
  8
0
 62
7
100
AcDbLine
 10
23.373727
 20
361.272279
 30
0.0
 11
23.373727
 21
361.026298
 31
0.0
  0
LINE
  5
1ce
100
AcDbEntity
  8
0
 62
7
100
AcDbLine
 10
23.373727
 20
361.026298
 30
0.0
 11
24.233107
 21
361.026298
 31
0.0
  0
LINE
  5
1cf
100
AcDbEntity
  8
0
 62
7
100
AcDbLine
 10
24.233107
 20
361.026298
 30
0.0
 11
24.233107
 21
361.272279
 31
0.0
  0
LINE
  5
1d0
100
AcDbEntity
  8
0
 62
7
100
AcDbLine
 10
24.233107
 20
361.272279
 30
0.0
 11
23.373727
 21
361.272279
 31
0.0
  0
LINE
  5
1d1
100
AcDbEntity
  8
0
 62
7
100
AcDbLine
 10
42.486163
 20
365.271005
 30
0.0
 11
43.117643
 21
365.271005
 31
0.0
  0
LINE
  5
1d2
100
AcDbEntity
  8
0
 62
7
100
AcDbLine
 10
43.117643
 20
365.271005
 30
0.0
 11
43.749133
 21
365.271005
 31
0.0
  0
LINE
  5
1d3
100
AcDbEntity
  8
0
 62
7
100
AcDbLine
 10
43.749133
 20
365.271005
 30
0.0
 11
43.749133
 21
364.943891
 31
0.0
  0
LINE
  5
1d4
100
AcDbEntity
  8
0
 62
7
100
AcDbLine
 10
43.749133
 20
364.943891
 30
0.0
 11
43.749133
 21
364.616263
 31
0.0
  0
LINE
  5
1d5
100
AcDbEntity
  8
0
 62
7
100
AcDbLine
 10
43.749133
 20
364.616263
 30
0.0
 11
43.117643
 21
364.616263
 31
0.0
  0
LINE
  5
1d6
100
AcDbEntity
  8
0
 62
7
100
AcDbLine
 10
43.117643
 20
364.616263
 30
0.0
 11
42.486163
 21
364.616263
 31
0.0
  0
LINE
  5
1d7
100
AcDbEntity
  8
0
 62
7
100
AcDbLine
 10
42.486163
 20
364.616263
 30
0.0
 11
42.486163
 21
364.943891
 31
0.0
  0
LINE
  5
1d8
100
AcDbEntity
  8
0
 62
7
100
AcDbLine
 10
42.486163
 20
364.943891
 30
0.0
 11
42.486163
 21
365.271005
 31
0.0
  0
LINE
  5
1d9
100
AcDbEntity
  8
0
 62
7
100
AcDbLine
 10
42.687703
 20
365.075153
 30
0.0
 11
42.687703
 21
364.829172
 31
0.0
  0
LINE
  5
1da
100
AcDbEntity
  8
0
 62
7
100
AcDbLine
 10
42.687703
 20
364.829172
 30
0.0
 11
43.547083
 21
364.829172
 31
0.0
  0
LINE
  5
1db
100
AcDbEntity
  8
0
 62
7
100
AcDbLine
 10
43.547083
 20
364.829172
 30
0.0
 11
43.547083
 21
365.075153
 31
0.0
  0
LINE
  5
1dc
100
AcDbEntity
  8
0
 62
7
100
AcDbLine
 10
43.547083
 20
365.075153
 30
0.0
 11
42.687703
 21
365.075153
 31
0.0
  0
LINE
  5
1dd
100
AcDbEntity
  8
0
 62
7
100
AcDbLine
 10
23.358169
 20
359.182402
 30
0.0
 11
22.867059
 21
359.182402
 31
0.0
  0
LINE
  5
1de
100
AcDbEntity
  8
0
 62
7
100
AcDbLine
 10
22.867059
 20
359.182402
 30
0.0
 11
22.867059
 21
359.299334
 31
0.0
  0
LINE
  5
1df
100
AcDbEntity
  8
0
 62
7
100
AcDbLine
 10
22.867059
 20
359.299334
 30
0.0
 11
22.867059
 21
359.416262
 31
0.0
  0
LINE
  5
1e0
100
AcDbEntity
  8
0
 62
7
100
AcDbLine
 10
22.867059
 20
359.416262
 30
0.0
 11
22.726739
 21
359.416262
 31
0.0
  0
LINE
  5
1e1
100
AcDbEntity
  8
0
 62
7
100
AcDbLine
 10
22.726739
 20
359.416262
 30
0.0
 11
22.586419
 21
359.416262
 31
0.0
  0
LINE
  5
1e2
100
AcDbEntity
  8
0
 62
7
100
AcDbLine
 10
22.586419
 20
359.416262
 30
0.0
 11
22.586419
 21
359.159024
 31
0.0
  0
LINE
  5
1e3
100
AcDbEntity
  8
0
 62
7
100
AcDbLine
 10
22.586419
 20
359.159024
 30
0.0
 11
22.586419
 21
358.901764
 31
0.0
  0
LINE
  5
1e4
100
AcDbEntity
  8
0
 62
7
100
AcDbLine
 10
22.586419
 20
358.901764
 30
0.0
 11
23.217849
 21
358.901764
 31
0.0
  0
LINE
  5
1e5
100
AcDbEntity
  8
0
 62
7
100
AcDbLine
 10
23.217849
 20
358.901764
 30
0.0
 11
23.849289
 21
358.901764
 31
0.0
  0
LINE
  5
1e6
100
AcDbEntity
  8
0
 62
7
100
AcDbLine
 10
23.849289
 20
358.901764
 30
0.0
 11
23.849289
 21
359.042071
 31
0.0
  0
LINE
  5
1e7
100
AcDbEntity
  8
0
 62
7
100
AcDbLine
 10
23.849289
 20
359.042071
 30
0.0
 11
23.849289
 21
359.182402
 31
0.0
  0
LINE
  5
1e8
100
AcDbEntity
  8
0
 62
7
100
AcDbLine
 10
23.849289
 20
359.182402
 30
0.0
 11
23.358169
 21
359.182402
 31
0.0
  0
LINE
  5
1e9
100
AcDbEntity
  8
0
 62
7
100
AcDbLine
 10
46.723876
 20
373.355766
 30
0.0
 11
18.153526
 21
359.999991
 31
0.0
  0
LINE
  5
1ea
100
AcDbEntity
  8
0
 62
7
100
AcDbLine
 10
18.153526
 20
359.999991
 30
0.0
 11
46.723876
 21
346.644218
 31
0.0
  0
LINE
  5
1eb
100
AcDbEntity
  8
0
 62
7
100
AcDbLine
 10
46.723876
 20
346.644218
 30
0.0
 11
43.153551
 21
353.845846
 31
0.0
  0
SPLINE
  5
1ec
100
AcDbEntity
  8
0
 62
7
100
AcDbSpline
 70
8
 71
3
 72
8
 73
4
 74
0
 40
0
 40
0
 40
0
 40
0
 40
1
 40
1
 40
1
 40
1
 10
43.153551
 20
353.845846
 30
0.0
 10
68.153522
 20
354.000003
 30
0.0
 10
101.620195
 20
352.000004
 30
0.0
 10
131.164716
 20
351.976192
 30
0.0
  0
SPLINE
  5
1ed
100
AcDbEntity
  8
0
 62
7
100
AcDbSpline
 70
8
 71
3
 72
8
 73
4
 74
0
 40
0
 40
0
 40
0
 40
0
 40
1
 40
1
 40
1
 40
1
 10
131.164716
 20
351.976192
 30
0.0
 10
132.889934
 20
350.682326
 30
0.0
 10
134.987196
 20
349.980794
 30
0.0
 10
137.143680
 20
349.976315
 30
0.0
  0
SPLINE
  5
1ee
100
AcDbEntity
  8
0
 62
7
100
AcDbSpline
 70
8
 71
3
 72
8
 73
4
 74
0
 40
0
 40
0
 40
0
 40
0
 40
1
 40
1
 40
1
 40
1
 10
137.143680
 20
349.976315
 30
0.0
 10
142.120996
 20
349.982400
 30
0.0
 10
146.336181
 20
353.647991
 30
0.0
 10
147.032998
 20
358.576305
 30
0.0
  0
LINE
  5
1ef
100
AcDbEntity
  8
0
 62
7
100
AcDbLine
 10
147.032998
 20
358.576305
 30
0.0
 11
142.343878
 21
358.576305
 31
0.0
  0
LINE
  5
1f0
100
AcDbEntity
  8
0
 62
7
100
AcDbLine
 10
142.343878
 20
358.576305
 30
0.0
 11
142.343878
 21
357.226001
 31
0.0
  0
LINE
  5
1f1
100
AcDbEntity
  8
0
 62
7
100
AcDbLine
 10
142.343878
 20
357.226001
 30
0.0
 11
139.944025
 21
357.226001
 31
0.0
  0
LINE
  5
1f2
100
AcDbEntity
  8
0
 62
7
100
AcDbLine
 10
139.944025
 20
357.226001
 30
0.0
 11
139.944025
 21
358.576305
 31
0.0
  0
LINE
  5
1f3
100
AcDbEntity
  8
0
 62
7
100
AcDbLine
 10
139.944025
 20
358.576305
 30
0.0
 11
138.583903
 21
358.576305
 31
0.0
  0
LINE
  5
1f4
100
AcDbEntity
  8
0
 62
7
100
AcDbLine
 10
138.583903
 20
358.576305
 30
0.0
 11
138.583903
 21
358.060058
 31
0.0
  0
SPLINE
  5
1f5
100
AcDbEntity
  8
0
 62
7
100
AcDbSpline
 70
8
 71
3
 72
8
 73
4
 74
0
 40
0
 40
0
 40
0
 40
0
 40
1
 40
1
 40
1
 40
1
 10
138.583903
 20
358.060058
 30
0.0
 10
138.169007
 20
357.747239
 30
0.0
 10
137.663806
 20
357.576368
 30
0.0
 10
137.144196
 20
357.576368
 30
0.0
  0
SPLINE
  5
1f6
100
AcDbEntity
  8
0
 62
7
100
AcDbSpline
 70
8
 71
3
 72
8
 73
4
 74
0
 40
0
 40
0
 40
0
 40
0
 40
1
 40
1
 40
1
 40
1
 10
137.144196
 20
357.576368
 30
0.0
 10
136.624361
 20
357.576897
 30
0.0
 10
136.118766
 20
357.746368
 30
0.0
 10
135.703458
 20
358.059026
 30
0.0
  0
LINE
  5
1f7
100
AcDbEntity
  8
0
 62
7
100
AcDbLine
 10
135.703458
 20
358.059026
 30
0.0
 11
135.703458
 21
361.892384
 31
0.0
  0
SPLINE
  5
1f8
100
AcDbEntity
  8
0
 62
7
100
AcDbSpline
 70
8
 71
3
 72
8
 73
4
 74
0
 40
0
 40
0
 40
0
 40
0
 40
1
 40
1
 40
1
 40
1
 10
135.703458
 20
361.892384
 30
0.0
 10
136.118639
 20
362.205410
 30
0.0
 10
136.624245
 20
362.376074
 30
0.0
 10
137.144196
 20
362.376074
 30
0.0
  0
SPLINE
  5
1f9
100
AcDbEntity
  8
0
 62
7
100
AcDbSpline
 70
8
 71
3
 72
8
 73
4
 74
0
 40
0
 40
0
 40
0
 40
0
 40
1
 40
1
 40
1
 40
1
 10
137.144196
 20
362.376074
 30
0.0
 10
137.663687
 20
362.375280
 30
0.0
 10
138.168880
 20
362.205865
 30
0.0
 10
138.583903
 20
361.893416
 30
0.0
  0
LINE
  5
1fa
100
AcDbEntity
  8
0
 62
7
100
AcDbLine
 10
138.583903
 20
361.893416
 30
0.0
 11
138.583903
 21
361.376134
 31
0.0
  0
LINE
  5
1fb
100
AcDbEntity
  8
0
 62
7
100
AcDbLine
 10
138.583903
 20
361.376134
 30
0.0
 11
139.944025
 21
361.376134
 31
0.0
  0
LINE
  5
1fc
100
AcDbEntity
  8
0
 62
7
100
AcDbLine
 10
139.944025
 20
361.376134
 30
0.0
 11
139.944025
 21
362.725924
 31
0.0
  0
LINE
  5
1fd
100
AcDbEntity
  8
0
 62
7
100
AcDbLine
 10
139.944025
 20
362.725924
 30
0.0
 11
142.343878
 21
362.725924
 31
0.0
  0
LINE
  5
1fe
100
AcDbEntity
  8
0
 62
7
100
AcDbLine
 10
142.343878
 20
362.725924
 30
0.0
 11
142.343878
 21
361.376134
 31
0.0
  0
LINE
  5
1ff
100
AcDbEntity
  8
0
 62
7
100
AcDbLine
 10
142.343878
 20
361.376134
 30
0.0
 11
147.034549
 21
361.376134
 31
0.0
  0
SPLINE
  5
200
100
AcDbEntity
  8
0
 62
7
100
AcDbSpline
 70
8
 71
3
 72
8
 73
4
 74
0
 40
0
 40
0
 40
0
 40
0
 40
1
 40
1
 40
1
 40
1
 10
147.034549
 20
361.376134
 30
0.0
 10
146.337639
 20
366.305030
 30
0.0
 10
142.121586
 20
369.970835
 30
0.0
 10
137.143680
 20
369.976127
 30
0.0
  0
SPLINE
  5
201
100
AcDbEntity
  8
0
 62
7
100
AcDbSpline
 70
8
 71
3
 72
8
 73
4
 74
0
 40
0
 40
0
 40
0
 40
0
 40
1
 40
1
 40
1
 40
1
 10
137.143680
 20
369.976127
 30
0.0
 10
134.985958
 20
369.972396
 30
0.0
 10
132.887312
 20
369.270856
 30
0.0
 10
131.161099
 20
367.976250
 30
0.0
  0
SPLINE
  5
202
100
AcDbEntity
  8
0
 62
7
100
AcDbSpline
 70
8
 71
3
 72
8
 73
4
 74
0
 40
0
 40
0
 40
0
 40
0
 40
1
 40
1
 40
1
 40
1
 10
131.161099
 20
367.976250
 30
0.0
 10
101.620198
 20
368.000010
 30
0.0
 10
68.153522
 20
366.000008
 30
0.0
 10
43.153551
 20
366.154139
 30
0.0
  0
LINE
  5
203
100
AcDbEntity
  8
0
 62
7
100
AcDbLine
 10
43.153551
 20
366.154139
 30
0.0
 11
46.723876
 21
373.355766
 31
0.0
  0
LINE
  5
204
100
AcDbEntity
  8
0
 62
7
100
AcDbLine
 10
123.126447
 20
365.041544
 30
0.0
 11
123.326435
 21
365.041544
 31
0.0
  0
LINE
  5
205
100
AcDbEntity
  8
0
 62
7
100
AcDbLine
 10
123.326435
 20
365.041544
 30
0.0
 11
123.326435
 21
355.041638
 31
0.0
  0
LINE
  5
206
100
AcDbEntity
  8
0
 62
7
100
AcDbLine
 10
123.326435
 20
355.041638
 30
0.0
 11
123.126447
 21
355.041638
 31
0.0
  0
LINE
  5
207
100
AcDbEntity
  8
0
 62
7
100
AcDbLine
 10
123.126447
 20
355.041638
 30
0.0
 11
123.126203
 21
355.985299
 31
0.0
  0
SPLINE
  5
208
100
AcDbEntity
  8
0
 62
7
100
AcDbSpline
 70
8
 71
3
 72
8
 73
4
 74
0
 40
0
 40
0
 40
0
 40
0
 40
1
 40
1
 40
1
 40
1
 10
123.126203
 20
355.985299
 30
0.0
 10
123.126203
 20
355.985299
 30
0.0
 10
122.307934
 20
356.487835
 30
0.0
 10
122.319626
 20
357.487836
 30
0.0
  0
LINE
  5
209
100
AcDbEntity
  8
0
 62
7
100
AcDbLine
 10
122.319626
 20
357.487836
 30
0.0
 11
121.143622
 21
357.476115
 31
0.0
  0
LINE
  5
20a
100
AcDbEntity
  8
0
 62
7
100
AcDbLine
 10
121.143622
 20
357.476115
 30
0.0
 11
121.143622
 21
362.476327
 31
0.0
  0
LINE
  5
20b
100
AcDbEntity
  8
0
 62
7
100
AcDbLine
 10
121.143622
 20
362.476327
 30
0.0
 11
122.349233
 21
362.487836
 31
0.0
  0
SPLINE
  5
20c
100
AcDbEntity
  8
0
 62
7
100
AcDbSpline
 70
8
 71
3
 72
8
 73
4
 74
0
 40
0
 40
0
 40
0
 40
0
 40
1
 40
1
 40
1
 40
1
 10
122.349233
 20
362.487836
 30
0.0
 10
122.382306
 20
363.487834
 30
0.0
 10
123.126447
 20
363.761212
 30
0.0
 10
123.126447
 20
363.761212
 30
0.0
  0
LINE
  5
20d
100
AcDbEntity
  8
0
 62
7
100
AcDbLine
 10
123.126447
 20
363.761212
 30
0.0
 11
123.126447
 21
365.041544
 31
0.0
  0
LINE
  5
20e
100
AcDbEntity
  8
0
 62
7
100
AcDbLine
 10
30.600017
 20
359.452930
 30
0.0
 11
30.028870
 21
359.452930
 31
0.0
  0
LINE
  5
20f
100
AcDbEntity
  8
0
 62
7
100
AcDbLine
 10
30.028870
 20
359.452930
 30
0.0
 11
30.028870
 21
359.588919
 31
0.0
  0
LINE
  5
210
100
AcDbEntity
  8
0
 62
7
100
AcDbLine
 10
30.028870
 20
359.588919
 30
0.0
 11
30.028870
 21
359.724904
 31
0.0
  0
LINE
  5
211
100
AcDbEntity
  8
0
 62
7
100
AcDbLine
 10
30.028870
 20
359.724904
 30
0.0
 11
29.865584
 21
359.724904
 31
0.0
  0
LINE
  5
212
100
AcDbEntity
  8
0
 62
7
100
AcDbLine
 10
29.865584
 20
359.724904
 30
0.0
 11
29.702494
 21
359.724904
 31
0.0
  0
LINE
  5
213
100
AcDbEntity
  8
0
 62
7
100
AcDbLine
 10
29.702494
 20
359.724904
 30
0.0
 11
29.702494
 21
359.425727
 31
0.0
  0
LINE
  5
214
100
AcDbEntity
  8
0
 62
7
100
AcDbLine
 10
29.702494
 20
359.425727
 30
0.0
 11
29.702494
 21
359.126558
 31
0.0
  0
LINE
  5
215
100
AcDbEntity
  8
0
 62
7
100
AcDbLine
 10
29.702494
 20
359.126558
 30
0.0
 11
30.436829
 21
359.126558
 31
0.0
  0
LINE
  5
216
100
AcDbEntity
  8
0
 62
7
100
AcDbLine
 10
30.436829
 20
359.126558
 30
0.0
 11
31.171184
 21
359.126558
 31
0.0
  0
LINE
  5
217
100
AcDbEntity
  8
0
 62
7
100
AcDbLine
 10
31.171184
 20
359.126558
 30
0.0
 11
31.171184
 21
359.289746
 31
0.0
  0
LINE
  5
218
100
AcDbEntity
  8
0
 62
7
100
AcDbLine
 10
31.171184
 20
359.289746
 30
0.0
 11
31.171184
 21
359.452934
 31
0.0
  0
LINE
  5
219
100
AcDbEntity
  8
0
 62
7
100
AcDbLine
 10
31.171184
 20
359.452934
 30
0.0
 11
30.600017
 21
359.452930
 31
0.0
  0
SPLINE
  5
21a
100
AcDbEntity
  8
0
 62
7
100
AcDbSpline
 70
8
 71
3
 72
8
 73
4
 74
0
 40
0
 40
0
 40
0
 40
0
 40
1
 40
1
 40
1
 40
1
 10
32.939047
 20
360.649637
 30
0.0
 10
32.549202
 20
360.649637
 30
0.0
 10
32.531068
 20
360.652459
 30
0.0
 10
32.531068
 20
360.704060
 30
0.0
  0
SPLINE
  5
21b
100
AcDbEntity
  8
0
 62
7
100
AcDbSpline
 70
8
 71
3
 72
8
 73
4
 74
0
 40
0
 40
0
 40
0
 40
0
 40
1
 40
1
 40
1
 40
1
 10
32.531068
 20
360.704060
 30
0.0
 10
32.531068
 20
360.756070
 30
0.0
 10
32.548732
 20
360.758483
 30
0.0
 10
32.939047
 20
360.758483
 30
0.0
  0
SPLINE
  5
21c
100
AcDbEntity
  8
0
 62
7
100
AcDbSpline
 70
8
 71
3
 72
8
 73
4
 74
0
 40
0
 40
0
 40
0
 40
0
 40
1
 40
1
 40
1
 40
1
 10
32.939047
 20
360.758483
 30
0.0
 10
33.328853
 20
360.758483
 30
0.0
 10
33.346987
 20
360.755661
 30
0.0
 10
33.346987
 20
360.704060
 30
0.0
  0
SPLINE
  5
21d
100
AcDbEntity
  8
0
 62
7
100
AcDbSpline
 70
8
 71
3
 72
8
 73
4
 74
0
 40
0
 40
0
 40
0
 40
0
 40
1
 40
1
 40
1
 40
1
 10
33.346987
 20
360.704060
 30
0.0
 10
33.346987
 20
360.652053
 30
0.0
 10
33.329323
 20
360.649637
 30
0.0
 10
32.939047
 20
360.649637
 30
0.0
  0
LINE
  5
21e
100
AcDbEntity
  8
0
 62
7
100
AcDbLine
 10
32.939047
 20
360.649637
 30
0.0
 11
32.939047
 21
360.649637
 31
0.0
  0
LINE
  5
21f
100
AcDbEntity
  8
0
 62
7
100
AcDbLine
 10
32.939047
 20
361.084802
 30
0.0
 11
32.204693
 21
361.084802
 31
0.0
  0
LINE
  5
220
100
AcDbEntity
  8
0
 62
7
100
AcDbLine
 10
32.204693
 20
361.084802
 30
0.0
 11
32.204693
 21
360.704032
 31
0.0
  0
LINE
  5
221
100
AcDbEntity
  8
0
 62
7
100
AcDbLine
 10
32.204693
 20
360.704032
 30
0.0
 11
32.204693
 21
360.323261
 31
0.0
  0
LINE
  5
222
100
AcDbEntity
  8
0
 62
7
100
AcDbLine
 10
32.204693
 20
360.323261
 30
0.0
 11
32.939047
 21
360.323261
 31
0.0
  0
LINE
  5
223
100
AcDbEntity
  8
0
 62
7
100
AcDbLine
 10
32.939047
 20
360.323261
 30
0.0
 11
33.673363
 21
360.323261
 31
0.0
  0
LINE
  5
224
100
AcDbEntity
  8
0
 62
7
100
AcDbLine
 10
33.673363
 20
360.323261
 30
0.0
 11
33.673363
 21
360.704032
 31
0.0
  0
LINE
  5
225
100
AcDbEntity
  8
0
 62
7
100
AcDbLine
 10
33.673363
 20
360.704032
 30
0.0
 11
33.673363
 21
361.084802
 31
0.0
  0
LINE
  5
226
100
AcDbEntity
  8
0
 62
7
100
AcDbLine
 10
33.673363
 20
361.084802
 30
0.0
 11
32.939047
 21
361.084802
 31
0.0
  0
LINE
  5
227
100
AcDbEntity
  8
0
 62
7
100
AcDbLine
 10
35.033267
 20
358.201825
 30
0.0
 11
34.462100
 21
358.201825
 31
0.0
  0
LINE
  5
228
100
AcDbEntity
  8
0
 62
7
100
AcDbLine
 10
34.462100
 20
358.201825
 30
0.0
 11
34.462100
 21
358.337831
 31
0.0
  0
LINE
  5
229
100
AcDbEntity
  8
0
 62
7
100
AcDbLine
 10
34.462100
 20
358.337831
 30
0.0
 11
34.462100
 21
358.473817
 31
0.0
  0
LINE
  5
22a
100
AcDbEntity
  8
0
 62
7
100
AcDbLine
 10
34.462100
 20
358.473817
 30
0.0
 11
34.299010
 21
358.473817
 31
0.0
  0
LINE
  5
22b
100
AcDbEntity
  8
0
 62
7
100
AcDbLine
 10
34.299010
 20
358.473817
 30
0.0
 11
34.135921
 21
358.473817
 31
0.0
  0
LINE
  5
22c
100
AcDbEntity
  8
0
 62
7
100
AcDbLine
 10
34.135921
 20
358.473817
 30
0.0
 11
34.135921
 21
358.174636
 31
0.0
  0
LINE
  5
22d
100
AcDbEntity
  8
0
 62
7
100
AcDbLine
 10
34.135921
 20
358.174636
 30
0.0
 11
34.135921
 21
357.875460
 31
0.0
  0
LINE
  5
22e
100
AcDbEntity
  8
0
 62
7
100
AcDbLine
 10
34.135921
 20
357.875460
 30
0.0
 11
34.870275
 21
357.875460
 31
0.0
  0
LINE
  5
22f
100
AcDbEntity
  8
0
 62
7
100
AcDbLine
 10
34.870275
 20
357.875460
 30
0.0
 11
35.604590
 21
357.875460
 31
0.0
  0
LINE
  5
230
100
AcDbEntity
  8
0
 62
7
100
AcDbLine
 10
35.604590
 20
357.875460
 30
0.0
 11
35.604590
 21
358.038648
 31
0.0
  0
LINE
  5
231
100
AcDbEntity
  8
0
 62
7
100
AcDbLine
 10
35.604590
 20
358.038648
 30
0.0
 11
35.604590
 21
358.201835
 31
0.0
  0
LINE
  5
232
100
AcDbEntity
  8
0
 62
7
100
AcDbLine
 10
35.604590
 20
358.201835
 30
0.0
 11
35.033267
 21
358.201825
 31
0.0
  0
SPLINE
  5
233
100
AcDbEntity
  8
0
 62
7
100
AcDbSpline
 70
8
 71
3
 72
8
 73
4
 74
0
 40
0
 40
0
 40
0
 40
0
 40
1
 40
1
 40
1
 40
1
 10
37.358010
 20
358.664810
 30
0.0
 10
37.261451
 20
358.568273
 30
0.0
 10
37.099186
 20
358.571353
 30
0.0
 10
36.998918
 20
358.671866
 30
0.0
  0
SPLINE
  5
234
100
AcDbEntity
  8
0
 62
7
100
AcDbSpline
 70
8
 71
3
 72
8
 73
4
 74
0
 40
0
 40
0
 40
0
 40
0
 40
1
 40
1
 40
1
 40
1
 10
36.998918
 20
358.671866
 30
0.0
 10
36.834651
 20
358.836095
 30
0.0
 10
36.948087
 20
359.111970
 30
0.0
 10
37.179671
 20
359.111970
 30
0.0
  0
SPLINE
  5
235
100
AcDbEntity
  8
0
 62
7
100
AcDbSpline
 70
8
 71
3
 72
8
 73
4
 74
0
 40
0
 40
0
 40
0
 40
0
 40
1
 40
1
 40
1
 40
1
 10
37.179671
 20
359.111970
 30
0.0
 10
37.422401
 20
359.111970
 30
0.0
 10
37.531442
 20
358.838642
 30
0.0
 10
37.357872
 20
358.665068
 30
0.0
  0
LINE
  5
236
100
AcDbEntity
  8
0
 62
7
100
AcDbLine
 10
37.357872
 20
358.665068
 30
0.0
 11
37.358010
 21
358.664810
 31
0.0
  0
SPLINE
  5
237
100
AcDbEntity
  8
0
 62
7
100
AcDbSpline
 70
8
 71
3
 72
8
 73
4
 74
0
 40
0
 40
0
 40
0
 40
0
 40
1
 40
1
 40
1
 40
1
 10
37.729524
 20
359.113187
 30
0.0
 10
37.673199
 20
359.237005
 30
0.0
 10
37.512994
 20
359.389487
 30
0.0
 10
37.412589
 20
359.414685
 30
0.0
  0
LINE
  5
238
100
AcDbEntity
  8
0
 62
7
100
AcDbLine
 10
37.412589
 20
359.414685
 30
0.0
 11
37.345076
 21
359.431760
 31
0.0
  0
LINE
  5
239
100
AcDbEntity
  8
0
 62
7
100
AcDbLine
 10
37.345076
 20
359.431760
 30
0.0
 11
37.345076
 21
361.631837
 31
0.0
  0
LINE
  5
23a
100
AcDbEntity
  8
0
 62
7
100
AcDbLine
 10
37.345076
 20
361.631837
 30
0.0
 11
37.345076
 21
363.831911
 31
0.0
  0
LINE
  5
23b
100
AcDbEntity
  8
0
 62
7
100
AcDbLine
 10
37.345076
 20
363.831911
 30
0.0
 11
37.181987
 21
363.831911
 31
0.0
  0
LINE
  5
23c
100
AcDbEntity
  8
0
 62
7
100
AcDbLine
 10
37.181987
 20
363.831911
 30
0.0
 11
37.018701
 21
363.831911
 31
0.0
  0
LINE
  5
23d
100
AcDbEntity
  8
0
 62
7
100
AcDbLine
 10
37.018701
 20
363.831911
 30
0.0
 11
37.018701
 21
361.631837
 31
0.0
  0
LINE
  5
23e
100
AcDbEntity
  8
0
 62
7
100
AcDbLine
 10
37.018701
 20
361.631837
 30
0.0
 11
37.018701
 21
359.431760
 31
0.0
  0
LINE
  5
23f
100
AcDbEntity
  8
0
 62
7
100
AcDbLine
 10
37.018701
 20
359.431760
 30
0.0
 11
36.951188
 21
359.414685
 31
0.0
  0
SPLINE
  5
240
100
AcDbEntity
  8
0
 62
7
100
AcDbSpline
 70
8
 71
3
 72
8
 73
4
 74
0
 40
0
 40
0
 40
0
 40
0
 40
1
 40
1
 40
1
 40
1
 10
36.951188
 20
359.414685
 30
0.0
 10
36.850705
 20
359.389532
 30
0.0
 10
36.690520
 20
359.237012
 30
0.0
 10
36.634253
 20
359.113187
 30
0.0
  0
SPLINE
  5
241
100
AcDbEntity
  8
0
 62
7
100
AcDbSpline
 70
8
 71
3
 72
8
 73
4
 74
0
 40
0
 40
0
 40
0
 40
0
 40
1
 40
1
 40
1
 40
1
 10
36.634253
 20
359.113187
 30
0.0
 10
36.605403
 20
359.050033
 30
0.0
 10
36.584796
 20
358.941208
 30
0.0
 10
36.584796
 20
358.854577
 30
0.0
  0
SPLINE
  5
242
100
AcDbEntity
  8
0
 62
7
100
AcDbSpline
 70
8
 71
3
 72
8
 73
4
 74
0
 40
0
 40
0
 40
0
 40
0
 40
1
 40
1
 40
1
 40
1
 10
36.584796
 20
358.854577
 30
0.0
 10
36.584796
 20
358.767970
 30
0.0
 10
36.605600
 20
358.659106
 30
0.0
 10
36.634253
 20
358.595966
 30
0.0
  0
SPLINE
  5
243
100
AcDbEntity
  8
0
 62
7
100
AcDbSpline
 70
8
 71
3
 72
8
 73
4
 74
0
 40
0
 40
0
 40
0
 40
0
 40
1
 40
1
 40
1
 40
1
 10
36.634253
 20
358.595966
 30
0.0
 10
36.690579
 20
358.472127
 30
0.0
 10
36.850803
 20
358.319670
 30
0.0
 10
36.951188
 20
358.294461
 30
0.0
  0
LINE
  5
244
100
AcDbEntity
  8
0
 62
7
100
AcDbLine
 10
36.951188
 20
358.294461
 30
0.0
 11
37.018701
 21
358.277386
 31
0.0
  0
LINE
  5
245
100
AcDbEntity
  8
0
 62
7
100
AcDbLine
 10
37.018701
 20
358.277386
 30
0.0
 11
37.018701
 21
357.274012
 31
0.0
  0
LINE
  5
246
100
AcDbEntity
  8
0
 62
7
100
AcDbLine
 10
37.018701
 20
357.274012
 30
0.0
 11
37.018701
 21
356.270642
 31
0.0
  0
LINE
  5
247
100
AcDbEntity
  8
0
 62
7
100
AcDbLine
 10
37.018701
 20
356.270642
 30
0.0
 11
37.181987
 21
356.270642
 31
0.0
  0
LINE
  5
248
100
AcDbEntity
  8
0
 62
7
100
AcDbLine
 10
37.181987
 20
356.270642
 30
0.0
 11
37.345076
 21
356.270642
 31
0.0
  0
LINE
  5
249
100
AcDbEntity
  8
0
 62
7
100
AcDbLine
 10
37.345076
 20
356.270642
 30
0.0
 11
37.345076
 21
357.274012
 31
0.0
  0
LINE
  5
24a
100
AcDbEntity
  8
0
 62
7
100
AcDbLine
 10
37.345076
 20
357.274012
 30
0.0
 11
37.345076
 21
358.277383
 31
0.0
  0
LINE
  5
24b
100
AcDbEntity
  8
0
 62
7
100
AcDbLine
 10
37.345076
 20
358.277383
 30
0.0
 11
37.412589
 21
358.294457
 31
0.0
  0
SPLINE
  5
24c
100
AcDbEntity
  8
0
 62
7
100
AcDbSpline
 70
8
 71
3
 72
8
 73
4
 74
0
 40
0
 40
0
 40
0
 40
0
 40
1
 40
1
 40
1
 40
1
 10
37.412589
 20
358.294457
 30
0.0
 10
37.512876
 20
358.319681
 30
0.0
 10
37.673277
 20
358.472130
 30
0.0
 10
37.729524
 20
358.595962
 30
0.0
  0
SPLINE
  5
24d
100
AcDbEntity
  8
0
 62
7
100
AcDbSpline
 70
8
 71
3
 72
8
 73
4
 74
0
 40
0
 40
0
 40
0
 40
0
 40
1
 40
1
 40
1
 40
1
 10
37.729524
 20
358.595962
 30
0.0
 10
37.758177
 20
358.659120
 30
0.0
 10
37.778981
 20
358.767924
 30
0.0
 10
37.778981
 20
358.854573
 30
0.0
  0
SPLINE
  5
24e
100
AcDbEntity
  8
0
 62
7
100
AcDbSpline
 70
8
 71
3
 72
8
 73
4
 74
0
 40
0
 40
0
 40
0
 40
0
 40
1
 40
1
 40
1
 40
1
 10
37.778981
 20
358.854573
 30
0.0
 10
37.778981
 20
358.941180
 30
0.0
 10
37.758178
 20
359.050044
 30
0.0
 10
37.729524
 20
359.113187
 30
0.0
  0
LINE
  5
24f
100
AcDbEntity
  8
0
 62
7
100
AcDbLine
 10
37.729524
 20
359.113187
 30
0.0
 11
37.729524
 21
359.113187
 31
0.0
  0
SPLINE
  5
250
100
AcDbEntity
  8
0
 62
7
100
AcDbSpline
 70
8
 71
3
 72
8
 73
4
 74
0
 40
0
 40
0
 40
0
 40
0
 40
1
 40
1
 40
1
 40
1
 10
38.581947
 20
357.114532
 30
0.0
 10
38.485389
 20
357.017994
 30
0.0
 10
38.323103
 20
357.021074
 30
0.0
 10
38.222836
 20
357.121588
 30
0.0
  0
SPLINE
  5
251
100
AcDbEntity
  8
0
 62
7
100
AcDbSpline
 70
8
 71
3
 72
8
 73
4
 74
0
 40
0
 40
0
 40
0
 40
0
 40
1
 40
1
 40
1
 40
1
 10
38.222836
 20
357.121588
 30
0.0
 10
38.058569
 20
357.285816
 30
0.0
 10
38.172005
 20
357.561696
 30
0.0
 10
38.403589
 20
357.561696
 30
0.0
  0
SPLINE
  5
252
100
AcDbEntity
  8
0
 62
7
100
AcDbSpline
 70
8
 71
3
 72
8
 73
4
 74
0
 40
0
 40
0
 40
0
 40
0
 40
1
 40
1
 40
1
 40
1
 10
38.403589
 20
357.561696
 30
0.0
 10
38.646319
 20
357.561696
 30
0.0
 10
38.755360
 20
357.288363
 30
0.0
 10
38.581986
 20
357.114793
 30
0.0
  0
LINE
  5
253
100
AcDbEntity
  8
0
 62
7
100
AcDbLine
 10
38.581986
 20
357.114793
 30
0.0
 11
38.581947
 21
357.114532
 31
0.0
  0
SPLINE
  5
254
100
AcDbEntity
  8
0
 62
7
100
AcDbSpline
 70
8
 71
3
 72
8
 73
4
 74
0
 40
0
 40
0
 40
0
 40
0
 40
1
 40
1
 40
1
 40
1
 10
38.953442
 20
357.562909
 30
0.0
 10
38.897116
 20
357.686748
 30
0.0
 10
38.736892
 20
357.839205
 30
0.0
 10
38.636506
 20
357.864407
 30
0.0
  0
LINE
  5
255
100
AcDbEntity
  8
0
 62
7
100
AcDbLine
 10
38.636506
 20
357.864407
 30
0.0
 11
38.568994
 21
357.881481
 31
0.0
  0
LINE
  5
256
100
AcDbEntity
  8
0
 62
7
100
AcDbLine
 10
38.568994
 20
357.881481
 30
0.0
 11
38.568994
 21
361.223804
 31
0.0
  0
LINE
  5
257
100
AcDbEntity
  8
0
 62
7
100
AcDbLine
 10
38.568994
 20
361.223804
 30
0.0
 11
38.568994
 21
364.566193
 31
0.0
  0
LINE
  5
258
100
AcDbEntity
  8
0
 62
7
100
AcDbLine
 10
38.568994
 20
364.566193
 30
0.0
 11
38.405904
 21
364.566193
 31
0.0
  0
LINE
  5
259
100
AcDbEntity
  8
0
 62
7
100
AcDbLine
 10
38.405904
 20
364.566193
 30
0.0
 11
38.242815
 21
364.566193
 31
0.0
  0
LINE
  5
25a
100
AcDbEntity
  8
0
 62
7
100
AcDbLine
 10
38.242815
 20
364.566193
 30
0.0
 11
38.242815
 21
361.223804
 31
0.0
  0
LINE
  5
25b
100
AcDbEntity
  8
0
 62
7
100
AcDbLine
 10
38.242815
 20
361.223804
 30
0.0
 11
38.242815
 21
357.881411
 31
0.0
  0
LINE
  5
25c
100
AcDbEntity
  8
0
 62
7
100
AcDbLine
 10
38.242815
 20
357.881411
 30
0.0
 11
38.175302
 21
357.864336
 31
0.0
  0
SPLINE
  5
25d
100
AcDbEntity
  8
0
 62
7
100
AcDbSpline
 70
8
 71
3
 72
8
 73
4
 74
0
 40
0
 40
0
 40
0
 40
0
 40
1
 40
1
 40
1
 40
1
 10
38.175302
 20
357.864336
 30
0.0
 10
38.074819
 20
357.839183
 30
0.0
 10
37.914634
 20
357.686664
 30
0.0
 10
37.858367
 20
357.562839
 30
0.0
  0
SPLINE
  5
25e
100
AcDbEntity
  8
0
 62
7
100
AcDbSpline
 70
8
 71
3
 72
8
 73
4
 74
0
 40
0
 40
0
 40
0
 40
0
 40
1
 40
1
 40
1
 40
1
 10
37.858367
 20
357.562839
 30
0.0
 10
37.829517
 20
357.499684
 30
0.0
 10
37.808910
 20
357.390859
 30
0.0
 10
37.808910
 20
357.304228
 30
0.0
  0
SPLINE
  5
25f
100
AcDbEntity
  8
0
 62
7
100
AcDbSpline
 70
8
 71
3
 72
8
 73
4
 74
0
 40
0
 40
0
 40
0
 40
0
 40
1
 40
1
 40
1
 40
1
 10
37.808910
 20
357.304228
 30
0.0
 10
37.808910
 20
357.217621
 30
0.0
 10
37.829713
 20
357.108754
 30
0.0
 10
37.858367
 20
357.045610
 30
0.0
  0
SPLINE
  5
260
100
AcDbEntity
  8
0
 62
7
100
AcDbSpline
 70
8
 71
3
 72
8
 73
4
 74
0
 40
0
 40
0
 40
0
 40
0
 40
1
 40
1
 40
1
 40
1
 10
37.858367
 20
357.045610
 30
0.0
 10
37.914693
 20
356.921771
 30
0.0
 10
38.074897
 20
356.769318
 30
0.0
 10
38.175302
 20
356.744112
 30
0.0
  0
LINE
  5
261
100
AcDbEntity
  8
0
 62
7
100
AcDbLine
 10
38.175302
 20
356.744112
 30
0.0
 11
38.242815
 21
356.727037
 31
0.0
  0
LINE
  5
262
100
AcDbEntity
  8
0
 62
7
100
AcDbLine
 10
38.242815
 20
356.727037
 30
0.0
 11
38.242815
 21
356.186028
 31
0.0
  0
LINE
  5
263
100
AcDbEntity
  8
0
 62
7
100
AcDbLine
 10
38.242815
 20
356.186028
 30
0.0
 11
38.242815
 21
355.645019
 31
0.0
  0
LINE
  5
264
100
AcDbEntity
  8
0
 62
7
100
AcDbLine
 10
38.242815
 20
355.645019
 30
0.0
 11
38.405904
 21
355.645019
 31
0.0
  0
LINE
  5
265
100
AcDbEntity
  8
0
 62
7
100
AcDbLine
 10
38.405904
 20
355.645019
 30
0.0
 11
38.568994
 21
355.645019
 31
0.0
  0
LINE
  5
266
100
AcDbEntity
  8
0
 62
7
100
AcDbLine
 10
38.568994
 20
355.645019
 30
0.0
 11
38.568994
 21
356.186028
 31
0.0
  0
LINE
  5
267
100
AcDbEntity
  8
0
 62
7
100
AcDbLine
 10
38.568994
 20
356.186028
 30
0.0
 11
38.568994
 21
356.727037
 31
0.0
  0
LINE
  5
268
100
AcDbEntity
  8
0
 62
7
100
AcDbLine
 10
38.568994
 20
356.727037
 30
0.0
 11
38.636506
 21
356.744112
 31
0.0
  0
SPLINE
  5
269
100
AcDbEntity
  8
0
 62
7
100
AcDbSpline
 70
8
 71
3
 72
8
 73
4
 74
0
 40
0
 40
0
 40
0
 40
0
 40
1
 40
1
 40
1
 40
1
 10
38.636506
 20
356.744112
 30
0.0
 10
38.736990
 20
356.769371
 30
0.0
 10
38.897175
 20
356.921785
 30
0.0
 10
38.953442
 20
357.045610
 30
0.0
  0
SPLINE
  5
26a
100
AcDbEntity
  8
0
 62
7
100
AcDbSpline
 70
8
 71
3
 72
8
 73
4
 74
0
 40
0
 40
0
 40
0
 40
0
 40
1
 40
1
 40
1
 40
1
 10
38.953442
 20
357.045610
 30
0.0
 10
38.982292
 20
357.108764
 30
0.0
 10
39.002899
 20
357.217571
 30
0.0
 10
39.002899
 20
357.304228
 30
0.0
  0
SPLINE
  5
26b
100
AcDbEntity
  8
0
 62
7
100
AcDbSpline
 70
8
 71
3
 72
8
 73
4
 74
0
 40
0
 40
0
 40
0
 40
0
 40
1
 40
1
 40
1
 40
1
 10
39.002899
 20
357.304228
 30
0.0
 10
39.002899
 20
357.390835
 30
0.0
 10
38.982095
 20
357.499698
 30
0.0
 10
38.953442
 20
357.562839
 30
0.0
  0
LINE
  5
26c
100
AcDbEntity
  8
0
 62
7
100
AcDbLine
 10
38.953442
 20
357.562839
 30
0.0
 11
38.953442
 21
357.562909
 31
0.0
  0
SPLINE
  5
26d
100
AcDbEntity
  8
0
 62
7
100
AcDbSpline
 70
8
 71
3
 72
8
 73
4
 74
0
 40
0
 40
0
 40
0
 40
0
 40
1
 40
1
 40
1
 40
1
 10
39.941831
 20
359.970303
 30
0.0
 10
39.845273
 20
359.873766
 30
0.0
 10
39.682988
 20
359.876845
 30
0.0
 10
39.582740
 20
359.977359
 30
0.0
  0
SPLINE
  5
26e
100
AcDbEntity
  8
0
 62
7
100
AcDbSpline
 70
8
 71
3
 72
8
 73
4
 74
0
 40
0
 40
0
 40
0
 40
0
 40
1
 40
1
 40
1
 40
1
 10
39.582740
 20
359.977359
 30
0.0
 10
39.418473
 20
360.141588
 30
0.0
 10
39.531909
 20
360.417467
 30
0.0
 10
39.763493
 20
360.417467
 30
0.0
  0
SPLINE
  5
26f
100
AcDbEntity
  8
0
 62
7
100
AcDbSpline
 70
8
 71
3
 72
8
 73
4
 74
0
 40
0
 40
0
 40
0
 40
0
 40
1
 40
1
 40
1
 40
1
 10
39.763493
 20
360.417467
 30
0.0
 10
40.006223
 20
360.417467
 30
0.0
 10
40.115283
 20
360.144128
 30
0.0
 10
39.941890
 20
359.970554
 30
0.0
  0
LINE
  5
270
100
AcDbEntity
  8
0
 62
7
100
AcDbLine
 10
39.941890
 20
359.970554
 30
0.0
 11
39.941831
 21
359.970303
 31
0.0
  0
SPLINE
  5
271
100
AcDbEntity
  8
0
 62
7
100
AcDbSpline
 70
8
 71
3
 72
8
 73
4
 74
0
 40
0
 40
0
 40
0
 40
0
 40
1
 40
1
 40
1
 40
1
 10
40.313326
 20
360.418687
 30
0.0
 10
40.257000
 20
360.542509
 30
0.0
 10
40.096776
 20
360.694979
 30
0.0
 10
39.996391
 20
360.720185
 30
0.0
  0
LINE
  5
272
100
AcDbEntity
  8
0
 62
7
100
AcDbLine
 10
39.996391
 20
360.720185
 30
0.0
 11
39.928878
 21
360.737260
 31
0.0
  0
LINE
  5
273
100
AcDbEntity
  8
0
 62
7
100
AcDbLine
 10
39.928878
 20
360.737260
 30
0.0
 11
39.928878
 21
363.032460
 31
0.0
  0
LINE
  5
274
100
AcDbEntity
  8
0
 62
7
100
AcDbLine
 10
39.928878
 20
363.032460
 30
0.0
 11
39.928878
 21
365.327731
 31
0.0
  0
LINE
  5
275
100
AcDbEntity
  8
0
 62
7
100
AcDbLine
 10
39.928878
 20
365.327731
 30
0.0
 11
39.765789
 21
365.327731
 31
0.0
  0
LINE
  5
276
100
AcDbEntity
  8
0
 62
7
100
AcDbLine
 10
39.765789
 20
365.327731
 30
0.0
 11
39.602503
 21
365.327731
 31
0.0
  0
LINE
  5
277
100
AcDbEntity
  8
0
 62
7
100
AcDbLine
 10
39.602503
 20
365.327731
 30
0.0
 11
39.602503
 21
363.032460
 31
0.0
  0
LINE
  5
278
100
AcDbEntity
  8
0
 62
7
100
AcDbLine
 10
39.602503
 20
363.032460
 30
0.0
 11
39.602503
 21
360.737189
 31
0.0
  0
LINE
  5
279
100
AcDbEntity
  8
0
 62
7
100
AcDbLine
 10
39.602503
 20
360.737189
 30
0.0
 11
39.534991
 21
360.720115
 31
0.0
  0
SPLINE
  5
27a
100
AcDbEntity
  8
0
 62
7
100
AcDbSpline
 70
8
 71
3
 72
8
 73
4
 74
0
 40
0
 40
0
 40
0
 40
0
 40
1
 40
1
 40
1
 40
1
 10
39.534991
 20
360.720115
 30
0.0
 10
39.434507
 20
360.694856
 30
0.0
 10
39.274302
 20
360.542445
 30
0.0
 10
39.218055
 20
360.418617
 30
0.0
  0
SPLINE
  5
27b
100
AcDbEntity
  8
0
 62
7
100
AcDbSpline
 70
8
 71
3
 72
8
 73
4
 74
0
 40
0
 40
0
 40
0
 40
0
 40
1
 40
1
 40
1
 40
1
 10
39.218055
 20
360.418617
 30
0.0
 10
39.189205
 20
360.355463
 30
0.0
 10
39.168598
 20
360.246638
 30
0.0
 10
39.168598
 20
360.159996
 30
0.0
  0
SPLINE
  5
27c
100
AcDbEntity
  8
0
 62
7
100
AcDbSpline
 70
8
 71
3
 72
8
 73
4
 74
0
 40
0
 40
0
 40
0
 40
0
 40
1
 40
1
 40
1
 40
1
 10
39.168598
 20
360.159996
 30
0.0
 10
39.168598
 20
360.073389
 30
0.0
 10
39.189402
 20
359.964525
 30
0.0
 10
39.218055
 20
359.901388
 30
0.0
  0
SPLINE
  5
27d
100
AcDbEntity
  8
0
 62
7
100
AcDbSpline
 70
8
 71
3
 72
8
 73
4
 74
0
 40
0
 40
0
 40
0
 40
0
 40
1
 40
1
 40
1
 40
1
 10
39.218055
 20
359.901388
 30
0.0
 10
39.274381
 20
359.777549
 30
0.0
 10
39.434585
 20
359.625089
 30
0.0
 10
39.534991
 20
359.599890
 30
0.0
  0
LINE
  5
27e
100
AcDbEntity
  8
0
 62
7
100
AcDbLine
 10
39.534991
 20
359.599890
 30
0.0
 11
39.602503
 21
359.582816
 31
0.0
  0
LINE
  5
27f
100
AcDbEntity
  8
0
 62
7
100
AcDbLine
 10
39.602503
 20
359.582816
 30
0.0
 11
39.602503
 21
357.246743
 31
0.0
  0
LINE
  5
280
100
AcDbEntity
  8
0
 62
7
100
AcDbLine
 10
39.602503
 20
357.246743
 30
0.0
 11
39.602503
 21
354.910680
 31
0.0
  0
LINE
  5
281
100
AcDbEntity
  8
0
 62
7
100
AcDbLine
 10
39.602503
 20
354.910680
 30
0.0
 11
39.765789
 21
354.910680
 31
0.0
  0
LINE
  5
282
100
AcDbEntity
  8
0
 62
7
100
AcDbLine
 10
39.765789
 20
354.910680
 30
0.0
 11
39.928878
 21
354.910680
 31
0.0
  0
LINE
  5
283
100
AcDbEntity
  8
0
 62
7
100
AcDbLine
 10
39.928878
 20
354.910680
 30
0.0
 11
39.928878
 21
357.246743
 31
0.0
  0
LINE
  5
284
100
AcDbEntity
  8
0
 62
7
100
AcDbLine
 10
39.928878
 20
357.246743
 30
0.0
 11
39.928878
 21
359.582816
 31
0.0
  0
LINE
  5
285
100
AcDbEntity
  8
0
 62
7
100
AcDbLine
 10
39.928878
 20
359.582816
 30
0.0
 11
39.996391
 21
359.599890
 31
0.0
  0
SPLINE
  5
286
100
AcDbEntity
  8
0
 62
7
100
AcDbSpline
 70
8
 71
3
 72
8
 73
4
 74
0
 40
0
 40
0
 40
0
 40
0
 40
1
 40
1
 40
1
 40
1
 10
39.996391
 20
359.599890
 30
0.0
 10
40.096875
 20
359.625043
 30
0.0
 10
40.257079
 20
359.777563
 30
0.0
 10
40.313326
 20
359.901388
 30
0.0
  0
SPLINE
  5
287
100
AcDbEntity
  8
0
 62
7
100
AcDbSpline
 70
8
 71
3
 72
8
 73
4
 74
0
 40
0
 40
0
 40
0
 40
0
 40
1
 40
1
 40
1
 40
1
 10
40.313326
 20
359.901388
 30
0.0
 10
40.342177
 20
359.964543
 30
0.0
 10
40.362783
 20
360.073367
 30
0.0
 10
40.362783
 20
360.159996
 30
0.0
  0
SPLINE
  5
288
100
AcDbEntity
  8
0
 62
7
100
AcDbSpline
 70
8
 71
3
 72
8
 73
4
 74
0
 40
0
 40
0
 40
0
 40
0
 40
1
 40
1
 40
1
 40
1
 10
40.362783
 20
360.159996
 30
0.0
 10
40.362783
 20
360.246606
 30
0.0
 10
40.341980
 20
360.355470
 30
0.0
 10
40.313326
 20
360.418617
 30
0.0
  0
LINE
  5
289
100
AcDbEntity
  8
0
 62
7
100
AcDbLine
 10
40.313326
 20
360.418617
 30
0.0
 11
40.313326
 21
360.418687
 31
0.0
  0
SPLINE
  5
28a
100
AcDbEntity
  8
0
 62
7
100
AcDbSpline
 70
8
 71
3
 72
8
 73
4
 74
0
 40
0
 40
0
 40
0
 40
0
 40
1
 40
1
 40
1
 40
1
 10
40.569265
 20
353.372964
 30
0.0
 10
40.532565
 20
353.336208
 30
0.0
 10
40.479183
 20
353.306240
 30
0.0
 10
40.450530
 20
353.306240
 30
0.0
  0
SPLINE
  5
28b
100
AcDbEntity
  8
0
 62
7
100
AcDbSpline
 70
8
 71
3
 72
8
 73
4
 74
0
 40
0
 40
0
 40
0
 40
0
 40
1
 40
1
 40
1
 40
1
 10
40.450530
 20
353.306240
 30
0.0
 10
40.421877
 20
353.306240
 30
0.0
 10
38.235121
 20
354.542387
 30
0.0
 10
35.590990
 20
356.053232
 30
0.0
  0
LINE
  5
28c
100
AcDbEntity
  8
0
 62
7
100
AcDbLine
 10
35.590990
 20
356.053232
 30
0.0
 11
30.783478
 21
358.800214
 31
0.0
  0
LINE
  5
28d
100
AcDbEntity
  8
0
 62
7
100
AcDbLine
 10
30.783478
 20
358.800214
 30
0.0
 11
28.651930
 21
358.800214
 31
0.0
  0
LINE
  5
28e
100
AcDbEntity
  8
0
 62
7
100
AcDbLine
 10
28.651930
 20
358.800214
 30
0.0
 11
26.520383
 21
358.800214
 31
0.0
  0
LINE
  5
28f
100
AcDbEntity
  8
0
 62
7
100
AcDbLine
 10
26.520383
 20
358.800214
 30
0.0
 11
26.520383
 21
358.241414
 31
0.0
  0
LINE
  5
290
100
AcDbEntity
  8
0
 62
7
100
AcDbLine
 10
26.520383
 20
358.241414
 30
0.0
 11
26.520383
 21
357.682628
 31
0.0
  0
LINE
  5
291
100
AcDbEntity
  8
0
 62
7
100
AcDbLine
 10
26.520383
 20
357.682628
 30
0.0
 11
26.450908
 21
357.613233
 31
0.0
  0
SPLINE
  5
292
100
AcDbEntity
  8
0
 62
7
100
AcDbSpline
 70
8
 71
3
 72
8
 73
4
 74
0
 40
0
 40
0
 40
0
 40
0
 40
1
 40
1
 40
1
 40
1
 10
26.450908
 20
357.613233
 30
0.0
 10
26.370442
 20
357.532768
 30
0.0
 10
26.266230
 20
357.541245
 30
0.0
 10
26.187099
 20
357.634823
 30
0.0
  0
SPLINE
  5
293
100
AcDbEntity
  8
0
 62
7
100
AcDbSpline
 70
8
 71
3
 72
8
 73
4
 74
0
 40
0
 40
0
 40
0
 40
0
 40
1
 40
1
 40
1
 40
1
 10
26.187099
 20
357.634823
 30
0.0
 10
26.142549
 20
357.687362
 30
0.0
 10
26.139409
 20
357.837832
 30
0.0
 10
26.139409
 20
359.942466
 30
0.0
  0
SPLINE
  5
294
100
AcDbEntity
  8
0
 62
7
100
AcDbSpline
 70
8
 71
3
 72
8
 73
4
 74
0
 40
0
 40
0
 40
0
 40
0
 40
1
 40
1
 40
1
 40
1
 10
26.139409
 20
359.942466
 30
0.0
 10
26.139409
 20
362.047088
 30
0.0
 10
26.143335
 20
362.197524
 30
0.0
 10
26.187099
 20
362.250109
 30
0.0
  0
SPLINE
  5
295
100
AcDbEntity
  8
0
 62
7
100
AcDbSpline
 70
8
 71
3
 72
8
 73
4
 74
0
 40
0
 40
0
 40
0
 40
0
 40
1
 40
1
 40
1
 40
1
 10
26.187099
 20
362.250109
 30
0.0
 10
26.266191
 20
362.343686
 30
0.0
 10
26.370403
 20
362.352202
 30
0.0
 10
26.450908
 20
362.271699
 30
0.0
  0
LINE
  5
296
100
AcDbEntity
  8
0
 62
7
100
AcDbLine
 10
26.450908
 20
362.271699
 30
0.0
 11
26.520383
 21
362.202300
 31
0.0
  0
LINE
  5
297
100
AcDbEntity
  8
0
 62
7
100
AcDbLine
 10
26.520383
 20
362.202300
 30
0.0
 11
26.520383
 21
361.643504
 31
0.0
  0
LINE
  5
298
100
AcDbEntity
  8
0
 62
7
100
AcDbLine
 10
26.520383
 20
361.643504
 30
0.0
 11
26.520383
 21
361.084721
 31
0.0
  0
LINE
  5
299
100
AcDbEntity
  8
0
 62
7
100
AcDbLine
 10
26.520383
 20
361.084721
 30
0.0
 11
28.651930
 21
361.084721
 31
0.0
  0
LINE
  5
29a
100
AcDbEntity
  8
0
 62
7
100
AcDbLine
 10
28.651930
 20
361.084721
 30
0.0
 11
30.783478
 21
361.084721
 31
0.0
  0
LINE
  5
29b
100
AcDbEntity
  8
0
 62
7
100
AcDbLine
 10
30.783478
 20
361.084721
 30
0.0
 11
35.590990
 21
363.831700
 31
0.0
  0
SPLINE
  5
29c
100
AcDbEntity
  8
0
 62
7
100
AcDbSpline
 70
8
 71
3
 72
8
 73
4
 74
0
 40
0
 40
0
 40
0
 40
0
 40
1
 40
1
 40
1
 40
1
 10
35.590990
 20
363.831700
 30
0.0
 10
38.235121
 20
365.342544
 30
0.0
 10
40.421915
 20
366.578681
 30
0.0
 10
40.450530
 20
366.578681
 30
0.0
  0
SPLINE
  5
29d
100
AcDbEntity
  8
0
 62
7
100
AcDbSpline
 70
8
 71
3
 72
8
 73
4
 74
0
 40
0
 40
0
 40
0
 40
0
 40
1
 40
1
 40
1
 40
1
 10
40.450530
 20
366.578681
 30
0.0
 10
40.479182
 20
366.578681
 30
0.0
 10
40.532565
 20
366.548625
 30
0.0
 10
40.569265
 20
366.511953
 30
0.0
  0
LINE
  5
29e
100
AcDbEntity
  8
0
 62
7
100
AcDbLine
 10
40.569265
 20
366.511953
 30
0.0
 11
40.635992
 21
366.445229
 31
0.0
  0
LINE
  5
29f
100
AcDbEntity
  8
0
 62
7
100
AcDbLine
 10
40.635992
 20
366.445229
 30
0.0
 11
40.635992
 21
359.942469
 31
0.0
  0
LINE
  5
2a0
100
AcDbEntity
  8
0
 62
7
100
AcDbLine
 10
40.635992
 20
359.942469
 30
0.0
 11
40.635992
 21
353.439699
 31
0.0
  0
LINE
  5
2a1
100
AcDbEntity
  8
0
 62
7
100
AcDbLine
 10
40.635992
 20
353.439699
 30
0.0
 11
40.569265
 21
353.372964
 31
0.0
  0
SPLINE
  5
2a2
100
AcDbEntity
  8
0
 62
7
100
AcDbSpline
 70
8
 71
3
 72
8
 73
4
 74
0
 40
0
 40
0
 40
0
 40
0
 40
1
 40
1
 40
1
 40
1
 10
41.031234
 20
366.616171
 30
0.0
 10
40.983740
 20
366.749644
 30
0.0
 10
40.849108
 20
366.889355
 30
0.0
 10
40.697048
 20
366.962920
 30
0.0
  0
SPLINE
  5
2a3
100
AcDbEntity
  8
0
 62
7
100
AcDbSpline
 70
8
 71
3
 72
8
 73
4
 74
0
 40
0
 40
0
 40
0
 40
0
 40
1
 40
1
 40
1
 40
1
 10
40.697048
 20
366.962920
 30
0.0
 10
40.605003
 20
367.007528
 30
0.0
 10
40.541809
 20
367.017773
 30
0.0
 10
40.410297
 20
367.009292
 30
0.0
  0
SPLINE
  5
2a4
100
AcDbEntity
  8
0
 62
7
100
AcDbSpline
 70
8
 71
3
 72
8
 73
4
 74
0
 40
0
 40
0
 40
0
 40
0
 40
1
 40
1
 40
1
 40
1
 10
40.410297
 20
367.009292
 30
0.0
 10
40.242890
 20
366.998497
 30
0.0
 10
40.205660
 20
366.978001
 30
0.0
 10
35.448115
 20
364.259238
 30
0.0
  0
LINE
  5
2a5
100
AcDbEntity
  8
0
 62
7
100
AcDbLine
 10
35.448115
 20
364.259238
 30
0.0
 11
30.654537
 21
361.519943
 31
0.0
  0
LINE
  5
2a6
100
AcDbEntity
  8
0
 62
7
100
AcDbLine
 10
30.654537
 20
361.519943
 30
0.0
 11
28.805031
 21
361.519943
 31
0.0
  0
LINE
  5
2a7
100
AcDbEntity
  8
0
 62
7
100
AcDbLine
 10
28.805031
 20
361.519943
 30
0.0
 11
26.955504
 21
361.519943
 31
0.0
  0
LINE
  5
2a8
100
AcDbEntity
  8
0
 62
7
100
AcDbLine
 10
26.955504
 20
361.519943
 30
0.0
 11
26.955504
 21
361.901589
 31
0.0
  0
SPLINE
  5
2a9
100
AcDbEntity
  8
0
 62
7
100
AcDbSpline
 70
8
 71
3
 72
8
 73
4
 74
0
 40
0
 40
0
 40
0
 40
0
 40
1
 40
1
 40
1
 40
1
 10
26.955504
 20
361.901589
 30
0.0
 10
26.955504
 20
362.313926
 30
0.0
 10
26.937841
 20
362.392839
 30
0.0
 10
26.806545
 20
362.547853
 30
0.0
  0
SPLINE
  5
2aa
100
AcDbEntity
  8
0
 62
7
100
AcDbSpline
 70
8
 71
3
 72
8
 73
4
 74
0
 40
0
 40
0
 40
0
 40
0
 40
1
 40
1
 40
1
 40
1
 10
26.806545
 20
362.547853
 30
0.0
 10
26.687221
 20
362.689395
 30
0.0
 10
26.535573
 20
362.755431
 30
0.0
 10
26.329896
 20
362.755431
 30
0.0
  0
SPLINE
  5
2ab
100
AcDbEntity
  8
0
 62
7
100
AcDbSpline
 70
8
 71
3
 72
8
 73
4
 74
0
 40
0
 40
0
 40
0
 40
0
 40
1
 40
1
 40
1
 40
1
 10
26.329896
 20
362.755431
 30
0.0
 10
26.053782
 20
362.755431
 30
0.0
 10
25.874344
 20
362.640288
 30
0.0
 10
25.761025
 20
362.390271
 30
0.0
  0
SPLINE
  5
2ac
100
AcDbEntity
  8
0
 62
7
100
AcDbSpline
 70
8
 71
3
 72
8
 73
4
 74
0
 40
0
 40
0
 40
0
 40
0
 40
1
 40
1
 40
1
 40
1
 10
25.761025
 20
362.390271
 30
0.0
 10
25.706662
 20
362.270143
 30
0.0
 10
25.705485
 20
362.224984
 30
0.0
 10
25.705485
 20
359.942469
 30
0.0
  0
SPLINE
  5
2ad
100
AcDbEntity
  8
0
 62
7
100
AcDbSpline
 70
8
 71
3
 72
8
 73
4
 74
0
 40
0
 40
0
 40
0
 40
0
 40
1
 40
1
 40
1
 40
1
 10
25.705485
 20
359.942469
 30
0.0
 10
25.705485
 20
357.659937
 30
0.0
 10
25.706367
 20
357.614792
 30
0.0
 10
25.761025
 20
357.494657
 30
0.0
  0
SPLINE
  5
2ae
100
AcDbEntity
  8
0
 62
7
100
AcDbSpline
 70
8
 71
3
 72
8
 73
4
 74
0
 40
0
 40
0
 40
0
 40
0
 40
1
 40
1
 40
1
 40
1
 10
25.761025
 20
357.494657
 30
0.0
 10
25.874265
 20
357.244665
 30
0.0
 10
26.053782
 20
357.129497
 30
0.0
 10
26.329896
 20
357.129497
 30
0.0
  0
SPLINE
  5
2af
100
AcDbEntity
  8
0
 62
7
100
AcDbSpline
 70
8
 71
3
 72
8
 73
4
 74
0
 40
0
 40
0
 40
0
 40
0
 40
1
 40
1
 40
1
 40
1
 10
26.329896
 20
357.129497
 30
0.0
 10
26.535573
 20
357.129497
 30
0.0
 10
26.687201
 20
357.195498
 30
0.0
 10
26.806545
 20
357.337075
 30
0.0
  0
SPLINE
  5
2b0
100
AcDbEntity
  8
0
 62
7
100
AcDbSpline
 70
8
 71
3
 72
8
 73
4
 74
0
 40
0
 40
0
 40
0
 40
0
 40
1
 40
1
 40
1
 40
1
 10
26.806545
 20
357.337075
 30
0.0
 10
26.937253
 20
357.492100
 30
0.0
 10
26.955504
 20
357.571012
 30
0.0
 10
26.955504
 20
357.983350
 30
0.0
  0
LINE
  5
2b1
100
AcDbEntity
  8
0
 62
7
100
AcDbLine
 10
26.955504
 20
357.983350
 30
0.0
 11
26.955504
 21
358.364995
 31
0.0
  0
LINE
  5
2b2
100
AcDbEntity
  8
0
 62
7
100
AcDbLine
 10
26.955504
 20
358.364995
 30
0.0
 11
28.805031
 21
358.364995
 31
0.0
  0
LINE
  5
2b3
100
AcDbEntity
  8
0
 62
7
100
AcDbLine
 10
28.805031
 20
358.364995
 30
0.0
 11
30.654537
 21
358.364995
 31
0.0
  0
LINE
  5
2b4
100
AcDbEntity
  8
0
 62
7
100
AcDbLine
 10
30.654537
 20
358.364995
 30
0.0
 11
35.448115
 21
355.625700
 31
0.0
  0
SPLINE
  5
2b5
100
AcDbEntity
  8
0
 62
7
100
AcDbSpline
 70
8
 71
3
 72
8
 73
4
 74
0
 40
0
 40
0
 40
0
 40
0
 40
1
 40
1
 40
1
 40
1
 10
35.448115
 20
355.625700
 30
0.0
 10
40.205660
 20
352.906976
 30
0.0
 10
40.242929
 20
352.886328
 30
0.0
 10
40.410297
 20
352.875632
 30
0.0
  0
SPLINE
  5
2b6
100
AcDbEntity
  8
0
 62
7
100
AcDbSpline
 70
8
 71
3
 72
8
 73
4
 74
0
 40
0
 40
0
 40
0
 40
0
 40
1
 40
1
 40
1
 40
1
 10
40.410297
 20
352.875632
 30
0.0
 10
40.543163
 20
352.866812
 30
0.0
 10
40.604787
 20
352.877396
 30
0.0
 10
40.700934
 20
352.923892
 30
0.0
  0
SPLINE
  5
2b7
100
AcDbEntity
  8
0
 62
7
100
AcDbSpline
 70
8
 71
3
 72
8
 73
4
 74
0
 40
0
 40
0
 40
0
 40
0
 40
1
 40
1
 40
1
 40
1
 10
40.700934
 20
352.923892
 30
0.0
 10
40.854799
 20
352.998293
 30
0.0
 10
41.004563
 20
353.162447
 30
0.0
 10
41.042029
 20
353.297424
 30
0.0
  0
SPLINE
  5
2b8
100
AcDbEntity
  8
0
 62
7
100
AcDbSpline
 70
8
 71
3
 72
8
 73
4
 74
0
 40
0
 40
0
 40
0
 40
0
 40
1
 40
1
 40
1
 40
1
 10
41.042029
 20
353.297424
 30
0.0
 10
41.062045
 20
353.369411
 30
0.0
 10
41.070681
 20
355.415494
 30
0.0
 10
41.069701
 20
359.956030
 30
0.0
  0
SPLINE
  5
2b9
100
AcDbEntity
  8
0
 62
7
100
AcDbSpline
 70
8
 71
3
 72
8
 73
4
 74
0
 40
0
 40
0
 40
0
 40
0
 40
1
 40
1
 40
1
 40
1
 10
41.069701
 20
359.956030
 30
0.0
 10
41.068819
 20
365.461187
 30
0.0
 10
41.063813
 20
366.527595
 30
0.0
 10
41.031038
 20
366.616111
 30
0.0
  0
LINE
  5
2ba
100
AcDbEntity
  8
0
 62
7
100
AcDbLine
 10
41.031038
 20
366.616111
 30
0.0
 11
41.031234
 21
366.616171
 31
0.0
  0
SPLINE
  5
2bb
100
AcDbEntity
  8
0
 62
7
100
AcDbSpline
 70
8
 71
3
 72
8
 73
4
 74
0
 40
0
 40
0
 40
0
 40
0
 40
1
 40
1
 40
1
 40
1
 10
115.294698
 20
358.594036
 30
0.0
 10
115.769173
 20
358.594036
 30
0.0
 10
116.193533
 20
358.694278
 30
0.0
 10
116.567778
 20
358.894762
 30
0.0
  0
SPLINE
  5
2bc
100
AcDbEntity
  8
0
 62
7
100
AcDbSpline
 70
8
 71
3
 72
8
 73
4
 74
0
 40
0
 40
0
 40
0
 40
0
 40
1
 40
1
 40
1
 40
1
 10
116.567778
 20
358.894762
 30
0.0
 10
116.948696
 20
359.095248
 30
0.0
 10
117.246080
 20
359.389293
 30
0.0
 10
117.459932
 20
359.776896
 30
0.0
  0
SPLINE
  5
2bd
100
AcDbEntity
  8
0
 62
7
100
AcDbSpline
 70
8
 71
3
 72
8
 73
4
 74
0
 40
0
 40
0
 40
0
 40
0
 40
1
 40
1
 40
1
 40
1
 10
117.459932
 20
359.776896
 30
0.0
 10
117.673784
 20
360.157821
 30
0.0
 10
117.780709
 20
360.615596
 30
0.0
 10
117.780709
 20
361.150222
 30
0.0
  0
LINE
  5
2be
100
AcDbEntity
  8
0
 62
7
100
AcDbLine
 10
117.780709
 20
361.150222
 30
0.0
 11
117.780709
 21
363.756533
 31
0.0
  0
SPLINE
  5
2bf
100
AcDbEntity
  8
0
 62
7
100
AcDbSpline
 70
8
 71
3
 72
8
 73
4
 74
0
 40
0
 40
0
 40
0
 40
0
 40
1
 40
1
 40
1
 40
1
 10
117.780709
 20
363.756533
 30
0.0
 10
117.780709
 20
363.863460
 30
0.0
 10
117.743956
 20
363.953679
 30
0.0
 10
117.670449
 20
364.027191
 30
0.0
  0
SPLINE
  5
2c0
100
AcDbEntity
  8
0
 62
7
100
AcDbSpline
 70
8
 71
3
 72
8
 73
4
 74
0
 40
0
 40
0
 40
0
 40
0
 40
1
 40
1
 40
1
 40
1
 10
117.670449
 20
364.027191
 30
0.0
 10
117.596937
 20
364.100701
 30
0.0
 10
117.506717
 20
364.137456
 30
0.0
 10
117.399790
 20
364.137456
 30
0.0
  0
SPLINE
  5
2c1
100
AcDbEntity
  8
0
 62
7
100
AcDbSpline
 70
8
 71
3
 72
8
 73
4
 74
0
 40
0
 40
0
 40
0
 40
0
 40
1
 40
1
 40
1
 40
1
 10
117.399790
 20
364.137456
 30
0.0
 10
117.286180
 20
364.137456
 30
0.0
 10
117.192620
 20
364.100701
 30
0.0
 10
117.119113
 20
364.027191
 30
0.0
  0
SPLINE
  5
2c2
100
AcDbEntity
  8
0
 62
7
100
AcDbSpline
 70
8
 71
3
 72
8
 73
4
 74
0
 40
0
 40
0
 40
0
 40
0
 40
1
 40
1
 40
1
 40
1
 10
117.119113
 20
364.027191
 30
0.0
 10
117.045597
 20
363.953679
 30
0.0
 10
117.008839
 20
363.863460
 30
0.0
 10
117.008839
 20
363.756533
 30
0.0
  0
LINE
  5
2c3
100
AcDbEntity
  8
0
 62
7
100
AcDbLine
 10
117.008839
 20
363.756533
 30
0.0
 11
117.008839
 21
361.150222
 31
0.0
  0
SPLINE
  5
2c4
100
AcDbEntity
  8
0
 62
7
100
AcDbSpline
 70
8
 71
3
 72
8
 73
4
 74
0
 40
0
 40
0
 40
0
 40
0
 40
1
 40
1
 40
1
 40
1
 10
117.008839
 20
361.150222
 30
0.0
 10
117.008839
 20
360.555450
 30
0.0
 10
116.841768
 20
360.104359
 30
0.0
 10
116.507626
 20
359.796948
 30
0.0
  0
SPLINE
  5
2c5
100
AcDbEntity
  8
0
 62
7
100
AcDbSpline
 70
8
 71
3
 72
8
 73
4
 74
0
 40
0
 40
0
 40
0
 40
0
 40
1
 40
1
 40
1
 40
1
 10
116.507626
 20
359.796948
 30
0.0
 10
116.180171
 20
359.482852
 30
0.0
 10
115.749128
 20
359.325803
 30
0.0
 10
115.214498
 20
359.325803
 30
0.0
  0
SPLINE
  5
2c6
100
AcDbEntity
  8
0
 62
7
100
AcDbSpline
 70
8
 71
3
 72
8
 73
4
 74
0
 40
0
 40
0
 40
0
 40
0
 40
1
 40
1
 40
1
 40
1
 10
115.214498
 20
359.325803
 30
0.0
 10
114.887038
 20
359.325803
 30
0.0
 10
114.589653
 20
359.389291
 30
0.0
 10
114.322344
 20
359.516268
 30
0.0
  0
SPLINE
  5
2c7
100
AcDbEntity
  8
0
 62
7
100
AcDbSpline
 70
8
 71
3
 72
8
 73
4
 74
0
 40
0
 40
0
 40
0
 40
0
 40
1
 40
1
 40
1
 40
1
 10
114.322344
 20
359.516268
 30
0.0
 10
114.061712
 20
359.643240
 30
0.0
 10
113.854543
 20
359.820334
 30
0.0
 10
113.700838
 20
360.047551
 30
0.0
  0
SPLINE
  5
2c8
100
AcDbEntity
  8
0
 62
7
100
AcDbSpline
 70
8
 71
3
 72
8
 73
4
 74
0
 40
0
 40
0
 40
0
 40
0
 40
1
 40
1
 40
1
 40
1
 10
113.700838
 20
360.047551
 30
0.0
 10
113.547130
 20
360.268087
 30
0.0
 10
113.470276
 20
360.515353
 30
0.0
 10
113.470276
 20
360.789351
 30
0.0
  0
LINE
  5
2c9
100
AcDbEntity
  8
0
 62
7
100
AcDbLine
 10
113.470276
 20
360.789351
 30
0.0
 11
113.470276
 21
363.756533
 31
0.0
  0
SPLINE
  5
2ca
100
AcDbEntity
  8
0
 62
7
100
AcDbSpline
 70
8
 71
3
 72
8
 73
4
 74
0
 40
0
 40
0
 40
0
 40
0
 40
1
 40
1
 40
1
 40
1
 10
113.470276
 20
363.756533
 30
0.0
 10
113.470276
 20
363.870142
 30
0.0
 10
113.433521
 20
363.963701
 30
0.0
 10
113.360009
 20
364.037210
 30
0.0
  0
SPLINE
  5
2cb
100
AcDbEntity
  8
0
 62
7
100
AcDbSpline
 70
8
 71
3
 72
8
 73
4
 74
0
 40
0
 40
0
 40
0
 40
0
 40
1
 40
1
 40
1
 40
1
 10
113.360009
 20
364.037210
 30
0.0
 10
113.293183
 20
364.104040
 30
0.0
 10
113.202965
 20
364.137456
 30
0.0
 10
113.089354
 20
364.137456
 30
0.0
  0
SPLINE
  5
2cc
100
AcDbEntity
  8
0
 62
7
100
AcDbSpline
 70
8
 71
3
 72
8
 73
4
 74
0
 40
0
 40
0
 40
0
 40
0
 40
1
 40
1
 40
1
 40
1
 10
113.089354
 20
364.137456
 30
0.0
 10
112.975748
 20
364.137456
 30
0.0
 10
112.882189
 20
364.104040
 30
0.0
 10
112.808677
 20
364.037210
 30
0.0
  0
SPLINE
  5
2cd
100
AcDbEntity
  8
0
 62
7
100
AcDbSpline
 70
8
 71
3
 72
8
 73
4
 74
0
 40
0
 40
0
 40
0
 40
0
 40
1
 40
1
 40
1
 40
1
 10
112.808677
 20
364.037210
 30
0.0
 10
112.735168
 20
363.963701
 30
0.0
 10
112.698413
 20
363.870142
 30
0.0
 10
112.698413
 20
363.756533
 30
0.0
  0
LINE
  5
2ce
100
AcDbEntity
  8
0
 62
7
100
AcDbLine
 10
112.698413
 20
363.756533
 30
0.0
 11
112.698413
 21
356.699443
 31
0.0
  0
SPLINE
  5
2cf
100
AcDbEntity
  8
0
 62
7
100
AcDbSpline
 70
8
 71
3
 72
8
 73
4
 74
0
 40
0
 40
0
 40
0
 40
0
 40
1
 40
1
 40
1
 40
1
 10
112.698413
 20
356.699443
 30
0.0
 10
112.698413
 20
356.585837
 30
0.0
 10
112.735168
 20
356.492279
 30
0.0
 10
112.808677
 20
356.418770
 30
0.0
  0
SPLINE
  5
2d0
100
AcDbEntity
  8
0
 62
7
100
AcDbSpline
 70
8
 71
3
 72
8
 73
4
 74
0
 40
0
 40
0
 40
0
 40
0
 40
1
 40
1
 40
1
 40
1
 10
112.808677
 20
356.418770
 30
0.0
 10
112.882189
 20
356.345258
 30
0.0
 10
112.975748
 20
356.308502
 30
0.0
 10
113.089354
 20
356.308502
 30
0.0
  0
SPLINE
  5
2d1
100
AcDbEntity
  8
0
 62
7
100
AcDbSpline
 70
8
 71
3
 72
8
 73
4
 74
0
 40
0
 40
0
 40
0
 40
0
 40
1
 40
1
 40
1
 40
1
 10
113.089354
 20
356.308502
 30
0.0
 10
113.202965
 20
356.308502
 30
0.0
 10
113.293183
 20
356.345258
 30
0.0
 10
113.360009
 20
356.418770
 30
0.0
  0
SPLINE
  5
2d2
100
AcDbEntity
  8
0
 62
7
100
AcDbSpline
 70
8
 71
3
 72
8
 73
4
 74
0
 40
0
 40
0
 40
0
 40
0
 40
1
 40
1
 40
1
 40
1
 10
113.360009
 20
356.418770
 30
0.0
 10
113.433521
 20
356.492279
 30
0.0
 10
113.470276
 20
356.585837
 30
0.0
 10
113.470276
 20
356.699443
 30
0.0
  0
LINE
  5
2d3
100
AcDbEntity
  8
0
 62
7
100
AcDbLine
 10
113.470276
 20
356.699443
 30
0.0
 11
113.470276
 21
359.385952
 31
0.0
  0
SPLINE
  5
2d4
100
AcDbEntity
  8
0
 62
7
100
AcDbSpline
 70
8
 71
3
 72
8
 73
4
 74
0
 40
0
 40
0
 40
0
 40
0
 40
1
 40
1
 40
1
 40
1
 10
113.470276
 20
359.385952
 30
0.0
 10
113.690812
 20
359.138687
 30
0.0
 10
113.958125
 20
358.944884
 30
0.0
 10
114.272214
 20
358.804542
 30
0.0
  0
SPLINE
  5
2d5
100
AcDbEntity
  8
0
 62
7
100
AcDbSpline
 70
8
 71
3
 72
8
 73
4
 74
0
 40
0
 40
0
 40
0
 40
0
 40
1
 40
1
 40
1
 40
1
 10
114.272214
 20
358.804542
 30
0.0
 10
114.586311
 20
358.664205
 30
0.0
 10
114.927139
 20
358.594036
 30
0.0
 10
115.294698
 20
358.594036
 30
0.0
  0
LINE
  5
2d6
100
AcDbEntity
  8
0
 62
7
100
AcDbLine
 10
115.294698
 20
358.594036
 30
0.0
 11
115.294698
 21
358.594036
 31
0.0
  0
SPLINE
  5
2d7
100
AcDbEntity
  8
0
 62
7
100
AcDbSpline
 70
8
 71
3
 72
8
 73
4
 74
0
 40
0
 40
0
 40
0
 40
0
 40
1
 40
1
 40
1
 40
1
 10
109.685532
 20
364.187578
 30
0.0
 10
109.164270
 20
364.187578
 30
0.0
 10
108.696471
 20
364.067287
 30
0.0
 10
108.282136
 20
363.826704
 30
0.0
  0
SPLINE
  5
2d8
100
AcDbEntity
  8
0
 62
7
100
AcDbSpline
 70
8
 71
3
 72
8
 73
4
 74
0
 40
0
 40
0
 40
0
 40
0
 40
1
 40
1
 40
1
 40
1
 10
108.282136
 20
363.826704
 30
0.0
 10
107.867799
 20
363.579438
 30
0.0
 10
107.540338
 20
363.245296
 30
0.0
 10
107.299756
 20
362.824279
 30
0.0
  0
SPLINE
  5
2d9
100
AcDbEntity
  8
0
 62
7
100
AcDbSpline
 70
8
 71
3
 72
8
 73
4
 74
0
 40
0
 40
0
 40
0
 40
0
 40
1
 40
1
 40
1
 40
1
 10
107.299756
 20
362.824279
 30
0.0
 10
107.065857
 20
362.396574
 30
0.0
 10
106.948908
 20
361.922091
 30
0.0
 10
106.948908
 20
361.400831
 30
0.0
  0
SPLINE
  5
2da
100
AcDbEntity
  8
0
 62
7
100
AcDbSpline
 70
8
 71
3
 72
8
 73
4
 74
0
 40
0
 40
0
 40
0
 40
0
 40
1
 40
1
 40
1
 40
1
 10
106.948908
 20
361.400831
 30
0.0
 10
106.948908
 20
360.866201
 30
0.0
 10
107.062515
 20
360.388377
 30
0.0
 10
107.289730
 20
359.967358
 30
0.0
  0
SPLINE
  5
2db
100
AcDbEntity
  8
0
 62
7
100
AcDbSpline
 70
8
 71
3
 72
8
 73
4
 74
0
 40
0
 40
0
 40
0
 40
0
 40
1
 40
1
 40
1
 40
1
 10
107.289730
 20
359.967358
 30
0.0
 10
107.516949
 20
359.539655
 30
0.0
 10
107.831043
 20
359.205512
 30
0.0
 10
108.232010
 20
358.964929
 30
0.0
  0
SPLINE
  5
2dc
100
AcDbEntity
  8
0
 62
7
100
AcDbSpline
 70
8
 71
3
 72
8
 73
4
 74
0
 40
0
 40
0
 40
0
 40
0
 40
1
 40
1
 40
1
 40
1
 10
108.232010
 20
358.964929
 30
0.0
 10
108.632982
 20
358.724349
 30
0.0
 10
109.084075
 20
358.604059
 30
0.0
 10
109.585290
 20
358.604059
 30
0.0
  0
SPLINE
  5
2dd
100
AcDbEntity
  8
0
 62
7
100
AcDbSpline
 70
8
 71
3
 72
8
 73
4
 74
0
 40
0
 40
0
 40
0
 40
0
 40
1
 40
1
 40
1
 40
1
 10
109.585290
 20
358.604059
 30
0.0
 10
110.420644
 20
358.604059
 30
0.0
 10
111.098954
 20
358.924835
 30
0.0
 10
111.620218
 20
359.566387
 30
0.0
  0
SPLINE
  5
2de
100
AcDbEntity
  8
0
 62
7
100
AcDbSpline
 70
8
 71
3
 72
8
 73
4
 74
0
 40
0
 40
0
 40
0
 40
0
 40
1
 40
1
 40
1
 40
1
 10
111.620218
 20
359.566387
 30
0.0
 10
111.673680
 20
359.626533
 30
0.0
 10
111.700412
 20
359.696703
 30
0.0
 10
111.700412
 20
359.776896
 30
0.0
  0
SPLINE
  5
2df
100
AcDbEntity
  8
0
 62
7
100
AcDbSpline
 70
8
 71
3
 72
8
 73
4
 74
0
 40
0
 40
0
 40
0
 40
0
 40
1
 40
1
 40
1
 40
1
 10
111.700412
 20
359.776896
 30
0.0
 10
111.700412
 20
359.883821
 30
0.0
 10
111.643607
 20
359.977381
 30
0.0
 10
111.529999
 20
360.057577
 30
0.0
  0
SPLINE
  5
2e0
100
AcDbEntity
  8
0
 62
7
100
AcDbSpline
 70
8
 71
3
 72
8
 73
4
 74
0
 40
0
 40
0
 40
0
 40
0
 40
1
 40
1
 40
1
 40
1
 10
111.529999
 20
360.057577
 30
0.0
 10
111.469852
 20
360.097671
 30
0.0
 10
111.406365
 20
360.117719
 30
0.0
 10
111.339537
 20
360.117719
 30
0.0
  0
SPLINE
  5
2e1
100
AcDbEntity
  8
0
 62
7
100
AcDbSpline
 70
8
 71
3
 72
8
 73
4
 74
0
 40
0
 40
0
 40
0
 40
0
 40
1
 40
1
 40
1
 40
1
 10
111.339537
 20
360.117719
 30
0.0
 10
111.239292
 20
360.117719
 30
0.0
 10
111.142391
 20
360.067598
 30
0.0
 10
111.048834
 20
359.967358
 30
0.0
  0
SPLINE
  5
2e2
100
AcDbEntity
  8
0
 62
7
100
AcDbSpline
 70
8
 71
3
 72
8
 73
4
 74
0
 40
0
 40
0
 40
0
 40
0
 40
1
 40
1
 40
1
 40
1
 10
111.048834
 20
359.967358
 30
0.0
 10
110.848349
 20
359.746827
 30
0.0
 10
110.627814
 20
359.583098
 30
0.0
 10
110.387232
 20
359.476171
 30
0.0
  0
SPLINE
  5
2e3
100
AcDbEntity
  8
0
 62
7
100
AcDbSpline
 70
8
 71
3
 72
8
 73
4
 74
0
 40
0
 40
0
 40
0
 40
0
 40
1
 40
1
 40
1
 40
1
 10
110.387232
 20
359.476171
 30
0.0
 10
110.146651
 20
359.362560
 30
0.0
 10
109.879337
 20
359.305755
 30
0.0
 10
109.585290
 20
359.305755
 30
0.0
  0
SPLINE
  5
2e4
100
AcDbEntity
  8
0
 62
7
100
AcDbSpline
 70
8
 71
3
 72
8
 73
4
 74
0
 40
0
 40
0
 40
0
 40
0
 40
1
 40
1
 40
1
 40
1
 10
109.585290
 20
359.305755
 30
0.0
 10
109.217733
 20
359.305755
 30
0.0
 10
108.890274
 20
359.395974
 30
0.0
 10
108.602913
 20
359.576413
 30
0.0
  0
SPLINE
  5
2e5
100
AcDbEntity
  8
0
 62
7
100
AcDbSpline
 70
8
 71
3
 72
8
 73
4
 74
0
 40
0
 40
0
 40
0
 40
0
 40
1
 40
1
 40
1
 40
1
 10
108.602913
 20
359.576413
 30
0.0
 10
108.315548
 20
359.750168
 30
0.0
 10
108.091671
 20
359.997432
 30
0.0
 10
107.931284
 20
360.318206
 30
0.0
  0
SPLINE
  5
2e6
100
AcDbEntity
  8
0
 62
7
100
AcDbSpline
 70
8
 71
3
 72
8
 73
4
 74
0
 40
0
 40
0
 40
0
 40
0
 40
1
 40
1
 40
1
 40
1
 10
107.931284
 20
360.318206
 30
0.0
 10
107.777577
 20
360.638982
 30
0.0
 10
107.700723
 20
360.999857
 30
0.0
 10
107.700723
 20
361.400831
 30
0.0
  0
SPLINE
  5
2e7
100
AcDbEntity
  8
0
 62
7
100
AcDbSpline
 70
8
 71
3
 72
8
 73
4
 74
0
 40
0
 40
0
 40
0
 40
0
 40
1
 40
1
 40
1
 40
1
 10
107.700723
 20
361.400831
 30
0.0
 10
107.700723
 20
361.795119
 30
0.0
 10
107.784260
 20
362.152650
 30
0.0
 10
107.951333
 20
362.473424
 30
0.0
  0
SPLINE
  5
2e8
100
AcDbEntity
  8
0
 62
7
100
AcDbSpline
 70
8
 71
3
 72
8
 73
4
 74
0
 40
0
 40
0
 40
0
 40
0
 40
1
 40
1
 40
1
 40
1
 10
107.951333
 20
362.473424
 30
0.0
 10
108.118401
 20
362.787521
 30
0.0
 10
108.352300
 20
363.034787
 30
0.0
 10
108.653029
 20
363.215224
 30
0.0
  0
SPLINE
  5
2e9
100
AcDbEntity
  8
0
 62
7
100
AcDbSpline
 70
8
 71
3
 72
8
 73
4
 74
0
 40
0
 40
0
 40
0
 40
0
 40
1
 40
1
 40
1
 40
1
 10
108.653029
 20
363.215224
 30
0.0
 10
108.953758
 20
363.395660
 30
0.0
 10
109.297925
 20
363.485879
 30
0.0
 10
109.685532
 20
363.485879
 30
0.0
  0
SPLINE
  5
2ea
100
AcDbEntity
  8
0
 62
7
100
AcDbSpline
 70
8
 71
3
 72
8
 73
4
 74
0
 40
0
 40
0
 40
0
 40
0
 40
1
 40
1
 40
1
 40
1
 10
109.685532
 20
363.485879
 30
0.0
 10
110.220160
 20
363.485879
 30
0.0
 10
110.651203
 20
363.342198
 30
0.0
 10
110.978663
 20
363.054837
 30
0.0
  0
SPLINE
  5
2eb
100
AcDbEntity
  8
0
 62
7
100
AcDbSpline
 70
8
 71
3
 72
8
 73
4
 74
0
 40
0
 40
0
 40
0
 40
0
 40
1
 40
1
 40
1
 40
1
 10
110.978663
 20
363.054837
 30
0.0
 10
111.065541
 20
362.981325
 30
0.0
 10
111.155759
 20
362.944569
 30
0.0
 10
111.249318
 20
362.944569
 30
0.0
  0
SPLINE
  5
2ec
100
AcDbEntity
  8
0
 62
7
100
AcDbSpline
 70
8
 71
3
 72
8
 73
4
 74
0
 40
0
 40
0
 40
0
 40
0
 40
1
 40
1
 40
1
 40
1
 10
111.249318
 20
362.944569
 30
0.0
 10
111.329512
 20
362.944569
 30
0.0
 10
111.403023
 20
362.971300
 30
0.0
 10
111.469854
 20
363.024763
 30
0.0
  0
SPLINE
  5
2ed
100
AcDbEntity
  8
0
 62
7
100
AcDbSpline
 70
8
 71
3
 72
8
 73
4
 74
0
 40
0
 40
0
 40
0
 40
0
 40
1
 40
1
 40
1
 40
1
 10
111.469854
 20
363.024763
 30
0.0
 10
111.563413
 20
363.104958
 30
0.0
 10
111.610192
 20
363.195177
 30
0.0
 10
111.610192
 20
363.295417
 30
0.0
  0
SPLINE
  5
2ee
100
AcDbEntity
  8
0
 62
7
100
AcDbSpline
 70
8
 71
3
 72
8
 73
4
 74
0
 40
0
 40
0
 40
0
 40
0
 40
1
 40
1
 40
1
 40
1
 10
111.610192
 20
363.295417
 30
0.0
 10
111.610192
 20
363.382292
 30
0.0
 10
111.576777
 20
363.455803
 30
0.0
 10
111.509947
 20
363.515949
 30
0.0
  0
SPLINE
  5
2ef
100
AcDbEntity
  8
0
 62
7
100
AcDbSpline
 70
8
 71
3
 72
8
 73
4
 74
0
 40
0
 40
0
 40
0
 40
0
 40
1
 40
1
 40
1
 40
1
 10
111.509947
 20
363.515949
 30
0.0
 10
111.028784
 20
363.963702
 30
0.0
 10
110.420645
 20
364.187578
 30
0.0
 10
109.685532
 20
364.187578
 30
0.0
  0
LINE
  5
2f0
100
AcDbEntity
  8
0
 62
7
100
AcDbLine
 10
109.685532
 20
364.187578
 30
0.0
 11
109.685532
 21
364.187578
 31
0.0
  0
SPLINE
  5
2f1
100
AcDbEntity
  8
0
 62
7
100
AcDbSpline
 70
8
 71
3
 72
8
 73
4
 74
0
 40
0
 40
0
 40
0
 40
0
 40
1
 40
1
 40
1
 40
1
 10
105.491300
 20
364.297846
 30
0.0
 10
105.330911
 20
364.297846
 30
0.0
 10
105.193914
 20
364.241040
 30
0.0
 10
105.080307
 20
364.127430
 30
0.0
  0
SPLINE
  5
2f2
100
AcDbEntity
  8
0
 62
7
100
AcDbSpline
 70
8
 71
3
 72
8
 73
4
 74
0
 40
0
 40
0
 40
0
 40
0
 40
1
 40
1
 40
1
 40
1
 10
105.080307
 20
364.127430
 30
0.0
 10
104.966696
 20
364.013821
 30
0.0
 10
104.909891
 20
363.876822
 30
0.0
 10
104.909891
 20
363.716433
 30
0.0
  0
SPLINE
  5
2f3
100
AcDbEntity
  8
0
 62
7
100
AcDbSpline
 70
8
 71
3
 72
8
 73
4
 74
0
 40
0
 40
0
 40
0
 40
0
 40
1
 40
1
 40
1
 40
1
 10
104.909891
 20
363.716433
 30
0.0
 10
104.909891
 20
363.549362
 30
0.0
 10
104.966696
 20
363.409024
 30
0.0
 10
105.080307
 20
363.295417
 30
0.0
  0
SPLINE
  5
2f4
100
AcDbEntity
  8
0
 62
7
100
AcDbSpline
 70
8
 71
3
 72
8
 73
4
 74
0
 40
0
 40
0
 40
0
 40
0
 40
1
 40
1
 40
1
 40
1
 10
105.080307
 20
363.295417
 30
0.0
 10
105.200597
 20
363.181806
 30
0.0
 10
105.337595
 20
363.125001
 30
0.0
 10
105.491300
 20
363.125001
 30
0.0
  0
SPLINE
  5
2f5
100
AcDbEntity
  8
0
 62
7
100
AcDbSpline
 70
8
 71
3
 72
8
 73
4
 74
0
 40
0
 40
0
 40
0
 40
0
 40
1
 40
1
 40
1
 40
1
 10
105.491300
 20
363.125001
 30
0.0
 10
105.651690
 20
363.125001
 30
0.0
 10
105.788687
 20
363.185146
 30
0.0
 10
105.902294
 20
363.305436
 30
0.0
  0
SPLINE
  5
2f6
100
AcDbEntity
  8
0
 62
7
100
AcDbSpline
 70
8
 71
3
 72
8
 73
4
 74
0
 40
0
 40
0
 40
0
 40
0
 40
1
 40
1
 40
1
 40
1
 10
105.902294
 20
363.305436
 30
0.0
 10
106.015902
 20
363.419047
 30
0.0
 10
106.072706
 20
363.556046
 30
0.0
 10
106.072706
 20
363.716433
 30
0.0
  0
SPLINE
  5
2f7
100
AcDbEntity
  8
0
 62
7
100
AcDbSpline
 70
8
 71
3
 72
8
 73
4
 74
0
 40
0
 40
0
 40
0
 40
0
 40
1
 40
1
 40
1
 40
1
 10
106.072706
 20
363.716433
 30
0.0
 10
106.072706
 20
363.876822
 30
0.0
 10
106.015902
 20
364.013821
 30
0.0
 10
105.902294
 20
364.127430
 30
0.0
  0
SPLINE
  5
2f8
100
AcDbEntity
  8
0
 62
7
100
AcDbSpline
 70
8
 71
3
 72
8
 73
4
 74
0
 40
0
 40
0
 40
0
 40
0
 40
1
 40
1
 40
1
 40
1
 10
105.902294
 20
364.127430
 30
0.0
 10
105.788687
 20
364.241040
 30
0.0
 10
105.651690
 20
364.297846
 30
0.0
 10
105.491300
 20
364.297846
 30
0.0
  0
LINE
  5
2f9
100
AcDbEntity
  8
0
 62
7
100
AcDbLine
 10
105.491300
 20
364.297846
 30
0.0
 11
105.491300
 21
364.297846
 31
0.0
  0
SPLINE
  5
2fa
100
AcDbEntity
  8
0
 62
7
100
AcDbSpline
 70
8
 71
3
 72
8
 73
4
 74
0
 40
0
 40
0
 40
0
 40
0
 40
1
 40
1
 40
1
 40
1
 10
101.899204
 20
358.604059
 30
0.0
 10
102.407103
 20
358.604059
 30
0.0
 10
102.864879
 20
358.727691
 30
0.0
 10
103.272533
 20
358.974955
 30
0.0
  0
SPLINE
  5
2fb
100
AcDbEntity
  8
0
 62
7
100
AcDbSpline
 70
8
 71
3
 72
8
 73
4
 74
0
 40
0
 40
0
 40
0
 40
0
 40
1
 40
1
 40
1
 40
1
 10
103.272533
 20
358.974955
 30
0.0
 10
103.686868
 20
359.215538
 30
0.0
 10
104.010986
 20
359.549681
 30
0.0
 10
104.244887
 20
359.977384
 30
0.0
  0
SPLINE
  5
2fc
100
AcDbEntity
  8
0
 62
7
100
AcDbSpline
 70
8
 71
3
 72
8
 73
4
 74
0
 40
0
 40
0
 40
0
 40
0
 40
1
 40
1
 40
1
 40
1
 10
104.244887
 20
359.977384
 30
0.0
 10
104.485470
 20
360.398405
 30
0.0
 10
104.605761
 20
360.869546
 30
0.0
 10
104.605761
 20
361.390805
 30
0.0
  0
SPLINE
  5
2fd
100
AcDbEntity
  8
0
 62
7
100
AcDbSpline
 70
8
 71
3
 72
8
 73
4
 74
0
 40
0
 40
0
 40
0
 40
0
 40
1
 40
1
 40
1
 40
1
 10
104.605761
 20
361.390805
 30
0.0
 10
104.605761
 20
361.912070
 30
0.0
 10
104.482128
 20
362.386551
 30
0.0
 10
104.234861
 20
362.814250
 30
0.0
  0
SPLINE
  5
2fe
100
AcDbEntity
  8
0
 62
7
100
AcDbSpline
 70
8
 71
3
 72
8
 73
4
 74
0
 40
0
 40
0
 40
0
 40
0
 40
1
 40
1
 40
1
 40
1
 10
104.234861
 20
362.814250
 30
0.0
 10
103.994279
 20
363.241953
 30
0.0
 10
103.660136
 20
363.579438
 30
0.0
 10
103.232433
 20
363.826704
 30
0.0
  0
SPLINE
  5
2ff
100
AcDbEntity
  8
0
 62
7
100
AcDbSpline
 70
8
 71
3
 72
8
 73
4
 74
0
 40
0
 40
0
 40
0
 40
0
 40
1
 40
1
 40
1
 40
1
 10
103.232433
 20
363.826704
 30
0.0
 10
102.811416
 20
364.067287
 30
0.0
 10
102.340275
 20
364.187578
 30
0.0
 10
101.819011
 20
364.187578
 30
0.0
  0
SPLINE
  5
300
100
AcDbEntity
  8
0
 62
7
100
AcDbSpline
 70
8
 71
3
 72
8
 73
4
 74
0
 40
0
 40
0
 40
0
 40
0
 40
1
 40
1
 40
1
 40
1
 10
101.819011
 20
364.187578
 30
0.0
 10
101.297751
 20
364.187578
 30
0.0
 10
100.823270
 20
364.067287
 30
0.0
 10
100.395567
 20
363.826704
 30
0.0
  0
SPLINE
  5
301
100
AcDbEntity
  8
0
 62
7
100
AcDbSpline
 70
8
 71
3
 72
8
 73
4
 74
0
 40
0
 40
0
 40
0
 40
0
 40
1
 40
1
 40
1
 40
1
 10
100.395567
 20
363.826704
 30
0.0
 10
99.974548
 20
363.579438
 30
0.0
 10
99.640405
 20
363.241953
 30
0.0
 10
99.393138
 20
362.814250
 30
0.0
  0
SPLINE
  5
302
100
AcDbEntity
  8
0
 62
7
100
AcDbSpline
 70
8
 71
3
 72
8
 73
4
 74
0
 40
0
 40
0
 40
0
 40
0
 40
1
 40
1
 40
1
 40
1
 10
99.393138
 20
362.814250
 30
0.0
 10
99.152555
 20
362.386551
 30
0.0
 10
99.032264
 20
361.912070
 30
0.0
 10
99.032264
 20
361.390805
 30
0.0
  0
LINE
  5
303
100
AcDbEntity
  8
0
 62
7
100
AcDbLine
 10
99.032264
 20
361.390805
 30
0.0
 11
99.032264
 21
359.035100
 31
0.0
  0
SPLINE
  5
304
100
AcDbEntity
  8
0
 62
7
100
AcDbSpline
 70
8
 71
3
 72
8
 73
4
 74
0
 40
0
 40
0
 40
0
 40
0
 40
1
 40
1
 40
1
 40
1
 10
99.032264
 20
359.035100
 30
0.0
 10
99.032264
 20
358.995003
 30
0.0
 10
99.035604
 20
358.964930
 30
0.0
 10
99.042283
 20
358.944881
 30
0.0
  0
LINE
  5
305
100
AcDbEntity
  8
0
 62
7
100
AcDbLine
 10
99.042283
 20
358.944881
 30
0.0
 11
99.042283
 21
356.699443
 31
0.0
  0
SPLINE
  5
306
100
AcDbEntity
  8
0
 62
7
100
AcDbSpline
 70
8
 71
3
 72
8
 73
4
 74
0
 40
0
 40
0
 40
0
 40
0
 40
1
 40
1
 40
1
 40
1
 10
99.042283
 20
356.699443
 30
0.0
 10
99.042283
 20
356.585837
 30
0.0
 10
99.075697
 20
356.492279
 30
0.0
 10
99.142525
 20
356.418770
 30
0.0
  0
SPLINE
  5
307
100
AcDbEntity
  8
0
 62
7
100
AcDbSpline
 70
8
 71
3
 72
8
 73
4
 74
0
 40
0
 40
0
 40
0
 40
0
 40
1
 40
1
 40
1
 40
1
 10
99.142525
 20
356.418770
 30
0.0
 10
99.216034
 20
356.345258
 30
0.0
 10
99.309593
 20
356.308502
 30
0.0
 10
99.423202
 20
356.308502
 30
0.0
  0
SPLINE
  5
308
100
AcDbEntity
  8
0
 62
7
100
AcDbSpline
 70
8
 71
3
 72
8
 73
4
 74
0
 40
0
 40
0
 40
0
 40
0
 40
1
 40
1
 40
1
 40
1
 10
99.423202
 20
356.308502
 30
0.0
 10
99.536813
 20
356.308502
 30
0.0
 10
99.630373
 20
356.345258
 30
0.0
 10
99.703882
 20
356.418770
 30
0.0
  0
SPLINE
  5
309
100
AcDbEntity
  8
0
 62
7
100
AcDbSpline
 70
8
 71
3
 72
8
 73
4
 74
0
 40
0
 40
0
 40
0
 40
0
 40
1
 40
1
 40
1
 40
1
 10
99.703882
 20
356.418770
 30
0.0
 10
99.777392
 20
356.492279
 30
0.0
 10
99.814147
 20
356.585837
 30
0.0
 10
99.814147
 20
356.699443
 30
0.0
  0
LINE
  5
30a
100
AcDbEntity
  8
0
 62
7
100
AcDbLine
 10
99.814147
 20
356.699443
 30
0.0
 11
99.814147
 21
359.636561
 31
0.0
  0
SPLINE
  5
30b
100
AcDbEntity
  8
0
 62
7
100
AcDbSpline
 70
8
 71
3
 72
8
 73
4
 74
0
 40
0
 40
0
 40
0
 40
0
 40
1
 40
1
 40
1
 40
1
 10
99.814147
 20
359.636561
 30
0.0
 10
100.048050
 20
359.315783
 30
0.0
 10
100.345438
 20
359.065176
 30
0.0
 10
100.706311
 20
358.884739
 30
0.0
  0
SPLINE
  5
30c
100
AcDbEntity
  8
0
 62
7
100
AcDbSpline
 70
8
 71
3
 72
8
 73
4
 74
0
 40
0
 40
0
 40
0
 40
0
 40
1
 40
1
 40
1
 40
1
 10
100.706311
 20
358.884739
 30
0.0
 10
101.067184
 20
358.697619
 30
0.0
 10
101.464813
 20
358.604059
 30
0.0
 10
101.899197
 20
358.604059
 30
0.0
  0
LINE
  5
30d
100
AcDbEntity
  8
0
 62
7
100
AcDbLine
 10
101.899197
 20
358.604059
 30
0.0
 11
101.899204
 21
358.604059
 31
0.0
  0
SPLINE
  5
30e
100
AcDbEntity
  8
0
 62
7
100
AcDbSpline
 70
8
 71
3
 72
8
 73
4
 74
0
 40
0
 40
0
 40
0
 40
0
 40
1
 40
1
 40
1
 40
1
 10
101.819011
 20
363.485879
 30
0.0
 10
102.199936
 20
363.485879
 30
0.0
 10
102.544102
 20
363.395660
 30
0.0
 10
102.851510
 20
363.215224
 30
0.0
  0
SPLINE
  5
30f
100
AcDbEntity
  8
0
 62
7
100
AcDbSpline
 70
8
 71
3
 72
8
 73
4
 74
0
 40
0
 40
0
 40
0
 40
0
 40
1
 40
1
 40
1
 40
1
 10
102.851510
 20
363.215224
 30
0.0
 10
103.165605
 20
363.028103
 30
0.0
 10
103.409529
 20
362.777497
 30
0.0
 10
103.583284
 20
362.463405
 30
0.0
  0
SPLINE
  5
310
100
AcDbEntity
  8
0
 62
7
100
AcDbSpline
 70
8
 71
3
 72
8
 73
4
 74
0
 40
0
 40
0
 40
0
 40
0
 40
1
 40
1
 40
1
 40
1
 10
103.583284
 20
362.463405
 30
0.0
 10
103.763721
 20
362.142627
 30
0.0
 10
103.853939
 20
361.785093
 30
0.0
 10
103.853939
 20
361.390805
 30
0.0
  0
SPLINE
  5
311
100
AcDbEntity
  8
0
 62
7
100
AcDbSpline
 70
8
 71
3
 72
8
 73
4
 74
0
 40
0
 40
0
 40
0
 40
0
 40
1
 40
1
 40
1
 40
1
 10
103.853939
 20
361.390805
 30
0.0
 10
103.853939
 20
360.996515
 30
0.0
 10
103.763721
 20
360.642324
 30
0.0
 10
103.583284
 20
360.328232
 30
0.0
  0
SPLINE
  5
312
100
AcDbEntity
  8
0
 62
7
100
AcDbSpline
 70
8
 71
3
 72
8
 73
4
 74
0
 40
0
 40
0
 40
0
 40
0
 40
1
 40
1
 40
1
 40
1
 10
103.583284
 20
360.328232
 30
0.0
 10
103.409529
 20
360.007456
 30
0.0
 10
103.165605
 20
359.756849
 30
0.0
 10
102.851510
 20
359.576413
 30
0.0
  0
SPLINE
  5
313
100
AcDbEntity
  8
0
 62
7
100
AcDbSpline
 70
8
 71
3
 72
8
 73
4
 74
0
 40
0
 40
0
 40
0
 40
0
 40
1
 40
1
 40
1
 40
1
 10
102.851510
 20
359.576413
 30
0.0
 10
102.544102
 20
359.395974
 30
0.0
 10
102.199936
 20
359.305755
 30
0.0
 10
101.819011
 20
359.305755
 30
0.0
  0
SPLINE
  5
314
100
AcDbEntity
  8
0
 62
7
100
AcDbSpline
 70
8
 71
3
 72
8
 73
4
 74
0
 40
0
 40
0
 40
0
 40
0
 40
1
 40
1
 40
1
 40
1
 10
101.819011
 20
359.305755
 30
0.0
 10
101.291067
 20
359.305755
 30
0.0
 10
100.839975
 20
359.472827
 30
0.0
 10
100.465734
 20
359.806971
 30
0.0
  0
SPLINE
  5
315
100
AcDbEntity
  8
0
 62
7
100
AcDbSpline
 70
8
 71
3
 72
8
 73
4
 74
0
 40
0
 40
0
 40
0
 40
0
 40
1
 40
1
 40
1
 40
1
 10
100.465734
 20
359.806971
 30
0.0
 10
100.098177
 20
360.141112
 30
0.0
 10
99.880985
 20
360.568813
 30
0.0
 10
99.814157
 20
361.090073
 30
0.0
  0
SPLINE
  5
316
100
AcDbEntity
  8
0
 62
7
100
AcDbSpline
 70
8
 71
3
 72
8
 73
4
 74
0
 40
0
 40
0
 40
0
 40
0
 40
1
 40
1
 40
1
 40
1
 10
99.814157
 20
361.090073
 30
0.0
 10
99.814157
 20
361.110134
 30
0.0
 10
99.810818
 20
361.126843
 30
0.0
 10
99.804138
 20
361.140199
 30
0.0
  0
SPLINE
  5
317
100
AcDbEntity
  8
0
 62
7
100
AcDbSpline
 70
8
 71
3
 72
8
 73
4
 74
0
 40
0
 40
0
 40
0
 40
0
 40
1
 40
1
 40
1
 40
1
 10
99.804138
 20
361.140199
 30
0.0
 10
99.797459
 20
361.193661
 30
0.0
 10
99.794119
 20
361.277197
 30
0.0
 10
99.794119
 20
361.390805
 30
0.0
  0
SPLINE
  5
318
100
AcDbEntity
  8
0
 62
7
100
AcDbSpline
 70
8
 71
3
 72
8
 73
4
 74
0
 40
0
 40
0
 40
0
 40
0
 40
1
 40
1
 40
1
 40
1
 10
99.794119
 20
361.390805
 30
0.0
 10
99.794119
 20
361.785093
 30
0.0
 10
99.880996
 20
362.142627
 30
0.0
 10
100.054748
 20
362.463405
 30
0.0
  0
SPLINE
  5
319
100
AcDbEntity
  8
0
 62
7
100
AcDbSpline
 70
8
 71
3
 72
8
 73
4
 74
0
 40
0
 40
0
 40
0
 40
0
 40
1
 40
1
 40
1
 40
1
 10
100.054748
 20
362.463405
 30
0.0
 10
100.235184
 20
362.777497
 30
0.0
 10
100.479108
 20
363.028103
 30
0.0
 10
100.786519
 20
363.215224
 30
0.0
  0
SPLINE
  5
31a
100
AcDbEntity
  8
0
 62
7
100
AcDbSpline
 70
8
 71
3
 72
8
 73
4
 74
0
 40
0
 40
0
 40
0
 40
0
 40
1
 40
1
 40
1
 40
1
 10
100.786519
 20
363.215224
 30
0.0
 10
101.093931
 20
363.395660
 30
0.0
 10
101.438098
 20
363.485879
 30
0.0
 10
101.819018
 20
363.485879
 30
0.0
  0
LINE
  5
31b
100
AcDbEntity
  8
0
 62
7
100
AcDbLine
 10
101.819018
 20
363.485879
 30
0.0
 11
101.819011
 21
363.485879
 31
0.0
  0
SPLINE
  5
31c
100
AcDbEntity
  8
0
 62
7
100
AcDbSpline
 70
8
 71
3
 72
8
 73
4
 74
0
 40
0
 40
0
 40
0
 40
0
 40
1
 40
1
 40
1
 40
1
 10
95.249696
 20
358.604059
 30
0.0
 10
95.770961
 20
358.604059
 30
0.0
 10
96.242102
 20
358.727691
 30
0.0
 10
96.663121
 20
358.974955
 30
0.0
  0
SPLINE
  5
31d
100
AcDbEntity
  8
0
 62
7
100
AcDbSpline
 70
8
 71
3
 72
8
 73
4
 74
0
 40
0
 40
0
 40
0
 40
0
 40
1
 40
1
 40
1
 40
1
 10
96.663121
 20
358.974955
 30
0.0
 10
97.090822
 20
359.215538
 30
0.0
 10
97.424964
 20
359.549681
 30
0.0
 10
97.665546
 20
359.977384
 30
0.0
  0
SPLINE
  5
31e
100
AcDbEntity
  8
0
 62
7
100
AcDbSpline
 70
8
 71
3
 72
8
 73
4
 74
0
 40
0
 40
0
 40
0
 40
0
 40
1
 40
1
 40
1
 40
1
 10
97.665546
 20
359.977384
 30
0.0
 10
97.912813
 20
360.405084
 30
0.0
 10
98.036446
 20
360.879567
 30
0.0
 10
98.036446
 20
361.400831
 30
0.0
  0
LINE
  5
31f
100
AcDbEntity
  8
0
 62
7
100
AcDbLine
 10
98.036446
 20
361.400831
 30
0.0
 11
98.036446
 21
363.756533
 31
0.0
  0
SPLINE
  5
320
100
AcDbEntity
  8
0
 62
7
100
AcDbSpline
 70
8
 71
3
 72
8
 73
4
 74
0
 40
0
 40
0
 40
0
 40
0
 40
1
 40
1
 40
1
 40
1
 10
98.036446
 20
363.756533
 30
0.0
 10
98.036446
 20
363.863460
 30
0.0
 10
97.999689
 20
363.953679
 30
0.0
 10
97.926175
 20
364.027191
 30
0.0
  0
SPLINE
  5
321
100
AcDbEntity
  8
0
 62
7
100
AcDbSpline
 70
8
 71
3
 72
8
 73
4
 74
0
 40
0
 40
0
 40
0
 40
0
 40
1
 40
1
 40
1
 40
1
 10
97.926175
 20
364.027191
 30
0.0
 10
97.852666
 20
364.100701
 30
0.0
 10
97.759105
 20
364.137456
 30
0.0
 10
97.645495
 20
364.137456
 30
0.0
  0
SPLINE
  5
322
100
AcDbEntity
  8
0
 62
7
100
AcDbSpline
 70
8
 71
3
 72
8
 73
4
 74
0
 40
0
 40
0
 40
0
 40
0
 40
1
 40
1
 40
1
 40
1
 10
97.645495
 20
364.137456
 30
0.0
 10
97.531891
 20
364.137456
 30
0.0
 10
97.438332
 20
364.104040
 30
0.0
 10
97.364818
 20
364.037210
 30
0.0
  0
SPLINE
  5
323
100
AcDbEntity
  8
0
 62
7
100
AcDbSpline
 70
8
 71
3
 72
8
 73
4
 74
0
 40
0
 40
0
 40
0
 40
0
 40
1
 40
1
 40
1
 40
1
 10
97.364818
 20
364.037210
 30
0.0
 10
97.291308
 20
363.963701
 30
0.0
 10
97.254553
 20
363.870142
 30
0.0
 10
97.254553
 20
363.756533
 30
0.0
  0
LINE
  5
324
100
AcDbEntity
  8
0
 62
7
100
AcDbLine
 10
97.254553
 20
363.756533
 30
0.0
 11
97.254553
 21
363.155075
 31
0.0
  0
SPLINE
  5
325
100
AcDbEntity
  8
0
 62
7
100
AcDbSpline
 70
8
 71
3
 72
8
 73
4
 74
0
 40
0
 40
0
 40
0
 40
0
 40
1
 40
1
 40
1
 40
1
 10
97.254553
 20
363.155075
 30
0.0
 10
97.020652
 20
363.475854
 30
0.0
 10
96.723265
 20
363.729803
 30
0.0
 10
96.362392
 20
363.916924
 30
0.0
  0
SPLINE
  5
326
100
AcDbEntity
  8
0
 62
7
100
AcDbSpline
 70
8
 71
3
 72
8
 73
4
 74
0
 40
0
 40
0
 40
0
 40
0
 40
1
 40
1
 40
1
 40
1
 10
96.362392
 20
363.916924
 30
0.0
 10
96.001517
 20
364.097360
 30
0.0
 10
95.603888
 20
364.187578
 30
0.0
 10
95.169506
 20
364.187578
 30
0.0
  0
SPLINE
  5
327
100
AcDbEntity
  8
0
 62
7
100
AcDbSpline
 70
8
 71
3
 72
8
 73
4
 74
0
 40
0
 40
0
 40
0
 40
0
 40
1
 40
1
 40
1
 40
1
 10
95.169506
 20
364.187578
 30
0.0
 10
94.661605
 20
364.187578
 30
0.0
 10
94.200488
 20
364.067287
 30
0.0
 10
93.786155
 20
363.826704
 30
0.0
  0
SPLINE
  5
328
100
AcDbEntity
  8
0
 62
7
100
AcDbSpline
 70
8
 71
3
 72
8
 73
4
 74
0
 40
0
 40
0
 40
0
 40
0
 40
1
 40
1
 40
1
 40
1
 10
93.786155
 20
363.826704
 30
0.0
 10
93.378502
 20
363.579438
 30
0.0
 10
93.054382
 20
363.245296
 30
0.0
 10
92.813797
 20
362.824279
 30
0.0
  0
SPLINE
  5
329
100
AcDbEntity
  8
0
 62
7
100
AcDbSpline
 70
8
 71
3
 72
8
 73
4
 74
0
 40
0
 40
0
 40
0
 40
0
 40
1
 40
1
 40
1
 40
1
 10
92.813797
 20
362.824279
 30
0.0
 10
92.579901
 20
362.396574
 30
0.0
 10
92.462953
 20
361.922091
 30
0.0
 10
92.462953
 20
361.400831
 30
0.0
  0
SPLINE
  5
32a
100
AcDbEntity
  8
0
 62
7
100
AcDbSpline
 70
8
 71
3
 72
8
 73
4
 74
0
 40
0
 40
0
 40
0
 40
0
 40
1
 40
1
 40
1
 40
1
 10
92.462953
 20
361.400831
 30
0.0
 10
92.462953
 20
360.879567
 30
0.0
 10
92.583242
 20
360.405084
 30
0.0
 10
92.823820
 20
359.977384
 30
0.0
  0
SPLINE
  5
32b
100
AcDbEntity
  8
0
 62
7
100
AcDbSpline
 70
8
 71
3
 72
8
 73
4
 74
0
 40
0
 40
0
 40
0
 40
0
 40
1
 40
1
 40
1
 40
1
 10
92.823820
 20
359.977384
 30
0.0
 10
93.071089
 20
359.549681
 30
0.0
 10
93.405232
 20
359.215538
 30
0.0
 10
93.826248
 20
358.974955
 30
0.0
  0
SPLINE
  5
32c
100
AcDbEntity
  8
0
 62
7
100
AcDbSpline
 70
8
 71
3
 72
8
 73
4
 74
0
 40
0
 40
0
 40
0
 40
0
 40
1
 40
1
 40
1
 40
1
 10
93.826248
 20
358.974955
 30
0.0
 10
94.253954
 20
358.727691
 30
0.0
 10
94.728436
 20
358.604059
 30
0.0
 10
95.249696
 20
358.604059
 30
0.0
  0
LINE
  5
32d
100
AcDbEntity
  8
0
 62
7
100
AcDbLine
 10
95.249696
 20
358.604059
 30
0.0
 11
95.249696
 21
358.604059
 31
0.0
  0
SPLINE
  5
32e
100
AcDbEntity
  8
0
 62
7
100
AcDbSpline
 70
8
 71
3
 72
8
 73
4
 74
0
 40
0
 40
0
 40
0
 40
0
 40
1
 40
1
 40
1
 40
1
 10
95.249696
 20
363.485879
 30
0.0
 10
95.630618
 20
363.485879
 30
0.0
 10
95.974784
 20
363.395660
 30
0.0
 10
96.282192
 20
363.215224
 30
0.0
  0
SPLINE
  5
32f
100
AcDbEntity
  8
0
 62
7
100
AcDbSpline
 70
8
 71
3
 72
8
 73
4
 74
0
 40
0
 40
0
 40
0
 40
0
 40
1
 40
1
 40
1
 40
1
 10
96.282192
 20
363.215224
 30
0.0
 10
96.589602
 20
363.034787
 30
0.0
 10
96.830186
 20
362.787521
 30
0.0
 10
97.003944
 20
362.473424
 30
0.0
  0
SPLINE
  5
330
100
AcDbEntity
  8
0
 62
7
100
AcDbSpline
 70
8
 71
3
 72
8
 73
4
 74
0
 40
0
 40
0
 40
0
 40
0
 40
1
 40
1
 40
1
 40
1
 10
97.003944
 20
362.473424
 30
0.0
 10
97.184382
 20
362.152650
 30
0.0
 10
97.274602
 20
361.795119
 30
0.0
 10
97.274602
 20
361.400831
 30
0.0
  0
SPLINE
  5
331
100
AcDbEntity
  8
0
 62
7
100
AcDbSpline
 70
8
 71
3
 72
8
 73
4
 74
0
 40
0
 40
0
 40
0
 40
0
 40
1
 40
1
 40
1
 40
1
 10
97.274602
 20
361.400831
 30
0.0
 10
97.274602
 20
361.006543
 30
0.0
 10
97.184382
 20
360.652352
 30
0.0
 10
97.003944
 20
360.338258
 30
0.0
  0
SPLINE
  5
332
100
AcDbEntity
  8
0
 62
7
100
AcDbSpline
 70
8
 71
3
 72
8
 73
4
 74
0
 40
0
 40
0
 40
0
 40
0
 40
1
 40
1
 40
1
 40
1
 10
97.003944
 20
360.338258
 30
0.0
 10
96.830186
 20
360.017479
 30
0.0
 10
96.589602
 20
359.766872
 30
0.0
 10
96.282192
 20
359.586435
 30
0.0
  0
SPLINE
  5
333
100
AcDbEntity
  8
0
 62
7
100
AcDbSpline
 70
8
 71
3
 72
8
 73
4
 74
0
 40
0
 40
0
 40
0
 40
0
 40
1
 40
1
 40
1
 40
1
 10
96.282192
 20
359.586435
 30
0.0
 10
95.974784
 20
359.399315
 30
0.0
 10
95.630618
 20
359.305755
 30
0.0
 10
95.249696
 20
359.305755
 30
0.0
  0
SPLINE
  5
334
100
AcDbEntity
  8
0
 62
7
100
AcDbSpline
 70
8
 71
3
 72
8
 73
4
 74
0
 40
0
 40
0
 40
0
 40
0
 40
1
 40
1
 40
1
 40
1
 10
95.249696
 20
359.305755
 30
0.0
 10
94.868774
 20
359.305755
 30
0.0
 10
94.521265
 20
359.399315
 30
0.0
 10
94.207171
 20
359.586435
 30
0.0
  0
SPLINE
  5
335
100
AcDbEntity
  8
0
 62
7
100
AcDbSpline
 70
8
 71
3
 72
8
 73
4
 74
0
 40
0
 40
0
 40
0
 40
0
 40
1
 40
1
 40
1
 40
1
 10
94.207171
 20
359.586435
 30
0.0
 10
93.899760
 20
359.766872
 30
0.0
 10
93.655837
 20
360.017479
 30
0.0
 10
93.475400
 20
360.338258
 30
0.0
  0
SPLINE
  5
336
100
AcDbEntity
  8
0
 62
7
100
AcDbSpline
 70
8
 71
3
 72
8
 73
4
 74
0
 40
0
 40
0
 40
0
 40
0
 40
1
 40
1
 40
1
 40
1
 10
93.475400
 20
360.338258
 30
0.0
 10
93.301648
 20
360.652352
 30
0.0
 10
93.214772
 20
361.006543
 30
0.0
 10
93.214772
 20
361.400831
 30
0.0
  0
SPLINE
  5
337
100
AcDbEntity
  8
0
 62
7
100
AcDbSpline
 70
8
 71
3
 72
8
 73
4
 74
0
 40
0
 40
0
 40
0
 40
0
 40
1
 40
1
 40
1
 40
1
 10
93.214772
 20
361.400831
 30
0.0
 10
93.214772
 20
361.795119
 30
0.0
 10
93.301648
 20
362.152650
 30
0.0
 10
93.475400
 20
362.473424
 30
0.0
  0
SPLINE
  5
338
100
AcDbEntity
  8
0
 62
7
100
AcDbSpline
 70
8
 71
3
 72
8
 73
4
 74
0
 40
0
 40
0
 40
0
 40
0
 40
1
 40
1
 40
1
 40
1
 10
93.475400
 20
362.473424
 30
0.0
 10
93.655837
 20
362.787521
 30
0.0
 10
93.899760
 20
363.034787
 30
0.0
 10
94.207171
 20
363.215224
 30
0.0
  0
SPLINE
  5
339
100
AcDbEntity
  8
0
 62
7
100
AcDbSpline
 70
8
 71
3
 72
8
 73
4
 74
0
 40
0
 40
0
 40
0
 40
0
 40
1
 40
1
 40
1
 40
1
 10
94.207171
 20
363.215224
 30
0.0
 10
94.521265
 20
363.395660
 30
0.0
 10
94.868774
 20
363.485879
 30
0.0
 10
95.249696
 20
363.485879
 30
0.0
  0
LINE
  5
33a
100
AcDbEntity
  8
0
 62
7
100
AcDbLine
 10
95.249696
 20
363.485879
 30
0.0
 11
95.249696
 21
363.485879
 31
0.0
  0
SPLINE
  5
33b
100
AcDbEntity
  8
0
 62
7
100
AcDbSpline
 70
8
 71
3
 72
8
 73
4
 74
0
 40
0
 40
0
 40
0
 40
0
 40
1
 40
1
 40
1
 40
1
 10
91.573723
 20
364.137456
 30
0.0
 10
91.166070
 20
364.137456
 30
0.0
 10
90.831928
 20
363.977066
 30
0.0
 10
90.571298
 20
363.656288
 30
0.0
  0
SPLINE
  5
33c
100
AcDbEntity
  8
0
 62
7
100
AcDbSpline
 70
8
 71
3
 72
8
 73
4
 74
0
 40
0
 40
0
 40
0
 40
0
 40
1
 40
1
 40
1
 40
1
 10
90.571298
 20
363.656288
 30
0.0
 10
90.317352
 20
363.328830
 30
0.0
 10
90.190380
 20
362.911153
 30
0.0
 10
90.190380
 20
362.403256
 30
0.0
  0
LINE
  5
33d
100
AcDbEntity
  8
0
 62
7
100
AcDbLine
 10
90.190380
 20
362.403256
 30
0.0
 11
90.190380
 21
356.689424
 31
0.0
  0
SPLINE
  5
33e
100
AcDbEntity
  8
0
 62
7
100
AcDbSpline
 70
8
 71
3
 72
8
 73
4
 74
0
 40
0
 40
0
 40
0
 40
0
 40
1
 40
1
 40
1
 40
1
 10
90.190380
 20
356.689424
 30
0.0
 10
90.190380
 20
356.575813
 30
0.0
 10
90.227134
 20
356.485595
 30
0.0
 10
90.300644
 20
356.418770
 30
0.0
  0
SPLINE
  5
33f
100
AcDbEntity
  8
0
 62
7
100
AcDbSpline
 70
8
 71
3
 72
8
 73
4
 74
0
 40
0
 40
0
 40
0
 40
0
 40
1
 40
1
 40
1
 40
1
 10
90.300644
 20
356.418770
 30
0.0
 10
90.374151
 20
356.345258
 30
0.0
 10
90.464369
 20
356.308502
 30
0.0
 10
90.571298
 20
356.308502
 30
0.0
  0
SPLINE
  5
340
100
AcDbEntity
  8
0
 62
7
100
AcDbSpline
 70
8
 71
3
 72
8
 73
4
 74
0
 40
0
 40
0
 40
0
 40
0
 40
1
 40
1
 40
1
 40
1
 10
90.571298
 20
356.308502
 30
0.0
 10
90.684905
 20
356.308502
 30
0.0
 10
90.775124
 20
356.345258
 30
0.0
 10
90.841957
 20
356.418770
 30
0.0
  0
SPLINE
  5
341
100
AcDbEntity
  8
0
 62
7
100
AcDbSpline
 70
8
 71
3
 72
8
 73
4
 74
0
 40
0
 40
0
 40
0
 40
0
 40
1
 40
1
 40
1
 40
1
 10
90.841957
 20
356.418770
 30
0.0
 10
90.915464
 20
356.485595
 30
0.0
 10
90.952217
 20
356.575813
 30
0.0
 10
90.952217
 20
356.689424
 30
0.0
  0
LINE
  5
342
100
AcDbEntity
  8
0
 62
7
100
AcDbLine
 10
90.952217
 20
356.689424
 30
0.0
 11
90.952217
 21
362.403256
 31
0.0
  0
SPLINE
  5
343
100
AcDbEntity
  8
0
 62
7
100
AcDbSpline
 70
8
 71
3
 72
8
 73
4
 74
0
 40
0
 40
0
 40
0
 40
0
 40
1
 40
1
 40
1
 40
1
 10
90.952217
 20
362.403256
 30
0.0
 10
90.952217
 20
362.690617
 30
0.0
 10
91.009021
 20
362.924516
 30
0.0
 10
91.122630
 20
363.104953
 30
0.0
  0
SPLINE
  5
344
100
AcDbEntity
  8
0
 62
7
100
AcDbSpline
 70
8
 71
3
 72
8
 73
4
 74
0
 40
0
 40
0
 40
0
 40
0
 40
1
 40
1
 40
1
 40
1
 10
91.122630
 20
363.104953
 30
0.0
 10
91.242923
 20
363.285391
 30
0.0
 10
91.393287
 20
363.375611
 30
0.0
 10
91.573723
 20
363.375611
 30
0.0
  0
LINE
  5
345
100
AcDbEntity
  8
0
 62
7
100
AcDbLine
 10
91.573723
 20
363.375611
 30
0.0
 11
91.824333
 21
363.375611
 31
0.0
  0
SPLINE
  5
346
100
AcDbEntity
  8
0
 62
7
100
AcDbSpline
 70
8
 71
3
 72
8
 73
4
 74
0
 40
0
 40
0
 40
0
 40
0
 40
1
 40
1
 40
1
 40
1
 10
91.824333
 20
363.375611
 30
0.0
 10
91.924574
 20
363.375611
 30
0.0
 10
92.004767
 20
363.412367
 30
0.0
 10
92.064914
 20
363.485879
 30
0.0
  0
SPLINE
  5
347
100
AcDbEntity
  8
0
 62
7
100
AcDbSpline
 70
8
 71
3
 72
8
 73
4
 74
0
 40
0
 40
0
 40
0
 40
0
 40
1
 40
1
 40
1
 40
1
 10
92.064914
 20
363.485879
 30
0.0
 10
92.125060
 20
363.552706
 30
0.0
 10
92.155133
 20
363.642925
 30
0.0
 10
92.155133
 20
363.756533
 30
0.0
  0
SPLINE
  5
348
100
AcDbEntity
  8
0
 62
7
100
AcDbSpline
 70
8
 71
3
 72
8
 73
4
 74
0
 40
0
 40
0
 40
0
 40
0
 40
1
 40
1
 40
1
 40
1
 10
92.155133
 20
363.756533
 30
0.0
 10
92.155133
 20
363.870142
 30
0.0
 10
92.111695
 20
363.963701
 30
0.0
 10
92.024820
 20
364.037210
 30
0.0
  0
SPLINE
  5
349
100
AcDbEntity
  8
0
 62
7
100
AcDbSpline
 70
8
 71
3
 72
8
 73
4
 74
0
 40
0
 40
0
 40
0
 40
0
 40
1
 40
1
 40
1
 40
1
 10
92.024820
 20
364.037210
 30
0.0
 10
91.944622
 20
364.104040
 30
0.0
 10
91.837696
 20
364.137456
 30
0.0
 10
91.704043
 20
364.137456
 30
0.0
  0
LINE
  5
34a
100
AcDbEntity
  8
0
 62
7
100
AcDbLine
 10
91.704043
 20
364.137456
 30
0.0
 11
91.573723
 21
364.137456
 31
0.0
  0
SPLINE
  5
34b
100
AcDbEntity
  8
0
 62
7
100
AcDbSpline
 70
8
 71
3
 72
8
 73
4
 74
0
 40
0
 40
0
 40
0
 40
0
 40
1
 40
1
 40
1
 40
1
 10
86.334712
 20
361.781754
 30
0.0
 10
86.227786
 20
361.781754
 30
0.0
 10
86.137566
 20
361.744998
 30
0.0
 10
86.064054
 20
361.671486
 30
0.0
  0
SPLINE
  5
34c
100
AcDbEntity
  8
0
 62
7
100
AcDbSpline
 70
8
 71
3
 72
8
 73
4
 74
0
 40
0
 40
0
 40
0
 40
0
 40
1
 40
1
 40
1
 40
1
 10
86.064054
 20
361.671486
 30
0.0
 10
85.990542
 20
361.597974
 30
0.0
 10
85.953787
 20
361.507756
 30
0.0
 10
85.953787
 20
361.400831
 30
0.0
  0
SPLINE
  5
34d
100
AcDbEntity
  8
0
 62
7
100
AcDbSpline
 70
8
 71
3
 72
8
 73
4
 74
0
 40
0
 40
0
 40
0
 40
0
 40
1
 40
1
 40
1
 40
1
 10
85.953787
 20
361.400831
 30
0.0
 10
85.953787
 20
361.287223
 30
0.0
 10
85.987199
 20
361.193661
 30
0.0
 10
86.054025
 20
361.120147
 30
0.0
  0
SPLINE
  5
34e
100
AcDbEntity
  8
0
 62
7
100
AcDbSpline
 70
8
 71
3
 72
8
 73
4
 74
0
 40
0
 40
0
 40
0
 40
0
 40
1
 40
1
 40
1
 40
1
 10
86.054025
 20
361.120147
 30
0.0
 10
86.127541
 20
361.046638
 30
0.0
 10
86.221104
 20
361.009883
 30
0.0
 10
86.334712
 20
361.009883
 30
0.0
  0
LINE
  5
34f
100
AcDbEntity
  8
0
 62
7
100
AcDbLine
 10
86.334712
 20
361.009883
 30
0.0
 11
88.690411
 21
361.009883
 31
0.0
  0
SPLINE
  5
350
100
AcDbEntity
  8
0
 62
7
100
AcDbSpline
 70
8
 71
3
 72
8
 73
4
 74
0
 40
0
 40
0
 40
0
 40
0
 40
1
 40
1
 40
1
 40
1
 10
88.690411
 20
361.009883
 30
0.0
 10
88.804019
 20
361.009883
 30
0.0
 10
88.897582
 20
361.046638
 30
0.0
 10
88.971098
 20
361.120147
 30
0.0
  0
SPLINE
  5
351
100
AcDbEntity
  8
0
 62
7
100
AcDbSpline
 70
8
 71
3
 72
8
 73
4
 74
0
 40
0
 40
0
 40
0
 40
0
 40
1
 40
1
 40
1
 40
1
 10
88.971098
 20
361.120147
 30
0.0
 10
89.044608
 20
361.193661
 30
0.0
 10
89.081363
 20
361.287223
 30
0.0
 10
89.081363
 20
361.400831
 30
0.0
  0
SPLINE
  5
352
100
AcDbEntity
  8
0
 62
7
100
AcDbSpline
 70
8
 71
3
 72
8
 73
4
 74
0
 40
0
 40
0
 40
0
 40
0
 40
1
 40
1
 40
1
 40
1
 10
89.081363
 20
361.400831
 30
0.0
 10
89.081363
 20
361.507756
 30
0.0
 10
89.044608
 20
361.597974
 30
0.0
 10
88.971098
 20
361.671486
 30
0.0
  0
SPLINE
  5
353
100
AcDbEntity
  8
0
 62
7
100
AcDbSpline
 70
8
 71
3
 72
8
 73
4
 74
0
 40
0
 40
0
 40
0
 40
0
 40
1
 40
1
 40
1
 40
1
 10
88.971098
 20
361.671486
 30
0.0
 10
88.897582
 20
361.744998
 30
0.0
 10
88.804019
 20
361.781754
 30
0.0
 10
88.690411
 20
361.781754
 30
0.0
  0
LINE
  5
354
100
AcDbEntity
  8
0
 62
7
100
AcDbLine
 10
88.690411
 20
361.781754
 30
0.0
 11
86.334712
 21
361.781754
 31
0.0
  0
SPLINE
  5
355
100
AcDbEntity
  8
0
 62
7
100
AcDbSpline
 70
8
 71
3
 72
8
 73
4
 74
0
 40
0
 40
0
 40
0
 40
0
 40
1
 40
1
 40
1
 40
1
 10
83.226779
 20
358.594036
 30
0.0
 10
83.701258
 20
358.594036
 30
0.0
 10
84.125619
 20
358.694278
 30
0.0
 10
84.499862
 20
358.894762
 30
0.0
  0
SPLINE
  5
356
100
AcDbEntity
  8
0
 62
7
100
AcDbSpline
 70
8
 71
3
 72
8
 73
4
 74
0
 40
0
 40
0
 40
0
 40
0
 40
1
 40
1
 40
1
 40
1
 10
84.499862
 20
358.894762
 30
0.0
 10
84.880782
 20
359.095248
 30
0.0
 10
85.178168
 20
359.389293
 30
0.0
 10
85.392020
 20
359.776896
 30
0.0
  0
SPLINE
  5
357
100
AcDbEntity
  8
0
 62
7
100
AcDbSpline
 70
8
 71
3
 72
8
 73
4
 74
0
 40
0
 40
0
 40
0
 40
0
 40
1
 40
1
 40
1
 40
1
 10
85.392020
 20
359.776896
 30
0.0
 10
85.605871
 20
360.157821
 30
0.0
 10
85.712797
 20
360.615596
 30
0.0
 10
85.712797
 20
361.150222
 30
0.0
  0
LINE
  5
358
100
AcDbEntity
  8
0
 62
7
100
AcDbLine
 10
85.712797
 20
361.150222
 30
0.0
 11
85.712797
 21
363.756533
 31
0.0
  0
SPLINE
  5
359
100
AcDbEntity
  8
0
 62
7
100
AcDbSpline
 70
8
 71
3
 72
8
 73
4
 74
0
 40
0
 40
0
 40
0
 40
0
 40
1
 40
1
 40
1
 40
1
 10
85.712797
 20
363.756533
 30
0.0
 10
85.712797
 20
363.863460
 30
0.0
 10
85.676041
 20
363.953679
 30
0.0
 10
85.602529
 20
364.027191
 30
0.0
  0
SPLINE
  5
35a
100
AcDbEntity
  8
0
 62
7
100
AcDbSpline
 70
8
 71
3
 72
8
 73
4
 74
0
 40
0
 40
0
 40
0
 40
0
 40
1
 40
1
 40
1
 40
1
 10
85.602529
 20
364.027191
 30
0.0
 10
85.529017
 20
364.100701
 30
0.0
 10
85.438799
 20
364.137456
 30
0.0
 10
85.331875
 20
364.137456
 30
0.0
  0
SPLINE
  5
35b
100
AcDbEntity
  8
0
 62
7
100
AcDbSpline
 70
8
 71
3
 72
8
 73
4
 74
0
 40
0
 40
0
 40
0
 40
0
 40
1
 40
1
 40
1
 40
1
 10
85.331875
 20
364.137456
 30
0.0
 10
85.218264
 20
364.137456
 30
0.0
 10
85.124704
 20
364.100701
 30
0.0
 10
85.051194
 20
364.027191
 30
0.0
  0
SPLINE
  5
35c
100
AcDbEntity
  8
0
 62
7
100
AcDbSpline
 70
8
 71
3
 72
8
 73
4
 74
0
 40
0
 40
0
 40
0
 40
0
 40
1
 40
1
 40
1
 40
1
 10
85.051194
 20
364.027191
 30
0.0
 10
84.977682
 20
363.953679
 30
0.0
 10
84.940926
 20
363.863460
 30
0.0
 10
84.940926
 20
363.756533
 30
0.0
  0
LINE
  5
35d
100
AcDbEntity
  8
0
 62
7
100
AcDbLine
 10
84.940926
 20
363.756533
 30
0.0
 11
84.940926
 21
361.150222
 31
0.0
  0
SPLINE
  5
35e
100
AcDbEntity
  8
0
 62
7
100
AcDbSpline
 70
8
 71
3
 72
8
 73
4
 74
0
 40
0
 40
0
 40
0
 40
0
 40
1
 40
1
 40
1
 40
1
 10
84.940926
 20
361.150222
 30
0.0
 10
84.940926
 20
360.555450
 30
0.0
 10
84.773854
 20
360.104359
 30
0.0
 10
84.439710
 20
359.796948
 30
0.0
  0
SPLINE
  5
35f
100
AcDbEntity
  8
0
 62
7
100
AcDbSpline
 70
8
 71
3
 72
8
 73
4
 74
0
 40
0
 40
0
 40
0
 40
0
 40
1
 40
1
 40
1
 40
1
 10
84.439710
 20
359.796948
 30
0.0
 10
84.112255
 20
359.482852
 30
0.0
 10
83.681212
 20
359.325803
 30
0.0
 10
83.146582
 20
359.325803
 30
0.0
  0
SPLINE
  5
360
100
AcDbEntity
  8
0
 62
7
100
AcDbSpline
 70
8
 71
3
 72
8
 73
4
 74
0
 40
0
 40
0
 40
0
 40
0
 40
1
 40
1
 40
1
 40
1
 10
83.146582
 20
359.325803
 30
0.0
 10
82.819122
 20
359.325803
 30
0.0
 10
82.521735
 20
359.389291
 30
0.0
 10
82.254421
 20
359.516268
 30
0.0
  0
SPLINE
  5
361
100
AcDbEntity
  8
0
 62
7
100
AcDbSpline
 70
8
 71
3
 72
8
 73
4
 74
0
 40
0
 40
0
 40
0
 40
0
 40
1
 40
1
 40
1
 40
1
 10
82.254421
 20
359.516268
 30
0.0
 10
81.993791
 20
359.643240
 30
0.0
 10
81.786624
 20
359.820334
 30
0.0
 10
81.632919
 20
360.047551
 30
0.0
  0
SPLINE
  5
362
100
AcDbEntity
  8
0
 62
7
100
AcDbSpline
 70
8
 71
3
 72
8
 73
4
 74
0
 40
0
 40
0
 40
0
 40
0
 40
1
 40
1
 40
1
 40
1
 10
81.632919
 20
360.047551
 30
0.0
 10
81.479213
 20
360.268087
 30
0.0
 10
81.402361
 20
360.515353
 30
0.0
 10
81.402361
 20
360.789351
 30
0.0
  0
LINE
  5
363
100
AcDbEntity
  8
0
 62
7
100
AcDbLine
 10
81.402361
 20
360.789351
 30
0.0
 11
81.402361
 21
363.756533
 31
0.0
  0
SPLINE
  5
364
100
AcDbEntity
  8
0
 62
7
100
AcDbSpline
 70
8
 71
3
 72
8
 73
4
 74
0
 40
0
 40
0
 40
0
 40
0
 40
1
 40
1
 40
1
 40
1
 10
81.402361
 20
363.756533
 30
0.0
 10
81.402361
 20
363.870142
 30
0.0
 10
81.365605
 20
363.963701
 30
0.0
 10
81.292093
 20
364.037210
 30
0.0
  0
SPLINE
  5
365
100
AcDbEntity
  8
0
 62
7
100
AcDbSpline
 70
8
 71
3
 72
8
 73
4
 74
0
 40
0
 40
0
 40
0
 40
0
 40
1
 40
1
 40
1
 40
1
 10
81.292093
 20
364.037210
 30
0.0
 10
81.225265
 20
364.104040
 30
0.0
 10
81.135046
 20
364.137456
 30
0.0
 10
81.021435
 20
364.137456
 30
0.0
  0
SPLINE
  5
366
100
AcDbEntity
  8
0
 62
7
100
AcDbSpline
 70
8
 71
3
 72
8
 73
4
 74
0
 40
0
 40
0
 40
0
 40
0
 40
1
 40
1
 40
1
 40
1
 10
81.021435
 20
364.137456
 30
0.0
 10
80.907831
 20
364.137456
 30
0.0
 10
80.814272
 20
364.104040
 30
0.0
 10
80.740758
 20
364.037210
 30
0.0
  0
SPLINE
  5
367
100
AcDbEntity
  8
0
 62
7
100
AcDbSpline
 70
8
 71
3
 72
8
 73
4
 74
0
 40
0
 40
0
 40
0
 40
0
 40
1
 40
1
 40
1
 40
1
 10
80.740758
 20
364.037210
 30
0.0
 10
80.667246
 20
363.963701
 30
0.0
 10
80.630490
 20
363.870142
 30
0.0
 10
80.630490
 20
363.756533
 30
0.0
  0
LINE
  5
368
100
AcDbEntity
  8
0
 62
7
100
AcDbLine
 10
80.630490
 20
363.756533
 30
0.0
 11
80.630490
 21
356.699443
 31
0.0
  0
SPLINE
  5
369
100
AcDbEntity
  8
0
 62
7
100
AcDbSpline
 70
8
 71
3
 72
8
 73
4
 74
0
 40
0
 40
0
 40
0
 40
0
 40
1
 40
1
 40
1
 40
1
 10
80.630490
 20
356.699443
 30
0.0
 10
80.630490
 20
356.585837
 30
0.0
 10
80.667246
 20
356.492279
 30
0.0
 10
80.740758
 20
356.418770
 30
0.0
  0
SPLINE
  5
36a
100
AcDbEntity
  8
0
 62
7
100
AcDbSpline
 70
8
 71
3
 72
8
 73
4
 74
0
 40
0
 40
0
 40
0
 40
0
 40
1
 40
1
 40
1
 40
1
 10
80.740758
 20
356.418770
 30
0.0
 10
80.814272
 20
356.345258
 30
0.0
 10
80.907831
 20
356.308502
 30
0.0
 10
81.021435
 20
356.308502
 30
0.0
  0
SPLINE
  5
36b
100
AcDbEntity
  8
0
 62
7
100
AcDbSpline
 70
8
 71
3
 72
8
 73
4
 74
0
 40
0
 40
0
 40
0
 40
0
 40
1
 40
1
 40
1
 40
1
 10
81.021435
 20
356.308502
 30
0.0
 10
81.135046
 20
356.308502
 30
0.0
 10
81.225265
 20
356.345258
 30
0.0
 10
81.292093
 20
356.418770
 30
0.0
  0
SPLINE
  5
36c
100
AcDbEntity
  8
0
 62
7
100
AcDbSpline
 70
8
 71
3
 72
8
 73
4
 74
0
 40
0
 40
0
 40
0
 40
0
 40
1
 40
1
 40
1
 40
1
 10
81.292093
 20
356.418770
 30
0.0
 10
81.365605
 20
356.492279
 30
0.0
 10
81.402361
 20
356.585837
 30
0.0
 10
81.402361
 20
356.699443
 30
0.0
  0
LINE
  5
36d
100
AcDbEntity
  8
0
 62
7
100
AcDbLine
 10
81.402361
 20
356.699443
 30
0.0
 11
81.402361
 21
359.385952
 31
0.0
  0
SPLINE
  5
36e
100
AcDbEntity
  8
0
 62
7
100
AcDbSpline
 70
8
 71
3
 72
8
 73
4
 74
0
 40
0
 40
0
 40
0
 40
0
 40
1
 40
1
 40
1
 40
1
 10
81.402361
 20
359.385952
 30
0.0
 10
81.622894
 20
359.138687
 30
0.0
 10
81.890208
 20
358.944884
 30
0.0
 10
82.204302
 20
358.804542
 30
0.0
  0
SPLINE
  5
36f
100
AcDbEntity
  8
0
 62
7
100
AcDbSpline
 70
8
 71
3
 72
8
 73
4
 74
0
 40
0
 40
0
 40
0
 40
0
 40
1
 40
1
 40
1
 40
1
 10
82.204302
 20
358.804542
 30
0.0
 10
82.518397
 20
358.664205
 30
0.0
 10
82.859222
 20
358.594036
 30
0.0
 10
83.226779
 20
358.594036
 30
0.0
  0
LINE
  5
370
100
AcDbEntity
  8
0
 62
7
100
AcDbLine
 10
83.226779
 20
358.594036
 30
0.0
 11
83.226779
 21
358.594036
 31
0.0
  0
SPLINE
  5
371
100
AcDbEntity
  8
0
 62
7
100
AcDbSpline
 70
8
 71
3
 72
8
 73
4
 74
0
 40
0
 40
0
 40
0
 40
0
 40
1
 40
1
 40
1
 40
1
 10
77.617598
 20
364.187578
 30
0.0
 10
77.096336
 20
364.187578
 30
0.0
 10
76.628537
 20
364.067287
 30
0.0
 10
76.214199
 20
363.826704
 30
0.0
  0
SPLINE
  5
372
100
AcDbEntity
  8
0
 62
7
100
AcDbSpline
 70
8
 71
3
 72
8
 73
4
 74
0
 40
0
 40
0
 40
0
 40
0
 40
1
 40
1
 40
1
 40
1
 10
76.214199
 20
363.826704
 30
0.0
 10
75.799864
 20
363.579438
 30
0.0
 10
75.472406
 20
363.245296
 30
0.0
 10
75.231826
 20
362.824279
 30
0.0
  0
SPLINE
  5
373
100
AcDbEntity
  8
0
 62
7
100
AcDbSpline
 70
8
 71
3
 72
8
 73
4
 74
0
 40
0
 40
0
 40
0
 40
0
 40
1
 40
1
 40
1
 40
1
 10
75.231826
 20
362.824279
 30
0.0
 10
74.997922
 20
362.396574
 30
0.0
 10
74.880971
 20
361.922091
 30
0.0
 10
74.880971
 20
361.400831
 30
0.0
  0
SPLINE
  5
374
100
AcDbEntity
  8
0
 62
7
100
AcDbSpline
 70
8
 71
3
 72
8
 73
4
 74
0
 40
0
 40
0
 40
0
 40
0
 40
1
 40
1
 40
1
 40
1
 10
74.880971
 20
361.400831
 30
0.0
 10
74.880971
 20
360.866201
 30
0.0
 10
74.994580
 20
360.388377
 30
0.0
 10
75.221800
 20
359.967358
 30
0.0
  0
SPLINE
  5
375
100
AcDbEntity
  8
0
 62
7
100
AcDbSpline
 70
8
 71
3
 72
8
 73
4
 74
0
 40
0
 40
0
 40
0
 40
0
 40
1
 40
1
 40
1
 40
1
 10
75.221800
 20
359.967358
 30
0.0
 10
75.449015
 20
359.539655
 30
0.0
 10
75.763109
 20
359.205512
 30
0.0
 10
76.164083
 20
358.964929
 30
0.0
  0
SPLINE
  5
376
100
AcDbEntity
  8
0
 62
7
100
AcDbSpline
 70
8
 71
3
 72
8
 73
4
 74
0
 40
0
 40
0
 40
0
 40
0
 40
1
 40
1
 40
1
 40
1
 10
76.164083
 20
358.964929
 30
0.0
 10
76.565051
 20
358.724349
 30
0.0
 10
77.016142
 20
358.604059
 30
0.0
 10
77.517357
 20
358.604059
 30
0.0
  0
SPLINE
  5
377
100
AcDbEntity
  8
0
 62
7
100
AcDbSpline
 70
8
 71
3
 72
8
 73
4
 74
0
 40
0
 40
0
 40
0
 40
0
 40
1
 40
1
 40
1
 40
1
 10
77.517357
 20
358.604059
 30
0.0
 10
78.352718
 20
358.604059
 30
0.0
 10
79.031028
 20
358.924835
 30
0.0
 10
79.552288
 20
359.566387
 30
0.0
  0
SPLINE
  5
378
100
AcDbEntity
  8
0
 62
7
100
AcDbSpline
 70
8
 71
3
 72
8
 73
4
 74
0
 40
0
 40
0
 40
0
 40
0
 40
1
 40
1
 40
1
 40
1
 10
79.552288
 20
359.566387
 30
0.0
 10
79.605746
 20
359.626533
 30
0.0
 10
79.632475
 20
359.696703
 30
0.0
 10
79.632475
 20
359.776896
 30
0.0
  0
SPLINE
  5
379
100
AcDbEntity
  8
0
 62
7
100
AcDbSpline
 70
8
 71
3
 72
8
 73
4
 74
0
 40
0
 40
0
 40
0
 40
0
 40
1
 40
1
 40
1
 40
1
 10
79.632475
 20
359.776896
 30
0.0
 10
79.632475
 20
359.883821
 30
0.0
 10
79.575673
 20
359.977381
 30
0.0
 10
79.462069
 20
360.057577
 30
0.0
  0
SPLINE
  5
37a
100
AcDbEntity
  8
0
 62
7
100
AcDbSpline
 70
8
 71
3
 72
8
 73
4
 74
0
 40
0
 40
0
 40
0
 40
0
 40
1
 40
1
 40
1
 40
1
 10
79.462069
 20
360.057577
 30
0.0
 10
79.401923
 20
360.097671
 30
0.0
 10
79.338435
 20
360.117719
 30
0.0
 10
79.271608
 20
360.117719
 30
0.0
  0
SPLINE
  5
37b
100
AcDbEntity
  8
0
 62
7
100
AcDbSpline
 70
8
 71
3
 72
8
 73
4
 74
0
 40
0
 40
0
 40
0
 40
0
 40
1
 40
1
 40
1
 40
1
 10
79.271608
 20
360.117719
 30
0.0
 10
79.171365
 20
360.117719
 30
0.0
 10
79.074461
 20
360.067598
 30
0.0
 10
78.980898
 20
359.967358
 30
0.0
  0
SPLINE
  5
37c
100
AcDbEntity
  8
0
 62
7
100
AcDbSpline
 70
8
 71
3
 72
8
 73
4
 74
0
 40
0
 40
0
 40
0
 40
0
 40
1
 40
1
 40
1
 40
1
 10
78.980898
 20
359.967358
 30
0.0
 10
78.780419
 20
359.746827
 30
0.0
 10
78.559887
 20
359.583098
 30
0.0
 10
78.319302
 20
359.476171
 30
0.0
  0
SPLINE
  5
37d
100
AcDbEntity
  8
0
 62
7
100
AcDbSpline
 70
8
 71
3
 72
8
 73
4
 74
0
 40
0
 40
0
 40
0
 40
0
 40
1
 40
1
 40
1
 40
1
 10
78.319302
 20
359.476171
 30
0.0
 10
78.078719
 20
359.362560
 30
0.0
 10
77.811404
 20
359.305755
 30
0.0
 10
77.517357
 20
359.305755
 30
0.0
  0
SPLINE
  5
37e
100
AcDbEntity
  8
0
 62
7
100
AcDbSpline
 70
8
 71
3
 72
8
 73
4
 74
0
 40
0
 40
0
 40
0
 40
0
 40
1
 40
1
 40
1
 40
1
 10
77.517357
 20
359.305755
 30
0.0
 10
77.149800
 20
359.305755
 30
0.0
 10
76.822340
 20
359.395974
 30
0.0
 10
76.534976
 20
359.576413
 30
0.0
  0
SPLINE
  5
37f
100
AcDbEntity
  8
0
 62
7
100
AcDbSpline
 70
8
 71
3
 72
8
 73
4
 74
0
 40
0
 40
0
 40
0
 40
0
 40
1
 40
1
 40
1
 40
1
 10
76.534976
 20
359.576413
 30
0.0
 10
76.247615
 20
359.750168
 30
0.0
 10
76.023741
 20
359.997432
 30
0.0
 10
75.863355
 20
360.318206
 30
0.0
  0
SPLINE
  5
380
100
AcDbEntity
  8
0
 62
7
100
AcDbSpline
 70
8
 71
3
 72
8
 73
4
 74
0
 40
0
 40
0
 40
0
 40
0
 40
1
 40
1
 40
1
 40
1
 10
75.863355
 20
360.318206
 30
0.0
 10
75.709647
 20
360.638982
 30
0.0
 10
75.632793
 20
360.999857
 30
0.0
 10
75.632793
 20
361.400831
 30
0.0
  0
SPLINE
  5
381
100
AcDbEntity
  8
0
 62
7
100
AcDbSpline
 70
8
 71
3
 72
8
 73
4
 74
0
 40
0
 40
0
 40
0
 40
0
 40
1
 40
1
 40
1
 40
1
 10
75.632793
 20
361.400831
 30
0.0
 10
75.632793
 20
361.795119
 30
0.0
 10
75.716329
 20
362.152650
 30
0.0
 10
75.883399
 20
362.473424
 30
0.0
  0
SPLINE
  5
382
100
AcDbEntity
  8
0
 62
7
100
AcDbSpline
 70
8
 71
3
 72
8
 73
4
 74
0
 40
0
 40
0
 40
0
 40
0
 40
1
 40
1
 40
1
 40
1
 10
75.883399
 20
362.473424
 30
0.0
 10
76.050475
 20
362.787521
 30
0.0
 10
76.284377
 20
363.034787
 30
0.0
 10
76.585106
 20
363.215224
 30
0.0
  0
SPLINE
  5
383
100
AcDbEntity
  8
0
 62
7
100
AcDbSpline
 70
8
 71
3
 72
8
 73
4
 74
0
 40
0
 40
0
 40
0
 40
0
 40
1
 40
1
 40
1
 40
1
 10
76.585106
 20
363.215224
 30
0.0
 10
76.885830
 20
363.395660
 30
0.0
 10
77.229994
 20
363.485879
 30
0.0
 10
77.617598
 20
363.485879
 30
0.0
  0
SPLINE
  5
384
100
AcDbEntity
  8
0
 62
7
100
AcDbSpline
 70
8
 71
3
 72
8
 73
4
 74
0
 40
0
 40
0
 40
0
 40
0
 40
1
 40
1
 40
1
 40
1
 10
77.617598
 20
363.485879
 30
0.0
 10
78.152228
 20
363.485879
 30
0.0
 10
78.583273
 20
363.342198
 30
0.0
 10
78.910734
 20
363.054837
 30
0.0
  0
SPLINE
  5
385
100
AcDbEntity
  8
0
 62
7
100
AcDbSpline
 70
8
 71
3
 72
8
 73
4
 74
0
 40
0
 40
0
 40
0
 40
0
 40
1
 40
1
 40
1
 40
1
 10
78.910734
 20
363.054837
 30
0.0
 10
78.997606
 20
362.981325
 30
0.0
 10
79.087826
 20
362.944569
 30
0.0
 10
79.181392
 20
362.944569
 30
0.0
  0
SPLINE
  5
386
100
AcDbEntity
  8
0
 62
7
100
AcDbSpline
 70
8
 71
3
 72
8
 73
4
 74
0
 40
0
 40
0
 40
0
 40
0
 40
1
 40
1
 40
1
 40
1
 10
79.181392
 20
362.944569
 30
0.0
 10
79.261583
 20
362.944569
 30
0.0
 10
79.335091
 20
362.971300
 30
0.0
 10
79.401917
 20
363.024763
 30
0.0
  0
SPLINE
  5
387
100
AcDbEntity
  8
0
 62
7
100
AcDbSpline
 70
8
 71
3
 72
8
 73
4
 74
0
 40
0
 40
0
 40
0
 40
0
 40
1
 40
1
 40
1
 40
1
 10
79.401917
 20
363.024763
 30
0.0
 10
79.495478
 20
363.104958
 30
0.0
 10
79.542259
 20
363.195177
 30
0.0
 10
79.542259
 20
363.295417
 30
0.0
  0
SPLINE
  5
388
100
AcDbEntity
  8
0
 62
7
100
AcDbSpline
 70
8
 71
3
 72
8
 73
4
 74
0
 40
0
 40
0
 40
0
 40
0
 40
1
 40
1
 40
1
 40
1
 10
79.542259
 20
363.295417
 30
0.0
 10
79.542259
 20
363.382292
 30
0.0
 10
79.508846
 20
363.455803
 30
0.0
 10
79.442020
 20
363.515949
 30
0.0
  0
SPLINE
  5
389
100
AcDbEntity
  8
0
 62
7
100
AcDbSpline
 70
8
 71
3
 72
8
 73
4
 74
0
 40
0
 40
0
 40
0
 40
0
 40
1
 40
1
 40
1
 40
1
 10
79.442020
 20
363.515949
 30
0.0
 10
78.960853
 20
363.963702
 30
0.0
 10
78.352712
 20
364.187578
 30
0.0
 10
77.617598
 20
364.187578
 30
0.0
  0
LINE
  5
38a
100
AcDbEntity
  8
0
 62
7
100
AcDbLine
 10
77.617598
 20
364.187578
 30
0.0
 11
77.617598
 21
364.187578
 31
0.0
  0
SPLINE
  5
38b
100
AcDbEntity
  8
0
 62
7
100
AcDbSpline
 70
8
 71
3
 72
8
 73
4
 74
0
 40
0
 40
0
 40
0
 40
0
 40
1
 40
1
 40
1
 40
1
 10
71.228719
 20
358.604059
 30
0.0
 10
71.723252
 20
358.604059
 30
0.0
 10
72.160980
 20
358.721009
 30
0.0
 10
72.541902
 20
358.954910
 30
0.0
  0
SPLINE
  5
38c
100
AcDbEntity
  8
0
 62
7
100
AcDbSpline
 70
8
 71
3
 72
8
 73
4
 74
0
 40
0
 40
0
 40
0
 40
0
 40
1
 40
1
 40
1
 40
1
 10
72.541902
 20
358.954910
 30
0.0
 10
72.922822
 20
359.182125
 30
0.0
 10
73.216867
 20
359.499559
 30
0.0
 10
73.424037
 20
359.907213
 30
0.0
  0
SPLINE
  5
38d
100
AcDbEntity
  8
0
 62
7
100
AcDbSpline
 70
8
 71
3
 72
8
 73
4
 74
0
 40
0
 40
0
 40
0
 40
0
 40
1
 40
1
 40
1
 40
1
 10
73.424037
 20
359.907213
 30
0.0
 10
73.637889
 20
360.314868
 30
0.0
 10
73.744815
 20
360.779326
 30
0.0
 10
73.744815
 20
361.300586
 30
0.0
  0
SPLINE
  5
38e
100
AcDbEntity
  8
0
 62
7
100
AcDbSpline
 70
8
 71
3
 72
8
 73
4
 74
0
 40
0
 40
0
 40
0
 40
0
 40
1
 40
1
 40
1
 40
1
 10
73.744815
 20
361.300586
 30
0.0
 10
73.744815
 20
361.407513
 30
0.0
 10
73.711401
 20
361.494390
 30
0.0
 10
73.644573
 20
361.561218
 30
0.0
  0
SPLINE
  5
38f
100
AcDbEntity
  8
0
 62
7
100
AcDbSpline
 70
8
 71
3
 72
8
 73
4
 74
0
 40
0
 40
0
 40
0
 40
0
 40
1
 40
1
 40
1
 40
1
 10
73.644573
 20
361.561218
 30
0.0
 10
73.577745
 20
361.621365
 30
0.0
 10
73.490868
 20
361.651438
 30
0.0
 10
73.383941
 20
361.651438
 30
0.0
  0
LINE
  5
390
100
AcDbEntity
  8
0
 62
7
100
AcDbLine
 10
73.383941
 20
361.651438
 30
0.0
 11
69.334133
 21
361.651438
 31
0.0
  0
SPLINE
  5
391
100
AcDbEntity
  8
0
 62
7
100
AcDbSpline
 70
8
 71
3
 72
8
 73
4
 74
0
 40
0
 40
0
 40
0
 40
0
 40
1
 40
1
 40
1
 40
1
 10
69.334133
 20
361.651438
 30
0.0
 10
69.387600
 20
362.199429
 30
0.0
 10
69.601453
 20
362.643838
 30
0.0
 10
69.975691
 20
362.984666
 30
0.0
  0
SPLINE
  5
392
100
AcDbEntity
  8
0
 62
7
100
AcDbSpline
 70
8
 71
3
 72
8
 73
4
 74
0
 40
0
 40
0
 40
0
 40
0
 40
1
 40
1
 40
1
 40
1
 10
69.975691
 20
362.984666
 30
0.0
 10
70.349929
 20
363.325489
 30
0.0
 10
70.817728
 20
363.495901
 30
0.0
 10
71.379087
 20
363.495901
 30
0.0
  0
SPLINE
  5
393
100
AcDbEntity
  8
0
 62
7
100
AcDbSpline
 70
8
 71
3
 72
8
 73
4
 74
0
 40
0
 40
0
 40
0
 40
0
 40
1
 40
1
 40
1
 40
1
 10
71.379087
 20
363.495901
 30
0.0
 10
71.619670
 20
363.495901
 30
0.0
 10
71.860252
 20
363.455804
 30
0.0
 10
72.100835
 20
363.375611
 30
0.0
  0
SPLINE
  5
394
100
AcDbEntity
  8
0
 62
7
100
AcDbSpline
 70
8
 71
3
 72
8
 73
4
 74
0
 40
0
 40
0
 40
0
 40
0
 40
1
 40
1
 40
1
 40
1
 10
72.100835
 20
363.375611
 30
0.0
 10
72.348102
 20
363.288733
 30
0.0
 10
72.545246
 20
363.181809
 30
0.0
 10
72.692267
 20
363.054837
 30
0.0
  0
SPLINE
  5
395
100
AcDbEntity
  8
0
 62
7
100
AcDbSpline
 70
8
 71
3
 72
8
 73
4
 74
0
 40
0
 40
0
 40
0
 40
0
 40
1
 40
1
 40
1
 40
1
 10
72.692267
 20
363.054837
 30
0.0
 10
72.779142
 20
362.988007
 30
0.0
 10
72.869360
 20
362.954592
 30
0.0
 10
72.962922
 20
362.954592
 30
0.0
  0
SPLINE
  5
396
100
AcDbEntity
  8
0
 62
7
100
AcDbSpline
 70
8
 71
3
 72
8
 73
4
 74
0
 40
0
 40
0
 40
0
 40
0
 40
1
 40
1
 40
1
 40
1
 10
72.962922
 20
362.954592
 30
0.0
 10
73.036433
 20
362.954592
 30
0.0
 10
73.109945
 20
362.981322
 30
0.0
 10
73.183457
 20
363.034782
 30
0.0
  0
SPLINE
  5
397
100
AcDbEntity
  8
0
 62
7
100
AcDbSpline
 70
8
 71
3
 72
8
 73
4
 74
0
 40
0
 40
0
 40
0
 40
0
 40
1
 40
1
 40
1
 40
1
 10
73.183457
 20
363.034782
 30
0.0
 10
73.270334
 20
363.114977
 30
0.0
 10
73.313773
 20
363.205196
 30
0.0
 10
73.313773
 20
363.305436
 30
0.0
  0
SPLINE
  5
398
100
AcDbEntity
  8
0
 62
7
100
AcDbSpline
 70
8
 71
3
 72
8
 73
4
 74
0
 40
0
 40
0
 40
0
 40
0
 40
1
 40
1
 40
1
 40
1
 10
73.313773
 20
363.305436
 30
0.0
 10
73.313773
 20
363.392316
 30
0.0
 10
73.277016
 20
363.469170
 30
0.0
 10
73.203502
 20
363.535998
 30
0.0
  0
SPLINE
  5
399
100
AcDbEntity
  8
0
 62
7
100
AcDbSpline
 70
8
 71
3
 72
8
 73
4
 74
0
 40
0
 40
0
 40
0
 40
0
 40
1
 40
1
 40
1
 40
1
 10
73.203502
 20
363.535998
 30
0.0
 10
72.982969
 20
363.723118
 30
0.0
 10
72.702289
 20
363.880165
 30
0.0
 10
72.361464
 20
364.007139
 30
0.0
  0
SPLINE
  5
39a
100
AcDbEntity
  8
0
 62
7
100
AcDbSpline
 70
8
 71
3
 72
8
 73
4
 74
0
 40
0
 40
0
 40
0
 40
0
 40
1
 40
1
 40
1
 40
1
 10
72.361464
 20
364.007139
 30
0.0
 10
72.020640
 20
364.127432
 30
0.0
 10
71.693181
 20
364.187578
 30
0.0
 10
71.379087
 20
364.187578
 30
0.0
  0
SPLINE
  5
39b
100
AcDbEntity
  8
0
 62
7
100
AcDbSpline
 70
8
 71
3
 72
8
 73
4
 74
0
 40
0
 40
0
 40
0
 40
0
 40
1
 40
1
 40
1
 40
1
 10
71.379087
 20
364.187578
 30
0.0
 10
70.844457
 20
364.187578
 30
0.0
 10
70.366634
 20
364.070628
 30
0.0
 10
69.945617
 20
363.836727
 30
0.0
  0
SPLINE
  5
39c
100
AcDbEntity
  8
0
 62
7
100
AcDbSpline
 70
8
 71
3
 72
8
 73
4
 74
0
 40
0
 40
0
 40
0
 40
0
 40
1
 40
1
 40
1
 40
1
 10
69.945617
 20
363.836727
 30
0.0
 10
69.524598
 20
363.596144
 30
0.0
 10
69.193796
 20
363.265343
 30
0.0
 10
68.953211
 20
362.844324
 30
0.0
  0
SPLINE
  5
39d
100
AcDbEntity
  8
0
 62
7
100
AcDbSpline
 70
8
 71
3
 72
8
 73
4
 74
0
 40
0
 40
0
 40
0
 40
0
 40
1
 40
1
 40
1
 40
1
 10
68.953211
 20
362.844324
 30
0.0
 10
68.719312
 20
362.416623
 30
0.0
 10
68.602362
 20
361.935459
 30
0.0
 10
68.602362
 20
361.400831
 30
0.0
  0
SPLINE
  5
39e
100
AcDbEntity
  8
0
 62
7
100
AcDbSpline
 70
8
 71
3
 72
8
 73
4
 74
0
 40
0
 40
0
 40
0
 40
0
 40
1
 40
1
 40
1
 40
1
 10
68.602362
 20
361.400831
 30
0.0
 10
68.602362
 20
360.859517
 30
0.0
 10
68.712630
 20
360.378352
 30
0.0
 10
68.933166
 20
359.957335
 30
0.0
  0
SPLINE
  5
39f
100
AcDbEntity
  8
0
 62
7
100
AcDbSpline
 70
8
 71
3
 72
8
 73
4
 74
0
 40
0
 40
0
 40
0
 40
0
 40
1
 40
1
 40
1
 40
1
 10
68.933166
 20
359.957335
 30
0.0
 10
69.160380
 20
359.529635
 30
0.0
 10
69.471132
 20
359.198832
 30
0.0
 10
69.865420
 20
358.964929
 30
0.0
  0
SPLINE
  5
3a0
100
AcDbEntity
  8
0
 62
7
100
AcDbSpline
 70
8
 71
3
 72
8
 73
4
 74
0
 40
0
 40
0
 40
0
 40
0
 40
1
 40
1
 40
1
 40
1
 10
69.865420
 20
358.964929
 30
0.0
 10
70.266392
 20
358.724349
 30
0.0
 10
70.720825
 20
358.604059
 30
0.0
 10
71.228719
 20
358.604059
 30
0.0
  0
LINE
  5
3a1
100
AcDbEntity
  8
0
 62
7
100
AcDbLine
 10
71.228719
 20
358.604059
 30
0.0
 11
71.228719
 21
358.604059
 31
0.0
  0
SPLINE
  5
3a2
100
AcDbEntity
  8
0
 62
7
100
AcDbSpline
 70
8
 71
3
 72
8
 73
4
 74
0
 40
0
 40
0
 40
0
 40
0
 40
1
 40
1
 40
1
 40
1
 10
71.228719
 20
359.295732
 30
0.0
 10
70.720825
 20
359.295732
 30
0.0
 10
70.299807
 20
359.452780
 30
0.0
 10
69.965665
 20
359.766874
 30
0.0
  0
SPLINE
  5
3a3
100
AcDbEntity
  8
0
 62
7
100
AcDbSpline
 70
8
 71
3
 72
8
 73
4
 74
0
 40
0
 40
0
 40
0
 40
0
 40
1
 40
1
 40
1
 40
1
 10
69.965665
 20
359.766874
 30
0.0
 10
69.631521
 20
360.080966
 30
0.0
 10
69.427694
 20
360.495303
 30
0.0
 10
69.354185
 20
361.009883
 30
0.0
  0
LINE
  5
3a4
100
AcDbEntity
  8
0
 62
7
100
AcDbLine
 10
69.354185
 20
361.009883
 30
0.0
 11
73.023067
 21
361.009883
 31
0.0
  0
SPLINE
  5
3a5
100
AcDbEntity
  8
0
 62
7
100
AcDbSpline
 70
8
 71
3
 72
8
 73
4
 74
0
 40
0
 40
0
 40
0
 40
0
 40
1
 40
1
 40
1
 40
1
 10
73.023067
 20
361.009883
 30
0.0
 10
72.969604
 20
360.495303
 30
0.0
 10
72.782484
 20
360.080966
 30
0.0
 10
72.461705
 20
359.766874
 30
0.0
  0
SPLINE
  5
3a6
100
AcDbEntity
  8
0
 62
7
100
AcDbSpline
 70
8
 71
3
 72
8
 73
4
 74
0
 40
0
 40
0
 40
0
 40
0
 40
1
 40
1
 40
1
 40
1
 10
72.461705
 20
359.766874
 30
0.0
 10
72.140932
 20
359.452780
 30
0.0
 10
71.729936
 20
359.295732
 30
0.0
 10
71.228719
 20
359.295732
 30
0.0
  0
LINE
  5
3a7
100
AcDbEntity
  8
0
 62
7
100
AcDbLine
 10
71.228719
 20
359.295732
 30
0.0
 11
71.228719
 21
359.295732
 31
0.0
  0
SPLINE
  5
3a8
100
AcDbEntity
  8
0
 62
7
100
AcDbSpline
 70
8
 71
3
 72
8
 73
4
 74
0
 40
0
 40
0
 40
0
 40
0
 40
1
 40
1
 40
1
 40
1
 10
67.682918
 20
363.365585
 30
0.0
 10
67.789845
 20
363.365585
 30
0.0
 10
67.876721
 20
363.402341
 30
0.0
 10
67.943546
 20
363.475853
 30
0.0
  0
SPLINE
  5
3a9
100
AcDbEntity
  8
0
 62
7
100
AcDbSpline
 70
8
 71
3
 72
8
 73
4
 74
0
 40
0
 40
0
 40
0
 40
0
 40
1
 40
1
 40
1
 40
1
 10
67.943546
 20
363.475853
 30
0.0
 10
68.010377
 20
363.549364
 30
0.0
 10
68.043792
 20
363.642925
 30
0.0
 10
68.043792
 20
363.756533
 30
0.0
  0
SPLINE
  5
3aa
100
AcDbEntity
  8
0
 62
7
100
AcDbSpline
 70
8
 71
3
 72
8
 73
4
 74
0
 40
0
 40
0
 40
0
 40
0
 40
1
 40
1
 40
1
 40
1
 10
68.043792
 20
363.756533
 30
0.0
 10
68.043792
 20
363.863460
 30
0.0
 10
68.003695
 20
363.953679
 30
0.0
 10
67.923502
 20
364.027191
 30
0.0
  0
SPLINE
  5
3ab
100
AcDbEntity
  8
0
 62
7
100
AcDbSpline
 70
8
 71
3
 72
8
 73
4
 74
0
 40
0
 40
0
 40
0
 40
0
 40
1
 40
1
 40
1
 40
1
 10
67.923502
 20
364.027191
 30
0.0
 10
67.843306
 20
364.100701
 30
0.0
 10
67.743062
 20
364.137456
 30
0.0
 10
67.622769
 20
364.137456
 30
0.0
  0
LINE
  5
3ac
100
AcDbEntity
  8
0
 62
7
100
AcDbLine
 10
67.622769
 20
364.137456
 30
0.0
 11
67.412263
 21
364.137456
 31
0.0
  0
SPLINE
  5
3ad
100
AcDbEntity
  8
0
 62
7
100
AcDbSpline
 70
8
 71
3
 72
8
 73
4
 74
0
 40
0
 40
0
 40
0
 40
0
 40
1
 40
1
 40
1
 40
1
 10
67.412263
 20
364.137456
 30
0.0
 10
67.058072
 20
364.137456
 30
0.0
 10
66.740638
 20
364.053920
 30
0.0
 10
66.459961
 20
363.886849
 30
0.0
  0
SPLINE
  5
3ae
100
AcDbEntity
  8
0
 62
7
100
AcDbSpline
 70
8
 71
3
 72
8
 73
4
 74
0
 40
0
 40
0
 40
0
 40
0
 40
1
 40
1
 40
1
 40
1
 10
66.459961
 20
363.886849
 30
0.0
 10
66.179279
 20
363.713092
 30
0.0
 10
65.958743
 20
363.482533
 30
0.0
 10
65.798354
 20
363.195172
 30
0.0
  0
SPLINE
  5
3af
100
AcDbEntity
  8
0
 62
7
100
AcDbSpline
 70
8
 71
3
 72
8
 73
4
 74
0
 40
0
 40
0
 40
0
 40
0
 40
1
 40
1
 40
1
 40
1
 10
65.798354
 20
363.195172
 30
0.0
 10
65.644649
 20
362.901127
 30
0.0
 10
65.567796
 20
362.570327
 30
0.0
 10
65.567796
 20
362.202773
 30
0.0
  0
LINE
  5
3b0
100
AcDbEntity
  8
0
 62
7
100
AcDbLine
 10
65.567796
 20
362.202773
 30
0.0
 11
65.567796
 21
359.526287
 31
0.0
  0
LINE
  5
3b1
100
AcDbEntity
  8
0
 62
7
100
AcDbLine
 10
65.567796
 20
359.526287
 30
0.0
 11
64.916219
 21
359.526287
 31
0.0
  0
SPLINE
  5
3b2
100
AcDbEntity
  8
0
 62
7
100
AcDbSpline
 70
8
 71
3
 72
8
 73
4
 74
0
 40
0
 40
0
 40
0
 40
0
 40
1
 40
1
 40
1
 40
1
 10
64.916219
 20
359.526287
 30
0.0
 10
64.809295
 20
359.526287
 30
0.0
 10
64.722417
 20
359.496214
 30
0.0
 10
64.655587
 20
359.436067
 30
0.0
  0
SPLINE
  5
3b3
100
AcDbEntity
  8
0
 62
7
100
AcDbSpline
 70
8
 71
3
 72
8
 73
4
 74
0
 40
0
 40
0
 40
0
 40
0
 40
1
 40
1
 40
1
 40
1
 10
64.655587
 20
359.436067
 30
0.0
 10
64.595441
 20
359.369242
 30
0.0
 10
64.565368
 20
359.289050
 30
0.0
 10
64.565368
 20
359.195491
 30
0.0
  0
SPLINE
  5
3b4
100
AcDbEntity
  8
0
 62
7
100
AcDbSpline
 70
8
 71
3
 72
8
 73
4
 74
0
 40
0
 40
0
 40
0
 40
0
 40
1
 40
1
 40
1
 40
1
 10
64.565368
 20
359.195491
 30
0.0
 10
64.565368
 20
359.095248
 30
0.0
 10
64.595441
 20
359.015054
 30
0.0
 10
64.655587
 20
358.954910
 30
0.0
  0
SPLINE
  5
3b5
100
AcDbEntity
  8
0
 62
7
100
AcDbSpline
 70
8
 71
3
 72
8
 73
4
 74
0
 40
0
 40
0
 40
0
 40
0
 40
1
 40
1
 40
1
 40
1
 10
64.655587
 20
358.954910
 30
0.0
 10
64.722417
 20
358.888080
 30
0.0
 10
64.809295
 20
358.854665
 30
0.0
 10
64.916219
 20
358.854665
 30
0.0
  0
LINE
  5
3b6
100
AcDbEntity
  8
0
 62
7
100
AcDbLine
 10
64.916219
 20
358.854665
 30
0.0
 11
65.567796
 21
358.854665
 31
0.0
  0
LINE
  5
3b7
100
AcDbEntity
  8
0
 62
7
100
AcDbLine
 10
65.567796
 20
358.854665
 30
0.0
 11
65.567796
 21
357.300905
 31
0.0
  0
SPLINE
  5
3b8
100
AcDbEntity
  8
0
 62
7
100
AcDbSpline
 70
8
 71
3
 72
8
 73
4
 74
0
 40
0
 40
0
 40
0
 40
0
 40
1
 40
1
 40
1
 40
1
 10
65.567796
 20
357.300905
 30
0.0
 10
65.567796
 20
357.187296
 30
0.0
 10
65.601211
 20
357.093735
 30
0.0
 10
65.668042
 20
357.020220
 30
0.0
  0
SPLINE
  5
3b9
100
AcDbEntity
  8
0
 62
7
100
AcDbSpline
 70
8
 71
3
 72
8
 73
4
 74
0
 40
0
 40
0
 40
0
 40
0
 40
1
 40
1
 40
1
 40
1
 10
65.668042
 20
357.020220
 30
0.0
 10
65.741553
 20
356.946711
 30
0.0
 10
65.835112
 20
356.909956
 30
0.0
 10
65.948719
 20
356.909956
 30
0.0
  0
SPLINE
  5
3ba
100
AcDbEntity
  8
0
 62
7
100
AcDbSpline
 70
8
 71
3
 72
8
 73
4
 74
0
 40
0
 40
0
 40
0
 40
0
 40
1
 40
1
 40
1
 40
1
 10
65.948719
 20
356.909956
 30
0.0
 10
66.062327
 20
356.909956
 30
0.0
 10
66.155889
 20
356.946711
 30
0.0
 10
66.229403
 20
357.020220
 30
0.0
  0
SPLINE
  5
3bb
100
AcDbEntity
  8
0
 62
7
100
AcDbSpline
 70
8
 71
3
 72
8
 73
4
 74
0
 40
0
 40
0
 40
0
 40
0
 40
1
 40
1
 40
1
 40
1
 10
66.229403
 20
357.020220
 30
0.0
 10
66.302912
 20
357.093735
 30
0.0
 10
66.339667
 20
357.187296
 30
0.0
 10
66.339667
 20
357.300905
 30
0.0
  0
LINE
  5
3bc
100
AcDbEntity
  8
0
 62
7
100
AcDbLine
 10
66.339667
 20
357.300905
 30
0.0
 11
66.339667
 21
358.854665
 31
0.0
  0
LINE
  5
3bd
100
AcDbEntity
  8
0
 62
7
100
AcDbLine
 10
66.339667
 20
358.854665
 30
0.0
 11
67.472408
 21
358.854665
 31
0.0
  0
SPLINE
  5
3be
100
AcDbEntity
  8
0
 62
7
100
AcDbSpline
 70
8
 71
3
 72
8
 73
4
 74
0
 40
0
 40
0
 40
0
 40
0
 40
1
 40
1
 40
1
 40
1
 10
67.472408
 20
358.854665
 30
0.0
 10
67.579335
 20
358.854665
 30
0.0
 10
67.662872
 20
358.888080
 30
0.0
 10
67.723018
 20
358.954910
 30
0.0
  0
SPLINE
  5
3bf
100
AcDbEntity
  8
0
 62
7
100
AcDbSpline
 70
8
 71
3
 72
8
 73
4
 74
0
 40
0
 40
0
 40
0
 40
0
 40
1
 40
1
 40
1
 40
1
 10
67.723018
 20
358.954910
 30
0.0
 10
67.789848
 20
359.015054
 30
0.0
 10
67.823263
 20
359.095248
 30
0.0
 10
67.823263
 20
359.195491
 30
0.0
  0
SPLINE
  5
3c0
100
AcDbEntity
  8
0
 62
7
100
AcDbSpline
 70
8
 71
3
 72
8
 73
4
 74
0
 40
0
 40
0
 40
0
 40
0
 40
1
 40
1
 40
1
 40
1
 10
67.823263
 20
359.195491
 30
0.0
 10
67.823263
 20
359.289050
 30
0.0
 10
67.789848
 20
359.369242
 30
0.0
 10
67.723018
 20
359.436067
 30
0.0
  0
SPLINE
  5
3c1
100
AcDbEntity
  8
0
 62
7
100
AcDbSpline
 70
8
 71
3
 72
8
 73
4
 74
0
 40
0
 40
0
 40
0
 40
0
 40
1
 40
1
 40
1
 40
1
 10
67.723018
 20
359.436067
 30
0.0
 10
67.662872
 20
359.496214
 30
0.0
 10
67.579335
 20
359.526287
 30
0.0
 10
67.472408
 20
359.526287
 30
0.0
  0
LINE
  5
3c2
100
AcDbEntity
  8
0
 62
7
100
AcDbLine
 10
67.472408
 20
359.526287
 30
0.0
 11
66.339667
 21
359.526287
 31
0.0
  0
LINE
  5
3c3
100
AcDbEntity
  8
0
 62
7
100
AcDbLine
 10
66.339667
 20
359.526287
 30
0.0
 11
66.339667
 21
362.202773
 31
0.0
  0
SPLINE
  5
3c4
100
AcDbEntity
  8
0
 62
7
100
AcDbSpline
 70
8
 71
3
 72
8
 73
4
 74
0
 40
0
 40
0
 40
0
 40
0
 40
1
 40
1
 40
1
 40
1
 10
66.339667
 20
362.202773
 30
0.0
 10
66.339667
 20
362.543596
 30
0.0
 10
66.439910
 20
362.824274
 30
0.0
 10
66.640396
 20
363.044808
 30
0.0
  0
SPLINE
  5
3c5
100
AcDbEntity
  8
0
 62
7
100
AcDbSpline
 70
8
 71
3
 72
8
 73
4
 74
0
 40
0
 40
0
 40
0
 40
0
 40
1
 40
1
 40
1
 40
1
 10
66.640396
 20
363.044808
 30
0.0
 10
66.840880
 20
363.258659
 30
0.0
 10
67.098169
 20
363.365585
 30
0.0
 10
67.412263
 20
363.365585
 30
0.0
  0
LINE
  5
3c6
100
AcDbEntity
  8
0
 62
7
100
AcDbLine
 10
67.412263
 20
363.365585
 30
0.0
 11
67.682918
 21
363.365585
 31
0.0
  0
SPLINE
  5
3c7
100
AcDbEntity
  8
0
 62
7
100
AcDbSpline
 70
8
 71
3
 72
8
 73
4
 74
0
 40
0
 40
0
 40
0
 40
0
 40
1
 40
1
 40
1
 40
1
 10
63.518761
 20
364.297846
 30
0.0
 10
63.358371
 20
364.297846
 30
0.0
 10
63.221373
 20
364.241040
 30
0.0
 10
63.107764
 20
364.127430
 30
0.0
  0
SPLINE
  5
3c8
100
AcDbEntity
  8
0
 62
7
100
AcDbSpline
 70
8
 71
3
 72
8
 73
4
 74
0
 40
0
 40
0
 40
0
 40
0
 40
1
 40
1
 40
1
 40
1
 10
63.107764
 20
364.127430
 30
0.0
 10
62.994158
 20
364.013821
 30
0.0
 10
62.937355
 20
363.876822
 30
0.0
 10
62.937355
 20
363.716433
 30
0.0
  0
SPLINE
  5
3c9
100
AcDbEntity
  8
0
 62
7
100
AcDbSpline
 70
8
 71
3
 72
8
 73
4
 74
0
 40
0
 40
0
 40
0
 40
0
 40
1
 40
1
 40
1
 40
1
 10
62.937355
 20
363.716433
 30
0.0
 10
62.937355
 20
363.549362
 30
0.0
 10
62.994158
 20
363.409024
 30
0.0
 10
63.107764
 20
363.295417
 30
0.0
  0
SPLINE
  5
3ca
100
AcDbEntity
  8
0
 62
7
100
AcDbSpline
 70
8
 71
3
 72
8
 73
4
 74
0
 40
0
 40
0
 40
0
 40
0
 40
1
 40
1
 40
1
 40
1
 10
63.107764
 20
363.295417
 30
0.0
 10
63.228054
 20
363.181806
 30
0.0
 10
63.365053
 20
363.125001
 30
0.0
 10
63.518761
 20
363.125001
 30
0.0
  0
SPLINE
  5
3cb
100
AcDbEntity
  8
0
 62
7
100
AcDbSpline
 70
8
 71
3
 72
8
 73
4
 74
0
 40
0
 40
0
 40
0
 40
0
 40
1
 40
1
 40
1
 40
1
 10
63.518761
 20
363.125001
 30
0.0
 10
63.679150
 20
363.125001
 30
0.0
 10
63.816148
 20
363.185146
 30
0.0
 10
63.929754
 20
363.305436
 30
0.0
  0
SPLINE
  5
3cc
100
AcDbEntity
  8
0
 62
7
100
AcDbSpline
 70
8
 71
3
 72
8
 73
4
 74
0
 40
0
 40
0
 40
0
 40
0
 40
1
 40
1
 40
1
 40
1
 10
63.929754
 20
363.305436
 30
0.0
 10
64.043360
 20
363.419047
 30
0.0
 10
64.100163
 20
363.556046
 30
0.0
 10
64.100163
 20
363.716433
 30
0.0
  0
SPLINE
  5
3cd
100
AcDbEntity
  8
0
 62
7
100
AcDbSpline
 70
8
 71
3
 72
8
 73
4
 74
0
 40
0
 40
0
 40
0
 40
0
 40
1
 40
1
 40
1
 40
1
 10
64.100163
 20
363.716433
 30
0.0
 10
64.100163
 20
363.876822
 30
0.0
 10
64.043360
 20
364.013821
 30
0.0
 10
63.929754
 20
364.127430
 30
0.0
  0
SPLINE
  5
3ce
100
AcDbEntity
  8
0
 62
7
100
AcDbSpline
 70
8
 71
3
 72
8
 73
4
 74
0
 40
0
 40
0
 40
0
 40
0
 40
1
 40
1
 40
1
 40
1
 10
63.929754
 20
364.127430
 30
0.0
 10
63.816148
 20
364.241040
 30
0.0
 10
63.679150
 20
364.297846
 30
0.0
 10
63.518761
 20
364.297846
 30
0.0
  0
LINE
  5
3cf
100
AcDbEntity
  8
0
 62
7
100
AcDbLine
 10
63.518761
 20
364.297846
 30
0.0
 11
63.518761
 21
364.297846
 31
0.0
  0
SPLINE
  5
3d0
100
AcDbEntity
  8
0
 62
7
100
AcDbSpline
 70
8
 71
3
 72
8
 73
4
 74
0
 40
0
 40
0
 40
0
 40
0
 40
1
 40
1
 40
1
 40
1
 10
58.079996
 20
364.137456
 30
0.0
 10
57.973069
 20
364.137456
 30
0.0
 10
57.879509
 20
364.100701
 30
0.0
 10
57.799316
 20
364.027191
 30
0.0
  0
SPLINE
  5
3d1
100
AcDbEntity
  8
0
 62
7
100
AcDbSpline
 70
8
 71
3
 72
8
 73
4
 74
0
 40
0
 40
0
 40
0
 40
0
 40
1
 40
1
 40
1
 40
1
 10
57.799316
 20
364.027191
 30
0.0
 10
57.725806
 20
363.946996
 30
0.0
 10
57.689052
 20
363.853434
 30
0.0
 10
57.689052
 20
363.746507
 30
0.0
  0
SPLINE
  5
3d2
100
AcDbEntity
  8
0
 62
7
100
AcDbSpline
 70
8
 71
3
 72
8
 73
4
 74
0
 40
0
 40
0
 40
0
 40
0
 40
1
 40
1
 40
1
 40
1
 10
57.689052
 20
363.746507
 30
0.0
 10
57.689052
 20
363.639583
 30
0.0
 10
57.725806
 20
363.549364
 30
0.0
 10
57.799316
 20
363.475853
 30
0.0
  0
LINE
  5
3d3
100
AcDbEntity
  8
0
 62
7
100
AcDbLine
 10
57.799316
 20
363.475853
 30
0.0
 11
60.836672
 21
359.887161
 31
0.0
  0
SPLINE
  5
3d4
100
AcDbEntity
  8
0
 62
7
100
AcDbSpline
 70
8
 71
3
 72
8
 73
4
 74
0
 40
0
 40
0
 40
0
 40
0
 40
1
 40
1
 40
1
 40
1
 10
60.836672
 20
359.887161
 30
0.0
 10
61.003746
 20
359.706724
 30
0.0
 10
61.137403
 20
359.506240
 30
0.0
 10
61.237643
 20
359.285706
 30
0.0
  0
SPLINE
  5
3d5
100
AcDbEntity
  8
0
 62
7
100
AcDbSpline
 70
8
 71
3
 72
8
 73
4
 74
0
 40
0
 40
0
 40
0
 40
0
 40
1
 40
1
 40
1
 40
1
 10
61.237643
 20
359.285706
 30
0.0
 10
61.337886
 20
359.058489
 30
0.0
 10
61.388008
 20
358.847980
 30
0.0
 10
61.388008
 20
358.654178
 30
0.0
  0
SPLINE
  5
3d6
100
AcDbEntity
  8
0
 62
7
100
AcDbSpline
 70
8
 71
3
 72
8
 73
4
 74
0
 40
0
 40
0
 40
0
 40
0
 40
1
 40
1
 40
1
 40
1
 10
61.388008
 20
358.654178
 30
0.0
 10
61.388008
 20
358.186380
 30
0.0
 10
61.247668
 20
357.802117
 30
0.0
 10
60.966989
 20
357.501388
 30
0.0
  0
SPLINE
  5
3d7
100
AcDbEntity
  8
0
 62
7
100
AcDbSpline
 70
8
 71
3
 72
8
 73
4
 74
0
 40
0
 40
0
 40
0
 40
0
 40
1
 40
1
 40
1
 40
1
 10
60.966989
 20
357.501388
 30
0.0
 10
60.692991
 20
357.200659
 30
0.0
 10
60.342140
 20
357.050295
 30
0.0
 10
59.914437
 20
357.050295
 30
0.0
  0
SPLINE
  5
3d8
100
AcDbEntity
  8
0
 62
7
100
AcDbSpline
 70
8
 71
3
 72
8
 73
4
 74
0
 40
0
 40
0
 40
0
 40
0
 40
1
 40
1
 40
1
 40
1
 10
59.914437
 20
357.050295
 30
0.0
 10
59.633760
 20
357.050295
 30
0.0
 10
59.379812
 20
357.123807
 30
0.0
 10
59.152592
 20
357.270830
 30
0.0
  0
SPLINE
  5
3d9
100
AcDbEntity
  8
0
 62
7
100
AcDbSpline
 70
8
 71
3
 72
8
 73
4
 74
0
 40
0
 40
0
 40
0
 40
0
 40
1
 40
1
 40
1
 40
1
 10
59.152592
 20
357.270830
 30
0.0
 10
58.925378
 20
357.411170
 30
0.0
 10
58.744941
 20
357.604972
 30
0.0
 10
58.611283
 20
357.852236
 30
0.0
  0
SPLINE
  5
3da
100
AcDbEntity
  8
0
 62
7
100
AcDbSpline
 70
8
 71
3
 72
8
 73
4
 74
0
 40
0
 40
0
 40
0
 40
0
 40
1
 40
1
 40
1
 40
1
 10
58.611283
 20
357.852236
 30
0.0
 10
58.477627
 20
358.092819
 30
0.0
 10
58.410800
 20
358.360133
 30
0.0
 10
58.410800
 20
358.654178
 30
0.0
  0
SPLINE
  5
3db
100
AcDbEntity
  8
0
 62
7
100
AcDbSpline
 70
8
 71
3
 72
8
 73
4
 74
0
 40
0
 40
0
 40
0
 40
0
 40
1
 40
1
 40
1
 40
1
 10
58.410800
 20
358.654178
 30
0.0
 10
58.410800
 20
358.761102
 30
0.0
 10
58.370703
 20
358.851322
 30
0.0
 10
58.290509
 20
358.924836
 30
0.0
  0
SPLINE
  5
3dc
100
AcDbEntity
  8
0
 62
7
100
AcDbSpline
 70
8
 71
3
 72
8
 73
4
 74
0
 40
0
 40
0
 40
0
 40
0
 40
1
 40
1
 40
1
 40
1
 10
58.290509
 20
358.924836
 30
0.0
 10
58.216995
 20
358.998345
 30
0.0
 10
58.126776
 20
359.035100
 30
0.0
 10
58.019851
 20
359.035100
 30
0.0
  0
SPLINE
  5
3dd
100
AcDbEntity
  8
0
 62
7
100
AcDbSpline
 70
8
 71
3
 72
8
 73
4
 74
0
 40
0
 40
0
 40
0
 40
0
 40
1
 40
1
 40
1
 40
1
 10
58.019851
 20
359.035100
 30
0.0
 10
57.912924
 20
359.035100
 30
0.0
 10
57.819364
 20
358.998345
 30
0.0
 10
57.739171
 20
358.924836
 30
0.0
  0
SPLINE
  5
3de
100
AcDbEntity
  8
0
 62
7
100
AcDbSpline
 70
8
 71
3
 72
8
 73
4
 74
0
 40
0
 40
0
 40
0
 40
0
 40
1
 40
1
 40
1
 40
1
 10
57.739171
 20
358.924836
 30
0.0
 10
57.665659
 20
358.851322
 30
0.0
 10
57.628903
 20
358.761102
 30
0.0
 10
57.628903
 20
358.654178
 30
0.0
  0
SPLINE
  5
3df
100
AcDbEntity
  8
0
 62
7
100
AcDbSpline
 70
8
 71
3
 72
8
 73
4
 74
0
 40
0
 40
0
 40
0
 40
0
 40
1
 40
1
 40
1
 40
1
 10
57.628903
 20
358.654178
 30
0.0
 10
57.628903
 20
358.213109
 30
0.0
 10
57.729146
 20
357.812138
 30
0.0
 10
57.929632
 20
357.451265
 30
0.0
  0
SPLINE
  5
3e0
100
AcDbEntity
  8
0
 62
7
100
AcDbSpline
 70
8
 71
3
 72
8
 73
4
 74
0
 40
0
 40
0
 40
0
 40
0
 40
1
 40
1
 40
1
 40
1
 10
57.929632
 20
357.451265
 30
0.0
 10
58.130120
 20
357.090393
 30
0.0
 10
58.404118
 20
356.809713
 30
0.0
 10
58.751625
 20
356.609227
 30
0.0
  0
SPLINE
  5
3e1
100
AcDbEntity
  8
0
 62
7
100
AcDbSpline
 70
8
 71
3
 72
8
 73
4
 74
0
 40
0
 40
0
 40
0
 40
0
 40
1
 40
1
 40
1
 40
1
 10
58.751625
 20
356.609227
 30
0.0
 10
59.099133
 20
356.402060
 30
0.0
 10
59.486737
 20
356.298476
 30
0.0
 10
59.914437
 20
356.298476
 30
0.0
  0
SPLINE
  5
3e2
100
AcDbEntity
  8
0
 62
7
100
AcDbSpline
 70
8
 71
3
 72
8
 73
4
 74
0
 40
0
 40
0
 40
0
 40
0
 40
1
 40
1
 40
1
 40
1
 10
59.914437
 20
356.298476
 30
0.0
 10
60.348820
 20
356.298476
 30
0.0
 10
60.733083
 20
356.398719
 30
0.0
 10
61.067227
 20
356.599205
 30
0.0
  0
SPLINE
  5
3e3
100
AcDbEntity
  8
0
 62
7
100
AcDbSpline
 70
8
 71
3
 72
8
 73
4
 74
0
 40
0
 40
0
 40
0
 40
0
 40
1
 40
1
 40
1
 40
1
 10
61.067227
 20
356.599205
 30
0.0
 10
61.408055
 20
356.799686
 30
0.0
 10
61.672028
 20
357.080366
 30
0.0
 10
61.859146
 20
357.441243
 30
0.0
  0
SPLINE
  5
3e4
100
AcDbEntity
  8
0
 62
7
100
AcDbSpline
 70
8
 71
3
 72
8
 73
4
 74
0
 40
0
 40
0
 40
0
 40
0
 40
1
 40
1
 40
1
 40
1
 10
61.859146
 20
357.441243
 30
0.0
 10
62.052950
 20
357.795432
 30
0.0
 10
62.149852
 20
358.199743
 30
0.0
 10
62.149852
 20
358.654178
 30
0.0
  0
SPLINE
  5
3e5
100
AcDbEntity
  8
0
 62
7
100
AcDbSpline
 70
8
 71
3
 72
8
 73
4
 74
0
 40
0
 40
0
 40
0
 40
0
 40
1
 40
1
 40
1
 40
1
 10
62.149852
 20
358.654178
 30
0.0
 10
62.149852
 20
359.195487
 30
0.0
 10
61.889220
 20
359.770213
 30
0.0
 10
61.367956
 20
360.378354
 30
0.0
  0
LINE
  5
3e6
100
AcDbEntity
  8
0
 62
7
100
AcDbLine
 10
61.367956
 20
360.378354
 30
0.0
 11
58.801741
 21
363.355562
 31
0.0
  0
LINE
  5
3e7
100
AcDbEntity
  8
0
 62
7
100
AcDbLine
 10
58.801741
 20
363.355562
 30
0.0
 11
61.939343
 21
363.355562
 31
0.0
  0
SPLINE
  5
3e8
100
AcDbEntity
  8
0
 62
7
100
AcDbSpline
 70
8
 71
3
 72
8
 73
4
 74
0
 40
0
 40
0
 40
0
 40
0
 40
1
 40
1
 40
1
 40
1
 10
61.939343
 20
363.355562
 30
0.0
 10
62.046267
 20
363.355562
 30
0.0
 10
62.136486
 20
363.395659
 30
0.0
 10
62.209997
 20
363.475853
 30
0.0
  0
SPLINE
  5
3e9
100
AcDbEntity
  8
0
 62
7
100
AcDbSpline
 70
8
 71
3
 72
8
 73
4
 74
0
 40
0
 40
0
 40
0
 40
0
 40
1
 40
1
 40
1
 40
1
 10
62.209997
 20
363.475853
 30
0.0
 10
62.290193
 20
363.549364
 30
0.0
 10
62.330291
 20
363.639583
 30
0.0
 10
62.330291
 20
363.746507
 30
0.0
  0
SPLINE
  5
3ea
100
AcDbEntity
  8
0
 62
7
100
AcDbSpline
 70
8
 71
3
 72
8
 73
4
 74
0
 40
0
 40
0
 40
0
 40
0
 40
1
 40
1
 40
1
 40
1
 10
62.330291
 20
363.746507
 30
0.0
 10
62.330291
 20
363.853434
 30
0.0
 10
62.293533
 20
363.946996
 30
0.0
 10
62.220016
 20
364.027191
 30
0.0
  0
SPLINE
  5
3eb
100
AcDbEntity
  8
0
 62
7
100
AcDbSpline
 70
8
 71
3
 72
8
 73
4
 74
0
 40
0
 40
0
 40
0
 40
0
 40
1
 40
1
 40
1
 40
1
 10
62.220016
 20
364.027191
 30
0.0
 10
62.146507
 20
364.100701
 30
0.0
 10
62.052949
 20
364.137456
 30
0.0
 10
61.939343
 20
364.137456
 30
0.0
  0
LINE
  5
3ec
100
AcDbEntity
  8
0
 62
7
100
AcDbLine
 10
61.939343
 20
364.137456
 30
0.0
 11
58.079996
 21
364.137456
 31
0.0
  0
SPLINE
  5
3ed
100
AcDbEntity
  8
0
 62
7
100
AcDbSpline
 70
8
 71
3
 72
8
 73
4
 74
0
 40
0
 40
0
 40
0
 40
0
 40
1
 40
1
 40
1
 40
1
 10
54.096952
 20
364.187578
 30
0.0
 10
53.569006
 20
364.187578
 30
0.0
 10
53.091182
 20
364.067287
 30
0.0
 10
52.663482
 20
363.826704
 30
0.0
  0
SPLINE
  5
3ee
100
AcDbEntity
  8
0
 62
7
100
AcDbSpline
 70
8
 71
3
 72
8
 73
4
 74
0
 40
0
 40
0
 40
0
 40
0
 40
1
 40
1
 40
1
 40
1
 10
52.663482
 20
363.826704
 30
0.0
 10
52.242465
 20
363.586119
 30
0.0
 10
51.911664
 20
363.255317
 30
0.0
 10
51.671079
 20
362.834298
 30
0.0
  0
SPLINE
  5
3ef
100
AcDbEntity
  8
0
 62
7
100
AcDbSpline
 70
8
 71
3
 72
8
 73
4
 74
0
 40
0
 40
0
 40
0
 40
0
 40
1
 40
1
 40
1
 40
1
 10
51.671079
 20
362.834298
 30
0.0
 10
51.430494
 20
362.406597
 30
0.0
 10
51.310201
 20
361.928775
 30
0.0
 10
51.310201
 20
361.400831
 30
0.0
  0
SPLINE
  5
3f0
100
AcDbEntity
  8
0
 62
7
100
AcDbSpline
 70
8
 71
3
 72
8
 73
4
 74
0
 40
0
 40
0
 40
0
 40
0
 40
1
 40
1
 40
1
 40
1
 10
51.310201
 20
361.400831
 30
0.0
 10
51.310201
 20
360.872888
 30
0.0
 10
51.430494
 20
360.395063
 30
0.0
 10
51.671079
 20
359.967358
 30
0.0
  0
SPLINE
  5
3f1
100
AcDbEntity
  8
0
 62
7
100
AcDbSpline
 70
8
 71
3
 72
8
 73
4
 74
0
 40
0
 40
0
 40
0
 40
0
 40
1
 40
1
 40
1
 40
1
 10
51.671079
 20
359.967358
 30
0.0
 10
51.911664
 20
359.539655
 30
0.0
 10
52.242465
 20
359.205512
 30
0.0
 10
52.663482
 20
358.964929
 30
0.0
  0
SPLINE
  5
3f2
100
AcDbEntity
  8
0
 62
7
100
AcDbSpline
 70
8
 71
3
 72
8
 73
4
 74
0
 40
0
 40
0
 40
0
 40
0
 40
1
 40
1
 40
1
 40
1
 10
52.663482
 20
358.964929
 30
0.0
 10
53.091182
 20
358.724349
 30
0.0
 10
53.569006
 20
358.604059
 30
0.0
 10
54.096952
 20
358.604059
 30
0.0
  0
SPLINE
  5
3f3
100
AcDbEntity
  8
0
 62
7
100
AcDbSpline
 70
8
 71
3
 72
8
 73
4
 74
0
 40
0
 40
0
 40
0
 40
0
 40
1
 40
1
 40
1
 40
1
 10
54.096952
 20
358.604059
 30
0.0
 10
54.624896
 20
358.604059
 30
0.0
 10
55.099377
 20
358.724349
 30
0.0
 10
55.520396
 20
358.964929
 30
0.0
  0
SPLINE
  5
3f4
100
AcDbEntity
  8
0
 62
7
100
AcDbSpline
 70
8
 71
3
 72
8
 73
4
 74
0
 40
0
 40
0
 40
0
 40
0
 40
1
 40
1
 40
1
 40
1
 10
55.520396
 20
358.964929
 30
0.0
 10
55.941418
 20
359.205512
 30
0.0
 10
56.272220
 20
359.539655
 30
0.0
 10
56.512802
 20
359.967358
 30
0.0
  0
SPLINE
  5
3f5
100
AcDbEntity
  8
0
 62
7
100
AcDbSpline
 70
8
 71
3
 72
8
 73
4
 74
0
 40
0
 40
0
 40
0
 40
0
 40
1
 40
1
 40
1
 40
1
 10
56.512802
 20
359.967358
 30
0.0
 10
56.760067
 20
360.395063
 30
0.0
 10
56.883699
 20
360.872888
 30
0.0
 10
56.883699
 20
361.400831
 30
0.0
  0
SPLINE
  5
3f6
100
AcDbEntity
  8
0
 62
7
100
AcDbSpline
 70
8
 71
3
 72
8
 73
4
 74
0
 40
0
 40
0
 40
0
 40
0
 40
1
 40
1
 40
1
 40
1
 10
56.883699
 20
361.400831
 30
0.0
 10
56.883699
 20
361.928775
 30
0.0
 10
56.763407
 20
362.406597
 30
0.0
 10
56.522825
 20
362.834298
 30
0.0
  0
SPLINE
  5
3f7
100
AcDbEntity
  8
0
 62
7
100
AcDbSpline
 70
8
 71
3
 72
8
 73
4
 74
0
 40
0
 40
0
 40
0
 40
0
 40
1
 40
1
 40
1
 40
1
 10
56.522825
 20
362.834298
 30
0.0
 10
56.282244
 20
363.255317
 30
0.0
 10
55.948101
 20
363.586119
 30
0.0
 10
55.520396
 20
363.826704
 30
0.0
  0
SPLINE
  5
3f8
100
AcDbEntity
  8
0
 62
7
100
AcDbSpline
 70
8
 71
3
 72
8
 73
4
 74
0
 40
0
 40
0
 40
0
 40
0
 40
1
 40
1
 40
1
 40
1
 10
55.520396
 20
363.826704
 30
0.0
 10
55.099377
 20
364.067287
 30
0.0
 10
54.624896
 20
364.187578
 30
0.0
 10
54.096952
 20
364.187578
 30
0.0
  0
LINE
  5
3f9
100
AcDbEntity
  8
0
 62
7
100
AcDbLine
 10
54.096952
 20
364.187578
 30
0.0
 11
54.096952
 21
364.187578
 31
0.0
  0
SPLINE
  5
3fa
100
AcDbEntity
  8
0
 62
7
100
AcDbSpline
 70
8
 71
3
 72
8
 73
4
 74
0
 40
0
 40
0
 40
0
 40
0
 40
1
 40
1
 40
1
 40
1
 10
54.096952
 20
363.485879
 30
0.0
 10
54.484558
 20
363.485879
 30
0.0
 10
54.832065
 20
363.395660
 30
0.0
 10
55.139474
 20
363.215224
 30
0.0
  0
SPLINE
  5
3fb
100
AcDbEntity
  8
0
 62
7
100
AcDbSpline
 70
8
 71
3
 72
8
 73
4
 74
0
 40
0
 40
0
 40
0
 40
0
 40
1
 40
1
 40
1
 40
1
 10
55.139474
 20
363.215224
 30
0.0
 10
55.446887
 20
363.034787
 30
0.0
 10
55.687469
 20
362.787521
 30
0.0
 10
55.861222
 20
362.473424
 30
0.0
  0
SPLINE
  5
3fc
100
AcDbEntity
  8
0
 62
7
100
AcDbSpline
 70
8
 71
3
 72
8
 73
4
 74
0
 40
0
 40
0
 40
0
 40
0
 40
1
 40
1
 40
1
 40
1
 10
55.861222
 20
362.473424
 30
0.0
 10
56.034977
 20
362.152650
 30
0.0
 10
56.121854
 20
361.795119
 30
0.0
 10
56.121854
 20
361.400831
 30
0.0
  0
SPLINE
  5
3fd
100
AcDbEntity
  8
0
 62
7
100
AcDbSpline
 70
8
 71
3
 72
8
 73
4
 74
0
 40
0
 40
0
 40
0
 40
0
 40
1
 40
1
 40
1
 40
1
 10
56.121854
 20
361.400831
 30
0.0
 10
56.121854
 20
360.999857
 30
0.0
 10
56.034977
 20
360.642324
 30
0.0
 10
55.861222
 20
360.328232
 30
0.0
  0
SPLINE
  5
3fe
100
AcDbEntity
  8
0
 62
7
100
AcDbSpline
 70
8
 71
3
 72
8
 73
4
 74
0
 40
0
 40
0
 40
0
 40
0
 40
1
 40
1
 40
1
 40
1
 10
55.861222
 20
360.328232
 30
0.0
 10
55.687469
 20
360.007456
 30
0.0
 10
55.446887
 20
359.756849
 30
0.0
 10
55.139474
 20
359.576413
 30
0.0
  0
SPLINE
  5
3ff
100
AcDbEntity
  8
0
 62
7
100
AcDbSpline
 70
8
 71
3
 72
8
 73
4
 74
0
 40
0
 40
0
 40
0
 40
0
 40
1
 40
1
 40
1
 40
1
 10
55.139474
 20
359.576413
 30
0.0
 10
54.832065
 20
359.395974
 30
0.0
 10
54.484558
 20
359.305755
 30
0.0
 10
54.096952
 20
359.305755
 30
0.0
  0
SPLINE
  5
400
100
AcDbEntity
  8
0
 62
7
100
AcDbSpline
 70
8
 71
3
 72
8
 73
4
 74
0
 40
0
 40
0
 40
0
 40
0
 40
1
 40
1
 40
1
 40
1
 10
54.096952
 20
359.305755
 30
0.0
 10
53.716032
 20
359.305755
 30
0.0
 10
53.368523
 20
359.395974
 30
0.0
 10
53.054427
 20
359.576413
 30
0.0
  0
SPLINE
  5
401
100
AcDbEntity
  8
0
 62
7
100
AcDbSpline
 70
8
 71
3
 72
8
 73
4
 74
0
 40
0
 40
0
 40
0
 40
0
 40
1
 40
1
 40
1
 40
1
 10
53.054427
 20
359.576413
 30
0.0
 10
52.747018
 20
359.756849
 30
0.0
 10
52.503096
 20
360.007456
 30
0.0
 10
52.322660
 20
360.328232
 30
0.0
  0
SPLINE
  5
402
100
AcDbEntity
  8
0
 62
7
100
AcDbSpline
 70
8
 71
3
 72
8
 73
4
 74
0
 40
0
 40
0
 40
0
 40
0
 40
1
 40
1
 40
1
 40
1
 10
52.322660
 20
360.328232
 30
0.0
 10
52.148905
 20
360.642324
 30
0.0
 10
52.062027
 20
360.999857
 30
0.0
 10
52.062027
 20
361.400831
 30
0.0
  0
SPLINE
  5
403
100
AcDbEntity
  8
0
 62
7
100
AcDbSpline
 70
8
 71
3
 72
8
 73
4
 74
0
 40
0
 40
0
 40
0
 40
0
 40
1
 40
1
 40
1
 40
1
 10
52.062027
 20
361.400831
 30
0.0
 10
52.062027
 20
361.795119
 30
0.0
 10
52.148905
 20
362.152650
 30
0.0
 10
52.322660
 20
362.473424
 30
0.0
  0
SPLINE
  5
404
100
AcDbEntity
  8
0
 62
7
100
AcDbSpline
 70
8
 71
3
 72
8
 73
4
 74
0
 40
0
 40
0
 40
0
 40
0
 40
1
 40
1
 40
1
 40
1
 10
52.322660
 20
362.473424
 30
0.0
 10
52.503096
 20
362.787521
 30
0.0
 10
52.747018
 20
363.034787
 30
0.0
 10
53.054427
 20
363.215224
 30
0.0
  0
SPLINE
  5
405
100
AcDbEntity
  8
0
 62
7
100
AcDbSpline
 70
8
 71
3
 72
8
 73
4
 74
0
 40
0
 40
0
 40
0
 40
0
 40
1
 40
1
 40
1
 40
1
 10
53.054427
 20
363.215224
 30
0.0
 10
53.368523
 20
363.395660
 30
0.0
 10
53.716032
 20
363.485879
 30
0.0
 10
54.096952
 20
363.485879
 30
0.0
  0
LINE
  5
406
100
AcDbEntity
  8
0
 62
7
100
AcDbLine
 10
54.096952
 20
363.485879
 30
0.0
 11
54.096952
 21
363.485879
 31
0.0
  0
SPLINE
  5
407
100
AcDbEntity
  8
0
 62
7
100
AcDbSpline
 70
8
 71
3
 72
8
 73
4
 74
0
 40
0
 40
0
 40
0
 40
0
 40
1
 40
1
 40
1
 40
1
 10
48.588017
 20
364.187578
 30
0.0
 10
48.066754
 20
364.187578
 30
0.0
 10
47.598955
 20
364.067287
 30
0.0
 10
47.184619
 20
363.826704
 30
0.0
  0
SPLINE
  5
408
100
AcDbEntity
  8
0
 62
7
100
AcDbSpline
 70
8
 71
3
 72
8
 73
4
 74
0
 40
0
 40
0
 40
0
 40
0
 40
1
 40
1
 40
1
 40
1
 10
47.184619
 20
363.826704
 30
0.0
 10
46.770282
 20
363.579438
 30
0.0
 10
46.442824
 20
363.245296
 30
0.0
 10
46.202243
 20
362.824279
 30
0.0
  0
SPLINE
  5
409
100
AcDbEntity
  8
0
 62
7
100
AcDbSpline
 70
8
 71
3
 72
8
 73
4
 74
0
 40
0
 40
0
 40
0
 40
0
 40
1
 40
1
 40
1
 40
1
 10
46.202243
 20
362.824279
 30
0.0
 10
45.968343
 20
362.396574
 30
0.0
 10
45.851393
 20
361.922091
 30
0.0
 10
45.851393
 20
361.400831
 30
0.0
  0
SPLINE
  5
40a
100
AcDbEntity
  8
0
 62
7
100
AcDbSpline
 70
8
 71
3
 72
8
 73
4
 74
0
 40
0
 40
0
 40
0
 40
0
 40
1
 40
1
 40
1
 40
1
 10
45.851393
 20
361.400831
 30
0.0
 10
45.851393
 20
360.866201
 30
0.0
 10
45.965002
 20
360.388377
 30
0.0
 10
46.192219
 20
359.967358
 30
0.0
  0
SPLINE
  5
40b
100
AcDbEntity
  8
0
 62
7
100
AcDbSpline
 70
8
 71
3
 72
8
 73
4
 74
0
 40
0
 40
0
 40
0
 40
0
 40
1
 40
1
 40
1
 40
1
 10
46.192219
 20
359.967358
 30
0.0
 10
46.419433
 20
359.539655
 30
0.0
 10
46.733527
 20
359.205512
 30
0.0
 10
47.134500
 20
358.964929
 30
0.0
  0
SPLINE
  5
40c
100
AcDbEntity
  8
0
 62
7
100
AcDbSpline
 70
8
 71
3
 72
8
 73
4
 74
0
 40
0
 40
0
 40
0
 40
0
 40
1
 40
1
 40
1
 40
1
 10
47.134500
 20
358.964929
 30
0.0
 10
47.535471
 20
358.724349
 30
0.0
 10
47.986562
 20
358.604059
 30
0.0
 10
48.487775
 20
358.604059
 30
0.0
  0
SPLINE
  5
40d
100
AcDbEntity
  8
0
 62
7
100
AcDbSpline
 70
8
 71
3
 72
8
 73
4
 74
0
 40
0
 40
0
 40
0
 40
0
 40
1
 40
1
 40
1
 40
1
 10
48.487775
 20
358.604059
 30
0.0
 10
49.323134
 20
358.604059
 30
0.0
 10
50.001443
 20
358.924835
 30
0.0
 10
50.522703
 20
359.566387
 30
0.0
  0
SPLINE
  5
40e
100
AcDbEntity
  8
0
 62
7
100
AcDbSpline
 70
8
 71
3
 72
8
 73
4
 74
0
 40
0
 40
0
 40
0
 40
0
 40
1
 40
1
 40
1
 40
1
 10
50.522703
 20
359.566387
 30
0.0
 10
50.576163
 20
359.626533
 30
0.0
 10
50.602893
 20
359.696703
 30
0.0
 10
50.602893
 20
359.776896
 30
0.0
  0
SPLINE
  5
40f
100
AcDbEntity
  8
0
 62
7
100
AcDbSpline
 70
8
 71
3
 72
8
 73
4
 74
0
 40
0
 40
0
 40
0
 40
0
 40
1
 40
1
 40
1
 40
1
 10
50.602893
 20
359.776896
 30
0.0
 10
50.602893
 20
359.883821
 30
0.0
 10
50.546090
 20
359.977381
 30
0.0
 10
50.432483
 20
360.057577
 30
0.0
  0
SPLINE
  5
410
100
AcDbEntity
  8
0
 62
7
100
AcDbSpline
 70
8
 71
3
 72
8
 73
4
 74
0
 40
0
 40
0
 40
0
 40
0
 40
1
 40
1
 40
1
 40
1
 10
50.432483
 20
360.057577
 30
0.0
 10
50.372337
 20
360.097671
 30
0.0
 10
50.308850
 20
360.117719
 30
0.0
 10
50.242022
 20
360.117719
 30
0.0
  0
SPLINE
  5
411
100
AcDbEntity
  8
0
 62
7
100
AcDbSpline
 70
8
 71
3
 72
8
 73
4
 74
0
 40
0
 40
0
 40
0
 40
0
 40
1
 40
1
 40
1
 40
1
 10
50.242022
 20
360.117719
 30
0.0
 10
50.141782
 20
360.117719
 30
0.0
 10
50.044881
 20
360.067598
 30
0.0
 10
49.951319
 20
359.967358
 30
0.0
  0
SPLINE
  5
412
100
AcDbEntity
  8
0
 62
7
100
AcDbSpline
 70
8
 71
3
 72
8
 73
4
 74
0
 40
0
 40
0
 40
0
 40
0
 40
1
 40
1
 40
1
 40
1
 10
49.951319
 20
359.967358
 30
0.0
 10
49.750836
 20
359.746827
 30
0.0
 10
49.530301
 20
359.583098
 30
0.0
 10
49.289716
 20
359.476171
 30
0.0
  0
SPLINE
  5
413
100
AcDbEntity
  8
0
 62
7
100
AcDbSpline
 70
8
 71
3
 72
8
 73
4
 74
0
 40
0
 40
0
 40
0
 40
0
 40
1
 40
1
 40
1
 40
1
 10
49.289716
 20
359.476171
 30
0.0
 10
49.049134
 20
359.362560
 30
0.0
 10
48.781820
 20
359.305755
 30
0.0
 10
48.487775
 20
359.305755
 30
0.0
  0
SPLINE
  5
414
100
AcDbEntity
  8
0
 62
7
100
AcDbSpline
 70
8
 71
3
 72
8
 73
4
 74
0
 40
0
 40
0
 40
0
 40
0
 40
1
 40
1
 40
1
 40
1
 10
48.487775
 20
359.305755
 30
0.0
 10
48.120218
 20
359.305755
 30
0.0
 10
47.792758
 20
359.395974
 30
0.0
 10
47.505395
 20
359.576413
 30
0.0
  0
SPLINE
  5
415
100
AcDbEntity
  8
0
 62
7
100
AcDbSpline
 70
8
 71
3
 72
8
 73
4
 74
0
 40
0
 40
0
 40
0
 40
0
 40
1
 40
1
 40
1
 40
1
 10
47.505395
 20
359.576413
 30
0.0
 10
47.218034
 20
359.750168
 30
0.0
 10
46.994160
 20
359.997432
 30
0.0
 10
46.833772
 20
360.318206
 30
0.0
  0
SPLINE
  5
416
100
AcDbEntity
  8
0
 62
7
100
AcDbSpline
 70
8
 71
3
 72
8
 73
4
 74
0
 40
0
 40
0
 40
0
 40
0
 40
1
 40
1
 40
1
 40
1
 10
46.833772
 20
360.318206
 30
0.0
 10
46.680065
 20
360.638982
 30
0.0
 10
46.603212
 20
360.999857
 30
0.0
 10
46.603212
 20
361.400831
 30
0.0
  0
SPLINE
  5
417
100
AcDbEntity
  8
0
 62
7
100
AcDbSpline
 70
8
 71
3
 72
8
 73
4
 74
0
 40
0
 40
0
 40
0
 40
0
 40
1
 40
1
 40
1
 40
1
 10
46.603212
 20
361.400831
 30
0.0
 10
46.603212
 20
361.795119
 30
0.0
 10
46.686748
 20
362.152650
 30
0.0
 10
46.853821
 20
362.473424
 30
0.0
  0
SPLINE
  5
418
100
AcDbEntity
  8
0
 62
7
100
AcDbSpline
 70
8
 71
3
 72
8
 73
4
 74
0
 40
0
 40
0
 40
0
 40
0
 40
1
 40
1
 40
1
 40
1
 10
46.853821
 20
362.473424
 30
0.0
 10
47.020892
 20
362.787521
 30
0.0
 10
47.254792
 20
363.034787
 30
0.0
 10
47.555521
 20
363.215224
 30
0.0
  0
SPLINE
  5
419
100
AcDbEntity
  8
0
 62
7
100
AcDbSpline
 70
8
 71
3
 72
8
 73
4
 74
0
 40
0
 40
0
 40
0
 40
0
 40
1
 40
1
 40
1
 40
1
 10
47.555521
 20
363.215224
 30
0.0
 10
47.856247
 20
363.395660
 30
0.0
 10
48.200413
 20
363.485879
 30
0.0
 10
48.588017
 20
363.485879
 30
0.0
  0
SPLINE
  5
41a
100
AcDbEntity
  8
0
 62
7
100
AcDbSpline
 70
8
 71
3
 72
8
 73
4
 74
0
 40
0
 40
0
 40
0
 40
0
 40
1
 40
1
 40
1
 40
1
 10
48.588017
 20
363.485879
 30
0.0
 10
49.122647
 20
363.485879
 30
0.0
 10
49.553690
 20
363.342198
 30
0.0
 10
49.881148
 20
363.054837
 30
0.0
  0
SPLINE
  5
41b
100
AcDbEntity
  8
0
 62
7
100
AcDbSpline
 70
8
 71
3
 72
8
 73
4
 74
0
 40
0
 40
0
 40
0
 40
0
 40
1
 40
1
 40
1
 40
1
 10
49.881148
 20
363.054837
 30
0.0
 10
49.968028
 20
362.981325
 30
0.0
 10
50.058247
 20
362.944569
 30
0.0
 10
50.151806
 20
362.944569
 30
0.0
  0
SPLINE
  5
41c
100
AcDbEntity
  8
0
 62
7
100
AcDbSpline
 70
8
 71
3
 72
8
 73
4
 74
0
 40
0
 40
0
 40
0
 40
0
 40
1
 40
1
 40
1
 40
1
 10
50.151806
 20
362.944569
 30
0.0
 10
50.232000
 20
362.944569
 30
0.0
 10
50.305510
 20
362.971300
 30
0.0
 10
50.372338
 20
363.024763
 30
0.0
  0
SPLINE
  5
41d
100
AcDbEntity
  8
0
 62
7
100
AcDbSpline
 70
8
 71
3
 72
8
 73
4
 74
0
 40
0
 40
0
 40
0
 40
0
 40
1
 40
1
 40
1
 40
1
 10
50.372338
 20
363.024763
 30
0.0
 10
50.465902
 20
363.104958
 30
0.0
 10
50.512684
 20
363.195177
 30
0.0
 10
50.512684
 20
363.295417
 30
0.0
  0
SPLINE
  5
41e
100
AcDbEntity
  8
0
 62
7
100
AcDbSpline
 70
8
 71
3
 72
8
 73
4
 74
0
 40
0
 40
0
 40
0
 40
0
 40
1
 40
1
 40
1
 40
1
 10
50.512684
 20
363.295417
 30
0.0
 10
50.512684
 20
363.382292
 30
0.0
 10
50.479269
 20
363.455803
 30
0.0
 10
50.412439
 20
363.515949
 30
0.0
  0
SPLINE
  5
41f
100
AcDbEntity
  8
0
 62
7
100
AcDbSpline
 70
8
 71
3
 72
8
 73
4
 74
0
 40
0
 40
0
 40
0
 40
0
 40
1
 40
1
 40
1
 40
1
 10
50.412439
 20
363.515949
 30
0.0
 10
49.931271
 20
363.963702
 30
0.0
 10
49.323130
 20
364.187578
 30
0.0
 10
48.588017
 20
364.187578
 30
0.0
  0
LINE
  5
420
100
AcDbEntity
  8
0
 62
7
100
AcDbLine
 10
48.588017
 20
364.187578
 30
0.0
 11
48.588017
 21
364.187578
 31
0.0
  0
SPLINE
  5
421
100
AcDbEntity
  8
0
 62
7
100
AcDbSpline
 70
8
 71
3
 72
8
 73
4
 74
0
 40
0
 40
0
 40
0
 40
0
 40
1
 40
1
 40
1
 40
1
 10
137.143681
 20
352.476220
 30
0.0
 10
136.745856
 20
352.476220
 30
0.0
 10
136.364325
 20
352.634256
 30
0.0
 10
136.083020
 20
352.915560
 30
0.0
  0
SPLINE
  5
422
100
AcDbEntity
  8
0
 62
7
100
AcDbSpline
 70
8
 71
3
 72
8
 73
4
 74
0
 40
0
 40
0
 40
0
 40
0
 40
1
 40
1
 40
1
 40
1
 10
136.083020
 20
352.915560
 30
0.0
 10
135.801716
 20
353.196865
 30
0.0
 10
135.643680
 20
353.578396
 30
0.0
 10
135.643681
 20
353.976221
 30
0.0
  0
SPLINE
  5
423
100
AcDbEntity
  8
0
 62
7
100
AcDbSpline
 70
8
 71
3
 72
8
 73
4
 74
0
 40
0
 40
0
 40
0
 40
0
 40
1
 40
1
 40
1
 40
1
 10
135.643681
 20
353.976221
 30
0.0
 10
135.643680
 20
354.374046
 30
0.0
 10
135.801716
 20
354.755577
 30
0.0
 10
136.083020
 20
355.036882
 30
0.0
  0
SPLINE
  5
424
100
AcDbEntity
  8
0
 62
7
100
AcDbSpline
 70
8
 71
3
 72
8
 73
4
 74
0
 40
0
 40
0
 40
0
 40
0
 40
1
 40
1
 40
1
 40
1
 10
136.083020
 20
355.036882
 30
0.0
 10
136.364325
 20
355.318186
 30
0.0
 10
136.745856
 20
355.476222
 30
0.0
 10
137.143681
 20
355.476221
 30
0.0
  0
SPLINE
  5
425
100
AcDbEntity
  8
0
 62
7
100
AcDbSpline
 70
8
 71
3
 72
8
 73
4
 74
0
 40
0
 40
0
 40
0
 40
0
 40
1
 40
1
 40
1
 40
1
 10
137.143681
 20
355.476221
 30
0.0
 10
137.541506
 20
355.476222
 30
0.0
 10
137.923037
 20
355.318186
 30
0.0
 10
138.204342
 20
355.036882
 30
0.0
  0
SPLINE
  5
426
100
AcDbEntity
  8
0
 62
7
100
AcDbSpline
 70
8
 71
3
 72
8
 73
4
 74
0
 40
0
 40
0
 40
0
 40
0
 40
1
 40
1
 40
1
 40
1
 10
138.204342
 20
355.036882
 30
0.0
 10
138.485646
 20
354.755577
 30
0.0
 10
138.643682
 20
354.374046
 30
0.0
 10
138.643682
 20
353.976221
 30
0.0
  0
SPLINE
  5
427
100
AcDbEntity
  8
0
 62
7
100
AcDbSpline
 70
8
 71
3
 72
8
 73
4
 74
0
 40
0
 40
0
 40
0
 40
0
 40
1
 40
1
 40
1
 40
1
 10
138.643682
 20
353.976221
 30
0.0
 10
138.643682
 20
353.578396
 30
0.0
 10
138.485646
 20
353.196865
 30
0.0
 10
138.204342
 20
352.915560
 30
0.0
  0
SPLINE
  5
428
100
AcDbEntity
  8
0
 62
7
100
AcDbSpline
 70
8
 71
3
 72
8
 73
4
 74
0
 40
0
 40
0
 40
0
 40
0
 40
1
 40
1
 40
1
 40
1
 10
138.204342
 20
352.915560
 30
0.0
 10
137.923037
 20
352.634256
 30
0.0
 10
137.541506
 20
352.476220
 30
0.0
 10
137.143681
 20
352.476220
 30
0.0
  0
LINE
  5
429
100
AcDbEntity
  8
0
 62
7
100
AcDbLine
 10
137.143681
 20
352.476220
 30
0.0
 11
137.143681
 21
352.476220
 31
0.0
  0
SPLINE
  5
42a
100
AcDbEntity
  8
0
 62
7
100
AcDbSpline
 70
8
 71
3
 72
8
 73
4
 74
0
 40
0
 40
0
 40
0
 40
0
 40
1
 40
1
 40
1
 40
1
 10
137.143681
 20
364.476221
 30
0.0
 10
136.745856
 20
364.476221
 30
0.0
 10
136.364325
 20
364.634256
 30
0.0
 10
136.083020
 20
364.915561
 30
0.0
  0
SPLINE
  5
42b
100
AcDbEntity
  8
0
 62
7
100
AcDbSpline
 70
8
 71
3
 72
8
 73
4
 74
0
 40
0
 40
0
 40
0
 40
0
 40
1
 40
1
 40
1
 40
1
 10
136.083020
 20
364.915561
 30
0.0
 10
135.801716
 20
365.196866
 30
0.0
 10
135.643680
 20
365.578397
 30
0.0
 10
135.643681
 20
365.976221
 30
0.0
  0
SPLINE
  5
42c
100
AcDbEntity
  8
0
 62
7
100
AcDbSpline
 70
8
 71
3
 72
8
 73
4
 74
0
 40
0
 40
0
 40
0
 40
0
 40
1
 40
1
 40
1
 40
1
 10
135.643681
 20
365.976221
 30
0.0
 10
135.643680
 20
366.374046
 30
0.0
 10
135.801716
 20
366.755577
 30
0.0
 10
136.083020
 20
367.036882
 30
0.0
  0
SPLINE
  5
42d
100
AcDbEntity
  8
0
 62
7
100
AcDbSpline
 70
8
 71
3
 72
8
 73
4
 74
0
 40
0
 40
0
 40
0
 40
0
 40
1
 40
1
 40
1
 40
1
 10
136.083020
 20
367.036882
 30
0.0
 10
136.364325
 20
367.318187
 30
0.0
 10
136.745856
 20
367.476222
 30
0.0
 10
137.143681
 20
367.476222
 30
0.0
  0
SPLINE
  5
42e
100
AcDbEntity
  8
0
 62
7
100
AcDbSpline
 70
8
 71
3
 72
8
 73
4
 74
0
 40
0
 40
0
 40
0
 40
0
 40
1
 40
1
 40
1
 40
1
 10
137.143681
 20
367.476222
 30
0.0
 10
137.541506
 20
367.476222
 30
0.0
 10
137.923037
 20
367.318187
 30
0.0
 10
138.204342
 20
367.036882
 30
0.0
  0
SPLINE
  5
42f
100
AcDbEntity
  8
0
 62
7
100
AcDbSpline
 70
8
 71
3
 72
8
 73
4
 74
0
 40
0
 40
0
 40
0
 40
0
 40
1
 40
1
 40
1
 40
1
 10
138.204342
 20
367.036882
 30
0.0
 10
138.485646
 20
366.755577
 30
0.0
 10
138.643682
 20
366.374046
 30
0.0
 10
138.643682
 20
365.976221
 30
0.0
  0
SPLINE
  5
430
100
AcDbEntity
  8
0
 62
7
100
AcDbSpline
 70
8
 71
3
 72
8
 73
4
 74
0
 40
0
 40
0
 40
0
 40
0
 40
1
 40
1
 40
1
 40
1
 10
138.643682
 20
365.976221
 30
0.0
 10
138.643682
 20
365.578397
 30
0.0
 10
138.485646
 20
365.196866
 30
0.0
 10
138.204342
 20
364.915561
 30
0.0
  0
SPLINE
  5
431
100
AcDbEntity
  8
0
 62
7
100
AcDbSpline
 70
8
 71
3
 72
8
 73
4
 74
0
 40
0
 40
0
 40
0
 40
0
 40
1
 40
1
 40
1
 40
1
 10
138.204342
 20
364.915561
 30
0.0
 10
137.923037
 20
364.634256
 30
0.0
 10
137.541506
 20
364.476221
 30
0.0
 10
137.143681
 20
364.476221
 30
0.0
  0
LINE
  5
432
100
AcDbEntity
  8
0
 62
7
100
AcDbLine
 10
137.143681
 20
364.476221
 30
0.0
 11
137.143681
 21
364.476221
 31
0.0
  0
ENDSEC
  0
SECTION
  2
OBJECTS
  0
DICTIONARY
  5
C
330
0
100
AcDbDictionary
  3
ACAD_GROUP
350
D
  3
ACAD_MLINESTYLE
350
17
  0
DICTIONARY
  5
D
330
C
100
AcDbDictionary
  0
DICTIONARY
  5
1A
330
C
100
AcDbDictionary
  0
DICTIONARY
  5
17
330
C
100
AcDbDictionary
  3
STANDARD
350
18
  0
DICTIONARY
  5
19
330
C
100
AcDbDictionary
  0
ENDSEC
  0
EOF
